<svg width="55" height="40" viewBox="0 0 55 40" fill="none" xmlns="http://www.w3.org/2000/svg">
<path fill-rule="evenodd" clip-rule="evenodd" d="M1.04162 5.19319C1.32956 3.04335 3.04074 1.41076 5.1982 1.18692C9.76743 0.712846 18.1373 0 27.1549 0C36.2676 0 45.0329 0.727964 49.7733 1.20184C51.9446 1.41888 53.6728 3.05749 53.962 5.22031C54.421 8.65317 55 14.1444 55 20C55 25.8485 54.4224 31.3334 53.9637 34.7671C53.674 36.9359 51.937 38.5775 49.7595 38.7922C44.9553 39.266 36.072 40 27.1549 40C18.3282 40 9.84496 39.2808 5.21245 38.8067C3.04803 38.5853 1.32833 36.9494 1.03976 34.7929C0.580514 31.361 0 25.8632 0 20C0 14.1289 0.582084 8.6242 1.04162 5.19319Z" fill="#FF5500"/>
</svg>
