<svg width="11" height="16" viewBox="0 0 11 16" fill="none" xmlns="http://www.w3.org/2000/svg">
<path fill-rule="evenodd" clip-rule="evenodd" d="M10.0568 7.29297H0.606004C0.526868 7.29297 0.45422 7.24973 0.415733 7.18097C0.379409 7.11092 0.381139 7.0253 0.424814 6.95957L4.87022 0.099027C4.90957 0.0389189 4.97444 0.00216216 5.04579 0C5.11195 0.000864865 5.1846 0.0311351 5.22654 0.0886486L10.2025 6.90897C10.2518 6.94919 10.2821 7.0093 10.2821 7.07676C10.2821 7.19568 10.1848 7.29297 10.0659 7.29297H10.0568ZM10.238 8.90205C10.2817 8.83459 10.2851 8.7507 10.2471 8.68151C10.2095 8.61146 10.1377 8.56822 10.0568 8.56908H0.606004C0.525139 8.56908 0.45076 8.61405 0.414004 8.6867C0.376814 8.75892 0.384166 8.84713 0.431733 8.912L5.43584 15.7721C5.47606 15.8279 5.54222 15.8608 5.61011 15.8608H5.6166C5.68838 15.8586 5.75325 15.8218 5.7926 15.7617L10.238 8.90205Z" fill="black"/>
</svg>
