<svg width="72" height="69" viewBox="0 0 72 69" fill="none" xmlns="http://www.w3.org/2000/svg">
<g clip-path="url(#clip0_0_23382)">
<path d="M71.557 58.9461C71.557 64.4689 67.0799 68.9461 61.557 68.9461H10.0086C4.48241 68.9461 0.003874 64.4636 0.00865013 58.9374L0.00953396 57.9148H71.557V58.9461Z" fill="#D3DCFB"/>
<path d="M71.719 24.8206V53.4302C71.719 58.953 67.2419 63.4302 61.719 63.4302L10.0098 63.4303C4.48693 63.4303 0.00976562 58.9532 0.00976562 53.4303V24.8206H71.719Z" fill="#EBF5FC"/>
<path d="M71.719 24.8207V11.0313C71.719 7.98516 69.2496 5.51587 66.2036 5.51587H5.52524C2.47906 5.51587 0.00976562 7.98516 0.00976562 11.0313V24.8207H71.719Z" fill="#FF4155"/>
<path d="M17.3893 12.2799H13.7992C13.1096 12.2799 12.5508 11.7209 12.5508 11.0314C12.5508 10.3419 13.1097 9.78296 13.7992 9.78296H17.3893C18.079 9.78296 18.6378 10.3419 18.6378 11.0314C18.6378 11.7209 18.0789 12.2799 17.3893 12.2799Z" fill="#E80054"/>
<path d="M26.2097 12.2799H22.6196C21.9299 12.2799 21.3711 11.7209 21.3711 11.0314C21.3711 10.3419 21.93 9.78296 22.6196 9.78296H26.2097C26.8993 9.78296 27.4581 10.3419 27.4581 11.0314C27.4581 11.7209 26.8993 12.2799 26.2097 12.2799Z" fill="#E80054"/>
<path d="M49.1063 12.2799H45.516C44.8264 12.2799 44.2676 11.7209 44.2676 11.0314C44.2676 10.3419 44.8265 9.78296 45.516 9.78296H49.1063C49.796 9.78296 50.3548 10.3419 50.3548 11.0314C50.3548 11.7209 49.796 12.2799 49.1063 12.2799Z" fill="#E80054"/>
<path d="M57.9266 12.2799H54.3364C53.6467 12.2799 53.0879 11.7209 53.0879 11.0314C53.0879 10.3419 53.6468 9.78296 54.3364 9.78296H57.9266C58.6163 9.78296 59.1751 10.3419 59.1751 11.0314C59.1751 11.7209 58.6161 12.2799 57.9266 12.2799Z" fill="#E80054"/>
<path d="M23.4511 10.3419C23.4511 12.2458 21.9078 13.7892 20.0039 13.7892C18.1 13.7892 16.5566 12.2458 16.5566 10.3419V3.44725C16.5565 1.54337 18.0998 0 20.0037 0C21.9076 0 23.451 1.54337 23.451 3.44725V10.3419H23.4511Z" fill="#EBF5FC"/>
<path d="M55.1681 10.3419C55.1681 12.2458 53.6247 13.7892 51.7209 13.7892C49.817 13.7892 48.2734 12.2458 48.2734 10.3419V3.44725C48.2734 1.54337 49.8168 0 51.7207 0C53.6246 0 55.1679 1.54337 55.1679 3.44725V10.3419H55.1681Z" fill="#EBF5FC"/>
<path d="M51.7212 0C51.0134 0 50.3561 0.213948 49.8086 0.579794C50.7337 1.19805 51.3434 2.25115 51.3434 3.44741V10.3419C51.3434 11.538 50.7337 12.5913 49.8086 13.2095C50.3559 13.5752 51.0134 13.7893 51.7212 13.7893C53.6251 13.7893 55.1685 12.246 55.1685 10.3421V3.44725C55.1686 1.54337 53.6252 0 51.7212 0V0Z" fill="#D3DCFB"/>
<path d="M20.0044 0C19.2966 0 18.6393 0.213948 18.0918 0.579794C19.0169 1.19805 19.6266 2.25115 19.6266 3.44741V10.3419C19.6266 11.538 19.0169 12.5913 18.0918 13.2095C18.6391 13.5752 19.2966 13.7893 20.0044 13.7893C21.9083 13.7893 23.4517 12.246 23.4517 10.3421V3.44725C23.4518 1.54337 21.9085 0 20.0044 0Z" fill="#D3DCFB"/>
<path d="M66.2033 5.51563H62.373C65.4192 5.51563 67.8885 7.98492 67.8885 11.0311V24.8206H71.7186V11.0313C71.7187 7.98508 69.2493 5.51562 66.2033 5.51563Z" fill="#E80054"/>
<path d="M0.00976563 18.0564H71.7192V20.5535H0.00976562L0.00976563 18.0564Z" fill="#E80054"/>
</g>
<defs>
<clipPath id="clip0_0_23382">
<rect width="72" height="69" fill="white"/>
</clipPath>
</defs>
</svg>
