<svg width="48" height="40" viewBox="0 0 48 40" fill="none" xmlns="http://www.w3.org/2000/svg">
<path d="M35.1018 27.6923L46.4627 23.7963C44.6618 21.1978 41.1979 20.1108 38.1027 21.1729C35.2134 22.1642 33.3321 24.7974 33.4447 27.6923C33.3324 30.5871 35.2136 33.2202 38.1027 34.2118C41.1982 35.2732 44.6619 34.1858 46.4627 31.5873L35.1018 27.6923Z" fill="#EB9138"/>
<path d="M14.311 10.8398H35.7102V37.6898H14.311V10.8398Z" fill="#FCF055"/>
<path d="M15.2988 10.7309C15.6138 5.16708 20.0398 0.821428 25.3967 0.816406C30.7525 0.823302 35.1769 5.16828 35.4923 10.7309H15.2988Z" fill="#5CD2A7"/>
<ellipse cx="29.2119" cy="17.8338" rx="3.06902" ry="3.05614" transform="rotate(-90 29.2119 17.8338)" fill="black"/>
<path fill-rule="evenodd" clip-rule="evenodd" d="M47.2288 23.7775L46.8084 23.1319C44.8947 20.1717 41.1969 18.9364 37.9002 20.1558C37.3544 20.3582 36.8337 20.6231 36.3483 20.9453V11.1447C36.349 10.7326 36.3264 10.3207 36.2807 9.91104C35.6465 4.26518 30.8932 -0.00128999 25.2388 4.9904e-06C19.5809 -0.0053271 14.8228 4.26282 14.1888 9.91219H1.10587C0.945289 9.91188 0.791181 9.97577 0.677525 10.0898C0.563869 10.2037 0.5 10.3585 0.5 10.5198C0.500303 10.681 0.564307 10.8354 0.67793 10.9492C0.791552 11.0629 0.945487 11.1266 1.10587 11.1263H14.1166V37.6923H36.3483V34.1178C36.8324 34.4385 37.3516 34.7022 37.8956 34.9038C38.7304 35.2086 39.6119 35.3644 40.5001 35.3642C43.044 35.363 45.4145 34.0685 46.7993 31.9243L47.2162 31.2833L36.929 27.5292L47.2288 23.7775ZM38.3194 21.3032C39.0199 21.046 39.76 20.9143 40.5058 20.9142C42.3694 20.913 44.1378 21.7411 45.3356 23.1756L36.3483 26.4521V22.4506C36.9299 21.952 37.5965 21.5632 38.316 21.3032H38.3194ZM35.0701 9.91219C34.4369 4.9409 30.2265 1.21642 25.2388 1.21529C20.2506 1.21584 16.0396 4.94047 15.4063 9.91219H35.0701ZM35.1411 36.4816H15.3272V11.1459H35.1411V36.4816ZM36.3529 32.6148C36.9324 33.1142 37.5971 33.504 38.3148 33.7656V33.761C40.8128 34.6861 43.6199 33.9371 45.3321 31.8886L36.3529 28.6122V32.6148Z" fill="#1F1F1F"/>
</svg>
