<svg width="100" height="40" viewBox="0 0 100 40" fill="none" xmlns="http://www.w3.org/2000/svg">
<path fill-rule="evenodd" clip-rule="evenodd" d="M85.562 27.595H89.6084C89.6084 27.595 88.137 28.5346 88.137 31.5621C88.137 33.6085 88.8092 36.6087 89.245 38.3385C89.3435 38.7298 88.7876 39.1077 88.4129 38.958C88.1518 38.8536 87.8685 38.7812 87.5852 38.7812C87.3019 38.7812 87.0186 38.8536 86.7576 38.958C86.3828 39.1077 85.8269 38.7298 85.9255 38.3385C86.3612 36.6087 87.0334 33.6085 87.0334 31.5621C87.0334 28.5346 85.562 27.595 85.562 27.595Z" fill="#440692"/>
<ellipse cx="78.3347" cy="1.87916" rx="1.8772" ry="1.87916" fill="#440692"/>
<ellipse cx="97.3152" cy="1.87916" rx="1.8772" ry="1.87916" fill="#440692"/>
<path fill-rule="evenodd" clip-rule="evenodd" d="M90.4412 27.4646C89.5534 27.7203 88.6335 27.8481 87.6815 27.8481H87.4568C86.5048 27.8481 85.5849 27.7203 84.6971 27.4646C83.8093 27.209 82.9776 26.8495 82.2021 26.3862C81.4266 25.9228 80.7179 25.3689 80.0761 24.7245C79.4343 24.0801 78.8834 23.3665 78.4235 22.5836C77.9635 21.8007 77.6052 20.9592 77.3485 20.0592C77.0917 19.1591 76.9634 18.2191 76.9634 17.2392C76.9634 16.3125 77.0837 15.4071 77.3244 14.523C77.5651 13.6389 77.9074 12.8028 78.3513 12.0146C78.7952 11.2264 79.3327 10.4994 79.9638 9.83366C80.5949 9.16794 81.3036 8.59542 82.0898 8.1161C82.876 7.63678 83.729 7.26131 84.649 6.9897C85.5689 6.71808 86.5423 6.58228 87.5692 6.58228H87.6013C88.6281 6.58228 89.6042 6.71808 90.5295 6.9897C91.4547 7.26131 92.3078 7.63678 93.0887 8.1161C93.8695 8.59542 94.5782 9.16794 95.2146 9.83366C95.8511 10.4994 96.3886 11.2264 96.8272 12.0146C97.2657 12.8028 97.6053 13.6416 97.846 14.531C98.0867 15.4204 98.207 16.3231 98.207 17.2392C98.207 18.2084 98.0787 19.1458 97.822 20.0512C97.5652 20.9565 97.2069 21.8033 96.7469 22.5916C96.287 23.3798 95.7334 24.0961 95.0863 24.7405C94.4391 25.3849 93.7251 25.9361 92.9443 26.3942C92.1634 26.8522 91.3291 27.209 90.4412 27.4646ZM87.2535 22.2785H87.4111C88.0833 22.268 88.7082 22.1325 89.2859 21.8718C89.8635 21.6111 90.365 21.2617 90.7904 20.8237C91.2158 20.3857 91.5466 19.8747 91.7829 19.2907C92.0193 18.7067 92.1374 18.0915 92.1374 17.4449C92.1374 16.767 92.0114 16.1413 91.7593 15.5678C91.5072 14.9942 91.1711 14.4962 90.751 14.0739C90.3309 13.6515 89.8399 13.3152 89.278 13.0649C88.7161 12.8147 88.1305 12.6791 87.5214 12.6582H87.3323C86.7021 12.6582 86.0956 12.7782 85.5127 13.018C84.9297 13.2579 84.4177 13.589 83.9766 14.0113C83.5355 14.4337 83.1836 14.9368 82.9211 15.5208C82.6585 16.1048 82.5272 16.7462 82.5272 17.4449C82.5272 18.0915 82.6454 18.7067 82.8817 19.2907C83.118 19.8747 83.4488 20.3857 83.8742 20.8237C84.2996 21.2617 84.7985 21.6111 85.3709 21.8718C85.9433 22.1325 86.5708 22.268 87.2535 22.2785Z" fill="#440692"/>
<path fill-rule="evenodd" clip-rule="evenodd" d="M9.10475 27.4367C8.84131 27.5443 8.56443 27.5981 8.27411 27.5981C7.98379 27.5981 7.71229 27.5443 7.4596 27.4367C7.20692 27.3291 6.98918 27.181 6.80638 26.9927C6.62359 26.8043 6.48112 26.581 6.37897 26.3226C6.27682 26.0643 6.22574 25.7844 6.22574 25.4831V10.3545H2.12901C1.82794 10.3545 1.54837 10.298 1.29031 10.185C1.03225 10.072 0.806443 9.9186 0.612897 9.72486C0.419351 9.53111 0.268814 9.30507 0.161289 9.04674C0.0537629 8.7884 0 8.50855 0 8.20716C0 7.91654 0.0537629 7.64206 0.161289 7.38373C0.268814 7.1254 0.419351 6.89936 0.612897 6.70561C0.806443 6.51186 1.03225 6.35848 1.29031 6.24546C1.54837 6.13244 1.82794 6.07593 2.12901 6.07593H14.4515C14.7418 6.07593 15.0187 6.13244 15.2821 6.24546C15.5455 6.35848 15.774 6.51455 15.9676 6.71368C16.1611 6.91281 16.3144 7.14423 16.4273 7.40795C16.5402 7.67166 16.5966 7.94883 16.5966 8.23945C16.5966 8.54084 16.5402 8.8207 16.4273 9.07903C16.3144 9.33736 16.1611 9.56071 15.9676 9.74907C15.774 9.93744 15.5455 10.0854 15.2821 10.1931C15.0187 10.3007 14.7418 10.3545 14.4515 10.3545H10.4354V25.4831C10.4354 25.7844 10.3789 26.0643 10.266 26.3226C10.1531 26.581 9.99721 26.8043 9.79829 26.9927C9.59936 27.181 9.36818 27.3291 9.10475 27.4367ZM24.4514 26.9765C23.5589 27.3802 22.5858 27.582 21.532 27.582C20.4783 27.582 19.4837 27.3802 18.5482 26.9765C17.6127 26.5729 16.7982 26.0239 16.1047 25.3297C15.4111 24.6354 14.8628 23.8254 14.4595 22.8997C14.0563 21.9741 13.8547 20.9838 13.8547 19.9289V13.955C13.8547 13.6644 13.9111 13.3899 14.0241 13.1316C14.137 12.8733 14.2902 12.6472 14.4837 12.4535C14.6773 12.2597 14.9031 12.1063 15.1611 11.9933C15.4192 11.8803 15.6934 11.8238 15.9837 11.8238C16.274 11.8238 16.5509 11.8803 16.8143 11.9933C17.0778 12.1063 17.309 12.2597 17.5079 12.4535C17.7068 12.6472 17.8627 12.8733 17.9756 13.1316C18.0885 13.3899 18.145 13.6644 18.145 13.955V19.9774C18.145 20.451 18.231 20.8896 18.403 21.2932C18.5751 21.6969 18.8143 22.0467 19.1208 22.3427C19.4272 22.6387 19.7874 22.8701 20.2014 23.037C20.6154 23.2038 21.0589 23.2872 21.532 23.2872C22.0052 23.2872 22.4299 23.2011 22.8062 23.0289C23.1826 22.8567 23.4998 22.6199 23.7578 22.3185C24.0159 22.0171 24.2148 21.6619 24.3546 21.2529C24.4944 20.8439 24.5643 20.4025 24.5643 19.9289V13.955C24.5643 13.6644 24.6234 13.3899 24.7417 13.1316C24.86 12.8733 25.0186 12.6472 25.2175 12.4535C25.4164 12.2597 25.6503 12.1063 25.9191 11.9933C26.1879 11.8803 26.4675 11.8238 26.7578 11.8238C27.0481 11.8238 27.3223 11.8803 27.5804 11.9933C27.8384 12.1063 28.0615 12.2597 28.2497 12.4535C28.4379 12.6472 28.5857 12.8733 28.6933 13.1316C28.8008 13.3899 28.8545 13.6644 28.8545 13.955V19.9289C28.8545 20.9838 28.6718 21.9741 28.3062 22.8997C27.9406 23.8254 27.4298 24.6354 26.7739 25.3297C26.118 26.0239 25.3438 26.5729 24.4514 26.9765ZM39.5964 27.5981C40.5749 27.5981 41.4888 27.4367 42.3383 27.1138C43.1877 26.7909 43.9458 26.3065 44.6124 25.6607C44.8598 25.4131 45.0506 25.1279 45.185 24.8049C45.3194 24.482 45.3866 24.1537 45.3866 23.8201C45.3866 23.5402 45.3302 23.2792 45.2173 23.037C45.1044 22.7948 44.9592 22.5822 44.7818 22.3992C44.6044 22.2162 44.3974 22.0736 44.1608 21.9714C43.9243 21.8691 43.6877 21.818 43.4512 21.818C43.1286 21.818 42.8356 21.8853 42.5721 22.0198C42.3087 22.1544 42.0587 22.3293 41.8222 22.5445C41.5318 22.8136 41.1985 23.0074 40.8222 23.1258C40.4458 23.2442 40.0372 23.3034 39.5964 23.3034C39.1018 23.3034 38.6448 23.2119 38.2254 23.0289C37.8061 22.8459 37.4405 22.593 37.1287 22.2701C36.8168 21.9472 36.5722 21.5704 36.3948 21.1399C36.2174 20.7093 36.1287 20.2465 36.1287 19.7513V15.5696H41.0802C41.3705 15.5696 41.6474 15.5158 41.9109 15.4081C42.1743 15.3005 42.4055 15.1525 42.6044 14.9641C42.8033 14.7758 42.9592 14.5578 43.0721 14.3102C43.185 14.0627 43.2415 13.7936 43.2415 13.5029C43.2415 13.2123 43.185 12.9352 43.0721 12.6714C42.9592 12.4077 42.8033 12.1763 42.6044 11.9772C42.4055 11.7781 42.1743 11.622 41.9109 11.509C41.6474 11.3959 41.3705 11.3394 41.0802 11.3394H36.1287V9.27278C36.1287 8.97139 36.0668 8.68615 35.9432 8.41705C35.8195 8.14796 35.6556 7.91654 35.4513 7.72279C35.247 7.52904 35.0077 7.37566 34.7335 7.26264C34.4593 7.14962 34.1771 7.09311 33.8867 7.09311C33.5964 7.09311 33.3196 7.14962 33.0561 7.26264C32.7927 7.37566 32.5642 7.53173 32.3706 7.73086C32.1771 7.92999 32.0212 8.16141 31.9029 8.42513C31.7846 8.68884 31.7255 8.97139 31.7255 9.27278V19.719C31.7255 20.8062 31.9325 21.8287 32.3464 22.7867C32.7604 23.7447 33.3222 24.5789 34.0319 25.2893C34.7416 25.9997 35.5749 26.5621 36.5319 26.9765C37.4889 27.3909 38.5104 27.5981 39.5964 27.5981ZM57.3865 26.9604C56.4295 27.3748 55.408 27.582 54.322 27.582C53.236 27.582 52.2172 27.3748 51.2656 26.9604C50.314 26.546 49.4807 25.9836 48.7656 25.2732C48.0506 24.5628 47.4861 23.7312 47.0721 22.7787C46.6581 21.8261 46.4511 20.8062 46.4511 19.719C46.4511 18.6319 46.6581 17.6093 47.0721 16.6514C47.4861 15.6934 48.0506 14.8565 48.7656 14.1407C49.4807 13.4249 50.314 12.8598 51.2656 12.4454C52.2172 12.031 53.236 11.8238 54.322 11.8238C55.408 11.8238 56.4295 12.031 57.3865 12.4454C58.3435 12.8598 59.1768 13.4249 59.8865 14.1407C60.5962 14.8565 61.158 15.6934 61.572 16.6514C61.9859 17.6093 62.1929 18.6319 62.1929 19.719C62.1929 20.8062 61.9859 21.8261 61.572 22.7787C61.158 23.7312 60.5962 24.5628 59.8865 25.2732C59.1768 25.9836 58.3435 26.546 57.3865 26.9604ZM54.322 23.2711C53.8382 23.2711 53.3812 23.1796 52.9511 22.9966C52.521 22.8136 52.1419 22.5607 51.814 22.2378C51.486 21.9149 51.228 21.5381 51.0398 21.1076C50.8516 20.677 50.7575 20.2142 50.7575 19.719C50.7575 19.2239 50.8516 18.7611 51.0398 18.3305C51.228 17.9 51.486 17.5232 51.814 17.2003C52.1419 16.8774 52.521 16.6245 52.9511 16.4415C53.3812 16.2585 53.8382 16.167 54.322 16.167C54.8166 16.167 55.2817 16.2585 55.7172 16.4415C56.1527 16.6245 56.5317 16.8774 56.8543 17.2003C57.1768 17.5232 57.4322 17.9 57.6204 18.3305C57.8086 18.7611 57.9026 19.2239 57.9026 19.719C57.9026 20.2142 57.8086 20.677 57.6204 21.1076C57.4322 21.5381 57.1768 21.9149 56.8543 22.2378C56.5317 22.5607 56.1527 22.8136 55.7172 22.9966C55.2817 23.1796 54.8166 23.2711 54.322 23.2711ZM67.3461 27.2429C67.0934 27.3506 66.8219 27.4044 66.5316 27.4044C66.2413 27.4044 65.9617 27.3506 65.6929 27.2429C65.4241 27.1353 65.1902 26.9873 64.9913 26.7989C64.7924 26.6106 64.6338 26.3872 64.5155 26.1289C64.3972 25.8706 64.3381 25.5907 64.3381 25.2893V19.8644C64.3703 18.7664 64.6069 17.7331 65.0477 16.7644C65.4886 15.7956 66.0773 14.948 66.8138 14.2214C67.5504 13.4949 68.4052 12.919 69.3783 12.4938C70.3514 12.0687 71.3864 11.8453 72.4831 11.8238H72.6283C73.338 11.8346 73.8837 12.0391 74.2654 12.4373C74.6471 12.8356 74.838 13.3415 74.838 13.955C74.838 14.2672 74.7788 14.5524 74.6605 14.8108C74.5423 15.0691 74.3837 15.2951 74.1847 15.4889C73.9858 15.6826 73.7493 15.8333 73.4751 15.9409C73.2009 16.0486 72.9132 16.1024 72.6122 16.1024C72.0745 16.1024 71.5665 16.2047 71.088 16.4092C70.6095 16.6137 70.1901 16.8935 69.8299 17.2488C69.4697 17.604 69.1821 18.0211 68.967 18.5C68.752 18.979 68.6391 19.493 68.6283 20.042V25.2893C68.6283 25.5907 68.5746 25.8706 68.467 26.1289C68.3595 26.3872 68.209 26.6106 68.0154 26.7989C67.8219 26.9873 67.5988 27.1353 67.3461 27.2429Z" fill="white"/>
</svg>
