<svg width="47" height="38" viewBox="0 0 47 38" fill="none" xmlns="http://www.w3.org/2000/svg">
<path d="M34.6018 27.6926L45.9627 23.7965C44.1618 21.1981 40.6979 20.1111 37.6027 21.1731C34.7134 22.1645 32.8321 24.7977 32.9448 27.6926C32.8325 30.5874 34.7137 33.2204 37.6027 34.2121C40.6982 35.2735 44.1619 34.1861 45.9627 31.5875L34.6018 27.6926Z" fill="#EB9138"/>
<path d="M13.811 10.8401H35.2101V37.6901H13.811V10.8401Z" fill="#FCF055"/>
<path d="M14.7986 10.7306C15.1135 5.16683 19.5396 0.821184 24.8965 0.816162C30.2523 0.823058 34.6767 5.16803 34.9921 10.7306H14.7986Z" fill="#5CD2A7"/>
<ellipse cx="28.7121" cy="17.8341" rx="3.06902" ry="3.05614" transform="rotate(-90 28.7121 17.8341)" fill="black"/>
<path fill-rule="evenodd" clip-rule="evenodd" d="M46.7288 23.7775L46.3084 23.1319C44.3947 20.1717 40.6969 18.9364 37.4002 20.1558C36.8544 20.3582 36.3337 20.6231 35.8483 20.9453V11.1447C35.849 10.7326 35.8264 10.3207 35.7807 9.91104C35.1465 4.26518 30.3932 -0.00128999 24.7388 4.9904e-06C19.0809 -0.0053271 14.3228 4.26282 13.6888 9.91219H0.605871C0.445289 9.91188 0.291181 9.97577 0.177525 10.0898C0.0638689 10.2037 0 10.3585 0 10.5198C0.000303468 10.681 0.0643066 10.8354 0.17793 10.9492C0.291552 11.0629 0.445487 11.1266 0.605871 11.1263H13.6166V37.6923H35.8483V34.1178C36.3324 34.4385 36.8516 34.7022 37.3956 34.9038C38.2304 35.2086 39.1119 35.3644 40.0001 35.3642C42.544 35.363 44.9145 34.0685 46.2993 31.9243L46.7162 31.2833L36.429 27.5292L46.7288 23.7775ZM37.8194 21.3032C38.5199 21.046 39.26 20.9143 40.0058 20.9142C41.8694 20.913 43.6378 21.7411 44.8356 23.1756L35.8483 26.4521V22.4506C36.4299 21.952 37.0965 21.5632 37.816 21.3032H37.8194ZM34.5701 9.91219C33.9369 4.9409 29.7265 1.21642 24.7388 1.21529C19.7506 1.21584 15.5396 4.94047 14.9063 9.91219H34.5701ZM34.6411 36.4816H14.8272V11.1459H34.6411V36.4816ZM35.8529 32.6148C36.4324 33.1142 37.0971 33.504 37.8148 33.7656V33.761C40.3128 34.6861 43.1199 33.9371 44.8321 31.8886L35.8529 28.6122V32.6148Z" fill="#1F1F1F"/>
</svg>
