<svg width="24" height="24" viewBox="0 0 24 24" fill="none" xmlns="http://www.w3.org/2000/svg">
<path fill-rule="evenodd" clip-rule="evenodd" d="M2.7495 0H21.2505C22.767 0 24 1.233 24 2.7495V21.2505C24 22.767 22.767 24 21.249 24H2.7495C1.233 24 0 22.767 0 21.249V2.7495C0 1.233 1.233 0 2.7495 0ZM9.2775 18.7305L15.684 12.7305C15.8865 12.5415 16.0005 12.279 16.0005 12.0015C16.0005 11.724 15.8865 11.46 15.684 11.271L9.2775 5.271C8.874 4.8945 8.241 4.914 7.8645 5.3175C7.4865 5.7195 7.5075 6.3525 7.911 6.7305L13.5375 12L7.911 17.271C7.5075 17.6475 7.4865 18.2805 7.8645 18.684C8.061 18.894 8.3265 19.0005 8.5935 19.0005C8.8395 19.0005 9.084 18.9105 9.2775 18.7305Z" fill="#6C47B0"/>
</svg>
