<svg width="24" height="24" viewBox="0 0 24 24" fill="none" xmlns="http://www.w3.org/2000/svg">
<path fill-rule="evenodd" clip-rule="evenodd" d="M21.2505 24L2.7495 24C1.233 24 1.07792e-07 22.767 2.40369e-07 21.2505L1.85778e-06 2.7495C1.99035e-06 1.233 1.233 -1.99035e-06 2.751 -1.85765e-06L21.2505 -2.40369e-07C22.767 -1.07792e-07 24 1.233 24 2.751L24 21.2505C24 22.767 22.767 24 21.2505 24ZM14.7225 5.2695L8.316 11.2695C8.1135 11.4585 7.9995 11.721 7.9995 11.9985C7.9995 12.276 8.1135 12.54 8.316 12.729L14.7225 18.729C15.126 19.1055 15.759 19.086 16.1355 18.6825C16.5135 18.2805 16.4925 17.6475 16.089 17.2695L10.4625 12L16.089 6.729C16.4925 6.3525 16.5135 5.7195 16.1355 5.316C15.939 5.106 15.6735 4.9995 15.4065 4.9995C15.1605 4.9995 14.916 5.0895 14.7225 5.2695Z" fill="#F0B75E"/>
</svg>
