<svg width="25" height="12" viewBox="0 0 25 12" fill="none" xmlns="http://www.w3.org/2000/svg">
<path d="M24.7162 5.31498C24.7159 5.31469 24.7156 5.31435 24.7153 5.31406L19.6586 0.281803C19.2798 -0.0951807 18.6671 -0.0937775 18.29 0.285093C17.913 0.663916 17.9144 1.27664 18.2933 1.65367L21.6883 5.03225H1.19354C0.659058 5.03225 0.2258 5.46551 0.2258 6C0.2258 6.53448 0.659058 6.96774 1.19354 6.96774H21.6882L18.2933 10.3463C17.9145 10.7234 17.913 11.3361 18.2901 11.7149C18.6671 12.0938 19.2799 12.0951 19.6587 11.7182L24.7153 6.68593C24.7156 6.68564 24.7159 6.6853 24.7162 6.68501C25.0952 6.30672 25.094 5.69201 24.7162 5.31498Z" fill="white"/>
</svg>
