<svg width="25" height="12" viewBox="0 0 25 12" fill="none" xmlns="http://www.w3.org/2000/svg">
<path d="M0.509645 5.31498C0.509935 5.31469 0.510176 5.31435 0.510515 5.31406L5.56716 0.281803C5.94598 -0.0951807 6.55871 -0.0937775 6.93579 0.285093C7.31282 0.663916 7.31137 1.27664 6.93255 1.65367L3.53752 5.03225H24.0323C24.5667 5.03225 25 5.46551 25 6C25 6.53448 24.5667 6.96774 24.0323 6.96774H3.53757L6.9325 10.3463C7.31132 10.7234 7.31277 11.3361 6.93574 11.7149C6.55866 12.0938 5.94589 12.0951 5.56711 11.7182L0.510468 6.68593C0.510178 6.68564 0.509935 6.6853 0.509596 6.68501C0.130579 6.30672 0.13179 5.69201 0.509645 5.31498Z" fill="white"/>
</svg>
