<svg width="29" height="17" viewBox="0 0 29 17" fill="none" xmlns="http://www.w3.org/2000/svg">
<path fill-rule="evenodd" clip-rule="evenodd" d="M28.2939 8.00047C28.2939 8.30357 28.1735 8.59426 27.9592 8.80859C27.7449 9.02292 27.4542 9.14332 27.1511 9.14332H3.90995L8.81738 14.0485C9.03197 14.2631 9.15253 14.5541 9.15253 14.8576C9.15253 15.1611 9.03197 15.4522 8.81738 15.6668C8.60278 15.8814 8.31172 16.0019 8.00823 16.0019C7.70474 16.0019 7.41369 15.8814 7.19909 15.6668L0.341948 8.80961C0.235518 8.70345 0.151077 8.57733 0.093462 8.43849C0.0358467 8.29964 0.00619125 8.15079 0.00619125 8.00047C0.00619125 7.85014 0.0358467 7.70129 0.093462 7.56245C0.151077 7.4236 0.235518 7.29749 0.341948 7.19133L7.19909 0.334182C7.41369 0.119584 7.70474 -0.000976568 8.00823 -0.000976562C8.31172 -0.000976557 8.60278 0.119584 8.81738 0.334182C9.03197 0.54878 9.15253 0.839837 9.15253 1.14332C9.15253 1.44681 9.03197 1.73787 8.81738 1.95247L3.90995 6.85761H27.1511C27.4542 6.85761 27.7449 6.97802 27.9592 7.19235C28.1735 7.40667 28.2939 7.69736 28.2939 8.00047Z" fill="black"/>
</svg>
