<svg width="31" height="46" viewBox="0 0 31 46" fill="none" xmlns="http://www.w3.org/2000/svg">
<path fill-rule="evenodd" clip-rule="evenodd" d="M23.0333 17.4C26.7667 20.2 26.7667 25.8 23.0333 28.6L11.7 37.1C7.08535 40.561 0.5 37.2683 0.5 31.5L0.5 14.5C0.5 8.73168 7.08535 5.43901 11.7 8.9L23.0333 17.4Z" fill="#FEF3DA"/>
<path d="M13.7803 22.3373L10.5415 19.0918C10.4196 18.9696 10.2217 18.9694 10.0996 19.0913C9.9774 19.2132 9.9772 19.4111 10.0991 19.5332L13.3382 22.779C13.46 22.9009 13.46 23.0991 13.3379 23.2212L10.0991 26.4668C9.9772 26.5889 9.9774 26.7868 10.0996 26.9087C10.1606 26.9696 10.2405 27 10.3203 27C10.4004 27 10.4805 26.9694 10.5415 26.9082L13.7801 23.6629C14.1456 23.2974 14.1456 22.7026 13.7803 22.3373Z" fill="black"/>
</svg>
