<svg width="30" height="17" viewBox="0 0 30 17" fill="none" xmlns="http://www.w3.org/2000/svg">
<path fill-rule="evenodd" clip-rule="evenodd" d="M0.856445 8.00047C0.856445 8.30357 0.976852 8.59426 1.19118 8.80859C1.40551 9.02292 1.6962 9.14333 1.9993 9.14333H25.2404L20.333 14.0485C20.1184 14.2631 19.9979 14.5541 19.9979 14.8576C19.9979 15.1611 20.1184 15.4522 20.333 15.6668C20.5476 15.8814 20.8387 16.0019 21.1422 16.0019C21.4456 16.0019 21.7367 15.8814 21.9513 15.6668L28.8084 8.80961C28.9149 8.70345 28.9993 8.57733 29.0569 8.43849C29.1145 8.29964 29.1442 8.15079 29.1442 8.00047C29.1442 7.85014 29.1145 7.70129 29.0569 7.56245C28.9993 7.4236 28.9149 7.29749 28.8084 7.19133L21.9513 0.334182C21.7367 0.119584 21.4456 -0.000976568 21.1422 -0.000976562C20.8387 -0.000976557 20.5476 0.119584 20.333 0.334182C20.1184 0.54878 19.9979 0.839837 19.9979 1.14332C19.9979 1.44681 20.1184 1.73787 20.333 1.95247L25.2404 6.85761H1.9993C1.6962 6.85761 1.40551 6.97802 1.19118 7.19235C0.976852 7.40667 0.856445 7.69736 0.856445 8.00047Z" fill="black"/>
</svg>
