<svg width="31" height="46" viewBox="0 0 31 46" fill="none" xmlns="http://www.w3.org/2000/svg">
<path fill-rule="evenodd" clip-rule="evenodd" d="M7.96667 17.4C4.23333 20.2 4.23333 25.8 7.96667 28.6L19.3 37.1C23.9147 40.561 30.5 37.2683 30.5 31.5L30.5 14.5C30.5 8.73168 23.9147 5.43901 19.3 8.9L7.96667 17.4Z" fill="#FEF3DA"/>
<path d="M17.2197 22.3373L20.4585 19.0918C20.5804 18.9696 20.7783 18.9694 20.9004 19.0913C21.0226 19.2132 21.0228 19.4111 20.9009 19.5332L17.6618 22.779C17.54 22.9009 17.54 23.0991 17.6621 23.2212L20.9009 26.4668C21.0228 26.5889 21.0226 26.7868 20.9004 26.9087C20.8394 26.9696 20.7595 27 20.6797 27C20.5996 27 20.5195 26.9694 20.4585 26.9082L17.2199 23.6629C16.8544 23.2974 16.8544 22.7026 17.2197 22.3373Z" fill="black"/>
</svg>
