<svg width="181" height="60" viewBox="0 0 181 60" fill="none" xmlns="http://www.w3.org/2000/svg">
<path d="M153.424 35.8201L100.214 10.4201C99.9635 10.3001 99.6835 10.1901 99.3835 10.0801C99.2935 10.0501 99.1935 10.0201 99.1035 9.98008C98.9835 9.94008 98.8635 9.89008 98.7335 9.86008C98.6335 9.83008 98.5235 9.80008 98.4135 9.77008C98.3135 9.74008 98.2035 9.71008 98.0935 9.68008C98.0235 9.66008 97.9535 9.64008 97.8835 9.62008C97.6535 9.56008 97.4035 9.51008 97.1635 9.46008C97.1435 9.46008 97.1235 9.45008 97.1035 9.45008C97.0735 9.44008 97.0335 9.44008 97.0035 9.43008C96.8335 9.40008 96.6635 9.36008 96.4935 9.33008C96.2835 9.29008 96.0635 9.26008 95.8535 9.22008C95.8435 9.22008 95.8335 9.22008 95.8335 9.22008C95.8235 9.22008 95.8035 9.22008 95.7935 9.21008C95.6035 9.18008 95.4235 9.15008 95.2335 9.13008C95.0235 9.10008 94.8135 9.08008 94.6035 9.05008C94.5735 9.05008 94.5435 9.04008 94.5135 9.04008C94.4835 9.04008 94.4435 9.03008 94.4135 9.03008C94.2635 9.02008 94.1235 9.00008 93.9735 8.99008C93.7635 8.97008 93.5535 8.95008 93.3335 8.94008C93.2635 8.93008 93.2035 8.93008 93.1335 8.93008C93.0835 8.93008 93.0435 8.92008 92.9935 8.92008C92.8935 8.91008 92.7835 8.91008 92.6835 8.90008C92.4635 8.89008 92.2535 8.88008 92.0335 8.87008C91.9235 8.87008 91.8135 8.86008 91.7035 8.86008C91.6535 8.86008 91.6135 8.86008 91.5635 8.85008C91.5035 8.85008 91.4335 8.84008 91.3735 8.84008C91.1535 8.83008 90.9335 8.83008 90.7135 8.83008C90.5335 8.83008 90.3535 8.83008 90.1735 8.83008C90.1335 8.83008 90.0835 8.83008 90.0435 8.83008C89.8135 8.83008 89.5835 8.83008 89.3535 8.84008C89.1635 8.84008 88.9735 8.85008 88.7835 8.86008C88.7535 8.86008 88.7135 8.86008 88.6835 8.86008C88.6635 8.86008 88.6335 8.86008 88.6135 8.86008C88.3135 8.87008 88.0135 8.89008 87.7235 8.90008C87.6435 8.90008 87.5535 8.91008 87.4735 8.92008C87.3135 8.93008 87.1535 8.94008 86.9935 8.96008C86.7135 8.98008 86.4335 9.01008 86.1535 9.03008C85.9935 9.05008 85.8335 9.06008 85.6735 9.08008C85.3935 9.11008 85.1135 9.15008 84.8435 9.19008C84.7035 9.21008 84.5635 9.23008 84.4335 9.25008C84.0935 9.30008 83.7535 9.36008 83.4335 9.43008C83.3735 9.44008 83.3235 9.45008 83.2635 9.46008C83.2535 9.46008 83.2435 9.46008 83.2435 9.46008C82.8635 9.54008 82.5035 9.62008 82.1635 9.71008C82.1535 9.71008 82.1435 9.71008 82.1435 9.72008C82.1135 9.73008 82.0835 9.74008 82.0535 9.75008C81.8435 9.81008 81.6235 9.87008 81.4235 9.93008C81.3335 9.96008 81.2535 9.99008 81.1635 10.0201C81.1135 10.0401 81.0535 10.0601 81.0035 10.0801C80.9535 10.1001 80.8935 10.1201 80.8435 10.1401C80.6835 10.2001 80.5235 10.2701 80.3735 10.3301C80.3035 10.3601 80.2235 10.4001 80.1535 10.4301L26.9335 35.8301C26.8735 35.8601 26.8135 35.8901 26.7535 35.9201C26.6335 35.9801 26.5235 36.0401 26.4235 36.1001C26.3735 36.1301 26.3235 36.1701 26.2735 36.2001C26.2535 36.2101 26.2335 36.2201 26.2135 36.2401C26.1935 36.2501 26.1635 36.2701 26.1435 36.2801C26.0635 36.3401 25.9835 36.4001 25.9135 36.4601C25.8535 36.5101 25.8035 36.5601 25.7435 36.6201L25.7335 36.6301L25.7235 36.6401C25.6635 36.7001 25.6135 36.7601 25.5735 36.8201C25.5235 36.8801 25.4935 36.9401 25.4635 37.0101C25.4635 37.0201 25.4635 37.0201 25.4535 37.0301C25.4535 37.0401 25.4435 37.0501 25.4435 37.0501C25.4235 37.1001 25.4035 37.1501 25.3835 37.2001C25.3635 37.2701 25.3535 37.3401 25.3535 37.4101C25.3535 37.4201 25.3535 37.4301 25.3535 37.4301V51.0501C25.3535 50.9201 25.3835 50.7901 25.4435 50.6701C25.4435 50.6601 25.4535 50.6501 25.4535 50.6501C25.5135 50.5201 25.6035 50.3901 25.7335 50.2601L25.7435 50.2501C25.8635 50.1201 26.0235 50.0001 26.2035 49.8801C26.2235 49.8701 26.2435 49.8601 26.2635 49.8401C26.4535 49.7201 26.6735 49.5901 26.9235 49.4701L80.1435 24.0701C80.4035 23.9501 80.6935 23.8301 80.9935 23.7201C81.0435 23.7001 81.1035 23.6801 81.1535 23.6601C81.4335 23.5601 81.7235 23.4701 82.0335 23.3901C82.0635 23.3801 82.0935 23.3701 82.1235 23.3601C82.4835 23.2601 82.8635 23.1701 83.2535 23.0901C83.3035 23.0801 83.3635 23.0701 83.4235 23.0601C83.7535 23.0001 84.0835 22.9401 84.4235 22.8801C84.5635 22.8601 84.7035 22.8401 84.8435 22.8201C85.1135 22.7801 85.3935 22.7401 85.6735 22.7101C85.8335 22.6901 85.9935 22.6801 86.1535 22.6601C86.4335 22.6301 86.7135 22.6101 86.9935 22.5901C87.1535 22.5801 87.3135 22.5601 87.4735 22.5501C87.8735 22.5201 88.2735 22.5001 88.6835 22.4901C88.7235 22.4901 88.7535 22.4901 88.7935 22.4901C89.2535 22.4801 89.7135 22.4701 90.1835 22.4701C90.6535 22.4701 91.1135 22.4801 91.5735 22.4901C91.6235 22.4901 91.6735 22.4901 91.7135 22.5001C92.1435 22.5201 92.5735 22.5401 92.9935 22.5701C93.0435 22.5701 93.0935 22.5801 93.1335 22.5801C93.5635 22.6101 93.9935 22.6501 94.4035 22.6901C94.4335 22.6901 94.4735 22.7001 94.5035 22.7001C94.9435 22.7501 95.3635 22.8001 95.7835 22.8701C95.7935 22.8701 95.8135 22.8701 95.8235 22.8801C96.2335 22.9401 96.6235 23.0101 97.0035 23.0901C97.0335 23.1001 97.0735 23.1001 97.1035 23.1101C97.4435 23.1801 97.7735 23.2601 98.0935 23.3401C98.2035 23.3701 98.3035 23.4001 98.4135 23.4301C98.6535 23.5001 98.8735 23.5701 99.0935 23.6401C99.1835 23.6701 99.2835 23.7001 99.3735 23.7401C99.6635 23.8501 99.9535 23.9601 100.204 24.0801L153.414 49.4801C153.954 49.7401 154.344 50.0001 154.604 50.2701C154.864 50.5401 154.984 50.8101 154.984 51.0701V37.4101C154.994 36.8801 154.504 36.3301 153.424 35.8201Z" fill="url(#paint0_linear_404_8403)"/>
<path d="M180.304 41.28C180.294 41.3 180.294 41.31 180.284 41.33C180.254 41.41 180.214 41.48 180.164 41.55C180.114 41.63 180.034 41.7 179.964 41.77C179.944 41.78 179.934 41.8 179.914 41.81C179.834 41.88 179.744 41.95 179.644 42.02C179.624 42.03 179.604 42.05 179.584 42.06C179.494 42.12 179.384 42.18 179.284 42.24C179.264 42.25 179.234 42.27 179.214 42.28C179.084 42.35 178.944 42.41 178.804 42.48C178.764 42.5 178.724 42.51 178.684 42.53C178.574 42.58 178.454 42.62 178.324 42.67C178.254 42.69 178.184 42.72 178.114 42.74C178.014 42.78 177.904 42.81 177.794 42.84C177.694 42.87 177.584 42.9 177.474 42.93C177.384 42.96 177.284 42.98 177.184 43.01C177.004 43.06 176.804 43.1 176.614 43.15C176.514 43.17 176.414 43.19 176.314 43.21C176.164 43.24 176.014 43.27 175.854 43.29C175.734 43.31 175.614 43.33 175.484 43.35C175.314 43.38 175.144 43.4 174.974 43.42C174.854 43.44 174.724 43.46 174.604 43.47C174.414 43.49 174.214 43.51 174.024 43.53C173.904 43.54 173.784 43.56 173.664 43.57C173.434 43.59 173.184 43.61 172.944 43.62C172.854 43.63 172.764 43.63 172.664 43.64C172.634 43.64 172.614 43.64 172.584 43.64C172.304 43.66 172.024 43.67 171.744 43.68C171.674 43.68 171.614 43.68 171.544 43.69C171.234 43.7 170.914 43.7 170.594 43.7H90.1937H9.79367C9.44367 43.7 9.09367 43.69 8.75367 43.69C8.74367 43.69 8.74367 43.69 8.73367 43.69C8.41367 43.68 8.10367 43.67 7.79367 43.65C7.76367 43.65 7.74367 43.65 7.71367 43.65C7.42367 43.63 7.13367 43.61 6.85367 43.59C6.81367 43.59 6.76367 43.58 6.72367 43.58C6.45367 43.56 6.19367 43.53 5.93367 43.5C5.88367 43.49 5.83367 43.49 5.78367 43.48C5.52367 43.45 5.26367 43.41 5.01367 43.37C5.00367 43.37 4.98367 43.37 4.97367 43.36C4.74367 43.32 4.52367 43.28 4.30367 43.24C4.23367 43.23 4.17367 43.21 4.10367 43.2C3.94367 43.17 3.78367 43.13 3.63367 43.1C3.55367 43.08 3.46367 43.06 3.38367 43.04C3.27367 43.01 3.17367 42.99 3.07367 42.96C2.93367 42.92 2.79367 42.89 2.66367 42.85C2.55367 42.82 2.44367 42.78 2.34367 42.75C2.25367 42.72 2.16367 42.69 2.08367 42.66C1.98367 42.62 1.88367 42.58 1.79367 42.55C1.71367 42.52 1.63367 42.49 1.56367 42.46C1.47367 42.42 1.39367 42.38 1.31367 42.34C1.24367 42.31 1.17367 42.27 1.11367 42.24C1.03367 42.2 0.963671 42.15 0.893671 42.11C0.843671 42.08 0.783671 42.04 0.733671 42.01C0.663671 41.96 0.613673 41.92 0.553673 41.87C0.513673 41.84 0.463672 41.8 0.423672 41.77C0.373672 41.72 0.333673 41.67 0.293673 41.62C0.263673 41.59 0.233672 41.55 0.203672 41.52C0.163672 41.47 0.143672 41.41 0.113672 41.35C0.103672 41.32 0.0836711 41.29 0.0636711 41.26C0.0336711 41.18 0.0136719 41.09 0.0136719 41V54.62C0.0136719 54.71 0.0336711 54.79 0.0636711 54.88C0.0736711 54.91 0.0936723 54.94 0.113672 54.97C0.143672 55.03 0.163672 55.08 0.203672 55.14C0.223672 55.17 0.263673 55.21 0.293673 55.24C0.333673 55.29 0.373672 55.34 0.423672 55.39C0.463672 55.42 0.503673 55.46 0.553673 55.49C0.613673 55.54 0.663671 55.58 0.733671 55.63C0.783671 55.66 0.843671 55.7 0.893671 55.73C0.963671 55.77 1.03367 55.82 1.10367 55.86C1.16367 55.89 1.23367 55.93 1.30367 55.96C1.38367 56 1.46367 56.04 1.56367 56.08C1.63367 56.11 1.71367 56.14 1.79367 56.17C1.88367 56.21 1.98367 56.25 2.08367 56.28C2.17367 56.31 2.26367 56.34 2.35367 56.37C2.42367 56.39 2.49367 56.42 2.57367 56.44C2.60367 56.45 2.64367 56.46 2.67367 56.47C2.80367 56.51 2.94367 56.55 3.08367 56.58C3.15367 56.6 3.22367 56.62 3.29367 56.64C3.32367 56.65 3.35367 56.65 3.38367 56.66C3.46367 56.68 3.55367 56.7 3.63367 56.72C3.73367 56.74 3.82367 56.76 3.92367 56.79C3.98367 56.8 4.04367 56.81 4.10367 56.82C4.17367 56.83 4.23367 56.85 4.30367 56.86C4.36367 56.87 4.42367 56.88 4.48367 56.89C4.64367 56.92 4.80367 56.95 4.97367 56.97C4.98367 56.97 5.00367 56.97 5.01367 56.98H5.02367C5.19367 57.01 5.37367 57.03 5.55367 57.06C5.62367 57.07 5.70367 57.08 5.77367 57.09C5.82367 57.1 5.87367 57.1 5.92367 57.11C5.97367 57.12 6.01367 57.12 6.06367 57.13C6.23367 57.15 6.41367 57.17 6.59367 57.18C6.63367 57.18 6.67367 57.19 6.71367 57.19C6.76367 57.19 6.80367 57.2 6.85367 57.2C6.94367 57.21 7.03367 57.22 7.12367 57.22C7.30367 57.23 7.47367 57.25 7.66367 57.26C7.68367 57.26 7.70367 57.26 7.71367 57.26C7.74367 57.26 7.76367 57.26 7.79367 57.26C7.93367 57.27 8.06367 57.28 8.20367 57.28C8.37367 57.29 8.55367 57.29 8.72367 57.3C8.73367 57.3 8.74367 57.3 8.75367 57.3C8.75367 57.3 8.75367 57.3 8.76367 57.3C8.95367 57.31 9.14367 57.31 9.33367 57.31C9.48367 57.31 9.64367 57.31 9.80367 57.31H90.2037H170.604C170.644 57.31 170.684 57.31 170.724 57.31C170.924 57.31 171.134 57.31 171.324 57.3C171.404 57.3 171.474 57.3 171.544 57.29C171.614 57.29 171.684 57.29 171.754 57.28C171.824 57.28 171.904 57.28 171.974 57.27C172.184 57.26 172.384 57.25 172.594 57.24C172.624 57.24 172.654 57.24 172.674 57.24C172.684 57.24 172.694 57.24 172.694 57.24C172.784 57.23 172.864 57.23 172.944 57.22C173.194 57.2 173.434 57.19 173.674 57.17C173.794 57.16 173.904 57.15 174.024 57.13C174.224 57.11 174.424 57.09 174.614 57.07C174.744 57.05 174.864 57.04 174.984 57.02C175.154 57 175.334 56.97 175.504 56.94C175.624 56.92 175.744 56.9 175.864 56.88C176.024 56.85 176.174 56.82 176.334 56.79C176.374 56.78 176.414 56.78 176.454 56.77C176.514 56.76 176.564 56.74 176.624 56.73C176.824 56.69 177.014 56.64 177.204 56.59C177.254 56.58 177.314 56.57 177.364 56.55C177.414 56.54 177.454 56.52 177.494 56.51C177.604 56.48 177.704 56.45 177.814 56.42C177.874 56.4 177.944 56.38 178.004 56.36C178.054 56.34 178.094 56.33 178.144 56.31C178.214 56.29 178.284 56.26 178.354 56.24C178.404 56.22 178.454 56.21 178.504 56.19C178.574 56.16 178.644 56.13 178.714 56.1C178.754 56.08 178.794 56.07 178.834 56.05C178.854 56.04 178.874 56.04 178.884 56.03C179.004 55.98 179.104 55.93 179.214 55.88C179.224 55.87 179.234 55.87 179.244 55.86C179.264 55.85 179.284 55.83 179.314 55.82C179.374 55.79 179.434 55.76 179.484 55.72C179.534 55.69 179.574 55.66 179.614 55.63C179.634 55.62 179.654 55.6 179.674 55.59C179.684 55.58 179.704 55.57 179.714 55.57C179.784 55.52 179.854 55.47 179.914 55.42C179.924 55.41 179.944 55.4 179.954 55.38C179.974 55.37 179.984 55.35 180.004 55.34C180.024 55.32 180.054 55.29 180.074 55.27C180.124 55.22 180.164 55.17 180.204 55.12C180.244 55.07 180.274 55.02 180.294 54.97C180.304 54.95 180.314 54.92 180.324 54.9C180.334 54.88 180.334 54.87 180.344 54.85C180.344 54.84 180.354 54.82 180.364 54.81C180.384 54.75 180.384 54.69 180.394 54.64C180.394 54.63 180.394 54.62 180.394 54.62V41.04C180.344 41.12 180.324 41.2 180.304 41.28Z" fill="url(#paint1_linear_404_8403)"/>
<path d="M179.023 39.7298C182.783 41.5198 178.083 43.7598 170.573 43.7598H90.1735H9.77348C2.26348 43.7598 -2.43652 41.5198 1.32348 39.7298L41.5135 20.5398L81.7135 1.34977C83.5835 0.449766 86.8735 0.00976562 90.1635 0.00976562C93.4535 0.00976562 96.7335 0.459766 98.6135 1.34977L138.803 20.5398L179.023 39.7298ZM143.393 40.6098C152.313 40.6098 157.883 37.9498 153.423 35.8198L100.213 10.4098C97.9835 9.33977 94.0735 8.80977 90.1735 8.80977C86.2735 8.80977 82.3635 9.33977 80.1335 10.4098L26.9235 35.8198C22.4635 37.9498 28.0435 40.6098 36.9635 40.6098H143.393Z" fill="url(#paint2_linear_404_8403)"/>
<path d="M90.6035 5.31984C91.0035 6.15984 75.9035 14.2598 56.8736 23.4098C37.8435 32.5598 22.0835 39.2898 21.6835 38.4498C21.2835 37.6098 36.3836 29.5098 55.4136 20.3598C74.4436 11.2098 90.2035 4.47984 90.6035 5.31984Z" fill="url(#paint3_radial_404_8403)"/>
<path d="M82.1136 43.9199C82.1136 44.8499 64.9836 45.5299 43.8736 45.4499C22.7536 45.3599 5.64355 44.5299 5.64355 43.5999C5.64355 42.6699 22.7736 41.9899 43.8836 42.0699C65.0036 42.1599 82.1136 42.9899 82.1136 43.9199Z" fill="url(#paint4_radial_404_8403)"/>
<path d="M176.453 43.9199C176.453 44.8499 159.323 45.5299 138.213 45.4499C117.093 45.3599 99.9834 44.5299 99.9834 43.5999C99.9834 42.6699 117.113 41.9899 138.223 42.0699C159.343 42.1599 176.453 42.9899 176.453 43.9199Z" fill="url(#paint5_radial_404_8403)"/>
<path d="M164.734 41.1893C164.334 42.0293 148.564 35.3293 129.504 26.2293C110.454 17.1293 95.3237 9.0693 95.7337 8.2293C96.1337 7.3893 111.904 14.0893 130.964 23.1893C150.014 32.2893 165.134 40.3493 164.734 41.1893Z" fill="url(#paint6_radial_404_8403)"/>
<path d="M80.4339 57.3795C80.4339 58.3095 63.3139 59.0695 42.1939 59.0695C21.0739 59.0695 3.96387 58.3195 3.96387 57.3795C3.96387 56.4495 21.0839 55.6895 42.2039 55.6895C63.3239 55.6895 80.4339 56.4495 80.4339 57.3795Z" fill="url(#paint7_radial_404_8403)"/>
<path d="M180.343 57.3795C180.343 58.3095 163.223 59.0695 142.103 59.0695C120.983 59.0695 103.863 58.3095 103.863 57.3795C103.863 56.4495 120.983 55.6895 142.103 55.6895C163.223 55.6895 180.343 56.4495 180.343 57.3795Z" fill="url(#paint8_radial_404_8403)"/>
<defs>
<linearGradient id="paint0_linear_404_8403" x1="25.3545" y1="29.9239" x2="154.996" y2="29.9239" gradientUnits="userSpaceOnUse">
<stop stop-color="#850C00"/>
<stop offset="0.00278126" stop-color="#880D02"/>
<stop offset="0.042" stop-color="#AC2017"/>
<stop offset="0.0833" stop-color="#CA2F29"/>
<stop offset="0.1267" stop-color="#E23B37"/>
<stop offset="0.1729" stop-color="#F24340"/>
<stop offset="0.2242" stop-color="#FC4846"/>
<stop offset="0.2903" stop-color="#FF4A48"/>
<stop offset="0.7016" stop-color="#CE000B"/>
<stop offset="0.7309" stop-color="#E01B21"/>
<stop offset="0.7739" stop-color="#F63D3D"/>
<stop offset="0.7973" stop-color="#FF4A48"/>
<stop offset="0.9547" stop-color="#AA1B11"/>
<stop offset="1" stop-color="#910D00"/>
</linearGradient>
<linearGradient id="paint1_linear_404_8403" x1="0.00987187" y1="49.1958" x2="180.345" y2="49.1958" gradientUnits="userSpaceOnUse">
<stop stop-color="#850C00"/>
<stop offset="0.00278126" stop-color="#880D02"/>
<stop offset="0.042" stop-color="#AC2017"/>
<stop offset="0.0833" stop-color="#CA2F29"/>
<stop offset="0.1267" stop-color="#E23B37"/>
<stop offset="0.1729" stop-color="#F24340"/>
<stop offset="0.2242" stop-color="#FC4846"/>
<stop offset="0.2903" stop-color="#FF4A48"/>
<stop offset="0.7016" stop-color="#CE000B"/>
<stop offset="0.7309" stop-color="#E01B21"/>
<stop offset="0.7739" stop-color="#F63D3D"/>
<stop offset="0.7973" stop-color="#FF4A48"/>
<stop offset="0.9547" stop-color="#AA1B11"/>
<stop offset="1" stop-color="#910D00"/>
</linearGradient>
<linearGradient id="paint2_linear_404_8403" x1="90.0537" y1="45.3402" x2="91.3177" y2="1.64406" gradientUnits="userSpaceOnUse">
<stop stop-color="#FF4A48"/>
<stop offset="0.7763" stop-color="#AA1B11"/>
<stop offset="1" stop-color="#910D00"/>
</linearGradient>
<radialGradient id="paint3_radial_404_8403" cx="0" cy="0" r="1" gradientUnits="userSpaceOnUse" gradientTransform="translate(56.1424 21.8805) rotate(-25.6708) scale(38.2253 1.68748)">
<stop stop-color="white"/>
<stop offset="0.0366" stop-color="white" stop-opacity="0.9471"/>
<stop offset="0.6915" stop-color="white" stop-opacity="0"/>
</radialGradient>
<radialGradient id="paint4_radial_404_8403" cx="0" cy="0" r="1" gradientUnits="userSpaceOnUse" gradientTransform="translate(43.8792 43.7612) rotate(0.240641) scale(38.2446 1.68659)">
<stop stop-color="white"/>
<stop offset="0.0366" stop-color="white" stop-opacity="0.9471"/>
<stop offset="0.6915" stop-color="white" stop-opacity="0"/>
</radialGradient>
<radialGradient id="paint5_radial_404_8403" cx="0" cy="0" r="1" gradientUnits="userSpaceOnUse" gradientTransform="translate(138.219 43.7612) rotate(0.240641) scale(38.2446 1.68659)">
<stop stop-color="white"/>
<stop offset="0.0366" stop-color="white" stop-opacity="0.9471"/>
<stop offset="0.6915" stop-color="white" stop-opacity="0"/>
</radialGradient>
<radialGradient id="paint6_radial_404_8403" cx="0" cy="0" r="1" gradientUnits="userSpaceOnUse" gradientTransform="translate(130.233 24.7117) rotate(25.5323) scale(38.2431 1.6867)">
<stop stop-color="white"/>
<stop offset="0.0366" stop-color="white" stop-opacity="0.9471"/>
<stop offset="0.6915" stop-color="white" stop-opacity="0"/>
</radialGradient>
<radialGradient id="paint7_radial_404_8403" cx="0" cy="0" r="1" gradientUnits="userSpaceOnUse" gradientTransform="translate(42.1943 57.3831) scale(38.2451 1.68661)">
<stop stop-color="white"/>
<stop offset="0.0366" stop-color="white" stop-opacity="0.9471"/>
<stop offset="0.6915" stop-color="white" stop-opacity="0"/>
</radialGradient>
<radialGradient id="paint8_radial_404_8403" cx="0" cy="0" r="1" gradientUnits="userSpaceOnUse" gradientTransform="translate(142.11 57.3831) scale(38.2451 1.68661)">
<stop stop-color="white"/>
<stop offset="0.0366" stop-color="white" stop-opacity="0.9471"/>
<stop offset="0.6915" stop-color="white" stop-opacity="0"/>
</radialGradient>
</defs>
</svg>
