<svg width="181" height="60" viewBox="0 0 181 60" fill="none" xmlns="http://www.w3.org/2000/svg">
<path d="M153.423 35.8198L100.213 10.4198C99.9635 10.2998 99.6835 10.1898 99.3835 10.0798C99.2935 10.0498 99.1935 10.0198 99.1035 9.97983C98.9835 9.93983 98.8635 9.88983 98.7335 9.85983C98.6335 9.82983 98.5235 9.79983 98.4135 9.76983C98.3135 9.73983 98.2035 9.70983 98.0935 9.67983C98.0235 9.65983 97.9535 9.63983 97.8835 9.61983C97.6535 9.55983 97.4035 9.50983 97.1635 9.45983C97.1435 9.45983 97.1235 9.44983 97.1035 9.44983C97.0735 9.43983 97.0335 9.43983 97.0035 9.42983C96.8335 9.39983 96.6635 9.35983 96.4935 9.32983C96.2835 9.28983 96.0635 9.25983 95.8535 9.21983C95.8435 9.21983 95.8335 9.21983 95.8335 9.21983C95.8235 9.21983 95.8035 9.21983 95.7935 9.20983C95.6035 9.17983 95.4235 9.14983 95.2335 9.12983C95.0235 9.09983 94.8135 9.07983 94.6035 9.04983C94.5735 9.04983 94.5435 9.03983 94.5135 9.03983C94.4835 9.03983 94.4435 9.02983 94.4135 9.02983C94.2635 9.01983 94.1235 8.99983 93.9735 8.98983C93.7635 8.96983 93.5535 8.94983 93.3335 8.93983C93.2635 8.92983 93.2035 8.92983 93.1335 8.92983C93.0835 8.92983 93.0435 8.91983 92.9935 8.91983C92.8935 8.90983 92.7835 8.90983 92.6835 8.89983C92.4635 8.88983 92.2535 8.87983 92.0335 8.86983C91.9235 8.86983 91.8135 8.85983 91.7035 8.85983C91.6535 8.85983 91.6135 8.85983 91.5635 8.84983C91.5035 8.84983 91.4335 8.83983 91.3735 8.83983C91.1535 8.82983 90.9335 8.82983 90.7135 8.82983C90.5335 8.82983 90.3535 8.82983 90.1735 8.82983C90.1335 8.82983 90.0835 8.82983 90.0435 8.82983C89.8135 8.82983 89.5835 8.82983 89.3535 8.83983C89.1635 8.83983 88.9735 8.84983 88.7835 8.85983C88.7535 8.85983 88.7135 8.85983 88.6835 8.85983C88.6635 8.85983 88.6335 8.85983 88.6135 8.85983C88.3135 8.86983 88.0135 8.88983 87.7235 8.89983C87.6435 8.89983 87.5535 8.90983 87.4735 8.91983C87.3135 8.92983 87.1535 8.93983 86.9935 8.95983C86.7135 8.97983 86.4335 9.00983 86.1535 9.02983C85.9935 9.04983 85.8335 9.05983 85.6735 9.07983C85.3935 9.10983 85.1135 9.14983 84.8435 9.18983C84.7035 9.20983 84.5635 9.22983 84.4335 9.24983C84.0935 9.29983 83.7535 9.35983 83.4335 9.42983C83.3735 9.43983 83.3235 9.44983 83.2635 9.45983C83.2535 9.45983 83.2435 9.45983 83.2435 9.45983C82.8635 9.53983 82.5035 9.61983 82.1635 9.70983C82.1535 9.70983 82.1435 9.70983 82.1435 9.71983C82.1135 9.72983 82.0835 9.73983 82.0535 9.74983C81.8435 9.80983 81.6235 9.86983 81.4235 9.92983C81.3335 9.95983 81.2535 9.98983 81.1635 10.0198C81.1135 10.0398 81.0535 10.0598 81.0035 10.0798C80.9535 10.0998 80.8935 10.1198 80.8435 10.1398C80.6835 10.1998 80.5235 10.2698 80.3735 10.3298C80.3035 10.3598 80.2235 10.3998 80.1535 10.4298L26.9335 35.8298C26.8735 35.8598 26.8135 35.8898 26.7535 35.9198C26.6335 35.9798 26.5235 36.0398 26.4235 36.0998C26.3735 36.1298 26.3235 36.1698 26.2735 36.1998C26.2535 36.2098 26.2335 36.2198 26.2135 36.2398C26.1935 36.2498 26.1635 36.2698 26.1435 36.2798C26.0635 36.3398 25.9835 36.3998 25.9135 36.4598C25.8535 36.5098 25.8035 36.5598 25.7435 36.6198L25.7335 36.6298L25.7235 36.6398C25.6635 36.6998 25.6135 36.7598 25.5735 36.8198C25.5235 36.8798 25.4935 36.9398 25.4635 37.0098C25.4635 37.0198 25.4635 37.0198 25.4535 37.0298C25.4535 37.0398 25.4435 37.0498 25.4435 37.0498C25.4235 37.0998 25.4035 37.1498 25.3835 37.1998C25.3635 37.2698 25.3535 37.3398 25.3535 37.4098C25.3535 37.4198 25.3535 37.4298 25.3535 37.4298V51.0498C25.3535 50.9198 25.3835 50.7898 25.4435 50.6698C25.4435 50.6598 25.4535 50.6498 25.4535 50.6498C25.5135 50.5198 25.6035 50.3898 25.7335 50.2598L25.7435 50.2498C25.8635 50.1198 26.0235 49.9998 26.2035 49.8798C26.2235 49.8698 26.2435 49.8598 26.2635 49.8398C26.4535 49.7198 26.6735 49.5898 26.9235 49.4698L80.1435 24.0698C80.4035 23.9498 80.6935 23.8298 80.9935 23.7198C81.0435 23.6998 81.1035 23.6798 81.1535 23.6598C81.4335 23.5598 81.7235 23.4698 82.0335 23.3898C82.0635 23.3798 82.0935 23.3698 82.1235 23.3598C82.4835 23.2598 82.8635 23.1698 83.2535 23.0898C83.3035 23.0798 83.3635 23.0698 83.4235 23.0598C83.7535 22.9998 84.0835 22.9398 84.4235 22.8798C84.5635 22.8598 84.7035 22.8398 84.8435 22.8198C85.1135 22.7798 85.3935 22.7398 85.6735 22.7098C85.8335 22.6898 85.9935 22.6798 86.1535 22.6598C86.4335 22.6298 86.7135 22.6098 86.9935 22.5898C87.1535 22.5798 87.3135 22.5598 87.4735 22.5498C87.8735 22.5198 88.2735 22.4998 88.6835 22.4898C88.7235 22.4898 88.7535 22.4898 88.7935 22.4898C89.2535 22.4798 89.7135 22.4698 90.1835 22.4698C90.6535 22.4698 91.1135 22.4798 91.5735 22.4898C91.6235 22.4898 91.6735 22.4898 91.7135 22.4998C92.1435 22.5198 92.5735 22.5398 92.9935 22.5698C93.0435 22.5698 93.0935 22.5798 93.1335 22.5798C93.5635 22.6098 93.9935 22.6498 94.4035 22.6898C94.4335 22.6898 94.4735 22.6998 94.5035 22.6998C94.9435 22.7498 95.3635 22.7998 95.7835 22.8698C95.7935 22.8698 95.8135 22.8698 95.8235 22.8798C96.2335 22.9398 96.6235 23.0098 97.0035 23.0898C97.0335 23.0998 97.0735 23.0998 97.1035 23.1098C97.4435 23.1798 97.7735 23.2598 98.0935 23.3398C98.2035 23.3698 98.3035 23.3998 98.4135 23.4298C98.6535 23.4998 98.8735 23.5698 99.0935 23.6398C99.1835 23.6698 99.2835 23.6998 99.3735 23.7398C99.6635 23.8498 99.9535 23.9598 100.203 24.0798L153.413 49.4798C153.953 49.7398 154.343 49.9998 154.603 50.2698C154.863 50.5398 154.983 50.8098 154.983 51.0698V37.4098C154.993 36.8798 154.503 36.3298 153.423 35.8198Z" fill="#4AAD93"/>
<path d="M180.303 41.2805C180.293 41.3005 180.293 41.3105 180.283 41.3305C180.253 41.4105 180.213 41.4805 180.163 41.5505C180.113 41.6305 180.033 41.7005 179.963 41.7705C179.943 41.7805 179.933 41.8005 179.913 41.8105C179.833 41.8805 179.743 41.9505 179.643 42.0205C179.623 42.0305 179.604 42.0505 179.583 42.0605C179.493 42.1205 179.383 42.1805 179.283 42.2405C179.263 42.2505 179.233 42.2705 179.213 42.2805C179.083 42.3505 178.943 42.4105 178.803 42.4805C178.763 42.5005 178.723 42.5105 178.683 42.5305C178.573 42.5805 178.453 42.6205 178.323 42.6705C178.253 42.6905 178.184 42.7205 178.113 42.7405C178.013 42.7805 177.903 42.8105 177.793 42.8405C177.693 42.8705 177.583 42.9005 177.473 42.9305C177.383 42.9605 177.283 42.9805 177.183 43.0105C177.003 43.0605 176.803 43.1005 176.613 43.1505C176.513 43.1705 176.413 43.1905 176.313 43.2105C176.163 43.2405 176.013 43.2705 175.853 43.2905C175.733 43.3105 175.613 43.3305 175.483 43.3505C175.313 43.3805 175.143 43.4005 174.973 43.4205C174.854 43.4405 174.723 43.4605 174.603 43.4705C174.413 43.4905 174.213 43.5105 174.023 43.5305C173.903 43.5405 173.783 43.5605 173.663 43.5705C173.433 43.5905 173.183 43.6105 172.943 43.6205C172.853 43.6305 172.763 43.6305 172.663 43.6405C172.633 43.6405 172.613 43.6405 172.583 43.6405C172.303 43.6605 172.023 43.6705 171.743 43.6805C171.673 43.6805 171.613 43.6805 171.543 43.6905C171.233 43.7005 170.913 43.7005 170.593 43.7005H90.1935H9.79349C9.44349 43.7005 9.09349 43.6905 8.75349 43.6905C8.74349 43.6905 8.74349 43.6905 8.73349 43.6905C8.41349 43.6805 8.10349 43.6705 7.79349 43.6505C7.76349 43.6505 7.74349 43.6505 7.71349 43.6505C7.42349 43.6305 7.13349 43.6105 6.85349 43.5905C6.81349 43.5905 6.76349 43.5805 6.72349 43.5805C6.45349 43.5605 6.19349 43.5305 5.93349 43.5005C5.88349 43.4905 5.83349 43.4905 5.78349 43.4805C5.52349 43.4505 5.26349 43.4105 5.01349 43.3705C5.00349 43.3705 4.98349 43.3705 4.97349 43.3605C4.74349 43.3205 4.52349 43.2805 4.30349 43.2405C4.23349 43.2305 4.17349 43.2105 4.10349 43.2005C3.94349 43.1705 3.78349 43.1305 3.63349 43.1005C3.55349 43.0805 3.46349 43.0605 3.38349 43.0405C3.27349 43.0105 3.17349 42.9905 3.07349 42.9605C2.93349 42.9205 2.79349 42.8905 2.66349 42.8505C2.55349 42.8205 2.44349 42.7805 2.34349 42.7505C2.25349 42.7205 2.16349 42.6905 2.08349 42.6605C1.98349 42.6205 1.88349 42.5805 1.79349 42.5505C1.71349 42.5205 1.63349 42.4905 1.56349 42.4605C1.47349 42.4205 1.39349 42.3805 1.31349 42.3405C1.24349 42.3105 1.17349 42.2705 1.11349 42.2405C1.03349 42.2005 0.963488 42.1505 0.893488 42.1105C0.843488 42.0805 0.783488 42.0405 0.733488 42.0105C0.663488 41.9605 0.61349 41.9205 0.55349 41.8705C0.51349 41.8405 0.463489 41.8005 0.423489 41.7705C0.373489 41.7205 0.333489 41.6705 0.293489 41.6205C0.263489 41.5905 0.233489 41.5505 0.203489 41.5205C0.163489 41.4705 0.143489 41.4105 0.113489 41.3505C0.103489 41.3205 0.083488 41.2905 0.063488 41.2605C0.033488 41.1805 0.0134888 41.0905 0.0134888 41.0005V54.6205C0.0134888 54.7105 0.033488 54.7905 0.063488 54.8805C0.073488 54.9105 0.0934892 54.9405 0.113489 54.9705C0.143489 55.0305 0.163489 55.0805 0.203489 55.1405C0.223489 55.1705 0.263489 55.2105 0.293489 55.2405C0.333489 55.2905 0.373489 55.3405 0.423489 55.3905C0.463489 55.4205 0.50349 55.4605 0.55349 55.4905C0.61349 55.5405 0.663488 55.5805 0.733488 55.6305C0.783488 55.6605 0.843488 55.7005 0.893488 55.7305C0.963488 55.7705 1.03349 55.8205 1.10349 55.8605C1.16349 55.8905 1.23349 55.9305 1.30349 55.9605C1.38349 56.0005 1.46349 56.0405 1.56349 56.0805C1.63349 56.1105 1.71349 56.1405 1.79349 56.1705C1.88349 56.2105 1.98349 56.2505 2.08349 56.2805C2.17349 56.3105 2.26349 56.3405 2.35349 56.3705C2.42349 56.3905 2.49349 56.4205 2.57349 56.4405C2.60349 56.4505 2.64349 56.4605 2.67349 56.4705C2.80349 56.5105 2.94349 56.5505 3.08349 56.5805C3.15349 56.6005 3.22349 56.6205 3.29349 56.6405C3.32349 56.6505 3.35349 56.6505 3.38349 56.6605C3.46349 56.6805 3.55349 56.7005 3.63349 56.7205C3.73349 56.7405 3.82349 56.7605 3.92349 56.7905C3.98349 56.8005 4.04349 56.8105 4.10349 56.8205C4.17349 56.8305 4.23349 56.8505 4.30349 56.8605C4.36349 56.8705 4.42349 56.8805 4.48349 56.8905C4.64349 56.9205 4.80349 56.9505 4.97349 56.9705C4.98349 56.9705 5.00349 56.9705 5.01349 56.9805H5.02349C5.19349 57.0105 5.37349 57.0305 5.55349 57.0605C5.62349 57.0705 5.70349 57.0805 5.77349 57.0905C5.82349 57.1005 5.87349 57.1005 5.92349 57.1105C5.97349 57.1205 6.01349 57.1205 6.06349 57.1305C6.23349 57.1505 6.41349 57.1705 6.59349 57.1805C6.63349 57.1805 6.67349 57.1905 6.71349 57.1905C6.76349 57.1905 6.80349 57.2005 6.85349 57.2005C6.94349 57.2105 7.03349 57.2205 7.12349 57.2205C7.30349 57.2305 7.47349 57.2505 7.66349 57.2605C7.68349 57.2605 7.70349 57.2605 7.71349 57.2605C7.74349 57.2605 7.76349 57.2605 7.79349 57.2605C7.93349 57.2705 8.06349 57.2805 8.20349 57.2805C8.37349 57.2905 8.55349 57.2905 8.72349 57.3005C8.73349 57.3005 8.74349 57.3005 8.75349 57.3005C8.75349 57.3005 8.75349 57.3005 8.76349 57.3005C8.95349 57.3105 9.14349 57.3105 9.33349 57.3105C9.48349 57.3105 9.64349 57.3105 9.80349 57.3105H90.2035H170.603C170.643 57.3105 170.684 57.3105 170.723 57.3105C170.923 57.3105 171.133 57.3105 171.323 57.3005C171.403 57.3005 171.473 57.3005 171.543 57.2905C171.613 57.2905 171.683 57.2905 171.753 57.2805C171.824 57.2805 171.903 57.2805 171.973 57.2705C172.184 57.2605 172.383 57.2505 172.593 57.2405C172.623 57.2405 172.653 57.2405 172.673 57.2405C172.683 57.2405 172.693 57.2405 172.693 57.2405C172.783 57.2305 172.863 57.2305 172.943 57.2205C173.193 57.2005 173.433 57.1905 173.673 57.1705C173.793 57.1605 173.903 57.1505 174.023 57.1305C174.223 57.1105 174.423 57.0905 174.613 57.0705C174.743 57.0505 174.863 57.0405 174.983 57.0205C175.153 57.0005 175.333 56.9705 175.503 56.9405C175.623 56.9205 175.743 56.9005 175.863 56.8805C176.023 56.8505 176.173 56.8205 176.333 56.7905C176.373 56.7805 176.413 56.7805 176.453 56.7705C176.513 56.7605 176.563 56.7405 176.623 56.7305C176.823 56.6905 177.013 56.6405 177.203 56.5905C177.253 56.5805 177.313 56.5705 177.363 56.5505C177.413 56.5405 177.453 56.5205 177.493 56.5105C177.603 56.4805 177.703 56.4505 177.813 56.4205C177.873 56.4005 177.943 56.3805 178.003 56.3605C178.053 56.3405 178.093 56.3305 178.143 56.3105C178.214 56.2905 178.283 56.2605 178.353 56.2405C178.403 56.2205 178.453 56.2105 178.503 56.1905C178.574 56.1605 178.643 56.1305 178.713 56.1005C178.753 56.0805 178.794 56.0705 178.833 56.0505C178.854 56.0405 178.873 56.0405 178.883 56.0305C179.003 55.9805 179.103 55.9305 179.213 55.8805C179.223 55.8705 179.233 55.8705 179.243 55.8605C179.263 55.8505 179.283 55.8305 179.313 55.8205C179.373 55.7905 179.433 55.7605 179.483 55.7205C179.533 55.6905 179.574 55.6605 179.613 55.6305C179.633 55.6205 179.653 55.6005 179.673 55.5905C179.683 55.5805 179.703 55.5705 179.713 55.5705C179.783 55.5205 179.853 55.4705 179.913 55.4205C179.923 55.4105 179.943 55.4005 179.953 55.3805C179.973 55.3705 179.983 55.3505 180.003 55.3405C180.023 55.3205 180.053 55.2905 180.073 55.2705C180.123 55.2205 180.163 55.1705 180.203 55.1205C180.243 55.0705 180.273 55.0205 180.293 54.9705C180.303 54.9505 180.313 54.9205 180.323 54.9005C180.333 54.8805 180.333 54.8705 180.343 54.8505C180.343 54.8405 180.354 54.8205 180.363 54.8105C180.383 54.7505 180.383 54.6905 180.393 54.6405C180.393 54.6305 180.393 54.6205 180.393 54.6205V41.0405C180.343 41.1205 180.323 41.2005 180.303 41.2805Z" fill="#5DC2A7"/>
<path d="M179.023 39.7298C182.783 41.5198 178.083 43.7598 170.573 43.7598H90.1735H9.77348C2.26348 43.7598 -2.43652 41.5198 1.32348 39.7298L41.5135 20.5398L81.7135 1.34977C83.5835 0.449766 86.8735 0.00976562 90.1635 0.00976562C93.4535 0.00976562 96.7335 0.459766 98.6135 1.34977L138.803 20.5398L179.023 39.7298ZM143.393 40.6098C152.313 40.6098 157.883 37.9498 153.423 35.8198L100.213 10.4098C97.9835 9.33977 94.0735 8.80977 90.1735 8.80977C86.2735 8.80977 82.3635 9.33977 80.1335 10.4098L26.9235 35.8198C22.4635 37.9498 28.0435 40.6098 36.9635 40.6098H143.393Z" fill="#5DC2A7"/>
<path d="M90.6035 5.31984C91.0035 6.15984 75.9035 14.2598 56.8735 23.4098C37.8435 32.5598 22.0835 39.2898 21.6835 38.4498C21.2835 37.6098 36.3835 29.5098 55.4135 20.3598C74.4435 11.2098 90.2035 4.47984 90.6035 5.31984Z" fill="url(#paint0_radial_411_9038)"/>
<path d="M82.1135 43.9197C82.1135 44.8497 64.9835 45.5297 43.8735 45.4497C22.7535 45.3597 5.64348 44.5297 5.64348 43.5997C5.64348 42.6697 22.7735 41.9897 43.8835 42.0697C65.0035 42.1597 82.1135 42.9897 82.1135 43.9197Z" fill="url(#paint1_radial_411_9038)"/>
<path d="M176.453 43.9197C176.453 44.8497 159.323 45.5297 138.213 45.4497C117.093 45.3597 99.9835 44.5297 99.9835 43.5997C99.9835 42.6697 117.113 41.9897 138.223 42.0697C159.343 42.1597 176.453 42.9897 176.453 43.9197Z" fill="url(#paint2_radial_411_9038)"/>
<path d="M164.733 41.1898C164.333 42.0298 148.563 35.3298 129.503 26.2298C110.453 17.1298 95.3235 9.06979 95.7335 8.22979C96.1335 7.38979 111.903 14.0898 130.963 23.1898C150.013 32.2898 165.133 40.3498 164.733 41.1898Z" fill="url(#paint3_radial_411_9038)"/>
<path d="M80.4335 57.3797C80.4335 58.3097 63.3135 59.0697 42.1935 59.0697C21.0735 59.0697 3.96349 58.3197 3.96349 57.3797C3.96349 56.4497 21.0835 55.6897 42.2035 55.6897C63.3235 55.6897 80.4335 56.4497 80.4335 57.3797Z" fill="url(#paint4_radial_411_9038)"/>
<path d="M180.343 57.3797C180.343 58.3097 163.223 59.0697 142.103 59.0697C120.983 59.0697 103.863 58.3097 103.863 57.3797C103.863 56.4497 120.983 55.6897 142.103 55.6897C163.223 55.6897 180.343 56.4497 180.343 57.3797Z" fill="url(#paint5_radial_411_9038)"/>
<defs>
<radialGradient id="paint0_radial_411_9038" cx="0" cy="0" r="1" gradientUnits="userSpaceOnUse" gradientTransform="translate(56.1423 21.8805) rotate(-25.6708) scale(38.2253 1.68748)">
<stop stop-color="white"/>
<stop offset="0.0366" stop-color="white" stop-opacity="0.9471"/>
<stop offset="0.6915" stop-color="white" stop-opacity="0"/>
</radialGradient>
<radialGradient id="paint1_radial_411_9038" cx="0" cy="0" r="1" gradientUnits="userSpaceOnUse" gradientTransform="translate(43.8791 43.7611) rotate(0.240641) scale(38.2446 1.68659)">
<stop stop-color="white"/>
<stop offset="0.0366" stop-color="white" stop-opacity="0.9471"/>
<stop offset="0.6915" stop-color="white" stop-opacity="0"/>
</radialGradient>
<radialGradient id="paint2_radial_411_9038" cx="0" cy="0" r="1" gradientUnits="userSpaceOnUse" gradientTransform="translate(138.219 43.7611) rotate(0.240641) scale(38.2446 1.68659)">
<stop stop-color="white"/>
<stop offset="0.0366" stop-color="white" stop-opacity="0.9471"/>
<stop offset="0.6915" stop-color="white" stop-opacity="0"/>
</radialGradient>
<radialGradient id="paint3_radial_411_9038" cx="0" cy="0" r="1" gradientUnits="userSpaceOnUse" gradientTransform="translate(130.233 24.7122) rotate(25.5323) scale(38.2431 1.6867)">
<stop stop-color="white"/>
<stop offset="0.0366" stop-color="white" stop-opacity="0.9471"/>
<stop offset="0.6915" stop-color="white" stop-opacity="0"/>
</radialGradient>
<radialGradient id="paint4_radial_411_9038" cx="0" cy="0" r="1" gradientUnits="userSpaceOnUse" gradientTransform="translate(42.1939 57.3834) scale(38.2451 1.68661)">
<stop stop-color="white"/>
<stop offset="0.0366" stop-color="white" stop-opacity="0.9471"/>
<stop offset="0.6915" stop-color="white" stop-opacity="0"/>
</radialGradient>
<radialGradient id="paint5_radial_411_9038" cx="0" cy="0" r="1" gradientUnits="userSpaceOnUse" gradientTransform="translate(142.11 57.3834) scale(38.2451 1.68661)">
<stop stop-color="white"/>
<stop offset="0.0366" stop-color="white" stop-opacity="0.9471"/>
<stop offset="0.6915" stop-color="white" stop-opacity="0"/>
</radialGradient>
</defs>
</svg>
