<svg width="124" height="80" viewBox="0 0 124 80" fill="none" xmlns="http://www.w3.org/2000/svg">
<path d="M95.3732 0.704102C79.6452 0.704102 67.2266 13.4561 67.2266 29.1841C67.2266 44.9121 80.1439 57.6641 95.8719 57.6641C96.0292 57.6641 96.2666 57.6428 96.4239 57.6401C90.2052 62.5921 82.3946 65.5761 73.8452 65.5761C69.9119 65.5761 66.7466 68.7654 66.7466 72.6961C66.7466 76.6268 69.2772 79.8161 73.2106 79.8161C101.128 79.8134 123.187 57.1014 123.187 29.1841C123.187 29.1788 123.187 29.1734 123.187 29.1654C123.187 13.4454 111.096 0.704102 95.3732 0.704102Z" fill="#5DC2A7"/>
<path d="M28.6667 0.704102C12.9387 0.704102 0.498667 13.4561 0.498667 29.1841C0.498667 44.9121 13.4053 57.6641 29.136 57.6641C29.2933 57.6641 29.5253 57.6428 29.6827 57.6401C23.464 62.5921 15.6507 65.5761 7.10133 65.5761C3.168 65.5761 0 68.7654 0 72.6961C0 76.6268 2.57067 79.8161 6.504 79.8161C34.4213 79.8134 56.52 57.1014 56.52 29.1841C56.52 29.1788 56.52 29.1734 56.52 29.1654C56.52 13.4454 44.3893 0.704102 28.6667 0.704102Z" fill="#5DC2A7"/>
</svg>
