<svg width="34" height="32" viewBox="0 0 34 32" fill="none" xmlns="http://www.w3.org/2000/svg">
<path d="M32.5117 12.2616L32.254 12.0907L32.8348 11.2146C33.0726 10.8559 33.1565 10.4255 33.0709 10.0036C32.985 9.58175 32.7402 9.21825 32.3815 8.98021C32.0225 8.74218 31.5919 8.65853 31.1705 8.74386C30.7484 8.82947 30.3848 9.07425 30.1471 9.43326L29.4114 10.5432V10.5434L26.5794 14.816L26.0278 15.6483V2.85109C26.0278 1.90147 25.2553 1.12898 24.3057 1.12898H4.94232C3.9927 1.12898 3.22021 1.90147 3.22021 2.85109V3.6014H2.3927C1.7033 3.6014 1.14246 4.16253 1.14246 4.85193C1.14246 5.54133 1.7033 6.10218 2.3927 6.10218H3.22021V7.53684H2.3927C1.7033 7.53684 1.14246 8.09796 1.14246 8.78737C1.14246 9.47677 1.7033 10.0376 2.3927 10.0376H3.22021V11.4723H2.3927C1.7033 11.4723 1.14246 12.0334 1.14246 12.7228C1.14246 13.4122 1.7033 13.9733 2.3927 13.9733H3.22021V15.4077H2.3927C1.7033 15.4077 1.14246 15.9688 1.14246 16.6582C1.14246 17.3476 1.7033 17.9088 2.3927 17.9088H3.22021V19.3432H2.3927C1.7033 19.3432 1.14246 19.9043 1.14246 20.5937C1.14246 21.2831 1.7033 21.8442 2.3927 21.8442H3.22021V23.2789H2.3927C1.7033 23.2789 1.14246 23.8397 1.14246 24.5291C1.14246 25.2185 1.7033 25.7796 2.3927 25.7796H3.22021V27.022H2.3927C1.7033 27.022 1.14246 27.5832 1.14246 28.2726C1.14246 28.962 1.7033 29.5231 2.3927 29.5231H3.22021V30.4399C3.22021 31.2977 3.91775 31.9955 4.77558 31.9955H23.9427C25.0925 31.9955 26.0278 31.0599 26.0278 29.9105V21.4852L29.2674 16.5971L31.9436 12.5589L32.2015 12.7298C32.2641 12.7711 32.3065 12.8345 32.3214 12.9078C32.3366 12.9813 32.322 13.056 32.2804 13.1186L28.7388 18.4626L28.0084 19.0479C27.8874 19.145 27.8681 19.3215 27.9652 19.4425C28.0205 19.5119 28.1022 19.5478 28.1844 19.5478C28.2459 19.5478 28.3079 19.5276 28.3599 19.486L29.1242 18.8733C29.1467 18.855 29.1663 18.8334 29.1826 18.8093L32.7486 13.4288C32.8727 13.2413 32.9168 13.0167 32.8719 12.7961C32.8269 12.5757 32.6992 12.386 32.5117 12.2616Z" fill="white"/>
<path d="M23.1829 0.286596H3.81982C3.02375 0.286596 2.37842 0.93193 2.37842 1.728V2.57011C2.37842 1.77403 3.02375 1.1287 3.81982 1.1287H23.1832C23.9793 1.1287 24.6246 1.77403 24.6246 2.57011V1.728C24.6246 0.93193 23.9793 0.286596 23.1829 0.286596V0.286596Z" fill="white"/>
<path d="M3.48638 4.69839H1.26996C0.73438 4.69839 0.300415 4.26414 0.300415 3.72884C0.300415 3.19326 0.734661 2.7593 1.26996 2.7593H3.48638C4.02196 2.7593 4.45592 3.19354 4.45592 3.72884C4.4562 4.26414 4.02196 4.69839 3.48638 4.69839Z" fill="#E8EDFC"/>
<path d="M3.48638 8.63382H1.26996C0.73438 8.63382 0.300415 8.19958 0.300415 7.66428C0.300415 7.1287 0.734661 6.69474 1.26996 6.69474H3.48638C4.02196 6.69474 4.45592 7.12898 4.45592 7.66428C4.4562 8.19958 4.02196 8.63382 3.48638 8.63382Z" fill="#E8EDFC"/>
<path d="M3.48638 12.569H1.26996C0.73438 12.569 0.300415 12.1347 0.300415 11.5994C0.300415 11.0639 0.734661 10.6299 1.26996 10.6299H3.48638C4.02196 10.6299 4.45592 11.0641 4.45592 11.5994C4.4562 12.135 4.02196 12.569 3.48638 12.569Z" fill="#E8EDFC"/>
<path d="M3.48638 16.5044H1.26996C0.73438 16.5044 0.300415 16.0702 0.300415 15.5349C0.300415 14.9993 0.734661 14.5653 1.26996 14.5653H3.48638C4.02196 14.5653 4.45592 14.9996 4.45592 15.5349C4.4562 16.0702 4.02196 16.5044 3.48638 16.5044Z" fill="#E8EDFC"/>
<path d="M3.48638 20.4396H1.26996C0.73438 20.4396 0.300415 20.0053 0.300415 19.47C0.300415 18.9345 0.734661 18.5005 1.26996 18.5005H3.48638C4.02196 18.5005 4.45592 18.9347 4.45592 19.47C4.4562 20.0056 4.02196 20.4396 3.48638 20.4396Z" fill="#E8EDFC"/>
<path d="M3.48638 24.375H1.26996C0.73438 24.375 0.300415 23.9408 0.300415 23.4055C0.300415 22.8699 0.734661 22.4359 1.26996 22.4359H3.48638C4.02196 22.4359 4.45592 22.8702 4.45592 23.4055C4.4562 23.9408 4.02196 24.375 3.48638 24.375Z" fill="#E8EDFC"/>
<path d="M3.48638 28.1182H1.26996C0.73438 28.1182 0.300415 27.6839 0.300415 27.1486C0.300415 26.6131 0.734661 26.1791 1.26996 26.1791H3.48638C4.02196 26.1791 4.45592 26.6133 4.45592 27.1486C4.4562 27.6839 4.02196 28.1182 3.48638 28.1182Z" fill="#E8EDFC"/>
<path d="M19.6707 22.9151L25.6862 13.8265L27.9071 15.2964L21.8916 24.3851L19.6707 22.9151Z" fill="#FBA800"/>
<path d="M28.5396 9.5689L30.7605 11.0389L27.9313 15.3134L25.7104 13.8434L28.5396 9.5689Z" fill="#FBA800"/>
<path d="M30.7421 11.047L28.5223 9.57586L29.2578 8.46597C29.664 7.85291 30.4903 7.68533 31.1034 8.09151C31.7164 8.49768 31.884 9.32407 31.4778 9.93712L30.7421 11.047Z" fill="#FBA800"/>
<path d="M18.9111 26.4884L19.6704 22.9322L21.8902 24.4034L18.9111 26.4884Z" fill="#FBA800"/>
<path d="M24.6246 5.57165C24.4693 5.57165 24.3439 5.6974 24.3439 5.85235V8.5614C24.3439 8.71635 24.4693 8.8421 24.6246 8.8421C24.7798 8.8421 24.9053 8.71635 24.9053 8.5614V5.85235C24.9053 5.69712 24.7798 5.57165 24.6246 5.57165Z" fill="#3A2C60"/>
<path d="M20.4398 4.78204H7.76642C7.61119 4.78204 7.48572 4.90779 7.48572 5.06274C7.48572 5.21768 7.61119 5.34344 7.76642 5.34344H20.4395C20.5948 5.34344 20.7202 5.21768 20.7202 5.06274C20.7202 4.90779 20.5948 4.78204 20.4398 4.78204Z" fill="black"/>
<path d="M20.4398 8.35312H7.76642C7.61119 8.35312 7.48572 8.47888 7.48572 8.63382C7.48572 8.78877 7.61119 8.91453 7.76642 8.91453H20.4395C20.5948 8.91453 20.7202 8.78877 20.7202 8.63382C20.7202 8.47888 20.5948 8.35312 20.4398 8.35312Z" fill="black"/>
<path d="M20.4398 11.9239H7.76642C7.61119 11.9239 7.48572 12.0497 7.48572 12.2046C7.48572 12.3596 7.61119 12.4853 7.76642 12.4853H20.4395C20.5948 12.4853 20.7202 12.3596 20.7202 12.2046C20.7202 12.0497 20.5948 11.9239 20.4398 11.9239Z" fill="black"/>
<path d="M20.4398 15.495H7.76642C7.61119 15.495 7.48572 15.6208 7.48572 15.7757C7.48572 15.9307 7.61119 16.0564 7.76642 16.0564H20.4395C20.5948 16.0564 20.7202 15.9307 20.7202 15.7757C20.7202 15.6208 20.5948 15.495 20.4398 15.495V15.495Z" fill="black"/>
<path d="M20.4398 19.0658H7.76642C7.61119 19.0658 7.48572 19.1916 7.48572 19.3465C7.48572 19.5015 7.61119 19.6272 7.76642 19.6272H20.4395C20.5948 19.6272 20.7202 19.5015 20.7202 19.3465C20.7202 19.1916 20.5948 19.0658 20.4398 19.0658Z" fill="black"/>
<path fill-rule="evenodd" clip-rule="evenodd" d="M31.1312 10.9679L31.3889 11.1388C31.5764 11.2632 31.7041 11.4529 31.7488 11.6735C31.7937 11.8939 31.7496 12.1185 31.6255 12.306L28.0598 17.6865C28.0435 17.7106 28.0239 17.7322 28.0014 17.7505L27.2371 18.3632C27.1851 18.4048 27.1231 18.425 27.0616 18.425C26.9794 18.425 26.8977 18.3891 26.8424 18.3197C26.7453 18.1987 26.7646 18.0222 26.8856 17.9251L27.616 17.3398L31.1573 11.9958C31.243 11.8667 31.2079 11.6924 31.0787 11.6067L30.8211 11.4361L28.1448 15.4745L24.9053 20.3627V28.7874C24.9053 29.9368 23.97 30.8724 22.8202 30.8724H3.65306C2.79523 30.8724 2.09741 30.1746 2.09741 29.3168V28.3997H1.27018C0.580776 28.3997 0.0196533 27.8386 0.0196533 27.1492C0.0196533 26.4598 0.580776 25.8989 1.27018 25.8989H2.09741V24.6566H1.27018C0.580776 24.6566 0.0196533 24.0957 0.0196533 23.4063C0.0196533 22.7169 0.580776 22.1558 1.27018 22.1558H2.09741V20.7211H1.27018C0.580776 20.7211 0.0196533 20.1603 0.0196533 19.4709C0.0196533 18.7815 0.580776 18.2204 1.27018 18.2204H2.09741V16.7857H1.27018C0.580776 16.7857 0.0196533 16.2246 0.0196533 15.5352C0.0196533 14.8458 0.580776 14.2849 1.27018 14.2849H2.09741V12.8502H1.27018C0.580776 12.8502 0.0196533 12.2891 0.0196533 11.5997C0.0196533 10.9103 0.580776 10.3492 1.27018 10.3492H2.09741V8.91481H1.27018C0.580776 8.91481 0.0196533 8.35369 0.0196533 7.66428C0.0196533 6.97488 0.580776 6.41375 1.27018 6.41375H2.09741V4.97937H1.27018C0.580776 4.97937 0.0196533 4.41825 0.0196533 3.72884C0.0196533 3.03944 0.580776 2.47832 1.27018 2.47832H2.09741V1.72828C2.09741 0.778667 2.87018 0.00617599 3.81979 0.00617599H23.1832C24.1328 0.00617599 24.9053 0.778667 24.9053 1.72828V4.69726C24.9053 4.85221 24.7798 4.97797 24.6246 4.97797C24.4693 4.97797 24.3439 4.85221 24.3439 4.69726V1.72688C24.3439 1.08688 23.8232 0.566176 23.1832 0.566176H3.81979C3.17951 0.566176 2.65881 1.08688 2.65881 1.72688V2.47691H3.48632C4.17572 2.47691 4.73685 3.03804 4.73685 3.72744C4.73685 4.41684 4.17572 4.97797 3.48632 4.97797H2.65881V6.41235H3.48632C4.17572 6.41235 4.73685 6.97347 4.73685 7.66288C4.73685 8.35228 4.17572 8.9134 3.48632 8.9134H2.65881V10.3478H3.48632C4.17572 10.3478 4.73685 10.9089 4.73685 11.5983C4.73685 12.2877 4.17572 12.8488 3.48632 12.8488H2.65881V14.2835H3.48632C4.17572 14.2835 4.73685 14.8444 4.73685 15.5338C4.73685 16.2232 4.17572 16.7843 3.48632 16.7843H2.65881V18.2189H3.48632C4.17572 18.2189 4.73685 18.7801 4.73685 19.4695C4.73685 20.1589 4.17572 20.7197 3.48632 20.7197H2.65881V22.1544H3.48632C4.17572 22.1544 4.73685 22.7155 4.73685 23.4049C4.73685 24.0943 4.17572 24.6552 3.48632 24.6552H2.65881V25.8975H3.48632C4.17572 25.8975 4.73685 26.4584 4.73685 27.1478C4.73685 27.8372 4.17572 28.3983 3.48632 28.3983H2.65881V29.3154C2.65881 29.8636 3.10485 30.3096 3.65306 30.3096H22.8197C23.6598 30.3096 24.3433 29.6261 24.3433 28.786V21.2095L22.1241 24.5583C22.123 24.5602 22.1214 24.5615 22.1199 24.5628C22.1185 24.5639 22.1172 24.5651 22.1162 24.5665C22.0982 24.5914 22.0772 24.615 22.0511 24.6333L22.0472 24.6361L19.072 26.7183C19.0237 26.752 18.9676 26.7691 18.9112 26.7691C18.9072 26.7691 18.9033 26.7683 18.8993 26.7675L18.8954 26.7668L18.8901 26.766L18.8882 26.7662L18.8866 26.7666L18.8829 26.7676L18.8788 26.7687L18.8767 26.769L18.875 26.7691H7.76646C7.61123 26.7691 7.48576 26.6434 7.48576 26.4884C7.48576 26.3335 7.61123 26.2077 7.76646 26.2077H18.6844L19.3269 23.198H7.76646C7.61123 23.198 7.48576 23.0723 7.48576 22.9173C7.48576 22.7624 7.61123 22.6366 7.76646 22.6366H19.5295L24.3439 15.3724V9.61404C24.3439 9.45909 24.4693 9.33333 24.6246 9.33333C24.7798 9.33333 24.9053 9.45909 24.9053 9.61404V14.5255L25.4568 13.6932L28.2883 9.42091L29.0237 8.31102C29.5152 7.56997 30.5173 7.36674 31.2587 7.85768C31.9994 8.34863 32.2027 9.35102 31.7117 10.0921L31.1312 10.9679ZM1.27018 3.03972C0.89039 3.03972 0.581057 3.34877 0.581057 3.72884C0.581057 4.10863 0.890109 4.41768 1.27018 4.41797H3.4866C3.86639 4.41797 4.17572 4.10891 4.17572 3.72884C4.17572 3.34877 3.86667 3.03972 3.4866 3.03972H1.27018ZM0.581057 7.664C0.581057 7.28393 0.89039 6.97488 1.27018 6.97488H3.4866C3.86667 6.97488 4.17572 7.28393 4.17572 7.664C4.17572 8.04407 3.86639 8.35312 3.4866 8.35312H1.27018C0.890109 8.35312 0.581057 8.04407 0.581057 7.664ZM1.27018 10.9103C0.89039 10.9103 0.581057 11.2194 0.581057 11.5994C0.581057 11.9792 0.890109 12.2883 1.27018 12.2886H3.4866C3.86639 12.2886 4.17572 11.9795 4.17572 11.5994C4.17572 11.2194 3.86667 10.9103 3.4866 10.9103H1.27018ZM0.581057 15.5346C0.581057 15.1548 0.89039 14.8458 1.27018 14.8458H3.4866C3.86667 14.8458 4.17572 15.1548 4.17572 15.5346C4.17572 15.9147 3.86639 16.2237 3.4866 16.2237H1.27018C0.890109 16.2237 0.581057 15.9147 0.581057 15.5346ZM1.27018 18.7809C0.89039 18.7809 0.581057 19.09 0.581057 19.47C0.581057 19.8498 0.890109 20.1589 1.27018 20.1589H3.4866C3.86639 20.1589 4.17572 19.8498 4.17572 19.47C4.17572 19.09 3.86667 18.7809 3.4866 18.7809H1.27018ZM0.581057 23.4055C0.581057 23.0254 0.89039 22.7164 1.27018 22.7164H3.4866C3.86667 22.7164 4.17572 23.0254 4.17572 23.4055C4.17572 23.7853 3.86639 24.0943 3.4866 24.0943H1.27018C0.890109 24.0943 0.581057 23.7853 0.581057 23.4055ZM1.27018 26.4595C0.89039 26.4595 0.581057 26.7686 0.581057 27.1484C0.581057 27.5284 0.890109 27.8375 1.27018 27.8375H3.4866C3.86639 27.8375 4.17572 27.5284 4.17572 27.1484C4.17572 26.7686 3.86667 26.4595 3.4866 26.4595H1.27018ZM27.8319 14.9302L27.7701 14.8893L26.08 13.7693L28.6013 9.96491L30.3531 11.1259L27.8319 14.9302ZM30.9482 8.32561C30.4651 8.00533 29.8117 8.13811 29.4919 8.62091L28.9114 9.49698L30.6633 10.658L31.2435 9.78218C31.5635 9.29909 31.4313 8.64561 30.9482 8.32561ZM25.7698 14.2372L25.8316 14.2782L27.5217 15.3982L21.8114 24.0143L20.0595 22.8533L25.7698 14.2372ZM21.3917 24.4098L19.8591 23.394L19.3347 25.8495L21.3917 24.4098Z" fill="black"/>
</svg>
