<svg width="50" height="32" viewBox="0 0 50 32" fill="none" xmlns="http://www.w3.org/2000/svg">
<path d="M16.5812 26.1696C14.0052 25.7048 13.5972 25.44 13.5564 25.4084C13.4824 25.3116 13.496 25.042 13.5612 24.9524C13.6416 24.842 13.7596 24.7588 13.9084 24.6528C13.9796 24.6024 14.0528 24.5504 14.1284 24.492C15.3444 23.5408 16.5876 22.382 16.5876 20.9948C16.5876 20.9924 16.5876 20.9896 16.5876 20.9868C17.6116 20.9144 18.424 19.974 18.424 18.8284C18.424 17.8352 17.8232 17.0024 16.9908 16.7492C17 16.7092 17.01 16.6684 17.02 16.6256C17.2396 15.7076 17.5896 14.2292 17.256 12.8096L18.248 11.8568H21.598C23.1492 11.8568 24.4108 10.5952 24.4108 9.044V4.4704C24.4108 2.9192 23.1492 1.6576 21.598 1.6576H13.7948C12.2436 1.6576 10.982 2.9192 10.982 4.4704V8.9832C10.67 8.986 10.3512 9.004 10.0264 9.0476C8.35283 9.2712 7.25643 9.552 5.90843 10.4652C5.56563 10.6972 3.84363 11.9464 3.60883 13.7532C3.49443 14.63 3.58003 15.6896 3.86403 16.9064C3.21523 17.2692 2.78683 18.0108 2.78683 18.8288C2.78683 19.9792 3.60643 20.9228 4.63603 20.9884C4.77203 22.5168 5.88683 23.494 6.93643 24.2952C7.08643 24.4092 7.24963 24.5244 7.42083 24.638C7.66563 24.8012 7.88963 25.094 7.80643 25.4224C7.71363 25.4976 7.21243 25.7996 4.84683 26.208C2.99203 26.5268 1.64563 28.1224 1.64563 30V31.5424C1.64563 31.6488 1.68763 31.7504 1.76283 31.8252C1.83803 31.9 1.93923 31.9424 2.04563 31.9424L19.354 31.9416C19.5752 31.9416 19.754 31.7628 19.754 31.5416V29.9576C19.7544 28.0944 18.42 26.5016 16.5812 26.1696Z" fill="white"/>
<path d="M46.5536 26.2076C44.2004 25.8012 43.6924 25.5004 43.5952 25.4232C43.5164 25.086 43.7484 24.792 43.98 24.6376C44.1504 24.524 44.3132 24.4092 44.4644 24.2944C45.5132 23.4936 46.628 22.5164 46.764 20.988C47.7936 20.9224 48.6132 19.9788 48.6132 18.8284C48.6132 18.0104 48.1848 17.2692 47.536 16.906C47.82 15.6896 47.906 14.6304 47.7916 13.7532C47.556 11.946 45.8344 10.6968 45.492 10.4648C44.144 9.5512 43.0476 9.2708 41.3736 9.0472C41.0488 9.0036 40.73 8.9856 40.418 8.9828V4.4704C40.418 2.9192 39.1564 1.6576 37.6052 1.6576H29.8016C28.2504 1.6576 26.9888 2.9192 26.9888 4.4704V9.044C26.9888 10.5952 28.2504 11.8568 29.8016 11.8568H33.1516L34.1436 12.8096C33.81 14.2292 34.16 15.7076 34.3796 16.6256C34.3896 16.668 34.3996 16.7092 34.4088 16.7492C33.5764 17.0024 32.9756 17.8352 32.9756 18.8284C32.9756 19.974 33.788 20.9148 34.812 20.9868V20.9948C34.812 22.382 36.0552 23.5408 37.272 24.4924C37.3468 24.5508 37.42 24.6028 37.4912 24.6532C37.6404 24.7588 37.758 24.842 37.838 24.952C37.9036 25.042 37.9168 25.3112 37.858 25.3916C37.8024 25.44 37.3948 25.7048 34.8184 26.1696C32.9796 26.5016 31.6452 28.0944 31.6452 29.958V31.542C31.6452 31.7632 31.824 31.942 32.0452 31.942L49.3536 31.9428C49.46 31.9428 49.5616 31.9008 49.6364 31.8256C49.7112 31.7504 49.7536 31.6492 49.7536 31.5428V30C49.7544 28.1224 48.4084 26.5268 46.5536 26.2076Z" fill="white"/>
<path d="M30.7648 14.9224H25.234V14.3272C25.234 14.0248 25.0668 13.752 24.7976 13.6144C24.5276 13.4776 24.2088 13.5016 23.9644 13.6796L20.4624 16.2196C20.2552 16.37 20.1316 16.612 20.132 16.868C20.1324 17.124 20.2564 17.3656 20.4632 17.5152L23.9688 20.0492C24.1088 20.15 24.2724 20.2016 24.4372 20.2016C24.5616 20.2016 24.6864 20.1724 24.802 20.1128C25.0712 19.9752 25.238 19.702 25.2376 19.4L25.2372 18.8056H30.7648C31.1976 18.8056 31.55 18.4532 31.55 18.0204V15.708C31.55 15.2748 31.1976 14.9224 30.7648 14.9224Z" fill="white"/>
<path d="M30.9376 24.2192L27.4356 21.6792C27.1912 21.5016 26.8724 21.4772 26.6024 21.614C26.3332 21.7516 26.166 22.0244 26.166 22.3268V22.922H20.6352C20.2024 22.922 19.85 23.2744 19.85 23.7072V26.0196C19.85 26.4524 20.2024 26.8048 20.6352 26.8048H26.1632L26.1624 27.3992C26.162 27.7012 26.3288 27.9744 26.598 28.112C26.7136 28.1712 26.8388 28.2008 26.9628 28.2008C27.1276 28.2008 27.2912 28.1492 27.4312 28.0484L30.9364 25.5144C31.1444 25.3648 31.268 25.1228 31.268 24.8668C31.2684 24.6112 31.1444 24.3692 30.9376 24.2192Z" fill="white"/>
<path d="M19.9984 0.457199H12.1948C10.8624 0.457199 9.78198 1.5376 9.78198 2.87V7.4436C9.78198 8.776 10.8624 9.8564 12.1948 9.8564H13.7784V12.458L16.4876 9.8564H19.9984C21.3312 9.8564 22.4112 8.776 22.4112 7.4436V2.87C22.4112 1.5376 21.3312 0.457199 19.9984 0.457199V0.457199Z" fill="#FBA800"/>
<circle cx="12.8969" cy="5.0788" r="1" fill="white"/>
<circle cx="16.0968" cy="5.0788" r="1" fill="white"/>
<circle cx="19.2968" cy="5.0788" r="1" fill="white"/>
<path d="M33.6692 10.9812C34.1788 10.3608 34.794 9.9936 35.474 9.948C35.74 9.9304 35.9852 9.8216 36.1952 9.6568C36.9632 9.0552 38.3688 8.8628 39.7204 9.0432C41.4376 9.2728 42.4328 9.5592 43.6672 10.3956C44.3732 10.874 45.6132 12.0108 45.7948 13.4044C45.8028 13.466 45.8052 13.5288 45.8112 13.5912C45.85 13.1288 45.8536 12.6564 45.7948 12.2044C45.6136 10.8112 44.3736 9.674 43.6672 9.1956C42.4324 8.3588 41.4376 8.0724 39.7204 7.8432C38.3692 7.6624 36.9636 7.8548 36.1952 8.4568C35.9852 8.6212 35.74 8.73 35.474 8.748C34.794 8.7936 34.1788 9.1608 33.6692 9.7812C32.8536 10.7744 32.7376 12.0072 32.8368 13.0988C32.9116 12.3616 33.1436 11.6216 33.6692 10.9812Z" fill="white"/>
<path d="M28.2016 0.457199H36.0052C37.3376 0.457199 38.418 1.5376 38.418 2.87V7.4436C38.418 8.776 37.3376 9.8564 36.0052 9.8564H34.4216V12.458L31.7124 9.8564H28.2016C26.8692 9.8564 25.7888 8.776 25.7888 7.4436V2.87C25.7888 1.5376 26.8692 0.457199 28.2016 0.457199V0.457199Z" fill="#E8EDFC"/>
<circle cx="35.3036" cy="5.0788" r="1" fill="black"/>
<circle cx="32.1036" cy="5.0788" r="1" fill="black"/>
<circle cx="28.9036" cy="5.0788" r="1" fill="black"/>
<path fill-rule="evenodd" clip-rule="evenodd" d="M11.9569 23.8088C11.9977 23.84 12.4057 24.1052 14.9813 24.5696C16.8201 24.9016 18.1545 26.4944 18.1549 28.3584V29.9424C18.1549 30.1636 17.9761 30.3424 17.7549 30.3424L12.2777 30.3428C12.0569 30.3428 11.8777 30.164 11.8777 29.9428C11.8777 29.722 12.0565 29.5428 12.2777 29.5428L17.3549 29.5424V28.3584C17.3549 26.8824 16.2973 25.6204 14.8397 25.3576C11.7009 24.7912 11.4545 24.4688 11.3221 24.2952C11.0393 23.9252 11.0365 23.2648 11.3161 22.8816C11.4728 22.666 11.6628 22.5313 11.8459 22.4013L11.8461 22.4012L11.8583 22.3925C11.9164 22.3513 11.9759 22.3091 12.0365 22.262C13.1005 21.43 14.1885 20.4384 14.1885 19.3952C14.1885 19.2944 14.1861 19.148 14.1817 18.97C14.1789 18.8484 14.2313 18.732 14.3245 18.654C14.4177 18.576 14.5409 18.5452 14.6605 18.5684C14.7409 18.5848 14.8045 18.5924 14.8609 18.5924C15.5025 18.5924 16.0245 17.9808 16.0245 17.2292C16.0245 16.4912 15.5293 15.8952 14.8973 15.8716C14.7821 15.8672 14.6741 15.8136 14.6013 15.7236C14.5285 15.634 14.4981 15.5168 14.5181 15.4032C14.5441 15.2552 14.5893 15.0648 14.6429 14.8404C14.8177 14.11 15.0841 12.9852 14.9573 11.8824L14.0561 12.7476C13.9805 12.82 13.8805 12.8588 13.7793 12.8588C13.7261 12.8588 13.6729 12.8484 13.6225 12.8268C13.4749 12.764 13.3793 12.6188 13.3793 12.4588V10.2572H12.1957C10.9021 10.2572 9.81285 9.3788 9.48565 8.188C9.17565 8.186 8.85845 8.1972 8.53325 8.2408C6.95005 8.4524 5.98165 8.6988 4.75765 9.528C3.94805 10.0764 2.95045 11.12 2.80245 12.2568C2.69125 13.1108 2.79805 14.1812 3.12045 15.4384C3.17325 15.644 3.05565 15.8556 2.85285 15.9192C2.34325 16.0792 1.98725 16.6176 1.98725 17.2284C1.98725 17.98 2.50925 18.5916 3.15085 18.5916C3.21765 18.5916 3.28205 18.5808 3.34525 18.5684C3.46285 18.5432 3.58445 18.576 3.67685 18.6516C3.76925 18.7272 3.82285 18.8408 3.82285 18.9604L3.82245 19.0728C3.82245 20.294 4.55525 21.092 5.82125 22.058C5.95805 22.1624 6.10725 22.2672 6.26405 22.3716C6.88685 22.786 7.15805 23.4688 6.95485 24.1104C6.82925 24.4624 6.44405 24.8672 3.38285 25.3956C1.91285 25.6492 0.845654 26.9124 0.845654 28.4V29.5424H5.22685C5.44805 29.5424 5.62685 29.7212 5.62685 29.9424C5.62685 30.1636 5.44805 30.3424 5.22685 30.3424H0.445654C0.224454 30.3424 0.0456543 30.1636 0.0456543 29.9424V28.4C0.0456543 26.5224 1.39205 24.9268 3.24725 24.6076C5.61205 24.1992 6.11325 23.8972 6.20645 23.822C6.28925 23.4928 6.05485 23.1936 5.82085 23.0376C5.64965 22.924 5.48645 22.8088 5.33645 22.6948C4.28685 21.894 3.17205 20.9172 3.03605 19.388C2.00645 19.3224 1.18685 18.3788 1.18685 17.2284C1.18685 16.4108 1.61525 15.6688 2.26405 15.306C1.98005 14.0892 1.89445 13.0296 2.00885 12.1532C2.24365 10.3476 3.96565 9.0976 4.30845 8.8652C5.65645 7.952 6.75285 7.6712 8.42645 7.4476C8.75245 7.4036 9.06965 7.3904 9.38205 7.3892V2.8704C9.38205 1.3192 10.6437 0.0576 12.1949 0.0576H19.9985C21.5497 0.0576 22.8113 1.3192 22.8113 2.8704V7.444C22.8113 8.9952 21.5497 10.2568 19.9985 10.2568H16.6485L15.6493 11.2164C15.9813 12.634 15.6393 14.1088 15.4201 15.0256C15.4153 15.046 15.4105 15.066 15.4059 15.0856C15.4007 15.1072 15.3957 15.1284 15.3909 15.1492C16.2233 15.4024 16.8241 16.2352 16.8241 17.2284C16.8241 18.374 16.0117 19.3144 14.9877 19.3868V19.3948C14.9877 20.782 13.7445 21.9408 12.5285 22.892C12.4529 22.9504 12.3797 23.0028 12.3085 23.0532L12.3063 23.0547C12.1585 23.1596 12.0417 23.2425 11.9621 23.3524C11.8961 23.4428 11.8825 23.712 11.9569 23.8088ZM12.1949 9.4568H13.7785C13.9997 9.4568 14.1785 9.6356 14.1789 9.8568V11.5196L16.2109 9.568C16.2849 9.4968 16.3845 9.4568 16.4877 9.4568H19.9985C21.1081 9.4568 22.0113 8.5536 22.0113 7.444V2.8704C22.0113 1.7608 21.1081 0.8576 19.9985 0.8576H12.1949C11.0853 0.8576 10.1821 1.7608 10.1821 2.8704V7.444C10.1821 8.5536 11.0853 9.4568 12.1949 9.4568Z" fill="black"/>
<path d="M10.4768 29.542H7.07676C6.85556 29.542 6.67676 29.7208 6.67676 29.942C6.67676 30.1632 6.85556 30.342 7.07676 30.342H10.4768C10.698 30.342 10.8768 30.1632 10.8768 29.942C10.8768 29.7208 10.698 29.542 10.4768 29.542Z" fill="#3A2C60"/>
<path fill-rule="evenodd" clip-rule="evenodd" d="M44.9536 24.6072C42.6004 24.2008 42.0924 23.9 41.9952 23.8224C41.9164 23.4856 42.1484 23.1916 42.38 23.0372C42.5504 22.9236 42.7132 22.8088 42.8644 22.694C43.9136 21.8936 45.028 20.9172 45.164 19.3876C46.1936 19.322 47.0132 18.3784 47.0132 17.228C47.0132 16.41 46.5848 15.6688 45.936 15.3056C46.22 14.0892 46.306 13.03 46.1916 12.1528C45.9568 10.3472 44.2344 9.0968 43.892 8.8644C42.544 7.9508 41.4476 7.6704 39.7736 7.4468C39.448 7.4032 39.1304 7.3896 38.818 7.3884V2.8704C38.818 1.3192 37.5564 0.0576 36.0052 0.0576H28.2016C26.6504 0.0576 25.3888 1.3192 25.3888 2.8704V7.444C25.3888 8.9952 26.6504 10.2568 28.2016 10.2568H31.5516L32.5508 11.216C32.2188 12.634 32.5604 14.1084 32.78 15.0252L32.791 15.0717L32.8092 15.1488C31.9768 15.402 31.3764 16.2348 31.3764 17.228C31.3764 18.3736 32.1888 19.3144 33.2124 19.3864V19.3944C33.2124 20.7816 34.4556 21.9404 35.6724 22.892C35.7411 22.9456 35.8084 22.9935 35.8737 23.04L35.8912 23.0524C36.0404 23.158 36.158 23.2416 36.2388 23.352C36.304 23.442 36.3172 23.7112 36.2584 23.7912C36.2028 23.8396 35.7952 24.1048 33.2188 24.5692C31.38 24.9012 30.0456 26.494 30.0456 28.3576V29.9416C30.0456 30.1628 30.2244 30.3416 30.4456 30.3416L47.754 30.3424C47.8604 30.3424 47.962 30.3004 48.0368 30.2252C48.1116 30.15 48.154 30.0488 48.154 29.9424V28.4C48.1544 26.5224 46.808 24.9268 44.9536 24.6072ZM31.7124 9.4568H28.2016C27.092 9.4568 26.1888 8.5536 26.1888 7.444V2.8704C26.1888 1.7608 27.092 0.8576 28.2016 0.8576H36.0052C37.1148 0.8576 38.018 1.7608 38.018 2.8704V7.444C38.018 8.5536 37.1148 9.4568 36.0052 9.4568H34.422C34.2008 9.4568 34.022 9.6356 34.022 9.8568V11.5196L31.9896 9.568C31.9152 9.4964 31.8156 9.4568 31.7124 9.4568ZM30.846 29.5416L47.3544 29.5424H47.3552V28.3992C47.3552 26.9116 46.2884 25.6484 44.8184 25.3948C41.7576 24.866 41.372 24.4616 41.2508 24.1236C41.0432 23.4676 41.3144 22.7852 41.9376 22.3708C42.0932 22.2664 42.2428 22.1612 42.3808 22.0564C43.6456 21.0912 44.3784 20.2932 44.3784 19.072L44.378 18.9596C44.378 18.8404 44.4316 18.7264 44.524 18.6508C44.6164 18.5752 44.7384 18.5428 44.8556 18.5676C44.9188 18.5804 44.9832 18.5908 45.05 18.5908C45.6916 18.5908 46.2136 17.9792 46.2136 17.2276C46.2136 16.6168 45.8576 16.0784 45.348 15.9184C45.1452 15.8548 45.0276 15.6436 45.0804 15.4376C45.4028 14.1808 45.5096 13.1104 45.3988 12.256C45.2508 11.1192 44.2524 10.0756 43.4432 9.5272C42.22 8.698 41.2512 8.4512 39.668 8.24C39.342 8.1964 39.0252 8.1852 38.7152 8.1876C38.3876 9.378 37.2984 10.2564 36.0052 10.2564H34.822V12.458C34.822 12.618 34.7264 12.7632 34.5788 12.826C34.5284 12.8476 34.4752 12.858 34.422 12.858C34.3208 12.858 34.2208 12.8196 34.1452 12.7468L33.2436 11.8812C33.1168 12.9844 33.3832 14.1092 33.558 14.8396C33.6116 15.0636 33.6572 15.2544 33.6828 15.4024C33.7028 15.516 33.6724 15.6332 33.5996 15.7228C33.5272 15.8124 33.4188 15.8664 33.3036 15.8708C32.6716 15.8944 32.1768 16.4904 32.1768 17.2284C32.1768 17.98 32.6984 18.5916 33.34 18.5916C33.3964 18.5916 33.46 18.584 33.5404 18.5676C33.66 18.5448 33.7836 18.5752 33.8764 18.6532C33.9692 18.7312 34.022 18.8476 34.0192 18.9692C34.0148 19.1472 34.0124 19.2932 34.0124 19.3944C34.0124 20.4376 35.1004 21.4292 36.1648 22.2612C36.2292 22.3112 36.2928 22.3564 36.3544 22.4C36.538 22.53 36.728 22.6648 36.8856 22.8812C37.1644 23.264 37.1616 23.9244 36.8792 24.294C36.7464 24.4676 36.4992 24.7908 33.3612 25.3568C31.904 25.6196 30.846 26.882 30.846 28.3576V29.5416Z" fill="black"/>
<path fill-rule="evenodd" clip-rule="evenodd" d="M23.634 13.3224H29.1648C29.5976 13.3224 29.95 13.6744 29.95 14.108V16.4204C29.95 16.8532 29.5976 17.2056 29.1648 17.2056H23.6372L23.6376 17.8C23.638 18.102 23.4712 18.3752 23.202 18.5128C23.0864 18.5724 22.9616 18.6016 22.8372 18.6016C22.6724 18.6016 22.5088 18.55 22.3688 18.4492L18.8632 15.9156C18.656 15.7656 18.532 15.5236 18.532 15.2676C18.532 15.0116 18.6552 14.7696 18.8624 14.6196L22.3644 12.0796C22.6088 11.902 22.9276 11.8776 23.1976 12.0144C23.4668 12.152 23.634 12.4248 23.634 12.7272V13.3224ZM22.954 16.5224C23.0288 16.4472 23.1304 16.4052 23.2368 16.4052V16.4048H29.1648L29.15 14.1072L23.234 14.122C23.0128 14.122 22.834 13.9432 22.834 13.722V12.7268L19.332 15.2668L19.3312 15.2676L22.8376 17.8004L22.8368 16.8056C22.8368 16.6992 22.8792 16.5976 22.954 16.5224Z" fill="black"/>
<path fill-rule="evenodd" clip-rule="evenodd" d="M25.8356 20.0792L29.3376 22.6192C29.5444 22.7692 29.668 23.0112 29.668 23.2664C29.668 23.5224 29.5444 23.7644 29.3368 23.9144L25.8312 26.4484C25.6912 26.5492 25.5276 26.6008 25.3628 26.6008C25.2388 26.6008 25.1136 26.5712 24.998 26.512C24.7288 26.3744 24.562 26.1012 24.5624 25.7992L24.5632 25.2048H19.0352C18.6024 25.2048 18.25 24.8524 18.25 24.4196V22.1072C18.25 21.6744 18.6024 21.322 19.0352 21.322H24.566V20.7268C24.566 20.4244 24.7332 20.1516 25.0024 20.014C25.2724 19.8772 25.5912 19.902 25.8356 20.0792ZM25.3636 24.8056L25.3624 25.8004L28.868 23.2672L25.366 20.7272V21.7224C25.366 21.9436 25.1872 22.1224 24.966 22.1224H19.0352L19.05 24.42L24.9636 24.4052C25.07 24.4052 25.1716 24.4472 25.2468 24.5224C25.322 24.5976 25.3636 24.6992 25.3636 24.8056Z" fill="black"/>
</svg>
