<svg width="32" height="32" viewBox="0 0 32 32" fill="none" xmlns="http://www.w3.org/2000/svg">
<path d="M28.9112 12.4737H27.2343H18.8307C19.0293 11.733 19.1368 10.9555 19.1368 10.1532C19.1368 5.20735 15.1129 1.18342 10.167 1.18342C5.22116 1.18342 1.19666 5.20735 1.19666 10.1532C1.19666 13.1532 2.67702 15.9242 5.16494 17.5974V21.8649C5.16494 21.9774 5.23038 22.0794 5.33244 22.1267C5.37107 22.1446 5.41201 22.1532 5.45323 22.1532C5.5204 22.1532 5.587 22.1296 5.64004 22.0843L9.17907 19.0668C9.51579 19.1043 9.84732 19.123 10.1665 19.123C11.9446 19.123 13.602 18.6009 14.9976 17.7049V25.8194C14.9976 27.0218 15.976 28 17.1782 28H20.706L24.883 31.8925C24.9372 31.9432 25.0081 31.97 25.0796 31.97C25.1185 31.97 25.1577 31.9622 25.1943 31.9461C25.2996 31.9003 25.3679 31.7965 25.3679 31.6817V28H28.911C30.1134 28 31.0913 27.0215 31.0913 25.8194V14.6543C31.0916 13.4518 30.1137 12.4737 28.9112 12.4737Z" fill="white"/>
<path d="M14.1331 13.5011C14.1331 12.4561 14.9804 11.6088 16.0254 11.6088H17.2956C17.5548 10.7854 17.6949 9.90904 17.6949 9.00007C17.6949 4.20526 13.8079 0.318558 9.0131 0.318558C4.21829 0.318558 0.331299 4.20555 0.331299 9.00007C0.331299 12.0568 1.91227 14.7425 4.29988 16.2892V20.7115L7.93461 17.6124C8.28834 17.6562 8.64755 17.6816 9.0131 17.6816C10.9279 17.6816 12.6971 17.0603 14.1325 16.0101V13.5011H14.1331Z" fill="#E8EDFC"/>
<path d="M9.0133 1.18313C13.6631 1.18313 17.4587 4.83863 17.6841 9.43222C17.6911 9.28894 17.6951 9.14479 17.6951 8.99978C17.6951 4.20497 13.8081 0.31827 9.0133 0.31827C4.21849 0.31827 0.331787 4.20526 0.331787 9.00007C0.331787 9.13384 0.338706 9.26587 0.34476 9.39791C0.587211 4.82047 4.37532 1.18313 9.0133 1.18313Z" fill="white"/>
<path d="M27.7581 11.6088H16.0254C14.9803 11.6088 14.1331 12.4561 14.1331 13.5011V24.6659C14.1331 25.711 14.9803 26.5583 16.0254 26.5583H19.6668L23.9268 30.5283V26.5583H27.7578C28.8029 26.5583 29.6502 25.711 29.6502 24.6659V13.5011C29.6505 12.4561 28.8032 11.6088 27.7581 11.6088Z" fill="#FBA800"/>
<path fill-rule="evenodd" clip-rule="evenodd" d="M26.0812 11.3205H27.7579C28.9603 11.3205 29.9388 12.2987 29.9385 13.5011V24.6662C29.9385 25.8684 28.9603 26.8468 27.7579 26.8468H24.2151V30.5286C24.2151 30.6433 24.1468 30.7471 24.0416 30.7929C24.0049 30.8091 23.9657 30.8169 23.9268 30.8169C23.8553 30.8169 23.7844 30.7901 23.7302 30.7393L19.5532 26.8466H16.0254C14.8233 26.8466 13.8448 25.8684 13.8448 24.6659V16.5449C12.4486 17.4423 10.7933 17.9699 9.01367 17.9699C8.69453 17.9699 8.363 17.9511 8.02628 17.9137L4.48725 20.9312C4.43421 20.9764 4.36762 21.0001 4.30044 21.0001C4.25922 21.0001 4.21828 20.9914 4.17965 20.9735C4.0776 20.9263 4.01216 20.8242 4.01216 20.7118V16.4443C1.52423 14.7707 0.0435791 11.9997 0.0435791 9.00007C0.0435791 4.0542 4.06751 0.0302696 9.01367 0.0302696C13.9595 0.0302696 17.9835 4.0542 17.9835 9.00007C17.9835 9.80324 17.871 10.5793 17.6718 11.3205H21.1803C21.3397 11.3205 21.4686 11.4497 21.4686 11.6088C21.4686 11.7679 21.3397 11.8971 21.1803 11.8971H16.0254C15.1409 11.8971 14.4214 12.6166 14.4214 13.5011V24.6662C14.4214 25.5507 15.1409 26.2703 16.0254 26.2703H19.6668C19.7397 26.2703 19.8101 26.2979 19.8634 26.3478L23.6385 29.8661V26.5586C23.6385 26.3991 23.7674 26.2703 23.9268 26.2703H27.7579C28.6424 26.2703 29.3619 25.5507 29.3619 24.6662V13.5011C29.3619 12.6166 28.6424 11.8971 27.7579 11.8971H26.0812C25.9218 11.8971 25.7929 11.7679 25.7929 11.6088C25.7929 11.4497 25.9218 11.3205 26.0812 11.3205ZM7.97064 17.3267C8.33244 17.3714 8.67349 17.3933 9.01367 17.3933C10.8132 17.3933 12.4769 16.8173 13.8448 15.8495V13.5011C13.8448 12.299 14.823 11.3205 16.0254 11.3205H17.0722C17.2852 10.5825 17.4069 9.80584 17.4069 9.00007C17.4069 4.37218 13.6418 0.606846 9.01367 0.606846C4.38549 0.606846 0.620156 4.37189 0.620156 9.00007C0.620156 11.8559 2.05468 14.4905 4.45727 16.0473C4.53915 16.1003 4.58873 16.1914 4.58873 16.2892V20.0871L7.74837 17.3933C7.80949 17.3408 7.89079 17.3166 7.97064 17.3267Z" fill="#3A2C60"/>
<path d="M22.4055 11.8971H24.892C25.0514 11.8971 25.1803 11.7679 25.1803 11.6088C25.1803 11.4497 25.0514 11.3205 24.892 11.3205H22.4055C22.2461 11.3205 22.1172 11.4497 22.1172 11.6088C22.1172 11.7679 22.2461 11.8971 22.4055 11.8971Z" fill="#3A2C60"/>
<path fill-rule="evenodd" clip-rule="evenodd" d="M12.7106 12.2004C12.424 12.0458 12.1602 11.887 11.9186 11.7232C12.6215 10.9648 12.9726 9.93672 12.9723 8.63885C12.9723 7.78349 12.8164 7.03913 12.5039 6.4049C12.1914 5.77095 11.7312 5.28202 11.1232 4.9378C10.5152 4.59387 9.78732 4.42176 8.93946 4.42176C8.31474 4.42176 7.7569 4.51949 7.26595 4.71467C6.77528 4.90984 6.3587 5.19149 6.01651 5.55964C5.67431 5.92778 5.41341 6.37405 5.23294 6.89816C5.05247 7.42256 4.96252 7.99885 4.96252 8.62731C4.96252 9.24454 5.04872 9.81535 5.2217 10.3397C5.39467 10.8639 5.65211 11.3168 5.99431 11.6979C6.33622 12.0793 6.75943 12.371 7.26335 12.5737C7.76728 12.7764 8.33723 12.8778 8.97319 12.8778C9.75762 12.8778 10.4198 12.74 10.9589 12.465C11.2489 12.6734 11.5159 12.8556 11.7595 13.0116C12.0028 13.1679 12.2147 13.2869 12.3952 13.3688C12.5756 13.4507 12.729 13.4916 12.8556 13.4916C13.0115 13.4916 13.1447 13.4322 13.2543 13.3132C13.3638 13.1941 13.4189 13.0753 13.4189 12.9563C13.4189 12.7888 13.3728 12.6596 13.2796 12.5685C13.1865 12.4774 12.9968 12.3546 12.7106 12.2004ZM11.1293 9.88252C11.0197 10.2435 10.8497 10.5557 10.619 10.8197C9.82307 10.2544 9.256 9.97189 8.91784 9.97189C8.80627 9.97189 8.70393 10.0146 8.6111 10.1002C8.51827 10.1855 8.47157 10.2841 8.47157 10.3957C8.47157 10.526 8.51971 10.6263 8.61658 10.6969C8.71316 10.7676 8.89276 10.8682 9.15481 10.9982C9.41687 11.1282 9.6351 11.2585 9.81009 11.3885C9.52007 11.5039 9.23726 11.5615 8.96224 11.5615C8.29312 11.5615 7.73903 11.3078 7.30025 10.8001C6.86119 10.2925 6.64209 9.56858 6.64209 8.6276C6.64209 8.16663 6.70061 7.75121 6.81766 7.38104C6.9347 7.01088 7.09442 6.70703 7.29737 6.4689C7.50004 6.23106 7.74162 6.04973 8.02242 5.92519C8.30292 5.80065 8.60879 5.73838 8.94004 5.73838C9.40476 5.73838 9.81672 5.85081 10.1756 6.07567C10.5346 6.30083 10.8107 6.63265 11.0039 7.07142C11.197 7.5102 11.2939 8.02883 11.2939 8.6276C11.2939 9.10357 11.2388 9.52187 11.1293 9.88252Z" fill="white"/>
<path fill-rule="evenodd" clip-rule="evenodd" d="M23.5174 21.2313L23.908 22.2576C23.9599 22.3839 24.0225 22.5297 24.0943 22.6952C24.1666 22.8607 24.2344 22.9835 24.2978 23.0633C24.3612 23.1432 24.4391 23.2063 24.5322 23.2528C24.6253 23.2995 24.7366 23.3225 24.8669 23.3225C25.09 23.3225 25.2806 23.2435 25.4386 23.0855C25.5965 22.9276 25.6755 22.7537 25.6755 22.5643C25.6755 22.3821 25.5916 22.0901 25.4244 21.6885L23.2882 16.4117C23.1876 16.1476 23.1052 15.9366 23.04 15.7786C22.9748 15.6206 22.895 15.4727 22.8001 15.3352C22.7053 15.1977 22.5808 15.0853 22.4265 14.9979C22.2723 14.9106 22.0797 14.8667 21.8491 14.8667C21.6225 14.8667 21.4319 14.9106 21.2774 14.9979C21.1232 15.0855 20.9989 15.1997 20.9038 15.341C20.8092 15.4825 20.7199 15.6601 20.6363 15.8737C20.6046 15.9547 20.5746 16.0313 20.5463 16.1034C20.4999 16.2217 20.4582 16.3282 20.4215 16.4229L18.3297 21.7332C18.2443 21.9451 18.1826 22.1106 18.1457 22.2296C18.1085 22.3487 18.0901 22.464 18.0901 22.5756C18.0901 22.769 18.1699 22.942 18.3297 23.0945C18.4897 23.247 18.6736 23.3231 18.882 23.3231C19.1273 23.3231 19.3041 23.2513 19.4119 23.1083C19.5197 22.9653 19.6497 22.6892 19.8022 22.2801L20.1929 21.2313H23.5174ZM23.0711 19.9873H20.6282L21.8384 16.6126L23.0711 19.9873Z" fill="white"/>
</svg>
