<svg width="32" height="25" viewBox="0 0 32 25" fill="none" xmlns="http://www.w3.org/2000/svg">
<path d="M14.125 9.19189V15.1831L18.9187 12.1875L14.125 9.19189Z" fill="black"/>
<path fill-rule="evenodd" clip-rule="evenodd" d="M27.3125 24.375H4.6875C2.10294 24.375 0 22.2721 0 19.6875V4.6875C0 2.10294 2.10294 0 4.6875 0H27.3125C29.8971 0 32 2.10294 32 4.6875V19.6875C32 22.2721 29.8971 24.375 27.3125 24.375ZM12.7334 6.67969C12.4349 6.84538 12.25 7.15944 12.25 7.5V16.875C12.25 17.2156 12.4349 17.5296 12.7334 17.6953C12.8744 17.7731 13.0309 17.8125 13.1875 17.8125C13.3606 17.8125 13.5326 17.7649 13.6846 17.6697L21.1846 12.9822C21.4584 12.811 21.625 12.5107 21.625 12.1875C21.625 11.8643 21.4584 11.564 21.1846 11.3928L13.6846 6.70531C13.3953 6.52313 13.0282 6.51487 12.7334 6.67969Z" fill="#5DC2A7"/>
</svg>
