<svg width="45" height="32" viewBox="0 0 45 32" fill="none" xmlns="http://www.w3.org/2000/svg">
<path d="M42.7389 1.51665H3.02805C2.19419 1.51665 1.51624 2.19498 1.51624 3.02884V29.4396C1.51624 30.2735 2.19456 30.9518 3.02805 30.9518H9.30117V31.6C9.30117 31.8054 9.46786 31.9721 9.67326 31.9721H36.0934C36.2991 31.9721 36.4654 31.8054 36.4654 31.6V30.9518H42.7386C43.5724 30.9518 44.2507 30.2735 44.2507 29.4396V3.02884C44.2515 2.19498 43.5728 1.51665 42.7389 1.51665Z" fill="white"/>
<path d="M8.1853 27.0422H34.6054V30.1113H8.1853L8.1853 27.0422Z" fill="#E8EDFC"/>
<path fill-rule="evenodd" clip-rule="evenodd" d="M10.6281 20.2854C10.6281 21.9572 11.9884 23.3176 13.6602 23.3176C15.3324 23.3176 16.6924 21.9572 16.6924 20.2854C16.6924 18.6136 15.3324 17.2532 13.6602 17.2532C11.9884 17.2532 10.6281 18.6136 10.6281 20.2854ZM11.3722 20.2854C11.3722 19.0236 12.3985 17.9974 13.6602 17.9974C14.922 17.9974 15.9482 19.0236 15.9482 20.2854C15.9482 21.5472 14.922 22.5734 13.6602 22.5734C12.3985 22.5734 11.3722 21.5472 11.3722 20.2854Z" fill="black"/>
<path fill-rule="evenodd" clip-rule="evenodd" d="M25.1765 8.97935C25.1765 10.6512 26.5369 12.0115 28.2087 12.0115C29.8805 12.0115 31.2405 10.6512 31.2405 8.97935C31.2405 7.30753 29.8805 5.94716 28.2087 5.94716C26.5369 5.94716 25.1765 7.30753 25.1765 8.97935ZM25.9207 8.97935C25.9207 7.71758 26.9469 6.69135 28.2087 6.69135C29.4701 6.69135 30.4963 7.71758 30.4963 8.97935C30.4963 10.2411 29.4701 11.2673 28.2087 11.2673C26.9473 11.2673 25.9207 10.2411 25.9207 8.97935Z" fill="black"/>
<path d="M15.258 11.8381C15.1627 11.8381 15.0675 11.8017 14.9949 11.7291L10.7374 7.47163C10.5919 7.32614 10.5919 7.09098 10.7374 6.94549C10.8829 6.8 11.1181 6.8 11.2636 6.94549L15.5214 11.2033C15.6669 11.3488 15.6669 11.584 15.5214 11.7295C15.4485 11.802 15.3532 11.8381 15.258 11.8381Z" fill="black"/>
<path d="M11.0005 11.8381C10.9052 11.8381 10.81 11.8017 10.7374 11.7291C10.5919 11.5836 10.5919 11.3485 10.7374 11.203L14.9953 6.94512C15.1408 6.79963 15.3759 6.79963 15.5214 6.94512C15.6669 7.09061 15.6669 7.32577 15.5214 7.47126L11.2636 11.7291C11.1906 11.802 11.0954 11.8381 11.0005 11.8381Z" fill="black"/>
<path d="M31.4084 23.9911C31.3131 23.9911 31.2178 23.9546 31.1453 23.882L26.8878 19.6242C26.7423 19.4787 26.7423 19.2435 26.8878 19.098C27.0333 18.9526 27.2685 18.9526 27.4139 19.098L31.6714 23.3555C31.8169 23.501 31.8169 23.7362 31.6714 23.8817C31.5989 23.9546 31.5036 23.9911 31.4084 23.9911Z" fill="#FBA800"/>
<path d="M27.1509 23.9911C27.0556 23.9911 26.9604 23.9546 26.8878 23.882C26.7423 23.7366 26.7423 23.5014 26.8878 23.3559L31.1453 19.0984C31.2908 18.9529 31.5259 18.9529 31.6714 19.0984C31.8169 19.2439 31.8169 19.4791 31.6714 19.6246L27.4139 23.882C27.3414 23.9546 27.2461 23.9911 27.1509 23.9911Z" fill="#FBA800"/>
<path d="M27.1509 17.9974C27.1066 17.9974 27.062 17.9896 27.0188 17.9732L24.9287 17.1792C24.7367 17.1062 24.6404 16.8912 24.7133 16.6992C24.7862 16.5072 25.0009 16.4119 25.1933 16.4833L26.5209 16.9879C23.44 9.2986 15.1959 9.35293 15.1152 9.35181C14.9101 9.34251 14.7401 9.19144 14.7367 8.98605C14.7334 8.78065 14.8971 8.61135 15.1025 8.60763C15.2004 8.60651 24.5068 8.55107 27.504 17.5073C27.5498 17.6439 27.5126 17.7942 27.4087 17.894C27.338 17.9613 27.2454 17.9974 27.1509 17.9974Z" fill="#FBA800"/>
<path d="M27.1508 17.9974C27.1084 17.9974 27.0649 17.99 27.0225 17.9743C26.8293 17.9036 26.7307 17.6897 26.8014 17.4969L27.8593 14.6173C27.93 14.4246 28.1447 14.3252 28.3367 14.3963C28.5298 14.467 28.6284 14.6809 28.5577 14.8737L27.4999 17.7533C27.4448 17.904 27.3023 17.9974 27.1508 17.9974Z" fill="#FBA800"/>
<path fill-rule="evenodd" clip-rule="evenodd" d="M41.2507 0.0282784H1.53977C0.705913 0.0282784 0.0275879 0.706604 0.0275879 1.54046V27.9513C0.0275879 28.7851 0.705913 29.4634 1.53977 29.4634H7.81289V30.1116C7.81289 30.317 7.97959 30.4837 8.18498 30.4837H19.2789C19.4843 30.4837 19.651 30.317 19.651 30.1116C19.651 29.9062 19.4843 29.7395 19.2789 29.7395H8.55745V27.4147H34.2334V29.7395H26.0365C25.8308 29.7395 25.6644 29.9062 25.6644 30.1116C25.6644 30.317 25.8308 30.4837 26.0365 30.4837H34.6054C34.8112 30.4837 34.9775 30.317 34.9775 30.1116V29.4634H41.2507C42.0845 29.4634 42.7628 28.7851 42.7628 27.9513V1.54046C42.7632 0.706604 42.0849 0.0282784 41.2507 0.0282784ZM8.18536 26.6701C7.97996 26.6701 7.81326 26.8368 7.81326 27.0422V27.0616L2.69475 27.0586V2.43312H40.0961V27.0809L34.9775 27.078V27.0426C34.9775 26.8372 34.8112 26.6705 34.6054 26.6705H8.18536V26.6701ZM41.251 28.7189C41.6745 28.7189 42.019 28.3743 42.019 27.9509H42.0187V1.54046C42.0187 1.11702 41.6745 0.772464 41.2507 0.772464H1.53977C1.11633 0.772464 0.771774 1.11702 0.771774 1.54046V27.9513C0.771774 28.3747 1.11633 28.7193 1.53977 28.7193H7.81326V27.8061L2.32266 27.8028C2.11689 27.8028 1.95056 27.6361 1.95056 27.4307V2.06102C1.95056 1.85563 2.11726 1.68893 2.32266 1.68893H40.4681C40.6739 1.68893 40.8402 1.85563 40.8402 2.06102V27.4303C40.8402 27.5289 40.8008 27.6353 40.7312 27.7049C40.6616 27.7745 40.5668 27.8251 40.4681 27.8251H40.4678L34.9775 27.8218V28.7189H41.251Z" fill="black"/>
<path d="M24.269 29.7392H21.0757C20.8703 29.7392 20.7036 29.9059 20.7036 30.1113C20.7036 30.3167 20.8703 30.4833 21.0757 30.4833H24.269C24.4748 30.4833 24.6411 30.3167 24.6411 30.1113C24.6411 29.9059 24.4744 29.7392 24.269 29.7392Z" fill="#3A2C60"/>
<path fill-rule="evenodd" clip-rule="evenodd" d="M37.2454 10.3602C37.446 10.6512 37.5211 11.0024 37.4575 11.3496C37.3935 11.6971 37.1985 11.9985 36.9072 12.1994L31.2428 16.1053C31.0199 16.259 30.761 16.3394 30.4953 16.3394C30.4153 16.3394 30.3345 16.3319 30.2538 16.317C29.9066 16.253 29.6049 16.0577 29.4043 15.7671C29.2037 15.4765 29.1286 15.1252 29.1922 14.7777C29.2562 14.4305 29.4519 14.1287 29.7425 13.9282L35.4069 10.0223C35.6975 9.82177 36.0495 9.74623 36.3963 9.81023C36.7435 9.87386 37.0452 10.0692 37.2454 10.3602ZM36.4849 11.5866C36.6121 11.4988 36.6973 11.3671 36.7252 11.2153C36.7531 11.0631 36.7204 10.9098 36.633 10.7829C36.5455 10.6556 36.4134 10.5704 36.262 10.5425C36.2266 10.5362 36.1916 10.5328 36.1563 10.5328C36.0402 10.5328 35.9271 10.5678 35.8292 10.6352L30.1649 14.541C30.0376 14.6285 29.9524 14.7606 29.9245 14.9124C29.8966 15.0642 29.9297 15.2179 30.0171 15.3447C30.1046 15.472 30.2367 15.5572 30.3885 15.5851C30.5396 15.6134 30.6932 15.5799 30.8205 15.4925L36.4849 11.5866Z" fill="black"/>
</svg>
