<svg width="26" height="32" viewBox="0 0 26 32" fill="none" xmlns="http://www.w3.org/2000/svg">
<path d="M22.6501 25.3023H18.3027C16.6128 25.3023 15.2382 26.6745 15.2333 28.3631H15.0424C13.9054 28.3631 12.9806 27.4384 12.9806 26.3014V23.894H17.5635C17.7068 23.894 17.8226 23.7779 17.8226 23.6349C17.8226 22.655 17.0253 21.8577 16.0454 21.8577H14.7843V19.7599H23.4346C24.1534 19.7599 24.7385 19.1751 24.7385 18.4561V6.35336C24.7385 5.63459 24.1534 5.04952 23.4346 5.04952H19.3503V4.47067C19.3503 4.40797 19.3275 4.3476 19.2866 4.30044L16.567 1.18283C16.5177 1.12635 16.4465 1.09396 16.3716 1.09396H7.26338C6.83481 1.09396 6.48605 1.44272 6.48605 1.87129V5.04952H2.40197C1.6832 5.04952 1.09839 5.63433 1.09839 6.35336V18.4564C1.09839 19.1751 1.6832 19.7602 2.40197 19.7602H11.0526V21.8579H9.79125C8.8113 21.8579 8.01402 22.6552 8.01402 23.6352C8.01402 23.7782 8.12984 23.8943 8.27313 23.8943H12.4627V26.3017C12.4627 27.7242 13.6201 28.8816 15.0426 28.8816H15.2336C15.2382 30.5702 16.6131 31.9425 18.303 31.9425H22.6503C24.3428 31.9425 25.72 30.5656 25.72 28.8728V28.372C25.7197 26.6795 24.3426 25.3023 22.6501 25.3023Z" fill="white"/>
<circle cx="11.8817" cy="17.1696" r="0.647773" fill="black"/>
<path d="M24.4242 27.3355V27.8364C24.4242 29.3887 23.1659 30.6469 21.6136 30.6469H17.266C15.7137 30.6469 14.4554 29.3887 14.4554 27.8364V27.3355C14.4554 25.7832 15.7137 24.525 17.266 24.525H21.6136C23.1659 24.525 24.4242 25.7832 24.4242 27.3355Z" fill="#FBA800"/>
<path d="M17.5363 16.1231H6.22696C5.94064 16.1231 5.70874 15.8912 5.70874 15.6049V0.83485C5.70874 0.548534 5.94064 0.316631 6.22696 0.316631H15.3352L18.0548 3.43423V15.6049C18.0545 15.8912 17.8226 16.1231 17.5363 16.1231Z" fill="#E8EDFC"/>
<path d="M6.48607 15.6049V0.83485C6.48607 0.548534 6.71823 0.316631 7.00429 0.316631H6.22696C5.9409 0.316631 5.70874 0.548534 5.70874 0.83485V15.6049C5.70874 15.8912 5.9409 16.1231 6.22696 16.1231H7.00429C6.71797 16.1231 6.48607 15.8912 6.48607 15.6049Z" fill="white"/>
<path d="M18.0545 3.43423H15.3387V0.316631L18.0545 3.43423Z" fill="white"/>
<circle cx="9.16188" cy="12.2338" r="0.883563" fill="#FBA800"/>
<path d="M17.2052 18.2055C17.0619 18.2055 16.946 18.3216 16.946 18.4646C16.946 18.6077 17.0619 18.7238 17.2052 18.7238H18.7404C18.8837 18.7238 18.9995 18.6077 18.9995 18.4646C18.9995 18.3216 18.8837 18.2055 18.7404 18.2055H17.2052Z" fill="#3A2C60"/>
<path fill-rule="evenodd" clip-rule="evenodd" d="M17.2662 24.2658H21.6136C23.3061 24.2658 24.6832 25.643 24.6835 27.3355V27.8364C24.6835 29.5291 23.3063 30.906 21.6138 30.906H17.2665C15.5766 30.906 14.2017 29.5338 14.1971 27.8452H14.0061C12.5836 27.8452 11.4262 26.6877 11.4262 25.2652V22.8578H7.23663C7.09334 22.8578 6.97752 22.7418 6.97752 22.5987C6.97752 21.6188 7.7748 20.8215 8.75475 20.8215H10.0161V18.7238H1.36547C0.646699 18.7238 0.0618896 18.1387 0.0618896 17.4199V5.31692C0.0618896 4.59789 0.646699 4.01308 1.36547 4.01308H5.44955V0.83485C5.44955 0.406283 5.79831 0.0575218 6.22688 0.0575218H15.3351C15.41 0.0575218 15.4812 0.0899105 15.5305 0.146396L18.2501 3.264C18.291 3.31116 18.3138 3.37153 18.3138 3.43423V4.01308H22.3979C23.1167 4.01308 23.7017 4.59815 23.7017 5.31692V17.4199C23.7017 18.1389 23.1167 18.7238 22.3979 18.7238H20.0358C19.8926 18.7238 19.7767 18.6077 19.7767 18.4646C19.7767 18.3216 19.8926 18.2055 20.0358 18.2055H22.3979C22.8311 18.2055 23.1835 17.8531 23.1835 17.4199V5.31692C23.1835 4.88369 22.8311 4.5313 22.3979 4.5313H18.3138V15.6051C18.3138 16.0337 17.965 16.3824 17.5365 16.3824H7.06795V16.8079C7.06795 16.9126 7.00472 17.0072 6.90808 17.0473C6.87595 17.0605 6.84226 17.067 6.80884 17.067C6.74147 17.067 6.67514 17.0406 6.62565 16.9911L5.96725 16.3324C5.93046 16.319 5.89548 16.3034 5.86153 16.2848L5.1552 16.9908C5.05389 17.0921 4.89013 17.0921 4.78882 16.9908L3.70186 15.9039C3.60055 15.8026 3.60055 15.6388 3.70186 15.5375L4.43721 14.8021L3.70186 14.067C3.62775 13.9929 3.60547 13.8815 3.64563 13.7846C3.68553 13.688 3.78037 13.6247 3.88505 13.6247H5.44981V4.5313H1.36547C0.932238 4.5313 0.580108 4.88369 0.580108 5.31692V17.4197C0.580108 17.8529 0.932238 18.2053 1.36547 18.2053H16.0233C16.1666 18.2053 16.2824 18.3214 16.2824 18.4644C16.2824 18.6074 16.1666 18.7235 16.0233 18.7235H13.7478V20.8212H15.0089C15.9888 20.8212 16.7861 21.6185 16.7861 22.5985C16.7861 22.7415 16.6703 22.8576 16.527 22.8576H11.9441V25.265C11.9441 26.4019 12.8689 27.3267 14.0059 27.3267H14.1968C14.2017 25.6381 15.5763 24.2658 17.2662 24.2658ZM6.07348 15.7062L6.54947 16.1822V14.1432H4.51028L4.98652 14.6192C5.03523 14.6677 5.06244 14.7337 5.06244 14.8024C5.06244 14.8711 5.03523 14.9369 4.98652 14.9856L4.25117 15.7209L4.97175 16.4415L5.7071 15.7062C5.75556 15.6575 5.82137 15.6302 5.89029 15.6302C5.95922 15.6302 6.02477 15.6575 6.07348 15.7062ZM15.5978 1.01234L17.4847 3.17513H15.5978V1.01234ZM15.0796 0.57574H6.22688C6.08385 0.57574 5.96777 0.692081 5.96777 0.83485V13.6247H6.80858C6.95187 13.6247 7.06769 13.7408 7.06769 13.8839V15.8642H17.5362C17.6793 15.8642 17.7953 15.7479 17.7953 15.6051V3.69334H15.3387C15.1954 3.69334 15.0796 3.57726 15.0796 3.43423V0.57574ZM10.5341 18.7238H13.229V20.8215H10.5341V18.7238ZM15.0086 21.3397H8.75449C8.14895 21.3397 7.64187 21.7693 7.52216 22.3396H16.2409C16.1212 21.7693 15.6141 21.3397 15.0086 21.3397ZM18.311 27.7573C18.311 27.9548 18.1503 28.1154 17.9529 28.1154H16.7581C16.5607 28.1154 16.4 27.9548 16.4 27.7573V27.4651C16.4 27.2676 16.5607 27.107 16.7581 27.107H17.9529C18.1503 27.107 18.311 27.2676 18.311 27.4651V27.7573ZM18.311 24.7841H17.2662C15.8621 24.7841 14.7197 25.9239 14.715 27.3267H15.8958C15.9627 26.9095 16.3223 26.5888 16.7581 26.5888H17.9529C18.0806 26.5888 18.2014 26.6178 18.311 26.6673V24.7841ZM14.715 27.8452H15.8906C15.9354 28.2867 16.3049 28.6337 16.7581 28.6337H17.9529C18.0806 28.6337 18.2014 28.6046 18.311 28.5551V30.3878H17.2662C15.8621 30.3878 14.7197 29.248 14.715 27.8452ZM21.6136 30.3878C23.0205 30.3878 24.165 29.2433 24.165 27.8364V27.3355C24.165 25.9286 23.0205 24.7841 21.6136 24.7841H18.8292V27.4651V27.7573V30.3878H21.6136Z" fill="black"/>
<path fill-rule="evenodd" clip-rule="evenodd" d="M11.1409 6.03155C11.1409 7.12292 10.2529 8.01063 9.16157 8.01063C8.0702 8.01063 7.1825 7.12292 7.1825 6.03155C7.1825 4.94018 8.0702 4.05247 9.16157 4.05247C10.2529 4.05247 11.1409 4.94018 11.1409 6.03155ZM10.6227 6.03129C10.6227 5.22572 9.96714 4.57043 9.16157 4.57043C8.35626 4.57043 7.70071 5.22572 7.70071 6.03129C7.70071 6.83686 8.35626 7.49215 9.16157 7.49215C9.9674 7.49215 10.6227 6.83686 10.6227 6.03129Z" fill="black"/>
<path fill-rule="evenodd" clip-rule="evenodd" d="M11.1409 12.2338C11.1409 13.3252 10.2529 14.2129 9.16157 14.2129C8.0702 14.2129 7.1825 13.3252 7.1825 12.2338C7.1825 11.1425 8.0702 10.2548 9.16157 10.2548C10.2529 10.2548 11.1409 11.1425 11.1409 12.2338ZM10.6227 12.2336C10.6227 11.428 9.96714 10.7727 9.16157 10.7727C8.35626 10.7727 7.70071 11.428 7.70071 12.2336C7.70071 13.0392 8.35626 13.6944 9.16157 13.6944C9.9674 13.6944 10.6227 13.0392 10.6227 12.2336Z" fill="black"/>
<path fill-rule="evenodd" clip-rule="evenodd" d="M13.3516 7.17992C13.3153 7.22812 13.2552 7.25247 13.1723 7.25247C13.1016 7.25247 13.0404 7.22656 12.9863 7.175C12.9321 7.12343 12.9052 7.06488 12.9052 6.99932C12.9052 6.96149 12.9114 6.92263 12.9241 6.8822C12.9368 6.84204 12.9575 6.78607 12.9863 6.7143L13.6941 4.9166C13.6986 4.90519 13.7033 4.89328 13.7082 4.88086C13.7253 4.83712 13.745 4.78706 13.7669 4.73056C13.7955 4.65827 13.8255 4.5979 13.8576 4.55022C13.8898 4.50254 13.9317 4.46368 13.9841 4.43414C14.0362 4.4046 14.1007 4.38983 14.1776 4.38983C14.2556 4.38983 14.3209 4.4046 14.373 4.43414C14.4251 4.46368 14.4673 4.50177 14.4995 4.54841C14.5316 4.59505 14.5585 4.64531 14.5806 4.69869C14.6026 4.75207 14.6306 4.82358 14.6645 4.91297L15.3877 6.69901C15.4444 6.83505 15.4727 6.93377 15.4727 6.99543C15.4727 7.05969 15.4457 7.11851 15.3921 7.17215C15.3387 7.22578 15.2742 7.25247 15.1988 7.25247C15.1545 7.25247 15.1166 7.2447 15.0853 7.22889C15.0537 7.21309 15.0273 7.19158 15.0058 7.16463C14.9845 7.13743 14.9614 7.09597 14.9368 7.04C14.9122 6.98403 14.8912 6.93454 14.8736 6.89179L14.7415 6.54433H13.6161L13.4837 6.89931C13.4322 7.03793 13.3881 7.13147 13.3516 7.17992ZM14.5901 6.12353L14.173 4.98112L13.7633 6.12353H14.5901Z" fill="black"/>
<path fill-rule="evenodd" clip-rule="evenodd" d="M14.8527 12.0253C15.1294 11.8967 15.2683 11.6944 15.2683 11.4174C15.2683 11.3368 15.2548 11.2604 15.2286 11.1878C15.2022 11.1155 15.1639 11.0495 15.1136 10.9896C15.0633 10.93 15.0053 10.8805 14.9397 10.8414C14.863 10.7948 14.7762 10.7634 14.6793 10.7471C14.5822 10.7308 14.4679 10.7225 14.3357 10.7225H13.4387C13.319 10.7225 13.2325 10.7491 13.1791 10.8028C13.1257 10.8564 13.0988 10.944 13.0988 11.0663V13.1469C13.0988 13.2664 13.1249 13.3537 13.1773 13.4084C13.2293 13.4631 13.3167 13.4905 13.4387 13.4905H14.2847C14.4306 13.4905 14.5586 13.4833 14.6679 13.4688C14.7775 13.4543 14.8744 13.4296 14.9586 13.3941C15.0934 13.3348 15.2004 13.2433 15.2794 13.1192C15.359 12.9954 15.3986 12.856 15.3986 12.701C15.3986 12.3663 15.2167 12.1411 14.8527 12.0253ZM13.6595 11.1435H14.1145C14.3184 11.1435 14.4702 11.1663 14.5697 11.2124C14.6692 11.2586 14.7187 11.3513 14.7187 11.491C14.7187 11.5563 14.7029 11.6156 14.6715 11.6685C14.6311 11.7428 14.5728 11.7931 14.4969 11.8195C14.4205 11.846 14.3127 11.8592 14.173 11.8592H13.6595V11.1435ZM13.6595 13.0695H14.2619C14.6407 13.0695 14.8301 12.9329 14.8301 12.6596C14.8301 12.5199 14.7812 12.4186 14.6829 12.3556C14.5845 12.2927 14.4381 12.2613 14.243 12.2613H13.6595V13.0695Z" fill="black"/>
</svg>
