<svg width="38" height="32" viewBox="0 0 38 32" fill="none" xmlns="http://www.w3.org/2000/svg">
<path d="M35.8937 15.6821V7.5062C35.8937 6.53285 35.102 5.74119 34.1287 5.74119H22.9001V5.55283C22.9001 3.15966 20.9601 1.21964 18.5669 1.21964H16.977C14.5838 1.21964 12.6438 3.15966 12.6438 5.55283V5.74119H4.69593C3.72259 5.74119 2.93093 6.53285 2.93093 7.5062V10.8011C1.97275 10.8946 1.22083 11.7047 1.22083 12.6872V16.4659C1.22083 17.4483 1.97245 18.2585 2.93093 18.3522V24.4434C2.93093 25.4168 3.72259 26.2085 4.69593 26.2085H16.8605V29.2626H15.036C13.6972 29.2626 12.608 30.3518 12.608 31.6903C12.608 31.8577 12.7436 31.9936 12.9113 31.9936H25.9124C26.0801 31.9936 26.2157 31.8577 26.2157 31.6903C26.2157 30.3515 25.1265 29.2626 23.7876 29.2626H21.9632V26.2085H34.1277C35.1011 26.2085 35.8927 25.4168 35.8927 24.4434V23.2332C36.8509 23.1398 37.6029 22.3296 37.6029 21.3472V17.5682C37.6038 16.5857 36.8518 15.7755 35.8937 15.6821Z" fill="white"/>
<path d="M2.93095 23.2302V6.29293C2.93095 5.4855 3.58551 4.83124 4.39264 4.83124H3.48268C2.67525 4.83124 2.021 5.4858 2.021 6.29293V23.2299C2.021 24.0373 2.67556 24.6916 3.48268 24.6916H4.39264C3.58551 24.6919 2.93095 24.0373 2.93095 23.2302Z" fill="white"/>
<circle cx="18.1991" cy="22.8795" r="0.758294" fill="black"/>
<path d="M1.90327 9.88178H7.05269C7.93201 9.88178 8.64481 10.5946 8.64481 11.4739V15.2526C8.64481 16.1319 7.93201 16.8447 7.05269 16.8447H6.42938V18.1399L4.64162 16.8447H1.90327C1.02395 16.8447 0.311157 16.1319 0.311157 15.2526V11.4739C0.310854 10.5946 1.02365 9.88178 1.90327 9.88178V9.88178Z" fill="#E8EDFC"/>
<path d="M34.4948 14.7628H29.3457C28.4663 14.7628 27.7535 15.4756 27.7535 16.3549V20.1336C27.7535 21.0129 28.4663 21.7257 29.3457 21.7257H29.969V23.0209L31.7567 21.7257H34.4948C35.3741 21.7257 36.0869 21.0129 36.0869 20.1336V16.3549C36.0872 15.4756 35.3744 14.7628 34.4948 14.7628Z" fill="#E8EDFC"/>
<path d="M17.7225 11.6902H17.5302C17.2181 11.7636 16.8936 11.803 16.5593 11.803C16.2251 11.803 15.8984 11.7636 15.586 11.6902H15.3946C12.3441 11.6902 9.87146 14.1631 9.87146 17.2133V21.4273H23.2456V17.2136C23.2456 14.1631 20.773 11.6902 17.7225 11.6902Z" fill="white"/>
<path d="M18.24 11.7162C18.23 11.7153 18.2193 11.7156 18.2093 11.7147C18.2197 11.715 18.2297 11.7156 18.24 11.7162Z" fill="#FFD7E5"/>
<path d="M17.5388 11.6896C17.5388 11.692 17.5363 11.692 17.5339 11.6896C17.2206 11.7636 16.8948 11.803 16.5593 11.803C16.2239 11.803 15.8957 11.7636 15.5824 11.6896C15.5799 11.692 15.5799 11.692 15.5799 11.6896C15.3449 11.635 15.1171 11.5606 14.8987 11.4693C14.899 11.4787 14.8993 11.4854 14.8999 11.496L16.1123 13.5892H17.0104L17.0283 13.5628L18.2179 11.5067C18.2185 11.4906 18.2191 11.4797 18.2197 11.4669C18.001 11.5585 17.7741 11.6347 17.5388 11.6896Z" fill="white"/>
<path d="M17.485 14.349L17.0088 15.5878H16.1085L15.6323 14.349L16.1085 13.5892H17.0088L17.485 14.349Z" fill="#FBA800"/>
<path d="M17.485 21.4273H15.6323L16.1085 15.5878H17.0088L17.485 21.4273Z" fill="#FBA800"/>
<path d="M17.536 4.72387C15.788 4.19458 14.8729 3.47693 14.8729 3.47693C14.8729 3.47693 14.4865 4.22673 13.804 4.63105C13.1216 5.03537 12.2623 5.16186 12.2623 5.16186V6.61232C12.2623 6.61232 12.262 6.61232 12.262 6.61202V7.50772C12.262 9.54298 13.6782 11.2479 15.5803 11.6896C15.5803 11.692 15.5803 11.692 15.5827 11.6896C15.896 11.7636 16.2242 11.803 16.5597 11.803C16.8951 11.803 17.2209 11.7636 17.5342 11.6896C17.5367 11.692 17.5391 11.692 17.5391 11.6896C18.3335 11.5045 19.0414 11.0999 19.5968 10.5448C20.3739 9.76773 20.8549 8.6946 20.8549 7.50772V5.09452C20.8477 5.09513 19.0657 5.18703 17.536 4.72387Z" fill="white"/>
<path d="M21.1078 6.53862C21.018 6.53862 20.9328 6.56531 20.8552 6.61232V7.50741C20.8552 7.75249 20.8336 7.99242 20.7942 8.22627C20.8873 8.30089 20.9932 8.34669 21.1078 8.34669C21.4615 8.34669 21.7481 7.94207 21.7481 7.44281C21.7481 6.94324 21.4615 6.53862 21.1078 6.53862Z" fill="white"/>
<path d="M12.2622 7.50741V6.61232C12.1846 6.56531 12.0993 6.53862 12.0096 6.53862C11.6559 6.53862 11.3693 6.94324 11.3693 7.4425C11.3693 7.94176 11.6559 8.34639 12.0096 8.34639C12.1242 8.34639 12.2304 8.30028 12.3232 8.22597C12.2838 7.99211 12.2622 7.75249 12.2622 7.50741Z" fill="white"/>
<circle cx="23.2457" cy="19.9346" r="1.49263" fill="white"/>
<path d="M27.7972 24.3885H25.6491C25.4814 24.3885 25.3458 24.5244 25.3458 24.6919C25.3458 24.8593 25.4814 24.9952 25.6491 24.9952H27.7972C27.965 24.9952 28.1006 24.8593 28.1006 24.6919C28.1006 24.5244 27.9647 24.3885 27.7972 24.3885Z" fill="black"/>
<path d="M2.40476 12.6729H6.55141C6.71915 12.6729 6.85473 12.537 6.85473 12.3696C6.85473 12.2022 6.71915 12.0663 6.55141 12.0663H2.40476C2.23702 12.0663 2.10144 12.2022 2.10144 12.3696C2.10144 12.537 2.23702 12.6729 2.40476 12.6729Z" fill="black"/>
<path d="M2.40476 14.6706H6.55141C6.71915 14.6706 6.85473 14.5347 6.85473 14.3672C6.85473 14.1998 6.71915 14.0639 6.55141 14.0639H2.40476C2.23702 14.0639 2.10144 14.1998 2.10144 14.3672C2.10144 14.5347 2.23702 14.6706 2.40476 14.6706Z" fill="black"/>
<path fill-rule="evenodd" clip-rule="evenodd" d="M34.6804 14.4689V6.29293C34.6804 5.31989 33.8887 4.52793 32.9154 4.52793H21.6869V4.33956C21.6869 1.94639 19.7469 0.00637054 17.3537 0.00637054H15.7637C13.3705 0.00637054 11.4305 1.94639 11.4305 4.33956V4.52793H3.48268C2.50933 4.52793 1.71767 5.31958 1.71767 6.29293V9.58787C0.759493 9.68129 0.00756836 10.4915 0.00756836 11.4739V15.2526C0.00756836 16.2351 0.759189 17.0452 1.71767 17.1387V23.2299C1.71767 24.2032 2.50933 24.9949 3.48268 24.9949H15.6472V28.049H13.8228C12.4839 28.049 11.3947 29.1382 11.3947 30.4767C11.3947 30.6442 11.5303 30.7801 11.698 30.7801H24.6991C24.8669 30.7801 25.0024 30.6442 25.0024 30.4767C25.0024 29.1379 23.9132 28.049 22.5744 28.049H20.7499V24.9952H24.2969C24.4647 24.9952 24.6003 24.8593 24.6003 24.6919C24.6003 24.5244 24.4647 24.3885 24.2969 24.3885H3.48268C2.84389 24.3885 2.32431 23.869 2.32431 23.2302V17.1481H4.54277L6.25106 18.3856C6.30383 18.4238 6.36632 18.4432 6.4291 18.4432C6.47612 18.4432 6.52374 18.4323 6.56711 18.4102C6.66842 18.3583 6.73242 18.254 6.73242 18.1399V17.1478H7.05272C8.09765 17.1478 8.94816 16.2976 8.94816 15.2523V11.4739C8.94816 10.4287 8.09765 9.57847 7.05272 9.57847H2.32431V6.29293C2.32431 5.65414 2.84389 5.13456 3.48268 5.13456H11.4302V6.48918C11.2085 6.70817 11.0656 7.0488 11.0656 7.44281C11.0656 8.11981 11.4799 8.65001 12.0092 8.65001C12.0283 8.65001 12.047 8.64658 12.0658 8.64314C12.0765 8.64117 12.0873 8.6392 12.0981 8.63788C12.402 9.85266 13.1882 10.8821 14.2705 11.4976C13.0712 11.7329 12.0059 12.3399 11.1918 13.1898C11.1736 13.204 11.1581 13.2204 11.1433 13.2386C10.1684 14.2805 9.56844 15.6773 9.56844 17.2133V21.4273C9.56844 21.5947 9.70402 21.7306 9.87176 21.7306H23.2459C24.2363 21.7306 25.0419 20.925 25.0419 19.9346C25.0419 19.1909 24.5875 18.5515 23.9417 18.2791L26.802 12.0177C26.8715 11.8655 26.8048 11.6853 26.6525 11.6158C26.4996 11.5461 26.3198 11.6134 26.2506 11.7657L23.5493 17.6789V17.2133C23.5493 15.6773 22.9493 14.2805 21.9744 13.2386C21.9596 13.2201 21.9441 13.2037 21.9259 13.1895C21.1112 12.339 20.045 11.732 18.8448 11.4969C19.1957 11.2958 19.5215 11.0489 19.8115 10.759C20.4066 10.1636 20.8133 9.43227 21.0138 8.63666C21.0246 8.63811 21.0353 8.64009 21.046 8.64206C21.0667 8.64588 21.0875 8.64971 21.1085 8.64971C21.6374 8.64971 22.0518 8.11951 22.0518 7.4425C22.0518 7.04849 21.9089 6.70817 21.6872 6.48918V5.13456H32.9154C33.5542 5.13456 34.0738 5.65414 34.0738 6.29293V14.4595H29.3457C28.3004 14.4595 27.4499 15.31 27.4499 16.3552V20.1339C27.4499 21.1791 28.3004 22.0293 29.3457 22.0293H29.6657V23.0215C29.6657 23.1355 29.7297 23.2399 29.831 23.2918C29.8746 23.3139 29.922 23.3248 29.969 23.3248C30.0318 23.3248 30.0942 23.3054 30.147 23.2672L31.8553 22.0296H34.0738V23.2305C34.0738 23.8693 33.5542 24.3889 32.9154 24.3889H29.3065C29.1388 24.3889 29.0032 24.5247 29.0032 24.6922C29.0032 24.8596 29.1388 24.9955 29.3065 24.9955H32.9151C33.8884 24.9955 34.6801 24.2038 34.6801 23.2305V22.0202C35.6383 21.9268 36.3902 21.1167 36.3902 20.1342V16.3549C36.3905 15.3724 35.6386 14.5623 34.6804 14.4689ZM24.3712 30.1737H12.0268C12.1718 29.3135 12.9219 28.6559 13.8231 28.6559H15.9508H20.4472H22.575C23.4759 28.6559 24.2263 29.3135 24.3712 30.1737ZM20.1439 28.0493V24.9952H16.2542V28.0493H20.1439ZM8.34152 11.4739V15.2526C8.34152 15.9633 7.7634 16.5414 7.05272 16.5414H6.4291C6.26137 16.5414 6.12579 16.6773 6.12579 16.8447V17.5457L4.81909 16.5991C4.76723 16.5614 4.70505 16.5414 4.64105 16.5414H1.903C1.19233 16.5414 0.614203 15.9633 0.614203 15.2526V11.4739C0.614203 10.7632 1.19233 10.1851 1.903 10.1851H7.05272C7.7634 10.1851 8.34152 10.7632 8.34152 11.4739ZM20.0841 6.23316L20.0917 6.24774V6.24804H20.551V5.10211C19.9762 5.10666 18.6843 5.07208 17.5357 4.72417C15.7877 4.19458 14.8726 3.47723 14.8726 3.47723C14.8726 3.47723 14.4861 4.22703 13.8037 4.63136C13.3748 4.88523 12.8764 5.02961 12.5649 5.1018V6.24774H13.0751L13.0827 6.23316L13.0827 6.23315C13.0922 6.21474 13.1017 6.19635 13.116 6.18101C13.1737 6.12004 13.2537 6.08546 13.3372 6.08546H15.9263C16.01 6.08546 16.0901 6.12004 16.1474 6.18101C16.1618 6.19635 16.1712 6.21473 16.1807 6.23315L16.1883 6.24774H16.9785L16.9861 6.23316C16.9956 6.21474 17.005 6.19636 17.0194 6.18101C17.0771 6.12004 17.1571 6.08546 17.2406 6.08546H19.8297C19.9134 6.08546 19.9935 6.12004 20.0508 6.18101C20.0652 6.19636 20.0746 6.21474 20.0841 6.23316ZM19.5069 6.6921L19.4602 7.45676C19.4499 7.63026 19.3049 7.76645 19.1308 7.76645H17.9388C17.7647 7.76645 17.62 7.63026 17.6094 7.45646L17.5627 6.6921H19.5069ZM15.5574 7.45646L15.6042 6.6921H13.6596L13.7063 7.45646C13.7169 7.63026 13.8619 7.76645 14.036 7.76645H15.2277C15.4018 7.76645 15.5468 7.63026 15.5574 7.45646ZM11.9904 8.04216C11.8363 8.02305 11.6723 7.77282 11.6723 7.44281C11.6723 7.13555 11.8145 6.89744 11.9583 6.85043V7.50772C11.9583 7.67757 11.9707 7.8447 11.9883 8.01031L11.9887 8.01828C11.9891 8.02624 11.9895 8.0342 11.9904 8.04216ZM18.556 21.1239H19.7162H19.7165V16.0294C19.7165 14.9229 20.295 13.9153 21.221 13.3529C20.6787 12.8622 20.0341 12.4842 19.3216 12.2546L18.7687 15.0737C18.7468 15.1832 18.6674 15.272 18.5609 15.3051C18.5591 15.3054 18.5576 15.3051 18.556 15.3057V21.1239ZM14.8601 12.0332L15.7249 13.5261L14.8404 14.3909L14.3921 12.1033C14.5462 12.0726 14.7018 12.0493 14.8601 12.0332ZM16.2681 13.9053L15.9697 14.3818L16.316 15.2845H16.8001L17.1474 14.3818L16.8487 13.9053H16.2681ZM15.1935 14.9299L15.4385 14.6903L15.8004 15.6318L15.3539 21.1112H15.1935V14.9299ZM16.7292 15.8911H16.3879L15.9624 21.1112H17.155L16.7292 15.8911ZM17.317 15.6318L17.681 14.6851L17.9239 14.9226V21.1112H17.7638L17.317 15.6318ZM14.5613 15.3039C14.4564 15.2699 14.3775 15.1823 14.3563 15.0737L13.8037 12.2522C13.0884 12.4815 12.4415 12.8604 11.897 13.3526C12.823 13.9153 13.4015 14.9229 13.4015 16.0291V21.1242H14.5613V15.3039ZM18.284 14.3906L17.3998 13.5258L18.263 12.0338C18.4217 12.0502 18.5779 12.0742 18.7323 12.1045L18.284 14.3906ZM16.2799 13.2732H16.8453L17.5891 11.9886L17.5847 11.9895L17.5804 11.9905L17.5756 11.9916L17.5729 11.9922L17.57 11.9926C17.239 12.0681 16.8993 12.1063 16.5599 12.1063C16.2187 12.1063 15.8781 12.0684 15.5468 11.9926C15.5448 11.9924 15.5428 11.9919 15.5408 11.9914L15.5368 11.9904L16.2799 13.2732ZM10.1751 17.2133C10.1751 15.909 10.6604 14.7203 11.4542 13.8058C12.2728 14.242 12.7948 15.0888 12.7948 16.0291V21.1239H10.1751V17.2133ZM23.2459 21.1239C23.9017 21.1239 24.4352 20.5904 24.4352 19.9346C24.4352 19.2789 23.9017 18.7453 23.2459 18.7453C22.5902 18.7453 22.0563 19.2789 22.0563 19.9346C22.0563 20.5904 22.5902 21.1239 23.2459 21.1239ZM22.9426 18.166C22.0964 18.3107 21.4497 19.0477 21.4497 19.9343C21.4497 20.3908 21.6223 20.8067 21.9038 21.1236H20.3232V16.0291C20.3232 15.0888 20.8449 14.2423 21.6635 13.8058C22.4573 14.7203 22.9426 15.909 22.9426 17.2133V18.166ZM17.4902 11.3893C18.2057 11.2188 18.8594 10.853 19.382 10.3304C20.136 9.57634 20.5513 8.57388 20.5513 7.50802V6.85467H20.1051L20.066 7.49346C20.0362 7.98665 19.6255 8.37308 19.1311 8.37308H17.9391C17.445 8.37308 17.0346 7.98665 17.0043 7.49346L16.9651 6.85467H16.202L16.1629 7.49346C16.1325 7.98665 15.7221 8.37308 15.2277 8.37308H14.036C13.5416 8.37308 13.1312 7.98665 13.1009 7.49346L13.0617 6.85467H12.5649V7.50802C12.5649 9.36948 13.8261 10.964 15.6333 11.3908C15.6396 11.3917 15.6457 11.3929 15.6518 11.3944C16.2429 11.5337 16.8711 11.5346 17.4638 11.3944C17.4726 11.3923 17.4814 11.3905 17.4902 11.3893ZM21.1267 8.04216C21.1279 8.03256 21.1282 8.02265 21.1285 8.01304L21.1285 8.01274C21.1467 7.84622 21.1579 7.67788 21.1579 7.50802V6.92201H21.1585V6.85043C21.3026 6.89684 21.4448 7.13494 21.4448 7.44281C21.4448 7.77282 21.2807 8.02305 21.1267 8.04216ZM34.4951 21.4224C35.2057 21.4224 35.7839 20.8443 35.7839 20.1336V16.3549C35.7839 15.6439 35.2057 15.0658 34.4951 15.0658H29.3457C28.6347 15.0658 28.0566 15.6442 28.0566 16.3549V20.1336C28.0566 20.8443 28.6347 21.4224 29.3457 21.4224H29.969C30.1367 21.4224 30.2723 21.5583 30.2723 21.7257V22.4267L31.579 21.48C31.6308 21.4424 31.693 21.4224 31.757 21.4224H34.4951Z" fill="black"/>
<path d="M33.9934 16.9473H29.8468C29.679 16.9473 29.5435 17.0831 29.5435 17.2506C29.5435 17.418 29.679 17.5539 29.8468 17.5539H33.9934C34.1612 17.5539 34.2967 17.418 34.2967 17.2506C34.2967 17.0831 34.1612 16.9473 33.9934 16.9473Z" fill="black"/>
<path d="M33.9934 18.9446H29.8468C29.679 18.9446 29.5435 19.0805 29.5435 19.2479C29.5435 19.4154 29.679 19.5512 29.8468 19.5512H33.9934C34.1612 19.5512 34.2967 19.4154 34.2967 19.2479C34.2967 19.0805 34.1612 18.9446 33.9934 18.9446Z" fill="black"/>
<path d="M14.6633 7.58233C14.9005 7.58233 15.0931 7.39003 15.0931 7.15253C15.0931 6.91534 14.9008 6.72273 14.6633 6.72273C14.4261 6.72273 14.2335 6.91503 14.2335 7.15253C14.2335 7.39003 14.4258 7.58233 14.6633 7.58233Z" fill="black"/>
<circle cx="18.4541" cy="7.15253" r="0.429801" fill="black"/>
<path d="M16.5727 9.36827C17.0091 9.36827 17.3646 9.01308 17.3646 8.5763C17.3646 8.40887 17.229 8.27299 17.0613 8.27299C16.8936 8.27299 16.758 8.40887 16.758 8.5763C16.758 8.67852 16.6749 8.76163 16.5727 8.76163C16.4704 8.76163 16.3876 8.67852 16.3876 8.5763C16.3876 8.40887 16.2521 8.27299 16.0843 8.27299C15.9166 8.27299 15.781 8.40887 15.781 8.5763C15.7807 9.01308 16.1359 9.36827 16.5727 9.36827Z" fill="black"/>
<path d="M19.0675 5.37448L18.2261 5.22798C18.0581 5.20068 17.904 5.30988 17.8752 5.47458C17.8464 5.63958 17.9571 5.7967 18.1218 5.82552L18.9632 5.97202C18.9811 5.97505 18.9984 5.97657 19.0156 5.97657C19.1606 5.97657 19.2883 5.87283 19.3141 5.72542C19.3429 5.56042 19.2325 5.4033 19.0675 5.37448Z" fill="black"/>
<path d="M14.9196 5.22798L14.0782 5.37448C13.9132 5.4033 13.8028 5.56042 13.8316 5.72542C13.8574 5.87283 13.9854 5.97657 14.1301 5.97657C14.1474 5.97657 14.1646 5.97505 14.1825 5.97202L15.0239 5.82552C15.1889 5.7967 15.2994 5.63958 15.2705 5.47458C15.2417 5.30988 15.0867 5.20068 14.9196 5.22798Z" fill="black"/>
<path d="M17.2827 9.56481C17.2803 9.56815 17.0276 9.88451 16.5723 9.88451C16.114 9.88451 15.8783 9.58605 15.8644 9.56815C15.7661 9.43469 15.5784 9.40436 15.4428 9.50203C15.3069 9.6 15.2763 9.78988 15.3742 9.92546C15.3909 9.94851 15.7916 10.4911 16.572 10.4911C17.3328 10.4911 17.7486 9.95397 17.7659 9.93122C17.8672 9.79776 17.8408 9.60758 17.7074 9.50627C17.5736 9.40436 17.3837 9.43136 17.2827 9.56481Z" fill="black"/>
<path d="M30.7767 10.3419H24.5699C24.1832 10.3419 23.8699 10.0286 23.8699 9.64186V7.88474C23.8699 7.49801 24.1832 7.18468 24.5699 7.18468H30.7767C31.1634 7.18468 31.4768 7.49801 31.4768 7.88474V9.64186C31.4771 10.0283 31.1634 10.3419 30.7767 10.3419Z" fill="#FBA800"/>
<path d="M25.3968 8.08827V9.37494H26.1229C26.1809 9.37494 26.2252 9.38889 26.2561 9.4171C26.287 9.44531 26.3025 9.48049 26.3025 9.52326C26.3025 9.56664 26.287 9.60182 26.2567 9.62882C26.2264 9.65581 26.1815 9.66916 26.1229 9.66916H25.2582C25.1802 9.66916 25.1241 9.65187 25.0898 9.61729C25.0556 9.58271 25.0386 9.5269 25.0386 9.44956V8.08796C25.0386 8.01547 25.055 7.96148 25.0874 7.92508C25.1199 7.88868 25.1626 7.87079 25.2157 7.87079C25.2697 7.87079 25.3134 7.88868 25.3467 7.92448C25.3804 7.96057 25.3968 8.01517 25.3968 8.08827Z" fill="white"/>
<path d="M26.5521 9.4811V8.08827C26.5521 8.01577 26.5688 7.96178 26.6016 7.92538C26.6343 7.88899 26.6771 7.87109 26.7296 7.87109C26.7836 7.87109 26.8269 7.88899 26.8603 7.92478C26.8937 7.96057 26.9103 8.01486 26.9103 8.08827V9.4811C26.9103 9.5542 26.8937 9.6088 26.8603 9.64519C26.8272 9.68129 26.7836 9.69949 26.7296 9.69949C26.678 9.69949 26.6355 9.68099 26.6022 9.64459C26.5691 9.60789 26.5521 9.55329 26.5521 9.4811H26.5521Z" fill="white"/>
<path d="M27.5724 8.10616L27.9728 9.29153L28.3741 8.09767C28.395 8.03488 28.4108 7.99121 28.4211 7.96694C28.4314 7.94237 28.449 7.92023 28.473 7.90051C28.4972 7.8808 28.53 7.87079 28.5719 7.87079C28.6025 7.87079 28.6307 7.87837 28.6568 7.89384C28.6829 7.90931 28.7032 7.92933 28.7184 7.95481C28.7332 7.97998 28.7405 8.00576 28.7405 8.03124C28.7405 8.04914 28.7381 8.06825 28.7335 8.08857C28.7284 8.10889 28.7226 8.12922 28.7153 8.14893C28.7081 8.16865 28.7008 8.18897 28.6935 8.2099L28.2655 9.36523C28.25 9.40952 28.2349 9.45138 28.2197 9.49141C28.2045 9.53115 28.187 9.56633 28.1666 9.59636C28.1466 9.62669 28.1199 9.65126 28.0863 9.67067C28.0532 9.68978 28.0122 9.69979 27.964 9.69979C27.9158 9.69979 27.8748 9.69039 27.8418 9.67128C27.8084 9.65248 27.7814 9.6273 27.7608 9.59636C27.7402 9.56542 27.7223 9.53024 27.7071 9.49081C27.6916 9.45138 27.6765 9.40952 27.6613 9.36523L27.2403 8.2196C27.2333 8.19867 27.2257 8.17805 27.2182 8.15803C27.2106 8.13801 27.2039 8.11617 27.199 8.09312C27.1936 8.06976 27.1912 8.05005 27.1912 8.03397C27.1912 7.99303 27.2078 7.95541 27.2406 7.92175C27.2737 7.88808 27.3149 7.87109 27.365 7.87109C27.4259 7.87109 27.4693 7.8899 27.4945 7.92721C27.52 7.96451 27.5457 8.02427 27.5724 8.10616Z" fill="white"/>
<path d="M30.1747 8.17744H29.3682V8.61149H30.111C30.1656 8.61149 30.2062 8.62392 30.2332 8.64819C30.2602 8.67276 30.2736 8.70521 30.2736 8.74525C30.2736 8.78529 30.2602 8.81805 30.2338 8.84352C30.2071 8.8687 30.1662 8.88144 30.111 8.88144H29.3682V9.38434H30.2026C30.259 9.38434 30.3012 9.39738 30.3297 9.42347C30.3585 9.44955 30.3728 9.48443 30.3728 9.52781C30.3728 9.56967 30.3585 9.60364 30.3297 9.62972C30.3012 9.65581 30.259 9.66885 30.2026 9.66885H29.2292C29.1513 9.66885 29.0955 9.65156 29.0609 9.61698C29.0269 9.58241 29.0096 9.5266 29.0096 9.44925V8.12042C29.0096 8.06916 29.0172 8.02699 29.0327 7.99424C29.0479 7.96178 29.0718 7.93782 29.1043 7.92326C29.1367 7.9084 29.1783 7.90081 29.2289 7.90081H30.1744C30.2314 7.90081 30.2739 7.91355 30.3018 7.93873C30.3294 7.9639 30.3433 7.99727 30.3433 8.03822C30.3433 8.08007 30.3294 8.11374 30.3018 8.13892C30.2745 8.1647 30.232 8.17744 30.1747 8.17744Z" fill="white"/>
</svg>
