<svg width="32" height="27" viewBox="0 0 32 27" fill="none" xmlns="http://www.w3.org/2000/svg">
<path fill-rule="evenodd" clip-rule="evenodd" d="M31.2558 8.83435H0.744187C0.333187 8.83435 0 9.16754 0 9.57854V25.859C0 26.4755 0.499813 26.9753 1.11625 26.9753H30.8838C31.5003 26.9753 32 26.4755 32 25.859V9.57854C32 9.16754 31.6668 8.83435 31.2558 8.83435ZM6.71069 22.4942C5.80044 22.4942 5.0625 21.7562 5.0625 20.8459C5.0625 19.9356 5.80044 19.1977 6.71075 19.1977C7.62106 19.1977 8.359 19.9356 8.359 20.8459C8.35894 21.7561 7.621 22.4942 6.71069 22.4942ZM5.0625 14.9638C5.0625 15.8741 5.80044 16.612 6.71069 16.612C7.621 16.612 8.359 15.8741 8.359 14.9638C8.359 14.0535 7.62106 13.3155 6.71075 13.3155C5.80044 13.3155 5.0625 14.0535 5.0625 14.9638ZM12.9036 22.4942C11.9933 22.4942 11.2553 21.7562 11.2553 20.8459C11.2553 19.9356 11.9933 19.1977 12.9036 19.1977C13.8139 19.1977 14.5518 19.9356 14.5518 20.8459C14.5518 21.7561 13.8139 22.4942 12.9036 22.4942ZM11.2553 14.9638C11.2553 15.8741 11.9933 16.612 12.9036 16.612C13.8139 16.612 14.5518 15.8741 14.5518 14.9638C14.5518 14.0535 13.8139 13.3155 12.9036 13.3155C11.9933 13.3155 11.2553 14.0535 11.2553 14.9638ZM19.0964 22.4942C18.1861 22.4942 17.4482 21.7562 17.4482 20.8459C17.4482 19.9356 18.1861 19.1977 19.0964 19.1977C20.0068 19.1977 20.7447 19.9356 20.7447 20.8459C20.7447 21.7561 20.0068 22.4942 19.0964 22.4942ZM17.4482 14.9638C17.4482 15.8741 18.1861 16.612 19.0964 16.612C20.0068 16.612 20.7447 15.8741 20.7447 14.9638C20.7447 14.0535 20.0068 13.3155 19.0964 13.3155C18.1861 13.3155 17.4482 14.0535 17.4482 14.9638ZM25.2893 22.4942C24.379 22.4942 23.6411 21.7562 23.6411 20.8459C23.6411 19.9356 24.379 19.1977 25.2893 19.1977C26.1996 19.1977 26.9376 19.9356 26.9376 20.8459C26.9375 21.7561 26.1996 22.4942 25.2893 22.4942ZM23.6411 14.9638C23.6411 15.8741 24.379 16.612 25.2893 16.612C26.1996 16.612 26.9376 15.8741 26.9376 14.9638C26.9376 14.0535 26.1996 13.3155 25.2893 13.3155C24.379 13.3155 23.6411 14.0535 23.6411 14.9638Z" fill="#5DC2A7"/>
<path d="M30.8838 1.81372H26.4056V1.14091C26.4056 0.524408 25.9058 0.0246582 25.2894 0.0246582C24.6729 0.0246582 24.1731 0.524471 24.1731 1.14091V1.81372H20.2128V1.14091C20.2128 0.524408 19.713 0.0246582 19.0966 0.0246582C18.4801 0.0246582 17.9803 0.524471 17.9803 1.14091V1.81372H14.02V1.14091C14.02 0.524408 13.5202 0.0246582 12.9038 0.0246582C12.2873 0.0246582 11.7875 0.524471 11.7875 1.14091V1.81372H7.82688V1.14091C7.82688 0.524408 7.32706 0.0246582 6.71063 0.0246582C6.09413 0.0246582 5.59438 0.524471 5.59438 1.14091V1.81372H1.11625C0.499813 1.81372 0 2.31353 0 2.92997V6.97391C0 7.38491 0.333187 7.7181 0.744187 7.7181H31.2558C31.6668 7.7181 32 7.38491 32 6.97391V2.92997C32 2.31353 31.5002 1.81372 30.8838 1.81372Z" fill="#FBA800"/>
</svg>
