<svg width="33" height="32" viewBox="0 0 33 32" fill="none" xmlns="http://www.w3.org/2000/svg">
<path d="M28.7158 23.7163H23.922C22.0589 23.7163 20.5429 25.2294 20.5378 27.0914H19.1843C17.9306 27.0914 16.9109 26.0717 16.9109 24.818V21.9826H21.7475C21.9052 21.9826 22.0332 21.8546 22.0332 21.6969C22.0332 20.6163 21.154 19.7371 20.0735 19.7371H18.6826V17.424H28.2215C29.014 17.424 29.6589 16.7791 29.6589 15.9866V2.64057C29.6589 1.848 29.014 1.20314 28.2215 1.20314H5.02889C4.23632 1.20314 3.59147 1.848 3.59147 2.64057V15.9866C3.59147 16.7791 4.23632 17.424 5.02889 17.424H14.5675V19.7371H10.0323C9.35832 19.7371 8.70861 19.9397 8.15347 20.3231L7.96604 20.4526L7.88547 20.3926C7.31861 19.97 6.61689 19.7374 5.90975 19.7374H1.47089C1.31318 19.7374 1.18518 19.8654 1.18518 20.0231V30.9031C1.18518 31.0609 1.31318 31.1889 1.47089 31.1889H5.93347C6.49575 31.1889 7.03661 31.3589 7.49775 31.6806L7.79632 31.8889C7.84518 31.9231 7.90261 31.9403 7.95975 31.9403C8.01489 31.9403 8.07004 31.9243 8.11804 31.8926L8.48918 31.6457C8.93918 31.3469 9.46232 31.1889 10.0023 31.1889H14.4486C14.6063 31.1889 14.7343 31.0609 14.7343 30.9031V21.9826H16.3395V24.818C16.3395 26.3866 17.6158 27.6629 19.1843 27.6629H20.5378C20.5429 29.5249 22.0589 31.038 23.922 31.038H28.7158C30.5823 31.038 32.1006 29.5197 32.1006 27.6531V27.1009C32.1006 25.2346 30.5823 23.7163 28.7158 23.7163Z" fill="white"/>
<path d="M25.8426 1.73543H5.12172C4.7403 1.73543 4.43115 2.04457 4.43115 2.426V12.7329C4.43115 13.1143 4.7403 13.4234 5.12172 13.4234H25.8426C26.224 13.4234 26.5332 13.1143 26.5332 12.7329V2.42571C26.5329 2.04457 26.2237 1.73543 25.8426 1.73543Z" fill="#E8EDFC"/>
<path d="M17.2263 6.42857L14.328 4.40629C13.9863 4.16771 13.5175 4.41229 13.5175 4.82914V8.87343C13.5175 9.29 13.9863 9.53457 14.328 9.29629L17.2263 7.274C17.5203 7.06886 17.5203 6.63371 17.2263 6.42857Z" fill="#FBA800"/>
<circle cx="15.482" cy="14.5674" r="0.571429" fill="black"/>
<path d="M30.672 25.9583V26.5106C30.672 28.2223 29.2845 29.6097 27.5728 29.6097H22.7788C21.0671 29.6097 19.6797 28.2223 19.6797 26.5106V25.9583C19.6797 24.2466 21.0671 22.8591 22.7788 22.8591H27.5728C29.2843 22.8591 30.672 24.2466 30.672 25.9583Z" fill="#FBA800"/>
<path d="M13.3054 29.76H8.85943C8.26486 29.76 7.68372 29.9354 7.18829 30.2646L6.81686 30.5114L6.51829 30.3031C6.01143 29.9497 5.40857 29.76 4.79057 29.76H0.328003V18.88H4.76686C5.41715 18.88 6.05029 19.09 6.57172 19.4786L6.81657 19.6611L7.17257 19.4151C7.67715 19.0666 8.27572 18.88 8.88915 18.88H13.3054V29.76Z" fill="#E8EDFC"/>
<path d="M8.88943 18.88C8.27629 18.88 7.67743 19.0666 7.17286 19.4151L6.81686 19.6611L6.572 19.4786C6.05057 19.09 5.41772 18.88 4.76715 18.88H0.328003V19.7371H4.76686C5.41715 19.7371 6.05029 19.9471 6.57172 20.3357L6.81657 20.5183L7.17257 20.2723C7.67715 19.9237 8.27572 19.7371 8.88915 19.7371H13.3051V18.88H8.88943Z" fill="white"/>
<path d="M20.7857 15.7097C20.628 15.7097 20.5 15.8377 20.5 15.9954C20.5 16.1531 20.628 16.2811 20.7857 16.2811H23.074C23.2317 16.2811 23.3597 16.1531 23.3597 15.9954C23.3597 15.8377 23.2317 15.7097 23.074 15.7097L20.7857 15.7097Z" fill="#3A2C60"/>
<path d="M25.3737 11.8874C25.3737 11.7297 25.2457 11.6017 25.088 11.6017H5.87629C5.71858 11.6017 5.59058 11.7297 5.59058 11.8874C5.59058 12.0451 5.71858 12.1731 5.87629 12.1731H25.088C25.2457 12.1731 25.3737 12.0451 25.3737 11.8874Z" fill="black"/>
<path fill-rule="evenodd" clip-rule="evenodd" d="M27.5728 22.5734H22.7791C20.916 22.5734 19.4 24.0866 19.3948 25.9486H18.0414C16.7877 25.9486 15.768 24.9289 15.768 23.6751V20.8397H20.6045C20.7622 20.8397 20.8902 20.7117 20.8902 20.554C20.8902 19.4734 20.0111 18.5943 18.9305 18.5943H17.5397V16.2811H19.6802C19.838 16.2811 19.966 16.1531 19.966 15.9954C19.966 15.8377 19.838 15.7097 19.6802 15.7097H3.88595C3.40852 15.7097 3.01995 15.3211 3.01995 14.8437V1.49771C3.01995 1.02029 3.40852 0.631714 3.88595 0.631714H27.078C27.5554 0.631714 27.944 1.02029 27.944 1.49771V14.8437C27.944 15.3211 27.5554 15.7097 27.078 15.7097H24.1188C23.9611 15.7097 23.8331 15.8377 23.8331 15.9954C23.8331 16.1531 23.9611 16.2811 24.1188 16.2811H27.078C27.8705 16.2811 28.5154 15.6363 28.5154 14.8437V1.49771C28.5154 0.705143 27.8705 0.0602856 27.078 0.0602856H3.88595C3.09338 0.0602856 2.44852 0.705143 2.44852 1.49771V14.8437C2.44852 15.6363 3.09338 16.2811 3.88595 16.2811H13.4245V18.5943H8.88938C8.21538 18.5943 7.56566 18.7969 7.01052 19.1803L6.82309 19.3097L6.74252 19.2497C6.17566 18.8271 5.47395 18.5946 4.76681 18.5946H0.327951C0.170236 18.5946 0.0422363 18.7226 0.0422363 18.8803V29.7603C0.0422363 29.918 0.170236 30.046 0.327951 30.046H4.79052C5.35281 30.046 5.89366 30.216 6.35481 30.5377L6.65338 30.746C6.70224 30.7803 6.75967 30.7974 6.81681 30.7974C6.87195 30.7974 6.92709 30.7814 6.97509 30.7497L7.34624 30.5029C7.79624 30.204 8.31938 30.046 8.85938 30.046H13.3057C13.4634 30.046 13.5914 29.918 13.5914 29.7603V20.8397H15.1965V23.6751C15.1965 25.2437 16.4728 26.52 18.0414 26.52H19.3948C19.4 28.382 20.916 29.8951 22.7791 29.8951H27.5728C29.4394 29.8951 30.9577 28.3769 30.9577 26.5103V25.958C30.9577 24.0917 29.4394 22.5734 27.5728 22.5734ZM13.996 16.2811H16.9677V18.5943H13.996V16.2811ZM0.613665 29.4743H4.79052C5.41024 29.4743 6.00766 29.6471 6.53081 29.972V19.8046L6.40081 19.7077C5.93195 19.3583 5.35167 19.1657 4.76681 19.1657H0.613665V29.4743ZM13.0197 29.4743H8.85938C8.23481 29.4743 7.62995 29.6509 7.10252 29.982V19.8111L7.33509 19.6503C7.79424 19.3331 8.33167 19.1657 8.88909 19.1657H13.0197V29.4743ZM13.7102 19.1657H13.5911V20.2683H20.2888C20.1565 19.6394 19.5977 19.1657 18.93 19.1657H17.2534H13.7102ZM23.9311 26.4234C23.9311 26.6411 23.754 26.8183 23.5362 26.8183H22.2188C22.0011 26.8183 21.8239 26.6411 21.8239 26.4234V26.1014C21.8239 25.8837 22.0011 25.7066 22.2188 25.7066H23.5362C23.754 25.7066 23.9311 25.8837 23.9311 26.1014V26.4234ZM23.9311 23.1449H22.7791C21.2308 23.1449 19.9714 24.4017 19.966 25.9489H21.268C21.3417 25.4886 21.7382 25.1351 22.2188 25.1351H23.5362C23.6771 25.1351 23.8102 25.1669 23.9311 25.2214V23.1449ZM19.966 26.52H21.2622C21.3117 27.0069 21.7191 27.3894 22.2188 27.3894H23.5362C23.6771 27.3894 23.8102 27.3574 23.9311 27.3031V29.3237H22.7791C21.2308 29.324 19.9711 28.0671 19.966 26.52ZM27.5728 29.324C29.1242 29.324 30.3862 28.062 30.3862 26.5106V25.9583C30.3862 24.4069 29.1242 23.1449 27.5728 23.1449H24.5025V26.1014V26.4234V29.324H27.5728Z" fill="black"/>
<path d="M8.09912 20.7997C8.09912 20.9574 8.22712 21.0854 8.38484 21.0854H11.7103C11.868 21.0854 11.996 20.9574 11.996 20.7997C11.996 20.642 11.868 20.514 11.7103 20.514H8.38484C8.22712 20.514 8.09912 20.642 8.09912 20.7997H8.09912Z" fill="black"/>
<path d="M11.7103 22.2171H8.38484C8.22712 22.2171 8.09912 22.3451 8.09912 22.5029C8.09912 22.6606 8.22712 22.7886 8.38484 22.7886H11.7103C11.868 22.7886 11.996 22.6606 11.996 22.5029C11.996 22.3451 11.8683 22.2171 11.7103 22.2171Z" fill="black"/>
<path d="M11.7103 23.9206H8.38484C8.22712 23.9206 8.09912 24.0486 8.09912 24.2063C8.09912 24.364 8.22712 24.492 8.38484 24.492H11.7103C11.868 24.492 11.996 24.364 11.996 24.2063C11.996 24.0486 11.8683 23.9206 11.7103 23.9206Z" fill="black"/>
<path d="M11.7103 25.6237H8.38484C8.22712 25.6237 8.09912 25.7517 8.09912 25.9094C8.09912 26.0671 8.22712 26.1951 8.38484 26.1951H11.7103C11.868 26.1951 11.996 26.0671 11.996 25.9094C11.996 25.7517 11.8683 25.6237 11.7103 25.6237Z" fill="black"/>
<path d="M11.7103 27.3271H8.38484C8.22712 27.3271 8.09912 27.4551 8.09912 27.6129C8.09912 27.7706 8.22712 27.8986 8.38484 27.8986H11.7103C11.868 27.8986 11.996 27.7706 11.996 27.6129C11.996 27.4551 11.8683 27.3271 11.7103 27.3271Z" fill="black"/>
<path d="M5.24888 20.514H1.92317C1.76545 20.514 1.63745 20.642 1.63745 20.7997C1.63745 20.9574 1.76545 21.0854 1.92317 21.0854H5.24859C5.40631 21.0854 5.53431 20.9574 5.53431 20.7997C5.53431 20.642 5.40659 20.514 5.24888 20.514Z" fill="black"/>
<path d="M5.24888 22.2171H1.92317C1.76545 22.2171 1.63745 22.3451 1.63745 22.5029C1.63745 22.6606 1.76545 22.7886 1.92317 22.7886H5.24859C5.40631 22.7886 5.53431 22.6606 5.53431 22.5029C5.53431 22.3451 5.40659 22.2171 5.24888 22.2171Z" fill="black"/>
<path d="M5.24888 23.9206H1.92317C1.76545 23.9206 1.63745 24.0486 1.63745 24.2063C1.63745 24.364 1.76545 24.492 1.92317 24.492H5.24859C5.40631 24.492 5.53431 24.364 5.53431 24.2063C5.53431 24.0486 5.40659 23.9206 5.24888 23.9206Z" fill="black"/>
<path d="M5.24888 25.6237H1.92317C1.76545 25.6237 1.63745 25.7517 1.63745 25.9094C1.63745 26.0671 1.76545 26.1951 1.92317 26.1951H5.24859C5.40631 26.1951 5.53431 26.0671 5.53431 25.9094C5.53431 25.7517 5.40659 25.6237 5.24888 25.6237Z" fill="black"/>
<path d="M5.24888 27.3271H1.92317C1.76545 27.3271 1.63745 27.4551 1.63745 27.6129C1.63745 27.7706 1.76545 27.8986 1.92317 27.8986H5.24859C5.40631 27.8986 5.53431 27.7706 5.53431 27.6129C5.53431 27.4551 5.40659 27.3271 5.24888 27.3271Z" fill="black"/>
<path d="M21.2617 11.0926H21.1306C20.9728 11.0926 20.8448 11.2206 20.8448 11.3783V12.3963C20.8448 12.554 20.9728 12.682 21.1306 12.682H21.2617C21.4194 12.682 21.5474 12.554 21.5474 12.3963V11.3783C21.5474 11.2206 21.4197 11.0926 21.2617 11.0926Z" fill="black"/>
</svg>
