<svg width="30" height="32" viewBox="0 0 30 32" fill="none" xmlns="http://www.w3.org/2000/svg">
<path d="M16.4279 8.78491C15.6342 9.5769 14.3478 9.5769 13.5541 8.78491C12.7606 7.99292 12.7606 6.70874 13.5541 5.91675C14.3478 5.12476 15.6342 5.12476 16.4279 5.91675C17.2213 6.70874 17.2213 7.99292 16.4279 8.78491Z" fill="#FBA800"/>
<path d="M19.2042 11.8578C18.9566 11.8578 18.709 11.7634 18.5206 11.5742C18.1436 11.1967 18.1443 10.5851 18.5218 10.2084C19.2867 9.44501 19.7078 8.43012 19.7078 7.35077C19.7078 6.27142 19.2867 5.25653 18.5218 4.4931C18.1443 4.11615 18.1436 3.50482 18.5206 3.12714C18.8973 2.7497 19.5089 2.74896 19.8863 3.12592C21.0169 4.25433 21.6395 5.75458 21.6395 7.35077C21.6395 8.94672 21.0169 10.4472 19.8863 11.5756C19.6978 11.7639 19.451 11.8578 19.2042 11.8578Z" fill="#FBA800"/>
<path d="M21.3878 14.7014C21.1402 14.7014 20.8926 14.6069 20.7042 14.4179C20.3272 14.0402 20.3279 13.4289 20.7054 13.0519C22.2313 11.529 23.0718 9.50433 23.0718 7.35077C23.0718 5.19721 22.2313 3.17255 20.7054 1.6496C20.3279 1.27264 20.3272 0.661316 20.7042 0.283631C21.0811 -0.0938106 21.6924 -0.094543 22.0699 0.28241C23.9615 2.17035 25.0035 4.6806 25.0032 7.35077C25.0032 10.0209 23.9615 12.5314 22.0699 14.4194C21.8814 14.6074 21.6346 14.7014 21.3878 14.7014Z" fill="#FBA800"/>
<path d="M10.7734 11.8579C10.5266 11.8579 10.2798 11.7639 10.0911 11.5757C8.96045 10.4473 8.33789 8.94681 8.33789 7.35086C8.33789 5.75467 8.96045 4.25443 10.0911 3.12601C10.4685 2.74905 11.0801 2.74954 11.4568 3.12723C11.8337 3.50467 11.833 4.11624 11.4556 4.49319C10.6907 5.25662 10.2695 6.27152 10.2695 7.35086C10.2695 8.43021 10.6907 9.4451 11.4556 10.2085C11.833 10.5852 11.8337 11.1968 11.4568 11.5742C11.2683 11.7632 11.0208 11.8579 10.7734 11.8579Z" fill="#FBA800"/>
<path d="M8.58838 14.7014C8.34131 14.7014 8.09448 14.6074 7.90601 14.4191C6.0144 12.5312 4.97266 10.0209 4.97266 7.35077C4.97266 4.68036 6.0144 2.17011 7.90601 0.282166C8.28345 -0.094543 8.89502 -0.0940547 9.27173 0.283631C9.64868 0.661072 9.64795 1.2724 9.27051 1.64935C7.74463 3.1723 6.90405 5.19696 6.90405 7.35053C6.90405 9.50409 7.74463 11.529 9.27051 13.0519C9.64795 13.4289 9.64868 14.0402 9.27173 14.4179C9.08325 14.6069 8.83569 14.7014 8.58838 14.7014Z" fill="#FBA800"/>
<path fill-rule="evenodd" clip-rule="evenodd" d="M27.7175 16.3711H2.25928C1.01147 16.3711 0 17.3826 0 18.6301V29.7407C0 30.9885 1.01147 32 2.25928 32H27.7173C28.9651 32 29.9766 30.9885 29.9766 29.7407V18.6301C29.9766 17.3826 28.9651 16.3711 27.7175 16.3711ZM7.42944 29.1013H3.87109C3.33789 29.1013 2.90552 28.6689 2.90552 28.1355V20.2356C2.90552 19.7024 3.33789 19.2698 3.87109 19.2698C4.40454 19.2698 4.83691 19.7021 4.83691 20.2356V27.1697H7.42944C7.96289 27.1697 8.39526 27.6021 8.39526 28.1355C8.39526 28.6689 7.96289 29.1013 7.42944 29.1013ZM10.4216 29.1013C10.9551 29.1013 11.3875 28.6689 11.3875 28.1355V20.2356C11.3875 19.7021 10.9551 19.2698 10.4216 19.2698C9.88818 19.2698 9.45581 19.7024 9.45581 20.2356V28.1355C9.45581 28.6689 9.88818 29.1013 10.4216 29.1013ZM19.5134 20.5149L17.1284 28.4146L17.1277 28.4167C16.8687 29.3008 15.5481 29.2791 15.28 28.4167L15.2793 28.4146L12.8943 20.5149C12.7402 20.0042 13.0291 19.4653 13.5398 19.311C14.05 19.157 14.5894 19.4458 14.7434 19.9565L16.2039 24.7937L17.6643 19.9565C17.8186 19.4458 18.3574 19.1567 18.8682 19.311C19.3787 19.4653 19.6677 20.0042 19.5134 20.5149ZM26.4209 23.6882C26.4209 23.1548 25.9885 22.7224 25.4551 22.7224H22.7141V21.2014H26.1055C26.6387 21.2014 27.0713 20.769 27.0713 20.2356C27.0713 19.7021 26.6387 19.2698 26.1055 19.2698H21.7485C21.2151 19.2698 20.7827 19.7024 20.7827 20.2356V28.1355C20.7827 28.6689 21.2151 29.1013 21.7485 29.1013H25.9753C26.5088 29.1013 26.9412 28.6689 26.9412 28.1355C26.9412 27.6021 26.5088 27.1697 25.9753 27.1697H22.7144V24.6541H25.4551C25.9885 24.6541 26.4209 24.2214 26.4209 23.6882Z" fill="#5DC2A7"/>
</svg>
