<svg width="22" height="20" viewBox="0 0 22 20" fill="none" xmlns="http://www.w3.org/2000/svg">
<path d="M6.1875 9.625H4.8125C4.45655 9.625 4.16797 9.91358 4.16797 10.2695C4.16797 10.6255 4.45655 10.9141 4.8125 10.9141H6.1875C6.54345 10.9141 6.83203 10.6255 6.83203 10.2695C6.83203 9.91358 6.54345 9.625 6.1875 9.625Z" fill="black"/>
<path d="M6.1875 12.375H4.8125C4.45655 12.375 4.16797 12.6636 4.16797 13.0195C4.16797 13.3755 4.45655 13.6641 4.8125 13.6641H6.1875C6.54345 13.6641 6.83203 13.3755 6.83203 13.0195C6.83203 12.6636 6.54345 12.375 6.1875 12.375Z" fill="black"/>
<path d="M6.1875 15.125H4.8125C4.45655 15.125 4.16797 15.4136 4.16797 15.7695C4.16797 16.1255 4.45655 16.4141 4.8125 16.4141H6.1875C6.54345 16.4141 6.83203 16.1255 6.83203 15.7695C6.83203 15.4136 6.54345 15.125 6.1875 15.125Z" fill="black"/>
<path d="M11.6875 9.625H10.3125C9.95655 9.625 9.66797 9.91358 9.66797 10.2695C9.66797 10.6255 9.95655 10.9141 10.3125 10.9141H11.6875C12.0435 10.9141 12.332 10.6255 12.332 10.2695C12.332 9.91358 12.0435 9.625 11.6875 9.625Z" fill="black"/>
<path d="M11.6875 12.375H10.3125C9.95655 12.375 9.66797 12.6636 9.66797 13.0195C9.66797 13.3755 9.95655 13.6641 10.3125 13.6641H11.6875C12.0435 13.6641 12.332 13.3755 12.332 13.0195C12.332 12.6636 12.0435 12.375 11.6875 12.375Z" fill="black"/>
<path d="M11.6875 15.125H10.3125C9.95655 15.125 9.66797 15.4136 9.66797 15.7695C9.66797 16.1255 9.95655 16.4141 10.3125 16.4141H11.6875C12.0435 16.4141 12.332 16.1255 12.332 15.7695C12.332 15.4136 12.0435 15.125 11.6875 15.125Z" fill="black"/>
<path d="M17.1875 9.625H15.8125C15.4565 9.625 15.168 9.91358 15.168 10.2695C15.168 10.6255 15.4565 10.9141 15.8125 10.9141H17.1875C17.5435 10.9141 17.832 10.6255 17.832 10.2695C17.832 9.91358 17.5435 9.625 17.1875 9.625Z" fill="black"/>
<path d="M17.1875 12.375H15.8125C15.4565 12.375 15.168 12.6636 15.168 13.0195C15.168 13.3755 15.4565 13.6641 15.8125 13.6641H17.1875C17.5435 13.6641 17.832 13.3755 17.832 13.0195C17.832 12.6636 17.5435 12.375 17.1875 12.375Z" fill="black"/>
<path d="M17.1875 15.125H15.8125C15.4565 15.125 15.168 15.4136 15.168 15.7695C15.168 16.1255 15.4565 16.4141 15.8125 16.4141H17.1875C17.5435 16.4141 17.832 16.1255 17.832 15.7695C17.832 15.4136 17.5435 15.125 17.1875 15.125Z" fill="black"/>
<path fill-rule="evenodd" clip-rule="evenodd" d="M20.0664 1.71875H18.5195V0.644531C18.5195 0.288578 18.231 0 17.875 0C17.519 0 17.2305 0.288578 17.2305 0.644531V1.71875H11.6445V0.644531C11.6445 0.288578 11.356 0 11 0C10.644 0 10.3555 0.288578 10.3555 0.644531V1.71875H4.76953V0.644531C4.76953 0.288578 4.48095 0 4.125 0C3.76905 0 3.48047 0.288578 3.48047 0.644531V1.71875H1.93359C0.86741 1.71875 0 2.58616 0 3.65234V17.918C0 18.9842 0.86741 19.8516 1.93359 19.8516H20.0664C21.1326 19.8516 22 18.9842 22 17.918V3.65234C22 2.58616 21.1326 1.71875 20.0664 1.71875ZM1.28906 3.65234C1.28906 3.29695 1.5782 3.00781 1.93359 3.00781H3.48047V4.08203C3.48047 4.43798 3.76905 4.72656 4.125 4.72656C4.48095 4.72656 4.76953 4.43798 4.76953 4.08203V3.00781H10.3555V4.08203C10.3555 4.43798 10.644 4.72656 11 4.72656C11.356 4.72656 11.6445 4.43798 11.6445 4.08203V3.00781H17.2305V4.08203C17.2305 4.43798 17.519 4.72656 17.875 4.72656C18.231 4.72656 18.5195 4.43798 18.5195 4.08203V3.00781H20.0664C20.4218 3.00781 20.7109 3.29695 20.7109 3.65234V6.1875H1.28906V3.65234ZM1.28906 17.918C1.28906 18.2734 1.5782 18.5625 1.93359 18.5625H20.0664C20.4218 18.5625 20.7109 18.2734 20.7109 17.918V7.47656H1.28906V17.918Z" fill="black"/>
</svg>
