<svg width="58" height="62" viewBox="0 0 58 62" fill="none" xmlns="http://www.w3.org/2000/svg">
<path d="M51.6867 33.8973H52.3945C54.9097 33.8973 56.9406 31.8238 56.8712 29.2929C56.8042 26.8536 54.7415 24.9404 52.3014 24.9404H48.4191H41.7068H33.8887C31.9812 24.9404 30.7866 22.8782 31.7355 21.2236C33.3945 18.3309 34.5977 15.1998 35.3028 11.9407L36.3735 6.99205C36.9491 4.26829 35.2075 1.59369 32.4838 1.01825C29.76 0.442696 27.0854 2.18427 26.51 4.90791L25.9913 7.36248C25.2845 10.7074 24.0537 13.9198 22.3442 16.8807L18.9984 22.6758C17.228 25.7421 13.9563 27.631 10.4155 27.631V57.6503H16.2203C18.5648 57.6503 20.8785 58.1832 22.9868 59.209C25.095 60.2347 27.4087 60.7676 29.7532 60.7676H41.6392H47.2422H48.4191V60.6103C50.3214 60.0934 51.7206 58.3552 51.7206 56.2892C51.7206 54.2233 50.3214 52.485 48.4191 51.9682V51.8109H49.72C52.1934 51.8109 54.1984 49.8058 54.1984 47.3325C54.1984 44.8592 52.1934 42.8541 49.72 42.8541H51.6866C54.1599 42.8541 56.165 40.849 56.165 38.3757C56.1651 35.9022 54.16 33.8973 51.6867 33.8973Z" fill="#FFDDCE"/>
<path d="M29.58 6.9919L28.5093 11.9405C27.8042 15.1998 26.6009 18.3308 24.942 21.2234C23.993 22.8782 25.1876 24.9403 27.0952 24.9403H33.8889C31.9815 24.9403 30.7869 22.8781 31.7358 21.2234C33.3947 18.3308 34.5979 15.1996 35.3031 11.9405L36.3738 6.9919C36.9493 4.26814 35.2078 1.59354 32.484 1.0181C30.8343 0.669597 29.2037 1.17189 28.0455 2.22662C29.3199 3.39154 29.9628 5.18046 29.58 6.9919Z" fill="#FFCBBE"/>
<path d="M51.6868 33.8973H52.3946C54.9098 33.8973 56.9407 31.8238 56.8713 29.2929C56.8043 26.8536 54.7416 24.9404 52.3015 24.9404H48.4192H45.5076C47.9478 24.9404 50.0105 26.8537 50.0775 29.2929C50.1469 31.8238 48.116 33.8973 45.6008 33.8973H44.893C47.3663 33.8973 49.3714 35.9023 49.3714 38.3757C49.3714 40.849 47.3663 42.8541 44.893 42.8541H42.9264C45.3997 42.8541 47.4048 44.8591 47.4048 47.3325C47.4048 49.8058 45.3997 51.8109 42.9264 51.8109H41.6255V51.9682C43.5278 52.4851 44.927 54.2233 44.927 56.2892C44.927 58.355 43.5278 60.0933 41.6255 60.6103V60.7676H41.6393H47.2423H48.4192V60.6103C50.3215 60.0933 51.7207 58.3552 51.7207 56.2892C51.7207 54.2233 50.3215 52.485 48.4192 51.9682V51.8109H49.7201C52.1935 51.8109 54.1985 49.8058 54.1985 47.3325C54.1985 44.8591 52.1935 42.8541 49.7201 42.8541H51.6867C54.16 42.8541 56.1651 40.849 56.1651 38.3757C56.1652 35.9022 54.1601 33.8973 51.6868 33.8973Z" fill="#FFCBBE"/>
<path d="M10.9666 61.0918H3.91941C2.31249 61.0918 1.00977 59.789 1.00977 58.1821V26.8375C1.00977 25.2306 2.31249 23.9279 3.91941 23.9279H10.9666C12.5735 23.9279 13.8762 25.2306 13.8762 26.8375V58.1821C13.8762 59.789 12.5735 61.0918 10.9666 61.0918Z" fill="#5DC2A7"/>
<path d="M10.9667 23.9277H10.2613C10.6014 24.404 10.8021 24.9865 10.8021 25.6163V51.466C10.8021 53.0729 9.49941 54.3757 7.89249 54.3757H1.00977V58.1821C1.00977 59.789 2.31249 61.0918 3.91941 61.0918H10.9666C12.5735 61.0918 13.8762 59.789 13.8762 58.1821V26.8375C13.8763 25.2305 12.5736 23.9277 10.9667 23.9277V23.9277Z" fill="#5DC2A7"/>
<path d="M55.0043 34.135C56.6824 33.2027 57.8371 31.3866 57.779 29.2685C57.6998 26.3815 55.2425 24.0328 52.3013 24.0328H47.1827C46.6854 24.0328 46.2517 24.416 46.2368 24.9131C46.2215 25.4274 46.6338 25.8492 47.1446 25.8492H52.3012C54.2679 25.8492 55.9106 27.4054 55.9632 29.3184C56.0182 31.3241 54.4371 32.9895 52.3094 32.9895C51.6881 32.9895 39.3575 32.9895 39.9035 32.9895C39.4062 32.9895 38.9725 33.3727 38.9576 33.8698C38.9423 34.3841 39.3546 34.8059 39.8654 34.8059C40.1132 34.8059 51.7701 34.8059 51.6106 34.8059C53.5532 34.8059 55.1974 36.3261 55.255 38.2678C55.315 40.2855 53.691 41.9462 51.6865 41.9462C49.2247 41.9462 39.5984 41.9462 39.9034 41.9462C39.4061 41.9462 38.9724 42.3294 38.9575 42.8265C38.9421 43.3408 39.3545 43.7626 39.8652 43.7626H49.6439C51.5865 43.7626 53.2307 45.2828 53.2884 47.2245C53.3483 49.2422 51.7243 50.9029 49.7199 50.9029H41.153C40.6556 50.9029 40.222 51.2861 40.2071 51.7832C40.1917 52.2975 40.604 52.7193 41.1148 52.7193C44.2803 52.7437 47.4522 52.6443 48.1776 52.8439C48.1786 52.8441 48.1795 52.8445 48.1806 52.8447C49.73 53.2659 50.8121 54.6823 50.8121 56.2894C50.8121 57.8773 49.7558 59.279 48.2362 59.7184C46.3381 59.9648 46.5121 59.8148 29.7533 59.8596C27.5595 59.8596 25.357 59.3523 23.3843 58.3924C21.1653 57.3129 18.6881 56.7423 16.2206 56.7423H14.7845V27.615C16.8768 26.6901 18.6379 25.1175 19.7852 23.1303C22.0827 18.7514 25.3225 14.9228 26.8801 7.55083C27.3538 6.00264 27.1464 3.83385 29.1655 2.5017C30.9588 1.31849 33.2873 1.72912 34.5854 3.26617C35.4302 4.2664 35.7496 5.55278 35.486 6.80065C34.5762 10.2725 34.3346 14.8671 30.9479 20.7722C29.6553 23.0264 31.2562 25.8491 33.9585 25.8491H42.8249C43.3222 25.8491 43.7559 25.4658 43.7708 24.9687C43.7861 24.4544 43.3738 24.0327 42.863 24.0327H33.9339C32.6613 24.0327 31.9245 22.7206 32.5237 21.6758C36.0814 15.4722 36.3567 10.6218 37.2623 7.18028C37.5909 5.62556 37.2943 4.03596 36.4273 2.70453C34.6336 -0.0504701 30.952 -0.82874 28.1963 0.965506C25.3497 2.81885 25.5655 5.77329 25.1033 7.17531C23.6216 14.1877 20.5168 17.8421 18.2126 22.2221C17.3612 23.6967 16.104 24.8979 14.607 25.6867C14.1174 24.1425 12.671 23.0202 10.9669 23.0202H3.91989C1.81141 23.0202 0.102051 24.7295 0.102051 26.838V46.806C0.102051 47.3032 0.485191 47.7369 0.982281 47.7519C1.49657 47.7674 1.91846 47.3551 1.91846 46.8442V26.838C1.91846 25.7327 2.81455 24.8366 3.91989 24.8366H10.9671C12.0724 24.8366 12.9685 25.7327 12.9685 26.838V58.1823C12.9685 59.2876 12.0724 60.1837 10.9671 60.1837H3.91989C2.81455 60.1837 1.91846 59.2876 1.91846 58.1823V51.1637C1.91846 50.6665 1.53532 50.2329 1.03823 50.2178C0.523941 50.2023 0.102051 50.6147 0.102051 51.1256V58.1823C0.102051 60.2908 1.81141 62.0001 3.91989 62.0001H10.9671C12.9453 62.0001 14.5765 60.4878 14.7661 58.5587H16.2325C18.4634 58.5587 20.6531 59.096 22.6641 60.0616C24.8639 61.1179 27.3134 61.676 29.7537 61.676C46.3129 61.6246 46.3842 61.7986 48.5396 61.5106C50.3727 61.2655 52.6289 59.1125 52.6289 56.2894C52.6289 54.8543 52.0566 53.52 51.1047 52.538C53.4059 51.9253 55.1067 49.8243 55.1067 47.3327C55.1067 45.815 54.4758 44.4418 53.4625 43.4619C55.5629 42.7265 57.0733 40.7245 57.0733 38.3761C57.0733 36.6562 56.263 35.1218 55.0043 34.135Z" fill="black"/>
</svg>
