<svg width="65" height="62" viewBox="0 0 65 62" fill="none" xmlns="http://www.w3.org/2000/svg">
<path d="M63.3913 23.6501C62.8853 22.0924 61.4338 21.0379 59.796 21.0379H41.5082L35.857 3.64539C35.3509 2.08771 33.8995 1.0332 32.2617 1.0332L24.7007 30.4885L32.2617 49.4959L47.0567 60.2451C47.7193 60.7265 48.499 60.967 49.2789 60.967C50.0588 60.967 50.8385 60.7263 51.5011 60.2451C52.8261 59.2825 53.3805 57.5761 52.8743 56.0185L47.2232 38.626L62.0183 27.8767C63.3431 26.914 63.8974 25.2078 63.3913 23.6501Z" fill="#5DC2A7"/>
<path d="M28.6665 3.64539L23.0153 21.0379H4.72743C3.0896 21.0379 1.63802 22.0925 1.13206 23.6501C0.625983 25.2077 1.18033 26.914 2.50526 27.8768L17.3003 38.6261L11.6491 56.0185C11.1429 57.5762 11.6974 59.2825 13.0223 60.2451C13.6849 60.7265 14.4646 60.967 15.2445 60.967C16.0244 60.967 16.8041 60.7263 17.4667 60.2451L32.2617 49.4959V1.0332C30.624 1.0332 29.1724 2.08783 28.6665 3.64539Z" fill="#5DC2A7"/>
<path d="M42.7789 37.1817L59.7963 24.8177H38.7618L32.2618 4.81274L25.9609 33.7643L32.2618 44.8228L49.279 57.1866L40.2586 37.1817H42.7789Z" fill="#DB2116"/>
<path d="M25.7614 24.8179H4.72705L21.7443 34.6615V37.1818L15.2442 57.1868L32.2615 37.8135L32.2616 30.4886L25.7614 24.8179Z" fill="#FF3A2F"/>
<path d="M32.2617 33.7645L59.7963 24.8179H38.7618L32.2617 33.7645Z" fill="#EBEBEB"/>
<path d="M32.2616 33.7645L4.72705 24.8179L21.7443 37.1818L32.2616 33.7645Z" fill="white"/>
<path d="M32.2619 4.81274L25.7617 24.8177L32.2619 33.7643V4.81274Z" fill="white"/>
<path d="M32.2617 33.7644L49.279 57.1867L42.7789 37.1817L32.2617 33.7644Z" fill="#EBEBEB"/>
<path d="M32.2619 33.7644L15.2446 57.1867L32.262 44.8228L32.2619 33.7644Z" fill="white"/>
<path d="M32.2616 37.8133L26.0306 42.3404L28.4106 35.0155L22.1797 30.4884H29.8815L32.2616 23.1636L34.6416 30.4884H42.3434L36.1125 35.0155L38.4925 42.3404L32.2616 37.8133Z" fill="#4271DB"/>
<path fill-rule="evenodd" clip-rule="evenodd" d="M59.7961 20.0928C61.8498 20.0928 63.6559 21.405 64.2904 23.3582C64.925 25.3112 64.2352 27.4343 62.5737 28.6415L48.3342 38.9871L53.7731 55.7266C54.4076 57.6796 53.7177 59.8028 52.0563 61.0099C50.3948 62.2172 48.1624 62.2168 46.5012 61.0099L32.2617 50.6644L18.0222 61.0099C16.361 62.2168 14.1286 62.2171 12.4671 61.0099C10.8057 59.8028 10.1159 57.6796 10.7504 55.7266L16.1892 38.9871L1.94976 28.6415C0.28836 27.4344 -0.401453 25.3112 0.233164 23.3582C0.867656 21.405 2.67372 20.0928 4.72741 20.0928H22.3285L27.7676 3.35334C28.4021 1.40034 30.2081 0.0881348 32.2618 0.0881348C34.3155 0.0881348 36.1216 1.40034 36.7561 3.35334L42.1952 20.0928H59.7961ZM46.6678 37.8615L61.4627 27.1123C62.4595 26.388 62.8733 25.1141 62.4926 23.9423C62.1119 22.7704 61.0283 21.9831 59.7961 21.9831H41.5085C41.0991 21.9831 40.7362 21.7195 40.6097 21.3301L34.9583 3.93743C34.5776 2.76573 33.494 1.97838 32.2618 1.97838C31.0296 1.97838 29.946 2.7656 29.5653 3.93743L23.914 21.3301C23.7875 21.7195 23.4246 21.9831 23.0151 21.9831H4.72753C3.49535 21.9831 2.41173 22.7703 2.03104 23.9423C1.65034 25.1142 2.06418 26.388 3.06097 27.1123L17.8559 37.8615C18.1872 38.1022 18.3258 38.5288 18.1993 38.9182L12.5482 56.3107C12.1677 57.4825 12.5815 58.7564 13.5783 59.4807C14.5752 60.2051 15.9145 60.2049 16.9114 59.4807L31.7064 48.7317C31.8719 48.6113 32.0669 48.5511 32.2618 48.5511C32.4568 48.5511 32.6517 48.6113 32.8173 48.7317L47.6123 59.4807C48.6092 60.2048 49.9485 60.2049 50.9454 59.4807C51.9422 58.7564 52.3561 57.4825 51.9754 56.3107L46.3244 38.9182C46.1978 38.5288 46.3365 38.1022 46.6678 37.8615Z" fill="black"/>
<path fill-rule="evenodd" clip-rule="evenodd" d="M59.7965 23.8726H39.4487L33.1607 4.52069C33.0342 4.1313 32.6713 3.86768 32.2618 3.86768C31.8524 3.86768 31.4895 4.1313 31.363 4.52069L25.0751 23.8726H4.72742C4.31799 23.8726 3.95506 24.1363 3.82854 24.5256C3.70202 24.915 3.84064 25.3417 4.17194 25.5823L12.6806 31.7643C13.1027 32.0711 13.694 31.9776 14.0007 31.5552C14.3076 31.1329 14.2139 30.5419 13.7916 30.2351L10.1106 27.5606L21.7458 31.3411L26.355 34.6899L21.9107 36.1339L16.8503 32.4571C16.4282 32.1504 15.837 32.2439 15.5302 32.6662C15.2233 33.0885 15.3169 33.6795 15.7392 33.9863L20.6338 37.5425L14.346 56.8944C14.2195 57.2838 14.3581 57.7105 14.6894 57.9512C15.0207 58.1918 15.4692 58.1918 15.8003 57.9512L32.2622 45.991L48.7241 57.9512C48.8897 58.0716 49.0846 58.1317 49.2796 58.1317C49.4745 58.1317 49.6695 58.0714 49.8351 57.9512C50.1664 57.7105 50.305 57.284 50.1785 56.8944L43.8906 37.5425L60.3524 25.5823C60.6837 25.3416 60.8223 24.915 60.6958 24.5255C60.5687 24.1363 60.206 23.8726 59.7965 23.8726ZM53.8295 25.7629L42.1942 29.5434H36.4967L39.2435 25.7629H53.8295ZM33.2072 10.7804L33.2071 10.78H33.2072V10.7804ZM33.2072 10.7804L37.7144 24.6519L34.9678 28.4324L33.2072 23.014V10.7804ZM31.3168 10.78V23.014L29.5563 28.4324L26.8096 24.6519L31.3168 10.78ZM25.2803 25.7629H10.6943L22.3296 29.5434H28.0271L25.2803 25.7629ZM22.4947 37.9316L26.9389 36.4876L25.1783 41.9061L17.9872 51.8036L22.4947 37.9316ZM19.5167 52.9146L31.3168 44.3413V39.6684L26.7076 43.0173L19.5167 52.9146ZM32.262 36.8683C32.067 36.8683 31.8721 36.9285 31.7065 37.0488L27.8288 39.8661L29.3099 35.3077C29.4364 34.9183 29.2978 34.4918 28.9665 34.2511L25.0889 31.4337H29.882C30.2915 31.4337 30.6544 31.1701 30.7809 30.7807L32.2621 26.2222L33.7433 30.7807C33.8698 31.1701 34.2327 31.4337 34.6422 31.4337H39.4353L35.5577 34.2511C35.2264 34.4918 35.0878 34.9183 35.2143 35.3077L36.6953 39.8661L32.8174 37.0488C32.6517 36.9285 32.4568 36.8683 32.262 36.8683ZM33.2071 39.6684V44.3413L45.0073 52.9146L37.8164 43.0173L33.2071 39.6684ZM46.5365 51.8038L39.3453 41.9062L37.5848 36.4877L42.029 37.9318L46.5365 51.8038ZM38.169 34.69L42.6132 36.134L54.4134 27.5607L42.7782 31.3412L38.169 34.69Z" fill="black"/>
</svg>
