<svg width="62" height="49" viewBox="0 0 62 49" fill="none" xmlns="http://www.w3.org/2000/svg">
<path d="M8.65593 0.92952C5.78043 1.09035 3.49951 3.47202 3.49951 6.38631V37.2614H57.5191V6.38631C57.5191 3.36748 55.0722 0.920532 52.0534 0.920532H51.5794" fill="#5DC2A7"/>
<path d="M61.0794 37.2614V40.8644C61.0794 41.9906 60.7847 43.0464 60.2682 43.9608C59.185 45.8784 57.1287 47.1726 54.7717 47.1726H7.22913C3.74484 47.1726 0.920898 44.3486 0.920898 40.8644V37.2614H61.0794Z" fill="#CCCCCC"/>
<path d="M61.0796 37.2614V40.8644C61.0796 41.9906 60.7849 43.0464 60.2684 43.9608C59.6936 44.1339 59.0849 44.2261 58.4548 44.2261H10.9122C7.42796 44.2261 4.60449 41.4022 4.60449 37.9179V37.2614H61.0796Z" fill="#E6E6E6"/>
<path d="M33.1357 42.2172H25.6733C23.9596 42.2172 22.5703 40.8275 22.5703 39.1137V37.2614H36.2388V39.1137C36.2388 40.8275 34.8495 42.2172 33.1357 42.2172Z" fill="white"/>
<path d="M12.6432 20.0112L20.4338 14.9504C20.5871 14.8274 20.8018 14.7971 21.0166 14.7971C21.9371 14.7971 23.1026 15.7786 23.1026 17.0359C23.1026 17.5577 22.8879 18.0175 22.5506 18.2322L17.152 21.7288L22.5506 25.2254C22.8879 25.4401 23.1026 25.9004 23.1026 26.4216C23.1026 27.6794 21.9371 28.6609 21.0166 28.6609C20.8018 28.6609 20.5871 28.6302 20.4338 28.5077L12.6432 23.4468C11.9374 22.9866 11.6924 22.2501 11.6924 21.7288C11.6924 21.2075 11.9374 20.4715 12.6432 20.0112Z" fill="#3E4B5C"/>
<path d="M38.7456 8.17145C38.7456 8.35545 38.7148 8.57021 38.6226 8.75421L27.8259 30.8694C27.6111 31.3292 27.0283 31.6362 26.446 31.6362C25.403 31.6362 24.728 30.7772 24.728 30.0104C24.728 29.8264 24.7895 29.6117 24.8813 29.4277L35.6473 7.31291C35.8928 6.79117 36.3838 6.54614 36.9358 6.54614C37.7948 6.54614 38.7456 7.18993 38.7456 8.17145Z" fill="#3E4B5C"/>
<path d="M48.376 23.4468L40.5848 28.5077C40.4316 28.6302 40.2168 28.6609 40.0021 28.6609C39.082 28.6609 37.9165 27.6794 37.9165 26.4216C37.9165 25.9004 38.1313 25.4401 38.4685 25.2254L43.8671 21.7288L38.4685 18.2322C38.1313 18.0175 37.9165 17.5577 37.9165 17.0359C37.9165 15.7786 39.082 14.7971 40.0021 14.7971C40.2168 14.7971 40.4316 14.8274 40.5848 14.9504L48.376 20.0112C49.0813 20.4715 49.3268 21.2075 49.3268 21.7288C49.3268 22.2501 49.0813 22.9866 48.376 23.4468Z" fill="#3E4B5C"/>
<path fill-rule="evenodd" clip-rule="evenodd" d="M61.079 36.3404H58.44V6.38675C58.44 2.8651 55.5749 0 52.0533 0L8.65584 0.0085144C8.63881 0.0085144 8.62178 0.00898743 8.60428 0.00993347C5.22548 0.199142 2.57892 2.99991 2.57892 6.38675V36.3404H0.920975C0.412476 36.3404 0 36.7529 0 37.2614V40.8649C0 44.851 3.24257 48.0936 7.22873 48.0936H45.9787C46.4877 48.0936 46.8997 47.6816 46.8997 47.1731C46.8997 46.6646 46.4877 46.2521 45.9787 46.2521H7.22873C4.25815 46.2521 1.84148 43.8355 1.84148 40.8649V38.1824H21.6493V39.1138C21.6493 41.3327 23.4543 43.1378 25.6733 43.1378H33.1352C35.3542 43.1378 37.1592 41.3327 37.1592 39.1138V38.1824H60.1585V40.8649C60.1585 43.8355 57.7419 46.2521 54.7713 46.2521H49.0486C48.5401 46.2521 48.1277 46.6646 48.1277 47.1731C48.1277 47.6816 48.5401 48.0936 49.0486 48.0936H54.7713C58.7574 48.0936 62 44.851 62 40.8649V37.2614C62 36.7529 61.5875 36.3404 61.079 36.3404ZM35.3177 39.1138C35.3177 40.3171 34.3386 41.2963 33.1357 41.2963H25.6733C24.4699 41.2963 23.4908 40.3171 23.4908 39.1138V38.1819H35.3177V39.1138ZM4.42039 6.38675V36.3404H56.5986V6.38675C56.5986 3.88068 54.5594 1.84148 52.0533 1.84148H51.5793L8.6828 1.84999C6.29073 1.99663 4.42039 3.98474 4.42039 6.38675Z" fill="black"/>
<path fill-rule="evenodd" clip-rule="evenodd" d="M18.845 21.7287L23.0502 24.4529C23.6476 24.8327 24.0227 25.5891 24.0227 26.4216C24.0227 27.2499 23.6779 28.0469 23.0521 28.667C22.4651 29.2484 21.7234 29.5814 21.0162 29.5814C20.5592 29.5814 20.1941 29.4764 19.9027 29.2607L12.1409 24.2187C11.1305 23.5598 10.771 22.5007 10.771 21.7287C10.771 20.9572 11.1305 19.8981 12.1395 19.2397C12.1397 19.2397 12.1399 19.2396 12.1402 19.2395C12.1404 19.2393 12.1406 19.2392 12.1409 19.2392L19.9027 14.1968C20.1941 13.9811 20.5592 13.8761 21.0162 13.8761C21.7234 13.8761 22.4655 14.2096 23.0521 14.7905C23.6779 15.4106 24.0227 16.2081 24.0227 17.0359C24.0227 17.8689 23.6476 18.6252 23.044 19.0089L18.845 21.7287ZM20.9377 27.7371C20.9547 27.7385 20.9802 27.7399 21.0162 27.7399C21.4149 27.7399 22.1812 27.1832 22.1812 26.4216C22.1812 26.1728 22.0885 26.0266 22.0545 26.0016L16.6511 22.5017C16.3891 22.3323 16.2311 22.0409 16.2311 21.7287C16.2311 21.4165 16.3891 21.1256 16.6511 20.9563L22.0497 17.4592C22.0885 17.4313 22.1812 17.2847 22.1812 17.0359C22.1812 16.2743 21.4154 15.7176 21.0167 15.7176C20.9807 15.7176 20.9552 15.7195 20.9377 15.7209L20.9353 15.7223L13.1441 20.7832C12.6276 21.1214 12.6125 21.6677 12.6125 21.7287C12.6125 21.7902 12.6276 22.3375 13.1456 22.6753L20.9348 27.7352C20.9353 27.7354 20.9358 27.7358 20.9362 27.7361C20.9367 27.7365 20.9372 27.7368 20.9377 27.7371Z" fill="black"/>
<path d="M39.6662 8.17152C39.6662 6.64839 38.2542 5.62524 36.9359 5.62524C35.9894 5.62524 35.1961 6.10962 34.8196 6.90997L32.8263 11.0049C32.6035 11.4623 32.7936 12.0134 33.251 12.2362C33.708 12.4585 34.259 12.2684 34.4818 11.8114L36.4808 7.70465C36.5116 7.63985 36.5929 7.46672 36.9359 7.46672C37.2982 7.46672 37.8247 7.74155 37.8247 8.17152C37.8247 8.26944 37.8058 8.32951 37.7954 8.35033L26.9986 30.4655C26.9963 30.4703 26.9939 30.475 26.9915 30.4802C26.9532 30.562 26.7323 30.7153 26.4457 30.7153C25.8894 30.7153 25.6491 30.2484 25.6491 30.0129C25.65 29.9911 25.6652 29.9197 25.7096 29.8307L33.3035 14.2314C33.5263 13.774 33.3362 13.2229 32.8788 13.0001C32.4218 12.7778 31.8703 12.968 31.648 13.4249L24.0578 29.0157C23.8965 29.3393 23.8076 29.6922 23.8076 30.0105C23.8076 30.6373 24.0716 31.2711 24.5328 31.7498C25.0342 32.2701 25.7134 32.5568 26.4461 32.5568C27.4045 32.5568 28.2919 32.0393 28.6566 31.2673L39.4462 9.16629C39.6283 8.80254 39.6662 8.42459 39.6662 8.17152Z" fill="black"/>
<path fill-rule="evenodd" clip-rule="evenodd" d="M41.1156 14.1968L48.8775 19.2392C49.8878 19.8981 50.2473 20.9572 50.2473 21.7287C50.2473 22.5007 49.8878 23.5598 48.8784 24.2178C48.8782 24.218 48.878 24.2182 48.8777 24.2184C48.8775 24.2186 48.8772 24.2187 48.877 24.2187L41.1156 29.2607C40.8242 29.4769 40.4591 29.5819 40.0021 29.5819C39.295 29.5819 38.5528 29.2484 37.9662 28.667C37.3404 28.0469 36.9956 27.2499 36.9956 26.4216C36.9956 25.5891 37.3707 24.8327 37.9743 24.4486L42.1733 21.7287L37.9681 19.0051C37.3707 18.6252 36.9956 17.8689 36.9956 17.0359C36.9956 16.2081 37.3404 15.4106 37.9662 14.7905C38.5528 14.2096 39.295 13.8761 40.0021 13.8761C40.4591 13.8761 40.8242 13.9811 41.1156 14.1968ZM40.0835 27.7352L47.8732 22.6748C48.3912 22.3371 48.4063 21.7898 48.4063 21.7287C48.4063 21.6673 48.3912 21.12 47.8732 20.7822L40.0835 15.7223C40.083 15.7218 40.0821 15.7209 40.0811 15.7204C40.0641 15.719 40.0386 15.7176 40.0026 15.7176C39.6039 15.7176 38.8376 16.2743 38.8376 17.0359C38.8376 17.2847 38.9307 17.4309 38.9643 17.4559L44.3677 20.9558C44.6297 21.1256 44.7882 21.4165 44.7882 21.7287C44.7882 22.0409 44.6297 22.3318 44.3677 22.5017L38.9695 25.9982C38.9307 26.0266 38.8376 26.1728 38.8376 26.4216C38.8376 27.1832 39.6034 27.7399 40.0021 27.7399C40.0381 27.7399 40.0636 27.7385 40.0811 27.7371C40.0821 27.7361 40.0826 27.7357 40.0835 27.7352Z" fill="black"/>
</svg>
