<svg width="62" height="62" viewBox="0 0 62 62" fill="none" xmlns="http://www.w3.org/2000/svg">
<path d="M36.2673 41.4746V47.5293L38.3093 55.4678L31.8675 58.7505L24.5371 54.3107L25.7322 47.5293V41.4746L36.2673 41.4746Z" fill="#ECBD83"/>
<path d="M29.668 61.0918H11.8066C10.4686 61.0918 9.38477 60.008 9.38477 58.6699V57.2168C9.38477 51.8669 13.7223 47.5293 19.0723 47.5293H25.7324L29.668 61.0918Z" fill="#5DC2A7"/>
<path d="M52.6152 57.2168V58.6699C52.6152 60.008 51.5314 61.0918 50.1934 61.0918H32.332L36.2676 47.5293H42.9277C48.2777 47.5293 52.6152 51.8669 52.6152 57.2168Z" fill="#5DC2A7"/>
<path d="M52.6152 57.2168V58.6699C52.6152 60.008 51.5314 61.0918 50.1934 61.0918H46.5605C47.8986 61.0918 48.9824 60.008 48.9824 58.6699V57.2168C48.9824 51.8669 44.6448 47.5293 39.2949 47.5293H42.9277C48.2777 47.5293 52.6152 51.8669 52.6152 57.2168Z" fill="#FBA800"/>
<path d="M35.7024 58.1653L32.332 61.0918H29.668L25.8333 58.125L25.248 51.9492H34.7539L35.7024 58.1653Z" fill="#FCF1F2"/>
<path d="M41.2288 56.1148L35.7227 61.0918H32.332L36.2676 47.5293H42.9277L38.7718 53.2449C38.4339 53.7075 38.6531 54.365 39.2005 54.5334L41.0011 55.0868C41.4504 55.2248 41.5775 55.8 41.2288 56.1148Z" fill="#FFE07D"/>
<path d="M42.9277 47.5293L42.5257 48.0815C41.5146 47.7243 40.4271 47.5293 39.2949 47.5293H42.9277Z" fill="#FFD064"/>
<path d="M29.668 61.0918H26.2773L20.7712 56.1148C20.4225 55.8 20.5496 55.2248 20.9989 55.0868L22.7995 54.5334C23.3469 54.365 23.5661 53.7075 23.2282 53.2449L19.0723 47.5293H25.7324L29.668 61.0918Z" fill="#FFE07D"/>
<path d="M31 51.9492L28.0393 55.4779L25.7324 47.5293L31 51.9492Z" fill="white"/>
<path d="M36.2673 47.5293L33.9605 55.4767L31.001 51.9492L36.2673 47.5293Z" fill="white"/>
<path d="M17.5952 15.3625C17.0472 15.0519 16.3969 14.901 15.7076 14.9727C14.2181 15.1275 13.029 16.3473 12.9073 17.8399C12.8621 18.3936 12.9607 18.92 13.1693 19.3863C13.2943 19.6655 13.1913 19.9899 12.9315 20.1515C12.0383 20.7069 11.4434 21.6968 11.4434 22.8262C11.4434 23.8527 11.9346 24.7646 12.695 25.3393L18.4657 25.1713L17.5952 15.3625Z" fill="#FCF1F2"/>
<path d="M44.405 15.3625C44.9529 15.0519 45.6032 14.901 46.2926 14.9727C47.7821 15.1275 48.9712 16.3473 49.0929 17.8399C49.1381 18.3936 49.0395 18.92 48.8309 19.3863C48.7059 19.6655 48.8088 19.9899 49.0687 20.1515C49.962 20.7069 50.5568 21.6968 50.5568 22.8261C50.5568 23.8526 50.0655 24.7644 49.3052 25.3391L44.1592 26.1708L44.405 15.3625Z" fill="#F4E5E0"/>
<path d="M42.8066 24.0371H47.2266C49.2664 24.0371 50.9199 25.6906 50.9199 27.7305C50.9199 29.7703 49.2664 31.4238 47.2266 31.4238H42.8066V24.0371Z" fill="#ECBD83"/>
<path d="M19.1934 24.0371H14.7734C12.7336 24.0371 11.0801 25.6906 11.0801 27.7305C11.0801 29.7703 12.7336 31.4238 14.7734 31.4238H19.1934V24.0371Z" fill="#ECBD83"/>
<path d="M23.8314 6.5972C19.6085 9.06497 16.7715 13.6464 16.7715 18.8906V29.0625C16.7715 36.9206 23.1417 43.291 31 43.291C38.8581 43.291 45.2285 36.9208 45.2285 29.0625V18.8906C45.2285 13.5619 42.2993 8.91747 37.9631 6.47949L23.8314 6.5972Z" fill="#F6D190"/>
<path d="M45.2285 18.8906V29.0625C45.2285 32.9908 43.6361 36.5485 41.0605 39.123C38.486 41.6986 34.9283 43.291 31 43.291C30.3848 43.291 29.7782 43.2523 29.1836 43.176C32.3865 42.7679 35.2564 41.2954 37.4277 39.123C40.0033 36.5485 41.5957 32.9908 41.5957 29.0625V18.8906C41.5957 13.5843 38.6895 8.95489 34.3821 6.51001L37.9629 6.47974C42.2993 8.91735 45.2285 13.5625 45.2285 18.8906Z" fill="#ECBD83"/>
<path d="M37.2969 31.4238C35.2571 31.4238 33.6035 29.7703 33.6035 27.7305C33.6035 25.6906 35.2571 24.0371 37.2969 24.0371C39.3367 24.0371 40.9902 25.6906 40.9902 27.7305C40.9902 29.7703 39.3367 31.4238 37.2969 31.4238Z" fill="#E6FCFF"/>
<path d="M24.7031 31.4238C22.6633 31.4238 21.0098 29.7703 21.0098 27.7305C21.0098 25.6906 22.6633 24.0371 24.7031 24.0371C26.7429 24.0371 28.3965 25.6906 28.3965 27.7305C28.3965 29.7703 26.7429 31.4238 24.7031 31.4238Z" fill="#E6FCFF"/>
<path d="M35.6783 1.97141C35.2672 1.97141 34.8745 2.0506 34.5148 2.19458C34.0911 2.36411 33.6149 2.25477 33.3056 1.91934C32.7327 1.29776 31.912 0.908203 31 0.908203C30.0879 0.908203 29.2672 1.29776 28.6943 1.91934C28.3851 2.25489 27.9088 2.36411 27.4851 2.19458C27.1253 2.05072 26.7327 1.97141 26.3216 1.97141C24.5894 1.97141 23.1851 3.37573 23.1851 5.10798V5.42694C23.1851 7.15918 24.5894 8.56351 26.3216 8.56351C26.7327 8.56351 27.1253 8.48431 27.4851 8.34033C27.9088 8.1708 28.3851 8.28015 28.6943 8.61558C29.2672 9.23715 30.0879 9.62671 31 9.62671C31.912 9.62671 32.7327 9.23715 33.3056 8.61558C33.6149 8.28003 34.0911 8.1708 34.5148 8.34033C34.8746 8.48419 35.2672 8.56351 35.6783 8.56351C37.4105 8.56351 38.8149 7.15918 38.8149 5.42694V5.10798C38.8149 3.37573 37.4107 1.97141 35.6783 1.97141Z" fill="#FCF1F2"/>
<path d="M38.8154 5.10776V5.42745C38.8154 6.29327 38.4643 7.07675 37.8963 7.64468C37.3284 8.21261 36.5437 8.56378 35.6779 8.56378C35.2674 8.56378 34.875 8.48507 34.5154 8.34097C34.2563 8.23683 33.9777 8.23804 33.7295 8.33007C34.6038 7.66647 35.1826 6.53909 35.1826 5.42745V5.10776C35.1826 3.99612 34.6038 2.86874 33.7295 2.20515C33.9777 2.29718 34.2563 2.29839 34.5154 2.19425C34.875 2.05015 35.2674 1.97144 35.6779 1.97144C37.4107 1.97144 38.8154 3.37612 38.8154 5.10776Z" fill="#F4E5E0"/>
<path d="M36.1251 33.9705C35.8019 33.5868 35.2294 33.5372 34.8454 33.8603C32.571 35.7742 29.4097 35.7752 27.1581 33.863C26.7758 33.5383 26.2027 33.5851 25.878 33.9674C25.5534 34.3497 25.6001 34.9228 25.9824 35.2476C27.4534 36.4969 29.2205 37.1214 30.9911 37.1214C32.7599 37.1214 34.5325 36.4976 36.0149 35.2502C36.3987 34.9271 36.448 34.3543 36.1251 33.9705Z" fill="black"/>
<path fill-rule="evenodd" clip-rule="evenodd" d="M42.9277 46.6211H37.1758V42.881C41.489 40.9457 44.7374 37.0486 45.78 32.332H47.2266C49.7638 32.332 51.8281 30.2677 51.8281 27.7305C51.8281 26.6778 51.472 25.7072 50.875 24.931C51.2577 24.3 51.4648 23.5711 51.4648 22.8262C51.4648 21.4987 50.831 20.2803 49.7571 19.5191C49.9635 18.9639 50.0466 18.3629 49.9979 17.7661C49.8396 15.8253 48.3208 14.2705 46.3863 14.0693C46.0395 14.0333 45.6955 14.0406 45.3578 14.0906C44.3338 11.0201 42.3367 8.32483 39.5966 6.43214C39.679 6.11063 39.7231 5.77387 39.7231 5.42706V5.1081C39.7231 2.87779 37.9086 1.0632 35.6783 1.0632C35.1605 1.0632 34.6556 1.16008 34.1774 1.35129C34.1042 1.38059 34.0279 1.36279 33.9733 1.30357C33.2096 0.475172 32.1259 0 31 0C29.8739 0 28.7902 0.475172 28.0264 1.30382C27.9719 1.36291 27.8955 1.38059 27.8224 1.35129C27.3444 1.16008 26.8395 1.0632 26.3215 1.0632C24.0912 1.0632 22.2768 2.87767 22.2768 5.1081V5.42706C22.2768 5.77363 22.3207 6.11027 22.4031 6.43153C19.6613 8.32495 17.6643 11.0198 16.6407 14.0916C16.3041 14.0418 15.9608 14.0332 15.6135 14.0693C13.6789 14.2705 12.16 15.8251 12.0018 17.766C11.9533 18.3628 12.0362 18.9636 12.2427 19.5191C11.169 20.2803 10.5352 21.4987 10.5352 22.8262C10.5352 23.5731 10.7419 24.3005 11.1248 24.9313C10.5279 25.7075 10.1719 26.6779 10.1719 27.7305C10.1719 30.2677 12.2362 32.332 14.7734 32.332H16.22C17.2626 37.0485 20.5111 40.9457 24.8242 42.881V46.6211H19.0723C13.2297 46.6211 8.47656 51.3743 8.47656 57.2168V58.6699C8.47656 60.5062 9.9705 62 11.8066 62H13.1589C13.6606 62 14.0671 61.5934 14.0671 61.0918C14.0671 60.5902 13.6606 60.1836 13.1589 60.1836H11.8066C10.9719 60.1836 10.293 59.5046 10.293 58.6699V57.2168C10.293 52.5282 13.9875 48.6862 18.6183 48.4491L22.4337 53.6953L20.7317 54.2189C20.2125 54.3787 19.8168 54.8075 19.6993 55.3379C19.5816 55.8683 19.7589 56.4242 20.162 56.7886L23.9181 60.1836H17.3972C16.8955 60.1836 16.489 60.5902 16.489 61.0918C16.489 61.5934 16.8955 62 17.3972 62H44.6028C45.1045 62 45.511 61.5934 45.511 61.0918C45.511 60.5902 45.1045 60.1836 44.6028 60.1836H38.0819L41.838 56.7886C42.2411 56.4242 42.4184 55.8683 42.3007 55.3379C42.1831 54.8075 41.7875 54.3787 41.2681 54.2189L39.5663 53.6953L43.3817 48.4491C48.0125 48.6862 51.707 52.5282 51.707 57.2168V58.6699C51.707 59.5046 51.0281 60.1836 50.1934 60.1836H48.8411C48.3394 60.1836 47.9329 60.5902 47.9329 61.0918C47.9329 61.5934 48.3394 62 48.8411 62H50.1934C52.0295 62 53.5234 60.5062 53.5234 58.6699V57.2168C53.5234 51.3743 48.7703 46.6211 42.9277 46.6211ZM30.3501 60.1836L29.0464 55.6905L31.0006 53.3617L32.954 55.6897L31.6499 60.1836H30.3501ZM29.7209 52.0609L27.4371 50.1448L28.4369 53.5909L29.7209 52.0609ZM33.5632 53.59L32.2801 52.0609L34.5627 50.1455L33.5632 53.59ZM46.0666 30.5156H47.2266C48.7624 30.5156 50.0117 29.2662 50.0117 27.7305C50.0117 26.1948 48.7624 24.9453 47.2266 24.9453H46.1367V26.8223H47.2871C47.7888 26.8223 48.1953 27.2289 48.1953 27.7305C48.1953 28.232 47.7888 28.6387 47.2871 28.6387H46.1367V29.0625C46.1367 29.5527 46.1124 30.0372 46.0666 30.5156ZM46.1986 15.876C47.2467 15.985 48.1018 16.861 48.1876 17.9138C48.219 18.2987 48.1564 18.6695 48.0018 19.0154C47.694 19.7032 47.9463 20.5232 48.5891 20.9228C49.2526 21.3354 49.6486 22.0469 49.6486 22.8262C49.6486 23.1327 49.5838 23.4336 49.4641 23.7115C48.8011 23.3411 48.0384 23.1289 47.2266 23.1289H46.1367V18.8906C46.1367 17.8638 46.032 16.8527 45.8327 15.8691C45.9534 15.8627 46.0752 15.863 46.1986 15.876ZM26.3217 2.87961C25.0929 2.87961 24.0933 3.87936 24.0933 5.1081H24.0934V5.42706C24.0934 6.65592 25.093 7.65555 26.3218 7.65555C26.6076 7.65555 26.8855 7.60227 27.148 7.49728C27.3924 7.39968 27.6459 7.35209 27.8961 7.35209C28.4418 7.35209 28.9728 7.5778 29.3622 8.00042C29.7892 8.46361 30.3708 8.71875 31 8.71875C31.6291 8.71875 32.2108 8.46361 32.6378 8.0003C33.2057 7.38405 34.0746 7.18643 34.8521 7.4974C35.1145 7.60239 35.3924 7.65555 35.6782 7.65555C36.907 7.65555 37.9066 6.6558 37.9066 5.42706V5.1081C37.9066 3.87924 36.907 2.87961 35.6782 2.87961C35.3924 2.87961 35.1145 2.93289 34.852 3.03788C34.0747 3.34848 33.2056 3.1511 32.6378 2.53473C32.2108 2.07155 31.6291 1.81641 31 1.81641C30.3708 1.81641 29.7892 2.07155 29.3621 2.53473C28.794 3.1511 27.9249 3.34873 27.1478 3.03776C26.8854 2.93277 26.6074 2.87961 26.3217 2.87961ZM13.411 20.9228C14.0538 20.5232 14.3061 19.7032 13.9984 19.0156C13.8437 18.6695 13.7811 18.2988 13.8126 17.9138C13.8983 16.8611 14.7535 15.985 15.8015 15.876C15.9247 15.8632 16.0469 15.8604 16.1675 15.8668C15.968 16.8509 15.8633 17.8627 15.8633 18.8906V23.1289H14.7734C13.9617 23.1289 13.1989 23.3411 12.5361 23.7115C12.4166 23.4338 12.3516 23.1334 12.3516 22.8262C12.3516 22.0468 12.7477 21.3353 13.411 20.9228ZM11.9883 27.7305C11.9883 29.2662 13.2376 30.5156 14.7734 30.5156H15.9334C15.8876 30.0372 15.8633 29.5527 15.8633 29.0625V28.6387H14.7129C14.2112 28.6387 13.8047 28.232 13.8047 27.7305C13.8047 27.2289 14.2112 26.8223 14.7129 26.8223H15.8633V24.9453H14.7734C13.2376 24.9453 11.9883 26.1948 11.9883 27.7305ZM17.6797 29.0625V18.8906C17.6797 14.5669 19.7524 10.5599 23.2516 8.05612C23.994 8.92182 25.0945 9.47195 26.3217 9.47195C26.8395 9.47195 27.3444 9.37508 27.8226 9.18387C27.8958 9.15469 27.972 9.17225 28.0267 9.23146C28.7902 10.06 29.8739 10.5352 31 10.5352C32.1259 10.5352 33.2096 10.06 33.9736 9.23134C34.0281 9.17225 34.1045 9.15457 34.1776 9.18387C34.6556 9.37508 35.1605 9.47195 35.6785 9.47195C36.9057 9.47195 38.0062 8.92182 38.7487 8.056C42.2467 10.5597 44.3203 14.5707 44.3203 18.8906V29.0625C44.3203 36.4073 38.3448 42.3828 31 42.3828C23.6552 42.3828 17.6797 36.4073 17.6797 29.0625ZM35.3594 43.5584C33.9782 43.9745 32.515 44.1992 31 44.1992C29.485 44.1992 28.0218 43.9745 26.6406 43.5583V47.1057L31.0005 50.7633L35.3594 47.1058V43.5584ZM21.7752 55.7984L23.0663 55.4011C23.6031 55.2359 24.0296 54.8191 24.2071 54.2863C24.3848 53.7535 24.2935 53.1643 23.9631 52.7102L20.8557 48.4375H25.0503L28.4587 60.1836H26.6269L21.7752 55.7984ZM38.9338 55.4011C38.3969 55.2358 37.9704 54.8191 37.7929 54.2863C37.6152 53.7535 37.7065 53.1644 38.0369 52.7102L41.1444 48.4375H36.9498L33.5414 60.1836H35.3731L40.2248 55.7983L38.9338 55.4011Z" fill="black"/>
<path d="M24.0371 17.6797H37.9629C38.4646 17.6797 38.8711 17.2731 38.8711 16.7715C38.8711 16.2699 38.4646 15.8633 37.9629 15.8633H24.0371C23.5354 15.8633 23.1289 16.2699 23.1289 16.7715C23.1289 17.2731 23.5354 17.6797 24.0371 17.6797Z" fill="black"/>
<path d="M22.8262 21.3125H39.1738C39.6755 21.3125 40.082 20.9059 40.082 20.4043C40.082 19.9027 39.6755 19.4961 39.1738 19.4961H22.8262C22.3245 19.4961 21.918 19.9027 21.918 20.4043C21.918 20.9059 22.3245 21.3125 22.8262 21.3125Z" fill="black"/>
<path fill-rule="evenodd" clip-rule="evenodd" d="M29.2773 28.2285C30.4445 27.4926 31.5555 27.4926 32.7228 28.2285C32.9719 30.5323 34.9279 32.332 37.2969 32.332C39.8342 32.332 41.8984 30.2677 41.8984 27.7305C41.8984 25.1932 39.8342 23.1289 37.2969 23.1289C35.2658 23.1289 33.539 24.4522 32.9304 26.2816C31.6523 25.7116 30.3477 25.7116 29.0696 26.2816C28.461 24.4522 26.7342 23.1289 24.7031 23.1289C22.1658 23.1289 20.1016 25.1932 20.1016 27.7305C20.1016 30.2677 22.1658 32.332 24.7031 32.332C27.0721 32.332 29.0281 30.5323 29.2773 28.2285ZM37.2969 24.9453C38.8327 24.9453 40.082 26.1948 40.082 27.7305C40.082 29.2662 38.8327 30.5156 37.2969 30.5156C35.761 30.5156 34.5117 29.2662 34.5117 27.7305C34.5117 26.1948 35.761 24.9453 37.2969 24.9453ZM21.918 27.7305C21.918 29.2662 23.1673 30.5156 24.7031 30.5156C26.239 30.5156 27.4883 29.2662 27.4883 27.7305C27.4883 26.1948 26.239 24.9453 24.7031 24.9453C23.1673 24.9453 21.918 26.1948 21.918 27.7305Z" fill="black"/>
</svg>
