<svg width="22" height="22" viewBox="0 0 22 22" fill="none" xmlns="http://www.w3.org/2000/svg">
<path fill-rule="evenodd" clip-rule="evenodd" d="M20.0664 0H1.93359C0.86741 0 0 0.86741 0 1.93359V15.7695C0 16.8357 0.86741 17.7031 1.93359 17.7031H8.06536L7.77468 19.1566C7.59455 20.0573 6.79714 20.7109 5.87864 20.7109H4.125C3.76905 20.7109 3.48047 20.9995 3.48047 21.3555C3.48047 21.7114 3.76905 22 4.125 22H17.875C18.231 22 18.5195 21.7114 18.5195 21.3555C18.5195 20.9995 18.231 20.7109 17.875 20.7109H16.1214C15.2029 20.7109 14.4054 20.0573 14.2253 19.1565L13.9346 17.7031H20.0664C21.1326 17.7031 22 16.8357 22 15.7695V1.93359C22 0.86741 21.1326 0 20.0664 0ZM12.9613 19.4093C13.0582 19.8936 13.2621 20.335 13.5453 20.7109H8.45466C8.73791 20.3351 8.94184 19.8937 9.03869 19.4094L9.37995 17.7031H12.6201L12.9613 19.4093ZM20.0664 16.4141C20.4218 16.4141 20.7109 16.1249 20.7109 15.7695V1.93359C20.7109 1.5782 20.4218 1.28906 20.0664 1.28906H1.93359C1.5782 1.28906 1.28906 1.5782 1.28906 1.93359V15.7695C1.28906 16.1249 1.5782 16.4141 1.93359 16.4141H20.0664Z" fill="black"/>
<path fill-rule="evenodd" clip-rule="evenodd" d="M14.0078 10.7422C14.3638 10.7422 14.6523 10.4536 14.6523 10.0977V9.66797C14.6523 8.30315 13.8994 7.11154 12.7875 6.48471C13.1458 6.07032 13.3633 5.53094 13.3633 4.94141C13.3633 3.63829 12.3031 2.57812 11 2.57812C9.69689 2.57812 8.63672 3.63829 8.63672 4.94141C8.63672 5.53094 8.85423 6.07032 9.2125 6.48471C8.10064 7.11154 7.34766 8.30315 7.34766 9.66797V10.0977C7.34766 10.4536 7.63623 10.7422 7.99219 10.7422H14.0078ZM9.92578 4.94141C9.92578 4.34908 10.4077 3.86719 11 3.86719C11.5923 3.86719 12.0742 4.34908 12.0742 4.94141C12.0742 5.53373 11.5923 6.01562 11 6.01562C10.4077 6.01562 9.92578 5.53373 9.92578 4.94141ZM13.3536 9.45312C13.2448 8.25026 12.2308 7.30469 11 7.30469C9.76925 7.30469 8.75523 8.25026 8.64639 9.45312H13.3536Z" fill="black"/>
<path d="M18.7344 12.9766H6.91797V12.7617C6.91797 12.4058 6.62939 12.1172 6.27344 12.1172C5.91748 12.1172 5.62891 12.4058 5.62891 12.7617V12.9766H3.26562C2.90967 12.9766 2.62109 13.2651 2.62109 13.6211C2.62109 13.977 2.90967 14.2656 3.26562 14.2656H5.62891V14.4805C5.62891 14.8364 5.91748 15.125 6.27344 15.125C6.62939 15.125 6.91797 14.8364 6.91797 14.4805V14.2656H18.7344C19.0903 14.2656 19.3789 13.977 19.3789 13.6211C19.3789 13.2651 19.0903 12.9766 18.7344 12.9766Z" fill="black"/>
</svg>
