<svg width="22" height="19" viewBox="0 0 22 19" fill="none" xmlns="http://www.w3.org/2000/svg">
<path fill-rule="evenodd" clip-rule="evenodd" d="M19.9563 8.33736H20.5386C21.3444 8.33736 22 8.99297 22 9.79881V14.5034C22 15.3092 21.3444 15.9648 20.5386 15.9648H20.5344C19.5742 15.9648 18.7831 15.2273 18.6977 14.289H18.6809C18.2732 14.289 17.9415 14.6208 17.9415 15.0288C17.9415 16.9773 16.3565 18.5625 14.4084 18.5625H10.1955C9.34046 18.5625 8.64488 17.8669 8.64488 17.0119C8.64488 16.1569 9.34046 15.4613 10.1955 15.4613H10.8986C12.0302 15.4613 12.9855 16.2305 13.2694 17.2734H14.4084C15.6457 17.2734 16.6524 16.2665 16.6524 15.0288C16.6524 13.9101 17.5624 12.9999 18.6809 12.9999H18.6901V8.98107C18.6901 4.73967 15.2403 1.28906 11 1.28906C6.75967 1.28906 3.30993 4.73967 3.30993 8.98107V14.1204C3.30993 15.1374 2.48256 15.9648 1.46562 15.9648H1.46141C0.655574 15.9648 0 15.3092 0 14.5034V9.79881C0 8.99297 0.655574 8.33736 1.46141 8.33736H2.04372C2.37471 3.68444 6.26527 0 11 0C15.7347 0 19.6253 3.68444 19.9563 8.33736ZM1.46562 14.6757C1.77177 14.6757 2.02086 14.4266 2.02086 14.1204V9.62642H1.46141C1.36636 9.62642 1.28906 9.70376 1.28906 9.79881V14.5034C1.28906 14.5984 1.36636 14.6757 1.46141 14.6757H1.46562ZM10.1954 17.2734C10.0512 17.2734 9.9339 17.1561 9.9339 17.0119C9.9339 16.8677 10.0512 16.7504 10.1954 16.7504H10.8985C11.3043 16.7504 11.6623 16.9584 11.8716 17.2734H10.1954ZM20.5386 14.6757C20.6336 14.6757 20.7109 14.5984 20.7109 14.5034V9.79881C20.7109 9.70376 20.6336 9.62642 20.5386 9.62642H19.9791V14.1204C19.9791 14.4266 20.2282 14.6757 20.5344 14.6757H20.5386Z" fill="black"/>
<path d="M10.5384 12.2016C10.5384 11.8457 10.2499 11.5571 9.8939 11.5571H7.39054C7.31144 11.5571 7.24707 11.4926 7.24707 11.4133C7.24707 10.7823 7.76029 10.2688 8.39116 10.2688C9.57516 10.2688 10.5384 9.30539 10.5384 8.12121C10.5384 6.93704 9.5752 5.97363 8.39116 5.97363H6.60254C6.24659 5.97363 5.95801 6.26221 5.95801 6.61816C5.95801 6.97412 6.24659 7.2627 6.60254 7.2627H8.39116C8.86437 7.2627 9.24937 7.64782 9.24937 8.12121C9.24937 8.5946 8.86437 8.97977 8.39116 8.97977C7.0495 8.97977 5.95801 10.0714 5.95801 11.4133C5.95801 12.2034 6.60065 12.8461 7.39054 12.8461H9.8939C10.2499 12.8461 10.5384 12.5576 10.5384 12.2016Z" fill="black"/>
<path d="M12.106 5.97363C11.75 5.97363 11.4614 6.26221 11.4614 6.61816V8.32377C11.4614 9.27802 12.2377 10.0544 13.1918 10.0544H14.7528V12.2016C14.7528 12.5576 15.0414 12.8461 15.3974 12.8461C15.7533 12.8461 16.0419 12.5576 16.0419 12.2016V6.61816C16.0419 6.26221 15.7533 5.97363 15.3974 5.97363C15.0414 5.97363 14.7528 6.26221 14.7528 6.61816V8.76536H13.1918C12.9485 8.76536 12.7505 8.56727 12.7505 8.32381V6.61821C12.7505 6.26221 12.4619 5.97363 12.106 5.97363Z" fill="black"/>
</svg>
