<svg width="22" height="20" viewBox="0 0 22 20" fill="none" xmlns="http://www.w3.org/2000/svg">
<path fill-rule="evenodd" clip-rule="evenodd" d="M20.0962 4.23145V2.75C20.0962 1.70022 19.2421 0.846154 18.1923 0.846154H9.28239L8.94985 0.303177C8.83448 0.114823 8.62954 0 8.40865 0H1.90385C0.854065 0 0 0.854065 0 1.90385V17.9808C0 19.0306 0.854065 19.8846 1.90385 19.8846H20.0962C21.1459 19.8846 22 19.0306 22 17.9808V6.13529C22 5.08547 21.1459 4.23145 20.0962 4.23145ZM18.1923 2.11538C18.5422 2.11538 18.8269 2.40007 18.8269 2.75V4.23077H11.3551L10.0597 2.11538H18.1923ZM20.0962 18.6154C20.4461 18.6154 20.7308 18.3307 20.7308 17.9808V6.13525C20.7308 5.78532 20.4461 5.50063 20.0962 5.50063H11C10.7791 5.50063 10.5742 5.38581 10.4588 5.19746L10.4585 5.19699L10.4584 5.19682L8.38564 1.81221L8.38555 1.81204L8.05314 1.26923H1.90385C1.55392 1.26923 1.26923 1.55392 1.26923 1.90385V17.9808C1.26923 18.3307 1.55392 18.6154 1.90385 18.6154H20.0962Z" fill="black"/>
<path fill-rule="evenodd" clip-rule="evenodd" d="M7.39145 11.1953H14.6076C14.9581 11.1953 15.2422 11.4795 15.2422 11.8299V14.3768C15.2422 14.7273 14.9581 15.0114 14.6076 15.0114H7.39145C7.04097 15.0114 6.75684 14.7273 6.75684 14.3768V11.8299C6.75684 11.4795 7.04097 11.1953 7.39145 11.1953ZM8.02607 13.7422H13.973V12.4645H8.02607V13.7422Z" fill="black"/>
</svg>
