<svg width="36" height="36" viewBox="0 0 36 36" fill="none" xmlns="http://www.w3.org/2000/svg">
<path d="M18 0C8.05645 0 0 8.05645 0 18C0 27.9435 8.05645 36 18 36C27.9435 36 36 27.9435 36 18C36 8.05645 27.9435 0 18 0ZM18 32.5161C9.99436 32.5161 3.48387 26.0056 3.48387 18C3.48387 9.99436 9.99436 3.48387 18 3.48387C26.0056 3.48387 32.5161 9.99436 32.5161 18C32.5161 26.0056 26.0056 32.5161 18 32.5161ZM24.0968 22.1081C22.5871 23.9226 20.3589 24.9677 18 24.9677C15.6411 24.9677 13.4129 23.9298 11.9032 22.1081C11.2863 21.3677 10.1831 21.2734 9.45 21.8831C8.70968 22.5 8.61532 23.596 9.225 24.3363C11.4024 26.9492 14.6032 28.4444 18 28.4444C21.3968 28.4444 24.5976 26.9492 26.775 24.3363C27.3919 23.596 27.2903 22.5 26.55 21.8831C25.8169 21.2734 24.7137 21.3677 24.0968 22.1081Z" fill="black"/>
<circle cx="12.5" cy="15.5" r="2.5" fill="#FBA800"/>
<circle cx="23.5" cy="15.5" r="2.5" fill="#FBA800"/>
</svg>
