<svg width="32" height="32" viewBox="0 0 32 32" fill="none" xmlns="http://www.w3.org/2000/svg">
<path d="M16 0C24.8368 0 32 7.1632 32 16C32 24.8368 24.8368 32 16 32C12.2696 32.0054 8.65545 30.702 5.78722 28.3168L5.39682 27.9824L6.84002 24.9392C8.90078 27.0513 11.628 28.3866 14.5602 28.7189C17.4923 29.0513 20.4493 28.3603 22.9305 26.7629C25.4117 25.1656 27.2648 22.76 28.1761 19.9533C29.0874 17.1466 29.0009 14.1112 27.9314 11.361C26.8618 8.61069 24.8748 6.31446 22.3067 4.86091C19.7386 3.40736 16.7471 2.88579 13.8386 3.38447C10.9302 3.88316 8.28331 5.37146 6.3461 7.59749C4.40889 9.82351 3.30032 12.6505 3.20802 15.6L3.20002 16H7.20002L2.87042 25.1456C0.997158 22.4641 -0.0050452 19.271 1.90988e-05 16C1.90988e-05 7.1632 7.16322 0 16 0Z" fill="black"/>
<path d="M17.8 6V9.2H21.8V12.4H13C12.8001 12.3996 12.6073 12.4741 12.4595 12.6088C12.3118 12.7435 12.2199 12.9286 12.2018 13.1277C12.1837 13.3268 12.2409 13.5255 12.362 13.6845C12.483 13.8436 12.6593 13.9516 12.856 13.9872L13 14H19.4C20.4609 14 21.4783 14.4214 22.2284 15.1716C22.9786 15.9217 23.4 16.9391 23.4 18C23.4 19.0609 22.9786 20.0783 22.2284 20.8284C21.4783 21.5786 20.4609 22 19.4 22H17.8V25.2H14.6V22H10.6V18.8H19.4C19.5999 18.8004 19.7927 18.7259 19.9404 18.5912C20.0882 18.4565 20.1801 18.2714 20.1982 18.0723C20.2163 17.8732 20.1591 17.6745 20.038 17.5155C19.917 17.3564 19.7407 17.2484 19.544 17.2128L19.4 17.2H13C11.9391 17.2 10.9217 16.7786 10.1716 16.0284C9.42143 15.2783 9 14.2609 9 13.2C9 12.1391 9.42143 11.1217 10.1716 10.3716C10.9217 9.62143 11.9391 9.2 13 9.2H14.6V6H17.8Z" fill="#FBA800"/>
</svg>
