<svg width="42" height="32" viewBox="0 0 42 32" fill="none" xmlns="http://www.w3.org/2000/svg">
<path fill-rule="evenodd" clip-rule="evenodd" d="M13.7144 1.34149e-06C14.1655 -3.6294e-05 14.6066 0.133423 14.982 0.383568C15.3574 0.633713 15.6504 0.989357 15.8241 1.40571L24.3772 21.9313L24.416 22.0273L27.2526 28.8341C27.486 29.3937 27.4875 30.023 27.2569 30.5837C27.0263 31.1443 26.5824 31.5904 26.0229 31.8238C25.4634 32.0572 24.834 32.0588 24.2734 31.8282C23.7127 31.5975 23.2666 31.1536 23.0332 30.5941L20.7612 25.1427H6.66757L4.39558 30.5941C4.16219 31.1536 3.71609 31.5975 3.15541 31.8282C2.59474 32.0588 1.96541 32.0572 1.40588 31.8238C0.846354 31.5904 0.402458 31.1443 0.171843 30.5837C-0.058772 30.023 -0.057215 29.3937 0.176174 28.8341L3.01273 22.0273L3.05387 21.9313L11.6024 1.40571C11.7762 0.988997 12.0696 0.633107 12.4455 0.382934C12.8213 0.13276 13.2629 -0.000487731 13.7144 1.34149e-06ZM18.8572 20.5713L13.7144 8.22853L8.57156 20.5713H18.8572Z" fill="black"/>
<path d="M25.1431 6.8571C24.5369 6.8571 23.9555 7.09792 23.5269 7.52657C23.0982 7.95522 22.8574 8.5366 22.8574 9.14281C22.8574 9.74901 23.0982 10.3304 23.5269 10.759C23.9555 11.1877 24.5369 11.4285 25.1431 11.4285H29.7145V15.9999C29.7145 16.6061 29.9553 17.1875 30.384 17.6161C30.8126 18.0448 31.394 18.2856 32.0002 18.2856C32.6064 18.2856 33.1878 18.0448 33.6165 17.6161C34.0451 17.1875 34.2859 16.6061 34.2859 15.9999V11.4285H38.8573C39.4635 11.4285 40.0449 11.1877 40.4736 10.759C40.9022 10.3304 41.143 9.74901 41.143 9.14281C41.143 8.5366 40.9022 7.95522 40.4736 7.52657C40.0449 7.09792 39.4635 6.8571 38.8573 6.8571H34.2859V2.2857C34.2859 1.6795 34.0451 1.09812 33.6165 0.669467C33.1878 0.240815 32.6064 0 32.0002 0C31.394 0 30.8126 0.240815 30.384 0.669467C29.9553 1.09812 29.7145 1.6795 29.7145 2.2857V6.8571H25.1431Z" fill="#FBA800"/>
</svg>
