<svg width="235" height="184" viewBox="0 0 235 184" fill="none" xmlns="http://www.w3.org/2000/svg">
<g filter="url(#filter0_d)">
<path d="M200.163 160H211.837C212.481 160 213 160.52 213 161.154V173H199V161.154C198.995 160.515 199.519 160 200.163 160Z" fill="#231F20"/>
<path d="M212 170.65C212 170.676 212 170.681 211.974 170.711C211.832 170.925 211.474 171.23 211.042 170.727C211.037 170.716 211.005 170.676 211 170.65V169.06L211.005 167.419V166.535C211.005 166.535 211.105 165.076 211.258 164.055C211.468 162.317 211.689 163.013 211.805 164.091C211.826 163.979 211.995 166.667 211.995 166.667V167.429V169.07V170.65H212Z" fill="white"/>
<path d="M212 173.948C212 173.952 212 173.952 211.974 173.957C211.832 173.989 211.474 174.035 211.042 173.957C211.037 173.957 211.005 173.948 211 173.943C211 173.925 211.005 172.546 211.005 172.546C211.005 172.546 211.105 172.32 211.258 172.163C211.468 171.895 211.689 172.001 211.805 172.167C211.826 172.149 211.995 172.564 211.995 172.564C211.995 172.564 212 173.929 212 173.948Z" fill="white"/>
<path d="M89.4678 75.8242C89.2263 74.2928 89.1512 72.7292 89.0546 71.1709C88.5394 71.0205 87.9867 70.9614 87.4125 71.0258C81.7402 71.6653 75.7513 72.3047 70.2829 74.0241C67.1704 75.0021 64.4389 76.8021 62.2172 79.1825C60.8219 80.6817 59.432 82.2453 58.4339 84.0454L45.0554 107.102C41.6906 113.539 38.5191 120.073 34.3977 126.075C30.126 132.292 26.2783 139.165 28.8059 146.935C31.6179 155.569 39.2114 160.373 46.8639 164.306C49.4773 165.65 53.0782 165.075 54.5486 162.291C55.9063 159.718 55.3267 156.032 52.5362 154.597C51.9244 154.28 51.3073 153.968 50.6955 153.646C48.286 149.578 47.0034 145.93 46.1662 140.825C46.1394 140.669 46.1179 140.546 46.1018 140.454C46.0965 140.352 46.0857 140.213 46.0643 140.014C46.0052 139.337 45.9462 138.66 45.914 137.983C45.8496 136.725 45.8443 135.463 45.8979 134.205C45.9247 133.528 45.973 132.851 46.0374 132.174C46.0589 131.916 46.0857 131.658 46.1179 131.406C46.134 131.32 46.1501 131.212 46.1662 131.078C46.1716 131.056 46.1716 131.04 46.177 131.019C50.395 125.581 54.8759 120.229 60.033 115.393C63.0812 112.54 65.3726 110.659 68.6032 108.537C73.052 106.414 78.2627 106.194 83.817 106.377C89.339 106.56 94.8503 107.134 100.362 106.769C108.277 108.016 116.219 109.445 124.108 111.046C124.51 111.127 124.924 111.164 125.337 111.17C129.533 112.223 133.66 113.47 137.17 115.125C138.506 115.759 139.815 116.446 141.082 117.209C141.715 117.591 142.343 117.983 142.955 118.397C143.336 118.655 143.711 118.924 144.087 119.192C144.184 119.262 144.307 119.353 144.388 119.418C145.23 120.095 146.041 120.815 146.813 121.573C149.378 125.629 152.48 129.289 155.899 132.652C156.296 133.163 156.763 133.614 157.283 133.985C157.326 134.028 157.374 134.071 157.417 134.114C159.703 136.258 162.065 138.31 164.415 140.379C167.029 142.679 169.583 145.446 172.508 147.348C176.817 150.148 181.421 147.741 183.895 143.829C185.634 141.083 186.836 137.897 187.646 134.759C189.508 127.575 189.943 119.826 189.997 112.427C190.056 104.496 189.299 96.5813 187.947 88.7685C187.501 86.2001 184.834 84.8514 182.532 84.6418C179.441 84.3624 176.747 86.5063 175.395 89.1178C174.177 91.4766 174.021 94.1848 173.747 96.7801C173.264 101.326 173.227 105.899 173.178 110.461C173.13 114.894 173.087 119.337 172.599 123.749C172.599 123.743 172.454 124.829 172.454 124.877C172.379 125.371 172.298 125.871 172.207 126.366C172.03 127.333 171.826 128.295 171.585 129.246C171.413 129.928 171.22 130.61 171.01 131.287C168.971 129.504 168.359 125.839 166.739 123.018C163.503 114.297 162.065 113.625 157.348 105.614C157.224 105.205 154.036 100.638 153.113 98.6446C150.216 92.3847 147.672 87.898 145.541 86.9846C143.47 86.098 135.732 85.3726 133.29 85.1093C131.498 84.803 128.53 83.9916 126.941 85.8078C126.303 86.5332 125.128 87.2317 124.403 87.8712C124.237 88.0162 123.174 88.6718 123.003 88.8115C122.648 89.064 122.289 89.3112 121.924 89.5423C121.108 90.0581 120.26 90.4987 119.396 90.9339C119.289 90.9877 119.251 91.0092 119.246 91.0199C119.192 91.0414 119.128 91.0629 119.047 91.0951C118.554 91.2778 118.055 91.4552 117.55 91.6164C116.622 91.9065 115.683 92.1429 114.728 92.3256C114.475 92.374 114.089 92.4331 114.025 92.4492C113.617 92.4922 113.209 92.5298 112.801 92.5513C111.83 92.6104 110.858 92.6104 109.887 92.5621C109.447 92.5406 109.007 92.4868 108.567 92.46C109.742 92.5352 108.057 92.374 107.923 92.3471C106.05 91.9979 104.183 91.4659 102.417 90.7405C102.444 90.7459 101.929 90.5094 101.725 90.4074C101.311 90.2085 100.904 89.999 100.496 89.7841C99.5245 89.2628 98.5746 88.6933 97.657 88.0807C97.2706 87.8228 96.8949 87.5595 96.5193 87.2908C96.3797 87.1887 96.0578 86.9362 95.9397 86.8449C95.2099 86.2484 94.5015 85.6305 93.82 84.9803C93.8253 84.9696 90.4391 81.9659 89.4678 75.8242Z" fill="#EB9138"/>
<path d="M138.604 78.9201C138.519 78.9789 138.487 79.0002 138.317 78.9949C137.763 79.027 137.023 78.9148 136.538 78.4555C136.048 77.9962 135.825 77.1844 136.16 75.9025C136.171 75.8545 136.251 75.6622 136.309 75.6035C138.008 74.4178 139.605 73.0665 140.995 71.5123C144.952 67.2236 147.641 61.7225 148.626 55.933L148.882 54.2026L149.025 52.4561C149.025 52.4561 149.1 52.0982 149.137 51.4947C149.18 50.8912 149.308 50.042 149.313 49.0593C149.441 47.0885 149.292 44.589 149.025 42.5007C148.754 40.7435 148.514 39.5846 148.456 38.8796C148.386 38.1746 148.498 37.9236 148.754 38.0197C149.26 38.2066 150.362 39.8249 151.209 42.0467C151.187 41.7904 152.157 44.4661 152.593 47.3555C152.694 48.0766 152.769 48.8029 152.854 49.4919C152.934 50.1809 152.934 50.8271 152.966 51.3826C152.998 51.938 153.009 52.408 152.993 52.7338C152.987 53.0596 152.982 53.2465 152.982 53.2465C152.929 53.8073 152.918 54.3788 152.822 54.9343L152.572 56.6113C151.459 63.1432 148.45 69.3439 143.951 74.2362C142.369 76.0147 140.548 77.5636 138.604 78.9201Z" fill="#202020"/>
<path d="M93.6064 46.4638C93.6224 46.4156 93.6277 46.3942 93.697 46.3461C93.9103 46.1588 94.2408 45.9715 94.5713 46.0036C94.9072 46.0357 95.2377 46.2925 95.4989 46.8918C95.5096 46.9132 95.5362 47.0095 95.5309 47.0523C95.2324 48.0315 95.0724 49.0535 95.0298 50.0968C94.9338 52.2692 95.339 54.495 95.9094 56.6888C96.4958 58.8826 97.1995 61.1084 97.9512 63.2647C99.4865 67.572 101.422 71.7454 104.535 74.9505C107.579 78.2036 111.615 80.4616 115.949 81.4301C118.119 81.9009 120.358 82.0828 122.581 81.9384L122.949 81.917L123.066 81.9063L123.3 81.8849C123.455 81.8688 123.615 81.8635 123.769 81.8421C124.084 81.7993 124.399 81.7725 124.708 81.719C124.708 81.719 125.443 81.6709 126.44 81.5478C127.437 81.4301 128.695 81.2107 129.746 81.0074C131.505 80.6061 132.086 80.5419 131.99 80.8094C131.889 81.0609 131.094 81.6013 130.039 82.0828C130.161 82.0668 128.887 82.6126 127.528 83.0353C126.174 83.474 124.729 83.7469 124.729 83.7469C124.399 83.7843 124.068 83.8325 123.732 83.8646L123.231 83.9074L123.108 83.9181L122.741 83.9449C122.447 83.9609 122.149 83.9823 121.856 83.9877C119.489 84.0626 117.111 83.795 114.808 83.2172C112.51 82.6286 110.277 81.7351 108.245 80.4991C106.209 79.2684 104.354 77.7381 102.749 75.9885C101.139 74.2388 99.8117 72.2377 98.7135 70.1563C97.6313 68.0696 96.7517 65.9079 95.9787 63.7195C95.2217 61.5204 94.534 59.3481 93.9316 57.0847C93.3505 54.8268 92.9133 52.4565 93.0146 50.0112C93.0733 48.8234 93.2545 47.6249 93.6064 46.4638Z" fill="#202020"/>
<path d="M93.1083 47.9823C93.0597 47.9987 93.0436 48.0096 92.9626 47.9878C92.4176 47.9006 91.5865 47.4374 92.2395 46.2058C92.2503 46.184 92.315 46.0914 92.3528 46.0696C92.8547 45.8571 93.3673 45.6609 93.8638 45.432L95.3371 44.7018C97.1557 43.7209 98.9366 42.6419 100.561 41.3449L101.182 40.8762L101.77 40.3694C102.158 40.0261 102.563 39.6992 102.946 39.3449C103.691 38.6202 104.457 37.9172 105.143 37.1325C105.866 36.3859 106.502 35.5576 107.161 34.7565C107.479 34.3478 107.771 33.9173 108.078 33.4977L108.537 32.8655L108.958 32.2061C109.233 31.7647 109.519 31.3288 109.789 30.8819L110.544 29.5141L110.809 29.0346L111.019 28.5931L111.435 27.7158C111.435 27.7158 111.823 27.0618 112.271 26.13C112.768 25.2199 113.27 24.021 113.755 23.0347C115.094 19.5906 115.18 21.0674 114.813 23.4271C114.862 23.3126 114.554 24.6859 114.133 26.07C113.907 26.7567 113.685 27.4542 113.496 27.9719C113.291 28.4842 113.151 28.8275 113.151 28.8275L112.719 29.743C112.574 30.0645 112.444 30.2661 112.142 30.822C111.877 31.2906 111.635 31.7756 111.343 32.2334L110.474 33.6067C109.271 35.3995 107.965 37.1325 106.475 38.6965C105.769 39.5139 104.954 40.2278 104.193 40.9852L102.968 42.0424C102.763 42.2168 102.563 42.3966 102.353 42.5656L101.71 43.056C100.021 44.3966 98.1702 45.5192 96.2761 46.5382L94.7165 47.3121C94.1876 47.5464 93.6426 47.7535 93.1083 47.9823Z" fill="#202020"/>
<path d="M113.106 12.6449C113.111 12.5919 113.111 12.576 113.164 12.5125C113.487 12.0676 114.26 11.5591 115.028 12.6661C115.044 12.6873 115.092 12.7773 115.097 12.825L115.028 13.6142C115.007 13.879 115.018 14.1439 115.013 14.4087L115.002 15.2032C115.002 15.468 115.028 15.7329 115.039 15.9977C115.214 19.5729 116.289 23.0952 117.973 26.2679C119.652 29.4565 122.03 32.2637 124.816 34.5254C127.644 36.7605 130.901 38.4555 134.354 39.5519C136.081 40.0974 137.855 40.5 139.65 40.7701L140.773 40.9237L141.716 41.0138C141.716 41.0138 142.447 41.1462 143.448 41.2627C144.443 41.4004 145.714 41.5169 146.774 41.607C148.569 41.7076 149.141 41.84 148.972 42.0572C148.802 42.2532 147.897 42.5445 146.763 42.714C146.885 42.7299 145.524 42.8994 144.12 42.9682C143.421 42.9894 142.706 43 142.171 43C141.636 42.9841 141.276 42.9735 141.276 42.9735C140.948 42.9417 140.62 42.9206 140.296 42.8729L139.809 42.804L139.391 42.7458C139.158 42.714 138.925 42.6875 138.692 42.6398C136.827 42.3379 134.995 41.8612 133.2 41.2627C129.609 40.071 126.225 38.233 123.275 35.8336C121.786 34.6366 120.462 33.2595 119.26 31.787C118.068 30.3092 116.988 28.7308 116.119 27.0359C114.366 23.6672 113.228 19.9331 113.042 16.1036C113.026 15.8176 113 15.5263 113 15.2403L113.011 14.3769C113.016 14.0909 113.011 13.7996 113.032 13.5136L113.106 12.6449Z" fill="#202020"/>
<path d="M95.4036 64.0365C95.4358 64.0149 95.4465 64.0095 95.5107 64.0203C95.7248 64.0473 96.0621 64.139 96.3351 64.3549C96.592 64.5708 96.8008 64.927 96.4849 65.6503C96.4742 65.6772 96.4046 65.7852 96.3618 65.8284C96.3244 65.8338 95.9764 66.0389 95.3662 66.244C94.7506 66.4598 93.8727 66.6002 92.861 66.5786L92.6683 66.5678L92.5077 66.5624C92.1169 66.5516 91.7368 66.4814 91.3514 66.4329C89.8312 66.1576 88.3752 65.6395 86.9887 64.9054C86.2982 64.533 85.613 64.1174 84.9707 63.5939C84.6762 63.3456 84.3765 63.0974 84.0821 62.8491C83.793 62.5846 83.4986 62.3256 83.2095 62.0503C82.0693 60.9493 80.9773 59.6431 80.244 58.0779C79.5106 56.5182 79.1573 54.791 79.0556 53.1179C78.9432 51.4394 79.0181 49.7662 79.1305 48.1147C79.3607 44.8277 79.7033 41.4113 80.6026 38.0218C81.4966 34.6324 82.8723 31.3832 84.4407 28.2151C86.0198 25.0469 87.8506 21.9651 89.8901 19.002C91.9349 16.0389 94.1725 13.2054 96.6081 10.4852C99.0919 7.77576 101.982 5.3632 105.312 3.64688C106.136 3.2097 107.004 2.84809 107.881 2.50806C108.326 2.35694 108.765 2.18963 109.22 2.06549L109.755 1.90897L110.408 1.64991C112.148 0.969854 113.962 0.489501 115.804 0.235831C119.503 -0.282303 123.207 0.111695 126.708 0.851115C127.586 1.03462 128.458 1.23972 129.315 1.461C129.743 1.55815 130.182 1.70388 130.616 1.83881C131.049 1.97914 131.488 2.10327 131.916 2.2544L133.18 2.77793C133.388 2.86968 133.603 2.94524 133.806 3.04779L134.411 3.36083C134.812 3.57672 135.219 3.77102 135.61 3.9977L136.755 4.72093C137.146 4.95301 137.5 5.22827 137.858 5.49813C138.212 5.77339 138.586 6.02166 138.918 6.31851C139.593 6.90681 140.272 7.47891 140.883 8.11579C142.146 9.35175 143.259 10.7065 144.287 12.0881C146.348 14.8569 148.013 17.7822 149.581 20.632C150.357 22.046 151.144 23.4871 151.835 24.9444C152.177 25.673 152.531 26.3962 152.825 27.141C152.98 27.508 153.13 27.875 153.286 28.2421C153.43 28.6145 153.559 28.9869 153.698 29.3593C155.903 35.28 156.524 41.5085 155.561 46.992C155.1 49.7338 154.34 52.2867 153.457 54.6237C153.023 55.7949 152.552 56.9121 152.086 57.9916C151.808 58.6177 151.54 59.2276 151.278 59.8213C151.128 60.1505 151 60.4419 150.893 60.6794C150.679 61.1544 150.556 61.4242 150.556 61.4242C150.556 61.4242 150.191 62.1043 149.694 63.0164C149.201 63.9285 148.586 65.0782 148.088 66.0335C147.89 66.4436 147.729 66.7837 147.579 67.0589C147.445 67.3342 147.333 67.5447 147.237 67.6958C147.044 67.9981 146.921 68.0628 146.851 67.9441C146.717 67.712 146.787 66.7351 147.065 65.5909C147.001 65.6988 147.376 64.3495 147.852 63.0164C148.318 61.6779 148.837 60.3448 148.837 60.3448C148.837 60.3448 148.955 60.0803 149.169 59.6108C149.415 59.0548 149.715 58.3802 150.063 57.6084C151.787 53.7116 153.489 49.2049 153.906 44.0613C154.088 41.4977 153.981 38.8044 153.473 36.068C152.964 33.3316 152.097 30.5629 150.93 27.8211C150.352 26.4502 149.694 25.0847 148.966 23.73C148.254 22.3699 147.472 20.972 146.696 19.6011C145.138 16.8431 143.425 14.1229 141.37 11.6348C140.321 10.4204 139.229 9.21142 137.981 8.18595C137.387 7.63004 136.707 7.19286 136.07 6.69092L135.043 6.03785L134.529 5.70862L133.988 5.42797L132.907 4.87205L131.777 4.40249L131.21 4.16501C131.017 4.08945 130.819 4.04088 130.626 3.97611L129.449 3.6091C127.827 3.16113 126.157 2.78872 124.486 2.50267C121.152 1.93056 117.731 1.83341 114.444 2.55124C114.032 2.6322 113.625 2.74015 113.218 2.85349C112.812 2.95604 112.41 3.09636 112.014 3.2259C111.612 3.35003 111.222 3.51735 110.831 3.66847L110.537 3.78721L110.392 3.84658L110.247 3.88976L110.098 3.93293L109.493 4.11104C107.898 4.62378 106.351 5.33082 104.894 6.20517C101.972 7.95927 99.397 10.2909 97.1541 12.9301C94.8683 15.5748 92.7432 18.3435 90.8268 21.2257C88.9105 24.1078 87.2029 27.0924 85.7415 30.1473C84.2801 33.2129 83.0489 36.3217 82.3156 39.4953C81.5715 42.6635 81.2932 45.9234 81.0897 49.1185C80.9131 52.2651 80.9613 55.3901 82.3745 57.7919C83.0382 59.0117 84.0232 60.0479 85.0777 61.014C85.3347 61.2569 85.613 61.489 85.8914 61.7157L86.3036 62.0557L86.6943 62.3526C87.2403 62.7358 87.8345 63.065 88.4394 63.3618C89.6545 63.9393 90.9392 64.3495 92.1811 64.4953C92.3364 64.5168 92.4916 64.533 92.6469 64.5384L92.7271 64.5438L92.8021 64.5492L92.952 64.5546C93.7335 64.56 94.3545 64.4521 94.7613 64.3118C95.1628 64.166 95.3769 64.0365 95.4036 64.0365Z" fill="#202020"/>
<path d="M110.454 52.9217C110.469 52.8663 110.474 52.8496 110.542 52.7941C110.742 52.6 111.065 52.4169 111.367 52.4724C111.675 52.5223 111.953 52.8163 112.173 53.4265C112.183 53.4487 112.207 53.5485 112.202 53.5929C111.914 54.5526 111.797 55.5899 111.861 56.605C111.87 56.7325 111.88 56.8601 111.895 56.9822L111.924 57.2262L111.929 57.2484C111.929 57.2484 111.924 57.254 111.963 57.1874C112.027 57.0987 112.07 56.9933 112.124 56.8934C112.227 56.6937 112.31 56.4829 112.378 56.261C112.52 55.8228 112.598 55.3569 112.617 54.8854C112.637 54.4139 112.588 53.9424 112.481 53.4986C112.427 53.2767 112.354 53.0604 112.271 52.8552C112.236 52.7498 112.178 52.6555 112.129 52.5556L112.095 52.4835C110.698 52.4891 113.999 52.4724 113.657 52.478L113.652 52.4835L113.648 52.4946L113.638 52.5168L113.618 52.5556L113.53 52.722C113.086 53.6151 112.783 54.6025 112.647 55.6231C112.529 56.4607 112.52 57.5313 112.715 57.7809C112.744 57.8253 112.735 57.8142 112.759 57.8364C112.769 57.8475 112.813 57.8752 112.803 57.8752H112.808H112.813L112.861 57.7532L112.954 57.4703C113.174 56.7048 113.223 55.8561 113.106 55.0518C113.047 54.6469 112.94 54.253 112.798 53.8814C112.735 53.7039 112.637 53.4931 112.569 53.3766C112.529 53.31 112.49 53.2545 112.451 53.2046C112.422 53.1602 112.359 53.1048 112.373 53.1159H112.368C112.354 53.127 112.271 53.2268 112.227 53.3045C112.168 53.3766 112.119 53.4653 112.08 53.5541C112.027 53.6373 112.002 53.7371 111.968 53.8314C111.929 53.9257 111.919 54.0367 111.885 54.1365C111.87 54.1864 111.87 54.2475 111.861 54.2974L111.846 54.3917C111.797 54.8244 111.856 55.2959 112.002 55.7119C112.002 55.7063 112.012 55.7341 112.012 55.7452C112.007 55.7452 112.002 55.7396 111.997 55.7452C111.992 55.7563 111.983 55.7674 111.978 55.8062C111.973 55.8617 112.002 56.0503 112.183 56.2444C112.3 56.2389 112.471 56.0614 112.461 55.5233C112.368 54.6801 112.134 54.1421 112.022 53.8148C111.895 53.4875 111.895 53.3433 112.022 53.3433C112.144 53.3488 112.407 53.4986 112.691 53.8314C112.979 54.1643 113.281 54.6801 113.467 55.3236C113.447 55.2071 113.609 55.6731 113.648 56.4663C113.657 56.8546 113.643 57.3205 113.545 57.7588C113.452 58.2081 113.33 58.6518 113.174 59.201C112.979 59.1289 112.735 58.9957 112.534 58.9014C112.329 58.8016 112.129 58.7018 111.939 58.5797C111.743 58.4854 111.558 58.2968 111.377 58.1526C111.201 57.9862 111.045 57.7698 110.889 57.5923C110.757 57.3649 110.635 57.1597 110.528 56.9766C110.474 56.8823 110.43 56.788 110.391 56.6882C110.357 56.605 110.327 56.5273 110.298 56.4552C110.254 56.3553 110.23 56.2777 110.215 56.2222C110.2 56.1667 110.191 56.139 110.191 56.139C110.098 55.7951 110.034 55.4456 110.015 55.0851C110 54.9076 109.995 54.7245 110.005 54.5415L110.015 54.2697L110.054 53.9424C110.156 53.2102 110.43 52.4669 110.889 51.8733C110.996 51.7236 111.118 51.5793 111.338 51.3907C111.543 51.2243 111.773 51.0967 112.017 51.0413C112.505 50.9192 113.027 51.0746 113.433 51.4185C114.063 51.9676 114.263 52.5445 114.478 53.0549C114.683 53.5874 114.829 54.1421 114.912 54.7134C115.078 55.8506 115.01 57.0265 114.697 58.136L114.566 58.5464C114.541 58.6185 114.512 58.6962 114.478 58.7739C114.439 58.8626 114.38 58.9847 114.326 59.0845C114.097 59.5005 113.74 59.8112 113.325 59.9332C112.915 60.0608 112.466 59.9998 112.07 59.8001C111.865 59.6947 111.724 59.5837 111.568 59.4395C111.426 59.3064 111.27 59.1011 111.182 58.9403C110.786 58.2413 110.737 57.5313 110.728 56.9655C110.728 56.3997 110.762 55.8672 110.835 55.3236C111.006 54.0589 111.382 52.8274 111.934 51.7125L112.041 51.5072L112.07 51.4573L112.085 51.4296L112.09 51.4185L112.095 51.4129C111.753 51.4129 115.068 51.4018 113.667 51.4074V51.4129L113.726 51.5294C113.799 51.6847 113.887 51.8345 113.945 51.9954C114.077 52.3115 114.185 52.6388 114.268 52.9716C114.434 53.6373 114.497 54.3307 114.473 55.013C114.448 55.6952 114.331 56.372 114.121 57.021C114.019 57.3427 113.892 57.6589 113.74 57.964C113.662 58.1138 113.589 58.2691 113.496 58.4078L113.311 58.7018C113.233 58.8182 113.145 58.907 113.062 59.0124C112.891 59.2065 112.73 59.4451 112.534 59.556C112.344 59.6836 112.149 59.7612 111.934 59.7834C111.504 59.8389 111.06 59.6447 110.762 59.2953C110.459 58.9569 110.235 58.4133 110.161 57.8808L110.098 57.5147L110.069 57.2762C110.049 57.1153 110.039 56.9544 110.025 56.7936C109.942 55.4623 110.083 54.1532 110.454 52.9217Z" fill="#202020"/>
<path d="M135.105 52.9175C135.126 52.8709 135.131 52.8554 135.199 52.8192C135.629 52.5296 136.525 52.2503 136.888 53.5226C136.893 53.5433 136.909 53.6467 136.898 53.6933C136.479 54.6656 136.105 55.5966 135.997 56.512C135.95 56.843 135.94 57.174 135.955 57.5102C135.96 57.6757 135.981 57.8464 136.002 58.0119L136.043 58.2653L136.064 58.3843L136.08 58.4515C136.152 58.6946 136.302 59.0256 136.458 59.2894C136.499 59.3566 136.541 59.4187 136.582 59.4808L136.675 59.6049L136.701 59.579L137.038 59.1911C137.137 59.0567 137.245 58.9222 137.339 58.7825C137.707 58.2291 137.966 57.6447 138.038 57.0344C138.08 56.7293 138.075 56.4189 138.038 56.1086C138.012 55.9534 137.986 55.7931 137.95 55.638L137.862 55.3121C137.852 55.2863 137.857 55.2966 137.852 55.2966V55.3018C137.852 55.3018 137.852 55.3069 137.852 55.2966C137.862 55.2759 137.836 55.3276 137.821 55.369L137.774 55.488C137.712 55.6431 137.66 55.7983 137.613 55.9586C137.432 56.5844 137.38 57.2878 137.365 58.0429C137.349 58.5653 137.38 59.0256 137.494 59.3773C137.546 59.548 137.634 59.7032 137.712 59.7911C137.774 59.8738 137.888 59.9566 138.002 59.998C138.116 60.0445 138.225 60.0497 138.266 60.0394C138.313 60.0238 138.297 60.0445 138.37 59.9618C138.432 59.8842 138.525 59.7032 138.608 59.4653C138.696 59.2377 138.764 59.0049 138.826 58.767C139.064 57.8206 139.106 56.8172 138.94 55.8448C138.857 55.3587 138.722 54.888 138.541 54.4329C138.448 54.2053 138.349 53.9829 138.23 53.7709C138.121 53.5588 138.012 53.3985 137.888 53.2536C137.769 53.114 137.634 53.0054 137.551 52.9692C137.463 52.9278 137.453 52.9382 137.416 52.9433C137.385 52.9485 137.271 53.0054 137.142 53.1399C137.074 53.2019 137.007 53.2899 136.94 53.3778C136.878 53.4657 136.795 53.5433 136.743 53.6415C136.256 54.376 136.007 55.3121 136.085 56.2069C136.09 56.4344 136.142 56.6465 136.188 56.8637L136.282 57.174C136.308 57.2516 136.313 57.2516 136.333 57.293C136.396 57.4223 136.437 57.5619 136.52 57.6757L136.644 57.8826L136.65 57.8878C136.65 57.8878 136.644 57.8981 136.655 57.9343C136.66 57.9499 136.665 57.9757 136.686 58.0016C136.701 58.0274 136.743 58.0843 136.748 58.074C136.769 58.0792 136.789 58.0688 136.826 58.0326C136.862 57.9705 136.883 58.0378 136.986 57.6292C137.157 57.0241 137.334 56.45 137.401 55.9379C137.489 55.157 137.302 54.6449 137.235 54.3191C137.147 53.9984 137.168 53.8639 137.302 53.8846C137.427 53.9105 137.681 54.0812 137.94 54.4432C138.194 54.7949 138.427 55.3638 138.484 55.9948C138.494 55.9069 138.556 56.4758 138.484 57.2051C138.442 57.6033 138.396 58.0585 138.349 58.5291C138.261 59.2584 138.266 60.1997 138.24 61.0324C138.012 60.9755 137.624 60.7893 137.318 60.66C137.012 60.5255 136.743 60.4014 136.51 60.298C136.282 60.1738 136.095 60.0135 135.966 59.9307C135.836 59.8376 135.763 59.7859 135.763 59.7859C135.515 59.5532 135.287 59.2635 135.048 59.0049C134.929 58.8084 134.805 58.617 134.701 58.4153L134.566 58.1102L134.499 57.955L134.484 57.9188C134.478 57.9085 134.473 57.8981 134.458 57.8464L134.385 57.6085C134.188 56.9775 134.105 56.3207 134.136 55.6793C134.183 54.3915 134.634 53.114 135.484 52.1003C135.681 51.8469 135.94 51.5831 136.302 51.3452C136.66 51.1073 137.214 50.9417 137.722 51.0193C138.235 51.0866 138.645 51.3245 138.95 51.5727C139.256 51.8262 139.484 52.1003 139.681 52.3847C139.883 52.6796 140.013 52.9537 140.147 53.2226C140.277 53.5019 140.391 53.7812 140.494 54.0708C140.697 54.6449 140.836 55.2397 140.919 55.8448C141.08 57.0499 141.002 58.286 140.671 59.4601C140.588 59.7549 140.489 60.0445 140.375 60.3342C140.256 60.629 140.101 60.9858 139.774 61.3375C139.453 61.6944 138.914 61.9633 138.437 61.9892C137.95 62.0358 137.515 61.9271 137.137 61.7513C136.753 61.5703 136.416 61.3117 136.142 60.9548C135.898 60.629 135.732 60.2773 135.624 59.9307C135.411 59.2377 135.401 58.5808 135.416 58.0119C135.432 57.1999 135.489 56.3207 135.738 55.4414C135.8 55.2242 135.872 55.007 135.955 54.7949L136.017 54.6398L136.105 54.4432C136.188 54.2518 136.271 54.0863 136.365 53.9157C136.717 53.2226 137.111 52.6175 137.494 51.9813L137.784 51.5003C137.831 51.4331 137.883 51.3141 137.929 51.2831L138.069 51.5158L138.619 52.452C138.795 52.7571 138.976 53.0468 139.142 53.3881L139.396 53.8795L139.603 54.407C139.774 54.8208 139.795 54.9656 139.857 55.2035C139.909 55.4259 139.95 55.6586 139.981 55.8862C140.033 56.3517 140.044 56.8327 139.981 57.3033C139.867 58.255 139.468 59.1446 138.966 59.8894C138.841 60.0756 138.702 60.2514 138.567 60.4273L138.132 60.9289C138.1 60.96 138.018 61.0479 137.95 61.11C137.878 61.1772 137.805 61.2393 137.727 61.2962C137.572 61.4151 137.406 61.5082 137.235 61.5806C136.888 61.7254 136.499 61.7306 136.152 61.6117C135.805 61.4927 135.499 61.2393 135.245 60.9445C135.173 60.8669 135.121 60.8048 135.09 60.7583C135.054 60.7065 135.012 60.6548 134.981 60.6083C134.914 60.51 134.846 60.4066 134.789 60.3031C134.551 59.8894 134.359 59.5066 134.209 58.9998C134.188 58.9377 134.173 58.855 134.157 58.7825L134.126 58.6119L134.074 58.286C134.048 58.0636 134.022 57.8412 134.012 57.6188C133.986 57.1689 134.002 56.7137 134.064 56.2689C134.219 55.0173 134.675 53.9208 135.105 52.9175Z" fill="#202020"/>
<path d="M107.004 64.8964C106.998 64.8415 106.993 64.8251 107.037 64.7482C107.268 64.2047 107.94 63.535 108.96 64.4573C108.976 64.4737 109.048 64.5561 109.064 64.6C109.219 65.665 109.483 66.7136 109.847 67.7182C110.409 69.2773 111.241 70.7321 112.338 71.9289C112.883 72.5273 113.489 73.0707 114.156 73.5154C114.812 73.9546 115.533 74.3005 116.288 74.553C116.828 74.7451 117.401 74.8494 117.969 74.9373C117.969 74.9373 118.145 74.9702 118.437 75.0196C118.586 75.0471 118.762 75.0745 118.966 75.091C119.17 75.1075 119.396 75.1404 119.639 75.1404C120.608 75.1843 121.854 75.0306 122.851 74.6957C123.259 74.531 123.611 74.3993 123.876 74.2565C124.162 74.1358 124.361 74.015 124.526 73.9436C124.857 73.8009 125 73.8064 125 73.9491C124.994 74.0864 124.84 74.3554 124.559 74.7012C124.41 74.8604 124.229 75.0361 124.019 75.2282C123.799 75.3984 123.556 75.5796 123.292 75.7498C123.358 75.7278 123.06 75.909 122.559 76.156C122.047 76.3756 121.325 76.6611 120.553 76.7983C120.173 76.8916 119.782 76.9191 119.413 76.963C119.043 76.974 118.696 77.0124 118.399 76.996C117.804 76.9905 117.401 76.9411 117.401 76.9411C117.098 76.8971 116.801 76.8422 116.509 76.7654C116.211 76.6995 115.919 76.6172 115.633 76.5183C114.701 76.2109 113.803 75.7827 112.982 75.2282C112.172 74.6847 111.445 74.0315 110.795 73.3178C109.494 71.8904 108.536 70.1996 107.891 68.4264C107.478 67.2845 107.18 66.0987 107.004 64.8964Z" fill="#202020"/>
<path d="M160.938 64.9825C160.943 64.9121 160.943 64.8905 161.025 64.8038C161.258 64.506 161.664 64.1215 162.168 63.997C162.667 63.8779 163.279 64.0078 163.892 64.8959C163.913 64.9284 163.995 65.0854 164 65.1612C163.989 66.0818 163.799 66.9807 163.669 67.8904C163.583 68.3399 163.453 68.7839 163.339 69.228L163.165 69.894C163.1 70.1106 163.014 70.3272 162.938 70.5438C161.344 75.1954 157.974 79.2025 153.654 81.5527C149.34 83.9353 144.154 84.5905 139.374 83.4642C134.583 82.3487 130.253 79.3921 127.494 75.3253C126.107 73.3001 125.093 71.0204 124.535 68.6269C123.972 66.2388 123.858 63.7533 124.172 61.322C124.795 56.4484 127.321 51.8456 131.093 48.7048C132.968 47.1236 135.141 45.889 137.461 45.093C139.786 44.2915 142.252 43.9341 144.701 44.0099C147.151 44.0858 149.595 44.6164 151.855 45.5749C154.12 46.5334 156.19 47.9305 157.952 49.6362C158.066 49.7391 158.185 49.8366 158.282 49.9557L158.515 50.2102L158.651 50.3618L158.922 50.6597L159.464 51.2607L160.434 52.5549C160.434 52.5549 160.618 52.8149 160.851 53.2914C161.079 53.7679 161.469 54.4015 161.745 55.2029C162.428 56.7516 162.856 58.8581 162.932 60.5638C162.949 61.2949 162.997 61.8851 162.927 62.3671C162.867 62.849 162.808 63.2118 162.737 63.4772C162.607 64.0078 162.445 64.1378 162.298 63.9916C161.962 63.7046 161.735 62.3292 161.247 60.7588C161.247 60.8021 161.214 60.7155 161.171 60.5313C161.117 60.3472 161.008 60.0765 160.895 59.7407C160.765 59.405 160.672 58.9935 160.472 58.5819C160.288 58.165 160.087 57.7209 159.881 57.2715C159.637 56.8437 159.393 56.4213 159.166 56.0152C158.938 55.6145 158.662 55.2787 158.456 54.9701C158.244 54.6668 158.071 54.4123 157.919 54.2553C157.778 54.0928 157.697 53.9953 157.697 53.9953C157.415 53.6434 157.182 53.2535 156.863 52.934L156.407 52.4358L156.293 52.3113L156.131 52.1271C156.05 52.0297 155.957 51.9376 155.86 51.8564C155.475 51.5152 155.107 51.1633 154.716 50.8329C151.551 48.2229 147.416 46.8853 143.325 47.0532C141.281 47.129 139.249 47.5677 137.363 48.3583C135.483 49.1597 133.748 50.3131 132.274 51.7264C129.304 54.5531 127.429 58.4628 127.088 62.5403C126.708 66.6287 127.933 70.7983 130.372 74.0745C132.805 77.3614 136.453 79.7386 140.463 80.5671C144.474 81.3902 148.771 80.7567 152.332 78.7368C155.914 76.7495 158.7 73.3867 160.017 69.5204C160.082 69.3363 160.158 69.1576 160.212 68.9735L160.358 68.4103C160.45 68.0312 160.564 67.663 160.64 67.2785C160.765 66.5258 160.938 65.7677 160.938 64.9825Z" fill="#202020"/>
<path d="M128.186 80.972C128.208 80.9292 128.218 80.9185 128.289 80.8864C128.734 80.6725 129.739 80.3731 129.995 81.7474C130 81.7741 130.005 81.8864 129.989 81.9345C129.723 82.4639 129.375 82.9506 129.06 83.4532C128.702 83.9292 128.37 84.4265 127.963 84.865C124.981 88.3837 120.533 90.6885 115.845 90.9665C114.655 91.036 113.558 90.9879 112.418 90.9077C111.293 90.8275 110.169 90.6885 109.055 90.5013C106.828 90.1216 104.629 89.5387 102.521 88.6724C100.419 87.8061 98.393 86.6457 96.6657 85.0896C94.9384 83.5441 93.5479 81.5549 92.7766 79.3463C92.0053 77.1485 91.8097 74.7581 92.1845 72.4747L92.2443 72.0951C92.2497 72.0523 92.2606 72.0095 92.2714 71.9667L92.3312 71.7101L92.4452 71.1967C92.5322 70.8598 92.6299 70.5229 92.7331 70.186C92.7331 70.186 92.8146 69.9988 92.945 69.6833C93.0699 69.3678 93.2926 68.94 93.5424 68.4534C94.0585 67.4855 94.8352 66.3625 95.5739 65.5283C96.1768 64.8064 96.6331 64.3839 96.9264 64.1754C97.2197 63.9615 97.3555 63.9561 97.3772 64.0898C97.4207 64.3625 96.9861 65.1968 96.4919 66.1914C96.5788 66.1058 95.9052 67.2609 95.4164 68.4962C95.172 69.1165 94.9493 69.7422 94.8189 70.2234C94.7537 70.4641 94.6994 70.6619 94.6614 70.801C94.6288 70.94 94.6125 71.0256 94.6125 71.0256C94.531 71.3143 94.4387 71.6031 94.3789 71.9026L94.2812 72.3411C94.2703 72.3785 94.2649 72.4159 94.2594 72.4534L94.2105 72.7582C94.1725 72.9988 94.1291 73.2448 94.1128 73.4908C93.9009 75.4426 94.1834 77.4426 94.933 79.2501C95.6717 81.0629 96.8992 82.6618 98.4364 83.9452C99.9681 85.2393 101.788 86.2286 103.711 86.9773C105.633 87.7259 107.665 88.2446 109.729 88.5762C110.761 88.742 111.804 88.8596 112.847 88.9238C113.89 88.9933 114.949 89.0093 115.932 88.9505C119.951 88.6564 123.819 86.635 126.399 83.5762C126.757 83.1912 127.045 82.7474 127.366 82.3303C127.643 81.8704 127.952 81.4426 128.186 80.972Z" fill="#202020"/>
<path d="M90.4111 67.8863C90.4591 67.8917 90.475 67.897 90.5337 67.9561C90.9333 68.3048 91.4501 69.1257 90.2832 69.8339C90.2619 69.8446 90.1607 69.8929 90.118 69.8929C89.0257 69.7266 87.9335 69.571 86.8412 69.4422C83.8573 69.0774 80.8841 68.9111 77.9163 69.115C76.435 69.2115 74.9591 69.394 73.4885 69.6461C72.0445 69.8929 70.6379 70.2631 69.2845 70.7889C66.5777 71.8298 64.1267 73.493 62.038 75.5587C60.9937 76.5888 60.0293 77.7155 59.1394 78.9012L58.4841 79.8026L57.8447 80.7469L56.5712 82.6408L51.472 90.2273L50.1986 92.1213L49.005 94.0742L46.6233 97.9855L41.8545 105.808L39.4728 109.719C38.6895 111.023 37.9382 112.348 37.1656 113.668C34.1125 118.953 31.1393 124.27 28.6883 129.812C28.0809 131.197 27.4948 132.592 26.9673 134.008C26.4345 135.419 25.9016 136.857 25.518 138.257C25.1397 139.663 24.9319 141.074 25.0331 142.464C25.0917 143.161 25.1876 143.832 25.4221 144.524L25.7258 145.559L26.1361 146.568C27.239 149.256 29.0187 151.676 31.0328 153.838C33.0575 156 35.37 157.91 37.853 159.547L39.3822 160.496C39.6486 160.668 39.931 160.824 40.2134 160.974C40.2134 160.974 40.3732 161.076 40.6343 161.248C40.9007 161.414 41.2577 161.677 41.7 161.929C42.1369 162.192 42.6271 162.492 43.1226 162.793C43.6288 163.072 44.1457 163.361 44.6039 163.635C46.213 164.451 46.6819 164.826 46.4368 164.955C46.2024 165.073 45.2539 164.955 44.135 164.649C44.1883 164.681 43.8846 164.59 43.405 164.429C43.1653 164.349 42.8775 164.252 42.5685 164.15C42.2648 164.027 41.9397 163.898 41.6094 163.769C41.279 163.635 40.954 163.501 40.6396 163.378C40.3359 163.238 40.0535 163.104 39.8084 162.991C39.3236 162.761 38.9932 162.605 38.9932 162.605C38.7002 162.455 38.4231 162.272 38.1407 162.101L37.7198 161.843L36.8406 161.296C36.2118 160.856 35.5671 160.437 34.949 159.981C32.4767 158.157 30.1909 156.065 28.2088 153.677C26.2426 151.29 24.5323 148.596 23.6211 145.522C23.099 144.03 22.9018 142.303 23.0457 140.693C23.1789 139.067 23.6051 137.517 24.0953 136.063C25.0811 133.171 26.2267 130.344 27.4948 127.586C30.0417 122.065 33.0309 116.802 36.0467 111.597C37.5386 108.968 39.1424 106.425 40.6983 103.85L45.3978 96.1399C48.4243 90.9409 51.9249 86.0102 55.2604 80.9883C56.1076 79.7382 56.9122 78.4774 57.8713 77.2434C58.8144 76.0201 59.8428 74.8504 60.9724 73.772C63.2209 71.6152 65.9117 69.8607 68.8582 68.7823C70.3235 68.2351 71.8634 67.8595 73.3819 67.6073C74.8845 67.3551 76.4084 67.1781 77.9376 67.0815C80.996 66.883 84.0704 67.0654 87.0756 67.4303C88.1945 67.5644 89.3028 67.72 90.4111 67.8863Z" fill="#202020"/>
<path d="M148.31 86.1101C148.295 86.1208 148.295 86.1208 148.243 86.0887C148.176 86.062 148.067 86.0139 147.938 85.9872C147.814 85.9605 147.659 85.9231 147.504 85.8643C147.354 85.8109 147.194 85.7147 147.096 85.533C146.998 85.346 146.931 85.0467 147.122 84.5978C147.137 84.5658 147.225 84.4375 147.287 84.3894C147.67 84.1489 148.109 84.0153 148.501 84.0047C148.899 83.9833 149.276 84.0367 149.628 84.1383C150.32 84.352 150.94 84.7154 151.462 85.3299C152.014 86.0727 152.448 86.7888 152.846 87.5209C153.249 88.253 153.616 88.9851 153.967 89.7225C154.675 91.1974 155.336 92.6776 155.992 94.1579L156.736 95.8572C156.736 95.8572 156.989 96.5679 157.33 97.5565C157.666 98.5345 158.08 99.7689 158.41 100.784C159.004 102.494 159.133 103.05 158.87 102.997C158.617 102.932 158.002 102.19 157.413 101.217C157.444 101.335 156.773 100.148 156.137 98.9246C155.502 97.6955 154.861 96.4504 154.861 96.4504L154.22 94.9969C153.569 93.5273 152.913 92.0578 152.221 90.6256C151.875 89.9096 151.524 89.1988 151.146 88.5202C150.78 87.8308 150.366 87.1789 149.969 86.6338C149.783 86.404 149.431 86.1796 149.095 86.0834C148.754 85.9819 148.445 86.0086 148.31 86.1101Z" fill="#202020"/>
<path d="M172.969 86.683C172.975 86.6343 172.975 86.618 173.029 86.5584C173.341 86.1466 174.106 85.5018 174.93 86.6397C174.946 86.6613 174.995 86.7589 175 86.8076C174.93 87.9672 174.811 89.0996 174.72 90.2104C174.655 90.9906 174.612 91.76 174.596 92.5294C174.585 92.7408 174.607 92.8491 174.575 93.2122L174.51 93.8082L174.381 95.0002L173.815 99.7521L172.609 109.218C172.21 112.366 171.838 115.52 171.537 118.668C171.386 120.244 171.257 121.821 171.144 123.393L171.009 125.517C171.009 125.517 170.648 128.589 170.314 130.756C169.867 134.441 169.425 132.988 169.189 130.669C169.156 130.789 169.097 129.407 169.043 127.993C169.032 127.283 169.016 126.573 169.011 126.031C169 125.495 169 125.132 169 125.132L169.156 122.688C169.275 121.117 169.409 119.551 169.56 117.99C169.867 114.864 170.244 111.748 170.632 108.644L171.817 99.3403L172.366 94.6968L172.496 93.5373L172.56 92.9575L172.566 92.459C172.582 91.6517 172.63 90.8443 172.695 90.0532C172.786 88.8991 172.905 87.783 172.969 86.683Z" fill="#202020"/>
<path d="M174.129 72.2115C174.129 72.1953 174.129 72.1899 174.174 72.1682C174.442 72.0327 175.127 71.8431 175.926 72.2278C175.94 72.2332 175.995 72.2657 176 72.282C176 72.3687 175.861 78.5788 175.861 78.5788C175.861 78.5788 175.648 79.5867 175.35 80.2858C174.928 81.4779 174.521 80.9794 174.318 80.2261C174.273 80.302 174 78.4271 174 78.4271C174 78.4271 174.129 72.2982 174.129 72.2115Z" fill="#202020"/>
<path d="M189.19 84.975C189.179 84.9269 189.173 84.9109 189.206 84.8361C189.379 84.339 189.946 83.532 191.048 84.3497C191.07 84.3657 191.146 84.4406 191.167 84.4833C191.427 85.5736 191.718 86.6585 191.951 87.7595C193.674 95.2203 194.798 102.858 194.976 110.548C195.063 114.391 194.917 118.25 194.463 122.076C194.004 125.903 193.247 129.703 192.178 133.412C191.664 135.261 191.081 137.126 190.324 138.933C189.573 140.739 188.666 142.492 187.623 144.154L187.223 144.774L187.023 145.079L186.964 145.17C186.931 145.218 186.888 145.271 186.877 145.287L186.769 145.426L185.888 146.554C185.299 147.313 184.694 148.077 184.03 148.82C182.722 150.3 181.101 151.717 179.108 152.508C178.859 152.609 178.616 152.705 178.357 152.775L177.714 152.973C177.6 153.042 177.487 152.962 177.379 152.925L177.054 152.791L176.303 152.486C176.071 152.395 175.85 152.289 175.623 152.187C175.169 151.984 174.72 151.775 174.283 151.546C173.84 151.327 173.407 151.097 172.975 150.856C171.252 149.9 169.609 148.825 168.042 147.666L167.232 147.062L166.832 146.752L166.038 146.132C166.038 146.132 165.454 145.608 164.703 144.865C163.947 144.128 163.034 143.166 162.32 142.332C159.857 139.569 161.261 140.221 163.12 141.546C163.044 141.45 164.125 142.278 165.243 143.101C166.356 143.924 167.513 144.726 167.513 144.726L168.269 145.314L168.653 145.603L169.198 146.009C169.571 146.287 169.949 146.549 170.322 146.816C171.835 147.874 173.407 148.836 175.039 149.67C175.444 149.878 175.855 150.081 176.271 150.268C176.682 150.466 177.103 150.642 177.53 150.808L177.681 150.872L177.822 150.829C177.924 150.797 178.022 150.771 178.119 150.728C178.513 150.578 178.897 150.402 179.264 150.204C180.75 149.392 181.998 148.12 183.16 146.714C183.743 146.009 184.311 145.271 184.889 144.528L185.283 144.021L185.656 143.459C185.905 143.075 186.142 142.69 186.375 142.294C187.299 140.728 188.093 139.082 188.747 137.388C189.076 136.538 189.373 135.678 189.649 134.801L190.422 132.14C192.361 125.021 193.161 117.608 192.929 110.217C192.718 102.82 191.637 95.4448 189.957 88.2084C189.735 87.1235 189.444 86.0546 189.19 84.975Z" fill="#202020"/>
<path d="M186.943 57.726C186.943 57.6764 186.949 57.6599 186.998 57.5938C187.303 57.1694 188.062 56.486 188.924 57.6268C188.94 57.6489 188.995 57.7481 189 57.7977C188.956 58.9715 188.88 60.1344 188.776 61.2972C188.602 63.2206 188.356 65.1384 187.963 67.0563C187.549 68.9686 187.08 70.892 186.016 72.7548C185.634 73.372 185.17 74.0003 184.456 74.4963C184.456 74.4963 184.401 74.5293 184.298 74.5955C184.183 74.6506 184.014 74.7277 183.801 74.8159C183.37 74.9592 182.666 75.1025 181.979 74.8986C181.586 74.8324 181.128 74.5569 180.855 74.2483C180.566 73.9341 180.381 73.5869 180.25 73.2452C180.184 73.0744 180.13 72.9036 180.092 72.7327C180.048 72.5398 180.015 72.3524 180.004 72.1596C179.982 71.7793 180.048 71.4266 180.135 71.1235C180.282 70.6109 180.468 70.2527 180.621 69.9717C180.773 69.6906 180.899 69.4867 180.997 69.3324C181.193 69.0293 181.313 68.9631 181.39 69.0844C181.461 69.2056 181.477 69.5253 181.423 69.9496C181.374 70.3685 181.259 70.892 181.248 71.377C181.27 71.3274 181.237 71.6084 181.313 71.9501C181.374 72.2367 181.712 72.898 182.012 73.0689C182.083 73.113 182.148 73.135 182.203 73.1405C182.219 73.1405 182.23 73.1405 182.241 73.1405H182.323L182.486 73.146C182.59 73.1571 182.677 73.1075 182.765 73.1075C182.852 73.0854 182.923 73.0413 182.994 73.0193C183.13 72.9311 183.245 72.876 183.321 72.7933C183.397 72.7272 183.447 72.6886 183.447 72.6886C183.736 72.4461 184.008 72.0879 184.254 71.6911C185.083 70.2527 185.569 68.4396 185.945 66.6485C186.316 64.8408 186.551 62.9836 186.72 61.1209C186.829 59.9856 186.905 58.8503 186.943 57.726Z" fill="#202020"/>
<path d="M172.234 54.4569C172.244 54.4134 172.249 54.3971 172.307 54.3481C172.481 54.1795 172.771 53.9673 173.098 53.9292C173.424 53.8966 173.82 54.0326 174.136 54.6963C174.146 54.718 174.183 54.8323 174.178 54.8867C173.925 56.1107 173.451 57.3401 172.655 58.3846C171.78 59.5542 170.489 60.4246 169.025 60.702C168.84 60.7401 168.656 60.7564 168.466 60.7782C168.271 60.7836 168.129 60.8 167.797 60.7728C167.228 60.7292 166.595 60.6204 166.279 60.2179C166.105 59.9948 166.021 59.7881 166 59.4998C166.026 59.1952 166.032 58.9014 166.084 58.5859L166.169 58.0255L166.253 57.5414C166.495 56.2521 166.859 54.9574 167.423 53.7225C167.707 53.1078 168.029 52.5311 168.366 51.9763C168.535 51.6988 168.708 51.4268 168.888 51.1603C168.982 51.0188 169.04 50.9209 169.214 50.6979C169.357 50.5238 169.488 50.3987 169.62 50.2681C170.142 49.7839 170.648 49.4086 171.18 49.0332L171.38 48.8972L171.512 48.8102L171.654 48.7286C171.833 48.6306 171.986 48.5599 172.144 48.4892L172.376 48.3913L172.492 48.3423C172.56 48.3097 172.645 48.2879 172.697 48.2716L173.14 48.1465C174.325 47.8146 175.537 47.51 176.781 47.2924C178.025 47.0802 179.31 46.9551 180.617 47.015C181.919 47.0694 183.252 47.3468 184.495 47.8908C185.733 48.4511 186.824 49.1964 187.815 50.1158C188.795 51.0406 189.612 52.134 190.244 53.3254C191.509 55.7135 192.03 58.4227 191.999 61.072C191.993 61.7356 191.935 62.3993 191.872 63.0576L191.725 64.0531C191.672 64.3849 191.588 64.695 191.519 65.016C191.224 66.2726 190.866 67.4966 190.497 68.6989L189.828 70.8803C189.828 70.8803 189.564 71.5984 189.201 72.5721C188.848 73.5405 188.452 74.7699 188.173 75.8089C187.952 76.6957 187.831 77.2832 187.715 77.6259C187.599 77.9686 187.499 78.0611 187.399 77.9632C187.214 77.7674 187.046 76.7881 187.088 75.5913C187.046 75.711 187.13 74.2803 187.399 72.855C187.651 71.4243 188.01 70.0208 188.01 70.0208L188.858 67.2518C189.206 66.0931 189.522 64.9235 189.759 63.7811C189.954 62.6604 190.044 61.4854 190.012 60.3376C189.954 58.031 189.375 55.7353 188.221 53.8204C187.646 52.863 186.935 52.0035 186.102 51.2908C185.886 51.1222 185.681 50.9427 185.459 50.7795L184.764 50.3225C184.527 50.1865 184.29 50.0559 184.053 49.9254C183.805 49.822 183.568 49.7023 183.315 49.6098C181.302 48.8646 179.01 48.9407 176.765 49.3759C175.638 49.5881 174.505 49.8818 173.366 50.2028L173.214 50.2463L173.061 50.3116C172.934 50.366 172.813 50.4204 172.703 50.4748L172.56 50.551L172.513 50.5782L172.429 50.6326L172.081 50.8774C171.628 51.2092 171.153 51.5737 170.827 51.911C170.785 51.9545 170.758 51.9871 170.727 52.0198L170.648 52.134L170.405 52.4985C170.247 52.7433 170.089 52.9881 169.941 53.2383C169.646 53.7334 169.372 54.2447 169.151 54.7507C168.698 55.7734 168.398 56.8886 168.187 58.0419L168.076 58.7273H168.097L168.213 58.7219C168.271 58.7219 168.324 58.7219 168.382 58.711C168.492 58.7001 168.608 58.6838 168.719 58.662C169.636 58.4771 170.495 57.9113 171.09 57.1116C171.654 56.3827 172.033 55.447 172.234 54.4569Z" fill="#202020"/>
<path d="M175.004 69.5595C174.998 69.5061 174.993 69.4901 175.029 69.4154C175.236 68.8869 175.865 68.2197 176.823 69.1058C176.839 69.1218 176.911 69.1965 176.921 69.2392C177.081 70.2748 177.334 71.2996 177.679 72.2871C177.839 72.7302 178.019 73.2266 178.179 73.4881C178.22 73.5575 178.262 73.6109 178.298 73.6536C178.339 73.7017 178.354 73.7123 178.452 73.7977C178.519 73.8565 178.622 73.9312 178.643 73.9419C178.612 73.9632 178.684 73.9152 178.741 73.8404C178.798 73.7817 178.86 73.7177 178.916 73.6323C179.153 73.328 179.375 72.933 179.571 72.5167C180.36 70.8299 180.88 68.8816 181.318 66.9493C181.447 66.3568 181.576 65.7589 181.684 65.1611C181.684 65.1611 181.87 64.4352 182.123 63.4423C182.36 62.4655 182.664 61.2324 182.927 60.1489C183.319 58.3767 183.54 57.8376 183.721 58.0404C183.896 58.2433 183.999 59.1934 183.989 60.341C184.025 60.2236 183.973 61.5954 183.85 62.9886C183.736 64.3871 183.54 65.807 183.54 65.807C183.437 66.3408 183.329 66.8692 183.21 67.3977C182.746 69.4154 182.231 71.4277 181.313 73.4081C181.071 73.9045 180.808 74.4009 180.432 74.8867C180.344 75.0094 180.236 75.1322 180.117 75.2496C180.009 75.3671 179.885 75.4738 179.664 75.65C179.561 75.714 179.452 75.7674 179.349 75.8261C179.246 75.8902 179.138 75.9436 179.019 75.9649C178.787 76.0183 178.545 76.0076 178.313 75.9542C178.081 75.8955 177.859 75.7888 177.648 75.6553C177.457 75.5325 177.365 75.4525 177.241 75.3564C177.148 75.2817 176.973 75.1322 176.854 74.9881C176.725 74.844 176.622 74.6945 176.535 74.545C176.184 73.9365 176.04 73.4615 175.854 72.9544C175.468 71.8708 175.184 70.7231 175.004 69.5595Z" fill="#202020"/>
<path d="M168.032 71.3884C168.004 71.345 167.993 71.3287 168.004 71.2472C168.004 70.7042 168.299 69.7648 169.651 70.1992C169.673 70.2046 169.779 70.2535 169.812 70.2915L170.279 71.0083C170.446 71.2635 170.602 71.5296 170.746 71.7794L171.18 72.5234C171.308 72.7514 171.442 72.9578 171.592 73.1696C171.848 73.566 172.371 74.109 172.226 73.9515C172.154 73.9624 172.421 73.9352 172.571 73.8103C172.615 73.7832 172.654 73.7452 172.693 73.7126C172.732 73.6746 172.777 73.6257 172.749 73.6529L172.977 73.1696C173.327 72.4202 173.705 71.6817 174.028 70.9214C174.645 69.3901 175.135 67.8044 175.485 66.1971C175.619 65.5997 175.73 64.997 175.819 64.3942C175.819 64.3942 175.997 63.6611 176.181 62.6457C176.37 61.6356 176.553 60.3486 176.687 59.268C176.854 57.438 176.97 56.8515 177.204 57.0307C177.426 57.2045 177.699 58.1439 177.849 59.3169C177.871 59.192 178.01 60.5984 177.999 62.0429C177.999 63.4928 177.844 64.9698 177.844 64.9698C177.755 65.5237 177.649 66.0722 177.527 66.6206C177.148 68.342 176.631 70.0309 175.969 71.6708C175.624 72.4853 175.224 73.2673 174.851 74.071L174.529 74.7443C174.373 74.9453 174.278 75.0539 174.156 75.1679C174.039 75.2819 173.911 75.3851 173.778 75.4829C173.505 75.6729 173.205 75.8195 172.86 75.9119C172.682 75.9607 172.521 75.9879 172.304 75.9987C172.087 76.0042 171.864 75.9933 171.659 75.939C171.375 75.8739 171.108 75.7381 170.891 75.548C170.835 75.5046 170.785 75.4503 170.73 75.4014L170.624 75.2928L170.452 75.1027C170.229 74.8475 170.034 74.5923 169.851 74.3316C169.673 74.0764 169.495 73.7995 169.339 73.5334L168.911 72.8003C168.766 72.5559 168.633 72.3279 168.488 72.1107L168.032 71.3884Z" fill="#202020"/>
<path d="M162.9 63.9936C162.853 64.0047 162.837 64.0047 162.764 63.9658C162.281 63.7599 161.531 63.1311 162.397 62.0404C162.412 62.0182 162.491 61.9458 162.533 61.9291L165.759 61.2892L167.831 60.883L169.63 60.5269C169.63 60.5269 172.63 60.1485 174.76 60.0539C178.358 59.7923 177.031 60.5324 174.891 61.2113C175.127 61.2113 169.735 62.6358 169.735 62.6358L168.193 62.9419L166.126 63.3537L162.9 63.9936Z" fill="#202020"/>
<path d="M160.95 71.9925C160.902 72.0027 160.886 72.0078 160.811 71.972C160.325 71.7983 159.523 71.2514 160.373 70.214C160.389 70.1936 160.469 70.122 160.512 70.1067C161.613 69.8767 162.709 69.657 163.81 69.4474L166.67 68.9159L168.504 68.5786C168.504 68.5786 171.556 68.226 173.716 68.088C177.362 67.7456 176.052 68.4662 173.876 69.1459C173.999 69.1459 172.684 69.4985 171.342 69.8358C169.995 70.168 168.627 70.5104 168.627 70.5104L167.055 70.8017L164.211 71.3332C163.115 71.5479 162.03 71.7625 160.95 71.9925Z" fill="#202020"/>
<path d="M190.778 67.9976C190.726 68.0031 190.71 68.0031 190.643 67.953C190.41 67.8247 190.119 67.5683 190.031 67.2282C189.938 66.8881 190.042 66.4699 190.503 65.9905C190.519 65.9737 190.601 65.9068 190.643 65.8957C191.674 65.8121 192.732 65.6615 193.784 65.4831C194.754 65.3214 195.728 65.1319 196.682 64.9144C197.179 64.8029 197.579 64.7026 197.967 64.5353C198.351 64.3681 198.693 64.1618 198.973 63.8942C199.528 63.3924 199.968 62.5394 200.025 61.809C200.108 61.0117 199.88 60.0751 199.471 59.551C199.351 59.3949 199.222 59.2778 199.092 59.2165C199.03 59.1663 198.963 59.1719 198.89 59.1385C198.771 59.1217 198.662 59.0939 198.532 59.0827C198.532 59.0827 198.382 59.0493 198.107 59.0102C197.833 58.9768 197.428 58.9377 196.951 58.9266C195.992 58.8987 194.743 58.9656 193.701 59.0158C191.939 59.1496 191.369 59.0771 191.514 58.8262C191.654 58.5865 192.504 58.1962 193.577 57.8561C193.463 57.8561 194.743 57.4826 196.117 57.2317C196.801 57.1035 197.516 57.0199 198.081 57.0031C198.646 56.9864 199.061 57.0422 199.061 57.0422L199.294 57.0868C199.383 57.1091 199.486 57.1425 199.58 57.176C199.776 57.2317 199.948 57.3321 200.124 57.4269C200.461 57.6387 200.751 57.9063 200.974 58.2018C201.415 58.7705 201.674 59.4061 201.829 60.0472C201.985 60.6884 202.037 61.3463 201.974 62.0153C201.923 62.6843 201.684 63.4035 201.409 63.9388C201.119 64.5074 200.735 65.0538 200.259 65.4887C199.32 66.3807 198.087 66.771 197.097 66.9717C196.096 67.2003 195.101 67.3899 194.095 67.5627C192.991 67.7467 191.903 67.9028 190.778 67.9976Z" fill="#202020"/>
<path d="M47.9413 173C46.4715 152.846 42.9525 131.697 42.0084 111.526C41.7885 106.857 45.9136 102.968 51.0633 103C86.4784 103.214 122.913 103.883 158.317 105.006C163.703 105.177 167.71 109.585 166.894 114.42C163.536 134.328 160.452 153.306 157.63 173H47.9413Z" fill="#231F20"/>
<path d="M4.73902 175.995C4.69071 175.995 4.67461 175.995 4.60483 175.947C4.15931 175.667 3.5152 174.937 4.57799 174.079C4.59946 174.063 4.69071 174.005 4.73902 174C7.72341 174 223.528 174.011 223.528 174.011C223.528 174.011 226.609 174.217 228.773 174.519C232.439 174.942 230.973 175.386 228.703 175.624C228.939 175.667 223.265 176 223.265 176C223.265 176 7.78782 175.995 4.73902 175.995Z" fill="#202020"/>
<path d="M150.951 47.4214C150.951 47.4214 154.878 39.316 147.537 25.5369C140.201 11.7632 129.162 2.26603 114.923 3.04457C99.1512 3.90843 86.0396 24.1398 84.4688 34.6928C82.898 45.2457 79.3396 55.9213 85.4305 62.6722C91.5215 69.4231 95.8813 64.8265 95.6783 58.4329C95.4752 52.0393 93.0015 47.0588 97.3987 44.1046C101.796 41.1504 111.996 33.4876 114.918 20.7057C114.918 20.7057 125.887 40.1212 149.551 40.6758C149.556 40.6758 151.047 41.577 150.951 47.4214Z" fill="#231F20"/>
<path d="M113.838 138.331C113.853 136.675 112.25 135.379 110.605 134.74C107.618 133.573 104.045 133.799 101.258 135.331C100.519 135.74 99.8271 136.234 99.2927 136.863C97.8571 138.562 97.7942 140.944 98.2553 143.062C98.6168 144.729 99.3451 146.444 100.849 147.406C102.358 148.368 104.789 148.186 105.638 146.68C106.052 145.954 106.031 145.089 106.214 144.282C106.397 143.476 106.942 142.616 107.817 142.524C108.195 142.487 108.567 142.594 108.944 142.664C111.354 143.083 113.916 141.175 114 138.901" fill="white"/>
<path d="M186.96 77.0024C187.013 76.9971 187.034 76.9971 187.108 77.0395C187.363 77.1613 187.672 77.4155 187.751 77.7333C187.836 78.0563 187.704 78.4535 187.262 78.9037C187.247 78.9196 187.167 78.9831 187.13 78.999C186.147 79.0785 185.11 79.3433 184.074 79.6399L181.778 80.3337C181.38 80.4502 180.981 80.5614 180.53 80.6514C180.11 80.7309 179.722 80.7997 179.313 80.8633C177.703 81.1228 176.002 81.2817 174.349 81.2075C173.967 81.1969 173.632 81.2022 173.366 81.2552C173.095 81.3028 172.899 81.3982 172.707 81.5359C172.612 81.61 172.516 81.7053 172.431 81.8007C172.357 81.8854 172.288 81.9966 172.229 82.1131C172.107 82.3462 172.033 82.6216 172.011 82.8864C171.99 83.1459 172.027 83.4054 172.107 83.5855C172.187 83.7655 172.293 83.8926 172.49 84.0144C172.681 84.1363 172.968 84.2316 173.287 84.3004C173.446 84.3322 173.616 84.3587 173.791 84.3799L173.924 84.3958L174.041 84.4064C174.089 84.4116 174.142 84.4116 174.19 84.4328L174.525 84.5282C175.248 84.7188 175.981 84.8565 176.725 84.9307C177.463 85.0101 178.213 85.0101 178.994 84.9889C180.535 84.9466 182.081 84.7771 183.596 84.4858C184.35 84.3375 185.1 84.1574 185.822 83.935C186.003 83.882 186.184 83.8185 186.364 83.7602L186.843 83.5908L187.868 83.0664L188.426 82.7857C188.564 82.7169 188.697 82.6427 188.819 82.5739C189.069 82.4309 189.255 82.2985 189.415 82.1449C189.42 82.1343 189.5 82.092 189.702 81.8801C189.893 81.6842 190.09 81.467 190.244 81.1175C190.286 81.0168 190.318 80.9533 190.339 80.8791C190.361 80.805 190.376 80.7203 190.382 80.6249C190.398 80.4396 190.371 80.2224 190.313 80.0106C190.196 79.5922 189.919 79.1685 189.585 78.8825C188.979 78.4112 188.384 78.2788 188.076 78.1464C187.751 78.0246 187.656 77.9292 187.751 77.8286C187.847 77.7386 188.139 77.6379 188.575 77.622C189.005 77.6062 189.611 77.6644 190.228 77.9822C190.164 77.9398 190.531 78.0828 190.977 78.5171C191.413 78.9355 191.923 79.6875 191.992 80.6355C192.008 80.8739 192.003 81.1175 191.955 81.3664C191.912 81.5941 191.859 81.7795 191.79 81.9807C191.647 82.3779 191.439 82.7275 191.259 82.9817C191.163 83.1141 191.094 83.2094 191.009 83.3154C190.924 83.4213 190.839 83.5113 190.77 83.5855C190.632 83.7285 190.541 83.8026 190.541 83.8026C190.217 84.0674 189.882 84.2634 189.579 84.4275L189.128 84.6606L188.267 85.0948L187.735 85.3702C187.523 85.4762 187.454 85.4815 187.353 85.5238L187.061 85.6297C186.667 85.7622 186.274 85.884 185.876 85.9952C185.084 86.2123 184.287 86.3924 183.484 86.5354C181.879 86.8161 180.259 86.9697 178.633 86.9961C177.83 87.012 176.964 86.9803 176.14 86.8743C175.726 86.8214 175.311 86.7525 174.897 86.6678C174.69 86.6254 174.488 86.5778 174.28 86.5301L173.76 86.3924C173.807 86.3977 173.643 86.3818 173.542 86.3712C173.43 86.3606 173.324 86.3447 173.212 86.3235C172.989 86.2918 172.761 86.2441 172.527 86.1805C172.064 86.0534 171.565 85.8522 171.103 85.4868C170.64 85.1213 170.284 84.5652 170.135 84.0197C169.976 83.4742 169.971 82.934 170.05 82.4203C170.135 81.9066 170.305 81.4194 170.587 80.9639C170.879 80.4925 171.246 80.1165 171.708 79.804C172.176 79.5022 172.734 79.3221 173.228 79.2638C173.728 79.2003 174.174 79.2162 174.567 79.2268C176.066 79.285 177.559 79.1367 179.074 78.8931C179.446 78.8296 179.849 78.766 180.195 78.6919C180.53 78.623 180.891 78.5224 181.252 78.4165L183.511 77.7333C184.605 77.4049 185.727 77.1083 186.96 77.0024Z" fill="#202020"/>
<path d="M164.168 64.37C164.168 64.37 164.488 67.9368 163 70L175.92 68.129C175.92 68.129 176.937 63.2338 177 61.4136C177.073 59.5935 164.168 64.37 164.168 64.37Z" fill="black"/>
<path d="M192 59.6739C192 59.6739 199.277 57.7858 199.889 60.3304C200.523 62.9672 198.512 65.452 192 66C192 65.9946 193.324 62.5277 192 59.6739Z" fill="black"/>
<path d="M170.998 125.157C171.002 125.173 171.002 125.179 170.973 125.217C170.782 125.462 170.245 125.946 169.399 126C169.384 126 169.326 126 169.311 125.989C169.282 125.913 167.165 120.573 167.165 120.573C167.165 120.573 166.994 119.616 167.004 118.881C166.95 117.669 167.488 117.897 167.942 118.441C167.952 118.354 168.871 119.817 168.871 119.817C168.871 119.817 170.968 125.081 170.998 125.157Z" fill="#202020"/>
<path d="M93.8387 19.1641C93.8387 19.1641 93.8387 19.1641 93.8681 19.1354C93.9859 19.0491 94.0742 18.8709 93.9093 19.1526C93.9035 19.1584 93.8917 19.1929 93.8858 19.1986C93.874 19.2159 93.6856 19.5494 93.4088 20.0381C93.1379 20.5269 92.7845 21.1766 92.443 21.8321C91.7598 23.1373 91.1474 24.454 91.1474 24.454C91.1474 24.454 90.6115 25.2302 90.0284 25.6557C89.5809 26.0467 89.2746 26.064 89.1215 25.9087C88.9684 25.7535 88.9684 25.42 89.0744 25.0692C89.0332 25.0865 89.1981 24.6955 89.4042 24.3103C89.6044 23.925 89.8341 23.5513 89.8341 23.5513C89.8341 23.5513 90.7764 22.4243 91.7716 21.3318C92.2663 20.7856 92.7728 20.2509 93.1614 19.8484C93.556 19.4516 93.8269 19.1814 93.8387 19.1641Z" fill="white"/>
<path d="M112.274 5.0881C112.295 5.0881 112.295 5.0881 112.402 5.07205C112.85 5.05066 113.469 4.89555 112.439 5.12019C112.413 5.12554 112.306 5.15228 112.285 5.15763L111.879 5.24855C111.746 5.27529 111.612 5.32878 111.479 5.36622L110.684 5.61224L109.916 5.91176C109.788 5.96524 109.66 6.00803 109.532 6.06686L109.158 6.24336L108.513 6.54822L107.889 6.89587C107.467 7.11516 107.072 7.38793 106.667 7.63396C106.464 7.75698 106.272 7.90138 106.08 8.03509C105.888 8.17415 105.691 8.30252 105.499 8.44693C105.125 8.74109 104.736 9.01386 104.378 9.32407C104.144 9.52197 103.903 9.71451 103.674 9.9124L102.981 10.5275C102.981 10.5275 102.41 11.0035 101.615 11.672C100.825 12.3299 99.8436 13.175 98.9794 13.8221C97.5496 14.9613 96.9895 15.1646 97.0001 14.8918C97.0055 14.619 97.5817 13.8756 98.3659 13.0519C98.2645 13.1161 99.2248 12.1588 100.26 11.2228C100.783 10.7575 101.316 10.2975 101.727 9.96589C102.132 9.62359 102.426 9.40965 102.426 9.40965C102.863 9.08874 103.311 8.78388 103.765 8.48971C104.165 8.21159 104.597 7.97091 105.013 7.70884C105.221 7.58048 105.44 7.46816 105.653 7.34514C105.872 7.22748 106.08 7.09912 106.299 6.99749C106.742 6.7889 107.174 6.55357 107.627 6.37173L108.305 6.08826L108.998 5.84223L109.398 5.70317C109.532 5.65503 109.67 5.62829 109.804 5.5855L110.62 5.36622L111.447 5.20576C111.586 5.17902 111.719 5.14693 111.858 5.13088L112.274 5.0881Z" fill="white"/>
<path fill-rule="evenodd" clip-rule="evenodd" d="M215.996 150.965C215.898 148.782 214.361 146.897 212.198 146.555C212.67 146.034 212.956 145.366 212.923 144.643C212.851 143.047 211.611 141.689 209.937 141.689C208.411 141.689 206.945 142.992 206.956 144.54C206.819 144.35 206.665 144.171 206.484 144.008C206.073 143.574 205.59 143.264 205.03 143.085C204.492 142.802 203.91 142.677 203.29 142.699C202.889 142.753 202.488 142.808 202.088 142.857C202.016 142.878 201.945 142.9 201.879 142.922C202.34 141.684 201.704 140 199.964 140C197.23 140 197.219 144.182 199.931 144.214L199.931 144.215L199.931 144.215L199.931 144.215L199.931 144.215C199.75 144.448 199.568 144.681 199.387 144.91C198.981 145.605 198.773 146.36 198.773 147.163V147.668C198.751 148.26 198.871 148.809 199.129 149.325C198.63 149.026 198.048 148.847 197.411 148.847C195.628 148.847 193.921 150.4 194.003 152.22C194.085 153.995 195.419 155.494 197.247 155.587C197.686 157.14 198.652 158.595 199.892 159.529C200.858 160.252 202.247 160.469 203.334 160.062C203.723 160.176 204.135 160.236 204.569 160.236C204.876 160.236 205.178 160.203 205.48 160.132C205.595 160.686 205.694 161.246 205.782 161.805C205.721 161.952 205.699 162.125 205.749 162.321C206.1 163.798 205.979 165.319 205.348 166.709C204.904 167.692 206.369 168.55 206.819 167.562C207.374 166.34 207.648 165.074 207.631 163.787C207.692 163.673 207.719 163.527 207.697 163.353C207.659 163.016 207.615 162.679 207.571 162.343C211.117 161.843 213.576 158.617 213.06 155.114C214.756 154.468 216.079 152.822 215.996 150.965ZM200.051 155.771C200.09 156.57 200.315 157.33 200.699 157.987C200.567 157.884 200.447 157.781 200.359 157.678C199.766 157.026 199.201 156.162 198.893 155.25C200.035 154.691 200.886 153.528 200.825 152.23C200.809 151.915 200.754 151.611 200.666 151.323C200.941 151.513 201.232 151.66 201.555 151.763C201.758 151.866 201.967 151.953 202.181 152.013C200.897 152.817 199.986 154.224 200.051 155.771ZM208.834 147.375C208.433 147.212 208.082 146.962 207.791 146.653C207.813 146.821 207.818 146.995 207.813 147.174V147.679C207.813 147.945 207.785 148.206 207.741 148.461C208.038 148.043 208.411 147.679 208.834 147.375ZM206.49 150.84C206.578 150.729 206.664 150.617 206.751 150.506C206.837 150.395 206.923 150.283 207.011 150.172C206.967 150.433 206.945 150.699 206.962 150.97C206.978 151.372 207.05 151.758 207.159 152.133C206.731 151.823 206.248 151.59 205.721 151.454C205.99 151.275 206.248 151.074 206.49 150.84ZM207.072 159.464C207.154 159.872 207.236 160.284 207.308 160.697C209.942 160.366 211.732 157.998 211.38 155.435C210.436 155.418 209.585 155.114 208.888 154.615C208.998 154.989 209.07 155.375 209.086 155.777C209.157 157.281 208.301 158.65 207.072 159.464Z" fill="#231F20"/>
<path d="M213.138 148.812C213.123 148.802 213.118 148.802 213.108 148.767C213.072 148.668 213.026 148.518 213.047 148.359C213.072 148.209 213.174 148.035 213.544 148C213.56 148 213.62 148 213.641 148.015C214.194 148.354 214.59 148.887 214.798 149.455C214.951 149.858 215.017 150.292 214.996 150.715C214.981 151.049 214.925 151.378 214.824 151.692C214.824 151.692 214.687 152.081 214.372 152.524C214.067 152.972 213.554 153.421 213.072 153.675C212.671 153.894 212.382 153.974 212.209 153.994C212.036 154.014 211.98 153.984 212.006 153.924C212.052 153.8 212.422 153.58 212.783 153.237C212.732 153.261 213.204 152.883 213.509 152.38C213.671 152.135 213.778 151.861 213.849 151.662C213.915 151.458 213.94 151.318 213.94 151.318C214.001 151.114 214.027 150.9 214.042 150.691C214.052 150.377 214.006 150.068 213.895 149.784C213.758 149.375 213.488 149.021 213.138 148.812Z" fill="white"/>
<path d="M205.1 144.902C205.087 144.891 205.079 144.886 205.07 144.853C205.031 144.739 204.984 144.581 205.005 144.407C205.027 144.239 205.118 144.06 205.42 144C205.432 144 205.48 144 205.501 144.011C205.959 144.337 206.334 144.81 206.601 145.369C206.64 145.451 206.675 145.532 206.705 145.614C206.834 145.94 206.929 146.287 206.981 146.651C206.981 146.651 207.041 147.113 206.947 147.705C206.86 148.297 206.584 148.977 206.243 149.389C205.967 149.753 205.734 149.906 205.596 149.965C205.454 150.025 205.407 150.003 205.415 149.933C205.437 149.797 205.696 149.476 205.898 149.02C205.864 149.058 206.149 148.531 206.218 147.912C206.256 147.607 206.252 147.303 206.226 147.08C206.2 146.858 206.161 146.716 206.161 146.716C206.123 146.494 206.058 146.282 205.976 146.075C205.954 146.016 205.924 145.956 205.898 145.896C205.704 145.483 205.424 145.135 205.1 144.902Z" fill="white"/>
<path d="M196.693 150.996C196.688 151.002 196.688 151.002 196.666 150.989C196.526 150.893 196.181 150.647 196.008 150.086C196.002 150.072 195.997 150.038 196.002 150.024C196.013 150.017 196.17 149.84 196.437 149.614C196.705 149.388 197.106 149.135 197.563 149.046C198.02 148.944 198.488 149.026 198.806 149.156C199.124 149.279 199.308 149.416 199.308 149.416C199.308 149.416 199.425 149.518 199.547 149.689C199.676 149.853 199.809 150.086 199.893 150.298C200.183 150.989 199.826 150.982 199.508 150.838C199.514 150.866 199.336 150.756 199.152 150.674C198.968 150.585 198.789 150.537 198.789 150.537C198.789 150.537 198.26 150.175 197.725 150.318C197.457 150.373 197.195 150.537 197.006 150.695C196.822 150.852 196.705 150.989 196.693 150.996Z" fill="white"/>
<path d="M201.275 154.184C201.287 154.158 201.293 154.147 201.34 154.121C201.477 154.027 201.697 153.965 201.876 154.022C202.06 154.079 202.179 154.252 202.286 154.523C202.292 154.533 202.298 154.575 202.298 154.591C202.102 154.967 202.072 155.431 202.203 155.864C202.25 156.031 202.316 156.193 202.399 156.355C202.524 156.595 202.691 156.824 202.875 157.049C202.875 157.049 203.071 157.352 203.416 157.686C203.755 158.025 204.279 158.348 204.808 158.453C205.254 158.536 205.569 158.489 205.754 158.474C205.944 158.453 206.015 158.463 205.997 158.531C205.974 158.661 205.462 159.001 204.719 158.995C204.754 159.001 204.558 159.011 204.243 158.959C203.928 158.907 203.505 158.766 203.143 158.557C202.393 158.14 201.888 157.529 201.888 157.529C201.697 157.294 201.531 157.049 201.388 156.778C201.275 156.569 201.186 156.35 201.12 156.115C200.93 155.488 200.954 154.805 201.275 154.184Z" fill="white"/>
</g>
<defs>
<filter id="filter0_d" x="0" y="0" width="235" height="184" filterUnits="userSpaceOnUse" color-interpolation-filters="sRGB">
<feFlood flood-opacity="0" result="BackgroundImageFix"/>
<feColorMatrix in="SourceAlpha" type="matrix" values="0 0 0 0 0 0 0 0 0 0 0 0 0 0 0 0 0 0 127 0"/>
<feOffset dy="4"/>
<feGaussianBlur stdDeviation="2"/>
<feColorMatrix type="matrix" values="0 0 0 0 0 0 0 0 0 0 0 0 0 0 0 0 0 0 0.25 0"/>
<feBlend mode="normal" in2="BackgroundImageFix" result="effect1_dropShadow"/>
<feBlend mode="normal" in="SourceGraphic" in2="effect1_dropShadow" result="shape"/>
</filter>
</defs>
</svg>
