<svg width="22" height="20" viewBox="0 0 22 20" fill="none" xmlns="http://www.w3.org/2000/svg">
<path fill-rule="evenodd" clip-rule="evenodd" d="M3.9021 0H18.1439C20.2702 0 22 1.72597 22 3.84755V13.0585C22 15.1881 20.2712 16.9206 18.1464 16.9206L8.7235 16.92H8.72282C6.31221 16.92 4.00163 17.8094 2.21642 19.4247C1.97018 19.6488 1.65245 19.7663 1.33002 19.7663C1.15009 19.7665 0.968643 19.7297 0.79744 19.6543C0.312866 19.4413 0 18.9704 0 18.4546V3.89337C0 1.74661 1.75047 0 3.9021 0ZM18.1464 15.6316C19.5605 15.6316 20.7109 14.4773 20.7109 13.0585H20.7108V3.84755C20.7108 2.4368 19.5592 1.28906 18.1437 1.28906H3.9021C2.4613 1.28906 1.28906 2.45744 1.28906 3.89337V18.4502C1.29208 18.4564 1.30199 18.4682 1.31625 18.4744C1.32649 18.4789 1.34395 18.4757 1.35016 18.4702C3.37405 16.6388 5.99213 15.6309 8.72282 15.6309H8.7235L18.1464 15.6316Z" fill="black"/>
<path d="M8.59923 6.85376H10.2722C10.6282 6.85376 10.9167 6.56523 10.9167 6.20923C10.9167 5.85339 10.6282 5.5647 10.2722 5.5647H8.59923C7.81538 5.5647 7.17773 6.20251 7.17773 6.98636V10.4604C7.17773 11.2443 7.81538 11.8819 8.59923 11.8819H10.2722C10.6282 11.8819 10.9167 11.5934 10.9167 11.2374C10.9167 10.8814 10.6282 10.5929 10.2722 10.5929H8.59923C8.52621 10.5929 8.4668 10.5335 8.4668 10.4604V9.36794H10.2722C10.6282 9.36794 10.9167 9.07941 10.9167 8.7234C10.9167 8.3674 10.6282 8.07887 10.2722 8.07887H8.4668V6.98636C8.4668 6.91318 8.52621 6.85376 8.59923 6.85376Z" fill="black"/>
<path d="M14.3641 10.5929H13.1983C13.0824 10.5929 12.9883 10.4987 12.9883 10.3829V6.20923C12.9883 5.85339 12.6998 5.5647 12.3438 5.5647C11.9877 5.5647 11.6992 5.85339 11.6992 6.20923V10.3829C11.6992 11.2095 12.3716 11.8819 13.1983 11.8819H14.3641C14.72 11.8819 15.0087 11.5934 15.0087 11.2374C15.0087 10.8814 14.72 10.5929 14.3641 10.5929Z" fill="black"/>
<path d="M5.75165 5.5647C5.39581 5.5647 5.10712 5.85339 5.10712 6.20923V8.07887H3.94629V6.20923C3.94629 5.85339 3.65759 5.5647 3.30176 5.5647C2.94576 5.5647 2.65723 5.85339 2.65723 6.20923V11.2374C2.65723 11.5934 2.94576 11.8819 3.30176 11.8819C3.65759 11.8819 3.94629 11.5934 3.94629 11.2374V9.36794H5.10712V11.2374C5.10712 11.5934 5.39581 11.8819 5.75165 11.8819C6.10765 11.8819 6.39618 11.5934 6.39618 11.2374V6.20923C6.39618 5.85339 6.10765 5.5647 5.75165 5.5647Z" fill="black"/>
<path fill-rule="evenodd" clip-rule="evenodd" d="M16.5022 5.5647H17.4447C18.4756 5.5647 19.3143 6.40343 19.3143 7.43434C19.3143 8.46526 18.4756 9.30382 17.4447 9.30382H16.8643V11.2374C16.8643 11.5934 16.5757 11.8819 16.2197 11.8819C15.8637 11.8819 15.5752 11.5934 15.5752 11.2374V6.49171C15.5752 5.98062 15.991 5.5647 16.5022 5.5647ZM16.8643 8.01476H17.4447C17.7648 8.01476 18.0253 7.75443 18.0253 7.43434C18.0253 7.11426 17.7648 6.85376 17.4447 6.85376H16.8643V8.01476Z" fill="black"/>
</svg>
