<svg width="24" height="24" viewBox="0 0 24 24" fill="none" xmlns="http://www.w3.org/2000/svg">
<path fill-rule="evenodd" clip-rule="evenodd" d="M3.47745 6.42738C3.08976 7.01446 2.76299 7.64492 2.50175 8.30769H0.542986C2.10483 3.49292 6.62791 0 11.9559 0C17.2839 0 21.807 3.49292 23.3679 8.30769H21.4101C21.1488 7.64492 20.8211 7.01446 20.4353 6.42738C20.4151 6.43124 20.3954 6.43655 20.3758 6.44183C20.3391 6.45173 20.3027 6.46154 20.2636 6.46154H18.5282C18.7119 7.04677 18.8559 7.66985 18.9805 8.30769H17.0836C16.9405 7.66246 16.7744 7.03754 16.5648 6.46154H7.34699C7.13745 7.03754 6.97129 7.66246 6.82822 8.30769H4.93129C5.05591 7.66985 5.19991 7.04677 5.3836 6.46154H3.64822C3.60884 6.46154 3.57224 6.4516 3.53556 6.44163L3.53555 6.44163L3.53555 6.44163L3.53554 6.44163L3.53554 6.44163C3.51634 6.43641 3.49711 6.43119 3.47745 6.42738ZM17.8064 4.61538H18.903C18.3334 4.07908 17.7039 3.60831 17.0208 3.21323C17.3061 3.64615 17.5682 4.11415 17.8064 4.61538ZM11.9559 1.84615C13.3876 1.84615 14.7094 2.91138 15.7054 4.61538H8.20637C9.20237 2.91138 10.5242 1.84615 11.9559 1.84615ZM6.10452 4.61538C6.34268 4.11415 6.60483 3.64615 6.88914 3.21323C6.20791 3.60831 5.57837 4.07908 5.00883 4.61538H6.10452ZM7.46145 10.3588L5.92545 13.8462C5.8876 13.9329 5.79252 13.9883 5.68822 13.9883H4.90176C4.79745 13.9883 4.70237 13.932 4.66545 13.8462L3.93622 12.1818C3.86514 12.0175 3.80052 11.8606 3.7396 11.7046C3.67222 11.8763 3.60299 12.036 3.53376 12.1892L2.76483 13.8508C2.72606 13.9348 2.63191 13.9883 2.52945 13.9883H1.74299C1.63499 13.9883 1.54083 13.9302 1.50391 13.8425L0.0666782 10.3542C0.0389859 10.2858 0.0500628 10.2102 0.0980628 10.1502C0.146063 10.0902 0.222678 10.0551 0.305755 10.0551H1.19099C1.30268 10.0551 1.40052 10.1188 1.43376 10.2111L2.06514 11.9834C2.11776 12.1329 2.16668 12.2742 2.21191 12.4089C2.26729 12.2742 2.32729 12.132 2.39099 11.9815L3.16822 10.1982C3.20606 10.1123 3.30022 10.0551 3.40452 10.0551H4.1356C4.24176 10.0551 4.33591 10.1132 4.37375 10.2L5.11037 11.9446C5.17683 12.1015 5.23591 12.2483 5.29037 12.3868C5.3356 12.2557 5.38822 12.1135 5.44822 11.9575L6.12852 10.2055C6.1636 10.1151 6.26052 10.0542 6.36852 10.0542H7.22329C7.30729 10.0542 7.38483 10.0902 7.43283 10.1502C7.48176 10.2129 7.49099 10.2895 7.46145 10.3588ZM15.6971 10.3588L14.1611 13.8462C14.1233 13.9329 14.0282 13.9883 13.9248 13.9883H13.1365C13.0322 13.9883 12.9381 13.932 12.9002 13.8462L12.1719 12.1818C12.0999 12.0175 12.0353 11.8606 11.9744 11.7046C11.907 11.8763 11.8378 12.036 11.7685 12.1892L10.9996 13.8508C10.9608 13.9348 10.8676 13.9883 10.7642 13.9883H9.97683C9.86976 13.9883 9.77468 13.9302 9.73776 13.8425L8.30052 10.3542C8.27283 10.2858 8.28391 10.2102 8.33191 10.1502C8.37991 10.0911 8.45745 10.0551 8.5396 10.0551H9.42483C9.53652 10.0551 9.63437 10.1188 9.6676 10.2111L10.2981 11.9834C10.3329 12.0824 10.3661 12.1777 10.3982 12.27L10.3985 12.2708L10.3986 12.2709L10.4467 12.4089C10.5011 12.2742 10.5602 12.132 10.6239 11.9815L11.4021 10.1982C11.439 10.1123 11.5331 10.0551 11.6384 10.0551H12.3694C12.4756 10.0551 12.5707 10.1132 12.6076 10.2L13.3451 11.9446C13.4107 12.1015 13.4698 12.2483 13.5233 12.3868L13.5307 12.3663L13.5307 12.3662C13.5757 12.2408 13.6243 12.1054 13.6821 11.9575L14.3624 10.2055C14.3974 10.1151 14.4953 10.0542 14.6033 10.0542H15.4581C15.543 10.0542 15.6214 10.0902 15.6676 10.1502C15.7165 10.2129 15.7276 10.2895 15.6971 10.3588ZM22.3968 13.8462L23.9319 10.3588C23.9614 10.2895 23.9504 10.2129 23.9033 10.1502C23.8562 10.0902 23.7787 10.0542 23.6938 10.0542H22.839C22.7301 10.0542 22.6331 10.1151 22.599 10.2055L21.9178 11.9575C21.8578 12.1135 21.8051 12.2557 21.7599 12.3868C21.7054 12.2483 21.6454 12.1015 21.579 11.9446L20.8424 10.2C20.8054 10.1132 20.7104 10.0551 20.6042 10.0551H19.8741C19.7688 10.0551 19.6747 10.1123 19.6368 10.1982L18.8587 11.9815C18.795 12.132 18.7359 12.2742 18.6814 12.4089C18.6353 12.2742 18.5864 12.1329 18.5338 11.9834L17.9024 10.2111C17.8701 10.1188 17.7722 10.0551 17.6605 10.0551H16.7744C16.6913 10.0551 16.6138 10.0902 16.5658 10.1502C16.5178 10.2102 16.5085 10.2858 16.5353 10.3542L17.9725 13.8425C18.0094 13.9302 18.1045 13.9883 18.2125 13.9883H18.999C19.1014 13.9883 19.1956 13.9348 19.2344 13.8508L20.0033 12.1892C20.0725 12.036 20.1427 11.8763 20.2101 11.7046C20.271 11.8606 20.3356 12.0175 20.4076 12.1818L21.1359 13.8462C21.1728 13.932 21.2679 13.9883 21.3722 13.9883H22.1596C22.2639 13.9883 22.3581 13.9329 22.3968 13.8462ZM21.4101 15.6923C21.1488 16.356 20.8211 16.9846 20.4344 17.5726C20.4147 17.5688 20.3955 17.5636 20.3763 17.5584C20.3396 17.5484 20.303 17.5385 20.2636 17.5385H18.5273C18.711 16.9532 18.855 16.3302 18.9796 15.6923H17.0827C16.9405 16.3375 16.7734 16.9634 16.5639 17.5385H7.34699C7.13745 16.9634 6.97129 16.3375 6.82822 15.6923H4.93222C5.05683 16.3302 5.20083 16.9532 5.38452 17.5385H3.64822C3.60884 17.5385 3.57224 17.5484 3.53555 17.5584L3.53551 17.5584C3.51632 17.5636 3.4971 17.5688 3.47745 17.5726C3.09068 16.9846 2.76299 16.356 2.50175 15.6923H0.542986C2.10483 20.5071 6.62791 24 11.9559 24C17.2839 24 21.807 20.5071 23.3679 15.6923H21.4101ZM5.00883 19.3846H6.10545C6.3436 19.8858 6.60576 20.3548 6.89006 20.7868C6.20791 20.3917 5.57837 19.9209 5.00883 19.3846ZM8.20637 19.3846C9.20237 21.0886 10.5242 22.1538 11.9559 22.1538C13.3876 22.1538 14.7094 21.0886 15.7045 19.3846H8.20637ZM17.0218 20.7868C17.307 20.3548 17.5691 19.8858 17.8073 19.3846H18.9039C18.3334 19.9209 17.7039 20.3917 17.0218 20.7868Z" fill="#192038"/>
<mask id="mask0_0_6640" style="mask-type:alpha" maskUnits="userSpaceOnUse" x="0" y="0" width="24" height="24">
<path fill-rule="evenodd" clip-rule="evenodd" d="M3.47745 6.42738C3.08976 7.01446 2.76299 7.64492 2.50175 8.30769H0.542986C2.10483 3.49292 6.62791 0 11.9559 0C17.2839 0 21.807 3.49292 23.3679 8.30769H21.4101C21.1488 7.64492 20.8211 7.01446 20.4353 6.42738C20.4151 6.43124 20.3954 6.43655 20.3758 6.44183C20.3391 6.45173 20.3027 6.46154 20.2636 6.46154H18.5282C18.7119 7.04677 18.8559 7.66985 18.9805 8.30769H17.0836C16.9405 7.66246 16.7744 7.03754 16.5648 6.46154H7.34699C7.13745 7.03754 6.97129 7.66246 6.82822 8.30769H4.93129C5.05591 7.66985 5.19991 7.04677 5.3836 6.46154H3.64822C3.60884 6.46154 3.57224 6.4516 3.53556 6.44163L3.53555 6.44163L3.53555 6.44163L3.53554 6.44163L3.53554 6.44163C3.51634 6.43641 3.49711 6.43119 3.47745 6.42738ZM17.8064 4.61538H18.903C18.3334 4.07908 17.7039 3.60831 17.0208 3.21323C17.3061 3.64615 17.5682 4.11415 17.8064 4.61538ZM11.9559 1.84615C13.3876 1.84615 14.7094 2.91138 15.7054 4.61538H8.20637C9.20237 2.91138 10.5242 1.84615 11.9559 1.84615ZM6.10452 4.61538C6.34268 4.11415 6.60483 3.64615 6.88914 3.21323C6.20791 3.60831 5.57837 4.07908 5.00883 4.61538H6.10452ZM7.46145 10.3588L5.92545 13.8462C5.8876 13.9329 5.79252 13.9883 5.68822 13.9883H4.90176C4.79745 13.9883 4.70237 13.932 4.66545 13.8462L3.93622 12.1818C3.86514 12.0175 3.80052 11.8606 3.7396 11.7046C3.67222 11.8763 3.60299 12.036 3.53376 12.1892L2.76483 13.8508C2.72606 13.9348 2.63191 13.9883 2.52945 13.9883H1.74299C1.63499 13.9883 1.54083 13.9302 1.50391 13.8425L0.0666782 10.3542C0.0389859 10.2858 0.0500628 10.2102 0.0980628 10.1502C0.146063 10.0902 0.222678 10.0551 0.305755 10.0551H1.19099C1.30268 10.0551 1.40052 10.1188 1.43376 10.2111L2.06514 11.9834C2.11776 12.1329 2.16668 12.2742 2.21191 12.4089C2.26729 12.2742 2.32729 12.132 2.39099 11.9815L3.16822 10.1982C3.20606 10.1123 3.30022 10.0551 3.40452 10.0551H4.1356C4.24176 10.0551 4.33591 10.1132 4.37375 10.2L5.11037 11.9446C5.17683 12.1015 5.23591 12.2483 5.29037 12.3868C5.3356 12.2557 5.38822 12.1135 5.44822 11.9575L6.12852 10.2055C6.1636 10.1151 6.26052 10.0542 6.36852 10.0542H7.22329C7.30729 10.0542 7.38483 10.0902 7.43283 10.1502C7.48176 10.2129 7.49099 10.2895 7.46145 10.3588ZM15.6971 10.3588L14.1611 13.8462C14.1233 13.9329 14.0282 13.9883 13.9248 13.9883H13.1365C13.0322 13.9883 12.9381 13.932 12.9002 13.8462L12.1719 12.1818C12.0999 12.0175 12.0353 11.8606 11.9744 11.7046C11.907 11.8763 11.8378 12.036 11.7685 12.1892L10.9996 13.8508C10.9608 13.9348 10.8676 13.9883 10.7642 13.9883H9.97683C9.86976 13.9883 9.77468 13.9302 9.73776 13.8425L8.30052 10.3542C8.27283 10.2858 8.28391 10.2102 8.33191 10.1502C8.37991 10.0911 8.45745 10.0551 8.5396 10.0551H9.42483C9.53652 10.0551 9.63437 10.1188 9.6676 10.2111L10.2981 11.9834C10.3329 12.0824 10.3661 12.1777 10.3982 12.27L10.3985 12.2708L10.3986 12.2709L10.4467 12.4089C10.5011 12.2742 10.5602 12.132 10.6239 11.9815L11.4021 10.1982C11.439 10.1123 11.5331 10.0551 11.6384 10.0551H12.3694C12.4756 10.0551 12.5707 10.1132 12.6076 10.2L13.3451 11.9446C13.4107 12.1015 13.4698 12.2483 13.5233 12.3868L13.5307 12.3663L13.5307 12.3662C13.5757 12.2408 13.6243 12.1054 13.6821 11.9575L14.3624 10.2055C14.3974 10.1151 14.4953 10.0542 14.6033 10.0542H15.4581C15.543 10.0542 15.6214 10.0902 15.6676 10.1502C15.7165 10.2129 15.7276 10.2895 15.6971 10.3588ZM22.3968 13.8462L23.9319 10.3588C23.9614 10.2895 23.9504 10.2129 23.9033 10.1502C23.8562 10.0902 23.7787 10.0542 23.6938 10.0542H22.839C22.7301 10.0542 22.6331 10.1151 22.599 10.2055L21.9178 11.9575C21.8578 12.1135 21.8051 12.2557 21.7599 12.3868C21.7054 12.2483 21.6454 12.1015 21.579 11.9446L20.8424 10.2C20.8054 10.1132 20.7104 10.0551 20.6042 10.0551H19.8741C19.7688 10.0551 19.6747 10.1123 19.6368 10.1982L18.8587 11.9815C18.795 12.132 18.7359 12.2742 18.6814 12.4089C18.6353 12.2742 18.5864 12.1329 18.5338 11.9834L17.9024 10.2111C17.8701 10.1188 17.7722 10.0551 17.6605 10.0551H16.7744C16.6913 10.0551 16.6138 10.0902 16.5658 10.1502C16.5178 10.2102 16.5085 10.2858 16.5353 10.3542L17.9725 13.8425C18.0094 13.9302 18.1045 13.9883 18.2125 13.9883H18.999C19.1014 13.9883 19.1956 13.9348 19.2344 13.8508L20.0033 12.1892C20.0725 12.036 20.1427 11.8763 20.2101 11.7046C20.271 11.8606 20.3356 12.0175 20.4076 12.1818L21.1359 13.8462C21.1728 13.932 21.2679 13.9883 21.3722 13.9883H22.1596C22.2639 13.9883 22.3581 13.9329 22.3968 13.8462ZM21.4101 15.6923C21.1488 16.356 20.8211 16.9846 20.4344 17.5726C20.4147 17.5688 20.3955 17.5636 20.3763 17.5584C20.3396 17.5484 20.303 17.5385 20.2636 17.5385H18.5273C18.711 16.9532 18.855 16.3302 18.9796 15.6923H17.0827C16.9405 16.3375 16.7734 16.9634 16.5639 17.5385H7.34699C7.13745 16.9634 6.97129 16.3375 6.82822 15.6923H4.93222C5.05683 16.3302 5.20083 16.9532 5.38452 17.5385H3.64822C3.60884 17.5385 3.57224 17.5484 3.53555 17.5584L3.53551 17.5584C3.51632 17.5636 3.4971 17.5688 3.47745 17.5726C3.09068 16.9846 2.76299 16.356 2.50175 15.6923H0.542986C2.10483 20.5071 6.62791 24 11.9559 24C17.2839 24 21.807 20.5071 23.3679 15.6923H21.4101ZM5.00883 19.3846H6.10545C6.3436 19.8858 6.60576 20.3548 6.89006 20.7868C6.20791 20.3917 5.57837 19.9209 5.00883 19.3846ZM8.20637 19.3846C9.20237 21.0886 10.5242 22.1538 11.9559 22.1538C13.3876 22.1538 14.7094 21.0886 15.7045 19.3846H8.20637ZM17.0218 20.7868C17.307 20.3548 17.5691 19.8858 17.8073 19.3846H18.9039C18.3334 19.9209 17.7039 20.3917 17.0218 20.7868Z" fill="white"/>
</mask>
<g mask="url(#mask0_0_6640)">
<rect width="24" height="24" fill="black"/>
</g>
</svg>
