<svg width="24" height="24" viewBox="0 0 24 24" fill="none" xmlns="http://www.w3.org/2000/svg">
<mask id="mask0_0_6645" style="mask-type:alpha" maskUnits="userSpaceOnUse" x="0" y="0" width="24" height="19">
<path fill-rule="evenodd" clip-rule="evenodd" d="M4.02667 3.01135C6.05127 1.20667 8.58929 0.155457 11.2969 0V6.02948C10.6236 5.78467 9.8974 5.65082 9.14062 5.65082C8.40051 5.65082 7.6897 5.77899 7.02905 6.01355L4.02667 3.01135ZM19.7058 2.77991L14.0264 7.96161C13.645 7.49872 13.1993 7.09094 12.7031 6.75183V0C15.2928 0.148682 17.7272 1.11676 19.7058 2.77991ZM0 11.9791V12.6823H2.8125V11.9791C2.8125 9.75824 3.96259 7.80121 5.69824 6.67163L3.03241 4.0058C1.07227 6.20471 0 9.00934 0 11.9791ZM24 12.6823H20.2712L23.6259 8.98865C23.8724 9.95398 24 10.9567 24 11.9791V12.6823ZM11.9998 12.7059C11.2485 12.7059 10.5421 12.9985 10.0109 13.5297C8.91449 14.6263 8.91449 16.4105 10.0109 17.5071C10.5421 18.0383 11.2485 18.3309 11.9998 18.3309C12.7509 18.3309 13.4573 18.0383 13.9885 17.5071C15.0851 16.4105 15.0851 14.6263 13.9885 13.5297C13.4573 12.9985 12.7509 12.7059 11.9998 12.7059ZM12.4303 11.3214L21.0088 3.49475H24V6.48505L16.1933 15.0807C16.097 14.1506 15.694 13.2464 14.9828 12.5352C14.2885 11.8409 13.3943 11.4185 12.4303 11.3214Z" fill="white"/>
</mask>
<g mask="url(#mask0_0_6645)">
<rect width="24" height="24" fill="black"/>
</g>
</svg>
