<svg width="24" height="24" viewBox="0 0 24 24" fill="none" xmlns="http://www.w3.org/2000/svg">
<mask id="mask0_0_6655" style="mask-type:alpha" maskUnits="userSpaceOnUse" x="0" y="0" width="24" height="24">
<path fill-rule="evenodd" clip-rule="evenodd" d="M21.5907 8.86633L23.4353 9.26733C23.7649 9.33911 24 9.6308 24 9.96808V14.0319C24 14.3692 23.7649 14.6609 23.4353 14.7327L21.5907 15.1337C21.4303 15.6248 21.2316 16.1038 20.9971 16.5652L22.0182 18.1536C22.2006 18.4374 22.1605 18.8101 21.9221 19.0485L19.0485 21.9221C18.8101 22.1607 18.4374 22.2006 18.1536 22.0182L16.5652 20.9971C16.1038 21.2316 15.6248 21.4303 15.1337 21.5907L14.7327 23.4353C14.6611 23.7649 14.3692 24 14.0319 24H9.96808C9.6308 24 9.33893 23.7649 9.26733 23.4353L8.86633 21.5907C8.37524 21.4303 7.89624 21.2316 7.43481 20.9971L5.84637 22.0182C5.56256 22.2006 5.18994 22.1605 4.95154 21.9221L2.07788 19.0485C1.83948 18.8101 1.79938 18.4374 1.98175 18.1536L3.00293 16.5652C2.76837 16.1038 2.5697 15.6248 2.4093 15.1337L0.564697 14.7327C0.235107 14.6609 0 14.3692 0 14.0319V9.96808C0 9.6308 0.235107 9.33911 0.564697 9.26733L2.4093 8.86633C2.5697 8.37524 2.76837 7.89624 3.00293 7.43481L1.98175 5.84637C1.79938 5.56256 1.83948 5.18994 2.07788 4.95154L4.95154 2.07788C5.18994 1.83948 5.56256 1.79938 5.84637 1.98175L7.43481 3.00293C7.89624 2.76837 8.37524 2.5697 8.86633 2.4093L9.26733 0.564697C9.33893 0.235107 9.6308 0 9.96808 0H14.0319C14.3692 0 14.6611 0.235107 14.7327 0.564697L15.1337 2.4093C15.6248 2.5697 16.1038 2.76837 16.5652 3.00293L18.1536 1.98175C18.4374 1.79938 18.8101 1.83948 19.0485 2.07788L21.9221 4.95154C22.1605 5.18994 22.2006 5.56256 22.0182 5.84637L20.9971 7.43481C21.2316 7.89624 21.4303 8.37524 21.5907 8.86633ZM12 16.3028C14.3725 16.3028 16.3028 14.3725 16.3028 12C16.3028 9.6275 14.3725 7.6972 12 7.6972C9.6275 7.6972 7.6972 9.6275 7.6972 12C7.6972 14.3725 9.6275 16.3028 12 16.3028Z" fill="white"/>
</mask>
<g mask="url(#mask0_0_6655)">
<rect width="24" height="24" fill="black"/>
</g>
</svg>
