<svg width="24" height="24" viewBox="0 0 24 24" fill="none" xmlns="http://www.w3.org/2000/svg">
<mask id="mask0_0_6635" style="mask-type:alpha" maskUnits="userSpaceOnUse" x="0" y="0" width="24" height="24">
<path fill-rule="evenodd" clip-rule="evenodd" d="M18.4358 0.000951109C19.908 -0.026002 21.295 0.520701 22.3424 1.53967C23.3999 2.56839 23.9879 3.94684 23.9981 5.42115C24.0084 6.8957 23.44 8.28194 22.3977 9.32458C21.4561 10.2665 20.2062 10.8312 18.8784 10.9146C17.2926 11.0142 15.822 11.6665 14.7374 12.7515L14.7051 12.7838C14.5795 12.9095 14.4091 12.9802 14.2314 12.9802C14.0536 12.9802 13.8832 12.9096 13.7576 12.784L11.147 10.1725C10.8855 9.91098 10.8855 9.487 11.147 9.22544L11.2929 9.07956C12.3385 8.03345 12.9742 6.61028 13.0827 5.07226C13.1721 3.80495 13.7047 2.60134 14.5824 1.68315C15.5938 0.625139 16.9623 0.0277167 18.4358 0.000951109ZM18.6744 12.2982C17.5313 12.4323 16.4833 12.9278 15.6988 13.7125L15.6677 13.7437C15.2834 14.1283 14.7737 14.3395 14.2316 14.3396H14.2313C13.689 14.3396 13.1794 14.1285 12.7961 13.745L10.1856 11.1337C9.39484 10.3425 9.39488 9.05542 10.1857 8.2644L10.3316 8.11843C11.0694 7.38044 11.5443 6.39465 11.6907 5.31489C10.6911 4.71315 9.70829 4.25898 8.82099 3.9954C6.75484 3.38167 5.67155 3.90254 5.12663 4.44761C4.1814 5.39312 4.15913 7.08601 5.06387 9.21447C5.85849 11.0838 7.32099 13.1631 9.07641 14.919C10.8318 16.675 12.9104 18.138 14.7792 18.9329C15.8188 19.375 16.7544 19.5959 17.5497 19.5959C18.3825 19.5959 19.0616 19.3537 19.5451 18.8701C20.091 18.324 20.6121 17.238 19.9942 15.1654C19.7297 14.2783 19.2755 13.2966 18.6744 12.2982ZM11.9386 18.9549C11.7817 19.1745 11.607 19.3824 11.4144 19.575C10.4805 20.5092 9.23879 21.0236 7.91804 21.0236C6.59729 21.0236 5.35562 20.5092 4.42173 19.575C2.49404 17.6467 2.49404 14.509 4.42173 12.5807C4.6157 12.3867 4.82265 12.2112 5.04062 12.0543C4.54782 11.2753 4.13162 10.4962 3.81282 9.74622C3.80612 9.73043 3.79968 9.71473 3.79325 9.69904L3.7794 9.66545C3.22801 9.99175 2.71763 10.3877 2.25343 10.852C-0.748539 13.855 -0.748539 18.7412 2.25343 21.7441C3.70773 23.1988 5.64132 24 7.69805 24C9.75474 24 11.6883 23.1988 13.1426 21.7441C13.6005 21.2861 13.9979 20.7712 14.3262 20.2165L14.2933 20.203L14.2929 20.2028C14.2777 20.1966 14.2624 20.1903 14.2471 20.1838C13.497 19.8647 12.7178 19.4481 11.9386 18.9549Z" fill="white"/>
</mask>
<g mask="url(#mask0_0_6635)">
<rect width="24" height="24" fill="black"/>
</g>
</svg>
