<svg width="24" height="24" viewBox="0 0 24 24" fill="none" xmlns="http://www.w3.org/2000/svg">
<mask id="mask0_0_6650" style="mask-type:alpha" maskUnits="userSpaceOnUse" x="1" y="0" width="22" height="24">
<path d="M21.5242 1.89835H12.212L9.64668 0.128267C9.51841 0.0513069 9.36449 0 9.21057 0H2.43806C2.00195 0 1.66846 0.333495 1.66846 0.769603V15.3151C1.66846 15.7512 2.00195 16.0847 2.43806 16.0847H11.2115V18.0344C10.1597 18.3166 9.33884 19.1375 9.0823 20.1893H2.66894V21.7285H9.0823C9.49276 23.319 11.1346 24.2938 12.7507 23.8577C13.8025 23.5755 14.6234 22.7546 14.88 21.7285H21.6525V20.1893H14.88C14.5978 19.1375 13.8025 18.3166 12.7507 18.0344V16.0847H21.5242C21.9603 16.0847 22.2938 15.7512 22.2938 15.3151V2.66796C22.2938 2.2575 21.9603 1.89835 21.5242 1.89835Z" fill="white"/>
</mask>
<g mask="url(#mask0_0_6650)">
<rect width="24" height="24" fill="black"/>
</g>
</svg>
