<svg width="24" height="24" viewBox="0 0 24 24" fill="none" xmlns="http://www.w3.org/2000/svg">
<mask id="mask0_0_6671" style="mask-type:alpha" maskUnits="userSpaceOnUse" x="0" y="0" width="24" height="22">
<path fill-rule="evenodd" clip-rule="evenodd" d="M12.718 11.3101V15.5338H8.49426V14.8531C8.49426 13.6758 7.53644 12.718 6.35889 12.718C5.18152 12.718 4.22369 13.6758 4.22369 14.8531V15.5338H0V11.3101H0.58667C1.61975 11.3101 2.48364 10.5725 2.67993 9.59656C2.76508 9.47736 2.8158 9.33197 2.8158 9.17468C2.8158 9.0174 2.76508 8.87201 2.67993 8.75299C2.48364 7.77686 1.61975 7.03949 0.58667 7.03949H0V2.8158H4.22369V2.13538C4.22369 0.957825 5.18152 0 6.35889 0C7.53644 0 8.49426 0.957825 8.49426 2.13538V2.8158H12.718V7.03949H13.3044C14.482 7.03949 15.4398 7.99731 15.4398 9.17468C15.4398 10.3522 14.482 11.3101 13.3044 11.3101H12.718ZM24 12.446L21.0134 15.4325L21.4283 15.8474C22.2609 16.68 22.2609 18.0346 21.4283 18.8672C20.5957 19.6998 19.2411 19.6998 18.4085 18.8672L17.9938 18.4523L15.0071 21.4389L11.025 17.4569L11.5404 16.9415H14.1259V12.6218C15.6848 12.2505 16.8477 10.8459 16.8477 9.17468C16.8477 7.50366 15.6848 6.09906 14.1259 5.72754V4.33447L15.0071 3.453L17.9938 6.43964L18.475 5.95844C18.8782 5.55524 19.4145 5.33313 19.9847 5.33313C20.5551 5.33313 21.0914 5.55524 21.4948 5.95844C22.3271 6.79102 22.3271 8.14563 21.4946 8.97821L21.0134 9.45941L24 12.446Z" fill="white"/>
</mask>
<g mask="url(#mask0_0_6671)">
<rect width="24" height="24" fill="white"/>
<rect width="24" height="24" fill="black"/>
</g>
</svg>
