<svg width="48" height="45" viewBox="0 0 48 45" fill="none" xmlns="http://www.w3.org/2000/svg">
<path fill-rule="evenodd" clip-rule="evenodd" d="M24 45C26.3282 45 28.2157 43.1307 28.2157 40.8248C28.2157 38.5189 26.3282 36.6496 24 36.6496C21.6718 36.6496 19.7843 38.5189 19.7843 40.8248C19.7843 43.1307 21.6718 45 24 45ZM17.1133 39.432H0V42.2175H17.1133C17.0207 41.7674 16.9718 41.3017 16.9718 40.8248C16.9718 40.3479 17.0207 39.8822 17.1133 39.432ZM31.0282 40.8248C31.0282 41.3017 30.9793 41.7674 30.8866 42.2175H48V39.432H30.8866C30.9793 39.8822 31.0282 40.3479 31.0282 40.8248Z" fill="#FBA800"/>
<path fill-rule="evenodd" clip-rule="evenodd" d="M25.4062 34.0042V30.8456H37.3982C43.244 30.8456 48 26.1353 48 20.3454C48 14.5557 43.2441 9.84536 37.3982 9.84536H36.1343C35.0428 7.1372 33.2224 4.80295 30.825 3.05143C28.0927 1.05515 24.8488 0 21.444 0C13.4118 0 6.69459 5.97091 5.74172 13.7635C2.31562 15.0507 0 18.3139 0 22.0167C0 26.8849 3.99891 30.8456 8.91431 30.8456H22.5938V34.0042C23.0483 33.9124 23.5185 33.864 24 33.864C24.4815 33.864 24.9517 33.9124 25.4062 34.0042ZM24 11.5917C28.9183 11.5917 32.9198 15.5546 32.9198 20.4257H30.1073C30.1073 17.0906 27.3675 14.3772 24 14.3772C20.6325 14.3772 17.8927 17.0906 17.8927 20.4257H15.0802C15.0802 15.5546 19.0817 11.5917 24 11.5917ZM22.5938 20.4256V23.2111H25.4062V20.4256H22.5938Z" fill="#5DC2A7"/>
</svg>
