<svg width="48" height="43" viewBox="0 0 48 43" fill="none" xmlns="http://www.w3.org/2000/svg">
<path fill-rule="evenodd" clip-rule="evenodd" d="M0.00393782 0H39.0937V5.23366L30.7535 9.65359H0.00393782V0ZM4.05502 6.20831H6.86775V3.38807H4.05502V6.20831ZM10.1884 6.20821V3.38807H13.0011V6.20821H10.1884ZM30.1873 12.4951V18.4534C30.1873 19.7082 30.3688 20.9536 30.7165 22.1486H0.00393782V12.4951H30.1873ZM4.05502 18.732H6.86775V15.9117H4.05502V18.732ZM13.0011 18.732H10.1884V15.9117H13.0011V18.732ZM39.0937 30.9117C36.6969 30.107 34.5571 28.6001 32.9855 26.5907C32.5889 26.0835 32.2315 25.5481 31.915 24.9903H0.00393782V34.6439H39.0937V30.9117ZM6.86775 31.2271H4.05502V28.4069H6.86775V31.2271ZM10.1884 31.2271H13.0011V28.4069H10.1884V31.2271ZM18.6348 37.4853H21.4475V40.1585H40.0867V43H0V40.1585H18.6348V37.4853Z" fill="#5DC2A7"/>
<path fill-rule="evenodd" clip-rule="evenodd" d="M40.5001 7.69702L48 11.6718V18.4534C48 23.1244 44.933 27.1566 40.5001 28.3746C36.067 27.1565 33 23.1244 33 18.4534V11.6718L40.5001 7.69702ZM35.4992 18.26L39.6706 22.4186L45.5074 16.5218L43.5185 14.5126L39.6574 18.4133L37.4749 16.2374L35.4992 18.26Z" fill="#FBA800"/>
</svg>
