<svg width="48" height="40" viewBox="0 0 48 40" fill="none" xmlns="http://www.w3.org/2000/svg">
<path fill-rule="evenodd" clip-rule="evenodd" d="M40.4155 10.2243H2.63307V33.1215H31.3718C31.164 33.464 31.0219 33.8443 30.9542 34.248L30.695 35.7771H1.31653C0.589412 35.7771 0 35.1826 0 34.4493V1.32783C0 0.594468 0.589412 0 1.31653 0H41.732C42.4588 0 43.0485 0.594468 43.0485 1.32783V22.1078C42.3797 22.2055 41.7623 22.516 41.2761 23.0067L40.4155 23.8746V10.2243ZM13.7567 17.2578C13.7567 18.5961 12.681 19.6811 11.354 19.6811C10.0271 19.6811 8.95137 18.5961 8.95137 17.2578C8.95137 15.9194 10.0271 14.8345 11.354 14.8345C12.681 14.8345 13.7567 15.9194 13.7567 17.2578ZM34.0971 15.266H17.9038C16.8133 15.266 15.929 16.1578 15.929 17.2578C15.929 18.3577 16.8133 19.2495 17.9038 19.2495H34.0971C35.1879 19.2495 36.0719 18.3577 36.0719 17.2578C36.0719 16.1578 35.1879 15.266 34.0971 15.266ZM11.354 27.648C12.681 27.648 13.7567 26.5631 13.7567 25.2247C13.7567 23.8864 12.681 22.8015 11.354 22.8015C10.0271 22.8015 8.95137 23.8864 8.95137 25.2247C8.95137 26.5631 10.0271 27.648 11.354 27.648ZM34.0971 23.233H17.9038C16.8133 23.233 15.929 24.1248 15.929 25.2247C15.929 26.3247 16.8133 27.2165 17.9038 27.2165H34.0971C35.1879 27.2165 36.0719 26.3247 36.0719 25.2247C36.0719 24.1248 35.1879 23.233 34.0971 23.233Z" fill="#5DC2A7"/>
<path fill-rule="evenodd" clip-rule="evenodd" d="M44.3403 24.4148L47.6543 27.7571C47.8769 27.9815 47.9996 28.2801 47.9996 28.5977C47.9996 28.9154 47.8767 29.2141 47.6538 29.4389L45.3772 31.7351L40.3958 26.7109L42.6731 24.4142C42.8952 24.1898 43.1911 24.0662 43.5065 24.0662C43.8215 24.0662 44.1177 24.19 44.3403 24.4148ZM32.9011 34.5785C32.9419 34.3352 33.0554 34.114 33.2292 33.9388L39.2512 27.8655L44.2327 32.8898L38.2111 38.963C38.0373 39.1383 37.8172 39.2528 37.5739 39.2944L33.579 39.983C33.5134 39.9943 33.4466 40 33.3799 40C33.0649 40 32.7687 39.876 32.5453 39.6504C32.276 39.3791 32.1537 38.9905 32.218 38.611L32.9011 34.5785Z" fill="#FBA800"/>
</svg>
