<svg width="22" height="22" viewBox="0 0 22 22" fill="none" xmlns="http://www.w3.org/2000/svg">
<path fill-rule="evenodd" clip-rule="evenodd" d="M2.1523 10.2808H19.1419C20.3288 10.2808 21.2942 11.2462 21.2942 12.4331V19.8479C21.2942 21.0345 20.3288 22 19.1419 22H2.1523C0.965454 22 0 21.0345 0 19.8479V12.4331C0 11.2462 0.965454 10.2808 2.1523 10.2808ZM19.1419 20.7109C19.6179 20.7109 20.0051 20.3237 20.0051 19.8479V12.4331C20.0051 11.957 19.6179 11.5698 19.1419 11.5698H2.1523C1.67628 11.5698 1.28906 11.957 1.28906 12.4331V19.8479C1.28906 20.3237 1.67628 20.7109 2.1523 20.7109H19.1419Z" fill="black"/>
<path fill-rule="evenodd" clip-rule="evenodd" d="M12.0631 6.31887C11.6732 6.7081 11.1611 6.90264 10.649 6.90264C10.1367 6.90264 9.62463 6.7081 9.23473 6.31887C8.85657 5.94155 8.64844 5.43969 8.64844 4.90577C8.64844 4.37185 8.85657 3.86998 9.23473 3.49266C10.0145 2.71436 11.2833 2.71436 12.0631 3.49266C12.4413 3.86998 12.6494 4.37185 12.6494 4.90577C12.6494 5.43969 12.4413 5.94155 12.0631 6.31887ZM10.649 4.19712C10.4666 4.19712 10.2843 4.26627 10.1453 4.40491C10.0114 4.53885 9.9375 4.7166 9.9375 4.90577C9.9375 5.09493 10.0112 5.27268 10.1453 5.40662C10.4231 5.68357 10.8748 5.68373 11.1525 5.40662C11.2865 5.27268 11.3603 5.09493 11.3603 4.90577C11.3603 4.7166 11.2865 4.53868 11.1524 4.40491C11.0136 4.26644 10.8313 4.19712 10.649 4.19712Z" fill="black"/>
<path d="M13.0037 7.72402C13.1296 7.85024 13.2947 7.91335 13.4599 7.91335C13.6247 7.91335 13.7894 7.85058 13.9153 7.72503C14.6697 6.9719 15.0853 5.97069 15.0853 4.90554C15.0853 3.84038 14.6697 2.83901 13.9153 2.08605C13.6633 1.83462 13.2551 1.83495 13.0037 2.08689C12.7523 2.33883 12.7528 2.74703 13.0047 2.99846C13.5151 3.50788 13.7963 4.18514 13.7963 4.90554C13.7963 5.62577 13.5151 6.3032 13.0047 6.81261C12.7528 7.06405 12.7523 7.47208 13.0037 7.72402Z" fill="black"/>
<path d="M7.37856 7.72517C7.50444 7.85072 7.6691 7.9135 7.83392 7.9135C7.99908 7.9135 8.16425 7.85039 8.29013 7.72417C8.54156 7.47223 8.54106 7.06419 8.28912 6.81276C7.7787 6.30318 7.49756 5.62592 7.49756 4.90552C7.49756 4.18529 7.7787 3.50803 8.28912 2.99844C8.54106 2.74701 8.54156 2.33897 8.29013 2.08704C8.0387 1.83493 7.63049 1.8346 7.37856 2.08603C6.62408 2.83916 6.20866 3.84036 6.2085 4.90552C6.2085 5.97067 6.62408 6.97205 7.37856 7.72517Z" fill="black"/>
<path d="M5.60272 18.1318H3.87256V13.5044C3.87256 13.1484 3.58403 12.8599 3.22803 12.8599C2.87202 12.8599 2.5835 13.1484 2.5835 13.5044V18.7763C2.5835 19.1323 2.87202 19.4208 3.22803 19.4208H5.60272C5.95856 19.4208 6.24725 19.1323 6.24725 18.7763C6.24725 18.4205 5.95856 18.1318 5.60272 18.1318Z" fill="black"/>
<path d="M7.59961 12.8599C7.24361 12.8599 6.95508 13.1484 6.95508 13.5044V18.7763C6.95508 19.1323 7.24361 19.4208 7.59961 19.4208C7.95544 19.4208 8.24414 19.1323 8.24414 18.7763V13.5044C8.24414 13.1484 7.95544 12.8599 7.59961 12.8599V12.8599Z" fill="black"/>
<path d="M13.2364 12.8876C12.8958 12.7847 12.536 12.9775 12.4331 13.3183L11.4585 16.5464L10.4839 13.3183C10.381 12.9774 10.0213 12.7847 9.68054 12.8876C9.33981 12.9904 9.14696 13.3501 9.24985 13.6909L10.8415 18.9628C10.8417 18.9633 10.8419 18.9638 10.842 18.9643C11.0174 19.5256 11.8815 19.5596 12.075 18.9643C12.0752 18.9638 12.0754 18.9634 12.0755 18.9628L13.6672 13.6909C13.7701 13.35 13.5771 12.9904 13.2364 12.8876Z" fill="black"/>
<path d="M18.0663 14.1489C18.4223 14.1489 18.7108 13.8604 18.7108 13.5044C18.7108 13.1484 18.4223 12.8599 18.0663 12.8599H15.1587C14.8027 12.8599 14.5142 13.1484 14.5142 13.5044V18.7763C14.5142 19.1323 14.8027 19.4208 15.1587 19.4208H17.9795C18.3355 19.4208 18.6241 19.1323 18.6241 18.7763C18.6241 18.4205 18.3355 18.1318 17.9795 18.1318H15.8032V16.453H17.6322C17.9883 16.453 18.2768 16.1644 18.2768 15.8084C18.2768 15.4524 17.9883 15.1639 17.6322 15.1639H15.8032V14.1489H18.0663Z" fill="black"/>
<path d="M16.0418 4.90575C16.0418 6.34286 15.481 7.69419 14.4627 8.7105C14.2108 8.96194 14.2103 9.37014 14.4617 9.62208C14.5878 9.74813 14.7527 9.81124 14.9179 9.81124C15.0827 9.81124 15.2474 9.74846 15.3733 9.62292C16.6356 8.36306 17.3309 6.68778 17.3309 4.90575C17.3309 3.12389 16.6356 1.44845 15.3733 0.188589C15.1213 -0.062845 14.7133 -0.0625093 14.4617 0.189429C14.2103 0.441366 14.2108 0.84957 14.4627 1.101C15.481 2.11732 16.0418 3.46848 16.0418 4.90575Z" fill="black"/>
<path d="M6.37634 9.81114C6.5415 9.81114 6.70667 9.74803 6.83255 9.62198C7.08398 9.37004 7.08365 8.96184 6.83154 8.7104C5.81322 7.69409 5.25244 6.34276 5.25244 4.90549C5.25244 3.46838 5.81322 2.11705 6.83154 1.10074C7.08348 0.849305 7.08398 0.441101 6.83255 0.189331C6.58095 -0.0627743 6.17291 -0.06311 5.92097 0.188324C4.6586 1.44835 3.96338 3.12363 3.96338 4.90549C3.96338 6.68752 4.6586 8.36279 5.92097 9.62282C6.04686 9.74837 6.21152 9.81114 6.37634 9.81114Z" fill="black"/>
</svg>
