<svg width="129" height="30" viewBox="0 0 129 30" fill="none" xmlns="http://www.w3.org/2000/svg">
<g filter="url(#filter0_d_0_23558)">
<path fill-rule="evenodd" clip-rule="evenodd" d="M94.3507 11.3452C94.0712 11.6247 93.73 11.7644 93.327 11.7644C92.924 11.7644 92.5827 11.6247 92.3032 11.3452C92.0237 11.0657 91.884 10.7244 91.884 10.3214C91.884 9.93145 92.0237 9.5967 92.3032 9.3172C92.5827 9.0377 92.924 8.89795 93.327 8.89795C93.73 8.89795 94.0712 9.0377 94.3507 9.3172C94.6302 9.5967 94.77 9.93145 94.77 10.3214C94.77 10.7244 94.6302 11.0657 94.3507 11.3452ZM65.2275 23.2304C66.1635 23.2304 67.041 22.9964 67.86 22.5284C68.679 22.0604 69.3257 21.4364 69.8002 20.6564C70.2747 19.8764 70.512 19.0249 70.512 18.1019L70.4925 8.93695L68.3085 10.1069V13.6559C67.3725 12.9929 66.3455 12.6614 65.2275 12.6614C64.2785 12.6614 63.401 12.8954 62.595 13.3634C61.776 13.8444 61.1292 14.4912 60.6547 15.3037C60.1802 16.1162 59.943 16.9969 59.943 17.9459C59.943 18.9079 60.1835 19.7854 60.6645 20.5784C61.1325 21.3974 61.7727 22.0442 62.5852 22.5187C63.3977 22.9932 64.2785 23.2304 65.2275 23.2304ZM43.0365 23.2304C43.8815 23.2304 44.6615 23.0484 45.3765 22.6844C46.1045 22.3204 46.7155 21.8199 47.2095 21.1829C47.7035 20.5459 48.035 19.8309 48.204 19.0379H45.9225C45.7015 19.6229 45.3277 20.1007 44.8012 20.4712C44.2747 20.8417 43.6865 21.0269 43.0365 21.0269C42.4645 21.0269 41.951 20.8839 41.496 20.5979C41.028 20.3249 40.6542 19.9512 40.3747 19.4767C40.0952 19.0022 39.9555 18.4919 39.9555 17.9459C39.9555 17.3739 40.0985 16.8604 40.3845 16.4054C40.6575 15.9374 41.0312 15.5637 41.5057 15.2842C41.9802 15.0047 42.4905 14.8649 43.0365 14.8649C43.6865 14.8649 44.2715 15.0469 44.7915 15.4109C45.3115 15.7749 45.682 16.2494 45.903 16.8344L48.204 16.8539C48.035 16.0739 47.7035 15.3589 47.2095 14.7089C46.7025 14.0719 46.085 13.5714 45.357 13.2074C44.629 12.8434 43.8555 12.6614 43.0365 12.6614C42.0875 12.6614 41.21 12.8954 40.404 13.3634C39.585 13.8444 38.9382 14.4912 38.4637 15.3037C37.9892 16.1162 37.752 16.9969 37.752 17.9459C37.752 18.9079 37.9925 19.7854 38.4735 20.5784C38.9415 21.3974 39.5817 22.0442 40.3942 22.5187C41.2067 22.9932 42.0875 23.2304 43.0365 23.2304ZM54.0735 23.2304C55.0355 23.2304 55.9195 22.9899 56.7255 22.5089C57.5315 22.0409 58.1717 21.4007 58.6462 20.5882C59.1207 19.7757 59.358 18.8949 59.358 17.9459C59.358 16.9969 59.124 16.1129 58.656 15.2939C58.175 14.4879 57.525 13.8477 56.706 13.3732C55.887 12.8987 55.0095 12.6614 54.0735 12.6614C53.1245 12.6614 52.247 12.8954 51.441 13.3634C50.622 13.8444 49.9752 14.4912 49.5007 15.3037C49.0262 16.1162 48.789 16.9969 48.789 17.9459C48.789 18.9079 49.0295 19.7854 49.5105 20.5784C49.9785 21.3974 50.6187 22.0442 51.4312 22.5187C52.2437 22.9932 53.1245 23.2304 54.0735 23.2304ZM52.611 20.4809C53.066 20.7409 53.5535 20.8709 54.0735 20.8709C54.6065 20.8709 55.0972 20.7409 55.5457 20.4809C55.9942 20.2209 56.3485 19.8634 56.6085 19.4084C56.8685 18.9534 56.9985 18.4659 56.9985 17.9459C56.9985 17.4129 56.8717 16.9222 56.6182 16.4737C56.3647 16.0252 56.0105 15.6709 55.5555 15.4109C55.1005 15.1509 54.6065 15.0209 54.0735 15.0209C53.5405 15.0209 53.0497 15.1477 52.6012 15.4012C52.1527 15.6547 51.7985 16.0089 51.5385 16.4639C51.2785 16.9189 51.1485 17.4129 51.1485 17.9459C51.1485 18.4789 51.2785 18.9697 51.5385 19.4182C51.7985 19.8667 52.156 20.2209 52.611 20.4809ZM63.687 20.5979C64.142 20.8839 64.6555 21.0269 65.2275 21.0269C65.7735 21.0269 66.2837 20.8872 66.7582 20.6077C67.2327 20.3282 67.613 19.9544 67.899 19.4864C68.172 19.0184 68.3085 18.5049 68.3085 17.9459C68.3085 17.3999 68.1687 16.8897 67.8892 16.4152C67.6097 15.9407 67.236 15.5604 66.768 15.2744C66.3 15.0014 65.7865 14.8649 65.2275 14.8649C64.6815 14.8649 64.1712 15.0047 63.6967 15.2842C63.2222 15.5637 62.8485 15.9374 62.5755 16.4054C62.2895 16.8604 62.1465 17.3739 62.1465 17.9459C62.1465 18.4919 62.2862 19.0022 62.5657 19.4767C62.8452 19.9512 63.219 20.3249 63.687 20.5979ZM76.362 23.2304C77.259 23.2304 78.104 23.0159 78.897 22.5869C79.69 22.1579 80.327 21.5729 80.808 20.8319L78.6825 20.0129C78.3965 20.3379 78.0487 20.5882 77.6392 20.7637C77.2297 20.9392 76.804 21.0269 76.362 21.0269C75.972 21.0269 75.608 20.9619 75.27 20.8319C74.854 20.6759 74.49 20.4387 74.178 20.1202C73.866 19.8017 73.632 19.4279 73.476 18.9989L81.549 18.7844V18.7649L81.588 18.7844C81.627 18.5114 81.6465 18.2319 81.6465 17.9459C81.6465 16.8799 81.341 15.8854 80.73 14.9624C80.171 14.1434 79.495 13.5552 78.702 13.1977C77.909 12.8402 77.142 12.6614 76.401 12.6614C75.309 12.6614 74.308 12.9734 73.398 13.5974C72.488 14.2214 71.838 15.0404 71.448 16.0544C71.214 16.6784 71.097 17.3024 71.097 17.9264C71.097 18.9924 71.409 19.9869 72.033 20.9099C72.592 21.7419 73.2647 22.3367 74.0512 22.6942C74.8377 23.0517 75.608 23.2304 76.362 23.2304ZM73.4955 16.8539L73.4565 16.9709L79.248 16.8344C79.1049 16.4314 78.8807 16.0772 78.5752 15.7717C78.2697 15.4662 77.909 15.2354 77.493 15.0794C77.155 14.9494 76.791 14.8844 76.401 14.8844C75.764 14.8844 75.179 15.0599 74.646 15.4109C74.113 15.7619 73.7295 16.2429 73.4955 16.8539ZM85.1565 23.2499C85.1695 23.2239 85.176 23.1654 85.176 23.0744V19.9544L85.5855 19.0964L88.608 23.2499H91.026L86.814 17.5949L90.597 12.7199H88.0035L85.176 16.4639V8.95645H82.8165V23.2499H85.1565ZM94.653 23.2694V12.6809H92.0985V23.2694H94.653ZM98.2995 14.3969V23.1914H95.745V8.95645H98.2995V12.1349H100.639L100.035 14.3969H98.2995ZM104.169 23.1914V14.3969H105.904L106.509 12.1349H104.169V8.95645H101.614V23.1914H104.169ZM114.894 22.5869C114.101 23.0159 113.256 23.2304 112.359 23.2304C111.605 23.2304 110.835 23.0517 110.048 22.6942C109.262 22.3367 108.589 21.7419 108.03 20.9099C107.406 19.9869 107.094 18.9924 107.094 17.9264C107.094 17.3024 107.211 16.6784 107.445 16.0544C107.835 15.0404 108.485 14.2214 109.395 13.5974C110.305 12.9734 111.306 12.6614 112.398 12.6614C113.139 12.6614 113.906 12.8402 114.699 13.1977C115.492 13.5552 116.168 14.1434 116.727 14.9624C117.338 15.8854 117.643 16.8799 117.643 17.9459C117.643 18.2319 117.624 18.5114 117.585 18.7844L117.546 18.7649V18.7844L109.473 18.9989C109.629 19.4279 109.863 19.8017 110.175 20.1202C110.487 20.4387 110.851 20.6759 111.267 20.8319C111.605 20.9619 111.969 21.0269 112.359 21.0269C112.801 21.0269 113.227 20.9392 113.636 20.7637C114.046 20.5882 114.393 20.3379 114.679 20.0129L116.805 20.8319C116.324 21.5729 115.687 22.1579 114.894 22.5869ZM109.453 16.9709L109.492 16.8539C109.726 16.2429 110.11 15.7619 110.643 15.4109C111.176 15.0599 111.761 14.8844 112.398 14.8844C112.788 14.8844 113.152 14.9494 113.49 15.0794C113.906 15.2354 114.267 15.4662 114.572 15.7717C114.878 16.0772 115.102 16.4314 115.245 16.8344L109.453 16.9709ZM120.412 17.3219V23.2304H118.228V17.3219C118.228 16.4119 118.453 15.6027 118.901 14.8942C119.35 14.1857 119.957 13.6364 120.724 13.2464C121.478 12.8694 122.271 12.6809 123.103 12.6809C123.961 12.6809 124.761 12.8727 125.502 13.2562C126.243 13.6397 126.847 14.1759 127.315 14.8649C127.77 15.5929 127.998 16.4119 127.998 17.3219L127.959 23.2304H125.775V17.3219C125.775 16.5679 125.515 15.9732 124.995 15.5377C124.475 15.1022 123.844 14.8844 123.103 14.8844C122.349 14.8844 121.712 15.1022 121.192 15.5377C120.672 15.9732 120.412 16.5679 120.412 17.3219Z" fill="black"/>
<path d="M33.9597 18.6947C34.1663 19.8593 34.7621 20.9995 34.7198 21.3761C34.6316 22.1382 32.93 21.2297 32.93 21.2297C32.93 21.2297 32.8292 21.4686 33.169 22.1506C33.4213 22.6582 33.6431 23.0294 33.538 23.3014C33.426 23.5907 32.931 23.6496 32.3546 23.5825C31.9503 23.5354 31.6077 23.5875 31.1602 24.0696C31.071 24.1629 30.9805 24.2736 30.885 24.4022C30.8842 24.4033 30.8831 24.4033 30.8822 24.4033L30.8814 24.4043C29.5412 25.9523 27.9101 27.3767 25.7493 28.3878C23.7448 29.326 14.9142 32.4053 7.06789 26.3137C6.06843 25.5378 5.17149 24.6438 4.48347 23.5468C4.3141 23.4985 4.1473 23.4991 3.96719 23.5183C3.39008 23.583 2.89529 23.5234 2.78481 23.2321C2.68164 22.9604 2.86971 22.5574 3.10077 22.0361C3.28733 21.616 3.36149 21.3527 3.38814 21.2351C3.39459 21.2055 3.36987 21.1809 3.3458 21.1921C3.0494 21.3409 1.68755 21.9813 1.61146 21.3022C1.56954 20.9249 2.1718 19.788 2.38266 18.6235C2.72828 16.7237 2.99996 15.3864 3.17256 14.5794C3.17643 14.5575 3.18137 14.5355 3.18717 14.5134C3.19104 14.4923 3.19599 14.4704 3.19985 14.4504C3.20372 14.4293 3.20974 14.4093 3.21361 14.3894C3.2652 14.1544 3.32344 13.922 3.38857 13.6903C3.68454 12.6191 4.10883 11.5572 4.64983 10.3555C3.8696 9.00277 0.579967 2.98613 2.37599 0.701914C3.40168 -0.602706 10.4119 2.00266 11.9459 2.59532C13.6252 1.78834 15.5296 1.29285 17.6446 1.20321C18.0719 1.18494 18.4904 1.18408 18.9003 1.20149C18.9106 1.2002 18.922 1.20063 18.9314 1.20214C20.3083 1.25351 21.5427 1.60863 22.7281 2.02352C22.8674 2.07317 23.0056 2.12283 23.1438 2.17227C23.7065 2.37713 24.2385 2.61703 24.7432 2.88273C26.2963 2.34102 33.5649 -0.115382 34.5469 1.22127C36.2624 3.55449 32.8079 9.42926 31.9716 10.7827C32.174 11.2249 32.3537 11.661 32.5128 12.1021C32.7034 12.629 32.8612 13.1608 32.9874 13.7129C32.9874 13.7129 32.9886 13.7223 32.9932 13.7421C33.0284 13.8941 33.1971 14.6387 33.4649 16.016C33.6042 16.7355 33.771 17.6261 33.9597 18.6947Z" fill="white"/>
<path fill-rule="evenodd" clip-rule="evenodd" d="M17.0792 1.36353H18.7837C18.7837 1.36353 19.1246 2.80017 19.1246 3.69355C19.1246 3.99986 19.0846 4.30312 19.0319 4.56942C18.9242 5.11398 18.4187 5.45443 17.8636 5.45443C17.3786 5.45443 16.9328 5.18676 16.8356 4.71163C16.7807 4.4435 16.7383 4.10366 16.7383 3.69355C16.7383 2.53055 17.0792 1.36353 17.0792 1.36353Z" fill="black"/>
<path fill-rule="evenodd" clip-rule="evenodd" d="M19.8067 1.70459H21.5113C21.5113 1.70459 21.8522 2.78207 21.8522 3.45211C21.8522 3.66362 21.8182 3.8732 21.7717 4.06099C21.6595 4.5142 21.2187 4.77277 20.7518 4.77277C20.1922 4.77277 19.7128 4.39596 19.6865 3.83695C19.681 3.71951 19.6777 3.5912 19.6777 3.45211C19.6777 2.57986 19.8067 1.70459 19.8067 1.70459Z" fill="black"/>
<path fill-rule="evenodd" clip-rule="evenodd" d="M15.9276 1.70459H14.2231C14.2231 1.70459 13.8822 2.78207 13.8822 3.45211C13.8822 3.66362 13.9162 3.8732 13.9627 4.06099C14.0749 4.5142 14.5156 4.77277 14.9825 4.77277C15.5422 4.77277 16.0216 4.39596 16.0478 3.83695C16.0534 3.71951 16.0566 3.5912 16.0566 3.45211C16.0566 2.57986 15.9276 1.70459 15.9276 1.70459Z" fill="black"/>
<path d="M11.0374 28.9716C10.358 28.7582 9.69906 28.4772 9.06066 28.1534C8.74307 27.9885 8.42913 27.8149 8.12247 27.6288C7.81668 27.4414 7.51581 27.2452 7.22246 27.0377C6.93103 26.8289 6.64239 26.6118 6.36232 26.3814C6.08333 26.1499 5.81335 25.9053 5.55495 25.6472C5.41045 25.5036 4.45098 24.6193 4.04018 23.6761C3.46859 22.3636 2.23387 17.7573 2.23387 17.7573L2.8609 14.5342L2.8549 14.561C2.89328 14.3665 2.94453 14.1871 2.98892 13.9995L3.05819 13.7209L3.13517 13.4476C3.24175 13.0841 3.36034 12.7248 3.489 12.371C3.74526 11.6625 4.03798 10.9736 4.34099 10.2938L4.35814 10.6401C3.93161 9.89089 3.53725 9.12832 3.17184 8.34845C2.80708 7.56858 2.47212 6.77249 2.18927 5.95134C1.9062 5.13105 1.67417 4.28396 1.56223 3.39752C1.50841 2.9542 1.49082 2.49791 1.54315 2.03362C1.5944 1.57213 1.731 1.09098 2.00849 0.670356L2.11485 0.514944C2.13716 0.485764 2.16975 0.450531 2.19784 0.419838C2.22765 0.390225 2.25917 0.364071 2.2907 0.337052C2.41872 0.236542 2.5521 0.175156 2.6797 0.130196C2.9366 0.0413585 3.17549 0.0177981 3.40859 0.00418066C3.87243 -0.0144083 4.31096 0.0314156 4.74307 0.0936669C5.60556 0.222709 6.43759 0.429348 7.26148 0.657171C8.90669 1.12016 10.5116 1.67935 12.1006 2.29192L11.801 2.3038C12.3534 2.03837 12.9217 1.80666 13.5022 1.61299C14.0833 1.42105 14.6761 1.26542 15.2752 1.14589C15.8748 1.02787 16.481 0.947461 17.089 0.90034C17.6967 0.854084 18.3068 0.838305 18.9188 0.864891L18.8543 0.867701C18.9002 0.863162 18.948 0.864027 18.9937 0.870079L18.9482 0.86554C19.4753 0.886074 19.9992 0.949838 20.5134 1.0497C21.0274 1.15021 21.532 1.28379 22.0255 1.43834C22.2727 1.51507 22.5163 1.59678 22.7597 1.68194C23.0031 1.76862 23.2377 1.85097 23.4856 1.94651C23.9728 2.13564 24.4478 2.3546 24.9084 2.59885L24.6082 2.57637C26.2279 2.01135 27.8619 1.49648 29.5316 1.07564C30.3673 0.868133 31.2113 0.683325 32.0803 0.569198C32.5158 0.514944 32.9567 0.475388 33.4188 0.494626C33.6508 0.507379 33.8869 0.528561 34.1387 0.603133C34.2641 0.640743 34.3939 0.688945 34.5249 0.77173C34.5901 0.813447 34.6546 0.862081 34.7155 0.922387C34.7464 0.950271 34.7739 0.987016 34.802 1.02009C34.8178 1.03868 34.8251 1.05121 34.8337 1.0644L34.8594 1.10439C35.1457 1.52696 35.2836 2.01568 35.334 2.48364C35.3846 2.95463 35.3561 3.41525 35.2937 3.86203C35.1633 4.7556 34.9038 5.60291 34.595 6.42168C34.2862 7.24132 33.9236 8.03308 33.5322 8.80777C33.1398 9.58223 32.718 10.3383 32.2655 11.0795L32.2876 10.7209C32.7262 11.6849 33.0907 12.6954 33.326 13.741L33.332 13.7734L33.8275 16.1915C33.8275 16.1915 32.2108 21.1167 31.5583 23.754C31.4975 23.9996 31.2982 24.3841 31.0809 24.8027C30.8636 25.2214 30.7934 25.262 30.6045 25.4652C30.508 25.5661 30.4138 25.6692 30.3154 25.7686C30.2152 25.8663 30.1179 25.9664 30.0156 26.062C29.8138 26.2556 29.606 26.443 29.392 26.6233C29.1791 26.8049 28.9608 26.9802 28.7349 27.1453C28.5106 27.3124 28.2812 27.4726 28.0442 27.6206C27.8094 27.7719 27.5675 27.9118 27.3213 28.0425C26.829 28.3037 26.3186 28.5291 25.79 28.6971C25.7231 28.7182 25.6517 28.6808 25.6307 28.6134C25.6131 28.5572 25.6358 28.4982 25.6826 28.4675C26.1402 28.1686 26.589 27.8709 27.0224 27.5551C27.239 27.3973 27.4524 27.2359 27.6632 27.072C27.8722 26.9058 28.08 26.7387 28.2833 26.5662C28.4858 26.3929 28.6858 26.2167 28.8823 26.0367C29.078 25.8558 29.2695 25.6703 29.4593 25.4827C29.6474 25.2936 29.7845 25.1702 30.0169 24.9073C30.0683 24.8491 30.3154 24.4237 30.4582 23.8461C30.601 23.2685 33.0864 16.3358 33.0864 16.3358L32.5842 13.8782L32.5902 13.9106C32.368 12.9239 32.0236 11.9664 31.6014 11.038L31.5173 10.8532L31.6235 10.6794C32.0637 9.95833 32.4776 9.21651 32.86 8.46193C33.2415 7.70691 33.5936 6.9372 33.8895 6.15128C34.1863 5.36687 34.4293 4.56193 34.5463 3.75547C34.6032 3.35321 34.6255 2.94988 34.5839 2.56664C34.5427 2.18406 34.4331 1.82481 34.2378 1.53604C34.1608 1.35426 33.7681 1.27147 33.3856 1.25526C32.9961 1.23862 32.5848 1.2732 32.1759 1.32464C31.3552 1.43229 30.5313 1.61147 29.7137 1.81487C28.0779 2.22707 26.4567 2.7374 24.8572 3.2955L24.7017 3.34976L24.5569 3.27302C24.121 3.04174 23.6732 2.83532 23.2148 2.65743C22.9894 2.57053 22.7458 2.48472 22.5116 2.40129C22.2766 2.31893 22.0392 2.23939 21.8024 2.1659C21.3285 2.0174 20.8516 1.89161 20.371 1.79758C19.8905 1.70442 19.4058 1.64563 18.9203 1.6266L18.8746 1.62207C18.8995 1.62769 18.9268 1.6279 18.9516 1.62293L18.8869 1.62574C18.3087 1.60045 17.7261 1.61536 17.1464 1.65946C16.567 1.7042 15.9904 1.78094 15.4208 1.8929C14.8517 2.0066 14.2899 2.15423 13.7392 2.33601C13.1891 2.51952 12.6513 2.73891 12.1285 2.99008L11.9812 3.06076L11.8289 3.00197C10.2628 2.39783 8.67016 1.84362 7.06055 1.39078C6.25596 1.16815 5.44387 0.967779 4.63456 0.846951C4.23141 0.788158 3.82546 0.748818 3.4444 0.764597C3.25676 0.774324 3.07084 0.797885 2.92802 0.849328C2.85661 0.873969 2.79657 0.904879 2.75775 0.935788C2.74982 0.944002 2.73974 0.951135 2.73202 0.958484C2.72559 0.967779 2.72065 0.970372 2.71058 0.983342L2.63809 1.09142C2.44617 1.38084 2.3353 1.73987 2.29348 2.12224C2.25038 2.50461 2.26303 2.90557 2.31236 3.30674C2.41357 4.1106 2.63102 4.91533 2.90293 5.7019C3.1742 6.48977 3.4993 7.26359 3.85506 8.02379C4.21103 8.78356 4.59832 9.5323 5.01262 10.2599L5.10891 10.4289L5.02978 10.6064C4.73106 11.2766 4.44542 11.9497 4.19881 12.6321C4.07465 12.9732 3.96142 13.3169 3.85999 13.6629L3.78644 13.9236L3.72189 14.1836C3.68114 14.3559 3.63075 14.5325 3.5973 14.7011L3.59129 14.7279L2.97649 17.8956C2.97649 17.8956 4.92312 22.1194 5.14156 23.162C5.36 24.2045 5.95871 24.9367 6.10993 25.096C6.57848 25.5897 6.59328 25.5774 6.84975 25.8047C7.10473 26.0336 7.37106 26.2522 7.64384 26.4655C7.91511 26.6799 8.19002 26.8907 8.47309 27.09C8.75465 27.2914 9.04029 27.4883 9.33279 27.6753C9.91436 28.0555 10.5176 28.404 11.135 28.7381C11.1965 28.7714 11.2197 28.8486 11.1869 28.9106C11.1575 28.9649 11.094 28.9893 11.0374 28.9716Z" fill="black"/>
<path d="M8.57396 5.23915C8.25256 5.47927 7.45821 6.72718 6.85094 7.72797C5.95492 6.3163 5.51297 4.16921 5.43801 3.17458C5.43719 3.16355 5.43616 3.1523 5.43555 3.14233C6.30178 3.40982 7.28508 3.79206 7.49558 4.04215C7.87284 4.48909 9.1264 4.8287 8.57396 5.23915Z" fill="#FC7E81"/>
<path fill-rule="evenodd" clip-rule="evenodd" d="M6.80805 7.75703L6.852 7.82619L6.8941 7.7564C7.75069 6.34494 8.35775 5.46634 8.60358 5.28264C8.71407 5.20055 8.76767 5.11125 8.76315 5.01728C8.7531 4.80798 8.46635 4.6374 8.13422 4.43984L8.13288 4.43903C7.90143 4.30137 7.66218 4.15903 7.53403 4.00737C7.30545 3.73585 6.26856 3.34428 5.45017 3.09164L5.37891 3.06958L5.38692 3.17882C5.46413 4.20464 5.91799 6.35513 6.80805 7.75703ZM6.85036 7.62913C6.01287 6.26476 5.57811 4.23349 5.49288 3.21552C6.34249 3.48194 7.26192 3.84531 7.45681 4.07716C7.59605 4.2424 7.8429 4.38919 8.08174 4.5311C8.36289 4.69803 8.65348 4.87091 8.66088 5.02258C8.66354 5.07816 8.62411 5.1367 8.54382 5.19631C8.22303 5.436 7.45517 6.63534 6.85036 7.62913Z" fill="#390075"/>
<path d="M6.51821 8.23203C7.2368 6.95591 7.98762 6.03556 8.52543 5.4595C8.92592 5.03058 8.81888 4.36434 8.30204 4.0678C7.10857 3.38313 5.78015 2.96957 4.92965 2.75194C4.4565 2.63082 3.99351 2.97162 3.9961 3.436C4.00065 4.22929 4.1211 5.46749 4.68507 6.76799C4.98263 7.45431 5.27586 7.94184 5.52001 8.27957C5.76826 8.62263 6.31148 8.59906 6.51821 8.23203Z" fill="#F9F154"/>
<path fill-rule="evenodd" clip-rule="evenodd" d="M6.1843 9.18668C6.42052 9.13567 6.62327 8.96307 6.71815 8.75227L6.72049 8.75335C7.07141 8.15047 7.45261 7.56799 7.87047 7.0172C8.07919 6.74192 8.29687 6.47424 8.52392 6.21676L8.69427 6.02419C8.70514 6.01202 8.71532 6.00092 8.7255 5.98982C8.74347 5.97023 8.76147 5.95061 8.78338 5.92497C8.79368 5.91188 8.80432 5.89905 8.81495 5.88621C8.84151 5.85416 8.86809 5.82209 8.88955 5.78581C9.01897 5.59021 9.09977 5.35574 9.10744 5.11693C9.11831 4.87855 9.06587 4.63605 8.9501 4.42394C8.89531 4.31626 8.81984 4.2203 8.7384 4.13129C8.7322 4.12541 8.726 4.1195 8.71979 4.11358C8.68248 4.07798 8.64485 4.04208 8.60408 4.0108C8.55825 3.97694 8.5009 3.9346 8.46764 3.91506C8.16234 3.71837 7.84937 3.53535 7.52659 3.37492C6.88231 3.05165 6.215 2.78549 5.53235 2.57338C5.36051 2.51976 5.19315 2.46983 5.01513 2.42098C4.74437 2.34934 4.43886 2.38993 4.19688 2.53648C3.95469 2.68041 3.76537 2.92183 3.6931 3.20254C3.67562 3.27179 3.66091 3.34322 3.65813 3.41399L3.65536 3.46718L3.6543 3.49367L3.65451 3.51104L3.65515 3.58051C3.65533 3.65747 3.65772 3.73428 3.66011 3.8112C3.6606 3.82671 3.66108 3.84222 3.66155 3.85775C3.69331 4.59567 3.80716 5.32817 4.00351 6.0383C4.10329 6.39261 4.22332 6.74127 4.36339 7.08103C4.50559 7.41971 4.66485 7.74384 4.84074 8.06449C4.92857 8.2245 5.02494 8.38016 5.12493 8.53365C5.17524 8.61028 5.22684 8.68627 5.28035 8.76095L5.36392 8.87493L5.42447 8.94744C5.44198 8.96579 5.46101 8.98288 5.47988 8.99983C5.48445 9.00394 5.48902 9.00803 5.49354 9.01214C5.68734 9.1767 5.95 9.23879 6.1843 9.18668ZM7.43619 6.70154C7.04434 7.30226 6.69661 7.92924 6.39153 8.5749L6.39387 8.57642C6.32395 8.67824 6.21969 8.7349 6.11075 8.7412C6.00138 8.74879 5.89777 8.70255 5.83381 8.62895C5.81854 8.61221 5.80615 8.59273 5.79383 8.57335C5.79273 8.57162 5.79163 8.56989 5.79053 8.56817L5.72827 8.46222C5.68627 8.38906 5.64598 8.31459 5.60675 8.23948C5.52808 8.08946 5.45624 7.9351 5.38567 7.77988C5.2456 7.46986 5.11896 7.14746 5.01108 6.8255C4.89958 6.50506 4.80748 6.17811 4.73414 5.84703C4.58405 5.18553 4.50303 4.50774 4.48768 3.83039C4.4874 3.81462 4.4871 3.79884 4.4868 3.78306C4.48549 3.71433 4.48418 3.6455 4.4847 3.57682V3.51343V3.49758L4.48576 3.49107L4.48704 3.47804C4.48674 3.46518 4.48977 3.45344 4.49276 3.44186C4.49391 3.43742 4.49505 3.433 4.496 3.42854C4.5122 3.36536 4.55868 3.31109 4.61581 3.27722C4.67466 3.24314 4.73904 3.2388 4.80513 3.25356C4.96332 3.29459 5.13047 3.3417 5.29165 3.38946C5.93977 3.58681 6.58 3.81389 7.194 4.09373C7.50015 4.23507 7.8031 4.38248 8.09412 4.54986C8.12053 4.56384 8.13532 4.57358 8.1489 4.58252C8.15746 4.58816 8.16555 4.59349 8.17577 4.59936C8.18984 4.6083 8.2025 4.61883 8.21523 4.62941C8.22352 4.6363 8.23184 4.64322 8.24058 4.64973C8.24207 4.65126 8.24356 4.65279 8.24505 4.65432C8.28159 4.69192 8.31883 4.73023 8.34505 4.77717C8.40539 4.87074 8.43736 4.98493 8.4395 5.10021C8.44419 5.21614 8.41093 5.33077 8.35337 5.43237C8.34612 5.44884 8.33534 5.46315 8.32451 5.47753C8.31749 5.48685 8.31045 5.4962 8.30433 5.50619C8.29096 5.52425 8.27226 5.54711 8.25354 5.57C8.24302 5.58287 8.23248 5.59575 8.22289 5.60779L8.05553 5.8199C7.83743 6.10625 7.63169 6.40086 7.43619 6.70154Z" fill="black"/>
<path d="M29.8533 8.50395C29.2214 7.26516 28.5596 6.35791 28.077 5.7782C27.7009 5.32657 27.8272 4.64755 28.3411 4.3599C29.5987 3.6561 30.9944 3.26935 31.8185 3.08458C32.225 2.99346 32.6153 3.2916 32.629 3.70607C32.6566 4.5453 32.5178 5.99971 31.5504 7.67354C31.3384 8.04014 31.1426 8.3427 30.9714 8.58709C30.6887 8.99127 30.0772 8.94277 29.8533 8.50395Z" fill="#F9F154"/>
<path fill-rule="evenodd" clip-rule="evenodd" d="M28.6307 6.87635C29.0513 7.44612 29.4358 8.04589 29.786 8.66722L29.7889 8.66588C29.8369 8.76899 29.901 8.8681 29.986 8.95099C30.0719 9.0321 30.1731 9.09855 30.2848 9.14366C30.5088 9.22788 30.7705 9.22832 31.0009 9.12344C31.1174 9.07455 31.2195 8.99366 31.3052 8.90188L31.3664 8.83011L31.4088 8.77477L31.4923 8.66388C31.6022 8.51544 31.7105 8.36567 31.8126 8.21211C31.8176 8.20452 31.8226 8.19694 31.8276 8.18937C31.9241 8.04273 32.0194 7.89793 32.1096 7.7439C32.2079 7.58501 32.2989 7.42168 32.3872 7.25634C32.5582 6.92279 32.7122 6.57924 32.8438 6.22524C32.9768 5.87169 33.0758 5.50503 33.1559 5.1337C33.2334 4.76171 33.2906 4.38327 33.3062 3.99994C33.3115 3.90416 33.3133 3.80816 33.3144 3.71194C33.3154 3.67995 33.3149 3.64787 33.3143 3.61575C33.3141 3.59967 33.3138 3.58358 33.3137 3.5675L33.3128 3.49528C33.312 3.46728 33.3082 3.42528 33.3051 3.39083C33.2731 3.10061 33.1217 2.82039 32.8927 2.63973C32.6667 2.45662 32.3651 2.36195 32.0723 2.39195C31.9543 2.40773 31.8905 2.42384 31.8294 2.43928C31.8036 2.4458 31.7783 2.4522 31.7495 2.4584L31.4807 2.52684C30.7649 2.71151 30.0637 2.95417 29.3827 3.25194C29.0418 3.39972 28.7095 3.56994 28.3841 3.75372L28.2627 3.82394C28.2548 3.8285 28.2472 3.83291 28.2395 3.83733C28.2071 3.85591 28.1745 3.87461 28.1293 3.90549C28.025 3.97038 27.9335 4.05594 27.8509 4.14705C27.6873 4.3326 27.5824 4.56371 27.5389 4.80215C27.4973 5.04148 27.5235 5.29059 27.6094 5.51614C27.6561 5.62725 27.712 5.73481 27.7855 5.8288L27.8403 5.89903L27.8836 5.94925L27.9695 6.04925C28.1996 6.31524 28.4196 6.59213 28.6307 6.87635ZM30.764 8.65033C30.58 8.77433 30.2708 8.72233 30.1299 8.49233L30.1327 8.49055C29.8311 7.82634 29.4822 7.18168 29.0895 6.56124C28.8926 6.25124 28.6855 5.94703 28.4647 5.65103L28.3805 5.54103L28.3386 5.48659L28.3133 5.44814C28.2778 5.39814 28.2551 5.34192 28.2343 5.28637C28.2001 5.17237 28.1945 5.05015 28.2218 4.93548C28.2518 4.82193 28.3073 4.71593 28.3883 4.63615C28.4298 4.59771 28.4722 4.55971 28.5239 4.53371C28.5407 4.52238 28.5783 4.5035 28.6138 4.48562C28.6173 4.48386 28.6208 4.48211 28.6243 4.48038L28.7401 4.42171C29.0502 4.2666 29.3714 4.13193 29.695 4.00238C30.3441 3.74705 31.0164 3.54283 31.696 3.37172L31.9515 3.31039C32.0306 3.29239 32.146 3.26639 32.1573 3.2675C32.2237 3.2615 32.2909 3.28017 32.346 3.32217C32.4019 3.36394 32.4339 3.4255 32.4439 3.49261L32.447 3.52283L32.4485 3.58572C32.4487 3.60034 32.4492 3.61491 32.4496 3.62947C32.4505 3.65673 32.4513 3.68397 32.4507 3.71149C32.4507 3.79549 32.4503 3.87949 32.4465 3.96394C32.4265 4.63926 32.3025 5.31681 32.0998 5.97303C31.8963 6.63168 31.611 7.26012 31.2685 7.87878L31.2602 7.89377C31.1771 8.04277 31.094 8.19167 31.0064 8.33767L30.938 8.45055L30.9036 8.50633L30.8805 8.53989C30.8484 8.583 30.8111 8.62277 30.764 8.65033Z" fill="black"/>
<path d="M19.3364 21.3919C19.3254 21.6929 18.8132 22.0502 18.3452 22.3149C17.8776 22.5794 17.2968 22.559 16.8496 22.2625C16.4019 21.9657 15.9169 21.5733 15.9279 21.2723C15.9481 20.7156 16.7063 20.7839 17.6475 20.817C18.5887 20.8501 19.3566 20.8354 19.3364 21.3919Z" fill="black"/>
<path d="M20.0668 22.1933C20.1433 22.2759 20.2002 22.3648 20.2464 22.4636C20.2926 22.5618 20.3265 22.6677 20.3437 22.7795C20.3808 23.0025 20.3507 23.2489 20.2415 23.4709C20.1382 23.6955 19.9463 23.8992 19.7091 24.0262C19.472 24.1537 19.2001 24.2117 18.9378 24.1983C18.6751 24.1861 18.4192 24.1109 18.195 23.9808C18.1393 23.9477 18.0831 23.9157 18.033 23.8739C17.9813 23.8349 17.9308 23.7945 17.8861 23.7476L17.8176 23.6795C17.797 23.6565 17.7788 23.6334 17.7595 23.6105C17.72 23.565 17.6848 23.5171 17.652 23.4678C17.5173 23.2722 17.4223 23.0583 17.3604 22.8414C17.328 22.7331 17.3061 22.6231 17.2902 22.5123C17.2815 22.4569 17.2756 22.4013 17.2716 22.3443C17.2692 22.3163 17.2684 22.2868 17.2671 22.258C17.2667 22.2262 17.2658 22.203 17.268 22.1582L17.2832 21.823L17.6431 21.8206H17.6454L18.0023 21.8181L18.0203 22.1582C18.0226 22.2032 18.0222 22.2262 18.0222 22.258C18.0214 22.2871 18.0209 22.3163 18.0188 22.3445C18.0156 22.4015 18.0114 22.4573 18.0038 22.5131C17.99 22.6245 17.9684 22.7349 17.9372 22.8441C17.878 23.0626 17.782 23.2779 17.6463 23.4741C17.613 23.5236 17.5776 23.5717 17.5377 23.6174C17.5182 23.6405 17.4997 23.6636 17.479 23.6866L17.4094 23.7547C17.3638 23.8014 17.3127 23.8416 17.2601 23.8801C17.2092 23.9213 17.153 23.954 17.0968 23.9869C16.8702 24.1143 16.6142 24.1908 16.3506 24.2026C16.0879 24.2156 15.8142 24.1624 15.5748 24.0348C15.3343 23.9108 15.1339 23.7099 15.0258 23.4828C14.9664 23.3712 14.9359 23.2513 14.9149 23.1328C14.8992 23.0129 14.9011 22.894 14.9197 22.7805C14.9395 22.6671 14.9755 22.5598 15.0264 22.4614C15.075 22.3619 15.1386 22.2737 15.2213 22.1939C15.2467 22.1694 15.2881 22.1692 15.3137 22.1935C15.3265 22.2055 15.3328 22.2211 15.333 22.2369V22.2459C15.336 22.4364 15.3604 22.6174 15.4085 22.77C15.4577 22.923 15.5273 23.0514 15.6195 23.1535C15.7081 23.2558 15.8055 23.3292 15.9204 23.3753C16.0355 23.4183 16.1659 23.4388 16.2995 23.4252C16.4325 23.4118 16.5659 23.3735 16.6819 23.3089C16.7993 23.2456 16.8916 23.163 16.987 23.0415C17.0771 22.9252 17.1484 22.7899 17.1961 22.6426C17.2207 22.5693 17.2389 22.4928 17.2516 22.4159C17.2584 22.3776 17.2635 22.3388 17.2663 22.3009L17.2694 22.2448L17.2699 22.2022L17.6448 22.5399H17.6424L18.0173 22.2022L18.0167 22.2448L18.0188 22.3009C18.0207 22.3388 18.0243 22.3778 18.0299 22.4165C18.0407 22.494 18.0585 22.5709 18.0818 22.6448C18.1268 22.7939 18.1991 22.9305 18.2905 23.0476C18.3861 23.1707 18.483 23.2513 18.6017 23.3146C18.7201 23.3767 18.8537 23.4163 18.9875 23.4291C19.2593 23.4518 19.5044 23.3729 19.6887 23.1647C19.7396 23.1147 19.7761 23.0514 19.8155 22.9873C19.8496 22.9208 19.8793 22.8487 19.9037 22.7704C19.9457 22.6144 19.965 22.4313 19.9544 22.2457L19.954 22.2379C19.9521 22.2041 19.9792 22.1748 20.0146 22.173C20.0354 22.1716 20.0543 22.1799 20.0668 22.1933Z" fill="black"/>
<path d="M14.8363 17.8972C14.7953 17.8972 14.7539 17.8912 14.7126 17.8786L14.3956 17.7807L9.73391 16.1122C9.52356 16.0369 9.41624 15.8115 9.49415 15.6084C9.57207 15.4054 9.80604 15.3023 10.0166 15.3772L14.6697 17.0426L14.9597 17.1318C15.1737 17.1976 15.2915 17.418 15.2235 17.6242C15.1683 17.791 15.0084 17.8972 14.8363 17.8972Z" fill="black"/>
<path d="M9.71608 18.7124C9.82942 20.2981 10.9765 21.3597 12.2785 21.0838C13.5806 20.8079 14.5441 19.2988 14.431 17.7131C14.4237 17.6117 14.4121 17.5124 14.3967 17.4155L10.6283 16.0664C10.0125 16.7153 9.64353 17.698 9.71608 18.7124Z" fill="black"/>
<ellipse cx="11.3247" cy="17.7839" rx="0.932375" ry="0.578402" transform="rotate(-79.216 11.3247 17.7839)" fill="white"/>
<circle cx="12.8578" cy="19.3297" r="0.5" transform="rotate(-82.7613 12.8578 19.3297)" fill="white"/>
<path d="M21.4474 17.8973C21.2752 17.8973 21.1155 17.791 21.0604 17.6243C20.9921 17.4182 21.1102 17.1978 21.3242 17.1319L21.6142 17.0427L26.2673 15.3774C26.478 15.3026 26.7116 15.4057 26.7897 15.6086C26.8676 15.8114 26.7603 16.037 26.55 16.1123L21.8702 17.7868L21.5712 17.8787C21.53 17.8913 21.4884 17.8973 21.4474 17.8973Z" fill="black"/>
<path d="M26.5677 18.7124C26.4544 20.2981 25.3073 21.3597 24.0052 21.0838C22.7032 20.8079 21.7397 19.2988 21.8528 17.7131C21.8601 17.6117 21.8717 17.5124 21.8871 17.4155L25.6555 16.0664C26.2711 16.7153 26.64 17.698 26.5677 18.7124Z" fill="black"/>
<ellipse cx="24.9575" cy="17.7796" rx="0.578402" ry="0.932375" transform="rotate(-10.784 24.9575 17.7796)" fill="white"/>
<circle cx="23.4243" cy="19.3273" r="0.5" transform="rotate(-7.23873 23.4243 19.3273)" fill="white"/>
<path d="M30.2502 24.3857C29.9919 24.4361 29.729 24.7928 29.4683 24.8221C29.3168 24.8401 29.1645 24.8494 29.012 24.8498C28.8489 24.8492 28.6857 24.865 28.5227 24.8764C28.4009 24.8849 28.2791 24.8758 28.157 24.88C27.9156 24.8884 27.6733 24.889 27.4321 24.878C27.1059 24.863 26.7797 24.8413 26.4549 24.8085C26.2627 24.7891 26.0729 24.7443 25.8782 24.7436C25.7166 24.6905 25.5458 24.6875 25.3807 24.6517C25.2025 24.6131 25.0222 24.5867 24.8476 24.5306C24.7426 24.4968 24.6348 24.4677 24.5285 24.4418C24.379 24.4054 24.2376 24.3485 24.0973 24.293C23.9363 24.2293 23.7701 24.176 23.6178 24.0869C23.5112 24.0245 23.3955 23.9759 23.2846 23.9193C23.0287 23.7885 22.7977 23.621 22.5627 23.4594C22.4142 23.3573 22.2828 23.2326 22.1547 23.1054C22.0984 23.034 22.0272 22.9763 21.9724 22.9035C21.657 22.5579 21.4679 22.1326 21.2374 21.7335C20.7462 20.883 20.3821 19.9712 19.967 19.0841C19.881 18.9003 19.7923 18.7177 19.7049 18.5345C19.672 18.4635 19.6342 18.3948 19.6019 18.3235C19.5387 18.1189 19.4653 17.9201 19.288 17.782C19.1934 17.7019 19.095 17.628 18.9809 17.5768C18.9285 17.5525 18.8727 17.5365 18.8155 17.5294C18.5809 17.464 18.3389 17.4295 18.0955 17.4266C17.9834 17.4087 17.8702 17.4165 17.7579 17.4108C17.6165 17.4037 17.4767 17.4187 17.3362 17.4198C17.1015 17.4239 16.8681 17.4568 16.6414 17.5177C16.4988 17.5172 16.3869 17.5936 16.282 17.6748C16.084 17.8283 15.9423 18.0239 15.8797 18.2711C15.7461 18.546 15.6087 18.8188 15.4718 19.092C15.3587 19.3176 15.2576 19.5491 15.1415 19.7732C15.0216 20.0213 14.9016 20.2694 14.7816 20.5174C14.4729 21.1521 14.118 21.7615 13.7472 22.3604C13.5431 22.6899 13.2674 22.9642 12.9618 23.2068C12.7538 23.3719 12.5268 23.5068 12.299 23.6381C12.1571 23.7192 12.0108 23.7923 11.8607 23.8569C11.7288 23.9142 11.5947 23.967 11.4612 24.0194C11.302 24.0838 11.1385 24.1367 10.9718 24.1778C10.8508 24.2063 10.7324 24.2441 10.61 24.2702C10.4233 24.31 10.2366 24.3461 10.0478 24.376C9.83149 24.4104 9.61413 24.4371 9.39673 24.4524C9.24808 24.4628 9.09714 24.4718 8.95086 24.4897C8.68515 24.5221 8.41975 24.4965 8.15466 24.5175C8.01905 24.5273 7.88279 24.5238 7.74787 24.5069C7.60965 24.4901 7.47059 24.4909 7.33319 24.4844C7.07286 24.4719 6.81307 24.4513 6.55457 24.4249C6.40693 24.4098 6.25755 24.3915 6.10979 24.3723C5.96724 24.3538 5.82563 24.3266 5.68463 24.3032C5.52216 24.2761 5.35644 24.2535 5.19934 24.196C5.09556 24.1579 4.98552 24.1397 4.87932 24.1099C4.73753 24.0703 4.6014 24.0167 4.46314 23.9693C4.32715 23.9228 4.18725 23.8735 4.0673 23.7967C3.68825 23.5541 3.27149 23.4402 2.83106 23.3877C2.59871 23.3601 2.36546 23.3569 2.1326 23.3455C1.98843 23.3385 1.84753 23.3853 1.70404 23.3989C1.61278 23.4076 1.52221 23.4148 1.43261 23.3805C1.38976 23.3641 1.38227 23.3469 1.4035 23.3077C1.42997 23.259 1.45218 23.2079 1.47623 23.1578C1.49004 23.133 1.50689 23.1101 1.52638 23.0895C1.55848 23.0342 1.60392 22.9887 1.64345 22.9387C1.71235 22.8644 1.7615 22.7754 1.8038 22.6861C1.91442 22.4525 2.03763 22.2211 2.11262 21.9756C2.1921 21.7154 2.15915 21.451 1.98656 21.2215C1.95986 21.1858 1.92301 21.1591 1.88086 21.1448C1.75572 21.0979 1.62283 21.0751 1.48924 21.0779C1.37255 21.0808 1.25575 21.0795 1.139 21.0804C1.05566 21.081 0.980982 21.0567 0.943498 20.9785C0.90282 20.8936 0.947564 20.8213 1.00173 20.7584C1.04885 20.7036 1.09974 20.6519 1.15172 20.6017C1.26217 20.495 1.29219 20.3449 1.36129 20.216C1.46625 20.0203 1.56589 19.8217 1.66749 19.6241C1.81215 19.3422 1.93268 19.0484 2.02778 18.7459C2.10063 18.521 2.14813 18.2886 2.1694 18.0531C2.17798 17.9508 2.18165 17.848 2.18847 17.7456C2.21057 17.4134 2.23584 17.0818 2.2681 16.7502C2.29553 16.4683 2.33299 16.1876 2.36139 15.9059C2.38056 15.7157 2.42141 15.5278 2.44542 15.338C2.49285 14.9631 2.59212 14.5968 2.62774 14.2201C2.63326 14.2087 2.63766 14.1968 2.64088 14.1845C2.68042 13.7253 2.75849 13.2749 2.95698 12.8542C3.03471 12.6894 3.15082 12.5483 3.27395 12.4173C3.3799 12.3047 3.467 12.1715 3.6018 12.0871C3.77076 11.93 3.9764 11.8404 4.19154 11.7718C4.28694 11.7414 4.38138 11.7099 4.47405 11.6719C4.63948 11.604 4.81645 11.6006 4.99 11.5995C5.74017 11.5948 6.49038 11.5971 7.24057 11.5977C7.47013 11.5979 7.69984 11.5937 7.92921 11.5997C8.05343 11.6029 8.17774 11.59 8.30168 11.6039C8.42214 11.5764 8.54396 11.6018 8.66528 11.5957C8.79143 11.5893 8.91893 11.5917 9.04509 11.5964C9.16392 11.6009 9.28248 11.5833 9.40128 11.6003C9.48876 11.6129 9.57877 11.6022 9.6658 11.5996C9.85621 11.5941 10.0467 11.6015 10.237 11.5976C10.3461 11.5954 10.4572 11.5902 10.5681 11.6002C10.6802 11.6104 10.7942 11.5991 10.9073 11.5967C11.0095 11.5945 11.1117 11.5977 11.2139 11.5966C11.3544 11.5952 11.4957 11.5915 11.6356 11.5973C11.7544 11.6023 11.8733 11.5978 11.9918 11.601C12.1605 11.6055 12.3299 11.6056 12.4989 11.6054C12.8574 11.605 13.2158 11.6049 13.5743 11.605C13.9968 11.6054 14.4193 11.6061 14.8419 11.6071C15.2811 11.6075 15.7203 11.6075 16.1595 11.6072C16.5764 11.6066 16.9934 11.6039 17.4103 11.6038C17.755 11.6037 18.0997 11.6069 18.4443 11.6071C18.8752 11.6073 19.3061 11.6055 19.737 11.6055C20.1678 11.6054 20.5987 11.6071 21.0296 11.6069C21.4688 11.6066 21.908 11.6043 22.3473 11.604C22.7113 11.6037 23.0753 11.6063 23.4393 11.605C23.6443 11.6043 23.8495 11.5905 24.0541 11.5982C24.1648 11.6024 24.275 11.5939 24.3857 11.6002C24.5096 11.6072 24.6343 11.5993 24.7587 11.598C24.8637 11.5969 24.9688 11.5986 25.0738 11.5975C25.2199 11.5961 25.3666 11.5935 25.5124 11.5977C25.6256 11.6011 25.7386 11.5918 25.852 11.6004C25.9702 11.6094 26.0896 11.6036 26.2085 11.6043C26.2457 11.5924 26.2858 11.5934 26.3223 11.6073C26.3348 11.6138 26.349 11.616 26.3629 11.6137C26.4841 11.5769 26.6091 11.6398 26.7304 11.5987C26.7721 11.5845 26.8123 11.6223 26.8524 11.6131C26.9744 11.585 27.0985 11.6338 27.2202 11.599C27.2475 11.592 27.2762 11.5939 27.3023 11.6045C27.3416 11.6188 27.3847 11.6191 27.4243 11.6053C27.4669 11.592 27.5126 11.5923 27.555 11.6061C27.5921 11.6182 27.6321 11.6185 27.6694 11.607C27.6799 11.6038 27.6904 11.5959 27.7011 11.5982C27.8266 11.6243 27.9543 11.5811 28.0794 11.6104C28.1251 11.6212 28.1678 11.5913 28.2107 11.5988C28.3318 11.62 28.4529 11.5995 28.5739 11.6019C28.6923 11.6042 28.8119 11.6002 28.9306 11.6009C29.0578 11.6017 29.1851 11.594 29.3125 11.6028C29.4202 11.6103 29.5284 11.6016 29.6365 11.6023C29.8775 11.6038 30.1186 11.5992 30.3598 11.6023C30.5815 11.6051 30.8035 11.5979 31.0254 11.5974C31.3119 11.5967 31.5964 11.6141 31.8701 11.7085C31.9783 11.7444 32.0818 11.7931 32.1787 11.8533C32.3026 11.9323 32.4359 11.9942 32.5544 12.0848C32.6592 12.1648 32.7595 12.2466 32.8431 12.3481C32.9334 12.4577 33.0292 12.5623 33.1231 12.6686C33.1881 12.716 33.2246 12.787 33.2611 12.8542C33.3231 12.9681 33.389 13.0816 33.4174 13.211C33.5128 13.4505 33.5736 13.7025 33.5979 13.9593C33.6159 14.166 33.6244 14.3739 33.6501 14.5794C33.6749 14.7772 33.6881 14.9751 33.697 15.1737C33.6993 15.1903 33.7035 15.2065 33.7095 15.222C33.7483 15.4304 33.7481 15.6423 33.7634 15.8527C33.7844 16.1406 33.8012 16.4289 33.8256 16.7164C33.8542 17.0553 33.8847 17.3948 33.9432 17.7302C33.9678 17.8716 33.9923 18.0133 34.0219 18.1539C34.0698 18.4332 34.1322 18.7097 34.209 18.9824C34.3 19.2976 34.419 19.604 34.5645 19.8979C34.6515 20.0746 34.7503 20.2455 34.8382 20.4219C34.9202 20.5865 35.0245 20.7375 35.1138 20.8973C35.1781 21.0125 35.1736 20.9941 35.2231 21.118C35.2582 21.2012 35.1888 21.3219 35.1138 21.3643C35.0505 21.4037 35.0479 21.3379 34.9728 21.3387C34.8091 21.3405 34.6277 21.3358 34.4648 21.3643C34.1289 21.423 33.9539 21.5 34.0219 21.8391C34.1255 22.3558 34.1522 22.6825 34.4306 23.1275C34.4617 23.1773 34.4838 23.2318 34.5133 23.2817C34.5523 23.3478 34.5226 23.367 34.4648 23.3839C34.3483 23.4179 34.2307 23.4018 34.118 23.3792C33.76 23.3073 33.745 23.3519 33.3896 23.3893C33.1243 23.4188 32.8631 23.4775 32.6106 23.5644C32.4465 23.6197 32.2991 23.708 32.1479 23.7907C32.0011 23.8684 31.8497 23.9372 31.6948 23.9968C31.536 24.0605 31.3738 24.1164 31.2109 24.1686C31.0337 24.223 30.8539 24.2682 30.6722 24.3041C30.5319 24.3336 30.3925 24.3669 30.2502 24.3857Z" fill="#1CC3A5"/>
<path fill-rule="evenodd" clip-rule="evenodd" d="M8.15685 11.261L8.18115 11.257C8.22589 11.2507 8.27019 11.2491 8.3287 11.2504L8.47208 11.2557L8.5194 11.2552C8.57938 11.2522 8.64003 11.2509 8.70524 11.2511L8.84287 11.2534L8.9184 11.2559L8.96687 11.2564L9.13855 11.2521C9.19696 11.2519 9.24631 11.2546 9.29758 11.2619L9.31477 11.2638C9.3329 11.2654 9.35404 11.2658 9.37998 11.2652L9.56786 11.2578L9.66799 11.2568L9.98558 11.258L10.259 11.2536L10.3173 11.2537L10.3973 11.2567L10.4865 11.2629L10.5542 11.2633L10.781 11.2556L11.0679 11.2559L11.2715 11.2536L11.4151 11.2542L11.5828 11.2588L11.7817 11.2591L11.9517 11.2625L12.1794 11.2645L13.4221 11.2642L14.6849 11.2663C15.1223 11.2667 15.5598 11.2667 15.9971 11.2663L17.1673 11.263L18.2739 11.2662L23.2791 11.264L23.6403 11.2559L23.7734 11.2552C23.8062 11.2555 23.8377 11.2563 23.8714 11.2576L23.9513 11.2586L24.1083 11.257L24.1425 11.2574L24.2767 11.2622L24.3315 11.2621L24.5427 11.2575L24.8352 11.2571L25.1651 11.2547L25.2719 11.2559L25.3223 11.2571L25.3938 11.2576L25.53 11.2559L25.5911 11.2563L25.6181 11.2572L25.7385 11.2638L25.7907 11.2646L25.9809 11.2635L26.0139 11.2581C26.0526 11.2535 26.0917 11.2546 26.1301 11.2611L26.1588 11.2675L26.1873 11.2632C26.2274 11.2588 26.2687 11.2596 26.3221 11.2639L26.4237 11.2722L26.443 11.2721C26.4478 11.2718 26.4512 11.2711 26.4538 11.2702L26.4828 11.262C26.5214 11.2532 26.5595 11.2527 26.5969 11.2584C26.6054 11.2597 26.6127 11.261 26.6198 11.2626L26.6451 11.2693L26.6613 11.2668C26.7022 11.2619 26.7428 11.2618 26.7971 11.2648L26.8407 11.2676L26.9097 11.271C26.9316 11.2711 26.9452 11.2693 26.9589 11.2654C27.0284 11.2478 27.1015 11.2509 27.1629 11.2718L27.1888 11.265C27.2534 11.251 27.3202 11.2514 27.3848 11.2662L27.406 11.2721L27.4245 11.266C27.4522 11.2586 27.4814 11.2552 27.5123 11.2577L27.5556 11.2643L27.5852 11.2661C27.591 11.2662 27.5974 11.2661 27.6045 11.266L27.7081 11.2607C27.7739 11.2575 27.8201 11.2579 27.8675 11.2646L27.8944 11.2693L27.9197 11.2635C27.9392 11.2596 27.9556 11.2574 27.9741 11.2568L28.0042 11.2571L28.0236 11.2586L28.0764 11.2657L28.1137 11.2675L28.1617 11.267L28.2581 11.2631L28.3294 11.2609L28.4141 11.2617L29.0019 11.2579L29.0793 11.2603L29.1575 11.2646L29.2027 11.265L29.3671 11.2618L30.0151 11.2605L30.1478 11.2615L30.3103 11.262L30.7664 11.2568L30.8988 11.2571C31.2268 11.2614 31.4782 11.2945 31.7234 11.3786C31.8486 11.42 31.9685 11.476 32.0826 11.5466L32.1168 11.5678L32.3003 11.6734L32.3653 11.7127L32.4205 11.749C32.4381 11.7612 32.4553 11.7736 32.4732 11.7873C32.6197 11.8986 32.713 11.9809 32.7992 12.085L32.852 12.1475L33.0584 12.3801L33.0652 12.3855C33.1211 12.4319 33.1607 12.4837 33.2032 12.5563L33.2248 12.5943L33.2843 12.7034L33.3287 12.7886C33.3612 12.8542 33.3834 12.9082 33.4006 12.9657L33.4148 13.0193L33.4449 13.0987C33.5152 13.2944 33.5644 13.4972 33.5916 13.7043L33.6034 13.8082L33.6076 13.8585L33.6313 14.1791L33.6439 14.322L33.6674 14.5257C33.6833 14.676 33.694 14.8319 33.7008 14.9998L33.7114 15.0371L33.7249 15.1166L33.7355 15.1969C33.7386 15.2246 33.7413 15.2535 33.7439 15.2848L33.7512 15.3873L33.7631 15.6041L33.7898 15.9918L33.8245 16.4724L33.8579 16.8509L33.8843 17.1036L33.8979 17.2153L33.9122 17.3209L33.9277 17.4232C33.9331 17.4571 33.9388 17.4908 33.9448 17.5249L33.9936 17.7965L34.0233 17.9454C34.0696 18.2142 34.1301 18.4804 34.2039 18.7413C34.2908 19.0404 34.4043 19.3312 34.5433 19.6105L34.5792 19.6814L34.76 20.0208L34.8155 20.1287L34.8534 20.2007L34.9007 20.2826L35.0298 20.4952L35.085 20.59L35.0978 20.6105L35.1157 20.6345L35.1419 20.6663L35.1928 20.7258C35.2576 20.8032 35.2915 20.8543 35.321 20.9278C35.4009 21.1163 35.3532 21.2656 35.1824 21.3614C35.0836 21.4227 34.9796 21.4465 34.8557 21.4478L34.7863 21.4476L34.5964 21.4426L34.5302 21.4427L34.4755 21.4451C34.467 21.4458 34.4589 21.4465 34.4509 21.4473L34.4041 21.4539C34.1962 21.49 34.1364 21.576 34.178 21.7822C34.2702 22.2394 34.4574 22.6815 34.7381 23.1278L34.7634 23.1708C34.7716 23.1859 34.7803 23.2027 34.791 23.2239L34.8044 23.2502L34.8385 23.3128C34.8845 23.4038 34.893 23.501 34.8309 23.5969C34.7814 23.6733 34.7255 23.7013 34.6398 23.7262C34.4949 23.7683 34.3634 23.7625 34.1826 23.7263L34.1008 23.7118C34.0062 23.6973 33.9127 23.6909 33.802 23.6922L33.7024 23.6951C33.6501 23.6974 33.5937 23.7011 33.5317 23.7061L33.3998 23.7179L33.1892 23.7395C32.942 23.7668 32.6986 23.8212 32.462 23.9022L32.4059 23.9226C32.3966 23.9263 32.3872 23.9301 32.3777 23.9341L32.3179 23.9612C32.3074 23.9663 32.2965 23.9716 32.2852 23.9773L32.2112 24.0157L32.0356 24.1117C31.8811 24.1929 31.7219 24.265 31.5619 24.3262C31.411 24.3864 31.2512 24.4423 31.0614 24.5028C30.8773 24.5591 30.6903 24.6058 30.5042 24.6423L30.2331 24.699L30.1377 24.7158L30.0805 24.7239L29.9962 24.7393L29.9107 24.7528L29.8193 24.7651L29.717 24.7771L29.1642 24.8336C29.0439 24.8444 28.923 24.8499 28.8011 24.8503C28.7473 24.85 28.6903 24.8518 28.6252 24.8553L28.6033 24.8566L28.3652 24.8736L28.2798 24.8788L28.2257 24.8801L28.0177 24.879L27.8039 24.8843C27.6003 24.8884 27.4058 24.8865 27.2173 24.8779C26.866 24.8619 26.5417 24.8394 26.231 24.8082L26.1409 24.7976L25.9192 24.7657L25.8456 24.7562L25.7846 24.7498L25.7572 24.7477L25.7051 24.7454L25.642 24.745L25.5858 24.7269L25.5424 24.7155L25.4923 24.7053L25.4298 24.6951L25.239 24.6679L25.1853 24.6589L24.8771 24.5971L24.7897 24.5785L24.7156 24.5611L24.6483 24.5431L24.5114 24.5012C24.4396 24.4799 24.363 24.4595 24.2798 24.4394L24.2414 24.4297C24.1785 24.4133 24.1193 24.3948 24.0484 24.3695L23.9566 24.3356L23.584 24.1921L23.4947 24.1553C23.426 24.1256 23.3698 24.0974 23.3098 24.0625L23.2918 24.0522L23.2333 24.0211L22.9895 23.9028L22.9137 23.8632L22.8404 23.8226L22.7663 23.7791L22.6885 23.7309L22.5579 23.6457L22.4012 23.5396L22.1975 23.3988C22.0744 23.3098 21.9608 23.2078 21.8056 23.0544L21.7868 23.0334L21.7605 23.003L21.6713 22.9106L21.6381 22.8741C21.6292 22.8637 21.6221 22.8547 21.6161 22.8461C21.5328 22.7553 21.4624 22.6689 21.3924 22.5694L21.3322 22.4806L21.2704 22.383C21.2598 22.3658 21.2492 22.3482 21.2383 22.3301L21.1708 22.2148L21.0974 22.0847L20.8987 21.7244L20.7777 21.513L20.7403 21.446L20.6663 21.3105L20.5928 21.1716L20.5188 21.0276L20.4436 20.877L20.3663 20.718L20.2442 20.4601L20.1122 20.1741L19.7311 19.3318L19.5792 19.0038L19.3108 18.4439L19.2439 18.3099L19.2142 18.2475L19.204 18.2205C19.1319 17.9887 19.0738 17.8781 18.9632 17.7922L18.9224 17.7586C18.8433 17.695 18.7784 17.6529 18.7095 17.6222C18.6796 17.6083 18.6477 17.5992 18.615 17.5952L18.5806 17.5884C18.3665 17.529 18.1456 17.4976 17.9235 17.495L17.8894 17.4921C17.849 17.4857 17.8059 17.4832 17.734 17.4824L17.6204 17.4808L17.555 17.4782L17.508 17.4774L17.4213 17.4794L17.2357 17.4871L17.1739 17.4883C16.9592 17.492 16.7457 17.5219 16.5383 17.5774L16.508 17.5855L16.4767 17.5854C16.4218 17.5852 16.3666 17.6124 16.2627 17.6924C16.0974 17.8197 15.992 17.9723 15.945 18.1572L15.9287 18.2014L15.8928 18.2748L15.4816 19.0965L15.333 19.4071L15.2638 19.5504L15.1935 19.6893L14.8347 20.4272C14.6465 20.812 14.4371 21.1977 14.1911 21.6166L14.039 21.8722C14.0128 21.9155 13.9863 21.9592 13.9594 22.0034L13.7927 22.2738C13.5889 22.6011 13.3132 22.8907 12.957 23.1719L12.8698 23.2387C12.8258 23.2713 12.7809 23.303 12.7334 23.335L12.6346 23.3997C12.6001 23.4216 12.5641 23.444 12.5259 23.4672L12.4045 23.5396L12.2675 23.6189C12.1185 23.7037 11.9649 23.78 11.8079 23.8472L11.6358 23.919L11.3025 24.0498C11.1659 24.1003 11.0262 24.1431 10.8828 24.1782L10.837 24.1894L10.5953 24.253L10.5175 24.2708C10.3133 24.3141 10.1267 24.3493 9.94528 24.3779C9.71166 24.4148 9.49042 24.4409 9.27627 24.4559L8.97195 24.4783L8.88493 24.487L8.80791 24.4958L8.73737 24.5024L8.70156 24.5048L8.62537 24.5084L8.53838 24.5105L8.20981 24.5126L8.12006 24.5153L7.94908 24.5251C7.82856 24.5291 7.70799 24.5236 7.58895 24.5088L7.55031 24.5046L7.46504 24.4983L7.25772 24.4905L7.0398 24.4797C6.83441 24.4675 6.62348 24.4502 6.40451 24.428L6.33597 24.4208L6.19305 24.4047L5.92628 24.3714L5.83975 24.3588L5.3224 24.2719C5.19352 24.2484 5.09651 24.2242 4.99761 24.1882L4.97951 24.1819L4.94063 24.1698L4.89222 24.157L4.76202 24.1257L4.6962 24.1086L4.61102 24.0834L4.51753 24.0526L4.15277 23.9247C4.01174 23.8735 3.92112 23.8318 3.82421 23.7701L3.75544 23.7282C3.45422 23.552 3.1101 23.4496 2.69097 23.4L2.65257 23.3956L2.57484 23.3881L2.4917 23.3818L2.39812 23.3763L1.99149 23.359C1.97115 23.359 1.94922 23.3605 1.92271 23.3638L1.86268 23.3728L1.76622 23.3901L1.68536 23.4036L1.64072 23.4093L1.56566 23.4161C1.43249 23.426 1.34755 23.4193 1.24176 23.379C1.07042 23.3138 1.00148 23.1453 1.09116 22.981L1.11397 22.9363L1.16496 22.8299C1.18344 22.797 1.20515 22.766 1.22977 22.7374L1.24421 22.7157C1.25844 22.6952 1.27429 22.675 1.29551 22.6496L1.38452 22.5447C1.41799 22.5032 1.44915 22.4499 1.4842 22.3763L1.58085 22.1769L1.64709 22.0377L1.68253 21.9597L1.71235 21.8903L1.7377 21.8264L1.75975 21.7651L1.77965 21.7037C1.84039 21.5059 1.81162 21.3227 1.69025 21.1622L1.69224 21.165L1.631 21.1449C1.55178 21.122 1.46959 21.1111 1.38785 21.1128L1.35851 21.1135L1.03468 21.1154C0.858349 21.1167 0.706175 21.046 0.627541 20.8827C0.542506 20.7062 0.595161 20.5575 0.719019 20.4144C0.766996 20.359 0.819328 20.305 0.883189 20.2436L0.893212 20.2333C0.909421 20.2153 0.923551 20.1929 0.941509 20.1555L0.965273 20.1027L1.01658 19.9829L1.03736 19.9399L1.09411 19.8334L1.34208 19.3543L1.41879 19.201C1.52749 18.9748 1.62012 18.7409 1.69629 18.4999C1.76355 18.2934 1.8074 18.08 1.82691 17.8652L1.82857 17.8449L1.85489 17.4286L1.8836 17.0443L1.8936 16.9227L1.91452 16.6866L1.93214 16.5051L1.98897 16.0036L2.02218 15.6997L2.03059 15.6316L2.04808 15.5143L2.09304 15.2372L2.10759 15.1296L2.12289 15.0243L2.14209 14.9097L2.23864 14.3899L2.25822 14.2709L2.27272 14.1664L2.28037 14.0991L2.28769 14.0237L2.2995 13.9991L2.30702 13.9214C2.35475 13.4508 2.44111 13.0689 2.59596 12.7158L2.63293 12.6348C2.71384 12.4642 2.82624 12.315 2.98962 12.1422L3.01535 12.1142L3.11011 12.0043C3.20068 11.9005 3.26021 11.8435 3.34478 11.7885L3.37716 11.7601C3.52924 11.6326 3.70533 11.542 3.92724 11.4655L4.00293 11.4405L4.1056 11.407L4.19094 11.3772C4.21736 11.3675 4.24219 11.3579 4.26672 11.3478L4.30665 11.3324C4.43863 11.2839 4.56198 11.2662 4.74823 11.2607L4.86811 11.2587L5.43627 11.2563L7.18331 11.2569L7.60011 11.2559L7.67086 11.2565L7.83249 11.2594L8.05007 11.2565L8.11075 11.2579L8.15685 11.261ZM8.42368 11.7171L8.32515 11.7132L8.30161 11.7128L8.26393 11.7138C8.25847 11.7142 8.25336 11.7146 8.24848 11.7152L8.22108 11.7199L8.18229 11.7287L8.124 11.7224L8.08506 11.72L8.03893 11.7192L7.91892 11.7211L7.82919 11.722L7.72811 11.72L7.59578 11.7185L5.78714 11.7185L4.8182 11.7219L4.72557 11.7245C4.59846 11.7303 4.52097 11.7444 4.44436 11.7757C4.40052 11.7936 4.35697 11.81 4.30876 11.8269L4.20467 11.862L4.14524 11.8811C3.92112 11.9522 3.76691 12.0302 3.64577 12.1423L3.61071 12.169C3.57604 12.1906 3.54643 12.2159 3.50404 12.2614L3.45673 12.3144L3.36324 12.4226L3.28257 12.5101C3.17639 12.6276 3.10468 12.7276 3.05532 12.8316C2.89146 13.1771 2.80583 13.5618 2.76173 14.0711L2.75499 14.1099L2.74502 14.1419L2.74025 14.1872L2.73014 14.2684L2.71781 14.353L2.7026 14.4456L2.68388 14.551L2.60263 14.9851L2.57944 15.126L2.55088 15.3307L2.50351 15.6223L2.48963 15.7209L2.39985 16.5197L2.37928 16.7293L2.35869 16.9618L2.34883 17.0816L2.32979 17.3308L2.31135 17.5951L2.29883 17.8105L2.29192 17.9052C2.26918 18.1557 2.21838 18.4028 2.14109 18.6402C2.04241 18.9523 1.91735 19.2554 1.76712 19.5467L1.61278 19.8465L1.46022 20.1367L1.44669 20.1633L1.43148 20.197L1.39082 20.293C1.33332 20.4259 1.29091 20.4962 1.20801 20.5759L1.18175 20.6013L1.1312 20.6522L1.22502 20.6522L1.3771 20.6503C1.53987 20.647 1.70179 20.6745 1.84704 20.7288C1.9338 20.758 2.00957 20.8127 2.06408 20.8851C2.27645 21.166 2.3293 21.5026 2.22618 21.8384L2.20243 21.912L2.17676 21.9839L2.14788 22.0573L2.13185 22.0956L2.09579 22.1774L2.02933 22.3196L1.88039 22.6264C1.82865 22.7279 1.77694 22.807 1.71892 22.8683L1.65957 22.939L1.79258 22.9153C1.88806 22.8995 1.95608 22.8936 2.03423 22.8974L2.37152 22.9117L2.52738 22.9205L2.66083 22.9313L2.74637 22.9406C3.26305 23.0018 3.69375 23.1373 4.0764 23.3808L4.10062 23.3957C4.13341 23.4149 4.16862 23.4324 4.21168 23.4506L4.28281 23.4789C4.29587 23.4839 4.3096 23.4889 4.32406 23.4941L4.66565 23.6138L4.72362 23.6333L4.77395 23.6491L4.83923 23.6677L5.01449 23.7104L5.07677 23.7272L5.13135 23.7443L5.18994 23.7648C5.22168 23.7752 5.25506 23.7845 5.29232 23.7933L5.37272 23.8105C5.40169 23.8161 5.43307 23.8217 5.46752 23.8275L5.90982 23.9013L5.98082 23.9118L6.09669 23.9268L6.24736 23.9452L6.4521 23.9678C6.71774 23.9947 6.97053 24.0142 7.2152 24.0258L7.42484 24.0332L7.54508 24.0399C7.58002 24.0425 7.61328 24.0456 7.6463 24.0496C7.76541 24.0645 7.8857 24.0676 8.00399 24.059L8.03521 24.0567L8.12781 24.0519L8.23438 24.0496L8.47892 24.0485L8.6014 24.0462L8.66798 24.0433L8.72828 24.0388L8.8792 24.0224L8.97952 24.0133L9.36436 23.9848C9.52693 23.9702 9.69526 23.9489 9.87186 23.9211C10.0445 23.8938 10.2233 23.8601 10.4198 23.8184L10.4414 23.8137L10.5106 23.797L10.6942 23.7482L10.7731 23.7285C10.9283 23.6905 11.0806 23.6415 11.2311 23.5809L11.2853 23.5597L11.4575 23.4914L11.6221 23.4228C11.7636 23.3622 11.9015 23.2938 12.0345 23.2181L12.1628 23.1437L12.2758 23.0764L12.3761 23.0143C12.3919 23.0043 12.4073 22.9944 12.4223 22.9845L12.5087 22.9266C12.5639 22.8883 12.6153 22.8503 12.6662 22.81C12.9833 22.5597 13.2229 22.308 13.3955 22.0308C13.4518 21.9404 13.5063 21.852 13.5591 21.7654L13.7129 21.5103C13.9862 21.0513 14.2134 20.637 14.4145 20.2258L14.7759 19.4828L14.8168 19.4029L14.8757 19.283L15.048 18.9226L15.2456 18.5285L15.4994 18.0181L15.5095 17.9829C15.5837 17.7415 15.7249 17.5362 15.9251 17.3683L15.9763 17.3271C16.1455 17.1967 16.275 17.1302 16.4458 17.1233L16.4446 17.1236L16.4783 17.1227C16.4673 17.1227 16.4565 17.1229 16.4458 17.1233L16.5219 17.1045C16.6979 17.064 16.8773 17.0389 17.0587 17.0295L17.1679 17.0257L17.2224 17.0246L17.4476 17.0156L17.5125 17.0147L17.5716 17.0158L17.6354 17.0184L17.792 17.0208C17.8509 17.0224 17.8977 17.0258 17.9461 17.0327L17.9455 17.0327L17.9631 17.0353C17.9574 17.0344 17.9517 17.0335 17.9461 17.0327L18.0416 17.0358C18.2289 17.045 18.415 17.0714 18.5974 17.1148L18.6909 17.1389L18.7206 17.1435C18.7688 17.1525 18.8158 17.1658 18.8603 17.1831L18.904 17.2016C19.0285 17.2571 19.1366 17.3311 19.2581 17.4337L19.2964 17.4648C19.4666 17.6099 19.5557 17.7842 19.6456 18.0702L19.6447 18.0683L19.65 18.0843C19.6486 18.0796 19.6471 18.0749 19.6456 18.0702L19.715 18.2096L20.0022 18.8083L20.1237 19.0698L20.4433 19.776L20.5809 20.0783L20.6659 20.2618L20.7465 20.4328L20.8234 20.5929L20.9341 20.8162L21.0059 20.9562L21.0772 21.091L21.1488 21.2222L21.185 21.2869L21.3056 21.4976L21.5411 21.9235L21.6093 22.0422L21.6721 22.1466C21.7735 22.3102 21.8607 22.4257 21.9755 22.5517L21.9836 22.5621L22.0158 22.5983L22.0981 22.6833C22.1053 22.691 22.1119 22.6982 22.1182 22.7052L22.144 22.7355L22.2322 22.821C22.3231 22.907 22.3968 22.9701 22.4717 23.0244L22.5093 23.0509L22.7168 23.1933L22.8543 23.2856L22.9327 23.3364L23.0038 23.3806L23.0706 23.42L23.1359 23.4563L23.2203 23.5L23.3593 23.5668L23.451 23.6117L23.4996 23.6373L23.5724 23.6784L23.6274 23.7066L23.6898 23.7348L23.7647 23.7654L24.1176 23.9012L24.1985 23.9313L24.2675 23.955C24.3107 23.9691 24.3495 23.98 24.3906 23.99L24.4795 24.0122C24.5663 24.0346 24.6474 24.0577 24.7248 24.0825L24.7519 24.0909L24.8065 24.1064L24.8661 24.1212L24.9364 24.1367L25.253 24.2006L25.3164 24.2117L25.4997 24.2376L25.5715 24.2492L25.633 24.2612L25.6891 24.2749L25.7177 24.2828L25.7489 24.2839L25.8166 24.2881C25.8398 24.29 25.864 24.2924 25.8902 24.2954L25.9759 24.3064L26.2 24.3387L26.278 24.3479C26.5796 24.3782 26.8955 24.4001 27.2387 24.4158C27.4611 24.4259 27.6937 24.4262 27.9422 24.4177L27.989 24.4166L28.2475 24.4169L28.2982 24.4145L28.502 24.3995L28.6707 24.39C28.7167 24.3883 28.7598 24.3874 28.8013 24.3876C28.9442 24.3872 29.087 24.3786 29.2305 24.3616L29.6183 24.3224L29.729 24.31L29.826 24.2974L29.9157 24.2836L30.0049 24.2676L30.0596 24.2597L30.0875 24.2551L30.1821 24.2373L30.5402 24.1619C30.6692 24.1332 30.7967 24.0996 30.9212 24.0616C31.0985 24.005 31.2482 23.9526 31.3907 23.8958C31.5365 23.84 31.6788 23.7756 31.8139 23.7046L31.9981 23.604C32.0138 23.5956 32.0289 23.5877 32.0434 23.5802L32.1253 23.5395C32.1898 23.5089 32.2468 23.486 32.3111 23.4644C32.5789 23.3728 32.856 23.3108 33.1388 23.2795L33.2857 23.2642L33.4407 23.2494L33.5791 23.2385C33.863 23.2191 34.0503 23.228 34.2748 23.2728L34.2811 23.2737L34.2157 23.1619C33.9955 22.7751 33.8375 22.3854 33.7442 21.983L33.7203 21.8729C33.6272 21.4111 33.8581 21.0791 34.3235 20.9982C34.4096 20.9832 34.4832 20.9786 34.5915 20.9799L34.8024 20.9851L34.7521 20.9249C34.7275 20.8942 34.709 20.8685 34.6913 20.8394L34.6412 20.7528L34.4761 20.4795L34.4423 20.4199L34.4122 20.3635L34.3752 20.2906L34.2491 20.0534L34.1373 19.8404L34.0615 19.6839C33.9387 19.4206 33.8363 19.1481 33.755 18.8678C33.6763 18.5898 33.6123 18.308 33.5648 18.0318L33.5562 17.9903L33.5216 17.8106L33.4756 17.55L33.4504 17.3884L33.4353 17.2776L33.4142 17.0997L33.4005 16.9691L33.3797 16.7479L33.3538 16.4405L33.303 15.721L33.2832 15.3834L33.274 15.2722L33.2625 15.1799L33.2549 15.1359L33.2509 15.1218C33.2471 15.1074 33.2437 15.0913 33.2407 15.0725L33.2365 15.0419C33.2265 14.8219 33.2128 14.6423 33.1913 14.4713L33.1797 14.3706L33.173 14.2998L33.1385 13.85C33.1164 13.6173 33.061 13.3891 32.9741 13.1721L32.963 13.1363C32.9529 13.0905 32.9375 13.0489 32.9068 12.9871L32.8706 12.9176L32.815 12.8159L32.791 12.7746C32.7774 12.7528 32.7681 12.7419 32.7599 12.7359L32.7227 12.7022L32.5159 12.4697L32.416 12.3525C32.3772 12.3094 32.3319 12.2677 32.2708 12.2182L32.1892 12.1544L32.1515 12.1272L32.1091 12.0996L32.0562 12.0678L31.9054 11.9815L31.8333 11.9378C31.7524 11.8877 31.6659 11.8473 31.5732 11.8166C31.3623 11.7443 31.1344 11.7185 30.8085 11.7193L30.7689 11.7195L30.2709 11.7248L30.0128 11.7231L29.3993 11.7241L29.2302 11.7275L29.1676 11.7276L29.1399 11.7269L29.0552 11.7223L28.9912 11.7205L28.9315 11.7206L28.4617 11.7244L28.3321 11.7236L28.1597 11.7299C28.1074 11.7311 28.0667 11.7301 28.026 11.726L27.9917 11.7215L27.9584 11.7289C27.9226 11.7357 27.8925 11.7377 27.8571 11.733L27.8091 11.724C27.8054 11.7235 27.8016 11.723 27.7974 11.7226L27.7675 11.7217L27.7237 11.7231L27.646 11.7274C27.5971 11.7297 27.5582 11.7296 27.5203 11.7261L27.5086 11.7246L27.4916 11.729C27.4348 11.7403 27.3764 11.7398 27.32 11.7277L27.2837 11.7178L27.2581 11.7256C27.1921 11.7414 27.1225 11.7407 27.0527 11.7224L27.0468 11.7204L27.0191 11.7263C26.9691 11.735 26.9207 11.7358 26.8527 11.732L26.7455 11.7258L26.7205 11.7263C26.7137 11.7268 26.7081 11.7277 26.7029 11.7289L26.6709 11.7344C26.6394 11.738 26.6089 11.7363 26.5789 11.7308L26.569 11.7288L26.5483 11.7236L26.5387 11.726C26.4859 11.7367 26.4349 11.7374 26.3674 11.7324L26.2772 11.7245L26.2509 11.7234L26.2356 11.7243L26.2018 11.7322C26.1591 11.7393 26.1156 11.7371 26.0742 11.726L26.0601 11.7213L26.0449 11.7263L26.0077 11.7261L25.7708 11.7271L25.7013 11.7255L25.597 11.7194L25.5529 11.7185L25.3649 11.7204L25.2137 11.7177L25.1071 11.7174L24.8375 11.7197L24.5941 11.7196L24.3309 11.7248L24.2377 11.7242L24.1394 11.7201L24.0927 11.7196L23.8999 11.7211L23.7664 11.7178L23.7038 11.7178L23.6101 11.7192L23.3791 11.7251L23.2913 11.7266L18.273 11.7288L17.2436 11.7256L15.341 11.7292L14.6841 11.7289L13.4218 11.7268L12.1766 11.7271L12.0516 11.7264L11.7765 11.7217L11.5958 11.7216L11.5276 11.7205L11.4806 11.719L11.3641 11.7162L11.2729 11.7162L10.7886 11.7182L10.627 11.724L10.5531 11.7261L10.4914 11.726C10.4817 11.7258 10.4723 11.7255 10.4629 11.725L10.3495 11.7175L10.2832 11.7162L9.98809 11.7207L9.66952 11.7194L9.57733 11.7204L9.53481 11.7214L9.40869 11.7272L9.33532 11.7279C9.29916 11.7272 9.26527 11.7247 9.23123 11.7198L9.21058 11.7174C9.18208 11.7147 9.14908 11.7141 9.10452 11.7152L8.96754 11.7191L8.92296 11.7188L8.76709 11.7144C8.68416 11.713 8.61217 11.7138 8.5429 11.7173L8.50557 11.7185C8.4804 11.7188 8.45414 11.7183 8.42368 11.7171Z" fill="black"/>
<path fill-rule="evenodd" clip-rule="evenodd" d="M2.87251 13.9202C1.93112 13.9202 1.16797 14.6833 1.16797 15.6247C1.16797 16.5661 1.93112 17.3293 2.87251 17.3293H7.74751C8.68891 17.3293 9.45206 16.5661 9.45206 15.6247C9.45206 14.6833 8.68891 13.9202 7.74751 13.9202H2.87251ZM5.25888 16.477C5.63544 16.477 5.9407 16.1717 5.9407 15.7952C5.9407 15.4186 5.63544 15.1133 5.25888 15.1133C4.88232 15.1133 4.57706 15.4186 4.57706 15.7952C4.57706 16.1717 4.88232 16.477 5.25888 16.477Z" fill="#F9F154"/>
<path fill-rule="evenodd" clip-rule="evenodd" d="M9.68897 14.7644C9.66151 14.2967 9.30948 13.9202 8.86946 13.9202H1.98921L1.93468 13.9221C1.5024 13.953 1.16797 14.3485 1.16797 14.8234V16.767L1.16969 16.8259C1.19715 17.2936 1.54918 17.6702 1.98921 17.6702H8.86946L8.92399 17.6682C9.35626 17.6373 9.6907 17.2418 9.6907 16.767V14.8234L9.68897 14.7644ZM1.98921 14.2611H8.86946L8.91246 14.2633C9.15369 14.2888 9.34979 14.5261 9.34979 14.8234V16.767L9.34778 16.8188C9.32523 17.1085 9.11546 17.3293 8.86946 17.3293H1.98921L1.9462 17.327C1.70498 17.3015 1.50888 17.0642 1.50888 16.767V14.8234L1.51088 14.7716C1.53343 14.4819 1.7432 14.2611 1.98921 14.2611ZM5.23895 14.8998C5.73846 14.8998 6.13383 15.3043 6.13383 15.7939C6.13383 16.2834 5.73846 16.6879 5.23895 16.6879C4.73943 16.6879 4.34406 16.2834 4.34406 15.7939C4.34406 15.3043 4.73943 14.8998 5.23895 14.8998ZM4.68497 15.7939C4.68497 15.4842 4.93862 15.2408 5.23895 15.2408C5.53927 15.2408 5.79292 15.4842 5.79292 15.7939C5.79292 16.1036 5.53927 16.347 5.23895 16.347C4.93862 16.347 4.68497 16.1036 4.68497 15.7939Z" fill="black"/>
</g>
<defs>
<filter id="filter0_d_0_23558" x="-3.41406" y="0" width="135.412" height="38" filterUnits="userSpaceOnUse" color-interpolation-filters="sRGB">
<feFlood flood-opacity="0" result="BackgroundImageFix"/>
<feColorMatrix in="SourceAlpha" type="matrix" values="0 0 0 0 0 0 0 0 0 0 0 0 0 0 0 0 0 0 127 0" result="hardAlpha"/>
<feOffset dy="4"/>
<feGaussianBlur stdDeviation="2"/>
<feComposite in2="hardAlpha" operator="out"/>
<feColorMatrix type="matrix" values="0 0 0 0 0 0 0 0 0 0 0 0 0 0 0 0 0 0 0.25 0"/>
<feBlend mode="normal" in2="BackgroundImageFix" result="effect1_dropShadow_0_23558"/>
<feBlend mode="normal" in="SourceGraphic" in2="effect1_dropShadow_0_23558" result="shape"/>
</filter>
</defs>
</svg>
