<svg width="48" height="48" viewBox="0 0 48 48" fill="none" xmlns="http://www.w3.org/2000/svg">
<path d="M48 24C48 37.2544 37.2544 48 24 48C11.9569 48 1.98375 39.1275 0.263438 27.5625C0.087748 26.3831 -0.000305561 25.1924 7.96646e-07 24C7.96646e-07 10.7456 10.7456 0 24 0C36.7922 0 47.25 10.0088 47.9606 22.6219C47.9869 23.0775 48 23.5378 48 24Z" fill="#EFB732"/>
<path d="M48.0002 24.0001C48.0002 37.2545 37.2546 48.0001 24.0002 48.0001C11.9571 48.0001 1.98398 39.1276 0.263672 27.5626C0.405234 27.512 0.544922 27.4548 0.684609 27.3929C1.61555 26.9757 2.42836 26.3232 3.3743 25.9426C4.66263 25.4318 6.10098 25.4531 7.37367 26.0017C8.5868 26.5314 9.64148 27.542 10.969 27.6189C12.0621 27.6826 13.098 27.0714 13.863 26.2885C14.628 25.5057 15.1877 24.5504 15.844 23.6814C16.7599 22.4832 17.913 21.421 19.3127 20.8689C20.7124 20.3167 22.3943 20.3279 23.6637 21.1426C24.8468 21.9029 25.5265 23.2192 26.4377 24.2889C27.7334 25.8104 29.7799 26.8942 31.7215 26.4132C33.2909 26.0242 34.6371 24.6751 36.2468 24.8298C37.8565 24.9845 38.9215 26.5754 40.3559 27.3451C42.243 28.3576 44.8559 27.6854 46.0212 25.8892C46.698 24.841 47.0909 23.371 47.9534 22.6239C47.9871 23.0776 48.0002 23.5379 48.0002 24.0001Z" fill="#E2A427"/>
<path d="M22.1098 30.7181L19.5064 30.2953C18.3102 30.1017 17.4521 29.0379 17.516 27.8278C17.5452 27.2759 17.8282 26.7685 18.2825 26.4536C18.7367 26.1387 19.3111 26.0518 19.8382 26.2181L20.906 26.5537C22.6479 27.1031 24.4636 27.3825 26.2901 27.3825H30.2576V30.6169L26.2592 30.9037C24.8735 31.003 23.481 30.9407 22.1098 30.7181Z" fill="#0989D8"/>
<path d="M26.726 31.5788L29.0698 30.3647C30.1446 29.8059 30.6262 28.5275 30.1873 27.3985C29.9872 26.8833 29.5601 26.4896 29.0303 26.3323C28.5004 26.1749 27.9277 26.2716 27.4788 26.5941L26.5723 27.2457C25.0893 28.3127 23.452 29.1467 21.717 29.7188L17.9473 30.9572L18.9579 34.0313L22.8448 33.0544C24.1916 32.7154 25.4941 32.2201 26.726 31.5788Z" fill="#29A3FB"/>
<path d="M36.1877 44.6793C35.7502 44.9374 35.3055 45.1815 34.8537 45.4115C33.9999 45.845 33.1208 46.2266 32.2212 46.5543L31.8893 43.4681C31.8893 43.4437 31.8827 43.4193 31.8771 43.394C31.8664 43.3459 31.8497 43.2992 31.8274 43.2552C31.579 42.7499 30.8037 42.9534 30.7905 43.5159L30.6968 47.0559C30.2293 47.1921 29.7555 47.3137 29.2755 47.4206C28.5637 47.5806 27.8402 47.7084 27.1052 47.804L26.748 39.614L36.1709 39.5784L36.1877 44.6793Z" fill="#DECEE5"/>
<path d="M34.8526 45.4116C33.996 45.8469 33.1138 46.2298 32.2107 46.5582L31.7748 42.5475C31.7086 41.9356 31.194 41.4707 30.5786 41.4666H30.5682C29.908 41.467 29.3697 41.9961 29.3579 42.6563L29.2726 47.4179C28.5607 47.5779 27.8373 47.7057 27.1023 47.8013L26.7451 39.6113L34.8311 39.5813L34.8526 45.4116Z" fill="#F9F2F9"/>
<path d="M26.6885 28.3219L26.7307 39.6113L36.1526 39.5756L36.1104 28.2872C36.1081 27.5844 35.8267 26.9112 35.3281 26.4159C34.8295 25.9206 34.1544 25.6438 33.4516 25.6463L29.3266 25.6622C27.8638 25.6684 26.6828 26.859 26.6885 28.3219Z" fill="#40BFFF"/>
<path d="M26.707 34.0312H36.1336V36.8212H26.707V34.0312Z" fill="#FF88AD"/>
<path d="M26.707 31.2412H36.1336V34.0312H26.707V31.2412Z" fill="white"/>
<path d="M26.707 28.4502H36.1336V31.2402H26.707V28.4502Z" fill="#FF88AD"/>
<path d="M33.0936 27.4126C32.7237 27.8235 32.5649 28.3824 32.6634 28.9264C32.7619 29.4703 33.1066 29.9381 33.597 30.1932L37.0311 31.981C37.7238 32.3417 37.9986 33.1919 37.6479 33.8898L36.1479 36.8748L39.1554 38.2717L41.1532 33.8598C41.8003 32.4354 41.3518 30.7523 40.0817 29.8389L36.2417 27.0751C35.2597 26.3687 33.9035 26.5141 33.0936 27.4126Z" fill="#29A3FB"/>
<path d="M36.1436 36.8748L36.1501 38.6513C36.1539 39.7149 36.9659 40.6012 38.0251 40.6979L39.1876 40.8066C39.5695 40.8415 39.9103 40.5674 39.9582 40.1869L39.9901 39.9244C40.0362 39.5565 39.791 39.2153 39.4276 39.1416C39.2646 39.1081 39.1277 38.9979 39.0602 38.8457C38.9927 38.6936 39.0028 38.5182 39.0873 38.3748L39.1482 38.2716L36.1436 36.8748Z" fill="#995444"/>
<path d="M29.4902 13.185L33.2045 13.1702C35.366 13.1631 37.1243 14.909 37.1324 17.0705L37.142 19.4864L25.5995 19.5326L25.5899 17.1166C25.5855 16.078 25.994 15.0801 26.7255 14.3428C27.457 13.6054 28.4515 13.1889 29.4902 13.185Z" fill="#3D2322"/>
<path d="M29.8457 24.6563V25.665C29.8493 26.516 30.5416 27.2032 31.3926 27.2006C32.2436 27.197 32.9308 26.5048 32.9282 25.6538V24.645L29.8457 24.6563Z" fill="#995444"/>
<path d="M29.8457 24.6562V25.5271C30.0545 25.7186 30.2979 25.8685 30.5629 25.9687C31.3747 26.2865 32.297 26.1068 32.9301 25.5074V24.6365L29.8457 24.6562Z" fill="#6D413C"/>
<path d="M26.6455 17.1272L26.6586 20.4788C26.662 21.4107 27.0731 22.2945 27.7836 22.8975L29.8461 24.6516C30.0244 24.8175 30.2287 24.9531 30.4508 25.0529C30.4874 25.0697 30.524 25.0847 30.5615 25.0997C31.3729 25.4181 32.2952 25.2391 32.9286 24.6404L34.9771 22.875C35.6822 22.2657 36.0859 21.3788 36.0824 20.4469L36.0693 17.0963C36.0651 15.8576 35.0579 14.8567 33.8193 14.8604L28.8824 14.8791C27.6441 14.8827 26.6429 15.8889 26.6455 17.1272Z" fill="#774742"/>
<path d="M26.6455 17.1272L26.6587 20.4788C26.662 21.4107 27.0731 22.2945 27.7837 22.8975L29.8462 24.6516C30.0244 24.8175 30.2287 24.953 30.4508 25.0529C30.6718 24.9509 30.8747 24.8138 31.0518 24.6469L33.0993 22.875C33.805 22.2662 34.2089 21.379 34.2046 20.4469L34.1924 17.0963C34.1878 15.8579 33.1809 14.8572 31.9424 14.8604L28.8833 14.8725C28.2874 14.874 27.7165 15.1126 27.2966 15.5356C26.8768 15.9586 26.6425 16.5313 26.6455 17.1272Z" fill="#995444"/>
<path d="M26.6553 20.4846L26.539 20.4851C26.0171 20.4872 25.5923 20.0658 25.5902 19.5439C25.5882 19.022 26.0096 18.5972 26.5315 18.5951L26.6477 18.5946L26.6553 20.4846Z" fill="#995444"/>
<path d="M36.0801 18.5457L36.1963 18.5452C36.4474 18.5442 36.6886 18.6432 36.8667 18.8203C37.0447 18.9974 37.1449 19.2381 37.1451 19.4892C37.1431 20.0082 36.7229 20.4284 36.2039 20.4305L36.0876 20.431L36.0801 18.5457Z" fill="#774742"/>
<path d="M32.1474 20.8416C32.1482 21.0489 31.9808 21.2177 31.7734 21.2185L30.9653 21.2218C30.758 21.2226 30.5892 21.0552 30.5884 20.8478C30.5875 20.6404 30.755 20.4717 30.9623 20.4708L31.7704 20.4676C31.9778 20.4668 32.1466 20.6342 32.1474 20.8416Z" fill="#774742"/>
<ellipse cx="29.1891" cy="19.9982" rx="0.5" ry="0.645943" transform="rotate(-0.229182 29.1891 19.9982)" fill="#3D2322"/>
<ellipse cx="33.5524" cy="19.9799" rx="0.5" ry="0.645943" transform="rotate(-0.229182 33.5524 19.9799)" fill="#3D2322"/>
<path d="M28.2795 19.8083C28.316 19.8084 28.3518 19.7991 28.3836 19.7812C28.8815 19.4944 29.4937 19.4915 29.9942 19.7737C30.0953 19.814 30.2106 19.7726 30.2631 19.6773C30.3155 19.5819 30.2887 19.4624 30.2005 19.3987C29.5701 19.0438 28.7994 19.0477 28.1727 19.409C28.0869 19.4568 28.0445 19.5567 28.0697 19.6516C28.0949 19.7465 28.1813 19.8122 28.2795 19.8112V19.8083Z" fill="#3D2322"/>
<path d="M32.6389 19.7925C32.6754 19.7923 32.7113 19.7826 32.743 19.7643C33.2411 19.4785 33.8528 19.4756 34.3536 19.7568C34.4559 19.8048 34.578 19.7652 34.6326 19.6663C34.6873 19.5673 34.6559 19.4429 34.5608 19.3818C33.9301 19.0273 33.1594 19.0308 32.532 19.3912C32.4468 19.4396 32.405 19.5393 32.4301 19.634C32.4552 19.7286 32.5409 19.7945 32.6389 19.7943V19.7925Z" fill="#3D2322"/>
<path d="M27.97 18.8963C27.9963 18.8962 28.0223 18.8915 28.0469 18.8823C28.7796 18.6046 29.588 18.6009 30.3231 18.872C30.4342 18.9136 30.558 18.8574 30.5997 18.7463C30.6414 18.6353 30.5851 18.5115 30.4741 18.4698C29.6405 18.1609 28.7231 18.1649 27.8922 18.481C27.7952 18.518 27.7385 18.6191 27.7576 18.7212C27.7767 18.8233 27.8662 18.897 27.97 18.8963Z" fill="#512F2D"/>
<path d="M32.3296 18.8804C32.3559 18.8803 32.3819 18.8755 32.4065 18.8663C33.1389 18.5874 33.9478 18.5837 34.6827 18.856C34.7557 18.8875 34.84 18.8762 34.9022 18.8268C34.9644 18.7774 34.9943 18.6978 34.9802 18.6197C34.9661 18.5415 34.9102 18.4774 34.8346 18.4529C33.9995 18.1451 33.0811 18.1507 32.2499 18.4688C32.1538 18.5067 32.098 18.6075 32.117 18.7091C32.136 18.8107 32.2244 18.8845 32.3277 18.8851L32.3296 18.8804Z" fill="#512F2D"/>
<path d="M31.3727 23.4646C30.5878 23.4646 29.9514 22.8283 29.9514 22.0433C29.9514 21.9693 30.0115 21.9093 30.0855 21.9093H32.6599C32.7339 21.9093 32.7939 21.9693 32.7939 22.0433C32.7939 22.8283 32.1576 23.4646 31.3727 23.4646V23.4646Z" fill="white"/>
<path d="M32.5436 13.7917L31.7383 14.2192C31.4934 14.3485 31.2004 14.3485 30.9554 14.2192L30.1501 13.7982C29.8244 13.6285 29.4388 13.6175 29.1039 13.7682L28.0492 14.2501C27.1857 14.6399 26.6197 15.4875 26.5904 16.4345L26.5079 19.1073C26.5043 19.2329 26.5746 19.3491 26.6876 19.4041C26.8006 19.459 26.9354 19.4427 27.032 19.3623L30.8879 16.1354C31.1584 15.911 31.5503 15.911 31.8208 16.1354L35.702 19.3332C35.7992 19.4129 35.934 19.4283 36.0467 19.3725C36.1593 19.3167 36.2287 19.2001 36.2242 19.0745L36.1211 16.4026C36.0847 15.4561 35.5125 14.6129 34.6464 14.2295L33.5889 13.7607C33.2541 13.6103 32.8688 13.6217 32.5436 13.7917Z" fill="#512F2D"/>
<path d="M21.0295 39.6113L20.6732 47.7676C19.9382 47.6657 19.2141 47.531 18.501 47.3635C18.021 47.251 17.547 47.1238 17.0788 46.982L16.9851 43.5132C16.972 42.9507 16.1966 42.7473 15.9482 43.2526C15.9259 43.2966 15.9092 43.3432 15.8985 43.3913C15.8932 43.4158 15.8891 43.4405 15.8863 43.4654L15.5629 46.4738C14.6598 46.1349 13.7782 45.7413 12.9229 45.2954C12.4691 45.0592 12.0241 44.8092 11.5879 44.5454L11.6066 39.5767L21.0295 39.6113Z" fill="#2E3140"/>
<path d="M21.0294 39.6111L20.6732 47.7674C19.9382 47.6655 19.2141 47.5308 18.501 47.3633L18.4166 42.6524C18.4048 41.9922 17.8665 41.4631 17.2063 41.4627H17.196C16.5805 41.4668 16.0659 41.9317 15.9997 42.5436L15.5722 46.4736C14.6658 46.134 13.781 45.7392 12.9229 45.2915L12.9435 39.5774L21.0294 39.6111Z" fill="#334353"/>
<path d="M21.0853 28.3219L21.0431 39.6113L11.625 39.5756L11.6681 28.2872C11.6704 27.5844 11.9518 26.9112 12.4504 26.4159C12.949 25.9206 13.6241 25.6438 14.3269 25.6463L18.4519 25.6622C19.9129 25.671 21.091 26.8609 21.0853 28.3219Z" fill="#40BFFF"/>
<path d="M11.6484 34.0312H21.075V36.8212H11.6484L11.6484 34.0312Z" fill="#FF88AD"/>
<path d="M11.6484 31.2412H21.075V34.0312H11.6484L11.6484 31.2412Z" fill="white"/>
<path d="M11.6484 28.4502H21.075V31.2402H11.6484L11.6484 28.4502Z" fill="#FF88AD"/>
<path d="M14.6839 27.4125C15.0534 27.8235 15.212 28.3823 15.1135 28.9261C15.015 29.47 14.6706 29.9377 14.1805 30.1931L10.7455 31.9809C10.0513 32.3402 9.77473 33.1907 10.1248 33.8896L11.6248 36.8746L8.62483 38.2715L6.62515 33.8596C5.97809 32.4353 6.42663 30.7522 7.69671 29.8387L11.5311 27.075C12.514 26.3657 13.8734 26.5112 14.6839 27.4125Z" fill="#29A3FB"/>
<path d="M11.6303 36.8748L11.6247 38.6513C11.6209 39.7149 10.8089 40.6012 9.74967 40.6979L8.58248 40.8066C8.20059 40.8415 7.85978 40.5674 7.81186 40.1869L7.77998 39.9244C7.73385 39.5565 7.97908 39.2153 8.34248 39.1416C8.50554 39.1081 8.64237 38.9979 8.70989 38.8457C8.77742 38.6936 8.76732 38.5182 8.68279 38.3748L8.62186 38.2716L11.6303 36.8748Z" fill="#FDC8BB"/>
<path d="M19.7707 13.6472H13.0413C12.4028 13.6472 11.7905 13.9009 11.339 14.3524C10.8875 14.8039 10.6338 15.4162 10.6338 16.0547V24.2307C10.6316 24.4216 10.7263 24.6006 10.8854 24.7061C11.0446 24.8116 11.2463 24.8292 11.4213 24.7528C12.2126 24.4116 13.7126 24.0122 16.406 24.0122C19.0995 24.0122 20.6004 24.4107 21.3916 24.7528C21.5668 24.8293 21.7688 24.8116 21.9279 24.7059C22.0871 24.6001 22.1817 24.4208 22.1791 24.2297V16.0547C22.1786 14.7249 21.1005 13.6472 19.7707 13.6472V13.6472Z" fill="#9F482C"/>
<path d="M17.9292 24.6563V25.665C17.9256 26.516 17.2333 27.2032 16.3823 27.2006C15.9735 27.1992 15.5821 27.0353 15.2941 26.7452C15.0061 26.4552 14.8452 26.0625 14.8467 25.6538V24.645L17.9292 24.6563Z" fill="#FDC8BB"/>
<path d="M17.9292 24.6563V25.5272C17.5105 25.9178 16.9586 26.134 16.3861 26.1319C15.8132 26.13 15.2627 25.9097 14.8467 25.516V24.645L17.9292 24.6563Z" fill="#F78C87"/>
<path d="M21.1274 17.1272L21.1152 20.4788C21.1118 21.4107 20.7008 22.2945 19.9902 22.8975L17.9277 24.6516C17.7494 24.8175 17.5451 24.9531 17.323 25.0529C17.2864 25.0697 17.2489 25.0847 17.2124 25.0997C16.4009 25.4181 15.4787 25.2391 14.8452 24.6404L12.7968 22.875C12.091 22.2662 11.6872 21.379 11.6914 20.4469L11.7046 17.0963C11.7087 15.8576 12.7159 14.8567 13.9546 14.8604L18.8914 14.8791C20.1296 14.8827 21.1305 15.8891 21.1274 17.1272Z" fill="#FBB3A5"/>
<path d="M21.1275 17.1272L21.1153 20.4788C21.1119 21.4107 20.7009 22.2945 19.9903 22.8975L17.9278 24.6516C17.7495 24.8175 17.5453 24.953 17.3231 25.0529C17.1022 24.9509 16.8992 24.8138 16.7222 24.6469L14.6747 22.875C13.969 22.2662 13.5651 21.379 13.5694 20.4469L13.5816 17.0963C13.5862 15.8579 14.5931 14.8572 15.8316 14.8604L18.8916 14.8725C19.4873 14.8743 20.0578 15.113 20.4773 15.536C20.8968 15.959 21.1307 16.5315 21.1275 17.1272Z" fill="#FDC8BB"/>
<path d="M21.1172 18.5955L21.2334 18.5959C21.7553 18.598 22.1767 19.0228 22.1747 19.5447C22.1726 20.0666 21.7478 20.488 21.2259 20.4859L21.1096 20.4855L21.1172 18.5955Z" fill="#FDC8BB"/>
<path d="M11.6953 20.4409L11.5791 20.4405C11.3279 20.4394 11.0876 20.3385 10.911 20.16C10.7344 19.9815 10.6361 19.74 10.6379 19.4889C10.644 18.9699 11.0676 18.553 11.5866 18.5551L11.7029 18.5556L11.6953 20.4409Z" fill="#FBB3A5"/>
<path d="M15.6171 20.8379C15.618 20.6305 15.7867 20.4631 15.9941 20.4639L16.8022 20.4672C17.0096 20.468 17.177 20.6368 17.1762 20.8441C17.1754 21.0515 17.0066 21.2189 16.7992 21.2181L15.9911 21.2149C15.7837 21.214 15.6163 21.0453 15.6171 20.8379Z" fill="#FBB3A5"/>
<ellipse cx="18.5944" cy="20.0094" rx="0.645943" ry="0.5" transform="rotate(-89.7708 18.5944 20.0094)" fill="#1A2F5D"/>
<ellipse cx="14.2301" cy="19.9933" rx="0.645943" ry="0.5" transform="rotate(-89.7708 14.2301 19.9933)" fill="#1A2F5D"/>
<path d="M19.4946 19.8083C19.4581 19.8084 19.4223 19.7991 19.3905 19.7812C18.8927 19.4944 18.2804 19.4915 17.7799 19.7737C17.6788 19.814 17.5635 19.7726 17.5111 19.6773C17.4586 19.5819 17.4855 19.4624 17.5737 19.3987C18.204 19.0438 18.9748 19.0477 19.6015 19.409C19.6872 19.4568 19.7296 19.5567 19.7044 19.6516C19.6792 19.7465 19.5928 19.8122 19.4946 19.8112V19.8083Z" fill="#1A2F5D"/>
<path d="M15.1353 19.7925C15.0987 19.7923 15.0628 19.7826 15.0312 19.7643C14.5331 19.4785 13.9214 19.4756 13.4206 19.7568C13.3532 19.8001 13.2673 19.8023 13.1978 19.7625C13.1283 19.7227 13.0867 19.6475 13.09 19.5674C13.0933 19.4874 13.1409 19.4158 13.2134 19.3818C13.8441 19.0273 14.6148 19.0308 15.2422 19.3912C15.3273 19.4396 15.3692 19.5393 15.3441 19.634C15.319 19.7286 15.2332 19.7945 15.1353 19.7943V19.7925Z" fill="#1A2F5D"/>
<path d="M19.8035 18.8963C19.7773 18.8962 19.7513 18.8915 19.7267 18.8823C18.994 18.6046 18.1856 18.6009 17.4504 18.872C17.3786 18.8989 17.2978 18.8855 17.2385 18.8368C17.1793 18.788 17.1505 18.7114 17.1631 18.6357C17.1756 18.56 17.2276 18.4967 17.2995 18.4698C18.1331 18.1609 19.0505 18.1649 19.8814 18.481C19.9784 18.518 20.0351 18.6191 20.016 18.7212C19.9968 18.8233 19.9074 18.897 19.8035 18.8963Z" fill="#A75C37"/>
<path d="M15.4441 18.8804C15.4178 18.8804 15.3918 18.8756 15.3672 18.8663C14.6348 18.5874 13.8259 18.5837 13.091 18.856C13.018 18.8875 12.9337 18.8762 12.8715 18.8268C12.8093 18.7774 12.7794 18.6978 12.7935 18.6197C12.8076 18.5415 12.8636 18.4774 12.9391 18.4529C13.773 18.144 14.6907 18.148 15.5219 18.4642C15.6181 18.502 15.6738 18.6028 15.6549 18.7044C15.6359 18.806 15.5475 18.8798 15.4441 18.8804Z" fill="#A75C37"/>
<path d="M15.1147 21.9084H17.6891C17.7247 21.9084 17.7588 21.9226 17.7839 21.9477C17.809 21.9729 17.8232 22.007 17.8232 22.0425C17.8232 22.8256 17.1897 23.4612 16.4066 23.4638C15.6217 23.4638 14.9854 22.8274 14.9854 22.0425C14.9854 21.9685 15.0454 21.9084 15.1194 21.9084L15.1147 21.9084Z" fill="white"/>
<path d="M13.185 14.3643H19.6303C20.5946 14.3668 21.375 15.1493 21.375 16.1136V16.4446C21.375 17.0673 20.8727 17.5734 20.25 17.578H12.5719C12.2711 17.5783 11.9826 17.459 11.7698 17.2464C11.557 17.0338 11.4375 16.7453 11.4375 16.4446V16.1136C11.4375 15.1482 12.2196 14.3653 13.185 14.3643Z" fill="#A75C37"/>
<path d="M30.8434 6.04405H29.8524C29.1633 6.04405 28.6046 5.48539 28.6046 4.79624V3.8053C28.6046 3.50603 28.362 3.26343 28.0627 3.26343C27.7635 3.26343 27.5209 3.50603 27.5209 3.8053V4.79624C27.5209 5.12718 27.3894 5.44457 27.1554 5.67858C26.9214 5.91259 26.604 6.04405 26.273 6.04405H25.2821C24.9828 6.04405 24.7402 6.28666 24.7402 6.58593C24.7413 6.88431 24.9837 7.12551 25.2821 7.12499H26.273C26.6041 7.12499 26.9217 7.25658 27.1557 7.4908C27.3898 7.72501 27.5211 8.04264 27.5209 8.37374V9.36655C27.5206 9.51043 27.5776 9.6485 27.6792 9.75032C27.7809 9.85215 27.9189 9.90937 28.0627 9.90937C28.2066 9.90937 28.3446 9.85215 28.4462 9.75032C28.5479 9.6485 28.6049 9.51043 28.6046 9.36655V8.37655C28.6036 8.04496 28.7346 7.72661 28.9688 7.49179C29.2029 7.25697 29.5208 7.12499 29.8524 7.12499H30.8434C31.1426 7.12499 31.3852 6.88238 31.3852 6.58312C31.3837 6.28495 31.1415 6.04405 30.8434 6.04405Z" fill="white"/>
<path d="M7.72125 23.4581H6.73031C6.39921 23.4584 6.08158 23.327 5.84737 23.093C5.61316 22.8589 5.48156 22.5414 5.48156 22.2103V21.2194C5.48181 21.0756 5.4248 20.9376 5.32313 20.8359C5.22145 20.7343 5.08348 20.6772 4.93969 20.6775C4.64042 20.6775 4.39781 20.9201 4.39781 21.2194V22.2103C4.39781 22.8995 3.83915 23.4581 3.15 23.4581H2.15625C1.85808 23.4597 1.61718 23.7018 1.61719 24C1.61718 24.2982 1.85808 24.5403 2.15625 24.5419H3.15C3.83915 24.5419 4.39781 25.1005 4.39781 25.7897V26.7806C4.39781 27.0799 4.64042 27.3225 4.93969 27.3225C5.08348 27.3227 5.22145 27.2657 5.32313 27.1641C5.4248 27.0624 5.48181 26.9244 5.48156 26.7806V25.7897C5.48156 25.4586 5.61316 25.141 5.84737 24.907C6.08158 24.673 6.39921 24.5416 6.73031 24.5419H7.72125C8.02052 24.5419 8.26312 24.2993 8.26312 24C8.26312 23.7007 8.02052 23.4581 7.72125 23.4581Z" fill="#F9EAA5"/>
<path d="M44.6893 19.3762H43.928C43.3978 19.3762 42.968 18.9464 42.968 18.4162V17.655C42.9683 17.5444 42.9245 17.4383 42.8464 17.36C42.7683 17.2818 42.6623 17.2378 42.5518 17.2378C42.3214 17.2378 42.1346 17.4246 42.1346 17.655V18.4162C42.1346 18.9461 41.7053 19.3757 41.1755 19.3762H40.4143C40.3037 19.376 40.1976 19.4197 40.1193 19.4978C40.0411 19.5759 39.9971 19.6819 39.9971 19.7925C39.9971 19.903 40.0411 20.0091 40.1193 20.0871C40.1976 20.1652 40.3037 20.209 40.4143 20.2087H41.1755C41.43 20.2087 41.6741 20.3099 41.854 20.49C42.0339 20.67 42.1348 20.9142 42.1346 21.1687V21.93C42.1346 22.1604 42.3214 22.3472 42.5518 22.3472C42.6623 22.3472 42.7683 22.3032 42.8464 22.2249C42.9245 22.1467 42.9683 22.0405 42.968 21.93V21.1687C42.9678 20.914 43.0688 20.6697 43.2489 20.4896C43.429 20.3095 43.6733 20.2085 43.928 20.2087H44.6893C44.9191 20.2087 45.1055 20.0224 45.1055 19.7925C45.1055 19.5626 44.9191 19.3762 44.6893 19.3762Z" fill="#F9EAA5"/>
</svg>
