<svg width="48" height="48" viewBox="0 0 48 48" fill="none" xmlns="http://www.w3.org/2000/svg">
<circle cx="24" cy="24" r="24" fill="#0989D8"/>
<circle cx="24.0005" cy="24" r="19.5825" fill="#29A3FB"/>
<path d="M24.0002 22.6369C27.6514 22.6403 30.7553 25.3041 31.3127 28.9125C31.4144 29.5613 31.9741 30.039 32.6308 30.0375H42.5571C42.9288 30.037 43.2836 29.8818 43.5363 29.6092C43.789 29.3365 43.9169 28.971 43.8892 28.6003C43.1533 18.2578 34.5302 10.0959 24.0002 10.0959C13.4702 10.0959 4.84706 18.2578 4.11112 28.5994C4.08351 28.9701 4.21139 29.3356 4.4641 29.6082C4.71681 29.8808 5.07157 30.036 5.44331 30.0366H15.3667C16.0235 30.038 16.5831 29.5604 16.6849 28.9116C17.2428 25.3025 20.3483 22.6388 24.0002 22.6369Z" fill="#E52E44"/>
<path d="M24.0004 22.6369C27.6516 22.6403 30.7555 25.3041 31.3129 28.9125C31.4146 29.5613 31.9743 30.039 32.631 30.0375H41.8504C41.8504 20.1778 33.8591 12.1875 24.0004 12.1875C14.1416 12.1875 6.15039 20.1778 6.15039 30.0366H15.367C16.0237 30.038 16.5833 29.5604 16.6851 28.9116C17.243 25.3025 20.3485 22.6388 24.0004 22.6369Z" fill="#FF8B00"/>
<path d="M24.0004 22.6368C27.6515 22.6402 30.7555 25.304 31.3129 28.9124C31.4146 29.5612 31.9743 30.0389 32.631 30.0374H39.756C39.756 21.3332 32.6998 14.2771 23.9957 14.2771C15.2915 14.2771 8.23535 21.3332 8.23535 30.0374H15.3604C16.0171 30.0389 16.5767 29.5612 16.6785 28.9124C17.2364 25.3005 20.3456 22.6356 24.0004 22.6368Z" fill="#F9C744"/>
<path d="M23.9996 22.6369C27.6508 22.6404 30.7547 25.3042 31.3121 28.9126C31.4139 29.5614 31.9735 30.039 32.6302 30.0376H37.6674C37.6674 22.4875 31.5469 16.3669 23.9968 16.3669C16.4467 16.3669 10.3262 22.4875 10.3262 30.0376H15.3634C16.0201 30.039 16.5797 29.5614 16.6815 28.9126C17.2392 25.3021 20.3463 22.6376 23.9996 22.6369Z" fill="#15BE79"/>
<path d="M24 22.6368C27.6511 22.6402 30.7551 25.304 31.3125 28.9124C31.4142 29.5612 31.9739 30.0388 32.6306 30.0374H35.5771C35.4635 23.7242 30.3133 18.6658 23.999 18.6658C17.6848 18.6658 12.5345 23.7242 12.4209 30.0374H15.3675C16.0242 30.0388 16.5838 29.5612 16.6856 28.9124C17.2431 25.3033 20.3481 22.6393 24 22.6368Z" fill="#0391E8"/>
<path d="M24 22.6368C27.6511 22.6402 30.7551 25.3041 31.3125 28.9124C31.4142 29.5612 31.9739 30.0389 32.6306 30.0374H33.4875C33.4875 24.7961 29.2385 20.5471 23.9971 20.5471C18.7558 20.5471 14.5068 24.7961 14.5068 30.0374H15.3637C16.0204 30.0389 16.5801 29.5612 16.6818 28.9124C17.2395 25.3019 20.3467 22.6375 24 22.6368Z" fill="#AA0DD1"/>
<path d="M37.9252 18.8691C37.1752 19.0566 35.7596 18.4669 34.4424 17.3438C33.1946 16.2797 32.4033 15.0572 32.3799 14.2734C34.5202 15.4144 36.4067 16.9778 37.9252 18.8691Z" fill="#FFAC52"/>
<path d="M40.8901 24.2457C40.3276 24.2372 39.5129 23.4179 38.9307 22.2385C38.3907 21.1454 38.2201 20.0822 38.462 19.5713C39.4987 21.0003 40.3171 22.5757 40.8901 24.2457Z" fill="#FFAC52"/>
<path d="M38.3029 18.6479C38.2042 18.7592 38.073 18.8366 37.9279 18.8691C36.41 16.9789 34.5245 15.4161 32.3854 14.2754C32.3695 14.0828 32.4275 13.8914 32.5476 13.7401C33.0894 13.1054 34.8172 13.6894 36.4063 15.0451C37.9954 16.4007 38.8438 18.0132 38.3029 18.6479Z" fill="#FB626E"/>
<path d="M41.1122 24.1987C41.0431 24.2323 40.9668 24.2484 40.89 24.2456C40.317 22.5757 39.4987 21.0003 38.4619 19.5712C38.5097 19.4605 38.5937 19.3693 38.7 19.3125C39.2391 19.0462 40.216 19.9237 40.8816 21.2728C41.5472 22.6219 41.6513 23.9325 41.1122 24.1987Z" fill="#FB626E"/>
</svg>
