<svg width="48" height="48" viewBox="0 0 48 48" fill="none" xmlns="http://www.w3.org/2000/svg">
<circle cx="24" cy="24" r="24" fill="#E2A427"/>
<circle cx="24.0004" cy="23.9999" r="20.3578" fill="#EFB732"/>
<path d="M20.0166 28.7813C24.0102 28.7821 27.4059 31.6965 28.0125 35.6438C28.1236 36.353 28.7356 36.875 29.4535 36.8728H40.3004C40.7065 36.8721 41.0941 36.7025 41.3702 36.4047C41.6464 36.1069 41.7862 35.7076 41.7563 35.3025C40.951 24 31.5254 15.0769 20.0166 15.0769V28.7813Z" fill="#E52E44"/>
<path d="M20.0166 28.7813C24.0102 28.7821 27.4059 31.6965 28.0125 35.6438C28.1236 36.353 28.7356 36.875 29.4535 36.8728H39.5279C39.5279 26.0972 30.7922 17.3616 20.0166 17.3616V28.7813Z" fill="#FF8B00"/>
<path d="M20.0166 28.7812C24.0102 28.7821 27.4059 31.6965 28.0125 35.6437C28.1236 36.3529 28.7356 36.875 29.4535 36.8728H37.2432C37.2432 27.3591 29.5304 19.6462 20.0166 19.6462V28.7812Z" fill="#F9C744"/>
<path d="M20.0166 28.7812C24.0102 28.7821 27.4059 31.6965 28.0125 35.6437C28.1236 36.3529 28.7356 36.8749 29.4535 36.8728H34.9585C34.9585 32.91 33.3842 29.1094 30.5821 26.3073C27.78 23.5051 23.9794 21.9309 20.0166 21.9309L20.0166 28.7812Z" fill="#15BE79"/>
<path d="M20.0166 28.7812C24.0102 28.7821 27.4059 31.6965 28.0125 35.6437C28.1236 36.3529 28.7356 36.875 29.4535 36.8728H32.6738C32.6738 33.5162 31.3404 30.297 28.9669 27.9235C26.5934 25.55 23.3742 24.2166 20.0175 24.2166L20.0166 28.7812Z" fill="#0391E8"/>
<path d="M20.0166 28.7811C24.0102 28.782 27.4059 31.6964 28.0125 35.6436C28.1236 36.3528 28.7356 36.8749 29.4535 36.8727H30.391C30.391 34.1213 29.2979 31.4827 27.3523 29.5372C25.4067 27.5918 22.768 26.499 20.0166 26.4993L20.0166 28.7811Z" fill="#AA0DD1"/>
<path d="M35.2379 24.6666C34.4138 24.8757 32.8707 24.227 31.4307 22.9988C30.0666 21.8363 29.2022 20.4995 29.1807 19.6426C31.5186 20.8906 33.5792 22.5997 35.2379 24.6666Z" fill="#FFAC52"/>
<path d="M38.4776 30.5427C37.8682 30.5333 36.9719 29.638 36.3363 28.349C35.7457 27.1537 35.5591 25.9883 35.8235 25.4333C36.9568 26.9954 37.8513 28.7174 38.4776 30.5427Z" fill="#FFAC52"/>
<path d="M35.6493 24.4248C35.5408 24.5465 35.3969 24.6311 35.2378 24.6667C33.5788 22.5996 31.5179 20.8905 29.1796 19.6426C29.1621 19.4322 29.2255 19.223 29.3568 19.0576C29.9493 18.3639 31.8374 19.0023 33.5756 20.4845C35.3137 21.9667 36.2409 23.731 35.6493 24.4248Z" fill="#FB626E"/>
<path d="M38.7191 30.4914C38.6437 30.5285 38.5603 30.5462 38.4763 30.5429C37.85 28.7176 36.9555 26.9956 35.8223 25.4336C35.8749 25.3131 35.9667 25.2139 36.0829 25.1523C36.6716 24.8607 37.7395 25.8198 38.467 27.2945C39.1945 28.7692 39.3107 30.2007 38.7191 30.4914Z" fill="#FB626E"/>
<path d="M28.454 21.599L19.439 30.614C19.1225 30.9306 18.6932 31.1085 18.2456 31.1085C17.7979 31.1085 17.3686 30.9306 17.0522 30.614L9.56996 23.1328L8.03715 21.599C5.64144 19.2036 5.64123 15.3196 8.03668 12.9239C10.4321 10.5282 14.3161 10.528 16.7118 12.9234L18.2456 14.4581L19.7812 12.9234C22.1769 10.528 26.0609 10.5282 28.4564 12.9239C30.8518 15.3196 30.8516 19.2036 28.4559 21.599H28.454Z" fill="#EA1B8C"/>
<path d="M28.4536 21.5991L21.1505 28.9022C20.834 29.2188 20.4047 29.3967 19.9571 29.3967C19.5094 29.3967 19.0801 29.2188 18.7636 28.9022L11.2814 21.421L9.74956 19.8872C7.68354 17.8213 7.36075 14.5852 8.978 12.1519C11.4113 10.5359 14.6463 10.8586 16.7124 12.9235L18.2461 14.4581L19.7808 12.9235C22.1765 10.528 26.0605 10.5282 28.456 12.9239C30.8514 15.3196 30.8512 19.2036 28.4555 21.5991H28.4536Z" fill="#F946A0"/>
<ellipse cx="26.0606" cy="14.0265" rx="1.55627" ry="2.57253" transform="rotate(-53.4166 26.0606 14.0265)" fill="#FF76C1"/>
<ellipse cx="28.5026" cy="17.7637" rx="0.983305" ry="1.62541" transform="rotate(-8.45426 28.5026 17.7637)" fill="#FF76C1"/>
</svg>
