<svg width="48" height="48" viewBox="0 0 48 48" fill="none" xmlns="http://www.w3.org/2000/svg">
<circle cx="24" cy="24" r="24" fill="#8D00AF"/>
<circle cx="24.0005" cy="24" r="19.5825" fill="#AA0DD1"/>
<rect x="11.335" y="10.0884" width="0.65625" height="31.2769" rx="0.328125" fill="#F4E6F4"/>
<path d="M11.9912 11.9409H24.5621C25.7358 11.9409 26.8866 12.2654 27.8875 12.8784C28.8879 13.4915 30.0385 13.8159 31.2118 13.8159H39.0118V31.3125H31.2118C30.0386 31.3119 28.8882 30.9874 27.8875 30.375C26.8866 29.7619 25.7358 29.4375 24.5621 29.4375H11.9996L11.9912 11.9409Z" fill="#40BFFF"/>
<path d="M11.9912 29.4374H24.5621C25.7358 29.4374 26.8866 29.7619 27.8875 30.3749C28.8882 30.9874 30.0386 31.3118 31.2118 31.3124H39.0118V27.8118H31.2118C30.0385 27.8118 28.8879 27.4873 27.8875 26.8743C26.8866 26.2612 25.7358 25.9368 24.5621 25.9368H11.9996L11.9912 29.4374Z" fill="#40BFFF"/>
<path d="M11.9912 25.937H24.5621C25.7358 25.937 26.8866 26.2614 27.8875 26.8745C28.8879 27.4875 30.0385 27.812 31.2118 27.812H39.0118V24.3132H31.2118C30.0385 24.3132 28.8879 23.9888 27.8875 23.3757C26.8866 22.7627 25.7358 22.4383 24.5621 22.4382H11.9996L11.9912 25.937Z" fill="#FF88AD"/>
<path d="M11.9912 22.4381H24.5621C25.7358 22.4381 26.8866 22.7626 27.8875 23.3756C28.8879 23.9887 30.0385 24.3131 31.2118 24.3131H39.0118V20.8125H31.2118C30.0385 20.8125 28.8879 20.488 27.8875 19.875C26.8864 19.2624 25.7357 18.938 24.5621 18.9375H11.9996L11.9912 22.4381Z" fill="#F9F2F9"/>
<path d="M11.9912 18.9375H24.5621C25.7357 18.938 26.8864 19.2624 27.8875 19.875C28.8879 20.4881 30.0385 20.8125 31.2118 20.8125H39.0118V17.3147H31.2118C30.0385 17.3147 28.8879 16.9902 27.8875 16.3772C26.8866 15.7642 25.7358 15.4397 24.5621 15.4397H11.9996L11.9912 18.9375Z" fill="#FF88AD"/>
<path d="M27.9082 26.8894V30.3882C28.903 30.992 30.0444 31.3114 31.2082 31.3116H39.0082V27.8128H31.2082C30.0444 27.8127 28.903 27.4933 27.9082 26.8894Z" fill="#29A3FB"/>
<path d="M27.9082 23.3906V26.8894C28.903 27.4932 30.0444 27.8126 31.2082 27.8128H39.0082V24.3131H31.2082C30.0446 24.3128 28.9033 23.9938 27.9082 23.3906Z" fill="#FF7398"/>
<path d="M27.9082 19.8909V23.3906C28.9033 23.9937 30.0446 24.3128 31.2082 24.3131H39.0082V20.8124H31.2082C30.0446 20.8128 28.9032 20.4941 27.9082 19.8909L27.9082 19.8909Z" fill="#EBD9EA"/>
<path d="M27.9082 16.3921V19.8908C28.903 20.4947 30.0444 20.8141 31.2082 20.8143H39.0082V17.3155H31.2082C30.0444 17.3153 28.903 16.9959 27.9082 16.3921V16.3921Z" fill="#FF7398"/>
<path d="M27.9082 12.8926V16.3923C28.903 16.9961 30.0444 17.3155 31.2082 17.3157H39.0082V13.816H31.2082C30.0444 13.8158 28.903 13.4964 27.9082 12.8926V12.8926Z" fill="#29A3FB"/>
<path d="M16.2757 15.4397C16.0769 14.1272 15.5191 13.1851 14.861 13.1851C14.2029 13.1851 13.6422 14.1301 13.4463 15.4397H16.2757Z" fill="#83DCFF"/>
<path d="M13.3692 16.4934C13.3692 17.4619 13.5567 18.3338 13.8567 18.9384H15.8667C16.1657 18.3338 16.3542 17.4619 16.3542 16.4934C16.3544 16.1408 16.3283 15.7885 16.2763 15.4397H13.447C13.3945 15.7885 13.3685 16.1407 13.3692 16.4934Z" fill="#FFB3D2"/>
<path d="M13.8564 18.9375C14.1218 19.4737 14.4743 19.8 14.8614 19.8C15.2486 19.8 15.6011 19.4737 15.8664 18.9375H13.8564Z" fill="white"/>
<path d="M15.9268 22.4381C15.8077 21.3787 15.3755 20.595 14.8608 20.595C14.3461 20.595 13.9139 21.3787 13.7939 22.4381H15.9268Z" fill="white"/>
<path d="M13.7945 22.4382C13.7724 22.6353 13.7615 22.8334 13.7617 23.0317C13.7617 24.377 14.2539 25.4692 14.8614 25.4692C15.4689 25.4692 15.9611 24.3779 15.9611 23.0317C15.9611 22.8334 15.9498 22.6352 15.9273 22.4382L13.7945 22.4382Z" fill="#FFB3D2"/>
</svg>
