<svg width="48" height="48" viewBox="0 0 48 48" fill="none" xmlns="http://www.w3.org/2000/svg">
<circle cx="24" cy="24" r="24" fill="#15BE79"/>
<circle cx="24.0004" cy="23.9999" r="20.3578" fill="#33DB92"/>
<path d="M30.7161 30.5193V42.1818C30.7176 43.1035 30.3522 43.988 29.7005 44.6399C29.0488 45.2917 28.1645 45.6574 27.2427 45.6562H22.5205C21.5997 45.6562 20.7167 45.2901 20.0661 44.6385C19.4154 43.987 19.0505 43.1035 19.0518 42.1827V30.5193L30.7161 30.5193Z" fill="#C17E62"/>
<path d="M30.7159 30.6206V42.1819C30.7174 43.1036 30.352 43.9881 29.7003 44.6399C29.0486 45.2918 28.1642 45.6575 27.2425 45.6562H26.7803V31.3706L29.47 31.1831L30.7159 30.6206Z" fill="#A26D5A"/>
<path d="M31.9336 33.1753H17.828V32.6287C17.828 31.9339 18.3913 31.3706 19.0861 31.3706H30.6755C31.3703 31.3706 31.9336 31.9339 31.9336 32.6287V33.1753L31.9336 33.1753Z" fill="#FA4654"/>
<path d="M31.9336 34.981H17.828V33.1763H31.9336L31.9336 34.981Z" fill="#FF8B00"/>
<path d="M31.9336 36.7856H17.828V34.981H31.9336L31.9336 36.7856Z" fill="#F9C744"/>
<path d="M31.9336 38.5903H17.828V36.7856H31.9336L31.9336 38.5903Z" fill="#15BE79"/>
<path d="M31.9336 40.396H17.828V38.5913H31.9336L31.9336 40.396Z" fill="#0391E8"/>
<path d="M30.6755 42.2007H19.087C18.3922 42.2007 17.8289 41.6374 17.8289 40.9426V40.396H31.9336V40.9426C31.9336 41.6374 31.3703 42.2007 30.6755 42.2007V42.2007Z" fill="#AA0DD1"/>
<path d="M26.7803 33.1754H31.9365V32.6251C31.9365 32.2912 31.8038 31.9711 31.5677 31.7351C31.3315 31.4991 31.0113 31.3667 30.6775 31.3669H26.7803V33.1754Z" fill="#E52E44"/>
<path d="M26.7803 33.1753H31.9346V34.98H26.7803V33.1753Z" fill="#EA792E"/>
<path d="M26.7803 34.98H31.9346V36.7847H26.7803V34.98Z" fill="#E2A427"/>
<path d="M26.7803 36.7856H31.9346V38.5903H26.7803V36.7856Z" fill="#14A36D"/>
<path d="M26.7803 38.5903H31.9346V40.395H26.7803V38.5903Z" fill="#007CBA"/>
<path d="M30.6756 42.2007H26.7803V40.396H31.9365V40.9426C31.9365 41.2767 31.8036 41.5972 31.567 41.8332C31.3305 42.0692 31.0097 42.2014 30.6756 42.2007Z" fill="#8D00AF"/>
<path d="M18.7968 34.9809H20.9802C21.0312 34.7234 21.0566 34.4615 21.0561 34.199C21.0579 33.8532 21.0125 33.5088 20.9211 33.1753H18.8586C18.7669 33.5088 18.7212 33.8532 18.7227 34.199C18.7216 34.4615 18.7464 34.7234 18.7968 34.9809Z" fill="#FFAC52"/>
<path d="M20.9209 33.1752C20.725 32.4805 20.3359 32.0071 19.8896 32.0071C19.4434 32.0071 19.0534 32.4758 18.8584 33.1752H20.9209Z" fill="#FB626E"/>
<path d="M18.7969 34.981C18.9647 35.806 19.3903 36.3919 19.8881 36.3919C20.3859 36.3919 20.8125 35.806 20.9803 34.981H18.7969Z" fill="#FBD9A3"/>
<path d="M20.6919 38.5903V38.5744C20.6919 37.7419 20.3328 37.0669 19.8884 37.0669C19.4441 37.0669 19.0859 37.7419 19.0859 38.5744V38.5903H20.6919Z" fill="#33DB92"/>
<path d="M19.0859 38.5903C19.0859 39.4153 19.4478 40.0819 19.8884 40.0819C20.3291 40.0819 20.6872 39.4153 20.6919 38.5903H19.0859Z" fill="#22AEF4"/>
<path d="M33.7141 17.4104V26.3223C33.7141 28.3191 31.4537 31.3707 28.6647 31.3707H19.0469V17.4104H33.7141Z" fill="#A26D5A"/>
<path d="M29.845 21.3496C30.9406 21.3496 31.8287 22.2378 31.8287 23.3334V26.3221C31.8287 28.319 29.5675 31.3705 26.7803 31.3705H19.0469V21.3496L29.845 21.3496Z" fill="#C17E62"/>
<ellipse cx="30.0089" cy="24.4904" rx="1.14562" ry="2.58094" fill="#D48D77"/>
<ellipse cx="28.1906" cy="29.0358" rx="1.9017" ry="0.84395" transform="rotate(-37.3625 28.1906 29.0358)" fill="#D48D77"/>
<path d="M31.3691 10.9041C31.1203 10.9034 30.8731 10.943 30.6369 11.0212C29.6745 11.3373 29.0241 12.2358 29.0244 13.2487V17.8716C29.0244 19.166 30.0737 20.2153 31.3682 20.2153C32.6626 20.2153 33.7119 19.166 33.7119 17.8716V13.2487C33.7122 12.6271 33.4655 12.0309 33.0261 11.5912C32.5867 11.1515 31.9907 10.9043 31.3691 10.9041Z" fill="#C17E62"/>
<path d="M31.3689 10.9041C31.1201 10.9034 30.8729 10.943 30.6367 11.0212V15.0647C30.6359 15.8172 30.9964 16.5244 31.606 16.9657C32.2155 17.407 32.9999 17.5288 33.7145 17.2931V13.2487C33.7148 12.6267 33.4677 12.03 33.0277 11.5902C32.5878 11.1504 31.991 10.9036 31.3689 10.9041Z" fill="#D48D77"/>
<path d="M32.0626 16.1795H30.6714C30.4164 16.1795 30.1718 16.2808 29.9916 16.4612C29.8113 16.6416 29.7102 16.8863 29.7104 17.1413V17.8388C29.6961 18.4409 30.0091 19.0035 30.5283 19.3087C31.0474 19.614 31.6912 19.614 32.2104 19.3087C32.7295 19.0035 33.0426 18.4409 33.0282 17.8388V17.1413C33.0282 16.8856 32.9264 16.6403 32.7452 16.4598C32.564 16.2794 32.3184 16.1785 32.0626 16.1795Z" fill="#F5B890"/>
<path d="M33.0284 17.1413V17.4085H32.9824C32.1211 17.4086 31.3292 16.9363 30.9199 16.1785H32.0627C32.3187 16.1775 32.5644 16.2785 32.7456 16.4592C32.9269 16.6399 33.0286 16.8854 33.0284 17.1413Z" fill="#FBD9A3"/>
<ellipse cx="32.754" cy="12.9432" rx="0.560625" ry="1.15875" fill="#EEA47D"/>
<ellipse cx="32.7539" cy="15.1884" rx="0.3975" ry="0.823125" fill="#EEA47D"/>
<path d="M26.6796 8.969C26.1312 8.96829 25.6001 9.16081 25.1796 9.51275C25.1239 9.55731 25.071 9.60521 25.0212 9.65618C24.5807 10.0952 24.3334 10.6918 24.334 11.3137V17.8715C24.334 19.1659 25.3833 20.2152 26.6777 20.2152C27.9722 20.2152 29.0215 19.1659 29.0215 17.8715V11.3137C29.022 10.0196 27.9737 8.97003 26.6796 8.969Z" fill="#C17E62"/>
<path d="M26.6794 8.969C26.4303 8.96828 26.1827 9.00786 25.9463 9.08619V15.0646C25.9455 15.8172 26.306 16.5243 26.9155 16.9656C27.5251 17.407 28.3094 17.5288 29.0241 17.2931V11.3137C29.0244 10.6918 28.7774 10.0952 28.3376 9.65547C27.8979 9.2157 27.3013 8.96875 26.6794 8.969Z" fill="#D48D77"/>
<path d="M27.375 16.1794H25.9819C25.4506 16.1794 25.02 16.6101 25.02 17.1413V17.8388C25.0057 18.4409 25.3187 19.0035 25.8379 19.3087C26.357 19.6139 27.0008 19.6139 27.52 19.3087C28.0391 19.0035 28.3521 18.4409 28.3378 17.8388V17.1413C28.3381 16.886 28.2367 16.641 28.056 16.4606C27.8754 16.2801 27.6303 16.1789 27.375 16.1794Z" fill="#F5B890"/>
<path d="M28.3379 17.1413V17.4085H28.292C27.4307 17.4086 26.6388 16.9363 26.2295 16.1785H27.3751C27.6306 16.178 27.8758 16.2792 28.0565 16.4599C28.2372 16.6406 28.3384 16.8858 28.3379 17.1413Z" fill="#FBD9A3"/>
<path d="M25.1796 9.5127V17.2939C24.9436 17.3714 24.6968 17.4107 24.4484 17.4102C24.4109 17.4102 24.3715 17.4102 24.334 17.4102V11.3164C24.3326 10.6935 24.58 10.0959 25.0212 9.65613C25.071 9.60516 25.124 9.55726 25.1796 9.5127Z" fill="#A26D5A"/>
<ellipse cx="27.9695" cy="11.3288" rx="0.68625" ry="1.42031" fill="#EEA47D"/>
<ellipse cx="27.9689" cy="14.0803" rx="0.4875" ry="1.00781" fill="#EEA47D"/>
<path d="M21.9892 7.03126C21.7404 7.03046 21.4931 7.07004 21.257 7.14845C20.2946 7.46405 19.6438 8.36217 19.6436 9.37501V17.8678C19.6436 19.1622 20.6929 20.2116 21.9873 20.2116C23.2817 20.2116 24.3311 19.1622 24.3311 17.8678V9.37501C24.3311 8.08133 23.2829 7.0323 21.9892 7.03126Z" fill="#C17E62"/>
<path d="M21.989 7.03126C21.7402 7.03046 21.493 7.07004 21.2568 7.14845V15.0619C21.2561 15.8142 21.6165 16.5211 22.2258 16.9624C22.8351 17.4037 23.6192 17.5256 24.3337 17.2903V9.37501C24.3337 8.75325 24.0867 8.15696 23.6469 7.7174C23.2072 7.27783 22.6108 7.03101 21.989 7.03126Z" fill="#D48D77"/>
<path d="M23.6488 17.1413V17.8388C23.6488 18.7553 22.9059 19.4982 21.9895 19.4982C21.073 19.4982 20.3301 18.7553 20.3301 17.8388V17.1413C20.3301 16.6101 20.7607 16.1794 21.292 16.1794H22.6879C23.2188 16.18 23.6488 16.6105 23.6488 17.1413Z" fill="#F5B890"/>
<path d="M23.6484 17.1413V17.4085H23.6016C22.7403 17.4086 21.9483 16.9363 21.5391 16.1785H22.6875C22.9426 16.1787 23.1872 16.2803 23.3674 16.4609C23.5476 16.6414 23.6487 16.8862 23.6484 17.1413Z" fill="#FBD9A3"/>
<path d="M20.3767 11.3139V17.2932C20.14 17.3707 19.8926 17.4099 19.6436 17.4095V9.6123C20.1113 10.0547 20.3764 10.6701 20.3767 11.3139Z" fill="#A26D5A"/>
<ellipse cx="23.3142" cy="9.7023" rx="0.68625" ry="1.42031" fill="#EEA47D"/>
<ellipse cx="23.3137" cy="12.4539" rx="0.4875" ry="1.00781" fill="#EEA47D"/>
<path d="M17.2988 8.969C17.05 8.96827 16.8027 9.00784 16.5666 9.08619C15.6042 9.40223 14.9538 10.3008 14.9541 11.3137V17.8715C14.9541 19.1659 16.0034 20.2153 17.2979 20.2153C18.5923 20.2153 19.6416 19.1659 19.6416 17.8715V11.3137C19.6419 10.6921 19.3952 10.0958 18.9558 9.65614C18.5164 9.21642 17.9204 8.96925 17.2988 8.969Z" fill="#C17E62"/>
<path d="M17.2986 8.969C17.0498 8.96827 16.8025 9.00784 16.5664 9.08619V15.0646C16.5657 15.8169 16.9261 16.5239 17.5354 16.9651C18.1447 17.4064 18.9287 17.5284 19.6433 17.2931V11.3137C19.6435 10.6918 19.3966 10.0952 18.9568 9.65547C18.517 9.2157 17.9205 8.96876 17.2986 8.969Z" fill="#D48D77"/>
<path d="M18.0003 16.1794H16.6015C16.0703 16.1794 15.6396 16.6101 15.6396 17.1413V17.8388C15.6396 18.7553 16.3826 19.4982 17.299 19.4982C18.2155 19.4982 18.9584 18.7553 18.9584 17.8388V17.1413C18.9584 16.6116 18.53 16.1815 18.0003 16.1794Z" fill="#F5B890"/>
<path d="M17.9998 16.1794H16.8467C17.256 16.9373 18.0479 17.4095 18.9092 17.4094H18.9561V17.1423C18.9566 16.6129 18.5292 16.1825 17.9998 16.1794Z" fill="#FBD9A3"/>
<ellipse cx="18.4724" cy="11.3288" rx="0.68625" ry="1.42031" fill="#EEA47D"/>
<ellipse cx="18.4729" cy="14.0803" rx="0.4875" ry="1.00781" fill="#EEA47D"/>
<path d="M23.7362 28.0313C23.5709 28.3919 23.3426 28.7201 23.0622 29.0007L21.6747 30.3882C21.0459 31.0171 20.1931 31.3705 19.3037 31.3705C18.4144 31.3705 17.5615 31.0171 16.9328 30.3882L12.9747 26.431C11.666 25.1213 11.666 22.9989 12.9747 21.6891L14.3622 20.3016C14.6437 20.0188 14.974 19.7892 15.3372 19.6238C16.611 19.0401 18.1136 19.3105 19.104 20.3016L23.0622 24.2588C24.0538 25.2516 24.3227 26.7566 23.7362 28.0313Z" fill="#C17E62"/>
<path d="M24.0401 26.6841C24.0241 27.5865 23.2962 28.3139 22.3939 28.3295C21.4857 28.3453 20.6101 27.991 19.9686 27.3479L16.0123 23.3907C15.0211 22.4003 14.7504 20.8979 15.3336 19.6238C16.6074 19.0401 18.11 19.3105 19.1004 20.3016L23.0623 24.2588C23.7039 24.901 24.0569 25.7765 24.0401 26.6841Z" fill="#A26D5A"/>
<path d="M25.8516 17.2501C25.4908 16.3697 24.6337 15.7948 23.6822 15.7951H19.8929C19.8713 15.7951 19.8507 15.7951 19.8291 15.7951C19.2084 15.7696 18.6054 16.0056 18.1669 16.4457L12.1538 22.4579C11.2834 23.3297 11.2834 24.7417 12.1538 25.6135L12.3141 25.7748C13.1865 26.6448 14.5983 26.6448 15.4707 25.7748L20.761 20.4826H23.6822C24.9767 20.4826 26.026 19.4332 26.026 18.1388C26.0268 17.834 25.9676 17.532 25.8516 17.2501Z" fill="#C17E62"/>
<path d="M25.3399 16.4794C25.2875 16.426 25.2321 16.3756 25.1739 16.3285C24.7548 15.9808 24.227 15.791 23.6824 15.7922H19.893H19.8283C19.2078 15.7679 18.6055 16.0041 18.167 16.4438L12.1539 22.456C11.5173 23.0915 11.3253 24.0475 11.6674 24.8794C12.4996 25.2204 13.4552 25.0282 14.0908 24.3919L19.7861 18.6966C19.8205 18.6966 19.8561 18.6966 19.893 18.6966H23.6824C24.6317 18.6983 25.4883 18.1271 25.8517 17.2501C25.7344 16.9615 25.5604 16.6994 25.3399 16.4794Z" fill="#D48D77"/>
<path d="M25.0942 16.4061C25.0814 16.3407 25.059 16.2775 25.0277 16.2186C24.634 15.9412 24.164 15.7928 23.6824 15.794H20.8642C20.8086 15.8643 20.7777 15.9509 20.7761 16.0405V17.0127C20.7751 17.0233 20.7751 17.034 20.7761 17.0446C20.8061 17.4008 21.3564 17.683 22.0286 17.683H22.9389C24.1352 17.683 25.1046 17.1646 25.1046 16.5261C25.1049 16.4859 25.1015 16.4457 25.0942 16.4061Z" fill="#FBD9A3"/>
<ellipse cx="18.0136" cy="18.0987" rx="1.89463" ry="0.686229" transform="rotate(-45.8914 18.0136 18.0987)" fill="#EEA47D"/>
<ellipse cx="15.4584" cy="20.7366" rx="1.34527" ry="0.5" transform="rotate(-45.8914 15.4584 20.7366)" fill="#EEA47D"/>
</svg>
