<svg width="48" height="48" viewBox="0 0 48 48" fill="none" xmlns="http://www.w3.org/2000/svg">
<path d="M48 24C48 37.2544 37.2544 48 24 48C11.9569 48 1.98375 39.1275 0.263438 27.5625C0.087748 26.3831 -0.000305561 25.1924 7.96646e-07 24C7.96646e-07 10.7456 10.7456 0 24 0C36.7922 0 47.25 10.0088 47.9606 22.6219C47.9869 23.0775 48 23.5378 48 24Z" fill="#29A3FB"/>
<path d="M48.0002 24.0001C48.0002 37.2545 37.2546 48.0001 24.0002 48.0001C11.9571 48.0001 1.98398 39.1276 0.263672 27.5626C0.405234 27.512 0.544922 27.4548 0.684609 27.3929C1.61555 26.9757 2.42836 26.3232 3.3743 25.9426C4.66263 25.4318 6.10098 25.4531 7.37367 26.0017C8.5868 26.5314 9.64148 27.542 10.969 27.6189C12.0621 27.6826 13.098 27.0714 13.863 26.2885C14.628 25.5057 15.1877 24.5504 15.844 23.6814C16.7599 22.4832 17.913 21.421 19.3127 20.8689C20.7124 20.3167 22.3943 20.3279 23.6637 21.1426C24.8468 21.9029 25.5265 23.2192 26.4377 24.2889C27.7334 25.8104 29.7799 26.8942 31.7215 26.4132C33.2909 26.0242 34.6371 24.6751 36.2468 24.8298C37.8565 24.9845 38.9215 26.5754 40.3559 27.3451C42.243 28.3576 44.8559 27.6854 46.0212 25.8892C46.698 24.841 47.0909 23.371 47.9534 22.6239C47.9871 23.0776 48.0002 23.5379 48.0002 24.0001Z" fill="#0989D8"/>
<path d="M41.8291 26.8126C41.8292 28.3702 41.1726 29.8556 40.0207 30.9039L31.7454 38.432L28.7116 41.192C27.2116 42.5598 24.7957 41.4929 24.7957 39.4604V33.5251C24.7958 32.2427 24.256 31.0196 23.3085 30.1554C22.3611 29.2913 21.0935 28.866 19.8166 28.9839L18.1338 29.1385L19.2485 26.3082L24.3372 13.3914L26.7185 13.7251C33.0713 14.6193 38.5491 18.6471 41.2966 24.4445C41.6477 25.1845 41.8296 25.9935 41.8291 26.8126Z" fill="#F9F2F9"/>
<path d="M41.8296 26.8126C41.8298 28.3702 41.1732 29.8556 40.0212 30.9039L31.7459 38.432C30.902 38.0595 30.3606 37.2207 30.3687 36.2982V30.3629C30.3689 29.0806 29.8291 27.8574 28.8816 26.9932C27.9341 26.1291 26.6666 25.7038 25.3896 25.8217L19.249 26.3082L24.3378 13.3914L26.719 13.7251C33.0719 14.6193 38.5497 18.6471 41.2971 24.4445C41.6483 25.1845 41.8302 25.9935 41.8296 26.8126Z" fill="#F9EAA5"/>
<ellipse cx="33.6064" cy="18.4473" rx="1.49887" ry="3.60049" transform="rotate(-54.8953 33.6064 18.4473)" fill="#FFF8DC"/>
<ellipse cx="38.5542" cy="22.7318" rx="0.91125" ry="2.18906" transform="rotate(-36.8699 38.5542 22.7318)" fill="#FFF8DC"/>
<path d="M28.4399 26.162L25.0733 28.3679C24.2843 28.885 23.2739 28.9229 22.4483 28.4664C21.6612 28.0312 20.7155 27.9902 19.8936 28.3557L18.1311 29.1385L17.7102 30.5448C17.4577 31.385 16.8544 32.0751 16.0555 32.4376L14.879 32.971C13.3215 33.6778 11.4818 33.1907 10.4783 31.8057L9.92895 31.0473C8.5987 29.211 8.89786 26.6617 10.6171 25.1832L24.3374 13.3914L29.2499 18.3029C30.3352 19.3858 30.8742 20.9004 30.717 22.4254C30.5598 23.9504 29.7232 25.3232 28.4399 26.162Z" fill="#EBD9EA"/>
<path d="M27.8344 24.8007L24.4688 27.0067C23.6798 27.5238 22.6694 27.5616 21.8438 27.1051C21.0566 26.6699 20.111 26.629 19.2891 26.9945L17.5313 27.7773L17.1104 29.1835C16.8579 30.0253 16.2535 30.7166 15.4529 31.0792L14.2763 31.6126C12.7189 32.3194 10.8792 31.8322 9.87569 30.4473L9.32632 29.6889C9.29444 29.6448 9.2635 29.6007 9.23257 29.5557C8.82952 27.9543 9.36596 26.2626 10.6182 25.186L24.3376 13.3914L29.2501 18.3029C29.5145 18.5666 29.749 18.8587 29.9494 19.1739C30.5453 21.3099 29.6898 23.586 27.8344 24.8007Z" fill="#F9F2F9"/>
<ellipse cx="17.5893" cy="20.4543" rx="2.42206" ry="0.742002" transform="rotate(-40.6634 17.5893 20.4543)" fill="white"/>
<ellipse cx="14.0525" cy="23.4947" rx="1.61721" ry="0.5" transform="rotate(-40.6634 14.0525 23.4947)" fill="white"/>
<ellipse cx="28.6534" cy="21.3236" rx="2.07528" ry="0.86423" transform="rotate(-77.465 28.6534 21.3236)" fill="white"/>
<ellipse cx="26.8531" cy="24.4411" rx="1.26162" ry="0.524895" transform="rotate(-36.9501 26.8531 24.4411)" fill="white"/>
<path d="M10.7171 27.3139L12.203 25.8289C12.635 25.3998 13.3174 25.3554 13.8014 25.7249L13.9486 25.8383C14.1531 25.9958 14.259 26.2497 14.227 26.5058C14.1951 26.7619 14.0299 26.9819 13.793 27.0843L13.5877 27.178C12.837 27.5032 12.2268 28.0852 11.8664 28.8196C11.7573 29.0384 11.5458 29.1879 11.3032 29.2179C11.0605 29.2479 10.819 29.1543 10.6599 28.9686V28.963C10.2473 28.482 10.2722 27.7652 10.7171 27.3139Z" fill="#A583BB"/>
<path d="M19.615 21.2092L20.2956 21.9957C20.4076 22.1259 20.5714 22.2 20.7431 22.1982C20.9148 22.1964 21.077 22.1189 21.1862 21.9863L23.365 19.3557L19.9084 20.2632C19.7134 20.3141 19.5586 20.4622 19.4988 20.6546C19.4391 20.8471 19.4831 21.0568 19.615 21.2092Z" fill="#A583BB"/>
<path d="M27.4836 13.1344C27.4837 13.4598 27.4341 13.7832 27.3364 14.0935L26.7861 15.8438L24.3373 13.3913L23.0398 8.206C22.9158 7.70913 23.161 7.19398 23.6248 6.97694C23.7045 6.94047 23.7882 6.91372 23.8742 6.89725C24.4378 6.78756 24.9871 7.14404 25.1164 7.7035L25.4145 8.97663C25.5774 9.67439 25.9438 10.3081 26.4673 10.7973C27.1154 11.4018 27.4834 12.2482 27.4836 13.1344Z" fill="#C1B7D3"/>
<path d="M26.5836 13.1343C26.584 13.4596 26.5347 13.783 26.4373 14.0934L26.1026 15.1556L24.3373 13.3912L23.0398 8.20587C22.9158 7.709 23.161 7.19385 23.6248 6.97681C23.9238 7.11448 24.1422 7.38273 24.2164 7.70337L24.5136 8.97649C24.6768 9.67432 25.0435 10.308 25.5673 10.7971C26.2154 11.4016 26.5834 12.2481 26.5836 13.1343Z" fill="#EBD9EA"/>
<path d="M24.3372 13.3912L23.1484 8.63717C23.5672 8.53365 24.0003 8.74273 24.1797 9.13499L25.2738 11.5397C25.6652 12.4047 25.6305 13.4029 25.18 14.2387L24.3372 13.3912Z" fill="#FB626E"/>
<path d="M24.3375 13.3911L22.11 11.9361C20.1087 10.6284 17.4888 10.7774 15.6488 12.3036C14.1485 13.5488 13.1683 15.3102 12.9009 17.2414L12.6141 19.3218C12.4303 20.6472 11.3259 21.6521 9.98906 21.7105L7.125 21.8352L12 23.9999L24.3375 13.3911Z" fill="#F9EAA5"/>
<ellipse cx="17.9666" cy="12.4438" rx="2.07531" ry="0.864244" transform="rotate(-16.0241 17.9666 12.4438)" fill="#FFF8DC"/>
<ellipse cx="14.8817" cy="14.4697" rx="1.25644" ry="0.522738" transform="rotate(-56.4695 14.8817 14.4697)" fill="#FFF8DC"/>
<path d="M20.5545 16.6416L17.5732 19.2048L11.0398 8.53133C10.9312 8.35169 10.9727 8.11941 11.1367 7.98841C11.3007 7.85741 11.5364 7.86829 11.6876 8.01383L20.5545 16.6416Z" fill="#FA4654"/>
<path d="M14.4939 10.7438L13.0961 11.8904L11.9561 10.0276L12.9329 9.2251L14.4939 10.7438Z" fill="#FF8B00"/>
<path d="M16.0535 12.2615L14.2366 13.753L13.0957 11.8902L14.4935 10.7437L16.0535 12.2615Z" fill="#F9C744"/>
<path d="M17.6142 13.7802L15.3773 15.6168L14.2373 13.753L16.0542 12.2615L17.6142 13.7802Z" fill="#15BE79"/>
<path d="M19.1738 15.299L16.5179 17.4796L15.377 15.6168L17.6138 13.7803L19.1738 15.299Z" fill="#0391E8"/>
<path d="M20.5545 16.6425L17.5732 19.2047L16.5176 17.4797L19.1735 15.2991L20.5545 16.6425Z" fill="#AA0DD1"/>
<path d="M15.0776 13.0631L15.8079 12.4631C15.7591 12.4021 15.7085 12.3402 15.656 12.2756C15.0513 11.5715 14.3988 11.1402 14.1991 11.3118C13.9994 11.4834 14.3276 12.1931 14.9322 12.8971C14.9801 12.9562 15.0288 13.0096 15.0776 13.0631Z" fill="#FBD9A3"/>
<path d="M15.8084 12.4631L15.0781 13.0631C15.6406 13.6678 16.2031 14.0213 16.3906 13.8638C16.5781 13.7063 16.3128 13.1025 15.8084 12.4631Z" fill="#33DB92"/>
<path d="M17.4966 14.6953C17.3582 14.5321 17.2008 14.3861 17.0278 14.2603L16.5938 14.6156C16.693 14.8094 16.8154 14.9904 16.9584 15.1546C17.3381 15.5971 17.7666 15.8531 17.9138 15.7256C18.0609 15.5981 17.8763 15.1368 17.4966 14.6953Z" fill="#22AEF4"/>
<path d="M17.0296 14.2604C16.814 14.1086 16.6283 14.0486 16.5402 14.1236C16.4521 14.1986 16.483 14.3851 16.5965 14.6157L17.0296 14.2604Z" fill="#33DB92"/>
</svg>
