<svg width="48" height="48" viewBox="0 0 48 48" fill="none" xmlns="http://www.w3.org/2000/svg">
<path d="M48 24C48 37.2544 37.2544 48 24 48C11.9569 48 1.98375 39.1275 0.263438 27.5625C0.0877507 26.3831 -0.000280578 25.1924 6.71778e-07 24C6.71778e-07 10.7456 10.7456 0 24 0C36.7922 0 47.25 10.0088 47.9606 22.6219C47.9869 23.0775 48 23.5378 48 24Z" fill="#FA4654"/>
<path d="M48.0002 24.0001C48.0002 37.2545 37.2546 48.0001 24.0002 48.0001C11.9571 48.0001 1.98398 39.1276 0.263672 27.5626C0.405234 27.512 0.544922 27.4548 0.684609 27.3929C1.61555 26.9757 2.42836 26.3232 3.3743 25.9426C4.66261 25.4319 6.10102 25.453 7.37367 26.0017C8.5868 26.5314 9.64148 27.542 10.969 27.6189C12.0621 27.6826 13.098 27.0714 13.863 26.2885C14.628 25.5057 15.1877 24.5504 15.844 23.6814C16.7599 22.4832 17.913 21.421 19.3127 20.8689C20.7124 20.3167 22.3943 20.3279 23.6637 21.1426C24.8468 21.9029 25.5265 23.2192 26.4377 24.2889C27.7334 25.8104 29.7799 26.8942 31.7215 26.4132C33.2909 26.0242 34.6371 24.6751 36.2468 24.8298C37.8565 24.9845 38.9215 26.5754 40.3559 27.3451C42.243 28.3576 44.8559 27.6854 46.0212 25.8892C46.698 24.841 47.0909 23.371 47.9534 22.6239C47.9871 23.0776 48.0002 23.5379 48.0002 24.0001Z" fill="#E52E44"/>
<path d="M36.2641 10.9687V29.6315C36.2635 35.6767 31.363 40.5772 25.3179 40.5777H22.6816C16.6364 40.5772 11.7359 35.6768 11.7354 29.6315V10.9687C11.7345 9.80935 12.6736 8.86894 13.8328 8.868C14.275 8.86763 14.706 9.00703 15.0644 9.26616L15.1394 9.3196L16.6394 10.4015C17.3736 10.932 18.3653 10.932 19.0994 10.4015L19.1725 10.349L22.7707 7.74928C23.5058 7.21931 24.4974 7.21931 25.2325 7.74928L25.3047 7.80178L28.9038 10.4015C29.6379 10.932 30.6296 10.932 31.3638 10.4015L31.4379 10.348L32.9379 9.26616C33.6975 8.71228 34.7335 8.73422 35.4691 9.3196C35.9763 9.7156 36.2702 10.3252 36.2641 10.9687Z" fill="#F39E22"/>
<path d="M36.2644 10.9688V29.6317C36.2639 35.6768 31.3634 40.5773 25.3182 40.5779H25.2891C19.2442 40.5769 14.3444 35.6766 14.3438 29.6317V10.9688C14.3384 10.3249 14.6333 9.71521 15.1416 9.31978L16.6416 10.4017C17.3758 10.9322 18.3675 10.9322 19.1016 10.4017L19.1748 10.3492L19.2479 10.4017C19.982 10.9322 20.9737 10.9322 21.7079 10.4017L25.3032 7.80103L28.9023 10.4007C29.6364 10.9312 30.6281 10.9312 31.3623 10.4007L31.4363 10.3473L31.5094 10.4007C32.2436 10.9312 33.2353 10.9312 33.9694 10.4007L35.4694 9.31884C35.9769 9.71503 36.2708 10.3251 36.2644 10.9688Z" fill="#F9C744"/>
<ellipse cx="34.6457" cy="16.0228" rx="1.14375" ry="3.97125" fill="#FAD98F"/>
<ellipse cx="34.6455" cy="23.4393" rx="0.7725" ry="2.68219" fill="#FAD98F"/>
<path d="M32.286 15.7388V28.3463C32.286 32.431 28.9748 35.7422 24.8901 35.7422H23.1088C19.0241 35.7422 15.7129 32.431 15.7129 28.3463V15.7388C15.7127 14.9548 16.348 14.3193 17.132 14.3191C17.4303 14.319 17.721 14.413 17.9629 14.5875L19.0241 15.3544C19.5201 15.7134 20.1904 15.7134 20.6863 15.3544L23.1679 13.5628C23.6639 13.2053 24.3331 13.2053 24.8291 13.5628L27.3107 15.3544C27.8066 15.7134 28.477 15.7134 28.9729 15.3544L30.0341 14.5875C30.669 14.1278 31.5565 14.2697 32.0162 14.9046C32.1919 15.1472 32.2864 15.4393 32.286 15.7388Z" fill="#8C4735"/>
<path d="M15.7148 16.501H32.2861V19.7082H15.7148V16.501Z" fill="#FA4654"/>
<path d="M15.7148 19.708H32.2861V22.9152H15.7148V19.708Z" fill="#FF8B00"/>
<path d="M15.7129 22.9143H32.286V26.1215H15.7129V22.9143Z" fill="#F9C744"/>
<path d="M32.2861 26.1216V28.3463C32.2864 28.6749 32.2648 29.0031 32.2214 29.3288H15.7795C15.7361 29.0031 15.7146 28.6749 15.7148 28.3463V26.1216H32.2861Z" fill="#15BE79"/>
<path d="M32.2213 29.3287C32.0682 30.4788 31.6447 31.5763 30.9856 32.5312H17.0169C16.3573 31.5752 15.9338 30.4764 15.7812 29.325L32.2213 29.3287Z" fill="#0391E8"/>
<path d="M30.9854 32.5312C29.607 34.5396 27.3274 35.7394 24.8916 35.7384H23.1104C20.6745 35.7394 18.3949 34.5396 17.0166 32.5312H30.9854Z" fill="#AA0DD1"/>
<path d="M30.7876 19.708C30.5345 18.5596 30.0657 17.7871 29.5276 17.7871C28.9895 17.7871 28.5217 18.5596 28.2686 19.708H30.7876Z" fill="#FB626E"/>
<path d="M28.0704 21.6562C28.0698 22.0775 28.0964 22.4984 28.1501 22.9162H30.9054C30.9592 22.4984 30.9858 22.0775 30.9851 21.6562C30.9887 21.0023 30.9223 20.3498 30.7873 19.71H28.2683C28.1333 20.3498 28.067 21.0023 28.0704 21.6562Z" fill="#FFAC52"/>
<path d="M28.1504 22.9143C28.3473 24.4312 28.8891 25.5215 29.5276 25.5215C30.166 25.5215 30.7088 24.4312 30.9057 22.9143L28.1504 22.9143Z" fill="#FAD98F"/>
<path d="M30.4555 29.3286C30.4761 29.1186 30.4883 28.8974 30.4883 28.6724C30.4883 27.2661 30.058 26.1243 29.5274 26.1243C28.9968 26.1243 28.5674 27.2652 28.5674 28.6724C28.5672 28.8916 28.5782 29.1106 28.6002 29.3286H30.4555Z" fill="#33DB92"/>
<path d="M28.6006 29.3289C28.7103 30.4164 29.0834 31.217 29.5278 31.217C29.9721 31.217 30.3462 30.4164 30.4559 29.3289H28.6006Z" fill="#22AEF4"/>
<path d="M44.3257 18.6732H43.3348C42.6456 18.6732 42.087 18.1145 42.087 17.4254C42.087 17.4251 42.087 17.4247 42.087 17.4244V16.4344C42.0876 16.1352 41.8453 15.8922 41.5461 15.8916C41.5458 15.8916 41.5454 15.8916 41.5451 15.8916C41.2453 15.8916 41.0023 16.1346 41.0023 16.4344V17.4244C41.0029 18.1136 40.4446 18.6726 39.7554 18.6732C39.7551 18.6732 39.7548 18.6732 39.7545 18.6732H38.7636C38.4643 18.6732 38.2217 18.9158 38.2217 19.215V19.2188C38.2217 19.518 38.4643 19.7607 38.7636 19.7607H39.7545C40.4436 19.7607 41.0023 20.3193 41.0023 21.0085V21.9994C41.0023 22.2987 41.2449 22.5413 41.5442 22.5413H41.5451C41.8444 22.5413 42.087 22.2987 42.087 21.9994V21.0047C42.087 20.3156 42.6456 19.7569 43.3348 19.7569H44.3257C44.625 19.7569 44.8676 19.5143 44.8676 19.215C44.8676 18.9158 44.625 18.6732 44.3257 18.6732Z" fill="white"/>
<path d="M9.15195 23.4581H8.16102C7.47186 23.4581 6.9132 22.8995 6.9132 22.2103V21.2194C6.9132 20.9215 6.67292 20.6796 6.37508 20.6775C6.07583 20.6775 5.8332 20.9201 5.8332 21.2194V22.2103C5.8332 22.8995 5.27455 23.4581 4.58539 23.4581H3.5907C3.29145 23.4581 3.04883 23.7007 3.04883 24C3.04883 24.2992 3.29145 24.5419 3.5907 24.5419H4.58164C5.2708 24.5419 5.82945 25.1005 5.82945 25.7897V26.7806C5.82945 27.0799 6.07208 27.3225 6.37133 27.3225H6.37508C6.67433 27.3225 6.91695 27.0799 6.91695 26.7806V25.7897C6.91695 25.1005 7.47561 24.5419 8.16477 24.5419H9.15195C9.4512 24.5424 9.6942 24.3002 9.69477 24.0009C9.69477 24.0006 9.69477 24.0003 9.69477 24C9.69477 23.7007 9.45214 23.4581 9.15289 23.4581C9.15261 23.4581 9.15223 23.4581 9.15195 23.4581Z" fill="#FF9FB4"/>
<path d="M39.8037 37.0406H39.0415C38.5118 37.0406 38.0824 36.6112 38.0824 36.0815V35.3193C38.0824 35.0895 37.8961 34.9031 37.6662 34.9031C37.6659 34.9031 37.6655 34.9031 37.6652 34.9031C37.4354 34.9031 37.249 35.0895 37.249 35.3193V36.0815C37.249 36.6112 36.8196 37.0406 36.2899 37.0406H35.5315C35.3016 37.0406 35.1152 37.227 35.1152 37.4568C35.1142 37.6867 35.2997 37.8739 35.5296 37.875H35.5315H36.2937C36.8234 37.875 37.2527 38.3043 37.2527 38.834V39.5962C37.2527 39.8261 37.4391 40.0125 37.669 40.0125C37.8989 40.013 38.0856 39.827 38.0862 39.5971C38.0862 39.5969 38.0862 39.5965 38.0862 39.5962V38.834C38.0862 38.3058 38.5133 37.877 39.0415 37.875H39.8037C40.0336 37.875 40.2199 37.6886 40.2199 37.4587C40.2199 37.4584 40.2199 37.458 40.2199 37.4578C40.2205 37.2279 40.0345 37.0411 39.8046 37.0406C39.8043 37.0406 39.804 37.0406 39.8037 37.0406Z" fill="#FF9FB4"/>
</svg>
