<svg width="64" height="64" viewBox="0 0 64 64" fill="none" xmlns="http://www.w3.org/2000/svg">
<path fill-rule="evenodd" clip-rule="evenodd" d="M0.949861 9.53548C1.31981 4.92753 4.92753 1.31981 9.53548 0.949861C15.2019 0.494929 23.3535 0 32 0C40.508 0 48.9178 0.479199 54.9281 0.92797C59.9278 1.30128 63.7406 5.43332 63.82 10.4463C63.9089 16.0575 64 23.8065 64 32C64 40.3697 63.7206 48.4601 63.4541 54.273C63.2252 59.2662 59.2662 63.2252 54.273 63.4541C48.4601 63.7206 40.3697 64 32 64C23.6303 64 15.5399 63.7206 9.72699 63.4541C4.73379 63.2252 0.774805 59.2662 0.545894 54.273C0.279404 48.4601 0 40.3697 0 32C0 23.3535 0.494929 15.2019 0.949861 9.53548Z" fill="#FEE4CB"/>
<path d="M24.5233 8.00013C15.0893 8.05019 10.3529 24.275 8.58526 32.615C6.8176 40.9551 8.66466 58.0642 22.3755 55.7946C24.5918 55.4278 25.1091 55.3526 26.936 54.4355C30.1877 52.8033 34.036 51.6548 37.5138 51.3081C38.9398 51.166 40.743 50.6952 41.6973 50.5236C49.3497 49.1475 57.1593 41.7336 54.795 33.9653C53.0195 28.1314 47.8174 25.783 42.6077 26.1059C39.7466 26.2832 36.7017 24.6048 36.0911 22.7508C34.1023 16.7117 31.815 7.9615 24.5233 8.00013Z" fill="url(#paint0_linear)"/>
<path d="M22.8594 17.4454H16.9531C15.7105 17.4454 14.7031 18.4528 14.7031 19.6954V47.0471C14.7031 48.2897 15.7105 49.2971 16.9531 49.2971H40.8594C42.102 49.2971 43.1094 48.2897 43.1094 47.0471V19.6954C43.1094 18.4528 42.102 17.4454 40.8594 17.4454H34.8125H22.8594Z" fill="white"/>
<path d="M34.8638 16.25H30.9392C30.693 15.3582 29.8764 14.7031 28.9062 14.7031C27.9361 14.7031 27.1195 15.3582 26.8733 16.25H22.9473C22.5104 16.25 22.1562 16.6042 22.1562 17.041V20.3281H35.6548V17.041C35.6548 16.6042 35.3006 16.25 34.8638 16.25Z" fill="#FEE4CB"/>
<rect x="19.3438" y="40.5781" width="3.375" height="3.375" fill="#FEE4CB"/>
<path d="M44.2162 42.1252C42.1287 42.1252 40.4365 40.433 40.4365 38.3455V34.9534H47.996V38.3455C47.996 40.433 46.3038 42.1252 44.2162 42.1252Z" fill="#FBA800"/>
<rect x="40.4365" y="34.9883" width="7.5593" height="2.84358" fill="#FFEFD5"/>
<path d="M44.2162 42.1251C46.3037 42.1251 47.9959 43.8173 47.9959 45.9048V49.297H40.4365V45.9048C40.4365 43.8173 42.1287 42.1251 44.2162 42.1251Z" fill="#FFEFD5"/>
<rect x="40.4365" y="46.4886" width="7.5593" height="2.84365" fill="#FBA800"/>
<path d="M43.1094 30.9454C42.9245 30.9454 42.743 31.0206 42.6123 31.1515C42.4815 31.2823 42.4062 31.4636 42.4062 31.6486C42.4062 31.8335 42.4814 32.0149 42.6123 32.1456C42.743 32.2764 42.9237 32.3517 43.1094 32.3517C43.2943 32.3517 43.4757 32.2765 43.6064 32.1456C43.7372 32.0149 43.8125 31.8335 43.8125 31.6486C43.8125 31.4636 43.7373 31.2822 43.6064 31.1515C43.4757 31.0206 43.2943 30.9454 43.1094 30.9454Z" fill="#0F1049"/>
<path d="M39.0319 24.6875H32.3994C32.0111 24.6875 31.6963 25.0024 31.6963 25.3906C31.6963 25.7789 32.0111 26.0938 32.3994 26.0938H39.0319C39.4202 26.0938 39.735 25.7789 39.735 25.3906C39.735 25.0024 39.4202 24.6875 39.0319 24.6875Z" fill="#0F1049"/>
<path d="M28.9062 26.0939C29.0912 26.0939 29.2726 26.0186 29.4033 25.8878C29.5341 25.7571 29.6094 25.5757 29.6094 25.3907C29.6094 25.2058 29.5341 25.0244 29.4033 24.8936C29.2726 24.7629 29.0912 24.6876 28.9062 24.6876C28.7213 24.6876 28.5399 24.7628 28.4091 24.8936C28.2784 25.0245 28.2031 25.2058 28.2031 25.3907C28.2031 25.5757 28.2783 25.7571 28.4091 25.8878C28.5399 26.0186 28.7213 26.0939 28.9062 26.0939Z" fill="#0F1049"/>
<path d="M28.9053 17.0236C28.7203 17.0236 28.5389 17.0987 28.4082 17.2296C28.2774 17.3604 28.2021 17.5418 28.2021 17.7267C28.2021 17.9116 28.2773 18.093 28.4082 18.2237C28.5389 18.3545 28.7203 18.4298 28.9053 18.4298C29.0902 18.4298 29.2716 18.3546 29.4023 18.2237C29.5331 18.093 29.6084 17.9116 29.6084 17.7267C29.6084 17.5418 29.5332 17.3604 29.4023 17.2296C29.2716 17.0987 29.0902 17.0236 28.9053 17.0236Z" fill="black"/>
<path d="M39.6641 28.7656C39.6641 28.3774 39.3492 28.0625 38.9609 28.0625H28.9062C28.518 28.0625 28.2031 28.3774 28.2031 28.7656C28.2031 29.1539 28.518 29.4688 28.9062 29.4688H38.9609C39.3492 29.4688 39.6641 29.1539 39.6641 28.7656Z" fill="#0F1049"/>
<path d="M36.875 32.2812H28.9062C28.518 32.2812 28.2031 32.5961 28.2031 32.9844C28.2031 33.3726 28.518 33.6875 28.9062 33.6875H36.875C37.2632 33.6875 37.5781 33.3726 37.5781 32.9844C37.5781 32.5961 37.2632 32.2812 36.875 32.2812Z" fill="#0F1049"/>
<path d="M36.875 35.6562H28.9062C28.518 35.6562 28.2031 35.9711 28.2031 36.3594C28.2031 36.7476 28.518 37.0625 28.9062 37.0625H36.875C37.2632 37.0625 37.5781 36.7476 37.5781 36.3594C37.5781 35.9711 37.2632 35.6562 36.875 35.6562Z" fill="#0F1049"/>
<path d="M36.875 39.875H28.9062C28.518 39.875 28.2031 40.1899 28.2031 40.5781C28.2031 40.9664 28.518 41.2812 28.9062 41.2812H36.875C37.2632 41.2812 37.5781 40.9664 37.5781 40.5781C37.5781 40.1899 37.2632 39.875 36.875 39.875Z" fill="#0F1049"/>
<path d="M36.875 43.25H28.9062C28.518 43.25 28.2031 43.5649 28.2031 43.9531C28.2031 44.3414 28.518 44.6562 28.9062 44.6562H36.875C37.2632 44.6562 37.5781 44.3414 37.5781 43.9531C37.5781 43.5649 37.2632 43.25 36.875 43.25Z" fill="#0F1049"/>
<path d="M24.4354 32.3583C24.1608 32.0839 23.7158 32.0838 23.441 32.3583L20.4342 35.365L19.508 34.4387C19.2334 34.1643 18.7883 34.1642 18.5135 34.4387C18.239 34.7133 18.239 35.1585 18.5135 35.4332L19.937 36.8567C20.0688 36.9885 20.2477 37.0626 20.4341 37.0626C20.6206 37.0626 20.7994 36.9885 20.9313 36.8567L24.4353 33.3528C24.71 33.0781 24.71 32.6329 24.4354 32.3583Z" fill="#0F1049"/>
<path d="M24.4354 24.5468C24.1608 24.2724 23.7158 24.2723 23.441 24.5468L20.4342 27.5535L19.508 26.6272C19.2333 26.3527 18.7883 26.3527 18.5135 26.6272C18.239 26.9018 18.239 27.347 18.5135 27.6217L19.937 29.0451C20.0743 29.1823 20.2542 29.251 20.4341 29.251C20.6141 29.251 20.794 29.1823 20.9313 29.0451L24.4353 25.5412C24.71 25.2666 24.71 24.8213 24.4354 24.5468Z" fill="#0F1049"/>
<path fill-rule="evenodd" clip-rule="evenodd" d="M18.6406 40.5781C18.6406 40.1899 18.9555 39.875 19.3438 39.875H22.7188C23.107 39.875 23.4219 40.1899 23.4219 40.5781V43.9531C23.4219 44.3414 23.107 44.6562 22.7188 44.6562H19.3438C18.9555 44.6562 18.6406 44.3414 18.6406 43.9531V40.5781ZM20.0469 43.25H22.0156V41.2812H20.0469V43.25Z" fill="#0F1049"/>
<path fill-rule="evenodd" clip-rule="evenodd" d="M48.6992 48.5939H49.2969C49.6851 48.5939 50 48.9087 50 49.297C50 49.6853 49.6851 50.0001 49.2969 50.0001H47.996H16.9531C15.3248 50.0001 14 48.6754 14 47.047V19.6954C14 18.067 15.3248 16.7423 16.9531 16.7423H21.4831C21.622 16.0611 22.2256 15.5469 22.9472 15.5469H26.3947C26.8656 14.6148 27.833 14 28.9062 14C29.9794 14 30.9468 14.6148 31.4177 15.5469H34.8637C35.5853 15.5469 36.189 16.0611 36.3278 16.7423H40.8594C42.4877 16.7423 43.8125 18.067 43.8125 19.6954V28.7656C43.8125 29.1539 43.4976 29.4688 43.1094 29.4688C42.7211 29.4688 42.4062 29.1539 42.4062 28.7656V19.6954C42.4062 18.8424 41.7123 18.1485 40.8594 18.1485H36.3579V20.3282C36.3579 20.7165 36.043 21.0313 35.6548 21.0313H22.1562C21.768 21.0313 21.4531 20.7165 21.4531 20.3282V18.1485H16.9531C16.1002 18.1485 15.4062 18.8424 15.4062 19.6954V47.047C15.4062 47.9 16.1002 48.5939 16.9531 48.5939H39.7335V45.9049C39.7335 44.3179 40.5631 42.922 41.8106 42.1251C40.5631 41.3283 39.7335 39.9324 39.7335 38.3454V35.6564H39.1357C38.7475 35.6564 38.4326 35.3415 38.4326 34.9533C38.4326 34.565 38.7475 34.2501 39.1357 34.2501H49.2969C49.6851 34.2501 50 34.565 50 34.9533C50 35.3415 49.6851 35.6564 49.2969 35.6564H48.6992V38.3454C48.6992 39.9324 47.8695 41.3283 46.622 42.1251C47.8695 42.922 48.6992 44.3179 48.6992 45.9049V48.5939ZM22.9473 16.9531C22.8988 16.9531 22.8594 16.9926 22.8594 17.0411V19.6251H34.9516V17.0411C34.9516 16.9926 34.9121 16.9531 34.8637 16.9531H30.9392C30.6229 16.9531 30.3455 16.742 30.2614 16.4372C30.0939 15.8302 29.5366 15.4062 28.9062 15.4062C28.2759 15.4062 27.7186 15.8302 27.5511 16.4372C27.4669 16.742 27.1896 16.9531 26.8733 16.9531H22.9473ZM47.2929 37.0937H41.1397V35.6565H47.2929V37.0937ZM44.2163 41.422C45.8608 41.422 47.2082 40.1249 47.289 38.5H41.1436C41.2244 40.1249 42.5718 41.422 44.2163 41.422ZM41.1436 45.7503C41.2244 44.1254 42.5718 42.8283 44.2163 42.8283C45.8608 42.8283 47.2082 44.1254 47.289 45.7503H41.1436ZM41.1397 47.1566V48.5939H47.2929V47.1566H41.1397Z" fill="#0F1049"/>
<defs>
<linearGradient id="paint0_linear" x1="7.12889" y1="30.6939" x2="31.2387" y2="64.2535" gradientUnits="userSpaceOnUse">
<stop stop-color="#FFCC9A"/>
<stop offset="1" stop-color="white" stop-opacity="0.01"/>
</linearGradient>
</defs>
</svg>
