<svg width="64" height="64" viewBox="0 0 64 64" fill="none" xmlns="http://www.w3.org/2000/svg">
<path fill-rule="evenodd" clip-rule="evenodd" d="M0.949861 9.53548C1.31981 4.92753 4.92753 1.31981 9.53548 0.949861C15.2019 0.494929 23.3535 0 32 0C40.508 0 48.9178 0.479199 54.9281 0.92797C59.9278 1.30128 63.7406 5.43332 63.82 10.4463C63.9089 16.0575 64 23.8065 64 32C64 40.3697 63.7206 48.4601 63.4541 54.273C63.2252 59.2662 59.2662 63.2252 54.273 63.4541C48.4601 63.7206 40.3697 64 32 64C23.6303 64 15.5399 63.7206 9.72699 63.4541C4.73379 63.2252 0.774805 59.2662 0.545894 54.273C0.279404 48.4601 0 40.3697 0 32C0 23.3535 0.494929 15.2019 0.949861 9.53548Z" fill="#FFD3E2"/>
<path d="M24.5233 8.00013C15.0893 8.05019 10.3529 24.275 8.58526 32.615C6.8176 40.9551 8.66466 58.0642 22.3755 55.7946C24.5918 55.4278 25.1091 55.3526 26.936 54.4355C30.1877 52.8033 34.036 51.6548 37.5138 51.3081C38.9398 51.166 40.743 50.6952 41.6973 50.5236C49.3497 49.1475 57.1593 41.7336 54.795 33.9653C53.0195 28.1314 47.8174 25.783 42.6077 26.1059C39.7466 26.2832 36.7017 24.6048 36.0911 22.7508C34.1023 16.7117 31.815 7.9615 24.5233 8.00013Z" fill="url(#paint0_linear)"/>
<path d="M49.2969 14.7031V37.625H14.7031V14.7031H49.2969Z" fill="#FBA800"/>
<path d="M49.2969 37.625H14.7031V41.8438H29.1875L27.7812 49.2969H36.2188L34.8125 41.8438H49.2969V37.625Z" fill="#FFD3E2"/>
<path d="M32 19.1328L20.75 24.0547L26.375 26.5156V31.7891C26.375 31.7891 29.544 33.1953 32 33.1953C34.456 33.1953 37.625 31.7891 37.625 31.7891V26.5156L43.25 24.0547L32 19.1328Z" fill="white"/>
<path d="M22.1562 30.3828V33.1953H19.3438V30.3828C19.3438 29.6059 19.973 28.9766 20.75 28.9766C21.527 28.9766 22.1562 29.6059 22.1562 30.3828Z" fill="#FFD3E2"/>
<circle cx="32" cy="44.6562" r="0.703125" fill="#0F1049"/>
<path fill-rule="evenodd" clip-rule="evenodd" d="M32.2818 18.4886L43.5318 23.4105C43.7878 23.5225 43.9531 23.7753 43.9531 24.0547C43.9531 24.3341 43.7878 24.587 43.5318 24.6989L38.3281 26.9755V31.7891C38.3281 32.0671 38.1643 32.319 37.9102 32.4318C37.7753 32.4917 34.5754 33.8985 32 33.8985C29.4246 33.8985 26.2247 32.4917 26.0898 32.4318C25.8357 32.319 25.6719 32.0671 25.6719 31.7891V26.9755L21.4531 25.1298V28.3944C22.2715 28.6847 22.8594 29.4663 22.8594 30.3828V33.1953C22.8594 33.5837 22.5445 33.8985 22.1562 33.8985H19.3438C18.9555 33.8985 18.6406 33.5837 18.6406 33.1953V30.3828C18.6406 29.4662 19.2285 28.6847 20.0469 28.3944V24.0547C20.0469 23.6127 20.4087 23.4394 20.4657 23.4121L20.4657 23.4121C20.47 23.41 20.4726 23.4088 20.4731 23.4083L31.7182 18.4886C31.8978 18.41 32.1022 18.41 32.2818 18.4886ZM20.0469 30.3828V32.4922H21.4531V30.3828C21.4531 29.9951 21.1377 29.6797 20.75 29.6797C20.3623 29.6797 20.0469 29.9951 20.0469 30.3828ZM36.9219 31.3196C36.009 31.6831 33.7772 32.4922 32 32.4922C30.2268 32.4922 27.9918 31.6826 27.0781 31.3193V27.5907L31.7182 29.6208C31.8977 29.6993 32.1022 29.6994 32.2818 29.6208L36.9219 27.5907V31.3196ZM22.5042 24.0547L32 28.2091L41.4958 24.0547L32 19.9003L22.5042 24.0547Z" fill="#0F1049"/>
<path d="M46.4844 28.2734H40.4375C40.0492 28.2734 39.7344 28.5882 39.7344 28.9766C39.7344 29.3649 40.0492 29.6797 40.4375 29.6797H46.4844C46.8726 29.6797 47.1875 29.3649 47.1875 28.9766C47.1875 28.5882 46.8726 28.2734 46.4844 28.2734Z" fill="#0F1049"/>
<path d="M46.4844 31.0859H40.4375C40.0492 31.0859 39.7344 31.4007 39.7344 31.7891C39.7344 32.1774 40.0492 32.4922 40.4375 32.4922H46.4844C46.8726 32.4922 47.1875 32.1774 47.1875 31.7891C47.1875 31.4007 46.8726 31.0859 46.4844 31.0859Z" fill="#0F1049"/>
<circle cx="32" cy="14.7031" r="0.703125" fill="#0F1049"/>
<path fill-rule="evenodd" clip-rule="evenodd" d="M49.2969 14H35.1641C34.7758 14 34.4609 14.3148 34.4609 14.7031C34.4609 15.0915 34.7758 15.4062 35.1641 15.4062H48.5938V36.9219H15.4062V15.4062H28.8359C29.2242 15.4062 29.5391 15.0915 29.5391 14.7031C29.5391 14.3148 29.2242 14 28.8359 14H14.7031C14.3149 14 14 14.3148 14 14.7031V41.8438C14 42.2321 14.3149 42.5469 14.7031 42.5469H28.3393L27.1984 48.5938H24.9688C24.5805 48.5938 24.2656 48.9085 24.2656 49.2969C24.2656 49.6852 24.5805 50 24.9688 50H39.0312C39.4195 50 39.7344 49.6852 39.7344 49.2969C39.7344 48.9085 39.4195 48.5938 39.0312 48.5938H36.8016L35.6607 42.5469H49.2969C49.6851 42.5469 50 42.2321 50 41.8438V14.7031C50 14.3148 49.6851 14 49.2969 14ZM28.6294 48.5938L29.7703 42.5469H34.2296L35.3705 48.5938H28.6294ZM15.4062 41.1406H48.5938V38.3281H15.4062V41.1406Z" fill="#0F1049"/>
<defs>
<linearGradient id="paint0_linear" x1="7.12889" y1="30.6939" x2="31.2387" y2="64.2535" gradientUnits="userSpaceOnUse">
<stop stop-color="#FFB0CB"/>
<stop offset="1" stop-color="white" stop-opacity="0.01"/>
</linearGradient>
</defs>
</svg>
