<svg width="64" height="64" viewBox="0 0 64 64" fill="none" xmlns="http://www.w3.org/2000/svg">
<path fill-rule="evenodd" clip-rule="evenodd" d="M0.949861 9.53548C1.31981 4.92753 4.92753 1.31981 9.53548 0.949861C15.2019 0.494929 23.3535 0 32 0C40.508 0 48.9178 0.479199 54.9281 0.92797C59.9278 1.30128 63.7406 5.43332 63.82 10.4463C63.9089 16.0575 64 23.8065 64 32C64 40.3222 63.7238 48.3682 63.4586 54.1737C63.2287 59.21 59.2055 63.1894 54.1684 63.4009C47.4754 63.682 37.9295 64 29 64C21.2962 64 14.5247 63.7633 9.57355 63.5178C4.64557 63.2735 0.779869 59.3479 0.55261 54.4191C0.28412 48.5961 0 40.4401 0 32C0 23.3535 0.494929 15.2019 0.949861 9.53548Z" fill="#BAF3D2"/>
<path d="M24.5238 8.00013C15.0897 8.05019 10.3534 24.275 8.58575 32.615C6.81809 40.9551 8.66515 58.0642 22.376 55.7946C24.5922 55.4278 25.1096 55.3526 26.9365 54.4355C30.1882 52.8033 34.0365 51.6548 37.5143 51.3081C38.9403 51.166 40.7435 50.6952 41.6978 50.5236C49.3502 49.1475 57.1598 41.7336 54.7955 33.9653C53.02 28.1314 47.8179 25.783 42.6082 26.1059C39.7471 26.2832 36.7022 24.6048 36.0916 22.7508C34.1028 16.7117 31.8155 7.9615 24.5238 8.00013Z" fill="url(#paint0_linear)"/>
<path d="M46.4844 49.2969H17.5156C15.9624 49.2969 14.7031 48.0376 14.7031 46.4844V35.9375C14.7031 34.3842 15.9624 33.125 17.5156 33.125H46.4844C48.0376 33.125 49.2969 34.3842 49.2969 35.9375V46.4844C49.2969 48.0376 48.0376 49.2969 46.4844 49.2969Z" fill="#FBA800"/>
<path d="M32 20.3281C29.5147 20.3281 27.5 22.3429 27.5 24.8281V28.625C27.5 31.1103 29.5147 33.125 32 33.125C34.4853 33.125 36.5 31.1103 36.5 28.625V24.8281C36.5 22.3429 34.4853 20.3281 32 20.3281Z" fill="white"/>
<path d="M27.5 26.875V28.625C27.5 31.1103 29.5147 33.125 32 33.125C34.4853 33.125 36.5 31.1103 36.5 28.625V26.875H27.5Z" fill="#BAF3D2"/>
<path d="M32.0176 28.9062C31.8327 28.9062 31.6513 28.9815 31.5205 29.1123C31.3897 29.243 31.3145 29.4245 31.3145 29.6094C31.3145 29.7943 31.3897 29.9757 31.5205 30.1065C31.6513 30.2373 31.8327 30.3125 32.0176 30.3125C32.2025 30.3125 32.3839 30.2373 32.5147 30.1065C32.6455 29.9757 32.7207 29.7943 32.7207 29.6094C32.7207 29.4245 32.6455 29.243 32.5147 29.1123C32.3839 28.9815 32.2025 28.9062 32.0176 28.9062Z" fill="#0F1049"/>
<path d="M38.6753 27.8988C38.7519 27.9255 38.8299 27.9382 38.9067 27.9382C39.1975 27.9382 39.4696 27.7564 39.5707 27.4662C39.8659 26.6187 40.0156 25.7311 40.0156 24.8281C40.0156 20.4083 36.4198 16.8125 32 16.8125C27.5802 16.8125 23.9844 20.4083 23.9844 24.8281C23.9844 25.714 24.1286 26.5856 24.4129 27.4186C24.5384 27.7861 24.9381 27.9823 25.3055 27.8568C25.6731 27.7313 25.8692 27.3317 25.7438 26.9642C25.5095 26.2778 25.3906 25.5591 25.3906 24.8281C25.3906 21.1837 28.3556 18.2188 32 18.2188C35.6444 18.2188 38.6094 21.1837 38.6094 24.8281C38.6094 25.5733 38.486 26.3052 38.2427 27.0035C38.1149 27.3702 38.3086 27.771 38.6753 27.8988Z" fill="#0F1049"/>
<path d="M22.5847 28.7954C22.9518 28.6687 23.1468 28.2685 23.0202 27.9014C22.6802 26.9156 22.5078 25.8815 22.5078 24.8281C22.5078 19.6329 26.7344 15.4062 31.9297 15.4062C37.1249 15.4062 41.3516 19.6329 41.3516 24.8281C41.3516 25.8815 41.1792 26.9156 40.8391 27.9014C40.7125 28.2685 40.9075 28.6687 41.2746 28.7954C41.3505 28.8216 41.4278 28.834 41.5039 28.834C41.7955 28.834 42.0681 28.651 42.1685 28.3599C42.5595 27.2262 42.7578 26.038 42.7578 24.8281C42.7578 18.8575 37.9003 14 31.9297 14C25.959 14 21.1016 18.8575 21.1016 24.8281C21.1016 26.038 21.2998 27.2262 21.6908 28.3599C21.8174 28.727 22.2176 28.9219 22.5847 28.7954Z" fill="#0F1049"/>
<path fill-rule="evenodd" clip-rule="evenodd" d="M46.4844 32.4219H35.5522C36.5671 31.4717 37.2031 30.1216 37.2031 28.625V24.8281C37.2031 21.9591 34.869 19.625 32 19.625C29.131 19.625 26.7969 21.9591 26.7969 24.8281V28.625C26.7969 30.1216 27.4329 31.4717 28.4478 32.4219H24.8281C24.4398 32.4219 24.125 32.7367 24.125 33.125C24.125 33.5133 24.4398 33.8281 24.8281 33.8281H31.2969V35.7969H29.3153C28.927 35.7969 28.6122 36.1117 28.6122 36.5C28.6122 36.8883 28.927 37.2031 29.3153 37.2031H34.6847C35.073 37.2031 35.3878 36.8883 35.3878 36.5C35.3878 36.1117 35.073 35.7969 34.6847 35.7969H32.7031V33.8281H46.4844C47.6475 33.8281 48.5938 34.7744 48.5938 35.9375V46.4844C48.5938 47.6475 47.6475 48.5938 46.4844 48.5938H17.5156C16.3525 48.5938 15.4062 47.6475 15.4062 46.4844V35.9375C15.4062 34.7744 16.3525 33.8281 17.5156 33.8281H18.5C18.8883 33.8281 19.2031 33.5133 19.2031 33.125C19.2031 32.7367 18.8883 32.4219 18.5 32.4219H17.5156C15.5771 32.4219 14 33.999 14 35.9375V46.4844C14 48.4229 15.5771 50 17.5156 50H46.4844C48.4229 50 50 48.4229 50 46.4844V35.9375C50 33.999 48.4229 32.4219 46.4844 32.4219ZM32 21.0312C34.0936 21.0312 35.7969 22.7345 35.7969 24.8281V26.1719H28.2031V24.8281C28.2031 22.7345 29.9064 21.0312 32 21.0312ZM28.2031 27.5781V28.625C28.2031 30.7186 29.9064 32.4219 32 32.4219C34.0936 32.4219 35.7969 30.7186 35.7969 28.625V27.5781H28.2031Z" fill="#0F1049"/>
<path d="M22.3569 39.1975C21.9686 39.1975 21.6538 39.5123 21.6538 39.9006V45.5209C21.6538 45.8635 21.9006 46.1561 22.2382 46.2139C22.2882 46.2225 22.3267 46.2291 22.9533 46.2291C23.2543 46.2291 23.6913 46.2276 24.3305 46.224C24.7189 46.2219 25.0319 45.9053 25.0297 45.517C25.0275 45.13 24.7132 44.8178 24.3267 44.8178C24.3253 44.8178 24.324 44.8178 24.3227 44.8178C23.8891 44.8203 23.4248 44.822 23.06 44.8224V39.9006C23.0601 39.5123 22.7453 39.1975 22.3569 39.1975Z" fill="#0F1049"/>
<path d="M28.6855 45.5256V39.9006C28.6855 39.5123 28.3708 39.1975 27.9824 39.1975C27.5941 39.1975 27.2793 39.5123 27.2793 39.9006V45.5256C27.2793 45.914 27.5941 46.2288 27.9824 46.2288C28.3708 46.2288 28.6855 45.914 28.6855 45.5256Z" fill="#0F1049"/>
<path d="M41.6434 40.6294C42.0318 40.6294 42.3466 40.3146 42.3466 39.9263C42.3466 39.5379 42.0318 39.2231 41.6434 39.2231H39.2949C38.9066 39.2231 38.5918 39.5379 38.5918 39.9263V45.4999C38.5918 45.8883 38.9066 46.2031 39.2949 46.2031H41.6434C42.0318 46.2031 42.3466 45.8883 42.3466 45.4999C42.3466 45.1116 42.0318 44.7968 41.6434 44.7968H39.998V43.4162H41.4702C41.8586 43.4162 42.1734 43.1014 42.1734 42.7131C42.1734 42.3248 41.8586 42.01 41.4702 42.01H39.998V40.6294H41.6434Z" fill="#0F1049"/>
<path d="M33.6816 46.2288H33.6873C34.0403 46.2264 34.3538 46.0002 34.4691 45.6612L36.3058 40.1327C36.4282 39.7642 36.2287 39.3662 35.8602 39.2437C35.4918 39.1213 35.0937 39.3208 34.9712 39.6893L33.6698 43.6072L32.3032 39.6701C32.1758 39.3032 31.7752 39.1092 31.4083 39.2364C31.0415 39.3638 30.8473 39.7644 30.9746 40.1313L32.8995 45.6767C33.017 46.0075 33.3309 46.2288 33.6816 46.2288Z" fill="#0F1049"/>
<path d="M21.6641 33.8281C21.849 33.8281 22.0304 33.7529 22.1612 33.6221C22.292 33.4913 22.3672 33.3099 22.3672 33.125C22.3672 32.9401 22.292 32.7587 22.1612 32.6279C22.0304 32.4971 21.849 32.4219 21.6641 32.4219C21.4791 32.4219 21.2977 32.4971 21.167 32.6279C21.0362 32.7587 20.9609 32.9401 20.9609 33.125C20.9609 33.3099 21.0362 33.4913 21.167 33.6221C21.2977 33.7529 21.4791 33.8281 21.6641 33.8281Z" fill="#0F1049"/>
<defs>
<linearGradient id="paint0_linear" x1="7.19796" y1="30.6446" x2="31.2087" y2="64.0663" gradientUnits="userSpaceOnUse">
<stop stop-color="#8DD7AC"/>
<stop offset="1" stop-color="#BAF3D2" stop-opacity="0.01"/>
</linearGradient>
</defs>
</svg>
