<svg width="22" height="19" viewBox="0 0 22 19" fill="none" xmlns="http://www.w3.org/2000/svg">
<path fill-rule="evenodd" clip-rule="evenodd" d="M20.0664 18.4314H1.93359C0.86741 18.4314 0 17.564 0 16.4978V2.31812C0 1.25193 0.86741 0.384521 1.93359 0.384521H20.0664C21.1326 0.384521 22 1.25193 22 2.31812V16.4978C22 17.564 21.1326 18.4314 20.0664 18.4314ZM1.93359 1.67358C1.5782 1.67358 1.28906 1.96272 1.28906 2.31812V16.4978C1.28906 16.8532 1.5782 17.1423 1.93359 17.1423H20.0664C20.4218 17.1423 20.7109 16.8532 20.7109 16.4978V2.31812C20.7109 1.96272 20.4218 1.67358 20.0664 1.67358H1.93359Z" fill="black"/>
<path fill-rule="evenodd" clip-rule="evenodd" d="M4.02102 14.5642H3.22266C2.8667 14.5642 2.57812 14.2756 2.57812 13.9197C2.57812 13.5637 2.8667 13.2751 3.22266 13.2751H4.02102C4.28708 12.525 5.0035 11.9861 5.84375 11.9861C6.684 11.9861 7.40042 12.525 7.66648 13.2751H18.7773C19.1333 13.2751 19.4219 13.5637 19.4219 13.9197C19.4219 14.2756 19.1333 14.5642 18.7773 14.5642H7.66648C7.40042 15.3144 6.684 15.8533 5.84375 15.8533C5.0035 15.8533 4.28708 15.3144 4.02102 14.5642ZM6.48828 13.9197C6.48828 13.5643 6.19914 13.2751 5.84375 13.2751C5.48836 13.2751 5.19922 13.5643 5.19922 13.9197C5.19922 14.2751 5.48836 14.5642 5.84375 14.5642C6.19914 14.5642 6.48828 14.2751 6.48828 13.9197Z" fill="black"/>
<path fill-rule="evenodd" clip-rule="evenodd" d="M8.71011 10.629C8.51073 10.7287 8.27337 10.7185 8.08302 10.6008C7.89302 10.4834 7.77734 10.2759 7.77734 10.0525V4.89627C7.77734 4.67288 7.89302 4.46543 8.08302 4.34799C8.27303 4.23052 8.51035 4.21986 8.71011 4.31976L13.8664 6.89789C14.0847 7.00711 14.2227 7.23025 14.2227 7.4744C14.2227 7.71855 14.0847 7.94168 13.8664 8.05091L8.71011 10.629ZM12.1369 7.4744L9.06641 5.93917V9.00963L12.1369 7.4744Z" fill="black"/>
</svg>
