<svg width="22" height="22" viewBox="0 0 22 22" fill="none" xmlns="http://www.w3.org/2000/svg">
<path fill-rule="evenodd" clip-rule="evenodd" d="M10.8277 0C4.84825 0 0 4.84825 0 10.8277C0 16.8071 4.84825 21.6562 10.8277 21.6562C16.8071 21.6562 21.6562 16.8071 21.6562 10.8277C21.6562 4.84825 16.8071 0 10.8277 0ZM13.0818 16.7814C12.5244 17.0014 12.0808 17.1682 11.748 17.2837C11.4162 17.3993 11.0303 17.457 10.5912 17.457C9.9165 17.457 9.39125 17.292 9.01725 16.9629C8.64325 16.6338 8.45717 16.2167 8.45717 15.7098C8.45717 15.5127 8.47092 15.3111 8.49842 15.1057C8.52683 14.9004 8.57175 14.6694 8.63317 14.41L9.33075 11.946C9.39217 11.7095 9.44533 11.4849 9.4875 11.2759C9.52967 11.0651 9.54983 10.8717 9.54983 10.6957C9.54983 10.3822 9.48475 10.1622 9.3555 10.0384C9.22442 9.91467 8.97783 9.85417 8.61025 9.85417C8.43058 9.85417 8.24542 9.88075 8.05567 9.93667C7.86775 9.99442 7.70458 10.0467 7.57075 10.098L7.755 9.339C8.2115 9.15292 8.64875 8.99342 9.06583 8.86142C9.48292 8.72758 9.87708 8.66158 10.2483 8.66158C10.9184 8.66158 11.4354 8.82475 11.7993 9.14742C12.1614 9.471 12.3438 9.89175 12.3438 10.4087C12.3438 10.516 12.331 10.7048 12.3062 10.9743C12.2815 11.2448 12.2347 11.4913 12.1669 11.7177L11.473 14.1744C11.4162 14.3715 11.3658 14.597 11.3199 14.8491C11.275 15.1012 11.253 15.2937 11.253 15.4229C11.253 15.7492 11.3254 15.972 11.4721 16.0903C11.6169 16.2085 11.8708 16.2681 12.2302 16.2681C12.3998 16.2681 12.5895 16.2378 12.804 16.1792C13.0167 16.1205 13.1707 16.0683 13.2678 16.0233L13.0818 16.7814ZM11.7902 7.26092C12.2458 7.26092 12.6353 7.11058 12.9589 6.80992C13.2825 6.50925 13.4447 6.14442 13.4447 5.71633C13.4447 5.29008 13.2825 4.92342 12.9589 4.62C12.6363 4.31567 12.2458 4.16442 11.7902 4.16442C11.3355 4.16442 10.9432 4.31567 10.6168 4.62C10.2933 4.92342 10.1283 5.29008 10.1283 5.71633C10.1283 6.1435 10.2923 6.50925 10.6168 6.80992C10.9432 7.11058 11.3355 7.26092 11.7902 7.26092Z" fill="#030104"/>
</svg>
