<svg width="19" height="22" viewBox="0 0 19 22" fill="none" xmlns="http://www.w3.org/2000/svg">
<path d="M2.54717 3.80496C2.75948 3.92444 4.18863 4.61488 4.87907 4.94734C4.88177 5.21533 4.8877 5.67875 4.8968 5.68662C4.9729 6.35022 5.10353 7.08746 5.14136 7.29566C5.07859 7.33046 4.75594 7.54145 4.75594 8.1977C4.75622 8.2014 4.75655 8.20481 4.75684 8.20856C4.75636 8.22577 4.75594 8.24312 4.75594 8.26095C4.89481 10.085 5.62024 9.29889 5.76983 10.0979C6.01866 11.4263 7.1949 12.3874 7.92707 12.7192C8.35023 12.9109 8.78573 13.0087 9.24342 13.0181C9.7011 13.0087 10.1366 12.9109 10.5598 12.7192C11.2919 12.3874 12.4682 11.4262 12.717 10.0979C12.8666 9.29884 13.592 10.085 13.7309 8.26095C13.7309 8.24308 13.7305 8.22577 13.73 8.20856C13.7303 8.20486 13.7306 8.20145 13.7309 8.1977C13.7309 7.5414 13.4082 7.33046 13.3455 7.29566C13.3834 7.08746 13.514 6.35027 13.59 5.68662C13.5991 5.67875 13.6051 5.21537 13.6078 4.94734C13.987 4.76471 14.5888 4.4742 15.0897 4.22955V5.99282C14.9506 6.07494 14.8528 6.21988 14.8528 6.39271C14.8528 6.54571 14.9305 6.67534 15.0436 6.76102C15.0436 6.76102 14.8424 7.89207 14.7774 8.22473C14.7123 8.55729 15.9248 8.49058 15.8703 8.22473C15.8157 7.95878 15.6041 6.76102 15.6041 6.76102C15.7173 6.67534 15.795 6.54571 15.795 6.39271C15.795 6.21984 15.6976 6.07499 15.5586 5.99282V3.99916C15.7452 3.90656 15.8841 3.83616 15.9396 3.80496C16.0899 3.72042 16.1708 3.61227 16.1537 3.4999C16.1742 3.38274 16.0895 3.25681 15.8621 3.14548C14.2395 2.3512 10.1027 0.326776 9.6937 0.131668C9.51524 0.0465603 9.36835 0.00896121 9.24342 0C9.11848 0.00896121 8.97159 0.0465603 8.79313 0.131668C8.38409 0.326776 4.24733 2.35125 2.62473 3.14548C2.39729 3.25681 2.31261 3.38274 2.33319 3.4999C2.31602 3.61227 2.39696 3.72042 2.54717 3.80496Z" fill="black"/>
<path d="M14.7506 15.2144C13.9872 14.9391 12.6585 14.1456 12.4308 14.0232C12.3718 13.9889 12.3035 13.9689 12.2303 13.9689C12.0706 13.9689 11.9331 14.0626 11.869 14.1983C11.2396 15.252 10.0727 18.316 9.25854 18.3728C9.25356 18.3725 9.24844 18.3715 9.24341 18.3709C9.23839 18.3715 9.23327 18.3725 9.22829 18.3728C8.4141 18.316 7.2472 15.252 6.61778 14.1983C6.55372 14.0626 6.41627 13.9689 6.25653 13.9689C6.18333 13.9689 6.115 13.9889 6.05597 14.0232C5.82834 14.1456 4.49957 14.9391 3.73621 15.2144C1.17387 16.1383 0.021431 17.0805 0.021431 17.723C0.021431 17.7417 0.021431 17.763 0.021431 17.7863C0.021431 18.5688 0.021431 21.9321 0.021431 21.9321C0.021431 21.9731 0.021431 21.9953 0.021431 21.9953H9.22829H9.24341H9.25854H18.4654C18.4654 21.9953 18.4654 21.9731 18.4654 21.9321C18.4654 21.9321 18.4654 18.5687 18.4654 17.7863C18.4654 17.763 18.4654 17.7417 18.4654 17.723C18.4653 17.0805 17.313 16.1383 14.7506 15.2144Z" fill="black"/>
</svg>
