<svg width="22" height="22" viewBox="0 0 22 22" fill="none" xmlns="http://www.w3.org/2000/svg">
<path fill-rule="evenodd" clip-rule="evenodd" d="M0 11C0 4.9344 4.9344 0 11 0C17.0656 0 22 4.9344 22 11C22 17.0656 17.0656 22 11 22C4.9344 22 0 17.0656 0 11ZM9.81475 16.2314L14.3981 11.6481C14.7565 11.2897 14.7565 10.7103 14.3981 10.3519L9.81475 5.7686C9.45635 5.4102 8.877 5.4102 8.5186 5.7686C8.1602 6.127 8.1602 6.70635 8.5186 7.06475L12.4538 11L8.51855 14.9353C8.16015 15.2937 8.16015 15.873 8.51855 16.2314C8.6973 16.4102 8.932 16.5 9.16665 16.5C9.40135 16.5 9.636 16.4102 9.81475 16.2314Z" fill="#FCF055"/>
</svg>
