<svg width="64" height="64" viewBox="0 0 64 64" fill="none" xmlns="http://www.w3.org/2000/svg">
<path d="M32 0C14.3286 0 0 14.3286 0 32C0 49.6714 14.3286 64 32 64C49.6714 64 64 49.6714 64 32C64 14.3286 49.6714 0 32 0ZM42.2929 32.4929L26.6929 43.8429C26.6073 43.9043 26.5065 43.941 26.4015 43.9489C26.2965 43.9568 26.1913 43.9356 26.0976 43.8876C26.0038 43.8396 25.9251 43.7667 25.8701 43.6769C25.8151 43.5871 25.7859 43.4839 25.7857 43.3786V20.6929C25.7854 20.5873 25.8143 20.4838 25.8692 20.3937C25.9241 20.3035 26.0029 20.2304 26.0968 20.1823C26.1907 20.1342 26.2962 20.1131 26.4014 20.1213C26.5066 20.1294 26.6075 20.1666 26.6929 20.2286L42.2929 31.5714C42.3666 31.6236 42.4267 31.6926 42.4682 31.7728C42.5097 31.8529 42.5313 31.9419 42.5313 32.0321C42.5313 32.1224 42.5097 32.2114 42.4682 32.2915C42.4267 32.3717 42.3666 32.4407 42.2929 32.4929Z" fill="white"/>
</svg>
