<svg width="22" height="22" viewBox="0 0 22 22" fill="none" xmlns="http://www.w3.org/2000/svg">
<circle cx="11" cy="11" r="11" fill="url(#paint0_linear)"/>
<circle cx="10.9999" cy="11" r="1.93235" fill="url(#paint1_linear)"/>
<path fill-rule="evenodd" clip-rule="evenodd" d="M15.8239 9.6085L17.2725 9.8459C17.459 9.87684 17.5956 10.038 17.5956 10.2271V11.773C17.5956 11.962 17.459 12.1232 17.2725 12.1541L15.8239 12.3915C15.7202 12.7516 15.5764 13.0981 15.3945 13.4268L16.2331 14.6013C16.3429 14.7549 16.3256 14.9655 16.192 15.0991L15.099 16.1921C14.965 16.3253 14.754 16.3423 14.6012 16.2332L13.4267 15.3946C13.0979 15.5765 12.7515 15.7203 12.3914 15.8241L12.154 17.2727C12.1231 17.4591 11.9619 17.5957 11.7728 17.5957H10.227C10.0379 17.5957 9.87672 17.4591 9.84578 17.2727L9.60838 15.8241C9.2483 15.7203 8.90184 15.5765 8.57313 15.3946L7.39862 16.2332C7.24467 16.3423 7.03442 16.3253 6.90083 16.1921L5.80783 15.0991C5.67424 14.9655 5.65689 14.7549 5.76671 14.6013L6.60533 13.4268C6.42345 13.098 6.27963 12.7516 6.17586 12.3915L4.72726 12.1541C4.54082 12.1232 4.40417 11.962 4.40417 11.773V10.2271C4.40417 10.038 4.54082 9.87684 4.72726 9.8459L6.17586 9.6085C6.27963 9.24842 6.42341 8.90196 6.60533 8.57325L5.76671 7.39875C5.65689 7.24513 5.67424 7.03454 5.80783 6.90095L6.90083 5.80796C7.03442 5.67398 7.24462 5.65623 7.39862 5.76684L8.57313 6.60546C8.90189 6.42357 9.24834 6.27975 9.60838 6.17598L9.84578 4.72738C9.87672 4.54094 10.0379 4.4043 10.227 4.4043H11.7728C11.9619 4.4043 12.1231 4.54094 12.154 4.72738L12.3914 6.17598C12.7515 6.27975 13.098 6.42353 13.4267 6.60546L14.6012 5.76684C14.754 5.65623 14.965 5.67398 15.099 5.80796L16.192 6.90095C16.3256 7.03454 16.3429 7.24513 16.2331 7.39875L15.3945 8.57325C15.5764 8.90201 15.7202 9.24846 15.8239 9.6085ZM8.29467 11C8.29467 12.4915 9.50841 13.7053 10.9999 13.7053C12.4915 13.7053 13.7052 12.4915 13.7052 11C13.7052 9.50847 12.4915 8.29473 10.9999 8.29473C9.50841 8.29473 8.29467 9.50847 8.29467 11Z" fill="url(#paint2_linear)"/>
<defs>
<linearGradient id="paint0_linear" x1="22" y1="22" x2="22" y2="0" gradientUnits="userSpaceOnUse">
<stop stop-color="#ADDCFF"/>
<stop offset="0.5028" stop-color="#EAF6FF"/>
<stop offset="1" stop-color="#EAF6FF"/>
</linearGradient>
<linearGradient id="paint1_linear" x1="4.19633" y1="3.87661" x2="4.19633" y2="17.4837" gradientUnits="userSpaceOnUse">
<stop stop-color="#5558FF"/>
<stop offset="1" stop-color="#00C0FF"/>
</linearGradient>
<linearGradient id="paint2_linear" x1="4.1964" y1="3.87664" x2="4.1964" y2="17.4837" gradientUnits="userSpaceOnUse">
<stop stop-color="#5558FF"/>
<stop offset="1" stop-color="#00C0FF"/>
</linearGradient>
</defs>
</svg>
