<svg width="16" height="16" viewBox="0 0 16 16" fill="none" xmlns="http://www.w3.org/2000/svg">
<mask id="mask0_423_16232" style="mask-type:alpha" maskUnits="userSpaceOnUse" x="0" y="0" width="16" height="16">
<path fill-rule="evenodd" clip-rule="evenodd" d="M14.6667 8C14.6667 7.632 14.9653 7.33333 15.3333 7.33333C15.7013 7.33333 16 7.632 16 8C16 12.4113 12.4113 16 8 16C3.58867 16 0 12.4113 0 8C0 3.58867 3.58867 0 8 0C10.1473 0 12.1637 0.839333 13.677 2.36333C13.9363 2.62467 13.935 3.04667 13.6737 3.306C13.4123 3.56567 12.99 3.56433 12.731 3.30267C11.4697 2.03267 9.78967 1.33333 8 1.33333C4.324 1.33333 1.33333 4.324 1.33333 8C1.33333 11.676 4.324 14.6667 8 14.6667C11.676 14.6667 14.6667 11.676 14.6667 8ZM10.5286 5.862C10.7886 5.60167 11.2113 5.60167 11.4713 5.862C11.7316 6.12233 11.7316 6.54433 11.4713 6.80467L8.13796 10.138C8.00796 10.2683 7.83729 10.3333 7.66663 10.3333C7.49596 10.3333 7.32529 10.2683 7.19529 10.138L5.52863 8.47133C5.26829 8.211 5.26829 7.789 5.52863 7.52867C5.78863 7.26833 6.21129 7.26833 6.47129 7.52867L7.66663 8.72367L10.5286 5.862Z" fill="white"/>
</mask>
<g mask="url(#mask0_423_16232)">
<rect width="16" height="16" fill="#5DC2A7"/>
</g>
</svg>
