<svg width="12" height="16" viewBox="0 0 12 16" fill="none" xmlns="http://www.w3.org/2000/svg">
<circle cx="5.75785" cy="3.35941" r="3.35941" fill="black"/>
<path fill-rule="evenodd" clip-rule="evenodd" d="M7.18227 6.94751H4.33193C1.96081 6.94751 0.03125 8.87688 0.03125 11.2484V14.735L0.0400305 14.7895L0.280421 14.8646C2.54345 15.5715 4.50988 15.8078 6.12842 15.8078C9.2892 15.8078 11.1216 14.9061 11.2352 14.849L11.4595 14.735H11.4832V11.2484C11.4833 8.87688 9.55418 6.94751 7.18227 6.94751ZM6.4211 13.7138L5.80608 14.6139C5.79769 14.6261 5.78442 14.6334 5.76979 14.6334H5.76862C5.75418 14.6334 5.74032 14.6258 5.73232 14.6131L5.16101 13.7124C5.15613 13.7048 5.15379 13.6956 5.15418 13.6859L5.44003 9.31453C5.44159 9.29131 5.46052 9.27375 5.48393 9.27375H6.07691C6.10013 9.27375 6.11925 9.29131 6.1212 9.31453L6.42832 13.6855C6.42949 13.6958 6.42657 13.7054 6.4211 13.7138ZM5.43788 9.14146H6.14286L6.73623 7.87473C6.73623 7.75317 6.63788 7.65522 6.51671 7.65522H5.04491C4.92335 7.65522 4.82501 7.75317 4.82501 7.87473L5.43788 9.14146Z" fill="black"/>
</svg>
