<svg width="16" height="16" viewBox="0 0 16 16" fill="none" xmlns="http://www.w3.org/2000/svg">
<path d="M11.2312 11.4685C11.0845 11.4506 10.9523 11.5557 10.9352 11.7021C10.9181 11.8485 11.0227 11.981 11.1688 11.9981C13.9731 12.3282 15.4667 13.2178 15.4667 13.7333C15.4667 14.457 12.6261 15.4666 8 15.4666C3.37387 15.4666 0.533333 14.457 0.533333 13.7333C0.533333 13.2178 2.02693 12.3282 4.8312 11.9981C4.97733 11.981 5.08187 11.8482 5.0648 11.7021C5.04747 11.5557 4.9152 11.4501 4.7688 11.4685C1.96107 11.7992 0 12.7304 0 13.7333C0 14.8597 2.748 16 8 16C13.252 16 16 14.8597 16 13.7333C16 12.7304 14.0389 11.7992 11.2312 11.4685Z" fill="white"/>
<path fill-rule="evenodd" clip-rule="evenodd" d="M12.0437 8.69333L7.95274 14.6019L3.85568 8.68507C2.32741 6.64747 2.54928 3.28507 4.33674 1.49787C5.30261 0.532 6.58688 0 7.95274 0C9.31861 0 10.6029 0.532 11.5687 1.49813C13.3562 3.28533 13.5781 6.64773 12.0437 8.69333ZM9.86661 5.06667C9.86661 4.0376 9.02928 3.2 7.99994 3.2C6.97061 3.2 6.13328 4.0376 6.13328 5.06667C6.13328 6.09573 6.97061 6.93333 7.99994 6.93333C9.02928 6.93333 9.86661 6.09573 9.86661 5.06667Z" fill="white"/>
</svg>
