<svg width="38" height="48" viewBox="0 0 38 48" fill="none" xmlns="http://www.w3.org/2000/svg">
<rect x="17.1826" y="3.42859" width="2.57147" height="1.71431" fill="black"/>
<path fill-rule="evenodd" clip-rule="evenodd" d="M15.4688 42.4286C15.4688 40.7746 16.8147 39.4286 18.4688 39.4286C20.1228 39.4286 21.4688 40.7746 21.4688 42.4286C21.4688 44.0826 20.1228 45.4286 18.4688 45.4286C16.8147 45.4286 15.4688 44.0826 15.4688 42.4286ZM17.1831 42.4287C17.1831 43.1376 17.7597 43.7144 18.4688 43.7144C19.1778 43.7144 19.7544 43.1376 19.7544 42.4287C19.7544 41.7197 19.1777 41.143 18.4688 41.143C17.7598 41.143 17.1831 41.7197 17.1831 42.4287Z" fill="black"/>
<path fill-rule="evenodd" clip-rule="evenodd" d="M4.3307 0H32.6064C34.9719 0 36.8971 1.91981 36.8972 4.27941V43.7205C36.8972 46.0801 34.9719 47.9999 32.6064 47.9999H4.33079C1.96529 47.9999 0.0400391 46.0802 0.0400391 43.7205V4.27941C0.0400391 1.91981 1.9652 0 4.3307 0ZM32.6064 46.2858C34.0269 46.2858 35.1829 45.1352 35.1829 43.7206H35.1828V4.27941C35.1828 2.86472 34.0269 1.71422 32.6064 1.71422H4.3307C2.9102 1.71422 1.75426 2.86481 1.75426 4.27941V43.7206C1.75426 45.1353 2.9102 46.2858 4.3307 46.2858H32.6064Z" fill="black"/>
</svg>
