<svg width="16" height="16" viewBox="0 0 16 16" fill="none" xmlns="http://www.w3.org/2000/svg">
<path d="M15.996 16V15.9993H16V10.1313C16 7.26065 15.382 5.04932 12.026 5.04932C10.4127 5.04932 9.33003 5.93465 8.88803 6.77398H8.84136V5.31732H5.65936V15.9993H8.9727V10.71C8.9727 9.31732 9.2367 7.97065 10.9614 7.97065C12.6607 7.97065 12.686 9.55998 12.686 10.7993V16H15.996Z" fill="black"/>
<path d="M0.263977 5.31812H3.58131V16.0001H0.263977L0.263977 5.31812Z" fill="black"/>
<path d="M1.92133 0C0.860667 0 0 0.860667 0 1.92133C0 2.982 0.860667 3.86067 1.92133 3.86067C2.982 3.86067 3.84267 2.982 3.84267 1.92133C3.842 0.860667 2.98133 0 1.92133 0Z" fill="black"/>
</svg>
