<svg width="18" height="18" viewBox="0 0 18 18" fill="none" xmlns="http://www.w3.org/2000/svg">
<path d="M12.3736 2.81246C12.3735 2.15266 12.6054 1.51385 13.0287 1.00777C13.4521 0.501703 14.0399 0.160602 14.6893 0.0441513C15.3388 -0.0722995 16.0085 0.0433148 16.5813 0.370766C17.1541 0.698218 17.5935 1.21666 17.8227 1.83537C18.0519 2.45409 18.0562 3.13369 17.8349 3.75527C17.6136 4.37685 17.1808 4.90083 16.6122 5.23553C16.0436 5.57023 15.3754 5.69434 14.7246 5.58615C14.0737 5.47796 13.4816 5.14436 13.0518 4.6437L5.49515 8.15321C5.66888 8.70375 5.66888 9.29443 5.49515 9.84497L13.0518 13.3545C13.5061 12.8262 14.1403 12.4853 14.8316 12.398C15.5228 12.3106 16.2219 12.483 16.7933 12.8817C17.3647 13.2804 17.7677 13.877 17.9243 14.556C18.0809 15.2349 17.9798 15.9478 17.6407 16.5564C17.3017 17.1651 16.7487 17.6262 16.089 17.8504C15.4293 18.0746 14.7099 18.046 14.0701 17.7699C13.4304 17.4939 12.9159 16.9903 12.6263 16.3565C12.3368 15.7228 12.2928 15.0042 12.5029 14.3398L4.94623 10.8303C4.57215 11.2663 4.07352 11.5772 3.51743 11.7213C2.96134 11.8654 2.37446 11.8357 1.83575 11.6363C1.29703 11.4368 0.832317 11.0772 0.504123 10.6057C0.17593 10.1342 0 9.57354 0 8.99909C0 8.42464 0.17593 7.86397 0.504123 7.39249C0.832317 6.92102 1.29703 6.56137 1.83575 6.36192C2.37446 6.16247 2.96134 6.13279 3.51743 6.27688C4.07352 6.42096 4.57215 6.73189 4.94623 7.16785L12.5029 3.65834C12.4169 3.38463 12.3733 3.09937 12.3736 2.81246Z" fill="#FBA800"/>
</svg>
