<svg width="16" height="16" viewBox="0 0 16 16" fill="none" xmlns="http://www.w3.org/2000/svg">
<path fill-rule="evenodd" clip-rule="evenodd" d="M1.75977 0V12.7952L7.91977 15.8752L14.0798 12.7952V0H1.75977ZM12.6131 10.6187C12.6132 11.5933 12.0764 12.4886 11.2169 12.9478C11.2097 12.9501 11.2029 12.9531 11.1963 12.9565L8.03707 14.3498C7.96202 14.3812 7.87751 14.3812 7.80246 14.3498L4.64326 12.9565C3.77328 12.5009 3.22772 11.6007 3.22643 10.6187V4.4C3.22643 4.23801 3.35777 4.10667 3.51977 4.10667H12.3198C12.4818 4.10667 12.6131 4.23801 12.6131 4.4V10.6187ZM12.3198 2.93333C12.4818 2.93333 12.6131 2.80199 12.6131 2.64V1.46667C12.6131 1.30467 12.4818 1.17333 12.3198 1.17333H3.51977C3.35777 1.17333 3.22643 1.30467 3.22643 1.46667V2.64C3.22643 2.80199 3.35777 2.93333 3.51977 2.93333H12.3198Z" fill="black"/>
<path fill-rule="evenodd" clip-rule="evenodd" d="M4.90076 12.4315C4.23045 12.0752 3.81164 11.3779 3.8125 10.6188V4.69336H12.0258V10.6188C12.0267 11.3731 11.6132 12.0672 10.9493 12.4256L7.91917 13.7603L4.90076 12.4315ZM5.40822 7.94051C5.29865 7.95727 5.20784 8.03447 5.17361 8.14003C5.13909 8.24645 5.16745 8.36332 5.24694 8.4421L6.37043 9.53622L6.10632 11.0821C6.0867 11.192 6.1311 11.3034 6.22076 11.3696C6.31214 11.434 6.43159 11.443 6.53171 11.393L7.91917 10.6627L9.30663 11.393C9.34974 11.4138 9.39672 11.4248 9.44456 11.4254C9.53107 11.426 9.61343 11.3879 9.669 11.3214C9.72457 11.2551 9.74778 11.1673 9.73202 11.0821L9.46791 9.53622L10.5914 8.4421C10.6709 8.36332 10.6992 8.24645 10.6647 8.14003C10.6305 8.03447 10.5397 7.95727 10.4301 7.94051L8.87537 7.71464L8.18314 6.30956C8.12757 6.21674 8.02731 6.16003 7.91917 6.16003C7.81103 6.16003 7.71077 6.21674 7.6552 6.30956L6.96297 7.71464L5.40822 7.94051Z" fill="black"/>
<path d="M1.17333 0H0.293333C0.131341 0 0 0.131341 0 0.293333V1.76C0 1.92199 0.131341 2.05333 0.293333 2.05333H1.17333V0Z" fill="black"/>
<path d="M15.546 0H14.666V2.05333H15.546C15.708 2.05333 15.8393 1.92199 15.8393 1.76V0.293333C15.8393 0.131341 15.708 0 15.546 0Z" fill="black"/>
</svg>
