<svg width="22" height="16" viewBox="0 0 22 16" fill="none" xmlns="http://www.w3.org/2000/svg">
<path d="M10.6394 1.77344C5.17719 1.77344 0.30987 7.45111 0.10507 7.69315C-0.0350234 7.85805 -0.0350234 8.10009 0.10507 8.26586C0.227418 8.41036 2.01655 10.4876 4.5965 12.142L7.37505 9.36342C7.19419 8.93786 7.09312 8.47062 7.09312 7.97948C7.09312 6.0237 8.68365 4.43318 10.6394 4.43318C11.1306 4.43318 11.5978 4.53425 12.0234 4.71511L14.3081 2.43039C13.1945 2.03231 11.972 1.77344 10.6394 1.77344Z" fill="#FBA800"/>
<path fill-rule="evenodd" clip-rule="evenodd" d="M16.0393 3.20611C19.2036 4.91366 21.0857 7.56276 21.1992 7.72679C21.3136 7.8917 21.3021 8.11246 21.1736 8.26585C20.9688 8.50789 16.1014 14.1856 10.6392 14.1856C9.07706 14.1856 7.56633 13.7183 6.19656 13.0498L3.41713 15.8293C3.33023 15.9153 3.21678 15.9587 3.10328 15.9587C2.98979 15.9587 2.87629 15.9153 2.79031 15.8284C2.61742 15.6555 2.61742 15.3745 2.79031 15.2016L17.8621 0.129662C18.035 -0.0432208 18.3161 -0.0432208 18.489 0.129662C18.6618 0.302545 18.6618 0.583605 18.489 0.756488L16.0393 3.20611ZM8.47596 10.7696C9.07706 11.2359 9.82087 11.5258 10.6392 11.5258C12.595 11.5258 14.1855 9.93529 14.1855 7.97951C14.1855 7.16123 13.8956 6.41737 13.4293 5.81627L8.47596 10.7696Z" fill="#9EA9C9"/>
</svg>
