<svg width="23" height="22" viewBox="0 0 23 22" fill="none" xmlns="http://www.w3.org/2000/svg">
<path fill-rule="evenodd" clip-rule="evenodd" d="M21.0292 15.2941H21.2683C22.1907 15.2941 22.941 16.0445 22.941 16.967V20.3125C22.941 21.235 22.1907 21.9854 21.2683 21.9854H16.0109C15.0885 21.9854 14.3381 21.235 14.3381 20.3125V16.967C14.3381 16.0445 15.0885 15.2941 16.0109 15.2941H16.2499V13.8603C16.2499 12.5433 17.3223 11.4707 18.6396 11.4707C19.9568 11.4707 21.0292 12.5433 21.0292 13.8603V15.2941ZM18.6396 12.9045C18.1129 12.9045 17.6837 13.3337 17.6837 13.8603V15.2941H19.5954V13.8603C19.5954 13.3337 19.1662 12.9045 18.6396 12.9045Z" fill="white"/>
<path d="M12.9043 16.967C12.9043 15.6766 13.6949 14.5687 14.8161 14.0994V13.8603C14.8161 13.2792 14.9565 12.7344 15.1898 12.2401C14.4671 11.7555 13.5991 11.4707 12.6654 11.4707H4.54034C2.03695 11.4707 0 13.5076 0 16.011V19.3567C0 19.7524 0.321172 20.0736 0.716904 20.0736H12.9043V16.967Z" fill="white"/>
<path d="M13.3823 4.77942C13.3823 7.41898 11.2424 9.55867 8.60285 9.55867C5.96329 9.55867 3.82343 7.41898 3.82343 4.77942C3.82343 2.13986 5.96329 0 8.60285 0C11.2424 0 13.3823 2.13986 13.3823 4.77942Z" fill="white"/>
</svg>
