<svg width="28" height="28" viewBox="0 0 28 28" fill="none" xmlns="http://www.w3.org/2000/svg">
<g filter="url(#filter0_d)">
<circle cx="14" cy="14" r="12" fill="url(#paint0_linear)"/>
</g>
<path d="M19.4995 13.4411C19.2235 13.4411 18.9996 13.2172 18.9996 12.9411C18.9996 11.5386 18.4535 10.2206 17.462 9.22857C17.2666 9.0331 17.2666 8.71716 17.462 8.5216C17.6575 8.32613 17.9735 8.32613 18.169 8.5216C19.3496 9.70208 19.9995 11.2717 19.9995 12.9411C19.9995 13.2172 19.7756 13.4411 19.4995 13.4411Z" fill="white"/>
<path d="M9.49997 13.4411C9.22403 13.4411 9 13.2172 9 12.9411C9 11.2717 9.65002 9.70208 10.8305 8.5216C11.026 8.32613 11.342 8.32613 11.5375 8.5216C11.733 8.71716 11.733 9.0331 11.5375 9.22857C10.546 10.2201 10 11.5386 10 12.9411C10 13.2172 9.776 13.4411 9.49997 13.4411Z" fill="white"/>
<path d="M19.1896 16.4565C18.4335 15.8175 18 14.8835 18 13.894V12.5C18 10.7405 16.693 9.28403 15 9.04004V8.49997C15 8.22348 14.776 8 14.5001 8C14.224 8 14 8.22348 14 8.49997V9.04004C12.3065 9.28403 11 10.7405 11 12.5V13.894C11 14.8835 10.5665 15.8175 9.80606 16.4605C9.61151 16.627 9.5 16.869 9.5 17.125C9.5 17.6075 9.89249 18 10.3751 18H18.6251C19.1075 18 19.5 17.6075 19.5 17.125C19.5 16.869 19.3885 16.627 19.1896 16.4565Z" fill="white"/>
<path d="M14.5001 20C15.4055 20 16.1631 19.3545 16.3371 18.5H12.6631C12.837 19.3545 13.5945 20 14.5001 20Z" fill="white"/>
<defs>
<filter id="filter0_d" x="0" y="0" width="28" height="28" filterUnits="userSpaceOnUse" color-interpolation-filters="sRGB">
<feFlood flood-opacity="0" result="BackgroundImageFix"/>
<feColorMatrix in="SourceAlpha" type="matrix" values="0 0 0 0 0 0 0 0 0 0 0 0 0 0 0 0 0 0 127 0" result="hardAlpha"/>
<feOffset/>
<feGaussianBlur stdDeviation="1"/>
<feColorMatrix type="matrix" values="0 0 0 0 0 0 0 0 0 0 0 0 0 0 0 0 0 0 0.2 0"/>
<feBlend mode="normal" in2="BackgroundImageFix" result="effect1_dropShadow"/>
<feBlend mode="normal" in="SourceGraphic" in2="effect1_dropShadow" result="shape"/>
</filter>
<linearGradient id="paint0_linear" x1="2.08143" y1="2" x2="2.08143" y2="25.8371" gradientUnits="userSpaceOnUse">
<stop stop-color="#626262"/>
<stop offset="1" stop-color="#141414"/>
</linearGradient>
</defs>
</svg>
