<svg width="12" height="12" viewBox="0 0 12 12" fill="none" xmlns="http://www.w3.org/2000/svg">
<path d="M11.4969 4.53416C11.4214 4.2813 11.2144 4.10171 10.9695 4.0778L7.64247 3.75053L6.32689 0.414688C6.22989 0.170214 6.00897 0.0119629 5.76351 0.0119629C5.51806 0.0119629 5.29714 0.170214 5.20013 0.415259L3.88456 3.75053L0.557046 4.0778C0.312557 4.10228 0.106061 4.2813 0.0301639 4.53416C-0.0457332 4.78702 0.0243595 5.06436 0.209309 5.23919L2.72411 7.62848L1.98256 11.1673C1.92829 11.4275 2.02152 11.6964 2.2208 11.8525C2.32792 11.9363 2.45324 11.979 2.57962 11.979C2.68858 11.979 2.79667 11.9472 2.89367 11.8843L5.76351 10.0262L8.6323 11.8843C8.84222 12.0211 9.10685 12.0086 9.3057 11.8525C9.50507 11.6959 9.5982 11.4269 9.54394 11.1673L8.80239 7.62848L11.3172 5.23967C11.5021 5.06436 11.5728 4.7875 11.4969 4.53416Z" fill="#BE5A0E"/>
</svg>
