<svg width="16" height="16" viewBox="0 0 16 16" fill="none" xmlns="http://www.w3.org/2000/svg">
<path fill-rule="evenodd" clip-rule="evenodd" d="M0 8C0 3.58878 3.58878 0 8 0C12.4112 0 16 3.58878 16 8C16 12.4112 12.4112 16 8 16C3.58878 16 0 12.4112 0 8ZM6.54784 8.39316C6.57753 8.26678 6.59375 8.13528 6.59375 8C6.59375 7.86472 6.57753 7.73322 6.54784 7.60684L9.28294 6.08737C9.59434 6.39997 10.0249 6.59375 10.5 6.59375C11.4477 6.59375 12.2188 5.82272 12.2188 4.875C12.2188 3.92728 11.4477 3.15625 10.5 3.15625C9.55228 3.15625 8.78125 3.92728 8.78125 4.875C8.78125 5.01028 8.79747 5.14178 8.82716 5.26816L6.09206 6.78763C5.78066 6.47503 5.35006 6.28125 4.875 6.28125C3.92728 6.28125 3.15625 7.05228 3.15625 8C3.15625 8.94772 3.92728 9.71875 4.875 9.71875C5.35006 9.71875 5.78066 9.52497 6.09206 9.21238L8.82716 10.7318C8.79747 10.8582 8.78125 10.9897 8.78125 11.125C8.78125 12.0727 9.55228 12.8438 10.5 12.8438C11.4477 12.8438 12.2188 12.0727 12.2188 11.125C12.2188 10.1773 11.4477 9.40625 10.5 9.40625C10.0249 9.40625 9.59434 9.60003 9.28294 9.91262L6.54784 8.39316Z" fill="white"/>
</svg>
