<svg width="57" height="48" viewBox="0 0 57 48" fill="none" xmlns="http://www.w3.org/2000/svg">
<path d="M52.1613 47.063H4.19005C2.6614 47.063 1.42249 45.8241 1.42249 44.2954V14.7748C1.42249 13.2461 2.6614 12.0072 4.19005 12.0072H52.1612C53.6898 12.0072 54.9288 13.2461 54.9288 14.7748V44.2955C54.9289 45.8241 53.6898 47.063 52.1613 47.063Z" fill="#5DC2A7"/>
<path d="M51.2387 12.0073V9.23973C51.2387 7.71108 49.9988 6.47216 48.4711 6.47216H23.1212C22.8168 6.47216 22.5298 6.33378 22.3398 6.0967L18.765 1.62805C18.4154 1.19076 17.8877 0.937134 17.3277 0.937134H7.88012C6.35244 0.937134 5.11255 2.17605 5.11255 3.7047V12.0074H51.2387V12.0073Z" fill="#FCF055"/>
<path d="M4.19005 44.2954V14.7748C4.19005 13.2461 5.42897 12.0072 6.95762 12.0072H4.19005C2.6614 12.0072 1.42249 13.2461 1.42249 14.7748V44.2955C1.42249 45.8242 2.6614 47.0631 4.19005 47.0631H6.95762C5.42908 47.063 4.19005 45.8241 4.19005 44.2954Z" fill="white"/>
<path d="M10.6478 0.937012H7.88024C6.35256 0.937012 5.11267 2.17593 5.11267 3.70458V12.0073H7.88024V3.70458C7.88024 2.17593 9.12002 0.937012 10.6478 0.937012Z" fill="white"/>
<path d="M52.1614 12.0073H49.3938C50.9224 12.0073 52.1614 13.2462 52.1614 14.7749V44.2956C52.1614 45.8243 50.9224 47.0632 49.3938 47.0632H52.1614C53.69 47.0632 54.9289 45.8243 54.9289 44.2956V14.7749C54.9289 13.2462 53.6899 12.0073 52.1614 12.0073Z" fill="#FFA800"/>
<path d="M48.4712 6.47217H45.7036C47.2313 6.47217 48.4712 7.71109 48.4712 9.23974V12.0073H51.2387V9.23974C51.2387 7.71109 49.999 6.47217 48.4712 6.47217Z" fill="#FFA800"/>
<path d="M49.3937 18.4648H34.6333C34.1231 18.4648 33.7108 18.0515 33.7108 17.5424C33.7108 17.0332 34.1231 16.6199 34.6333 16.6199H49.3936C49.9038 16.6199 50.3161 17.0332 50.3161 17.5424C50.3161 18.0515 49.9039 18.4648 49.3937 18.4648Z" fill="black"/>
<path d="M49.3938 22.1549H42.0136C41.5034 22.1549 41.0911 21.7416 41.0911 21.2324C41.0911 20.7232 41.5034 20.3099 42.0136 20.3099H49.3938C49.9039 20.3099 50.3163 20.7232 50.3163 21.2324C50.3163 21.7416 49.9039 22.1549 49.3938 22.1549Z" fill="black"/>
<path d="M52.1613 47.9856H4.19005C2.15503 47.9856 0.5 46.3306 0.5 44.2954V31.3802C0.5 30.871 0.912324 30.4577 1.42249 30.4577C1.93265 30.4577 2.34497 30.871 2.34497 31.3802V44.2955C2.34497 45.313 3.17243 46.1406 4.19005 46.1406H52.1612C53.1787 46.1406 54.0063 45.3131 54.0063 44.2955V14.7748C54.0063 13.7573 53.1788 12.9297 52.1612 12.9297H4.19005C3.17254 12.9297 2.34497 13.7571 2.34497 14.7748V24C2.34497 24.5091 1.93265 24.9224 1.42249 24.9224C0.912324 24.9224 0.5 24.5091 0.5 24V14.7748C0.5 12.7396 2.15503 11.0847 4.19005 11.0847H52.1612C54.1963 11.0847 55.8512 12.7397 55.8512 14.7748V44.2955C55.8513 46.3306 54.1963 47.9856 52.1613 47.9856Z" fill="black"/>
<path d="M2.34508 27.6901C2.34508 28.1993 1.93276 28.6126 1.42259 28.6126C0.912432 28.6126 0.5 28.1994 0.5 27.6901C0.5 27.1809 0.912324 26.7676 1.42249 26.7676C1.93265 26.7676 2.34508 27.1809 2.34508 27.6901Z" fill="black"/>
<path fill-rule="evenodd" clip-rule="evenodd" d="M5.11267 12.9298H51.2387C51.7489 12.9298 52.1613 12.5165 52.1613 12.0072V9.23961C52.1613 7.20458 50.5064 5.54955 48.4713 5.54955L23.0603 5.52004L19.4847 1.05139C18.9579 0.392797 18.1709 0.0145264 17.3278 0.0145264H7.88024C5.84521 0.0145264 4.19019 1.66945 4.19019 3.70458V12.0073C4.19019 12.5165 4.60251 12.9298 5.11267 12.9298ZM50.3162 11.0847H6.03516V3.70447C6.03516 2.68685 6.86273 1.85939 7.88024 1.85939H17.3278C17.6082 1.85939 17.8693 1.9849 18.0446 2.2035L21.6202 6.67312C21.9865 7.13161 22.5345 7.39453 23.1212 7.39453H48.4712C49.4888 7.39453 50.3162 8.22209 50.3162 9.23961V11.0847Z" fill="black"/>
</svg>
