<svg width="43" height="30" viewBox="0 0 43 30" fill="none" xmlns="http://www.w3.org/2000/svg">
<path d="M41.8915 4.69769C41.6457 3.78964 41.1664 2.96182 40.5012 2.29665C39.8359 1.63149 39.0081 1.1522 38.1 0.906527C34.7755 0 21.3966 0 21.3966 0C21.3966 0 8.01723 0.0275102 4.69321 0.934037C3.78519 1.17975 2.95739 1.65906 2.29223 2.32422C1.62707 2.98938 1.14776 3.81718 0.902044 4.7252C-0.10352 10.632 -0.49364 19.6321 0.929554 25.3023C1.17527 26.2103 1.65458 27.0381 2.31974 27.7033C2.9849 28.3685 3.8127 28.8478 4.72072 29.0935C8.045 30 21.4241 30 21.4241 30C21.4241 30 34.8033 30 38.1275 29.0935C39.0356 28.8478 39.8634 28.3685 40.5285 27.7033C41.1937 27.0381 41.673 26.2103 41.9187 25.3023C42.979 19.3874 43.306 10.3928 41.8912 4.69796L41.8915 4.69769Z" fill="white"/>
<path d="M17.1387 21.4275L28.2376 14.9991L17.1387 8.57031V21.4275Z" fill="#FF0000"/>
</svg>
