<svg width="22" height="22" viewBox="0 0 22 22" fill="none" xmlns="http://www.w3.org/2000/svg">
<path d="M0.6875 4.8125H20.0234C20.7354 4.8125 21.3125 5.38961 21.3125 6.10156V20.0234C21.3125 20.7354 20.7354 21.3125 20.0234 21.3125H1.97656C1.26461 21.3125 0.6875 20.7354 0.6875 20.0234V4.8125Z" fill="#FCF055"/>
<path d="M0.6875 4.8125V1.97656C0.6875 1.26461 1.26461 0.6875 1.97656 0.6875H5.99732C6.33918 0.6875 6.66707 0.823324 6.90882 1.06507L10.6562 4.8125H0.6875Z" fill="#FCF055"/>
<path d="M21.3125 6.10156V20.0234C21.3125 20.7354 20.7354 21.3125 20.0234 21.3125H18.3047C19.0167 21.3125 19.5938 20.7354 19.5938 20.0234V6.10156C19.5938 5.38957 19.0167 4.8125 18.3047 4.8125H20.0234C20.7354 4.8125 21.3125 5.38957 21.3125 6.10156Z" fill="#FBA800"/>
<path fill-rule="evenodd" clip-rule="evenodd" d="M20.0234 4.125H10.941L7.39496 0.578918C7.02165 0.205605 6.52523 0 5.99728 0H1.97656C0.886703 0 0 0.886703 0 1.97656V4.8125V20.0234C0 21.1133 0.886703 22 1.97656 22H20.0234C21.1133 22 22 21.1133 22 20.0234V6.10156C22 5.0117 21.1133 4.125 20.0234 4.125ZM1.97656 1.375H5.99728C6.15798 1.375 6.30906 1.43756 6.42267 1.55117L8.9965 4.125H1.375V1.97656C1.375 1.64484 1.64484 1.375 1.97656 1.375ZM20.0234 20.625C20.3552 20.625 20.625 20.3552 20.625 20.0234V6.10156C20.625 5.76984 20.3552 5.5 20.0234 5.5H1.375V20.0234C1.375 20.3552 1.64484 20.625 1.97656 20.625H20.0234Z" fill="black"/>
</svg>
