<svg width="16" height="16" viewBox="0 0 16 16" fill="none" xmlns="http://www.w3.org/2000/svg">
<path fill-rule="evenodd" clip-rule="evenodd" d="M14.1784 0.0187988H1.808C0.810863 0.0187988 0 0.829394 0 1.82771V13.1969C0 14.194 0.810863 15.0037 1.808 15.0037H14.1784C15.1755 15.0037 15.9855 14.194 15.9855 13.1969V1.82771C15.9856 0.829394 15.1755 0.0187988 14.1784 0.0187988ZM10.3371 2.70899C11.3014 2.70899 12.0834 3.49107 12.0834 4.45529C12.0834 5.41952 11.3013 6.20159 10.3371 6.20159C9.37252 6.20159 8.59077 5.41952 8.59077 4.45529C8.59077 3.49107 9.37252 2.70899 10.3371 2.70899ZM7.99262 13.3325H13.6114C14.0937 13.3325 14.2602 13.012 13.9842 12.6164L12.0752 9.88951C11.7987 9.49454 11.2995 9.45206 10.9607 9.79523L10.2235 10.5418C9.88447 10.8849 9.3722 10.8524 9.07912 10.4693L6.06555 6.53107C5.77247 6.14808 5.35861 6.1865 5.14146 6.61695L2.14448 12.553C1.92706 12.9835 2.14186 13.3325 2.62416 13.3325H7.99262Z" fill="black"/>
</svg>
