<svg width="16" height="16" viewBox="0 0 16 16" fill="none" xmlns="http://www.w3.org/2000/svg">
<path d="M7.05914 7.25C5.05246 7.25 3.41992 5.62384 3.41992 3.625C3.41992 1.62616 5.05246 0 7.05914 0C9.06582 0 10.6984 1.62616 10.6984 3.625C10.6984 5.62384 9.06582 7.25 7.05914 7.25Z" fill="black"/>
<path d="M8.47059 9.90622C8.47059 9.10372 8.69679 8.35287 9.08888 7.7135C8.47664 8.01641 7.78755 8.18747 7.05882 8.18747C6.11363 8.18747 5.23445 7.90078 4.50419 7.41016C3.60122 7.75881 2.77286 8.29425 2.06751 8.99684C0.734243 10.3249 0 12.0906 0 13.9687V15.5312C0 15.7901 0.210698 16 0.470588 16H13.6471C13.9069 16 14.1176 15.7901 14.1176 15.5312V13.9687C14.1176 13.9405 14.1169 13.9123 14.1165 13.8841C13.675 14.0399 13.2003 14.125 12.7059 14.125C10.3705 14.125 8.47059 12.2324 8.47059 9.90622V9.90622Z" fill="black"/>
<path fill-rule="evenodd" clip-rule="evenodd" d="M9.41211 9.90625C9.41211 8.09697 10.8899 6.625 12.7062 6.625C14.5226 6.625 16.0003 8.09697 16.0003 9.90625C16.0003 11.7155 14.5226 13.1875 12.7062 13.1875C10.8899 13.1875 9.41211 11.7155 9.41211 9.90625ZM13.1765 10.375H13.6471C13.9069 10.375 14.1176 10.1651 14.1176 9.90625C14.1176 9.64738 13.9069 9.4375 13.6471 9.4375H13.1765V8.96875C13.1765 8.70988 12.9658 8.5 12.7059 8.5C12.446 8.5 12.2353 8.70988 12.2353 8.96875V9.4375H11.7647C11.5048 9.4375 11.2941 9.64738 11.2941 9.90625C11.2941 10.1651 11.5048 10.375 11.7647 10.375H12.2353V10.8438C12.2353 11.1026 12.446 11.3125 12.7059 11.3125C12.9658 11.3125 13.1765 11.1026 13.1765 10.8438V10.375Z" fill="black"/>
</svg>
