<svg width="12" height="16" viewBox="0 0 12 16" fill="none" xmlns="http://www.w3.org/2000/svg">
<path d="M10 0H2C1.46957 0 0.960859 0.210714 0.585786 0.585786C0.210714 0.960859 0 1.46957 0 2V14C0 14.5304 0.210714 15.0391 0.585786 15.4142C0.960859 15.7893 1.46957 16 2 16H10C10.5304 16 11.0391 15.7893 11.4142 15.4142C11.7893 15.0391 12 14.5304 12 14V2C12 1.46957 11.7893 0.960859 11.4142 0.585786C11.0391 0.210714 10.5304 0 10 0V0ZM4.646 5.646C4.69249 5.59951 4.74768 5.56264 4.80842 5.53748C4.86916 5.51232 4.93426 5.49937 5 5.49937C5.06574 5.49937 5.13084 5.51232 5.19158 5.53748C5.25232 5.56264 5.30751 5.59951 5.354 5.646C5.40049 5.69249 5.43736 5.74768 5.46252 5.80842C5.48768 5.86916 5.50063 5.93426 5.50063 6C5.50063 6.06574 5.48768 6.13084 5.46252 6.19158C5.43736 6.25232 5.40049 6.30751 5.354 6.354L3.707 8L5.354 9.646C5.44789 9.73989 5.50063 9.86722 5.50063 10C5.50063 10.1328 5.44789 10.2601 5.354 10.354C5.26011 10.4479 5.13278 10.5006 5 10.5006C4.86722 10.5006 4.73989 10.4479 4.646 10.354L2.646 8.354C2.59944 8.30755 2.56249 8.25238 2.53729 8.19163C2.51208 8.13089 2.49911 8.06577 2.49911 8C2.49911 7.93423 2.51208 7.86911 2.53729 7.80837C2.56249 7.74762 2.59944 7.69245 2.646 7.646L4.646 5.646ZM7.354 5.646L9.354 7.646C9.40056 7.69245 9.43751 7.74762 9.46271 7.80837C9.48792 7.86911 9.50089 7.93423 9.50089 8C9.50089 8.06577 9.48792 8.13089 9.46271 8.19163C9.43751 8.25238 9.40056 8.30755 9.354 8.354L7.354 10.354C7.30751 10.4005 7.25232 10.4374 7.19158 10.4625C7.13084 10.4877 7.06574 10.5006 7 10.5006C6.93426 10.5006 6.86916 10.4877 6.80842 10.4625C6.74768 10.4374 6.69249 10.4005 6.646 10.354C6.59951 10.3075 6.56264 10.2523 6.53748 10.1916C6.51232 10.1308 6.49937 10.0657 6.49937 10C6.49937 9.93426 6.51232 9.86916 6.53748 9.80842C6.56264 9.74768 6.59951 9.69249 6.646 9.646L8.293 8L6.646 6.354C6.55211 6.26011 6.49937 6.13278 6.49937 6C6.49937 5.86722 6.55211 5.73989 6.646 5.646C6.73989 5.55211 6.86722 5.49937 7 5.49937C7.13278 5.49937 7.26011 5.55211 7.354 5.646Z" fill="white"/>
</svg>
