<svg width="22" height="22" viewBox="0 0 22 22" fill="none" xmlns="http://www.w3.org/2000/svg">
<path d="M17.875 22H4.125C1.84665 22 0 20.1534 0 17.875V4.125C0 1.84665 1.84665 0 4.125 0H17.875C20.1534 0 22 1.84665 22 4.125V17.875C22 20.1534 20.1534 22 17.875 22Z" fill="#FFF9DD"/>
<path d="M16.4038 8.69899L13.4249 5.60524C13.3279 5.50486 13.1786 5.47247 13.0487 5.52467C12.9188 5.57704 12.8336 5.70343 12.8336 5.84375V7.33355H12.7188C10.2548 7.33355 8.25 9.33831 8.25 11.8023V12.4898C8.25 12.6493 8.36212 12.782 8.51738 12.8184C8.54222 12.8247 8.56824 12.8273 8.59308 12.8273C8.72299 12.8273 8.84669 12.7511 8.90662 12.6315C9.55148 11.3424 10.8468 10.5414 12.2884 10.5414H12.8329V12.0312C12.8329 12.1716 12.9182 12.2973 13.0481 12.3503C13.1773 12.4025 13.3272 12.3708 13.424 12.2698L16.403 9.17601C16.5324 9.04274 16.5324 8.83226 16.4038 8.69899Z" fill="#FFD200"/>
<path d="M15.125 16.4999H6.875C6.11667 16.4999 5.5 15.8833 5.5 15.1249V8.7085C5.5 7.95016 6.11667 7.3335 6.875 7.3335H8.25C8.50294 7.3335 8.70856 7.53844 8.70856 7.79205C8.70856 8.045 8.50362 8.24994 8.25 8.24994H6.875C6.62206 8.24994 6.41644 8.45555 6.41644 8.7085V15.1249C6.41644 15.3779 6.62206 15.5835 6.875 15.5835H15.125C15.3779 15.5835 15.5836 15.3779 15.5836 15.1249V11.4585C15.5836 11.2056 15.7885 10.9999 16.0421 10.9999C16.2951 10.9999 16.5 11.2049 16.5 11.4585V15.1249C16.5 15.8833 15.8833 16.4999 15.125 16.4999Z" fill="#FFE777"/>
</svg>
