<svg width="31" height="31" viewBox="0 0 31 31" fill="none" xmlns="http://www.w3.org/2000/svg">
<path d="M19.9819 14.4359L13.7419 9.89988C13.5129 9.73388 13.2089 9.70888 12.9579 9.83788C12.7049 9.96588 12.5469 10.2259 12.5469 10.5069V19.5759C12.5469 19.8599 12.7049 20.1189 12.9579 20.2469C13.0649 20.3009 13.1819 20.3279 13.2999 20.3279C13.4539 20.3279 13.6099 20.2789 13.7419 20.1819L19.9819 15.6499C20.1789 15.5049 20.2939 15.2809 20.2939 15.0429C20.2949 14.8009 20.1769 14.5779 19.9819 14.4359Z" fill="white"/>
<path fill-rule="evenodd" clip-rule="evenodd" d="M0 15.026C0 6.726 6.726 0 15.026 0C23.324 0 30.052 6.726 30.051 15.026C30.051 23.322 23.324 30.047 15.026 30.047C6.726 30.047 0 23.323 0 15.026ZM2.51 15.026C2.51 21.939 8.114 27.54 15.026 27.54C21.937 27.54 27.541 21.939 27.54 15.026C27.54 8.115 21.937 2.508 15.026 2.508C8.114 2.508 2.51 8.116 2.51 15.026Z" fill="white"/>
</svg>
