<svg width="47" height="84" viewBox="0 0 47 84" fill="none" xmlns="http://www.w3.org/2000/svg">
<path fill-rule="evenodd" clip-rule="evenodd" d="M39.2903 0H6.77419C3.03465 0.0041999 0.0041999 3.03465 0 6.77419V77.2258C0.0041999 80.9653 3.03465 83.9958 6.77419 84H39.2903C43.0299 83.9958 46.0603 80.9653 46.0645 77.2258V6.77419C46.0603 3.03465 43.0299 0.0041999 39.2903 0ZM32.2184 2.70968L31.4055 6.77419H14.6592L13.8463 2.70968H32.2184ZM39.2903 81.2903C41.534 81.2878 43.3523 79.4695 43.3548 77.2258V6.77419C43.3523 4.53047 41.534 2.7122 39.2903 2.70968H34.9818L33.8447 8.39475C33.7181 9.02805 33.162 9.4839 32.5161 9.48387H13.5484C12.9025 9.4839 12.3465 9.02805 12.2198 8.39475L11.0828 2.70968H6.77419C4.53047 2.7122 2.7122 4.53047 2.70968 6.77419V77.2258C2.7122 79.4695 4.53047 81.2878 6.77419 81.2903H39.2903Z" fill="white"/>
<path d="M14.9033 75.8708H6.77427C6.02602 75.8708 5.41943 76.4774 5.41943 77.2257C5.41943 77.9739 6.02602 78.5805 6.77427 78.5805H14.9033C15.6516 78.5805 16.2581 77.9739 16.2581 77.2257C16.2581 76.4774 15.6516 75.8708 14.9033 75.8708Z" fill="white"/>
<path d="M20.3225 75.8708H18.9676C18.2194 75.8708 17.6128 76.4774 17.6128 77.2257C17.6128 77.9739 18.2194 78.5805 18.9676 78.5805H20.3225C21.0707 78.5805 21.6773 77.9739 21.6773 77.2257C21.6773 76.4774 21.0707 75.8708 20.3225 75.8708Z" fill="white"/>
</svg>
