<svg width="16" height="16" viewBox="0 0 16 16" fill="none" xmlns="http://www.w3.org/2000/svg">
<circle cx="7.99885" cy="7.99885" r="7.99885" fill="#0477E9"/>
<path d="M12.6624 7.97112C12.561 7.84443 12.4851 7.79329 12.4598 7.66671C12.6624 7.56518 12.8651 7.15934 12.8651 7.03242C12.8401 6.17027 12.0283 5.99269 12.0283 5.99269C12.0283 5.99269 12.0283 5.99269 9.59357 5.99269C9.41599 5.96744 9.54294 5.48531 9.64434 5.30786C10.0753 4.54712 10.329 3.86232 10.329 3.50678C10.1771 1.75657 8.98476 2.06161 8.93427 2.2388C8.90888 4.01426 8.50281 4.42006 8.04633 4.7247C7.58962 5.0286 7.53886 5.38415 7.0066 6.60146C6.47384 7.81878 5.48438 7.41311 5.48438 7.41311C5.48438 7.41311 5.50976 7.7934 5.50976 11.3696C8.50281 11.928 10.2023 11.8517 10.9883 11.7755C11.7751 11.6998 12.0283 11.1671 12.0283 10.8881C12.0283 10.5585 12.1298 10.3802 12.2568 10.3046C12.8148 9.84801 12.6371 9.69591 12.4852 9.36639C12.3328 9.03609 12.3839 8.93493 12.6371 8.70644C12.9366 8.45236 12.7641 8.09743 12.6624 7.97112Z" fill="white"/>
<path d="M5.03437 7.28613H3.78204C3.71369 7.28613 3.6582 7.35435 3.6582 7.43935V11.4702C3.6582 11.5544 3.71367 11.6234 3.78204 11.6234H5.03437C5.10271 11.6234 5.1582 11.5544 5.1582 11.4702V7.43935C5.1582 7.35432 5.10274 7.28613 5.03437 7.28613Z" fill="white"/>
</svg>
