<svg width="13" height="16" viewBox="0 0 13 16" fill="none" xmlns="http://www.w3.org/2000/svg">
<path fill-rule="evenodd" clip-rule="evenodd" d="M9.55577 3.37193C9.55577 5.23424 8.046 6.744 6.1837 6.744C4.32237 6.74191 2.81386 5.2334 2.81177 3.37207C2.81177 1.50977 4.32139 0 6.1837 0C8.046 0 9.55577 1.50963 9.55577 3.37193ZM8.84148 3.37207C8.84148 1.90416 7.65161 0.714286 6.1837 0.714286C4.71662 0.71596 3.52773 1.90486 3.52605 3.37207C3.52605 4.83984 4.71592 6.02972 6.1837 6.02972C7.65161 6.02972 8.84148 4.83984 8.84148 3.37207Z" fill="black"/>
<path fill-rule="evenodd" clip-rule="evenodd" d="M0 14.2036C-0.00139405 10.7393 2.80734 7.9304 6.27176 7.93179C9.73619 7.9304 12.5451 10.7393 12.5435 14.2036V15.6429C12.5435 15.8401 12.3837 16 12.1864 16H0.357144C0.159878 16 0 15.8401 0 15.6429V14.2036ZM0.714287 14.2036V15.2857H11.8292V14.2036C11.8344 12.2147 10.7762 10.3749 9.05469 9.37892C7.33301 8.38311 5.21052 8.38311 3.48898 9.37892C1.76744 10.3749 0.709264 12.2147 0.714287 14.2036Z" fill="black"/>
</svg>
