<svg width="16" height="16" viewBox="0 0 16 16" fill="none" xmlns="http://www.w3.org/2000/svg">
<circle cx="7.99885" cy="7.99885" r="7.99885" fill="#FFC10E"/>
<path d="M2.74707 8.00415C2.74707 10.9041 5.09809 13.2551 7.99804 13.2551C10.8981 13.2551 13.2491 10.9041 13.2491 8.00415H2.74707Z" fill="white"/>
<path d="M5.66211 8.00415C5.66211 9.57158 5.66211 11.139 5.66211 12.7065C5.86545 12.8078 6.07639 12.8958 6.29364 12.9704C6.29364 11.315 6.29364 9.65961 6.29364 8.00415L5.66211 8.00415Z" fill="#CCCBCB"/>
<path d="M9.56348 8.00415C9.56348 9.67541 9.56348 11.3465 9.56348 13.0178C9.78059 12.9501 9.99102 12.8675 10.195 12.7734C10.195 11.1836 10.195 9.59396 10.195 8.00415H9.56348Z" fill="#CCCBCB"/>
<path d="M7.39899 5.36008C7.34215 4.30506 6.58913 3.55214 5.53425 3.49533C4.48162 3.43862 3.72166 4.39059 3.66951 5.36008C3.64753 5.76727 4.27916 5.76514 4.30103 5.36008C4.38667 3.77054 6.68199 3.77054 6.7675 5.36008C6.78934 5.76514 7.42097 5.76727 7.39899 5.36008Z" fill="#333333"/>
<path d="M11.9498 5.36008C11.8929 4.30506 11.1399 3.55214 10.085 3.49533C9.03241 3.43862 8.27257 4.39059 8.22029 5.36008C8.19831 5.76727 8.82994 5.76514 8.85181 5.36008C8.93745 3.77054 11.2326 3.77054 11.3183 5.36008C11.3401 5.76514 11.9718 5.76727 11.9498 5.36008Z" fill="#333333"/>
</svg>
