<svg width="16" height="14" viewBox="0 0 16 14" fill="none" xmlns="http://www.w3.org/2000/svg">
<path fill-rule="evenodd" clip-rule="evenodd" d="M4.85997 4.06158C4.85997 2.32319 6.27423 0.908936 8.01261 0.908936C9.751 0.908936 11.1653 2.32319 11.1653 4.06158C11.1653 5.79997 9.751 7.21423 8.01261 7.21423C6.27423 7.21423 4.85997 5.79997 4.85997 4.06158ZM3.48387 13.0911H12.5161C12.8012 13.0911 13.0323 12.86 13.0323 12.575V11.0469C13.0323 10.319 12.6028 9.65684 11.9381 9.36006L10.1706 8.57087C10.0644 8.52344 10.0224 8.52362 9.64829 8.52524C9.56548 8.5256 9.4664 8.52603 9.34674 8.52603C9.10919 8.52603 8.90232 8.68819 8.84555 8.91884C8.6291 9.79848 7.37084 9.79806 7.15448 8.91884C7.09771 8.68816 6.89084 8.52603 6.65329 8.52603H6.03984L6.02568 8.52597H6.02563H6.02562C6.01508 8.5259 6.00563 8.52584 5.99619 8.52621C5.91378 8.52945 5.83268 8.56588 5.04467 8.91978L5.04429 8.91995C4.79502 9.0319 4.47503 9.17561 4.06194 9.36006C3.39723 9.65684 2.96774 10.319 2.96774 11.0469V12.575C2.96774 12.86 3.19884 13.0911 3.48387 13.0911ZM3.03929 4.28106C1.94474 4.28106 1.05426 5.17155 1.05426 6.26613C1.05426 7.36068 1.94474 8.25116 3.03929 8.25116C4.13387 8.25116 5.02435 7.36068 5.02435 6.26613C5.02432 5.17155 4.13384 4.28106 3.03929 4.28106ZM10.9756 6.26613C10.9756 5.17155 11.8661 4.28106 12.9607 4.28106C14.0553 4.28106 14.9457 5.17155 14.9457 6.26613C14.9457 7.36068 14.0553 8.25116 12.9607 8.25116C11.8661 8.25116 10.9756 7.36068 10.9756 6.26613ZM14.7336 8.77545L14.7335 8.77538C14.1843 8.52801 14.1773 8.52487 14.0597 8.52487C13.4932 8.52487 13.0711 8.52195 12.752 8.51974H12.752H12.7519C12.638 8.51895 12.5372 8.51825 12.4477 8.51781C12.1096 8.51613 11.9976 8.96965 12.2972 9.12636C12.5425 9.25468 12.6915 9.36413 12.8684 9.55716C13.3846 10.1178 13.4327 10.7112 13.4326 11.2032C13.4326 11.3814 13.5769 11.5255 13.7551 11.5255H15.4839C15.769 11.5255 16 11.2943 16 11.0094V10.1581C16 9.66229 15.7074 9.21165 15.2548 9.00939C15.0408 8.91379 14.8704 8.83705 14.7336 8.77545ZM1.26356 8.77674C1.8183 8.52695 1.82291 8.52487 1.94032 8.52487C2.43634 8.52487 2.8224 8.52302 3.12587 8.52156C3.28928 8.52078 3.42874 8.52011 3.54852 8.5199C3.88626 8.51932 3.99674 8.97152 3.69774 9.12858C3.45784 9.25461 3.30765 9.36503 3.13161 9.55713C2.61335 10.12 2.56668 10.7092 2.56726 11.2029C2.56748 11.3811 2.42303 11.5255 2.24477 11.5255H0.516129C0.230968 11.5255 0 11.2942 0 11.0094V10.1581C0 9.66229 0.292581 9.21165 0.745161 9.00939C0.957732 8.91445 1.12725 8.83812 1.26356 8.77674Z" fill="black"/>
</svg>
