<svg width="16" height="15" viewBox="0 0 16 15" fill="none" xmlns="http://www.w3.org/2000/svg">
<path fill-rule="evenodd" clip-rule="evenodd" d="M13.2685 1.24393H14.2678C15.18 1.24393 15.9223 2.01102 15.9181 2.92323V12.5678C15.9181 13.48 15.18 14.2222 14.2637 14.2222H1.65442C0.738063 14.2222 0 13.48 0 12.5637V2.92323C0 2.01102 0.742209 1.24393 1.65442 1.24393H2.61224V0.451965C2.61224 0.223912 2.79883 0.037323 3.02689 0.037323C3.25494 0.037323 3.44153 0.223912 3.44153 0.451965V1.24393H7.54648V0.451965C7.54648 0.223912 7.73307 0.037323 7.96113 0.037323C8.18918 0.037323 8.37577 0.223912 8.37577 0.451965V1.24393H12.4393V0.451965C12.4393 0.223912 12.6259 0.037323 12.8539 0.037323C13.082 0.037323 13.2685 0.223912 13.2685 0.451965V1.24393ZM14.272 13.3929C14.7281 13.3888 15.093 13.0198 15.093 12.5637V2.92323C15.093 2.46713 14.7281 2.07322 14.2678 2.07322H13.2685V2.67445C13.2685 2.9025 13.0819 3.08909 12.8539 3.08909C12.6258 3.08909 12.4392 2.9025 12.4392 2.67445V2.07322H8.37575V2.67445C8.37575 2.9025 8.18916 3.08909 7.96111 3.08909C7.73306 3.08909 7.54647 2.9025 7.54647 2.67445V2.07322H3.44151V2.67445C3.44151 2.9025 3.25492 3.08909 3.02687 3.08909C2.79882 3.08909 2.61223 2.9025 2.61223 2.67445V2.07322H1.6544C1.1983 2.07322 0.829266 2.46298 0.829266 2.92323V12.5637V12.5678C0.829266 13.0239 1.1983 13.3929 1.6544 13.3929H14.2678H14.272Z" fill="black"/>
<path d="M6.87061 4.76839H6.14499C5.91694 4.76839 5.73035 4.95498 5.73035 5.18303C5.73035 5.41108 5.91694 5.59767 6.14499 5.59767H6.87061C7.09867 5.59767 7.28525 5.41108 7.28525 5.18303C7.28525 4.95498 7.09867 4.76839 6.87061 4.76839Z" fill="black"/>
<path d="M9.75648 4.76839H9.03085C8.8028 4.76839 8.61621 4.95498 8.61621 5.18303C8.61621 5.41108 8.8028 5.59767 9.03085 5.59767H9.75648C9.98453 5.59767 10.1711 5.41108 10.1711 5.18303C10.1711 4.95498 9.98868 4.76839 9.75648 4.76839Z" fill="black"/>
<path d="M12.6674 4.76839H11.9417C11.7137 4.76839 11.5271 4.95498 11.5271 5.18303C11.5271 5.41108 11.7137 5.59767 11.9417 5.59767H12.6674C12.8954 5.59767 13.082 5.41108 13.082 5.18303C13.082 4.95498 12.8954 4.76839 12.6674 4.76839Z" fill="black"/>
<path d="M6.87061 7.62943H6.14499C5.91694 7.62943 5.73035 7.81601 5.73035 8.04407C5.73035 8.27212 5.91694 8.45871 6.14499 8.45871H6.87061C7.09867 8.45871 7.28525 8.27212 7.28525 8.04407C7.28525 7.81601 7.09867 7.62943 6.87061 7.62943Z" fill="black"/>
<path d="M3.96399 7.62943H3.23422C3.00617 7.62943 2.81958 7.81601 2.81958 8.04407C2.81958 8.27212 3.00617 8.45871 3.23422 8.45871H3.95985C4.1879 8.45871 4.37449 8.27212 4.37449 8.04407C4.37449 7.81601 4.19205 7.62943 3.96399 7.62943Z" fill="black"/>
<path d="M9.75648 7.62943H9.03085C8.8028 7.62943 8.61621 7.81601 8.61621 8.04407C8.61621 8.27212 8.8028 8.45871 9.03085 8.45871H9.75648C9.98453 8.45871 10.1711 8.27212 10.1711 8.04407C10.1711 7.81601 9.98868 7.62943 9.75648 7.62943Z" fill="black"/>
<path d="M12.6674 7.62943H11.9417C11.7137 7.62943 11.5271 7.81601 11.5271 8.04407C11.5271 8.27212 11.7137 8.45871 11.9417 8.45871H12.6674C12.8954 8.45871 13.082 8.27212 13.082 8.04407C13.082 7.81601 12.8954 7.62943 12.6674 7.62943Z" fill="black"/>
<path d="M6.87061 10.449H6.14499C5.91694 10.449 5.73035 10.6356 5.73035 10.8636C5.73035 11.0917 5.91694 11.2783 6.14499 11.2783H6.87061C7.09867 11.2783 7.28525 11.0917 7.28525 10.8636C7.28525 10.6356 7.09867 10.449 6.87061 10.449Z" fill="black"/>
<path d="M3.96399 10.449H3.23422C3.00617 10.449 2.81958 10.6356 2.81958 10.8636C2.81958 11.0917 3.00617 11.2783 3.23422 11.2783H3.95985C4.1879 11.2783 4.37449 11.0917 4.37449 10.8636C4.37449 10.6356 4.19205 10.449 3.96399 10.449Z" fill="black"/>
<path d="M9.75648 10.449H9.03085C8.8028 10.449 8.61621 10.6356 8.61621 10.8636C8.61621 11.0917 8.8028 11.2783 9.03085 11.2783H9.75648C9.98453 11.2783 10.1711 11.0917 10.1711 10.8636C10.1711 10.6356 9.98868 10.449 9.75648 10.449Z" fill="black"/>
</svg>
