<svg width="36" height="24" viewBox="0 0 36 24" fill="none" xmlns="http://www.w3.org/2000/svg">
<path fill-rule="evenodd" clip-rule="evenodd" d="M34.98 15.9225C34.9003 15.1044 34.5888 14.3105 34.0793 13.6264C33.7875 13.2349 33.4363 12.8852 33.0358 12.5874C31.9683 11.7931 30.5922 11.3789 29.1622 11.4226C29.1588 11.4226 29.1549 11.4227 29.1517 11.4232L28.8331 11.4417C28.0525 11.502 27.2678 11.7086 26.5628 12.0393L26.5533 12.0438C26.3092 12.1666 26.2317 12.209 26.2021 12.2265C23.997 13.4288 22.3647 13.9177 21.2628 14.1014C21.7449 13.0863 22.6659 11.6425 24.4256 9.84306C24.4506 9.81904 24.5123 9.75543 24.6977 9.55344L24.7009 9.54992C24.7021 9.5486 24.7032 9.54723 24.7041 9.5457C25.2156 8.95583 25.6312 8.25325 25.9088 7.50787L26.0125 7.21158C26.0134 7.20986 26.014 7.20821 26.0145 7.20658C26.0151 7.2049 26.0155 7.20323 26.0159 7.20151C26.6254 5.30136 26.3433 3.23478 25.2799 1.80802L25.2796 1.80754C24.923 1.32941 24.4864 0.933286 23.9808 0.630022C23.1084 0.107929 22.0634 -0.100056 21.0375 0.0450878C20.0917 0.178322 19.1676 0.594583 18.3665 1.24827C17.9056 1.62454 17.4943 2.07362 17.147 2.57751C16.6786 3.30498 16.4557 3.82174 16.3335 4.17817C15.6554 6.11946 15.9033 8.26632 16.9948 9.73035C17.1802 9.9791 17.3905 10.2102 17.6203 10.417C17.7482 10.5327 17.8825 10.6407 18.0215 10.7392L16.4405 14.4347L4.42572 16.5703L4.41012 16.5726L4.41009 16.5726C4.37188 16.5782 4.33342 16.5838 4.29496 16.5891L4.28988 16.5899L4.28984 16.5899C4.02029 16.6293 3.74074 16.6703 3.45861 16.7786C2.40802 17.1815 1.80505 18.1389 1.48492 18.8707C1.32937 19.2264 1.22811 19.5254 1.16787 19.8109L1.00867 20.5431C0.982728 20.6617 1.01587 20.7838 1.09648 20.8737C1.17747 20.963 1.29603 21.0068 1.41488 20.9921L14.5019 19.3364L12.5805 24H17.2285L19.7392 18.6582L23.5632 18.1752C23.7159 18.6257 23.938 19.0475 24.2259 19.4334C25.2672 20.8306 27.1183 21.6791 29.0577 21.6483C31.2853 21.6125 33.3106 20.493 34.3426 18.7269C34.8458 17.866 35.0718 16.8703 34.98 15.9225ZM19.7706 8.31028C19.6198 8.20725 19.486 8.07828 19.3732 7.92694C18.8956 7.28662 18.8637 6.36317 18.9922 5.71278C19.1724 4.80561 19.6697 3.99061 20.3558 3.47791C20.9903 3.00384 21.711 2.86964 22.2833 3.11916L22.2837 3.11926C22.2843 3.11926 22.2847 3.11936 22.2854 3.11965C22.5305 3.22655 22.7401 3.39464 22.9075 3.61841C23.269 4.1039 23.4305 4.87523 23.3284 5.63164C23.1934 6.63255 22.6561 7.55919 21.891 8.11052C21.3498 8.50025 20.4706 8.78618 19.7706 8.31028ZM31.5811 17.5073C31.8299 17.202 31.9806 16.8614 32.0159 16.5225C32.0562 16.1393 31.9444 15.7484 31.7012 15.4218C31.6723 15.3834 31.6423 15.3457 31.6102 15.3096C30.9215 14.5295 29.7861 14.3511 28.9522 14.4439L28.8496 14.4571C27.9599 14.5819 27.1804 14.9975 26.7109 15.5975C26.2327 16.2079 26.1736 16.9777 26.5611 17.5596C26.5806 17.589 26.6005 17.6178 26.6217 17.6463C27.2118 18.4375 28.2928 18.6814 29.1079 18.6452C30.1124 18.6008 31.0367 18.1752 31.5811 17.5073Z" fill="black"/>
</svg>
