<svg width="22" height="22" viewBox="0 0 22 22" fill="none" xmlns="http://www.w3.org/2000/svg">
<path d="M19.1634 22H2.17361C0.986938 22 0.0214844 21.0345 0.0214844 19.8477V12.4329C0.0214844 11.2462 0.986938 10.2808 2.17361 10.2808H19.1634C20.3502 10.2808 21.3157 11.2462 21.3157 12.4329V19.8477C21.3157 21.0345 20.3502 22 19.1634 22Z" fill="#CC0702"/>
<path d="M2.17361 10.2808C0.986938 10.2808 0.0214844 11.2462 0.0214844 12.4329V19.8477C0.0214844 21.0345 0.986938 22 2.17361 22H10.6685V10.2808L2.17361 10.2808Z" fill="#FF2A00"/>
<path d="M10.6699 6.19232C10.3399 6.19232 10.0099 6.06694 9.75868 5.81618C9.51514 5.57297 9.38086 5.24953 9.38086 4.90561C9.38086 4.56152 9.51514 4.23808 9.75868 3.99504C10.2612 3.49352 11.0786 3.49352 11.5812 3.99504C11.8249 4.23825 11.959 4.56152 11.959 4.90561C11.959 5.24953 11.8249 5.57297 11.5812 5.81618C11.3301 6.06694 10.9999 6.19232 10.6699 6.19232Z" fill="#66CCFF"/>
<path d="M13.4814 7.91341C13.3163 7.91341 13.1511 7.8503 13.0252 7.72408C12.7738 7.47215 12.7741 7.06411 13.0262 6.81268C13.5367 6.30309 13.8178 5.62583 13.8178 4.9056C13.8178 4.1852 13.5367 3.50794 13.0262 2.99853C12.7743 2.74693 12.7738 2.33889 13.0252 2.08695C13.2767 1.83501 13.6849 1.83451 13.9368 2.08611C14.6913 2.83907 15.1069 3.84045 15.1069 4.9056C15.1069 5.97076 14.6913 6.97196 13.9368 7.72509C13.8109 7.85064 13.6463 7.91341 13.4814 7.91341Z" fill="#66CCFF"/>
<path d="M14.9395 9.81114C14.7743 9.81114 14.6092 9.74803 14.4833 9.62181C14.2318 9.36987 14.2322 8.96184 14.4841 8.7104C15.5024 7.69392 16.0634 6.34276 16.0634 4.90566C16.0634 3.46838 15.5024 2.11705 14.4841 1.10074C14.2323 0.849305 14.2318 0.441101 14.4833 0.189331C14.7347 -0.0627743 15.1427 -0.06311 15.3948 0.188324C16.6572 1.44835 17.3524 3.12363 17.3524 4.90549C17.3524 6.68752 16.6572 8.36279 15.3948 9.62265C15.269 9.74837 15.1043 9.81114 14.9395 9.81114Z" fill="#66CCFF"/>
<path d="M7.8559 7.91333C7.69107 7.91333 7.52641 7.85072 7.40053 7.72501C6.64606 6.97205 6.23047 5.97067 6.23047 4.90552C6.23047 3.84053 6.64606 2.83916 7.40053 2.08603C7.65247 1.8346 8.0605 1.83493 8.3121 2.08704C8.56354 2.33897 8.56303 2.74701 8.3111 2.99844C7.80067 3.50803 7.51953 4.18529 7.51953 4.90552C7.51953 5.62592 7.80067 6.30318 8.3111 6.81276C8.56303 7.06419 8.56354 7.47223 8.3121 7.72417C8.18622 7.85039 8.02106 7.91333 7.8559 7.91333Z" fill="#B2E5FF"/>
<path d="M6.39734 9.81114C6.23251 9.81114 6.06786 9.74837 5.94197 9.62282C4.6796 8.36279 3.98438 6.68752 3.98438 4.90549C3.98438 3.12363 4.6796 1.44835 5.94197 0.188324C6.19391 -0.06311 6.60194 -0.0627743 6.85338 0.189331C7.10498 0.441101 7.10448 0.849305 6.85254 1.10074C5.83421 2.11705 5.27344 3.46838 5.27344 4.90566C5.27344 6.34276 5.83421 7.69409 6.85254 8.7104C7.10464 8.96184 7.10498 9.37004 6.85355 9.62198C6.72766 9.74803 6.5625 9.81114 6.39734 9.81114Z" fill="#B2E5FF"/>
<path d="M5.62469 18.1318H3.89453V13.5044C3.89453 13.1484 3.60583 12.8599 3.25 12.8599C2.894 12.8599 2.60547 13.1484 2.60547 13.5044V18.7763C2.60547 19.1323 2.894 19.4208 3.25 19.4208H5.62469C5.98053 19.4208 6.26923 19.1323 6.26923 18.7763C6.26923 18.4205 5.98053 18.1318 5.62469 18.1318Z" fill="#FFDD33"/>
<path d="M7.62109 12.8599C7.26526 12.8599 6.97656 13.1484 6.97656 13.5044V18.7763C6.97656 19.1323 7.26526 19.4208 7.62109 19.4208C7.9771 19.4208 8.26562 19.1323 8.26562 18.7763V13.5044C8.26562 13.1484 7.9771 12.8599 7.62109 12.8599V12.8599Z" fill="#FFDD33"/>
<path d="M12.0964 18.9626L13.6881 13.6907C13.791 13.3498 13.5981 12.9903 13.2574 12.8874C12.9166 12.7843 12.5569 12.9773 12.4541 13.3181L11.4795 16.5463L10.5049 13.3181C10.402 12.9772 10.0421 12.7845 9.70154 12.8874C9.36081 12.9903 9.16795 13.3498 9.27084 13.6907L10.8625 18.9626C11.0406 19.4737 11.925 19.5131 12.0964 18.9626Z" fill="#FFAA00"/>
<path d="M18.0005 18.1318H15.8242V16.453H17.6532C18.0092 16.453 18.2978 16.1643 18.2978 15.8084C18.2978 15.4524 18.0092 15.1639 17.6532 15.1639H15.8242V14.1489H18.0873C18.4433 14.1489 18.7318 13.8602 18.7318 13.5044C18.7318 13.1484 18.4433 12.8599 18.0873 12.8599H15.1797C14.8237 12.8599 14.5352 13.1484 14.5352 13.5044V18.7763C14.5352 19.1323 14.8237 19.4208 15.1797 19.4208H18.0005C18.3564 19.4208 18.6451 19.1323 18.6451 18.7763C18.6451 18.4205 18.3565 18.1318 18.0005 18.1318Z" fill="#FFAA00"/>
<path d="M9.75885 3.99487C9.51514 4.23808 9.38086 4.56152 9.38086 4.90561C9.38086 5.24953 9.51514 5.57297 9.75885 5.81618C10.0096 6.06644 10.3389 6.19182 10.6684 6.19215V3.6189C10.3389 3.61923 10.0096 3.74461 9.75885 3.99487Z" fill="#B2E5FF"/>
<path d="M10.5049 13.3183C10.402 12.9774 10.0421 12.7847 9.70154 12.8876C9.36081 12.9904 9.16795 13.35 9.27084 13.6909L10.6682 18.3196V13.8596L10.5049 13.3183Z" fill="#FFDD33"/>
</svg>
