<svg width="22" height="22" viewBox="0 0 22 22" fill="none" xmlns="http://www.w3.org/2000/svg">
<path d="M17.875 22H4.125C1.84665 22 0 20.1534 0 17.875V4.125C0 1.84665 1.84665 0 4.125 0H17.875C20.1534 0 22 1.84665 22 4.125V17.875C22 20.1534 20.1534 22 17.875 22Z" fill="#FFE6E2"/>
<path d="M15.2398 5.5H10.4273C9.73225 5.5 9.16711 6.06514 9.16711 6.76019V7.87537C9.31499 7.823 9.46823 7.79144 9.62567 7.79144C9.99275 7.79144 10.338 7.93445 10.5978 8.19427L12.4314 10.0278C12.6912 10.2878 12.8342 10.6329 12.8342 11C12.8342 11.3671 12.6912 11.7122 12.4314 11.9722L10.5978 13.8057C10.338 14.0656 9.99275 14.2086 9.62567 14.2086C9.46823 14.2086 9.31499 14.177 9.16711 14.1246V15.2398C9.16711 15.9349 9.73225 16.5 10.4273 16.5H15.2398C15.9349 16.5 16.5 15.9349 16.5 15.2398V6.76019C16.5 6.06514 15.9349 5.5 15.2398 5.5Z" fill="#FC573B"/>
<path d="M9.44977 13.2569C9.27856 13.1861 9.16711 13.0191 9.16711 12.8334V11.4584H5.95856C5.70494 11.4584 5.5 11.2528 5.5 10.9999C5.5 10.7469 5.70561 10.5413 5.95856 10.5413H9.16711V9.16632C9.16711 8.98069 9.27856 8.81368 9.44977 8.74285C9.6208 8.67202 9.81819 8.71112 9.94945 8.84255L11.783 10.6761C11.9618 10.8549 11.9618 11.1449 11.783 11.3243L9.94945 13.1579C9.81819 13.2886 9.6208 13.3277 9.44977 13.2569Z" fill="#FD907E"/>
</svg>
