<svg width="44" height="32" viewBox="0 0 44 32" fill="none" xmlns="http://www.w3.org/2000/svg">
<path d="M43.0936 5C42.5864 3.04492 41.1003 1.50383 39.2157 0.977368C35.7725 0 21.9997 0 21.9997 0C21.9997 0 8.22717 0 4.78397 0.940111C2.93564 1.46623 1.41327 3.04526 0.906036 5C0 8.57103 0 15.977 0 15.977C0 15.977 0 23.4203 0.906036 26.954C1.4136 28.9088 2.89938 30.4502 4.7843 30.9767C8.26343 31.954 22 31.954 22 31.954C22 31.954 35.7725 31.954 39.2157 31.0139C41.1006 30.4878 42.5864 28.9464 43.094 26.9916C44 23.4203 44 16.0146 44 16.0146C44 16.0146 44.0363 8.57103 43.0936 5Z" fill="#FF0000"/>
<path d="M17.6152 22.819L29.0681 15.9771L17.6152 9.13513L17.6152 22.819Z" fill="white"/>
</svg>
