<svg width="55" height="48" viewBox="0 0 55 48" fill="none" xmlns="http://www.w3.org/2000/svg">
<path fill-rule="evenodd" clip-rule="evenodd" d="M4.74199 0.165405H50.094C52.705 0.165405 54.8367 2.30158 54.8364 4.90739V35.1115C54.8364 37.7194 52.705 39.8545 50.094 39.8545H29.3532V43.8944H43.8651L45.8003 45.8296V47.7648H9.03609V45.8296L10.9713 43.8944H25.4832V39.8524H4.74199C2.13652 39.8524 0 37.7197 0 35.1097V4.90739C0 2.30158 2.13479 0.165405 4.74199 0.165405ZM50.094 32.1151C51.6425 32.1151 52.9015 30.8564 52.9015 29.3069H52.9019V4.90739C52.9019 3.35965 51.6428 2.10025 50.0944 2.10025H4.74199C3.19252 2.10025 1.93485 3.35965 1.93485 4.90739V29.3069C1.93485 30.8564 3.19252 32.1151 4.74199 32.1151H50.094Z" fill="black"/>
</svg>
