<svg width="50" height="48" viewBox="0 0 50 48" fill="none" xmlns="http://www.w3.org/2000/svg">
<path d="M3.15767 35.5723H46.5909C47.9324 35.5723 49.02 34.4847 49.02 33.1431V9.03694C49.02 7.69537 47.9324 6.60779 46.5909 6.60779H16.688L15.2989 2.44763C14.9679 1.45634 14.04 0.787842 12.9948 0.787842H3.15767C1.81609 0.787842 0.728516 1.87542 0.728516 3.21699V33.1431C0.728516 34.4847 1.81609 35.5723 3.15767 35.5723Z" fill="#FD8087"/>
<path d="M31.5346 8.26758C31.2862 9.01129 30.5902 9.51276 29.8061 9.51276H0.728516V33.1431C0.728516 34.4847 1.81609 35.5723 3.15767 35.5723H46.5909C47.9324 35.5723 49.02 34.4847 49.02 33.1431V9.03694C49.02 7.69537 47.9324 6.60779 46.5909 6.60779H33.8387C32.7936 6.60779 31.8657 7.27629 31.5346 8.26758Z" fill="#FE646F"/>
<path d="M45.6192 41.3922H3.15767C1.81609 41.3922 0.728516 40.3047 0.728516 38.9631V14.8569C0.728516 13.5153 1.81609 12.4277 3.15767 12.4277H33.0605L34.4496 8.26758C34.7806 7.27629 35.7086 6.60779 36.7537 6.60779H45.6192C46.9608 6.60779 48.0484 7.69537 48.0484 9.03694V38.9631C48.0484 40.3047 46.9608 41.3922 45.6192 41.3922Z" fill="#8AC9FE"/>
<path d="M49.02 38.9631C49.02 40.3047 47.9324 41.3922 46.5909 41.3922H43.6759H3.15767C1.81609 41.3922 0.728516 40.3047 0.728516 38.9631V15.3327H43.6759C45.0175 15.3327 46.105 14.2451 46.105 12.9036V9.03694C46.105 7.69537 45.0175 6.60779 43.6759 6.60779H46.5909C47.9324 6.60779 49.02 7.69537 49.02 9.03694V38.9631Z" fill="#60B7FF"/>
<path d="M3.15767 47.2122H45.6192C46.9608 47.2122 48.0484 46.1246 48.0484 44.783V20.6768C48.0484 19.3353 46.9608 18.2477 45.6192 18.2477H16.688L15.2989 14.0875C14.9679 13.0962 14.04 12.4277 12.9948 12.4277H3.15767C1.81609 12.4277 0.728516 13.5153 0.728516 14.8569V44.783C0.728516 46.1246 1.81609 47.2122 3.15767 47.2122Z" fill="#FED402"/>
<path d="M46.5912 18.2477H43.6763C45.0178 18.2477 46.1054 19.3353 46.1054 20.6768V44.783C46.1054 46.1246 45.0178 47.2122 43.6763 47.2122H46.5912C47.9328 47.2122 49.0204 46.1246 49.0204 44.783V20.6768C49.0204 19.3353 47.9328 18.2477 46.5912 18.2477Z" fill="#FAC600"/>
<path d="M16.891 35.5723H6.33396C5.79732 35.5723 5.3623 36.0073 5.3623 36.5439V41.6502C5.3623 42.1868 5.79732 42.6219 6.33396 42.6219H16.891C17.4277 42.6219 17.8627 42.1868 17.8627 41.6502V36.5439C17.8627 36.0073 17.4277 35.5723 16.891 35.5723Z" fill="#EFEDEF"/>
<path d="M49.0202 13.0184C49.4227 13.0184 49.749 12.6921 49.749 12.2896V9.0369C49.749 7.29569 48.3323 5.87901 46.5911 5.87901H36.7539H26.4625C26.06 5.87901 25.7337 6.20529 25.7337 6.60775C25.7337 7.01021 26.06 7.3365 26.4625 7.3365H34.0922C33.9537 7.55347 33.84 7.79279 33.7586 8.03677L32.5357 11.699H12.9951H3.15789C2.55848 11.699 1.96217 11.8734 1.45749 12.1968V3.21695C1.45749 2.2794 2.22034 1.51655 3.15789 1.51655H12.9951C13.7277 1.51655 14.3759 1.98343 14.608 2.67836L15.9971 6.83852C16.0964 7.13595 16.3748 7.3364 16.6884 7.3364H23.2866C23.6891 7.3364 24.0154 7.01012 24.0154 6.60766C24.0154 6.20519 23.6891 5.87891 23.2866 5.87891H17.2133L15.9905 2.21663C15.5596 0.926069 14.3558 0.05896 12.9952 0.05896H3.15789C1.41668 0.0590571 0 1.47564 0 3.21695V14.8569V24.753C0 25.1555 0.326283 25.4818 0.728745 25.4818C1.13121 25.4818 1.45749 25.1555 1.45749 24.753V14.8569C1.45749 13.9192 2.22034 13.1565 3.15789 13.1565H12.9951C13.0867 13.1565 13.1769 13.1637 13.2652 13.1778C13.8833 13.2767 14.4049 13.7102 14.6079 14.3183L15.997 18.4784C16.0963 18.7759 16.3747 18.9763 16.6883 18.9763H46.5911C47.5286 18.9763 48.2915 19.7392 48.2915 20.6767V44.7829C48.2915 45.7205 47.5286 46.4833 46.5911 46.4833H3.15789C2.22034 46.4833 1.45749 45.7205 1.45749 44.7829V27.929C1.45749 27.5265 1.13121 27.2002 0.728745 27.2002C0.326283 27.2002 0 27.5265 0 27.929V44.783C0 46.5242 1.41668 47.9409 3.15789 47.9409H46.5911C48.3323 47.9409 49.749 46.5242 49.749 44.783V20.6768V15.4656C49.749 15.0631 49.4227 14.7369 49.0202 14.7369C48.6178 14.7369 48.2915 15.0631 48.2915 15.4656V18.0168C47.7868 17.6933 47.1905 17.5189 46.5911 17.5189H17.2132L15.9904 13.8567C15.909 13.6127 15.7952 13.3736 15.6567 13.1565H33.0607C33.3351 13.1565 33.5825 13.003 33.7066 12.7654C33.7243 12.7314 33.7395 12.6958 33.752 12.6586L35.1411 8.49841C35.3731 7.80348 36.0213 7.3366 36.7539 7.3366H46.5911C47.5286 7.3366 48.2915 8.09945 48.2915 9.037V12.2897C48.2915 12.6921 48.6178 13.0184 49.0202 13.0184Z" fill="black"/>
<path fill-rule="evenodd" clip-rule="evenodd" d="M18.5912 41.6502C18.5912 42.5877 17.8283 43.3506 16.8908 43.3506H6.33371C5.39615 43.3506 4.6333 42.5877 4.6333 41.6502V36.5439C4.6333 35.6064 5.39615 34.8435 6.33371 34.8435H16.8908C17.8283 34.8435 18.5912 35.6064 18.5912 36.5439V41.6502ZM6.09079 36.5439V41.6502C6.09079 41.7841 6.19971 41.8931 6.33371 41.8931H16.8908C17.0247 41.8931 17.1337 41.7841 17.1337 41.6502V36.5439C17.1337 36.41 17.0247 36.301 16.8908 36.301H6.33371C6.19981 36.301 6.09079 36.41 6.09079 36.5439Z" fill="black"/>
<path d="M8.56322 39.8258H14.6877C15.0901 39.8258 15.4164 39.4995 15.4164 39.097C15.4164 38.6946 15.0901 38.3683 14.6877 38.3683H8.56322C8.16076 38.3683 7.83447 38.6946 7.83447 39.097C7.83447 39.4995 8.16076 39.8258 8.56322 39.8258Z" fill="black"/>
</svg>
