<svg width="14" height="16" viewBox="0 0 14 16" fill="none" xmlns="http://www.w3.org/2000/svg">
<path d="M1.00428 5.17383C0.729072 5.17383 0.495571 5.2698 0.303628 5.46174C0.111686 5.65368 0.015686 5.88401 0.015686 6.15283V10.2803C0.015686 10.5559 0.111657 10.7892 0.303628 10.9811C0.495571 11.1731 0.729072 11.2691 1.00428 11.2691C1.27928 11.2691 1.51137 11.1731 1.70034 10.9811C1.88893 10.7892 1.98348 10.5559 1.98348 10.2803V6.15283C1.98348 5.88398 1.88751 5.65368 1.69554 5.46174C1.50357 5.2698 1.2731 5.17383 1.00428 5.17383Z" fill="black"/>
<path fill-rule="evenodd" clip-rule="evenodd" d="M8.95221 1.4685L9.63374 0.211257C9.67848 0.128022 9.66257 0.0641958 9.58586 0.0193149C9.5026 -0.0193855 9.43862 0.000224634 9.39392 0.0767589L8.70286 1.34405C8.09477 1.0752 7.45162 0.940528 6.77341 0.940528C6.09506 0.940528 5.45185 1.07523 4.844 1.34405L4.15291 0.0767589C4.108 0.000224634 4.04403 -0.0192122 3.96096 0.0193149C3.88408 0.0643979 3.86817 0.128022 3.91308 0.211257L4.59464 1.4685C3.90355 1.82093 3.35314 2.31176 2.94361 2.94206C2.53408 3.5727 2.32922 4.26186 2.32922 5.01074H11.208C11.208 4.26203 11.0031 3.57285 10.5936 2.94206C10.184 2.31176 9.63678 1.82093 8.95221 1.4685ZM5.01191 3.29718C4.93821 3.37105 4.85018 3.40782 4.74785 3.40782C4.64532 3.40782 4.55909 3.37105 4.48873 3.29718C4.41838 3.22365 4.3832 3.13596 4.3832 3.03329C4.3832 2.93097 4.41838 2.84311 4.48873 2.76941C4.55909 2.69588 4.64553 2.65911 4.74785 2.65911C4.85018 2.65911 4.93821 2.69588 5.01191 2.76941C5.08544 2.84329 5.12238 2.93097 5.12238 3.03329C5.12218 3.13579 5.08527 3.22365 5.01191 3.29718ZM8.79862 3.40782C8.90078 3.40782 8.98722 3.37105 9.05771 3.29718C9.1281 3.22365 9.16325 3.13579 9.16325 3.03329C9.16325 2.93097 9.12813 2.84329 9.05771 2.76941C8.98719 2.69588 8.90095 2.65911 8.79862 2.65911C8.69607 2.65911 8.60807 2.69588 8.53451 2.76941C8.46083 2.84311 8.42407 2.93097 8.42407 3.03329C8.42407 3.13596 8.46083 3.22365 8.53451 3.29718C8.60807 3.37105 8.69607 3.40782 8.79862 3.40782Z" fill="black"/>
<path d="M2.36737 11.7489C2.36737 12.0435 2.4697 12.2929 2.67437 12.4976C2.87923 12.7023 3.12864 12.8046 3.42308 12.8046H4.13344L4.14317 14.9838C4.14317 15.2589 4.23914 15.4926 4.43108 15.6846C4.62302 15.8766 4.85352 15.9725 5.12217 15.9725C5.3972 15.9725 5.63085 15.8766 5.82282 15.6846C6.01479 15.4926 6.11076 15.259 6.11076 14.9838V12.8048H7.43536V14.9838C7.43536 15.2589 7.5313 15.4926 7.72327 15.6846C7.91524 15.8766 8.14868 15.9725 8.42392 15.9725C8.69895 15.9725 8.9326 15.8766 9.12457 15.6846C9.31654 15.4926 9.41248 15.259 9.41248 14.9838V12.8048H10.1324C10.4203 12.8048 10.6665 12.7024 10.8716 12.4978C11.0763 12.2931 11.1786 12.0437 11.1786 11.7491V5.35596H2.36737V11.7489Z" fill="black"/>
<path d="M12.5422 5.17383C12.2734 5.17383 12.0431 5.26838 11.8511 5.45698C11.6591 5.64591 11.5632 5.878 11.5632 6.15283V10.2803C11.5632 10.5559 11.6591 10.7892 11.8511 10.9811C12.0431 11.1731 12.2735 11.2691 12.5422 11.2691C12.8172 11.2691 13.0509 11.1731 13.2429 10.9811C13.4348 10.7892 13.5308 10.5559 13.5308 10.2803V6.15283C13.5308 5.87797 13.4348 5.64591 13.2429 5.45698C13.0509 5.26838 12.8172 5.17383 12.5422 5.17383Z" fill="black"/>
</svg>
