<svg width="20" height="20" viewBox="0 0 20 20" fill="none" xmlns="http://www.w3.org/2000/svg">
<g opacity="0.4">
<path fill-rule="evenodd" clip-rule="evenodd" d="M2 10C2 8.897 2.897 8 4 8C5.103 8 6 8.897 6 10C6 11.103 5.103 12 4 12C2.897 12 2 11.103 2 10ZM10 8C8.897 8 8 8.897 8 10C8 11.103 8.897 12 10 12C11.103 12 12 11.103 12 10C12 8.897 11.103 8 10 8ZM16 8C14.897 8 14 8.897 14 10C14 11.103 14.897 12 16 12C17.103 12 18 11.103 18 10C18 8.897 17.103 8 16 8Z" fill="#919EAB"/>
<mask id="mask0" style="mask-type:alpha" maskUnits="userSpaceOnUse" x="2" y="8" width="16" height="4">
<path fill-rule="evenodd" clip-rule="evenodd" d="M2 10C2 8.897 2.897 8 4 8C5.103 8 6 8.897 6 10C6 11.103 5.103 12 4 12C2.897 12 2 11.103 2 10ZM10 8C8.897 8 8 8.897 8 10C8 11.103 8.897 12 10 12C11.103 12 12 11.103 12 10C12 8.897 11.103 8 10 8ZM16 8C14.897 8 14 8.897 14 10C14 11.103 14.897 12 16 12C17.103 12 18 11.103 18 10C18 8.897 17.103 8 16 8Z" fill="white"/>
</mask>
<g mask="url(#mask0)">
<rect width="21" height="21" fill="#919EAB"/>
</g>
</g>
</svg>
