<svg width="22" height="22" viewBox="0 0 22 22" fill="none" xmlns="http://www.w3.org/2000/svg">
<path fill-rule="evenodd" clip-rule="evenodd" d="M17.5984 0H4.36822C1.95961 0 0 1.95961 0 4.36833V17.5984C0 20.0071 1.95961 21.9667 4.36822 21.9667H17.5984C20.007 21.9667 21.9666 20.0071 21.9666 17.5984V4.36833C21.9666 1.95961 20.007 0 17.5984 0ZM10.4123 12.9572C10.4123 13.9334 10.1276 14.6528 9.55814 15.1152C8.98853 15.5777 8.24563 15.809 7.32938 15.809C6.36154 15.809 5.62732 15.5693 5.12636 15.0896C4.62536 14.6101 4.37488 14.0706 4.37488 13.471C4.37488 13.2228 4.43469 13.0515 4.55478 12.9572C4.67461 12.8631 4.88015 12.8159 5.17135 12.8159C5.50541 12.8159 5.73217 12.8608 5.85221 12.9508C5.97209 13.0407 6.03206 13.1928 6.03206 13.4068C6.03206 13.698 6.15189 13.927 6.3917 14.094C6.63136 14.261 6.95694 14.3445 7.36802 14.3445C7.84755 14.3445 8.19653 14.2353 8.41492 14.0169C8.63331 13.7985 8.74253 13.4453 8.74253 12.9572V12.7131C8.74253 11.8996 8.27148 11.4927 7.32948 11.4927C7.00391 11.4927 6.84127 11.2744 6.84127 10.8376C6.84127 10.4009 7.00692 10.1825 7.33843 10.1825C7.71217 10.1825 8.00119 10.0997 8.20512 9.93344C8.40905 9.76722 8.51124 9.43306 8.51124 8.93044C8.51124 8.18098 8.13428 7.80605 7.38082 7.80605C6.61852 7.80605 6.23749 8.09142 6.23749 8.66207C6.23749 9.08798 5.97199 9.30095 5.44107 9.30095C5.08138 9.30095 4.84796 9.25201 4.74097 9.15403C4.63378 9.05609 4.58037 8.86662 4.58037 8.58541C4.58037 8.33613 4.62733 8.08908 4.72168 7.84396C4.81582 7.5991 4.96352 7.36043 5.16485 7.12821C5.36592 6.89619 5.65941 6.70693 6.0448 6.56078C6.43019 6.41464 6.87976 6.34157 7.39361 6.34157C9.20905 6.34157 10.1169 7.11094 10.1169 8.64917C10.1169 9.161 10.0282 9.60677 9.85096 9.98634C9.67371 10.3661 9.42526 10.6284 9.10545 10.7733C9.97656 11.1159 10.4123 11.7625 10.4123 12.713V12.9572H10.4123ZM16.7839 15.0254C17.3318 14.5545 17.606 13.8094 17.606 12.7902V9.28327C17.606 8.2642 17.3318 7.51916 16.7839 7.04806C16.2358 6.57722 15.5036 6.34157 14.5873 6.34157H12.3136C12.0994 6.34157 11.9237 6.39295 11.7869 6.49572C11.6498 6.59844 11.5813 6.71848 11.5813 6.85537V15.218C11.5813 15.3551 11.6498 15.4749 11.7869 15.5777C11.9238 15.6805 12.0994 15.7319 12.3136 15.7319H14.5873C15.5035 15.7319 16.2357 15.4965 16.7839 15.0254Z" fill="black"/>
<path d="M14.5874 7.80591H13.2515V14.2674H14.5874C15.4867 14.2674 15.9362 13.775 15.9362 12.7901V9.28318C15.9362 8.29844 15.4867 7.80591 14.5874 7.80591Z" fill="black"/>
</svg>
