<svg width="56" height="28" viewBox="0 0 56 28" fill="none" xmlns="http://www.w3.org/2000/svg">
<path d="M51.1281 13.8008H0.265717V23.4043C0.265717 25.5558 2.00985 27.3011 4.16249 27.3011H51.6728C53.8243 27.3011 55.5696 25.5569 55.5696 23.4043V18.2411C55.5684 15.7889 53.5803 13.8008 51.1281 13.8008Z" fill="#333333"/>
<path d="M6.84774 23.0321V22.7921C6.84774 22.6241 6.93174 22.5401 7.09974 22.5401H8.11974C8.28774 22.5401 8.37174 22.6241 8.37174 22.7921V22.8881C8.37174 23.1921 8.43174 23.4001 8.55174 23.5121C8.67174 23.6241 8.89174 23.6801 9.21174 23.6801H9.77574C10.0877 23.6801 10.3037 23.6201 10.4237 23.5001C10.5517 23.3801 10.6157 23.1561 10.6157 22.8281V22.6841C10.6157 22.4521 10.5197 22.2761 10.3277 22.1561C10.1437 22.0281 9.91174 21.9521 9.63174 21.9281C9.35174 21.9041 9.04774 21.8601 8.71974 21.7961C8.39974 21.7241 8.09974 21.6361 7.81974 21.5321C7.53974 21.4201 7.30374 21.2081 7.11174 20.8961C6.92774 20.5761 6.83574 20.1681 6.83574 19.6721V19.2521C6.83574 18.6281 7.01174 18.1441 7.36374 17.8001C7.71574 17.4561 8.20374 17.2841 8.82774 17.2841H10.0277C10.6597 17.2841 11.1517 17.4561 11.5037 17.8001C11.8557 18.1441 12.0317 18.6281 12.0317 19.2521V19.4801C12.0317 19.6481 11.9477 19.7321 11.7797 19.7321H10.7597C10.5917 19.7321 10.5077 19.6481 10.5077 19.4801V19.4081C10.5077 19.0961 10.4477 18.8841 10.3277 18.7721C10.2077 18.6601 9.98774 18.6041 9.66774 18.6041H9.19974C8.87174 18.6041 8.64774 18.6681 8.52774 18.7961C8.41574 18.9161 8.35974 19.1561 8.35974 19.5161V19.7441C8.35974 20.1201 8.68774 20.3361 9.34374 20.3921C10.0237 20.4481 10.6277 20.5841 11.1557 20.8001C11.4357 20.9201 11.6677 21.1361 11.8517 21.4481C12.0437 21.7521 12.1397 22.1441 12.1397 22.6241V23.0321C12.1397 23.6561 11.9637 24.1401 11.6117 24.4841C11.2597 24.8281 10.7717 25.0001 10.1477 25.0001H8.83974C8.21574 25.0001 7.72774 24.8281 7.37574 24.4841C7.02374 24.1401 6.84774 23.6561 6.84774 23.0321Z" fill="white"/>
<path d="M16.8965 25.0001H15.8885C15.7125 25.0001 15.6245 24.9161 15.6245 24.7481V18.7361C15.6245 18.6481 15.5805 18.6041 15.4925 18.6041H14.1245C13.9565 18.6041 13.8725 18.5201 13.8725 18.3521V17.5361C13.8725 17.3681 13.9565 17.2841 14.1245 17.2841H18.6605C18.8285 17.2841 18.9125 17.3681 18.9125 17.5361V18.3521C18.9125 18.5201 18.8285 18.6041 18.6605 18.6041H17.2925C17.1965 18.6041 17.1485 18.6481 17.1485 18.7361V24.7481C17.1485 24.9161 17.0645 25.0001 16.8965 25.0001Z" fill="white"/>
<path d="M22.1008 25.0001H21.0808C20.9128 25.0001 20.8288 24.9161 20.8288 24.7481V17.5361C20.8288 17.3681 20.9128 17.2841 21.0808 17.2841H23.9368C24.5608 17.2841 25.0488 17.4561 25.4008 17.8001C25.7528 18.1441 25.9288 18.6281 25.9288 19.2521V20.1881C25.9288 21.0921 25.5728 21.6921 24.8608 21.9881V22.0361L26.1448 24.7121C26.2168 24.9041 26.1488 25.0001 25.9408 25.0001H24.9688C24.8248 25.0001 24.7208 24.9841 24.6568 24.9521C24.5928 24.9201 24.5408 24.8521 24.5008 24.7481L23.3008 22.1561H22.4968C22.4008 22.1561 22.3528 22.2001 22.3528 22.2881V24.7481C22.3528 24.9161 22.2688 25.0001 22.1008 25.0001ZM22.4848 20.9321H23.6608C23.9168 20.9321 24.1048 20.8801 24.2248 20.7761C24.3448 20.6641 24.4048 20.4881 24.4048 20.2481V19.3121C24.4048 19.0641 24.3448 18.8841 24.2248 18.7721C24.1048 18.6601 23.9168 18.6041 23.6608 18.6041H22.4848C22.3968 18.6041 22.3528 18.6481 22.3528 18.7361V20.8001C22.3528 20.8881 22.3968 20.9321 22.4848 20.9321Z" fill="white"/>
<path d="M32.5673 25.0001H28.6433C28.4753 25.0001 28.3913 24.9161 28.3913 24.7481V17.5361C28.3913 17.3681 28.4753 17.2841 28.6433 17.2841H32.5673C32.7273 17.2841 32.8073 17.3681 32.8073 17.5361V18.3521C32.8073 18.5201 32.7273 18.6041 32.5673 18.6041H30.0593C29.9633 18.6041 29.9153 18.6481 29.9153 18.7361V20.2961C29.9153 20.3841 29.9633 20.4281 30.0593 20.4281H32.1113C32.2793 20.4281 32.3633 20.5121 32.3633 20.6801V21.4961C32.3633 21.6641 32.2793 21.7481 32.1113 21.7481H30.0593C29.9633 21.7481 29.9153 21.7921 29.9153 21.8801V23.5481C29.9153 23.6361 29.9633 23.6801 30.0593 23.6801H32.5673C32.7273 23.6801 32.8073 23.7641 32.8073 23.9321V24.7481C32.8073 24.9161 32.7273 25.0001 32.5673 25.0001Z" fill="white"/>
<path d="M35.9375 25.0001H34.7855C34.6415 25.0001 34.5935 24.9161 34.6415 24.7481L36.5375 17.5361C36.5935 17.3681 36.7135 17.2841 36.8975 17.2841H38.4935C38.6935 17.2841 38.8135 17.3681 38.8535 17.5361L40.7495 24.7481C40.7975 24.9161 40.7495 25.0001 40.6055 25.0001H39.4535C39.3655 25.0001 39.3055 24.9841 39.2735 24.9521C39.2415 24.9121 39.2175 24.8441 39.2015 24.7481L38.8655 23.4281H36.5255L36.1895 24.7481C36.1735 24.8441 36.1455 24.9121 36.1055 24.9521C36.0735 24.9841 36.0175 25.0001 35.9375 25.0001ZM37.6775 18.7361L36.8135 22.2041H38.5895L37.7255 18.7361H37.6775Z" fill="white"/>
<path d="M47.9372 17.2841H49.7132C49.8812 17.2841 49.9652 17.3681 49.9652 17.5361V24.7481C49.9652 24.9161 49.8812 25.0001 49.7132 25.0001H48.7292C48.5612 25.0001 48.4772 24.9161 48.4772 24.7481V19.0601H48.4292L47.2052 23.0801C47.1572 23.2401 47.0572 23.3201 46.9052 23.3201H45.8972C45.7452 23.3201 45.6452 23.2401 45.5972 23.0801L44.3492 19.0481H44.3012V24.7481C44.3012 24.8441 44.2852 24.9121 44.2532 24.9521C44.2212 24.9841 44.1532 25.0001 44.0492 25.0001H43.0652C42.8972 25.0001 42.8132 24.9161 42.8132 24.7481V17.5361C42.8132 17.3681 42.8972 17.2841 43.0652 17.2841H44.8532C44.9652 17.2841 45.0412 17.3401 45.0812 17.4521L46.3532 21.6881H46.4252L47.7092 17.4521C47.7332 17.3401 47.8092 17.2841 47.9372 17.2841Z" fill="white"/>
<path d="M35.3776 0.300781H4.1625C2.00985 0.300781 0.265717 2.04491 0.265717 4.19756V13.8011H39.2732V4.19756C39.2732 2.04491 37.5291 0.300781 35.3776 0.300781Z" fill="#D90000"/>
<path d="M7.81023 11H4.22859C4.07617 11 3.99997 10.9238 3.99997 10.7714V4.22862C3.99997 4.07621 4.07617 4 4.22859 4H5.15394C5.30635 4 5.38255 4.07621 5.38255 4.22862V9.67185C5.38255 9.75169 5.4261 9.7916 5.51319 9.7916H7.81023C7.95539 9.7916 8.02796 9.87144 8.02796 10.0311V10.7714C8.02796 10.9238 7.95539 11 7.81023 11Z" fill="white"/>
<path d="M11.2346 4.22862V10.7714C11.2346 10.9238 11.1584 11 11.006 11H10.0806C9.92822 11 9.85201 10.9238 9.85201 10.7714V4.22862C9.85201 4.07621 9.92822 4 10.0806 4H11.006C11.1584 4 11.2346 4.07621 11.2346 4.22862Z" fill="white"/>
<path d="M16.4594 11H15.0333C14.8809 11 14.7901 10.9238 14.7611 10.7714L13.0737 4.25039C13.0229 4.08346 13.0955 4 13.2914 4H14.3148C14.4599 4 14.547 4.07621 14.576 4.22862L15.7191 9.58476H15.7627L16.9057 4.22862C16.9348 4.07621 17.0219 4 17.167 4H18.1903C18.3718 4 18.4444 4.08346 18.4081 4.25039L16.7207 10.7714C16.6844 10.9238 16.5973 11 16.4594 11Z" fill="white"/>
<path d="M23.98 11H20.4201C20.2677 11 20.1915 10.9238 20.1915 10.7714V4.22862C20.1915 4.07621 20.2677 4 20.4201 4H23.98C24.1251 4 24.1977 4.07621 24.1977 4.22862V4.9689C24.1977 5.12131 24.1251 5.19751 23.98 5.19751H21.7047C21.6176 5.19751 21.574 5.23743 21.574 5.31726V6.7325C21.574 6.81234 21.6176 6.85226 21.7047 6.85226H23.5663C23.7187 6.85226 23.7949 6.92846 23.7949 7.08087V7.82115C23.7949 7.97356 23.7187 8.04977 23.5663 8.04977H21.7047C21.6176 8.04977 21.574 8.08968 21.574 8.16952V9.68274C21.574 9.76257 21.6176 9.80249 21.7047 9.80249H23.98C24.1251 9.80249 24.1977 9.87869 24.1977 10.0311V10.7714C24.1977 10.9238 24.1251 11 23.98 11Z" fill="white"/>
<path d="M31.3389 10.445C33.2146 10.445 34.7352 8.92444 34.7352 7.04869C34.7352 5.17294 33.2146 3.65234 31.3389 3.65234C29.4631 3.65234 27.9425 5.17294 27.9425 7.04869C27.9425 8.92444 29.4631 10.445 31.3389 10.445Z" fill="white"/>
</svg>
