<svg width="16" height="12" viewBox="0 0 16 12" fill="none" xmlns="http://www.w3.org/2000/svg">
<path fill-rule="evenodd" clip-rule="evenodd" d="M2.26437 0.0218506H13.7356C14.9841 0.0218506 16 1.03779 16 2.28654V9.46341C16 10.7122 14.9841 11.7281 13.7356 11.7281H2.26437C1.01594 11.7281 0 10.7122 0 9.46341V2.28654C0 1.03779 1.01594 0.0218506 2.26437 0.0218506ZM3.42438 6.00685L5.80656 3.62466C5.98938 3.44154 5.98938 3.14466 5.80656 2.96185C5.62344 2.77873 5.32656 2.77873 5.14344 2.96185L2.43 5.67529C2.24687 5.85841 2.24687 6.15498 2.43 6.3381L4.88 8.7881C5.06312 8.97123 5.36 8.97123 5.54281 8.7881C5.72594 8.60529 5.72594 8.30841 5.54281 8.12529L3.42438 6.00685ZM9.67312 2.52185L7.19438 9.54029C7.10812 9.78466 6.84031 9.91248 6.59625 9.82623C6.35219 9.73998 6.22406 9.47216 6.31031 9.2281L8.78906 2.20966C8.87531 1.9656 9.14281 1.83748 9.38719 1.92373C9.63125 2.00998 9.75937 2.27779 9.67312 2.52185ZM10.8566 8.7881L13.57 6.07466C13.7531 5.89154 13.7531 5.59498 13.57 5.41185L11.12 2.96185C10.9369 2.77873 10.64 2.77873 10.4572 2.96185C10.2741 3.14466 10.2741 3.44154 10.4572 3.62466L12.5756 5.7431L10.1934 8.12529C10.0106 8.30841 10.0106 8.60529 10.1934 8.7881C10.3766 8.97123 10.6734 8.97123 10.8566 8.7881Z" fill="black"/>
</svg>
