<svg width="27" height="26" viewBox="0 0 27 26" fill="none" xmlns="http://www.w3.org/2000/svg">
<g filter="url(#filter0_d_0_20444)">
<path fill-rule="evenodd" clip-rule="evenodd" d="M13.7937 2C7.72793 2 2.7937 6.9347 2.7937 13C2.7937 19.0653 7.72793 24 13.7937 24C19.8595 24 24.7937 19.0653 24.7937 13C24.7937 6.9347 19.8595 2 13.7937 2ZM18.1667 13.3854L11.75 17.5104C11.6748 17.5592 11.588 17.5833 11.502 17.5833C11.4269 17.5833 11.3508 17.5645 11.2827 17.5274C11.135 17.4468 11.0437 17.2928 11.0437 17.125V8.875C11.0437 8.70716 11.135 8.55316 11.2827 8.4726C11.4278 8.39293 11.6095 8.39783 11.75 8.48961L18.1667 12.6146C18.2974 12.6987 18.377 12.8442 18.377 13C18.377 13.1558 18.2974 13.3012 18.1667 13.3854Z" fill="black"/>
</g>
<defs>
<filter id="filter0_d_0_20444" x="0.793701" y="0" width="26" height="26" filterUnits="userSpaceOnUse" color-interpolation-filters="sRGB">
<feFlood flood-opacity="0" result="BackgroundImageFix"/>
<feColorMatrix in="SourceAlpha" type="matrix" values="0 0 0 0 0 0 0 0 0 0 0 0 0 0 0 0 0 0 127 0" result="hardAlpha"/>
<feOffset/>
<feGaussianBlur stdDeviation="1"/>
<feColorMatrix type="matrix" values="0 0 0 0 0 0 0 0 0 0 0 0 0 0 0 0 0 0 0.2 0"/>
<feBlend mode="normal" in2="BackgroundImageFix" result="effect1_dropShadow_0_20444"/>
<feBlend mode="normal" in="SourceGraphic" in2="effect1_dropShadow_0_20444" result="shape"/>
</filter>
</defs>
</svg>
