<svg width="22" height="22" viewBox="0 0 22 22" fill="none" xmlns="http://www.w3.org/2000/svg">
<circle cx="11" cy="11" r="11" fill="url(#paint0_linear)"/>
<path fill-rule="evenodd" clip-rule="evenodd" d="M4.95185 8.63264C4.29567 7.58893 4.43055 6.20086 5.31554 5.31554C6.20056 4.43094 7.58867 4.29507 8.63272 4.9518C9.25405 4.7086 9.91929 4.55241 10.6172 4.51172V7.59275C8.99001 7.77378 7.77305 8.99538 7.59275 10.6172H4.51172C4.55241 9.91925 4.70864 9.25401 4.95185 8.63264ZM5.85679 5.85686C5.35397 6.35994 5.18597 7.09221 5.37404 7.74585C5.94355 6.76268 6.7627 5.94348 7.746 5.37402C7.09236 5.18573 6.36021 5.35399 5.85679 5.85686ZM14.4071 10.6172H17.4882C17.2964 7.32974 14.6701 4.70349 11.3827 4.51172V7.59275C13.0047 7.77318 14.2262 8.99001 14.4071 10.6172ZM11.3829 14.4071C13.0101 14.2262 14.227 13.0048 14.4073 11.3828V11.3827H17.4883C17.4476 12.0807 17.2914 12.7459 17.0482 13.3673C17.7044 14.411 17.5695 15.7991 16.6845 16.6844C16.1675 17.2011 15.4778 17.4657 14.7851 17.4657C14.2915 17.4657 13.7997 17.3227 13.3651 17.0491C12.7444 17.2917 12.0799 17.4476 11.3829 17.4883V14.4071ZM16.1431 16.1431C15.6397 16.6457 14.9076 16.8139 14.2542 16.6259C15.2373 16.0564 16.0564 15.2373 16.6259 14.2541C16.814 14.9078 16.6459 15.6401 16.1431 16.1431ZM4.51172 11.3828H7.59275C7.77365 13.01 8.99516 14.2268 10.6172 14.4071V17.4883C7.32978 17.2965 4.70349 14.6702 4.51172 11.3828Z" fill="url(#paint1_linear)"/>
<defs>
<linearGradient id="paint0_linear" x1="22" y1="22" x2="22" y2="0" gradientUnits="userSpaceOnUse">
<stop stop-color="#FFBEF9"/>
<stop offset="1" stop-color="#FFF1FF"/>
</linearGradient>
<linearGradient id="paint1_linear" x1="17.4883" y1="17.4883" x2="17.4883" y2="4.51172" gradientUnits="userSpaceOnUse">
<stop stop-color="#FF81FF"/>
<stop offset="1" stop-color="#A93AFF"/>
</linearGradient>
</defs>
</svg>
