<svg width="21" height="32" viewBox="0 0 21 32" fill="none" xmlns="http://www.w3.org/2000/svg">
<path d="M2.99288 9.46057C1.64763 9.46057 0.557129 10.5511 0.557129 11.8963C0.557129 13.2416 1.64763 14.3321 2.99288 14.3321H4.11075V9.46057H2.99288Z" fill="#F4C49D"/>
<path d="M17.757 9.46057C19.1023 9.46057 20.1928 10.5511 20.1928 11.8963C20.1928 13.2416 19.1023 14.3321 17.757 14.3321H16.6392V9.46057H17.757Z" fill="#F4C49D"/>
<rect x="8.27588" y="17.5861" width="4.19819" height="4.759" fill="#F4C49D"/>
<path opacity="0.15" d="M8.27588 20.5274C8.94938 20.6904 9.65225 20.7774 10.3751 20.7774C11.098 20.7774 11.8008 20.6904 12.4744 20.5274V17.3987H8.27594L8.27588 20.5274Z" fill="#333333"/>
<path d="M3.39336 5.09864C2.99817 6.01814 2.7793 7.03121 2.7793 8.09552V12.0365C2.7793 16.2316 6.18011 19.6324 10.3752 19.6324C14.5704 19.6324 17.9712 16.2316 17.9712 12.0365V8.09552C17.9712 7.02202 17.7485 6.00058 17.3468 5.07471L3.39336 5.09864Z" fill="#FCCDA2"/>
<path d="M14.4657 21.679H6.28419C3.12119 21.679 0.557129 24.243 0.557129 27.406V31.5005H20.1927V27.406C20.1928 24.2431 17.6286 21.679 14.4657 21.679Z" fill="#224973"/>
<path d="M4.11063 22.1071C2.02582 22.9631 0.557129 25.0126 0.557129 27.4061V31.5005H4.11063V22.1071Z" fill="#FFF9F2"/>
<path d="M16.6392 22.1071C18.724 22.9631 20.1927 25.0126 20.1927 27.4061V31.5005H16.6392V22.1071Z" fill="#FFF9F2"/>
<path d="M10.3751 28.7217C10.3751 28.7217 13.716 24.033 15.3454 21.7463C15.0586 21.702 14.7648 21.679 14.4656 21.679H6.28416C5.9851 21.679 5.69147 21.7021 5.40479 21.7462L10.3751 28.7217Z" fill="#FFF9F2"/>
<path d="M10.8662 21.679L11.6461 22.7445L10.8662 24.1072H9.88388L9.104 22.7445L9.88388 21.679H10.8662Z" fill="#FF99AA"/>
<path d="M11.5576 27.062L10.8664 24.1072H9.88406L9.19287 27.062L10.3754 28.7217L11.5576 27.062Z" fill="#FF8095"/>
<path d="M10.375 0.499512C6.75079 0.499512 3.71991 3.03782 2.96191 6.43351C3.21904 6.90764 3.72104 7.22957 4.29823 7.22957C5.13729 7.22957 5.81748 6.54939 5.81748 5.71045C5.81748 6.54951 6.49766 7.22957 7.3366 7.22957C8.1756 7.22957 8.85585 6.54939 8.85585 5.71045C8.85585 6.54951 9.53604 7.22957 10.375 7.22957C11.214 7.22957 11.8942 6.54939 11.8942 5.71045C11.8942 6.54951 12.5744 7.22957 13.4134 7.22957C14.2523 7.22957 14.9325 6.54939 14.9325 5.71045C14.9325 6.54951 15.6127 7.22957 16.4517 7.22957C17.0289 7.22957 17.5309 6.90757 17.788 6.43351C17.03 3.03776 13.9992 0.499512 10.375 0.499512Z" fill="#293133"/>
<path opacity="0.1" d="M3.39336 5.09857C2.99817 6.01801 2.7793 7.03114 2.7793 8.09545V12.0364C2.7793 16.2315 6.18011 19.6323 10.3752 19.6323C10.6111 19.6323 10.8442 19.621 11.0746 19.5999C7.20736 19.2469 4.17798 15.9956 4.17798 12.0363V8.09539C4.17798 7.03107 4.39686 6.01801 4.79205 5.09851C4.79211 5.09857 3.39336 5.09857 3.39336 5.09857Z" fill="#333333"/>
<path d="M4.3606 6.43351C5.06929 3.25876 7.76485 0.834012 11.0744 0.531824C10.844 0.510762 10.6109 0.499512 10.375 0.499512C6.75079 0.499512 3.71991 3.03782 2.96191 6.43351C3.21904 6.90764 3.65616 7.22457 4.23335 7.22457L4.3606 6.43351Z" fill="#1C2223"/>
<circle cx="6.81931" cy="10.8462" r="0.983375" fill="#26150C"/>
<circle cx="13.9419" cy="10.8462" r="0.983375" fill="#26150C"/>
<path fill-rule="evenodd" clip-rule="evenodd" d="M20.6617 27.1417C20.6002 26.2613 20.4395 25.3996 20.0227 24.5795C19.3665 23.2882 18.245 22.2633 16.9174 21.6916C15.7179 21.175 14.4955 21.177 13.2243 21.1791L12.9795 21.1794V19.7041C15.2937 18.9176 17.1406 17.111 17.982 14.8226C19.4985 14.71 20.698 13.4411 20.698 11.8964C20.698 10.5445 19.7531 9.37356 18.4762 9.05062V8.0955C18.4762 7.50537 18.4119 6.9155 18.2854 6.34344L18.2813 6.32481C17.8868 4.55744 16.8908 2.95231 15.4768 1.80525C14.0416 0.641062 12.2318 0 10.3805 0C8.52936 0 6.71948 0.641062 5.28442 1.80525C3.87042 2.95244 2.87442 4.55744 2.47961 6.326L2.47636 6.34075C2.34936 6.91431 2.28498 7.50475 2.28498 8.09562V9.05075C1.00805 9.37369 0.0631096 10.5446 0.0631096 11.8965C0.0631096 13.4412 1.26267 14.7101 2.77905 14.8228C3.62048 17.1111 5.46748 18.9178 7.78161 19.7043V21.1795C7.61519 21.1795 7.44858 21.1778 7.28194 21.176H7.28186H7.28177H7.28168H7.28159H7.28151H7.28142H7.28133H7.28125H7.28116H7.28107H7.28098C6.46008 21.1675 5.63847 21.1589 4.83542 21.357C3.68486 21.6408 2.61136 22.2462 1.79036 23.1029C0.65111 24.2918 0.0151096 25.9459 0.0528596 27.5911C0.0728476 28.4618 0.0692944 29.3341 0.0657428 30.2061C0.0643636 30.5447 0.0629846 30.8833 0.0629846 31.2217V31.5005C0.0629846 31.7764 0.286672 32.0001 0.562547 32.0001H4.11611H16.6447H20.1982C20.4741 32.0001 20.6978 31.7764 20.6978 31.5005V29.1276C20.6978 29.0326 20.698 28.9377 20.6982 28.8429C20.6995 28.2722 20.7008 27.7032 20.6617 27.1417ZM18.4811 10.8037V10.8037C18.4786 10.5832 18.4761 10.3631 18.4761 10.1435L18.4763 10.138C18.4769 10.126 18.4783 10.0986 18.4761 10.0977C19.1927 10.3851 19.6989 11.0924 19.6989 11.8963C19.6989 12.7804 19.1032 13.5282 18.292 13.7589C18.295 13.7451 18.2978 13.7313 18.3005 13.7174L18.3005 13.7173L18.3057 13.6918C18.5028 12.7433 18.4919 11.7708 18.4811 10.8037ZM2.28511 10.0977C1.56855 10.3851 1.06236 11.0924 1.06236 11.8963C1.06236 12.7804 1.65811 13.5281 2.46917 13.7589C2.46653 13.7467 2.46409 13.7343 2.46166 13.722L2.45555 13.6917C2.25615 12.7362 2.26792 11.7565 2.27962 10.7827C2.28237 10.5539 2.28511 10.3255 2.28511 10.0977ZM3.61686 31.0009H1.06236V27.406C1.06236 27.3253 1.0648 27.2453 1.06848 27.1656L1.06849 27.1655C1.0693 27.1479 1.07011 27.1302 1.07111 27.1126C1.07555 27.0324 1.0813 26.9524 1.08936 26.8733L1.0898 26.8693C1.09823 26.7869 1.10886 26.7051 1.12111 26.6239L1.1243 26.602C1.36705 25.0361 2.30761 23.6983 3.61686 22.9158V31.0009ZM14.4298 22.1785L14.4298 22.1784V22.1785H14.4298ZM12.4799 22.1785H14.4298L11.7977 25.8724L11.4029 24.1847L12.0852 22.9926C12.1832 22.8214 12.1713 22.6086 12.0548 22.4494L11.8564 22.1785H12.4799ZM10.5821 23.6076H10.1792L9.7043 22.7779L10.143 22.1786H10.6184L11.0571 22.7779L10.5821 23.6076ZM10.3807 27.8608L11.0252 26.9561L10.4754 24.6066H10.2855L9.73598 26.9559L9.9063 27.1949L10.3807 27.8608ZM10.8717 21.1794H9.88948H8.78092V19.9736C8.83223 19.9839 8.88361 19.9932 8.93511 20.0025C9.93973 20.1834 10.9792 20.1743 11.9803 19.9736V21.1794H10.8717ZM10.3806 0.999125C8.7578 0.999125 7.17148 1.561 5.91392 2.58113C4.72798 3.54319 3.87748 4.87219 3.50305 6.34125L3.50923 6.34912C3.87842 6.80825 4.60736 6.84831 5.02442 6.43125C5.09361 6.362 5.15305 6.28281 5.20011 6.19619C5.23155 6.13837 5.25755 6.07725 5.27742 6.01344C5.30717 5.91769 5.3233 5.816 5.3233 5.71056C5.3233 5.43463 5.54698 5.211 5.82286 5.211C6.09873 5.211 6.32242 5.43463 6.32242 5.71056C6.32242 6.27288 6.77986 6.73025 7.34211 6.73025C7.90436 6.73025 8.3618 6.27281 8.3618 5.71056C8.3618 5.43463 8.58548 5.211 8.86136 5.211C9.13723 5.211 9.36092 5.43463 9.36092 5.71056C9.36092 5.81594 9.37698 5.91775 9.4068 6.01344C9.53605 6.42825 9.92367 6.73019 10.3805 6.73019C10.5913 6.73019 10.7874 6.66587 10.9502 6.55581C11.2214 6.37238 11.4001 6.06194 11.4001 5.7105C11.4001 5.43456 11.6238 5.21094 11.8997 5.21094C12.1756 5.21094 12.3992 5.43456 12.3992 5.7105C12.3992 6.27281 12.8567 6.73019 13.4189 6.73019C13.9812 6.73019 14.4386 6.27275 14.4386 5.7105C14.4386 5.43456 14.6623 5.21094 14.9382 5.21094C15.214 5.21094 15.4377 5.43456 15.4377 5.7105C15.4377 6.64894 16.6597 7.08481 17.2517 6.34925L17.258 6.34113C16.8838 4.87213 16.0334 3.54325 14.8473 2.58113C13.5897 1.561 12.0034 0.999125 10.3806 0.999125ZM3.57092 14.0089C3.54073 13.9069 3.51286 13.8041 3.48736 13.7007C3.22491 12.6378 3.24838 11.506 3.27135 10.3981C3.27781 10.0863 3.28423 9.77642 3.28423 9.4705V8.09544C3.28423 7.88613 3.29342 7.67694 3.31173 7.46875C3.73011 7.70456 4.23411 7.78475 4.7048 7.68913C4.92517 7.64437 5.13755 7.56256 5.33098 7.44775C5.37786 7.41994 5.85623 7.07625 5.82305 7.03837C6.19336 7.46144 6.73717 7.72906 7.3423 7.72906C7.94742 7.72906 8.49117 7.46137 8.86155 7.03837C9.23186 7.46144 9.77567 7.72906 10.3808 7.72906C10.6077 7.72906 10.826 7.69144 11.0297 7.62206C11.0977 7.59894 11.1639 7.57231 11.2284 7.54231C11.4862 7.4225 11.7148 7.24988 11.8999 7.03831C12.2702 7.46131 12.814 7.729 13.4192 7.729C14.0242 7.729 14.568 7.46131 14.9384 7.03831C14.9074 7.07369 15.3647 7.40775 15.4095 7.43506C15.5941 7.54763 15.7966 7.63013 16.0074 7.67837C16.4919 7.78919 17.0167 7.71287 17.4497 7.46863C17.468 7.67675 17.4772 7.88606 17.4772 8.09531V9.47038C17.4772 9.61933 17.4776 9.76814 17.4781 9.91673C17.4844 12.2285 17.4906 14.4863 15.9568 16.3931C14.7204 17.9301 12.8448 18.9123 10.8817 19.0796C9.63736 19.1856 8.37361 18.9578 7.25242 18.4048C5.47905 17.5306 4.13042 15.8993 3.57092 14.0089ZM8.90486 22.1784H8.28142V22.1784H6.33192L8.96367 25.8718L9.35836 24.1846L8.67605 22.9926C8.57805 22.8214 8.58998 22.6086 8.70648 22.4494L8.90486 22.1784ZM16.1453 31.0009H4.61592V22.455C4.80255 22.3918 4.99361 22.3383 5.18898 22.2961L9.30536 28.0732L9.97405 29.0116C9.99748 29.0445 10.0245 29.0741 10.0545 29.0999C10.1442 29.1773 10.2597 29.2213 10.3809 29.2213C10.3955 29.2213 10.4099 29.2199 10.4243 29.2187L10.4311 29.2183C10.4344 29.2182 10.4377 29.2181 10.4409 29.2177C10.4527 29.2163 10.464 29.2136 10.4756 29.2114C10.4804 29.2104 10.4852 29.2097 10.49 29.2089C10.4932 29.2084 10.4964 29.2078 10.4995 29.2071C10.5022 29.2064 10.505 29.2055 10.5077 29.2046L10.514 29.2026C10.6232 29.1724 10.7205 29.1061 10.7877 29.0117L15.5727 22.2963C15.768 22.3383 15.9589 22.3918 16.1454 22.4551V31.0009H16.1453V31.0009ZM17.1444 31.0009H19.6988V27.4061C19.6988 27.3254 19.6964 27.2454 19.6927 27.1656C19.6922 27.1553 19.6917 27.145 19.6912 27.1348C19.6909 27.1274 19.6905 27.12 19.69 27.1126C19.6856 27.0324 19.6799 26.9525 19.6718 26.8733L19.6714 26.8693C19.663 26.7869 19.6524 26.7051 19.6401 26.6239L19.6369 26.6021C19.3942 25.0361 18.4536 23.6983 17.1444 22.9159V31.0009Z" fill="#26150C"/>
<path d="M13.2045 15.0853C13.4288 14.9247 13.4804 14.6126 13.3197 14.3884C13.159 14.1641 12.8469 14.1124 12.6226 14.2732C12.154 14.6089 11.2949 14.8174 10.3807 14.8174C9.46607 14.8174 8.60688 14.6087 8.13832 14.2729C7.91413 14.1122 7.602 14.1636 7.44125 14.3878C7.2805 14.6121 7.33194 14.9241 7.55619 15.0849C8.19519 15.5431 9.25107 15.8166 10.3806 15.8166C11.5097 15.8165 12.5653 15.5431 13.2045 15.0853Z" fill="#26150C"/>
</svg>
