<svg width="22" height="22" viewBox="0 0 22 22" fill="none" xmlns="http://www.w3.org/2000/svg">
<path d="M17.875 22H4.125C1.84663 22 0 20.1534 0 17.875V4.125C0 1.84663 1.84663 0 4.125 0H17.875C20.1534 0 22 1.84663 22 4.125V17.875C22 20.1534 20.1534 22 17.875 22Z" fill="#E3F8FA"/>
<path d="M16.4698 12.5146C16.4897 12.4706 16.5 12.4231 16.5 12.375V11C16.5 10.2417 15.8833 9.625 15.125 9.625H12.375V7.5625C12.375 6.80419 11.7583 6.1875 11 6.1875H9.96875C9.779 6.1875 9.625 6.3415 9.625 6.53125V8.15856L8.29538 10.4858C8.26513 10.538 8.25 10.5964 8.25 10.6562V15.4688C8.25 15.6585 8.404 15.8125 8.59375 15.8125H14.1109C14.6541 15.8125 15.1477 15.4914 15.367 14.9958L16.4698 12.5146Z" fill="#26C6DA"/>
<path d="M5.84375 15.8125H7.5625V10.3125H5.84375C5.654 10.3125 5.5 10.4665 5.5 10.6562V15.4688C5.5 15.6585 5.654 15.8125 5.84375 15.8125Z" fill="#8CE1EB"/>
</svg>
