<svg width="24" height="22" viewBox="0 0 24 22" fill="none" xmlns="http://www.w3.org/2000/svg">
<path fill-rule="evenodd" clip-rule="evenodd" d="M21.3859 12.4269C21.3859 11.9483 21.7743 11.5599 22.2529 11.5599C22.7315 11.5599 23.1199 11.9483 23.1199 12.4269V16.4729C23.1199 16.9515 22.7315 17.3399 22.2529 17.3399C21.7743 17.3399 21.3859 16.9515 21.3859 16.4729V15.3169H20.8079V18.7849C20.8079 20.5385 19.3825 21.9639 17.6289 21.9639H5.49097C3.73733 21.9639 2.31199 20.5385 2.31199 18.7849V15.3169H1.73399V16.4729C1.73399 16.9515 1.34558 17.3399 0.866995 17.3399C0.388414 17.3399 0 16.9515 0 16.4729V12.4269C0 11.9483 0.388414 11.5599 0.866995 11.5599C1.34558 11.5599 1.73399 11.9483 1.73399 12.4269V13.5829H2.31199V10.1149C2.31199 8.3613 3.73733 6.93596 5.49097 6.93596H10.6929V4.45173C9.84675 4.1084 9.24795 3.27955 9.24795 2.31199C9.24795 1.03693 10.2849 0 11.5599 0C12.835 0 13.8719 1.03693 13.8719 2.31199C13.8719 3.27955 13.2731 4.1084 12.4269 4.45173V6.93596H17.6289C19.3825 6.93596 20.8079 8.3613 20.8079 10.1149V13.5829H21.3859V12.4269ZM8.09195 10.4039C6.81689 10.4039 5.77997 11.4409 5.77997 12.7159C5.77997 13.991 6.81689 15.0279 8.09195 15.0279C9.36701 15.0279 10.4039 13.991 10.4039 12.7159C10.4039 11.4409 9.36701 10.4039 8.09195 10.4039ZM8.95895 18.4959C8.48037 18.4959 8.09195 18.1075 8.09195 17.6289C8.09195 17.1503 8.48037 16.7619 8.95895 16.7619H14.1609C14.6395 16.7619 15.0279 17.1503 15.0279 17.6289C15.0279 18.1075 14.6395 18.4959 14.1609 18.4959H8.95895ZM12.7159 12.7159C12.7159 13.991 13.7529 15.0279 15.0279 15.0279C16.303 15.0279 17.3399 13.991 17.3399 12.7159C17.3399 11.4409 16.303 10.4039 15.0279 10.4039C13.7529 10.4039 12.7159 11.4409 12.7159 12.7159Z" fill="black"/>
</svg>
