<svg width="26" height="28" viewBox="0 0 26 28" fill="none" xmlns="http://www.w3.org/2000/svg">
<g filter="url(#filter0_d_1139_12888)">
<path fill-rule="evenodd" clip-rule="evenodd" d="M4.25 10.0298C4.25 7.3293 6.61914 5.25 9.4 5.25C10.8335 5.25 12.0948 5.92214 13 6.79183C13.9052 5.92214 15.1665 5.25 16.6 5.25C19.3809 5.25 21.75 7.3293 21.75 10.0298C21.75 11.8797 20.9611 13.5064 19.8682 14.8815C18.7771 16.2543 17.35 17.4193 15.9835 18.366C15.4615 18.7276 14.9335 19.0611 14.4503 19.3072C13.9965 19.5383 13.4747 19.75 13 19.75C12.5253 19.75 12.0035 19.5383 11.5497 19.3072C11.0665 19.0611 10.5385 18.7276 10.0165 18.366C8.65005 17.4193 7.22287 16.2543 6.13182 14.8815C5.03888 13.5064 4.25 11.8797 4.25 10.0298ZM9.4 6.75C7.32075 6.75 5.75 8.2791 5.75 10.0298C5.75 11.4333 6.34579 12.74 7.30609 13.9482C8.26828 15.1588 9.56292 16.2269 10.8707 17.133C11.3656 17.4758 11.8317 17.7675 12.2305 17.9706C12.6586 18.1886 12.9067 18.25 13 18.25C13.0933 18.25 13.3414 18.1886 13.7695 17.9706C14.1683 17.7675 14.6344 17.4758 15.1293 17.133C16.4371 16.2269 17.7317 15.1588 18.6939 13.9482C19.6542 12.74 20.25 11.4333 20.25 10.0298C20.25 8.2791 18.6792 6.75 16.6 6.75C15.4058 6.75 14.2908 7.46342 13.5946 8.36892C13.4526 8.55356 13.2329 8.66176 13 8.66176C12.7671 8.66176 12.5474 8.55356 12.4054 8.36892C11.7092 7.46342 10.5942 6.75 9.4 6.75Z" fill="#A02460"/>
</g>
<defs>
<filter id="filter0_d_1139_12888" x="-3" y="0" width="32" height="32" filterUnits="userSpaceOnUse" color-interpolation-filters="sRGB">
<feFlood flood-opacity="0" result="BackgroundImageFix"/>
<feColorMatrix in="SourceAlpha" type="matrix" values="0 0 0 0 0 0 0 0 0 0 0 0 0 0 0 0 0 0 127 0" result="hardAlpha"/>
<feOffset dy="4"/>
<feGaussianBlur stdDeviation="2"/>
<feComposite in2="hardAlpha" operator="out"/>
<feColorMatrix type="matrix" values="0 0 0 0 0 0 0 0 0 0 0 0 0 0 0 0 0 0 0.25 0"/>
<feBlend mode="normal" in2="BackgroundImageFix" result="effect1_dropShadow_1139_12888"/>
<feBlend mode="normal" in="SourceGraphic" in2="effect1_dropShadow_1139_12888" result="shape"/>
</filter>
</defs>
</svg>
