<svg id="youtube-2" xmlns="http://www.w3.org/2000/svg" width="32" height="23.51" viewBox="0 0 32 23.51">
  <path id="Path" d="M30.64,2.266C29.772.616,28.83.312,26.912.2,25,.058,20.178,0,16,0S7,.058,5.088.194C3.174.312,2.23.613,1.354,2.266.46,3.913,0,6.752,0,11.749v.017c0,4.976.46,7.835,1.354,9.466.876,1.65,1.818,1.949,3.732,2.088,1.916.12,6.736.19,10.918.19s8.992-.071,10.91-.188c1.918-.139,2.86-.438,3.728-2.088C31.544,19.6,32,16.744,32,11.768v-.017C32,6.752,31.544,3.913,30.64,2.266Z" fill="#f44336"/>
  <path id="Path-2" data-name="Path" d="M0,12.824V0L10,6.412Z" transform="translate(12 5.343)" fill="#fafafa"/>
</svg>
