<svg width="70" height="70" viewBox="0 0 70 70" fill="none" xmlns="http://www.w3.org/2000/svg">
<g filter="url(#filter0_d)">
<circle cx="34.4923" cy="33.4921" r="28.4444" fill="black" fill-opacity="0.5"/>
<path d="M46.7785 31.9211L30.4133 19.7169C29.8127 19.2702 29.0155 19.203 28.3572 19.55C27.6937 19.8944 27.2793 20.594 27.2793 21.35V45.7505C27.2793 46.5146 27.6937 47.2115 28.3572 47.5559C28.6378 47.7011 28.9447 47.7738 29.2541 47.7738C29.658 47.7738 30.0671 47.6419 30.4133 47.381L46.7785 35.1874C47.2951 34.7973 47.5967 34.1946 47.5967 33.5543C47.5994 32.9032 47.2899 32.3032 46.7785 31.9211Z" fill="white"/>
<path fill-rule="evenodd" clip-rule="evenodd" d="M3 33.518C3 16.1105 17.1063 2.00415 34.5138 2.00415C51.9171 2.00415 66.0276 16.1105 66.0256 33.518C66.0256 50.9171 51.9171 65.0213 34.5138 65.0213C17.1063 65.0213 3 50.9192 3 33.518ZM8.26419 33.518C8.26419 48.0166 20.0174 59.7635 34.5138 59.7635C49.0082 59.7635 60.7614 48.0166 60.7593 33.518C60.7593 19.0237 49.0082 7.26421 34.5138 7.26421C20.0174 7.26421 8.26419 19.0258 8.26419 33.518Z" fill="white"/>
</g>
<defs>
<filter id="filter0_d" x="0" y="0.00415039" width="69.0254" height="69.0172" filterUnits="userSpaceOnUse" color-interpolation-filters="sRGB">
<feFlood flood-opacity="0" result="BackgroundImageFix"/>
<feColorMatrix in="SourceAlpha" type="matrix" values="0 0 0 0 0 0 0 0 0 0 0 0 0 0 0 0 0 0 127 0" result="hardAlpha"/>
<feOffset dy="1"/>
<feGaussianBlur stdDeviation="1.5"/>
<feColorMatrix type="matrix" values="0 0 0 0 0 0 0 0 0 0 0 0 0 0 0 0 0 0 0.5 0"/>
<feBlend mode="normal" in2="BackgroundImageFix" result="effect1_dropShadow"/>
<feBlend mode="normal" in="SourceGraphic" in2="effect1_dropShadow" result="shape"/>
</filter>
</defs>
</svg>
