<?xml version="1.0" encoding="utf-8"?>
<!-- Generator: Adobe Illustrator 16.0.0, SVG Export Plug-In . SVG Version: 6.00 Build 0)  -->
<!DOCTYPE svg PUBLIC "-//W3C//DTD SVG 1.1//EN" "http://www.w3.org/Graphics/SVG/1.1/DTD/svg11.dtd">
<svg version="1.1" id="Layer_1" xmlns="http://www.w3.org/2000/svg" xmlns:xlink="http://www.w3.org/1999/xlink" x="0px" y="0px"
	 width="12px" height="12px" viewBox="0 0 12 12" enable-background="new 0 0 12 12" xml:space="preserve">
<path fill="none" stroke="#FBA800" stroke-width="0.5" d="M11.258,4.605L11.258,4.605c0.051,0.167,0.001,0.345-0.113,0.453l0,0
	L8.631,7.447L8.529,7.543L8.559,7.68l0.74,3.539l0,0c0.037,0.172-0.027,0.344-0.146,0.438l0,0c-0.115,0.09-0.264,0.096-0.383,0.019
	l-0.002-0.001L5.899,9.816L5.764,9.729L5.627,9.816l-2.87,1.855l0,0c-0.057,0.04-0.118,0.057-0.177,0.057
	c-0.069,0-0.14-0.021-0.205-0.07c-0.12-0.096-0.184-0.266-0.148-0.438l0.742-3.54l0.029-0.137L2.896,7.447L0.381,5.058l0,0
	C0.268,4.951,0.219,4.773,0.27,4.606C0.319,4.44,0.448,4.34,0.582,4.327l0,0L3.909,4l0.152-0.015l0.056-0.142l1.315-3.335l0,0
	c0.064-0.16,0.198-0.246,0.332-0.246c0.134,0,0.268,0.086,0.331,0.245l0,0L7.41,3.842l0.056,0.142L7.618,4l3.327,0.327l0,0
	C11.079,4.34,11.208,4.44,11.258,4.605z"/>
</svg>
