<svg width="22" height="22" viewBox="0 0 22 22" fill="none" xmlns="http://www.w3.org/2000/svg">
<circle cx="11" cy="11" r="11" fill="url(#paint0_linear)"/>
<path fill-rule="evenodd" clip-rule="evenodd" d="M12.0314 5.16323L11.8495 5.34546C14.5984 5.75856 16.7149 8.13297 16.7149 11C16.7149 13.5148 15.0362 15.7712 12.6326 16.4875C12.4281 16.5482 12.2178 16.4304 12.1586 16.2307C12.0991 16.0287 12.2137 15.8163 12.4154 15.7563C14.4982 15.1353 15.9529 13.1797 15.9529 11C15.9529 8.61775 14.2675 6.62353 12.0288 6.14765L12.0314 6.15022C12.1803 6.29928 12.1803 6.54081 12.0314 6.68991C11.8826 6.83901 11.6415 6.83901 11.4927 6.68991L10.7312 5.92704C10.583 5.77897 10.5821 5.53538 10.7312 5.38641L11.4927 4.62354C11.6415 4.47444 11.8826 4.47444 12.0314 4.62354C12.1803 4.7726 12.1803 5.01413 12.0314 5.16323ZM9.96866 15.3101C10.1175 15.161 10.3586 15.161 10.5074 15.3101L11.2694 16.0734C11.4363 16.2406 11.386 16.4962 11.2694 16.6131L10.5074 17.3764C10.3586 17.5256 10.1175 17.5256 9.96866 17.3764C9.81982 17.2273 9.81982 16.9859 9.96866 16.8368L10.1443 16.6608C7.39771 16.246 5.28516 13.8655 5.28516 11C5.28516 8.48527 6.9639 6.22885 9.36744 5.51248C9.57279 5.45176 9.78192 5.56731 9.84143 5.7693C9.90095 5.9713 9.78635 6.18378 9.5847 6.24376C7.50191 6.86471 6.04716 8.82034 6.04716 11C6.04716 13.3823 7.73261 15.3765 9.97124 15.8524L9.96866 15.8498C9.81982 15.7008 9.81982 15.4592 9.96866 15.3101Z" fill="url(#paint1_linear)"/>
<defs>
<linearGradient id="paint0_linear" x1="22" y1="22" x2="22" y2="0" gradientUnits="userSpaceOnUse">
<stop stop-color="#FFC2CC"/>
<stop offset="1" stop-color="#FFF2F4"/>
</linearGradient>
<linearGradient id="paint1_linear" x1="16.7148" y1="17.4883" x2="16.7148" y2="4.51174" gradientUnits="userSpaceOnUse">
<stop stop-color="#FFA68D"/>
<stop offset="1" stop-color="#FD3A84"/>
</linearGradient>
</defs>
</svg>
