<svg width="16" height="12" viewBox="0 0 16 12" fill="none" xmlns="http://www.w3.org/2000/svg">
<path d="M9.56987 2.83759H10.9333C11.0466 2.83759 11.1384 2.74576 11.1384 2.63247C11.1384 2.51918 11.0466 2.42734 10.9333 2.42734H9.56987C9.45659 2.42734 9.36475 2.51918 9.36475 2.63247C9.36475 2.74576 9.45659 2.83759 9.56987 2.83759Z" fill="black"/>
<path d="M12.7983 4.10257H9.56987C9.45659 4.10257 9.36475 4.19441 9.36475 4.3077C9.36475 4.42099 9.45659 4.51283 9.56987 4.51283H12.7983C12.9115 4.51283 13.0034 4.42099 13.0034 4.3077C13.0034 4.19441 12.9115 4.10257 12.7983 4.10257V4.10257Z" fill="black"/>
<path d="M12.7983 5.77777H9.56987C9.45659 5.77777 9.36475 5.86961 9.36475 5.9829C9.36475 6.09619 9.45659 6.18803 9.56987 6.18803H12.7983C12.9115 6.18803 13.0034 6.09619 13.0034 5.9829C13.0034 5.86961 12.9115 5.77777 12.7983 5.77777Z" fill="black"/>
<path d="M12.7983 7.453H9.56987C9.45659 7.453 9.36475 7.54484 9.36475 7.65813C9.36475 7.77142 9.45659 7.86326 9.56987 7.86326H12.7983C12.9115 7.86326 13.0034 7.77142 13.0034 7.65813C13.0034 7.54484 12.9115 7.453 12.7983 7.453Z" fill="black"/>
<path d="M6.43009 5.77777H3.20171C3.08842 5.77777 2.99658 5.86961 2.99658 5.9829C2.99658 6.09619 3.08842 6.18803 3.20171 6.18803H6.43009C6.54338 6.18803 6.63521 6.09619 6.63521 5.9829C6.63521 5.86961 6.54338 5.77777 6.43009 5.77777Z" fill="black"/>
<path d="M6.43009 7.453H3.20171C3.08842 7.453 2.99658 7.54484 2.99658 7.65813C2.99658 7.77142 3.08842 7.86326 3.20171 7.86326H6.43009C6.54338 7.86326 6.63521 7.77142 6.63521 7.65813C6.63521 7.54484 6.54338 7.453 6.43009 7.453Z" fill="black"/>
<path fill-rule="evenodd" clip-rule="evenodd" d="M14.5983 1.60684H15.3685C15.7079 1.60684 16 1.89077 16 2.23009V9.24205C16 9.35534 15.9082 9.44718 15.7949 9.44718C15.6816 9.44718 15.5897 9.35534 15.5897 9.24205V2.23009C15.5827 2.11231 15.4865 2.01965 15.3685 2.01709H14.5983V8.96821C14.5983 9.66909 14.0311 10.2564 13.3303 10.2564H9.86291C9.76508 10.2534 9.6675 10.268 9.57487 10.2996L9.05983 10.4802V11.2137H15.3685C15.4864 11.2114 15.5827 11.119 15.5897 11.0014V10.0057C15.5897 9.89242 15.6816 9.80058 15.7949 9.80058C15.9082 9.80058 16 9.89242 16 10.0057V11.0014C16 11.3407 15.7079 11.6239 15.3685 11.6239H8.82051C8.79572 11.623 8.77129 11.6177 8.74838 11.6082C8.2664 11.424 7.73347 11.4237 7.25128 11.6073C7.22852 11.6171 7.20421 11.6227 7.17949 11.6239H0.631453C0.292137 11.6239 0 11.3407 0 11.0014V2.23009C0 1.89077 0.292137 1.60684 0.631453 1.60684H1.40171V1.27829C1.40055 0.575827 1.96729 0.00449659 2.66974 0H3.55556C3.66884 0 3.76068 0.091839 3.76068 0.205128C3.76068 0.318417 3.66884 0.410256 3.55556 0.410256H2.66974C2.19377 0.414504 1.81056 0.802301 1.81197 1.27829V8.96821C1.81197 9.44274 2.19525 9.84615 2.66974 9.84615H6.13709C6.2849 9.8431 6.43207 9.86625 6.57179 9.91453L7.70598 10.318C7.73512 10.3284 7.76479 10.3372 7.79487 10.3443V0.941094C7.71678 0.92787 7.64009 0.907382 7.56581 0.879897L6.43111 0.465778C6.33713 0.430119 6.2376 0.411323 6.13709 0.410256H4.14814C4.03485 0.410256 3.94301 0.318417 3.94301 0.205128C3.94301 0.091839 4.03485 0 4.14814 0H6.13709C6.28557 0.000875105 6.43272 0.0279336 6.57179 0.0799316L7.70598 0.495179C7.89604 0.5638 8.10417 0.563485 8.29402 0.494291L9.42872 0.0802051C9.56761 0.0281495 9.71459 0.000998572 9.86291 0H13.3303C14.0327 0.00449659 14.5995 0.575827 14.5983 1.27829V1.60684ZM0.631453 11.2137H6.94017V10.4802L6.42568 10.2998C6.33288 10.2681 6.23512 10.2534 6.13709 10.2564H2.66974C1.96903 10.2564 1.40171 9.66906 1.40171 8.96821V2.01709H0.631453C0.513501 2.01965 0.417263 2.11231 0.410256 2.23009V11.0014C0.417333 11.119 0.513634 11.2114 0.631453 11.2137ZM8.64957 11.1394C8.22336 11.0306 7.77664 11.0306 7.35043 11.1394V10.6293L7.56038 10.7036C7.70034 10.7542 7.84806 10.7802 7.99692 10.7802C8.14735 10.7802 8.29665 10.7543 8.43826 10.7036L8.64957 10.6293V11.1394ZM13.3303 9.84615C13.8048 9.84615 14.188 9.44274 14.188 8.96821V1.27829C14.1894 0.802301 13.8062 0.414504 13.3303 0.410256H9.86291C9.76252 0.41128 9.66311 0.430006 9.56923 0.465573L8.43419 0.881675C8.35986 0.908585 8.28317 0.928478 8.20513 0.941094V10.3443C8.23514 10.3386 8.26482 10.3312 8.29402 10.3223L9.42872 9.91422C9.5683 9.86609 9.71529 9.84305 9.86291 9.84615H13.3303Z" fill="black"/>
<path fill-rule="evenodd" clip-rule="evenodd" d="M3.21367 2.42734H6.42735C6.54064 2.42734 6.63248 2.51918 6.63248 2.63247V4.44443C6.63248 4.55772 6.54064 4.64956 6.42735 4.64956H3.21367C3.10038 4.64956 3.00854 4.55772 3.00854 4.44443V2.63247C3.00854 2.51918 3.10038 2.42734 3.21367 2.42734ZM3.4188 4.2393H6.22222V2.83759H3.4188V4.2393Z" fill="black"/>
</svg>
