<svg width="24" height="22" viewBox="0 0 24 22" fill="none" xmlns="http://www.w3.org/2000/svg">
<path d="M20.9 8.79815V19.8907C20.9 20.6502 20.2845 21.2657 19.525 21.2657H3.94167C3.18221 21.2657 2.56667 20.6502 2.56667 19.8907V8.79815V8.79797L8.06667 3.29797L9.85362 1.51102C10.8917 0.472891 12.5749 0.472891 13.613 1.51102L15.4 3.29792L20.9 8.79792V8.79815Z" fill="#FCF055"/>
<path d="M20.9 8.79823V19.8908C20.9 20.6503 20.2845 21.2658 19.525 21.2658H18.9076C19.0094 21.0742 19.0667 20.8561 19.0667 20.6241V9.53156L11.7796 2.24452C11.2603 1.72523 10.5802 1.46581 9.9 1.46581C10.9413 0.473061 12.59 0.488186 13.613 1.51119L20.9 8.79823Z" fill="#FBA800"/>
<path fill-rule="evenodd" clip-rule="evenodd" d="M23.2519 10.1128L14.1316 0.99252C12.8092 -0.329863 10.6574 -0.329863 9.3351 0.99252L0.214821 10.1128C-0.0715917 10.3992 -0.0715917 10.8635 0.214821 11.1499C0.501188 11.4363 0.965525 11.4363 1.25189 11.1499L1.83333 10.5684V19.8908C1.83333 21.0534 2.77915 21.9991 3.94167 21.9991H8.8H14.6667H19.525C20.6875 21.9991 21.6333 21.0534 21.6333 19.8908V10.5684L22.2148 11.1499C22.358 11.2931 22.5457 11.3647 22.7333 11.3647C22.921 11.3647 23.1087 11.2931 23.2518 11.1499C23.5383 10.8636 23.5383 10.3992 23.2519 10.1128ZM9.53333 20.5325V14.7575C9.53333 14.3026 9.90344 13.9325 10.3583 13.9325H13.1083C13.5632 13.9325 13.9333 14.3026 13.9333 14.7575V20.5325H9.53333ZM19.525 20.5325C19.8788 20.5325 20.1667 20.2447 20.1667 19.8908V9.10177L13.0945 2.02964C12.344 1.27907 11.1228 1.27907 10.3722 2.02964L3.3 9.10177V19.8908C3.3 20.2447 3.58783 20.5325 3.94167 20.5325H8.06667V14.7575C8.06667 13.4939 9.09471 12.4658 10.3583 12.4658H13.1083C14.372 12.4658 15.4 13.4939 15.4 14.7575V20.5325H19.525Z" fill="black"/>
</svg>
