<svg width="48" height="48" viewBox="0 0 48 48" fill="none" xmlns="http://www.w3.org/2000/svg">
<path d="M20.7933 36.5938C20.3293 37.2498 19.89 37.5732 19.47 37.5732C19.19 37.5732 19.0307 37.4092 18.98 37.0838C18.96 37.0165 18.96 36.7612 18.96 36.2705V27.7638H16.868V36.8998C16.868 37.7165 16.9373 38.2672 17.0526 38.6172C17.2613 39.2025 17.7267 39.4765 18.4013 39.4765C19.1706 39.4765 19.9613 39.0118 20.7926 38.0572V39.3178H22.888V27.7645H20.7933V36.5938ZM9.26465 25.9945H11.7273V39.3178H14.0553V25.9945H16.5633V23.8118H9.26465V25.9945ZM23.5206 15.8932C24.2026 15.8932 24.5293 15.3532 24.5293 14.2725V9.3605C24.5293 8.28116 24.2026 7.74316 23.5206 7.74316C22.838 7.74316 22.5106 8.28116 22.5106 9.3605V14.2725C22.5113 15.3525 22.838 15.8932 23.5206 15.8932ZM28.956 27.6232C28.1866 27.6232 27.4693 28.0445 26.794 28.8765V23.8118H24.7V39.3178H26.794V38.1965C27.4927 39.0625 28.212 39.4765 28.956 39.4765C29.79 39.4765 30.35 39.0378 30.63 38.1785C30.7693 37.6885 30.8407 36.9192 30.8407 35.8505V31.2498C30.8407 30.1565 30.7693 29.3925 30.63 28.9278C30.3493 28.0618 29.79 27.6232 28.956 27.6232ZM28.7473 36.0145C28.7473 37.0578 28.44 37.5725 27.8367 37.5725C27.4927 37.5725 27.1433 37.4085 26.7933 37.0585V30.0158C27.1433 29.6712 27.492 29.5072 27.8367 29.5072C28.4407 29.5072 28.7473 30.0418 28.7473 31.0838V36.0145ZM35.6233 27.6232C34.5553 27.6232 33.7206 28.0172 33.1166 28.8085C32.6713 29.3918 32.4693 30.2945 32.4693 31.5285V35.5765C32.4693 36.8032 32.6973 37.7158 33.142 38.2925C33.7467 39.0812 34.58 39.4758 35.676 39.4758C36.7693 39.4758 37.6273 39.0618 38.2073 38.2245C38.4631 37.8484 38.6301 37.4192 38.696 36.9692C38.7146 36.7592 38.7407 36.2938 38.7407 35.6205V35.3138H36.604C36.604 36.1538 36.578 36.6185 36.5586 36.7325C36.4393 37.2918 36.138 37.5718 35.6233 37.5718C34.9046 37.5718 34.5553 37.0385 34.5553 35.9692V33.9212H38.7413V31.5278C38.7413 30.2932 38.5313 29.3912 38.0933 28.8078C37.5073 28.0165 36.674 27.6232 35.6233 27.6232ZM36.648 32.1792H34.5553V31.1105C34.5553 30.0425 34.9046 29.5078 35.6046 29.5078C36.2973 29.5078 36.648 30.0425 36.648 31.1105V32.1792Z" fill="#E33927"/>
<path d="M43.3333 0H4.66667C2.1 0 0 2.1 0 4.66667V43.3333C0 45.9 2.1 48 4.66667 48H43.3333C45.9 48 48 45.9 48 43.3333V4.66667C48 2.1 45.9 0 43.3333 0ZM28.3867 6.98H30.4953V15.5747C30.4953 16.072 30.4953 16.33 30.5213 16.398C30.568 16.726 30.7333 16.8933 31.0173 16.8933C31.44 16.8933 31.8847 16.5653 32.3533 15.9027V6.98H34.4693V18.6533H32.3533V17.38C31.5113 18.346 30.708 18.8153 29.9367 18.8153C29.2553 18.8153 28.7853 18.5387 28.574 17.9467C28.4573 17.594 28.3867 17.0347 28.3867 16.2107V6.98ZM20.3953 10.7853C20.3953 9.538 20.608 8.62533 21.058 8.03533C21.6433 7.238 22.4673 6.83867 23.5207 6.83867C24.5807 6.83867 25.4033 7.238 25.9893 8.03533C26.432 8.62533 26.646 9.538 26.646 10.7853V14.8753C26.646 16.1153 26.4327 17.0353 25.9893 17.6213C25.4033 18.4167 24.5813 18.816 23.5207 18.816C22.4667 18.816 21.6427 18.4167 21.058 17.6213C20.608 17.0353 20.3953 16.1153 20.3953 14.8753V10.7853ZM14.738 2.988L16.404 9.13933L18.0033 2.988H20.3753L17.554 12.3093V18.6533H15.2073V12.3093C14.9953 11.184 14.526 9.53733 13.774 7.35267C13.2793 5.89933 12.764 4.43933 12.27 2.988H14.738ZM40.7153 41.012C40.2927 42.854 38.7847 44.2127 36.9713 44.4147C32.6753 44.8947 28.328 44.8973 24 44.8947C19.6713 44.8973 15.324 44.8947 11.0287 44.4147C9.21467 44.212 7.70933 42.8533 7.286 41.012C6.68267 38.388 6.68267 35.524 6.68267 32.824C6.68267 30.1213 6.68933 27.2593 7.29333 24.6347C7.716 22.7933 9.222 21.4353 11.036 21.2327C15.3313 20.7513 19.6787 20.75 24.0073 20.7513C28.3353 20.75 32.6827 20.7513 36.9787 21.2327C38.7913 21.4353 40.2987 22.7933 40.722 24.6347C41.3253 27.26 41.322 30.1213 41.322 32.824C41.3227 35.524 41.3193 38.388 40.7153 41.012Z" fill="#E33927"/>
</svg>
