<svg width="40" height="16" viewBox="0 0 40 16" fill="none" xmlns="http://www.w3.org/2000/svg">
<path d="M1.59999 7.2H37.5568L31.448 1.3792C31.1284 1.0744 31.116 0.567995 31.4208 0.247995C31.7256 -0.071205 32.2316 -0.084405 32.552 0.220795L39.53 6.8708C39.8332 7.174 40 7.5752 40 8C40 8.4248 39.8332 8.8252 39.516 9.1432L32.552 15.7792C32.3972 15.9268 32.1984 16 32 16C31.7888 16 31.578 15.9168 31.4208 15.752C31.116 15.432 31.1284 14.926 31.448 14.6208L37.5844 8.8H1.59999C1.15839 8.8 0.799995 8.4416 0.799995 8C0.799995 7.5584 1.15839 7.2 1.59999 7.2Z" fill="#0F1049"/>
</svg>
