<?xml version="1.0" encoding="utf-8"?>
<!-- Generator: Adobe Illustrator 16.0.0, SVG Export Plug-In . SVG Version: 6.00 Build 0)  -->
<!DOCTYPE svg PUBLIC "-//W3C//DTD SVG 1.1//EN" "http://www.w3.org/Graphics/SVG/1.1/DTD/svg11.dtd">
<svg version="1.1" id="Layer_1" xmlns="http://www.w3.org/2000/svg" xmlns:xlink="http://www.w3.org/1999/xlink" x="0px" y="0px"
	 width="13px" height="16px" viewBox="0 0 13 16" enable-background="new 0 0 13 16" xml:space="preserve">
<path fill="#9EA9C9" d="M10.678,5.333h-0.084H9.916H8.469H7.672H3.745V3.81c0-1.303,1.059-2.362,2.362-2.362
	c0.823,0,1.539,0.428,1.959,1.068h1.59C9.128,1.054,7.752,0,6.107,0c-2.103,0-3.81,1.707-3.81,3.81v1.524H1.536
	c-0.842,0-1.524,0.682-1.524,1.524v7.619C0.012,15.318,0.694,16,1.536,16h9.142c0.843,0,1.524-0.682,1.524-1.523v-7.62
	C12.202,6.015,11.521,5.333,10.678,5.333z M6.107,12.19c-0.842,0-1.524-0.682-1.524-1.524c0-0.842,0.682-1.523,1.524-1.523
	s1.524,0.682,1.524,1.523C7.631,11.509,6.949,12.19,6.107,12.19z"/>
</svg>
