<svg width="22" height="22" viewBox="0 0 22 22" fill="none" xmlns="http://www.w3.org/2000/svg">
<path d="M22 22H0V6.21777H22V22Z" fill="#FFF4F4"/>
<path d="M11 6.21777H22V22H11V6.21777Z" fill="#F6EFEA"/>
<path fill-rule="evenodd" clip-rule="evenodd" d="M12.8373 15.1107C12.6779 15.3481 11.7657 16.6579 11.7657 16.6579L13.4128 19.0935C13.6122 19.3884 13.5348 19.789 13.24 19.9885C13.1293 20.0633 13.0037 20.0992 12.8795 20.0992C12.6726 20.0992 12.4695 19.9998 12.345 19.8156L10.9912 17.8138L9.64168 19.828C9.51737 20.0135 9.31335 20.1138 9.10564 20.1138C8.98232 20.1138 8.85767 20.0785 8.7475 20.0047C8.45179 19.8065 8.37268 19.4061 8.57081 19.1104L10.2117 16.6613C10.2117 16.6613 9.1835 15.1413 9.16292 15.1107C8.62705 14.3123 7.98828 13.1746 7.98828 12.2884C7.98828 10.6277 9.33939 9.27661 11.0001 9.27661C12.6608 9.27661 14.0119 10.6277 14.0119 12.2884C14.0119 13.1746 13.3731 14.3123 12.8373 15.1107ZM12.7228 12.2885C12.7228 11.3385 11.95 10.5657 11.0001 10.5657C10.0502 10.5657 9.27734 11.3385 9.27734 12.2885C9.27734 12.5882 9.49636 13.2495 10.1111 14.2063C10.1695 14.2973 10.8146 15.1893 11.0001 15.3977C11.0876 15.2994 12.1853 13.7157 12.1853 13.7157C12.576 13.0217 12.7228 12.5339 12.7228 12.2885Z" fill="#B760EA"/>
<path d="M22 7.3907H0V3.17993C0 2.82398 0.288578 2.5354 0.644531 2.5354H21.3555C21.7114 2.5354 22 2.82398 22 3.17993V7.3907Z" fill="#00429D"/>
<path d="M21.3555 2.5354H11V7.3907H22V3.17993C22 2.82398 21.7114 2.5354 21.3555 2.5354Z" fill="#00347B"/>
<path d="M6.48837 1.89095V2.53505H7.77743V1.89095C7.77743 1.32157 7.55434 0.816992 7.14918 0.470191C6.79869 0.170141 6.3351 0.00488281 5.84375 0.00488281C5.35245 0.00488281 4.88881 0.170141 4.53836 0.470191C4.13325 0.816992 3.91016 1.32157 3.91016 1.89095V4.16804C3.91016 4.52399 4.19873 4.81257 4.55469 4.81257C4.91064 4.81257 5.19922 4.52399 5.19922 4.16804V1.89095C5.19922 1.32269 5.73611 1.2939 5.84375 1.2939C6.02521 1.2939 6.19545 1.35058 6.31086 1.44941C6.43027 1.55163 6.48837 1.69609 6.48837 1.89095Z" fill="#FFD845"/>
<path d="M11.6446 1.89071V2.53507H12.9336V1.89071C12.9336 0.84816 12.0854 0 11.0429 0H10.9571C9.91457 0 9.06641 0.84816 9.06641 1.89071V4.16823C9.06641 4.52418 9.35498 4.81276 9.71094 4.81276C10.0669 4.81276 10.3555 4.52418 10.3555 4.16823V1.89071C10.3555 1.55895 10.6254 1.28906 10.9571 1.28906H11.0429C11.3746 1.28906 11.6446 1.55895 11.6446 1.89071Z" fill="#FFD845"/>
<path d="M16.8008 1.89071V2.53507H18.0899V1.89071C18.0899 0.84816 17.2417 0 16.1992 0H16.1134C15.0709 0 14.2227 0.84816 14.2227 1.89071V4.16801C14.2227 4.52396 14.5112 4.81254 14.8672 4.81254C15.2231 4.81254 15.5117 4.52396 15.5117 4.16801V1.89071C15.5117 1.55895 15.7816 1.28906 16.1134 1.28906H16.1992C16.5309 1.28906 16.8008 1.55895 16.8008 1.89071Z" fill="#FFB454"/>
<path d="M11.7656 16.6579C11.7656 16.6579 12.6778 15.3481 12.8372 15.1107C13.373 14.3123 14.0118 13.1746 14.0118 12.2884C14.0118 10.6277 12.6607 9.27661 11 9.27661V10.5657C11.9499 10.5657 12.7227 11.3385 12.7227 12.2884C12.7227 12.5339 12.5759 13.0216 12.1853 13.7156C12.1853 13.7156 11.0875 15.2993 11 15.3977V17.827L12.345 19.8156C12.4695 19.9998 12.6726 20.0992 12.8795 20.0992C13.0037 20.0992 13.1293 20.0633 13.24 19.9885C13.5348 19.789 13.6122 19.3884 13.4128 19.0935L11.7656 16.6579Z" fill="#A24BDB"/>
<path d="M11.0428 0H11V1.28906H11.0429C11.3746 1.28906 11.6446 1.55895 11.6446 1.89071V2.53507H12.9336V1.89071C12.9336 0.84816 12.0854 0 11.0428 0V0Z" fill="#FFB454"/>
</svg>
