<svg width="16" height="12" viewBox="0 0 16 12" fill="none" xmlns="http://www.w3.org/2000/svg">
<path d="M0.32663 0.951989C2.47377 2.77038 6.24133 5.96949 7.34866 6.96697C7.49732 7.1016 7.65676 7.17004 7.82227 7.17004C7.98746 7.17004 8.14662 7.10224 8.29494 6.96826C9.40322 5.96979 13.1708 2.77038 15.3179 0.951989C15.4516 0.838994 15.472 0.640383 15.3638 0.502242C15.1136 0.183028 14.7406 0 14.3408 0H1.30377C0.904008 0 0.530955 0.183028 0.280797 0.502272C0.172569 0.640383 0.19295 0.838994 0.32663 0.951989Z" fill="white"/>
<path d="M15.4554 1.93737C15.3399 1.88359 15.204 1.90235 15.1078 1.98448C12.7267 4.00305 9.6877 6.59043 8.73156 7.452C8.19491 7.93643 7.45012 7.93643 6.91222 7.45136C5.89307 6.53311 2.48038 3.63192 0.536617 1.98445C0.439847 1.90232 0.303631 1.8842 0.189047 1.93734C0.0738528 1.99084 0 2.10607 0 2.23305V10.4296C0 11.1486 0.584681 11.7333 1.30371 11.7333H14.3408C15.0598 11.7333 15.6444 11.1486 15.6444 10.4296V2.23305C15.6444 2.10607 15.5706 1.99053 15.4554 1.93737Z" fill="white"/>
</svg>
