<svg width="24" height="22" viewBox="0 0 24 22" fill="none" xmlns="http://www.w3.org/2000/svg">
<path fill-rule="evenodd" clip-rule="evenodd" d="M11.0722 21.0037C11.3289 21.2285 11.6583 21.3523 12 21.3523C12.3415 21.3523 12.6711 21.2285 12.9276 21.004C13.8994 20.1542 14.8356 19.3563 15.6617 18.6524L15.6621 18.6521C18.0795 16.5919 20.1671 14.8128 21.6198 13.0598C23.2438 11.1004 24 9.24243 24 7.21271C24 5.24066 23.324 3.42133 22.0963 2.0896C20.8539 0.742126 19.149 0 17.2956 0C15.9102 0 14.6415 0.437988 13.5247 1.3017C12.9609 1.73767 12.4503 2.27124 12 2.89362C11.5499 2.27124 11.0391 1.73767 10.4755 1.3017C9.3587 0.437988 8.08997 0 6.70459 0C4.85101 0 3.1463 0.742126 1.90393 2.0896C0.676208 3.42133 0 5.24066 0 7.21271C0 9.24243 0.756409 11.1004 2.38037 13.06C3.83313 14.8129 5.92108 16.5923 8.33899 18.6528L8.3432 18.6564C9.16791 19.3592 10.1027 20.1559 11.0722 21.0037ZM2.93735 3.04227C3.91056 1.98685 5.24833 1.40568 6.70457 1.40568C7.77115 1.40568 8.75059 1.74479 9.61539 2.41349C10.3863 3.00968 10.9231 3.76334 11.2377 4.29069C11.3996 4.56186 11.6845 4.72373 12 4.72373C12.3155 4.72373 12.6004 4.56186 12.7622 4.29069C13.077 3.76334 13.6139 3.00968 14.3846 2.41349C15.2494 1.74479 16.2288 1.40568 17.2956 1.40568C18.7516 1.40568 20.0896 1.98685 21.0626 3.04227C22.0503 4.11362 22.5943 5.59458 22.5943 7.2125C22.5943 8.91959 21.9598 10.4463 20.5375 12.1628C19.1638 13.8204 17.1213 15.5612 14.7563 17.5769L14.7499 17.5823C13.9204 18.2889 12.9805 19.09 11.998 19.9457C11.0213 19.0917 10.0829 18.2918 9.25504 17.5863L9.25065 17.5827L9.24925 17.5815C6.88192 15.564 4.83735 13.8215 3.46268 12.1628C2.04014 10.4463 1.40568 8.91959 1.40568 7.2125C1.40568 5.59458 1.94968 4.11362 2.93735 3.04227Z" fill="white"/>
</svg>
