<svg width="16" height="16" viewBox="0 0 16 16" fill="none" xmlns="http://www.w3.org/2000/svg">
<path d="M13.1382 15.7261C9.71619 16.0913 6.28381 16.0913 2.86182 15.7261C1.49731 15.5804 0.419556 14.5027 0.273926 13.1381C-0.0913086 9.71606 -0.0913086 6.28381 0.273926 2.86182C0.419556 1.49731 1.49731 0.419556 2.86182 0.273926C6.28381 -0.0913086 9.71606 -0.0913086 13.1381 0.273926C14.5027 0.419556 15.5804 1.49731 15.7261 2.86182C16.0913 6.28381 16.0913 9.71606 15.7261 13.1381C15.5804 14.5027 14.5028 15.5804 13.1382 15.7261Z" fill="url(#paint0_linear_0_6730)"/>
<path d="M14.8557 3.44061C14.7265 2.2298 13.7702 1.27338 12.5593 1.1441C9.52264 0.820129 6.47699 0.820129 3.44037 1.1441C2.22955 1.27338 1.27313 2.2298 1.14386 3.44061C0.819885 6.47723 0.819885 9.52289 1.14386 12.5594C1.27313 13.7703 2.22955 14.7267 3.44037 14.8559C6.47699 15.18 9.52264 15.18 12.5591 14.8559C13.7701 14.7267 14.7265 13.7703 14.8557 12.5594C15.1797 9.52289 15.1797 6.47723 14.8557 3.44061Z" fill="url(#paint1_linear_0_6730)"/>
<path d="M0.239746 12.8064C0.250732 12.917 0.262085 13.0276 0.273926 13.1382C0.419556 14.5027 1.49731 15.5804 2.86194 15.7261C6.28394 16.0913 9.71619 16.0913 13.1382 15.7261C14.5028 15.5804 15.5804 14.5027 15.7261 13.1382C15.7379 13.0276 15.7493 12.917 15.7604 12.8064H0.239746Z" fill="url(#paint2_linear_0_6730)"/>
<path d="M11.3093 4.84961C10.4771 3.97559 9.30212 3.43079 7.99988 3.43079C7.79028 3.43079 7.58411 3.44519 7.38196 3.47253C6.94592 3.19934 6.43042 3.04114 5.87793 3.04114C4.31116 3.04114 3.04102 4.31128 3.04102 5.87805C3.04102 6.43054 3.19922 6.94604 3.47241 7.38208C3.44507 7.58423 3.43066 7.79041 3.43066 8C3.43066 9.30225 3.97546 10.4772 4.84949 11.3094L9.51599 15.976C10.724 15.938 11.9316 15.8549 13.1381 15.7261C14.5027 15.5804 15.5803 14.5027 15.726 13.1381C15.8547 11.9318 15.9379 10.7241 15.9758 9.51611L11.3093 4.84961Z" fill="url(#paint3_linear_0_6730)"/>
<path fill-rule="evenodd" clip-rule="evenodd" d="M12.5691 8C12.5691 8.20959 12.5547 8.41577 12.5273 8.61792C12.8007 9.05396 12.9587 9.56946 12.9587 10.1219C12.9587 11.6888 11.6887 12.9589 10.1219 12.9589C9.56946 12.9589 9.05383 12.8008 8.6178 12.5275C8.41577 12.5548 8.20959 12.5692 8 12.5692C5.47644 12.5692 3.43066 10.5236 3.43066 8C3.43066 7.79041 3.44507 7.58423 3.47241 7.38208C3.19922 6.94604 3.04102 6.43054 3.04102 5.87805C3.04102 4.31116 4.31116 3.04114 5.87793 3.04114C6.43042 3.04114 6.94604 3.19922 7.38208 3.47253C7.58411 3.44519 7.79028 3.43079 7.99988 3.43079C10.5234 3.43079 12.5691 5.47644 12.5691 8ZM8.77148 10.892C9.27466 10.7876 9.73547 10.5986 10.0779 10.1903C10.4302 9.77026 10.5299 9.28918 10.4253 8.76025C10.3245 8.25085 9.98193 7.94446 9.53589 7.7345C9.10975 7.5339 8.65435 7.4286 8.19918 7.32335C8.1195 7.30493 8.03983 7.28651 7.96033 7.26758C7.93804 7.26227 7.91574 7.25702 7.89343 7.25176C7.61509 7.18617 7.33687 7.12061 7.09412 6.95618C6.83765 6.78247 6.76746 6.50439 6.92883 6.27356C7.00281 6.16772 7.10474 6.09082 7.2207 6.02905C7.50653 5.8767 7.81262 5.88963 8.11908 5.90257C8.13183 5.90311 8.14459 5.90365 8.15735 5.90417C8.45789 5.9165 8.69043 6.052 8.87146 6.29041C8.9287 6.36558 8.9764 6.44637 9.02408 6.52711C9.06272 6.59256 9.10135 6.65798 9.14502 6.72034C9.22778 6.83826 9.32202 6.94458 9.46594 6.97986C9.91907 7.09058 10.2941 6.68726 10.1676 6.23315C10.0383 5.76917 9.70837 5.48865 9.29871 5.28784C8.88647 5.08569 8.44275 5.02222 7.95142 5.02942C7.70447 5.01672 7.42468 5.04785 7.15027 5.10889C6.70459 5.20801 6.29675 5.37744 5.98511 5.73633C5.47461 6.32434 5.54407 7.33923 6.27759 7.81201C6.72465 8.10021 7.22661 8.2218 7.73092 8.34396L7.74316 8.34692C7.82149 8.36592 7.90029 8.3833 7.97909 8.40068C8.25832 8.46227 8.53752 8.52385 8.79504 8.65723C8.9563 8.74072 9.09351 8.84949 9.15552 9.03271C9.26636 9.36035 9.14722 9.65808 8.81738 9.86536C8.52771 10.0474 8.20691 10.0789 7.87427 10.0726C7.37415 10.0632 7.00452 9.85693 6.78479 9.39661C6.76821 9.36187 6.75237 9.32675 6.73651 9.29162C6.68629 9.18033 6.63599 9.06886 6.56213 8.96875C6.43091 8.79089 6.20996 8.71301 6.00488 8.74634C5.66968 8.8009 5.45471 9.10901 5.56372 9.50513C5.67737 9.91846 5.92163 10.2401 6.26257 10.4941C6.74463 10.8534 7.30835 10.9347 7.88379 10.9688C8.18201 10.9865 8.47961 10.9525 8.77148 10.892Z" fill="white"/>
<defs>
<linearGradient id="paint0_linear_0_6730" x1="0.983115" y1="4.273" x2="5.02997" y2="12.9314" gradientUnits="userSpaceOnUse">
<stop stop-color="#00C3FF"/>
<stop offset="1" stop-color="#00B0ED"/>
</linearGradient>
<linearGradient id="paint1_linear_0_6730" x1="17.6186" y1="-1.80768" x2="-5.62727" y2="-14.2776" gradientUnits="userSpaceOnUse">
<stop stop-color="#00B0ED" stop-opacity="0.01"/>
<stop offset="1" stop-color="#00A2CE"/>
</linearGradient>
<linearGradient id="paint2_linear_0_6730" x1="2.90555" y1="13.6682" x2="2.90555" y2="15.7648" gradientUnits="userSpaceOnUse">
<stop stop-color="#00B0ED" stop-opacity="0.01"/>
<stop offset="1" stop-color="#00A2CE"/>
</linearGradient>
<linearGradient id="paint3_linear_0_6730" x1="20.8753" y1="13.0697" x2="13.0696" y2="5.26408" gradientUnits="userSpaceOnUse">
<stop stop-color="#00B0ED" stop-opacity="0.01"/>
<stop offset="1" stop-color="#00A2CE"/>
</linearGradient>
</defs>
</svg>
