<svg width="16" height="16" viewBox="0 0 16 16" fill="none" xmlns="http://www.w3.org/2000/svg">
<path fill-rule="evenodd" clip-rule="evenodd" d="M0 8C0 3.589 3.589 0 8 0C12.411 0 16 3.589 16 8C16 12.411 12.411 16 8 16C3.589 16 0 12.411 0 8ZM12 6C12 5.449 11.551 5 11 5C10.449 5 10 5.449 10 6C10 6.551 10.449 7 11 7C11.551 7 12 6.551 12 6ZM5 5C5.551 5 6 5.449 6 6C6 6.551 5.551 7 5 7C4.449 7 4 6.551 4 6C4 5.449 4.449 5 5 5ZM2.229 9.636C2.952 12.205 5.325 14 8 14C10.675 14 13.048 12.205 13.771 9.636C13.813 9.484 13.782 9.323 13.688 9.198C13.594 9.073 13.446 9 13.29 9H2.71C2.553 9 2.406 9.073 2.312 9.198C2.217 9.323 2.186 9.484 2.229 9.636Z" fill="black"/>
</svg>
