<svg width="64" height="64" viewBox="0 0 64 64" fill="none" xmlns="http://www.w3.org/2000/svg">
<path fill-rule="evenodd" clip-rule="evenodd" d="M64 32C64 14.3269 49.6731 0 32 0C14.3269 0 0 14.3269 0 32C0 49.6731 14.3269 64 32 64C49.6731 64 64 49.6731 64 32ZM3 32C3 15.9837 15.9837 3 32 3C48.0163 3 61 15.9837 61 32C61 48.0163 48.0163 61 32 61C15.9837 61 3 48.0163 3 32Z" fill="white"/>
<circle cx="32" cy="32" r="29" fill="white" fill-opacity="0.7"/>
<path d="M17.4121 19.7647C21.7076 16.5677 27.5919 16.5677 31.8874 19.7647C36.1829 22.9617 42.0672 22.9617 46.3627 19.7647V39.3412C42.0672 42.5382 36.1829 42.5382 31.8874 39.3412C27.5919 36.1442 21.7076 36.1442 17.4121 39.3412" fill="#4CBF56"/>
<path d="M17.4121 19.7647C21.7076 16.5677 27.5919 16.5677 31.8874 19.7647V19.7647C36.1829 22.9617 42.0672 22.9617 46.3627 19.7647V39.3412C42.0672 42.5382 36.1829 42.5382 31.8874 39.3412V39.3412C27.5919 36.1442 21.7076 36.1442 17.4121 39.3412" stroke="#45993D" stroke-linecap="round" stroke-linejoin="round"/>
<path d="M17.4119 47.5294V17.4117V47.5294Z" fill="#4CBF56"/>
<path d="M17.4119 47.5294V17.4117" stroke="#45993D" stroke-width="1.5" stroke-linecap="round" stroke-linejoin="round"/>
</svg>
