<svg width="21" height="22" viewBox="0 0 21 22" fill="none" xmlns="http://www.w3.org/2000/svg">
<path d="M20.165 17.8338L19.9349 17.6308C19.2822 17.0493 18.7109 16.3824 18.2364 15.6482C17.7183 14.6349 17.4077 13.5283 17.3229 12.3933V9.05055C17.3274 7.26792 16.6808 5.54501 15.5045 4.20553C14.3283 2.86605 12.7034 2.00219 10.9351 1.77628V0.903363C10.9351 0.663777 10.8399 0.434003 10.6705 0.264589C10.5011 0.0951756 10.2713 0 10.0317 0C9.79215 0 9.56237 0.0951756 9.39296 0.264589C9.22355 0.434003 9.12837 0.663777 9.12837 0.903363V1.78981C7.37595 2.03201 5.77068 2.90109 4.60988 4.23607C3.44908 5.57105 2.81141 7.28148 2.81498 9.05055V12.3933C2.73022 13.5283 2.41965 14.6349 1.90146 15.6482C1.43515 16.3806 0.873045 17.0473 0.23007 17.6308L0 17.8338V19.742H20.165V17.8338Z" fill="white"/>
<path d="M8.30286 20.4526C8.3622 20.8816 8.57474 21.2745 8.90123 21.559C9.22773 21.8434 9.64612 22.0001 10.0791 22.0001C10.5121 22.0001 10.9305 21.8434 11.257 21.559C11.5835 21.2745 11.7961 20.8816 11.8554 20.4526H8.30286Z" fill="white"/>
</svg>
