<svg width="22" height="22" viewBox="0 0 22 22" fill="none" xmlns="http://www.w3.org/2000/svg">
<circle cx="11" cy="11" r="11" fill="white"/>
<path fill-rule="evenodd" clip-rule="evenodd" d="M0 11C0 4.93436 4.93436 0 11 0C17.0656 0 22 4.93436 22 11C22 17.0656 17.0656 22 11 22C4.93436 22 0 17.0656 0 11ZM11.9166 11.9166H15.8125C16.3186 11.9166 16.7291 11.5061 16.7291 11C16.7291 10.4939 16.3186 10.0834 15.8125 10.0834H11.9166V6.1875C11.9166 5.68144 11.5061 5.27089 11 5.27089C10.4939 5.27089 10.0834 5.68144 10.0834 6.1875V10.0834H6.1875C5.68144 10.0834 5.27089 10.4939 5.27089 11C5.27089 11.5061 5.68144 11.9166 6.1875 11.9166H10.0834V15.8125C10.0834 16.3186 10.4939 16.7291 11 16.7291C11.5061 16.7291 11.9166 16.3186 11.9166 15.8125V11.9166Z" fill="black"/>
</svg>
