<svg width="14" height="16" viewBox="0 0 14 16" fill="none" xmlns="http://www.w3.org/2000/svg">
<path d="M1.00422 5.17383C0.729011 5.17383 0.495509 5.2698 0.303567 5.46174C0.111625 5.65368 0.015625 5.88401 0.015625 6.15283V10.2803C0.015625 10.5559 0.111596 10.7892 0.303567 10.9811C0.495509 11.1731 0.729011 11.2691 1.00422 11.2691C1.27922 11.2691 1.51131 11.1731 1.70027 10.9811C1.88887 10.7892 1.98342 10.5559 1.98342 10.2803V6.15283C1.98342 5.88398 1.88745 5.65368 1.69548 5.46174C1.50351 5.2698 1.27304 5.17383 1.00422 5.17383Z" fill="white"/>
<path fill-rule="evenodd" clip-rule="evenodd" d="M8.95209 1.4685L9.63362 0.211257C9.67836 0.128022 9.66244 0.0641958 9.58574 0.0193149C9.50247 -0.0193855 9.4385 0.000224635 9.39379 0.0767589L8.70273 1.34405C8.09465 1.0752 7.4515 0.940528 6.77329 0.940528C6.09494 0.940528 5.45173 1.07523 4.84387 1.34405L4.15278 0.0767589C4.10787 0.000224635 4.0439 -0.0192122 3.96084 0.0193149C3.88396 0.0643979 3.86805 0.128022 3.91296 0.211257L4.59452 1.4685C3.90343 1.82093 3.35301 2.31176 2.94348 2.94206C2.53395 3.5727 2.3291 4.26186 2.3291 5.01074H11.2078C11.2078 4.26203 11.0029 3.57285 10.5934 2.94206C10.1839 2.31176 9.63665 1.82093 8.95209 1.4685ZM5.01179 3.29718C4.93808 3.37105 4.85005 3.40782 4.74773 3.40782C4.6452 3.40782 4.55896 3.37105 4.48861 3.29718C4.41826 3.22365 4.38308 3.13596 4.38308 3.03329C4.38308 2.93097 4.41826 2.84311 4.48861 2.76941C4.55896 2.69588 4.6454 2.65911 4.74773 2.65911C4.85005 2.65911 4.93808 2.69588 5.01179 2.76941C5.08532 2.84329 5.12226 2.93097 5.12226 3.03329C5.12205 3.13579 5.08514 3.22365 5.01179 3.29718ZM8.7985 3.40782C8.90065 3.40782 8.98709 3.37105 9.05759 3.29718C9.12798 3.22365 9.16312 3.13579 9.16312 3.03329C9.16312 2.93097 9.128 2.84329 9.05759 2.76941C8.98707 2.69588 8.90083 2.65911 8.7985 2.65911C8.69595 2.65911 8.60795 2.69588 8.53439 2.76941C8.46071 2.84311 8.42395 2.93097 8.42395 3.03329C8.42395 3.13596 8.46071 3.22365 8.53439 3.29718C8.60795 3.37105 8.69595 3.40782 8.7985 3.40782Z" fill="white"/>
<path d="M2.36719 11.7489C2.36719 12.0435 2.46951 12.2929 2.67419 12.4976C2.87904 12.7023 3.12846 12.8046 3.4229 12.8046H4.13325L4.14299 14.9838C4.14299 15.2589 4.23896 15.4926 4.4309 15.6846C4.62284 15.8766 4.85334 15.9725 5.12199 15.9725C5.39702 15.9725 5.63067 15.8766 5.82264 15.6846C6.01461 15.4926 6.11058 15.259 6.11058 14.9838V12.8048H7.43517V14.9838C7.43517 15.2589 7.53112 15.4926 7.72309 15.6846C7.91506 15.8766 8.1485 15.9725 8.42374 15.9725C8.69877 15.9725 8.93241 15.8766 9.12439 15.6846C9.31636 15.4926 9.4123 15.259 9.4123 14.9838V12.8048H10.1322C10.4202 12.8048 10.6664 12.7024 10.8714 12.4978C11.0761 12.2931 11.1785 12.0437 11.1785 11.7491V5.35596H2.36719V11.7489Z" fill="white"/>
<path d="M12.5425 5.17383C12.2737 5.17383 12.0434 5.26838 11.8514 5.45698C11.6594 5.64591 11.5635 5.878 11.5635 6.15283V10.2803C11.5635 10.5559 11.6594 10.7892 11.8514 10.9811C12.0434 11.1731 12.2738 11.2691 12.5425 11.2691C12.8175 11.2691 13.0512 11.1731 13.2432 10.9811C13.4351 10.7892 13.5311 10.5559 13.5311 10.2803V6.15283C13.5311 5.87797 13.4351 5.64591 13.2432 5.45698C13.0512 5.26838 12.8175 5.17383 12.5425 5.17383Z" fill="white"/>
</svg>
