<svg width="16" height="14" viewBox="0 0 16 14" fill="none" xmlns="http://www.w3.org/2000/svg">
<path fill-rule="evenodd" clip-rule="evenodd" d="M11.3333 2.02078H14.6667C15.402 2.02078 16 2.61875 16 3.3541V5.3541C16 6.08947 15.402 6.68744 14.6667 6.68744H9.33337V6.3541C9.33337 6.16985 9.18428 6.02075 9.00003 6.02075H7.00003C6.81578 6.02075 6.66669 6.16985 6.66669 6.3541V6.68744H1.33334C0.597969 6.68744 0 6.08947 0 5.3541V3.3541C0 2.61875 0.597969 2.02078 1.33334 2.02075H4.66666V1.3541C4.66666 0.618721 5.26466 0.020752 6 0.020752H10C10.7354 0.020752 11.3333 0.618752 11.3333 1.3541V2.02078ZM6 2.02078H10V1.3541H6V2.02078Z" fill="black"/>
<path d="M15.8151 7.04717C15.7015 6.99085 15.5658 7.00389 15.4655 7.08004C15.2285 7.25942 14.9524 7.35414 14.6666 7.35414H9.33334V8.35414C9.33334 8.53839 9.18425 8.68748 9 8.68748H7C6.81575 8.68748 6.66666 8.53839 6.66666 8.35414V7.35414H1.33334C1.04753 7.35414 0.7715 7.25942 0.5345 7.08004C0.433906 7.00323 0.2985 6.9902 0.184875 7.04717C0.071625 7.10351 0 7.21904 0 7.3457V12.0208C0 12.7562 0.597969 13.3542 1.33334 13.3542H14.6667C15.402 13.3542 16 12.7562 16 12.0208V7.3457C16 7.21904 15.9284 7.10351 15.8151 7.04717Z" fill="black"/>
</svg>
