<svg width="16" height="16" viewBox="0 0 16 16" fill="none" xmlns="http://www.w3.org/2000/svg">
<path d="M13.1382 15.7261C9.71619 16.0913 6.28381 16.0913 2.86182 15.7261C1.49731 15.5804 0.419556 14.5027 0.273926 13.1381C-0.0913086 9.71606 -0.0913086 6.28381 0.273926 2.86182C0.419556 1.49731 1.49731 0.419556 2.86182 0.273926C6.28381 -0.0913086 9.71606 -0.0913086 13.1381 0.273926C14.5027 0.419556 15.5804 1.49731 15.7261 2.86182C16.0913 6.28381 16.0913 9.71606 15.7261 13.1381C15.5804 14.5027 14.5028 15.5804 13.1382 15.7261Z" fill="url(#paint0_linear_0_6719)"/>
<path d="M14.8557 3.44061C14.7265 2.2298 13.7702 1.27338 12.5593 1.1441C9.52264 0.820129 6.47699 0.820129 3.44037 1.1441C2.22955 1.27338 1.27313 2.2298 1.14386 3.44061C0.819885 6.47723 0.819885 9.52289 1.14386 12.5594C1.27313 13.7703 2.22955 14.7267 3.44037 14.8559C6.47699 15.18 9.52264 15.18 12.5591 14.8559C13.7701 14.7267 14.7265 13.7703 14.8557 12.5594C15.1797 9.52289 15.1797 6.47723 14.8557 3.44061Z" fill="url(#paint1_linear_0_6719)"/>
<path d="M0.239746 12.8064C0.250732 12.917 0.262085 13.0276 0.273926 13.1382C0.419556 14.5027 1.49731 15.5804 2.86194 15.7261C6.28394 16.0913 9.71619 16.0913 13.1382 15.7261C14.5028 15.5804 15.5804 14.5027 15.7261 13.1382C15.7379 13.0276 15.7493 12.917 15.7604 12.8064H0.239746Z" fill="url(#paint2_linear_0_6719)"/>
<path d="M15.5535 13.8616L5.22827 3.53625C4.99768 3.23535 4.63489 3.04114 4.22656 3.04114C3.53003 3.04114 2.96533 3.60571 2.96533 4.30225C2.96533 4.71069 3.15967 5.07349 3.46057 5.30396L13.7499 15.5934C14.5815 15.3167 15.2444 14.6776 15.5535 13.8616Z" fill="url(#paint3_linear_0_6719)"/>
<path d="M5.28577 6.39075H3.16699V12.9589L6.17334 15.9652C8.49536 16.0531 10.819 15.9736 13.1378 15.7261C13.5432 15.6829 13.923 15.5568 14.2609 15.3658L5.28577 6.39075Z" fill="url(#paint4_linear_0_6719)"/>
<path d="M12.4814 6.94092C12.0939 6.51599 11.5359 6.24939 10.9156 6.24939C9.93457 6.24939 9.30139 6.59399 8.92456 6.91394L8.5094 6.39075H6.55713V12.9589L9.57251 15.9742C10.7617 15.9355 11.9504 15.8528 13.1381 15.7261C14.5027 15.5804 15.5803 14.5027 15.726 13.1382C15.8234 12.2258 15.8945 11.3127 15.9399 10.3994L12.4814 6.94092Z" fill="url(#paint5_linear_0_6719)"/>
<path d="M3.16748 6.39075H5.28613V12.9589H3.16748V6.39075Z" fill="white"/>
<path d="M10.9156 6.24939C9.36304 6.24939 8.68103 7.1123 8.5094 7.375V6.39075H6.55713V12.9589H8.6759V9.65967C8.6759 8.7063 9.11475 7.96472 9.94714 7.96472C10.7794 7.96472 10.9156 8.88782 10.9156 10.0229V12.9589H13.0344V8.36816C13.0344 7.198 12.0858 6.24939 10.9156 6.24939Z" fill="white"/>
<path d="M5.48767 4.30237C5.48767 4.9989 4.9231 5.56348 4.22656 5.56348C3.53003 5.56348 2.96533 4.9989 2.96533 4.30237C2.96533 3.60583 3.53003 3.04114 4.22656 3.04114C4.9231 3.04114 5.48767 3.60583 5.48767 4.30237Z" fill="white"/>
<defs>
<linearGradient id="paint0_linear_0_6719" x1="0.983115" y1="4.273" x2="5.02997" y2="12.9314" gradientUnits="userSpaceOnUse">
<stop stop-color="#0077B5"/>
<stop offset="1" stop-color="#0066B2"/>
</linearGradient>
<linearGradient id="paint1_linear_0_6719" x1="17.6186" y1="-1.80768" x2="-5.62727" y2="-14.2776" gradientUnits="userSpaceOnUse">
<stop stop-color="#0066B2" stop-opacity="0.01"/>
<stop offset="1" stop-color="#07485E"/>
</linearGradient>
<linearGradient id="paint2_linear_0_6719" x1="-0.125743" y1="12.9946" x2="-0.125743" y2="16.3386" gradientUnits="userSpaceOnUse">
<stop stop-color="#0066B2" stop-opacity="0.01"/>
<stop offset="1" stop-color="#07485E"/>
</linearGradient>
<linearGradient id="paint3_linear_0_6719" x1="11.4795" y1="5.5728" x2="5.51417" y2="-0.426649" gradientUnits="userSpaceOnUse">
<stop stop-color="#0066B2" stop-opacity="0.01"/>
<stop offset="1" stop-color="#07485E"/>
</linearGradient>
<linearGradient id="paint4_linear_0_6719" x1="15.2518" y1="8.89612" x2="4.04952" y2="1.8969" gradientUnits="userSpaceOnUse">
<stop stop-color="#0066B2" stop-opacity="0.01"/>
<stop offset="1" stop-color="#07485E"/>
</linearGradient>
<linearGradient id="paint5_linear_0_6719" x1="18.9714" y1="11.0025" x2="10.2896" y2="2.92066" gradientUnits="userSpaceOnUse">
<stop stop-color="#0066B2" stop-opacity="0.01"/>
<stop offset="1" stop-color="#07485E"/>
</linearGradient>
</defs>
</svg>
