<svg width="16" height="16" viewBox="0 0 16 16" fill="none" xmlns="http://www.w3.org/2000/svg">
<path fill-rule="evenodd" clip-rule="evenodd" d="M3.88977 7.98185C3.88977 5.7196 5.72286 3.88452 7.9871 3.88452C10.2493 3.88452 12.0844 5.71761 12.0844 7.98185C12.0844 10.2441 10.2513 12.0792 7.9871 12.0792C5.72485 12.0792 3.88977 10.2461 3.88977 7.98185ZM5.32763 7.98185C5.32763 9.45098 6.51731 10.6413 7.9871 10.6413C9.4569 10.6413 10.6472 9.45098 10.6466 7.98185C10.6466 6.51272 9.45623 5.32238 7.9871 5.32238C6.51797 5.32238 5.32763 6.51272 5.32763 7.98185Z" fill="black"/>
<path fill-rule="evenodd" clip-rule="evenodd" d="M4.69819 0.0506481C6.16865 -0.0145579 9.80754 -0.0178847 11.2767 0.0506481C14.2821 0.189044 15.7865 1.88906 15.9183 4.69225C15.9835 6.16271 15.9875 9.80094 15.9183 11.2707C15.8092 13.6454 14.6927 14.9675 13.2136 15.5417C12.1308 15.9609 11.0738 15.9609 8.03041 15.9609H7.9871C7.66624 15.9609 7.35568 15.9632 7.055 15.9654C4.54545 15.9841 2.7241 15.9976 1.3474 14.6215C-0.0195528 13.2546 -0.00967267 11.4718 0.00486706 8.84824C0.00641393 8.56912 0.00801355 8.28049 0.00801355 7.98182C0.00801355 7.66272 0.00584327 7.35428 0.00374457 7.05602C-0.0141155 4.51781 -0.0267917 2.71631 1.3474 1.34213C2.26627 0.423254 3.40604 0.111196 4.69819 0.0506481ZM8.70038 14.5235C11.4172 14.5297 12.675 14.5326 13.6021 13.6055C14.5339 12.6694 14.5327 11.4246 14.53 8.5364C14.5298 8.35771 14.5296 8.17274 14.5297 7.98116C14.5297 5.85065 14.521 5.59781 14.4831 4.75612C14.3304 1.38341 11.9917 1.40479 8.88191 1.43321C8.59046 1.43588 8.29225 1.4386 7.98843 1.4386L7.95849 1.41864C5.85703 1.41864 5.58315 1.42832 4.76565 1.45722L4.72746 1.45856C1.36 1.63104 1.38039 3.85163 1.4096 7.03312C1.41239 7.33734 1.41527 7.65034 1.41527 7.97118C1.41527 8.34952 1.41133 8.70992 1.40758 9.05305C1.38442 11.1738 1.36846 12.6351 2.33347 13.5955C3.26106 14.5256 4.5161 14.5247 7.51082 14.5226C7.65884 14.5225 7.81111 14.5224 7.9678 14.5224C8.22322 14.5224 8.46717 14.5229 8.70038 14.5235Z" fill="black"/>
<circle cx="12.2468" cy="3.72284" r="0.957463" fill="black"/>
</svg>
