<svg width="32" height="22" viewBox="0 0 32 22" fill="none" xmlns="http://www.w3.org/2000/svg">
<path d="M22.1899 12.3698C22.3512 12.3316 22.5207 12.3708 22.6508 12.4763C22.781 12.5819 22.8578 12.7425 22.8599 12.9132V19.7087C22.8493 20.6255 22.3066 21.4463 21.4828 21.7911C20.9647 22.0252 21.8546 21.9539 2.17713 21.9539C0.977947 21.9459 0.00771967 20.9454 0 19.7087V11.2894C0 10.0494 0.974735 9.04419 2.17713 9.04419H19.1081C19.2737 9.04631 19.4294 9.12556 19.5317 9.25977C19.6341 9.39398 19.672 9.56873 19.635 9.73514C19.492 10.4694 19.7146 11.2287 20.2281 11.7582C20.7416 12.2877 21.4779 12.5173 22.1899 12.3698Z" fill="#E64C3C"/>
<path d="M7.62045 19.7087C7.31986 19.7087 7.07617 19.4574 7.07617 19.1474V11.8506C7.07617 11.5406 7.31986 11.2893 7.62045 11.2893C7.92105 11.2893 8.16474 11.5406 8.16474 11.8506V19.1474C8.16474 19.4574 7.92105 19.7087 7.62045 19.7087Z" fill="white"/>
<path d="M11.9748 19.7087H11.4305C11.177 19.7088 10.9569 19.5284 10.8998 19.2737L9.267 11.9769C9.19936 11.6746 9.38213 11.3731 9.67521 11.3033C9.96829 11.2336 10.2607 11.4221 10.3283 11.7243L11.7027 17.8671L13.077 11.7243C13.1207 11.5288 13.2623 11.3722 13.4484 11.3135C13.6344 11.2548 13.8367 11.303 13.979 11.4398C14.1214 11.5766 14.1821 11.7814 14.1383 11.9769L12.5055 19.2737C12.4484 19.5284 12.2284 19.7088 11.9748 19.7087V19.7087Z" fill="white"/>
<path d="M18.5059 19.7087H15.7845C15.4839 19.7087 15.2402 19.4574 15.2402 19.1474V11.8506C15.2402 11.5406 15.4839 11.2893 15.7845 11.2893C16.0851 11.2893 16.3288 11.5406 16.3288 11.8506V18.5861H18.5059C18.8065 18.5861 19.0502 18.8374 19.0502 19.1474C19.0502 19.4574 18.8065 19.7087 18.5059 19.7087Z" fill="white"/>
<path d="M5.44343 19.7087H2.72202C2.42142 19.7087 2.17773 19.4574 2.17773 19.1474V11.8506C2.17773 11.5406 2.42142 11.2893 2.72202 11.2893C3.02262 11.2893 3.2663 11.5406 3.2663 11.8506V18.5861H5.44343C5.74403 18.5861 5.98771 18.8374 5.98771 19.1474C5.98771 19.4574 5.74403 19.7087 5.44343 19.7087Z" fill="white"/>
<path d="M18.5059 16.3411H15.7845C15.4839 16.3411 15.2402 16.0898 15.2402 15.7798C15.2402 15.4698 15.4839 15.2185 15.7845 15.2185H18.5059C18.8065 15.2185 19.0502 15.4698 19.0502 15.7798C19.0502 16.0898 18.8065 16.3411 18.5059 16.3411Z" fill="white"/>
<path d="M18.5059 12.4119H15.7845C15.4839 12.4119 15.2402 12.1606 15.2402 11.8506C15.2402 11.5406 15.4839 11.2893 15.7845 11.2893H18.5059C18.8065 11.2893 19.0502 11.5406 19.0502 11.8506C19.0502 12.1606 18.8065 12.4119 18.5059 12.4119Z" fill="white"/>
<path d="M15.9676 5.08148C17.8062 2.84248 20.7017 1.84698 23.4754 2.50023C26.249 3.15347 28.4384 5.34653 29.1522 8.18668C29.866 11.0268 28.9852 14.0405 26.8685 16.0008C26.5532 16.26 26.4027 16.6776 26.4772 17.0862C26.5517 17.4948 26.8392 17.8274 27.2242 17.9507C27.6092 18.074 28.0288 17.9678 28.3146 17.6746C31.0377 15.1555 32.1717 11.2809 31.2549 7.62879C30.3381 3.97667 27.5235 1.15627 23.9572 0.316124C20.3909 -0.52402 16.6678 0.756258 14.3042 3.6356C14.0351 3.9396 13.9489 4.37116 14.0796 4.76013C14.2103 5.1491 14.537 5.43309 14.9308 5.50013C15.3247 5.56716 15.7226 5.4065 15.9676 5.08148V5.08148Z" fill="#84B5CB"/>
<path d="M19.8638 7.4328C21.1684 6.46825 22.9593 6.62453 24.0882 7.80143C25.2172 8.97834 25.3492 10.8268 24.3998 12.1617C24.1522 12.517 24.1329 12.9902 24.3508 13.3656C24.533 13.6907 24.8607 13.9003 25.224 13.9242C25.5873 13.9482 25.9382 13.7832 26.1589 13.4846C27.7437 11.2608 27.5247 8.17873 25.6426 6.21686C23.7605 4.25498 20.7743 3.99608 18.601 5.60635C18.301 5.84007 18.14 6.21762 18.1758 6.60364C18.2117 6.98966 18.4392 7.32885 18.7768 7.49959C19.1232 7.68667 19.5414 7.66097 19.8638 7.4328V7.4328Z" fill="#3B97D3"/>
<ellipse cx="21.7712" cy="10.1668" rx="1.08857" ry="1.12258" fill="#2980BA"/>
</svg>
