<svg width="65" height="84" viewBox="0 0 65 84" fill="none" xmlns="http://www.w3.org/2000/svg">
<rect x="30.0703" y="6" width="4.50007" height="3.00005" fill="white"/>
<path fill-rule="evenodd" clip-rule="evenodd" d="M27.0703 74.25C27.0703 71.3554 29.4258 69 32.3203 69C35.2149 69 37.5703 71.3554 37.5703 74.25C37.5703 77.1446 35.2149 79.5 32.3203 79.5C29.4258 79.5 27.0703 77.1446 27.0703 74.25ZM30.0704 74.2502C30.0704 75.4908 31.0795 76.5001 32.3203 76.5001C33.5611 76.5001 34.5703 75.4908 34.5703 74.2502C34.5703 73.0095 33.561 72.0002 32.3203 72.0002C31.0797 72.0002 30.0704 73.0095 30.0704 74.2502Z" fill="white"/>
<path fill-rule="evenodd" clip-rule="evenodd" d="M7.57896 0H57.0615C61.2011 0 64.5702 3.35967 64.5703 7.48896V76.5109C64.5703 80.6402 61.2011 83.9998 57.0615 83.9998H7.57912C3.4395 83.9998 0.0703125 80.6403 0.0703125 76.5109V7.48896C0.0703125 3.35967 3.43934 0 7.57896 0ZM57.0615 81.0001C59.5474 81.0001 61.5703 78.9866 61.5703 76.511H61.5701V7.48896C61.5701 5.01326 59.5472 2.99988 57.0614 2.99988H7.57896C5.09309 2.99988 3.0702 5.01342 3.0702 7.48896V76.511C3.0702 78.9867 5.09309 81.0001 7.57896 81.0001H57.0615Z" fill="white"/>
</svg>
