<svg width="19" height="16" viewBox="0 0 19 16" fill="none" xmlns="http://www.w3.org/2000/svg">
<path d="M10.7442 6.96512C11.6356 7.85652 11.6356 9.30176 10.7442 10.1932C9.85284 11.0846 8.40761 11.0846 7.51621 10.1932C6.62481 9.30176 6.62481 7.85652 7.51621 6.96512C8.40761 6.07372 9.85284 6.07372 10.7442 6.96512" fill="black"/>
<path fill-rule="evenodd" clip-rule="evenodd" d="M14.4004 2.30208H15.9775C17.2363 2.30208 18.26 3.32578 18.26 4.58462V13.7149C18.26 14.9738 17.2363 15.9975 15.9775 15.9975H2.28258C1.0237 15.9975 0 14.9733 0 13.7144L0.00613084 4.58746C0.00721495 3.33139 1.02927 2.30825 2.28479 2.30601L3.85963 2.3032L5.00037 0.0195007H13.2585L14.4004 2.30208ZM4.56456 8.57913C4.56456 11.0963 6.61252 13.1443 9.12972 13.1443C11.6469 13.1443 13.6949 11.0963 13.6949 8.57913C13.6949 6.06193 11.6469 4.01397 9.12972 4.01397C6.61252 4.01397 4.56456 6.06193 4.56456 8.57913Z" fill="black"/>
</svg>
