<svg width="13" height="16" viewBox="0 0 13 16" fill="none" xmlns="http://www.w3.org/2000/svg">
<path d="M0 14.5938C0 14.8527 0.209839 15.0626 0.46875 15.0626H6.24951C5.4259 14.2537 4.72363 13.3029 4.72363 12.1365C4.72363 10.6231 5.8479 9.43755 7.28345 9.43755C7.85852 9.43755 8.34631 9.63897 8.745 9.94353C7.84314 8.36101 6.06812 7.34087 4.05994 7.60369C1.69885 7.91289 0 10.0485 0 12.4296L0 14.5938Z" fill="black"/>
<path fill-rule="evenodd" clip-rule="evenodd" d="M7.96875 3.34375C7.96875 5.15588 6.49963 6.625 4.6875 6.625C2.87537 6.625 1.40625 5.15588 1.40625 3.34375C1.40625 1.53162 2.87537 0 4.6875 0C6.49963 0 7.96875 1.53162 7.96875 3.34375ZM3.75 3.34375C3.75 3.08472 3.54028 2.875 3.28125 2.875C3.02222 2.875 2.8125 3.08472 2.8125 3.34375C2.8125 4.37781 3.65344 5.21875 4.6875 5.21875C5.72156 5.21875 6.5625 4.37781 6.5625 3.34375C6.5625 3.08472 6.35278 2.875 6.09375 2.875C5.83472 2.875 5.625 3.08472 5.625 3.34375C5.625 3.8606 5.20435 4.28125 4.6875 4.28125C4.17065 4.28125 3.75 3.8606 3.75 3.34375Z" fill="black"/>
<path d="M8.90625 11.7808V11.7817L8.90576 11.7803C8.75745 11.2584 8.2489 10.375 7.28345 10.375C6.35876 10.375 5.66113 11.1322 5.66113 12.1365C5.66113 13.6472 7.47437 14.8779 8.60181 15.8878C8.6897 15.9625 8.79773 16 8.90625 16C9.01477 16 9.1228 15.9625 9.21069 15.8878C10.333 14.8826 12.1514 13.6484 12.1514 12.1365C12.1514 11.1321 11.4537 10.375 10.5291 10.375C9.5686 10.375 9.05823 11.2557 8.90625 11.7808Z" fill="black"/>
</svg>
