<svg width="96" height="84" viewBox="0 0 96 84" fill="none" xmlns="http://www.w3.org/2000/svg">
<path fill-rule="evenodd" clip-rule="evenodd" d="M8.29848 0.289551H87.6646C92.2338 0.289551 95.9643 4.02785 95.9637 8.58803V61.4452C95.9637 66.009 92.2338 69.7455 87.6646 69.7455H51.3681V76.8154H76.7639L80.1505 80.202V83.5885H15.8132V80.202L19.1997 76.8154H44.5955V69.7418H8.29848C3.73891 69.7418 0 66.0096 0 61.4422V8.58803C0 4.02785 3.73589 0.289551 8.29848 0.289551ZM87.6646 56.2015C90.3743 56.2015 92.5777 53.9988 92.5777 51.2872H92.5783V8.58803C92.5783 5.87948 90.3749 3.67554 87.6652 3.67554H8.29848C5.58691 3.67554 3.38599 5.87948 3.38599 8.58803V51.2872C3.38599 53.9988 5.58691 56.2015 8.29848 56.2015H87.6646Z" fill="white"/>
</svg>
