<svg width="13" height="22" viewBox="0 0 13 22" fill="none" xmlns="http://www.w3.org/2000/svg">
<path d="M5.00677 8.31421H7.67096V10.3123H5.00677L5.00677 8.31421Z" fill="#FCF055"/>
<path d="M10.3352 6.98229L7.67101 8.31438H5.00678L2.34259 6.98229V0.321777H10.3352V6.98229Z" fill="#5DC2A7"/>
<circle cx="6.33884" cy="15.6426" r="6.00467" fill="#FCF055"/>
<path d="M2.47848 15.6426C2.47848 12.6975 4.60978 10.2408 7.41102 9.73383C7.06305 9.67088 6.70475 9.63794 6.3389 9.63794C3.02792 9.63794 0.334229 12.3316 0.334229 15.6426C0.334229 18.9536 3.02792 21.6473 6.3389 21.6473C6.70475 21.6473 7.06305 21.6144 7.41102 21.5514C4.60973 21.0444 2.47848 18.5877 2.47848 15.6426V15.6426Z" fill="#F9E77D"/>
<circle cx="6.33888" cy="15.6426" r="4.66237" fill="#FCF055"/>
<path d="M4.08189 19.7232C3.08734 18.6513 2.47846 17.2167 2.47846 15.6426C2.47846 14.0685 3.0873 12.6339 4.08189 11.562C2.64752 12.3571 1.67651 13.8865 1.67651 15.6426C1.67656 17.3988 2.64752 18.9282 4.08189 19.7232Z" fill="#EFC356"/>
<path d="M6.62991 13.1592L7.20174 14.3178C7.249 14.4137 7.34039 14.48 7.44614 14.4954L8.72476 14.6812C8.99099 14.7199 9.09726 15.047 8.90462 15.2348L7.97942 16.1366C7.90291 16.2112 7.868 16.3186 7.88606 16.4239L8.10447 17.6974C8.14993 17.9625 7.87165 18.1647 7.63355 18.0395L6.48994 17.4382C6.39538 17.3885 6.28242 17.3885 6.18786 17.4382L5.04424 18.0395C4.80614 18.1647 4.52782 17.9625 4.57332 17.6974L4.79173 16.4239C4.80979 16.3186 4.77488 16.2112 4.69837 16.1366L3.77317 15.2348C3.58053 15.047 3.68685 14.7199 3.95308 14.6812L5.23169 14.4954C5.3374 14.48 5.42879 14.4137 5.47609 14.3178L6.04792 13.1592C6.16688 12.918 6.51087 12.918 6.62991 13.1592V13.1592Z" fill="#FBA800"/>
<path d="M5.00677 0.321777H7.67101V8.31442H5.00677V0.321777Z" fill="#FBA800"/>
<path fill-rule="evenodd" clip-rule="evenodd" d="M7.49015 14.1757L8.77095 14.3631C9.3408 14.4219 9.46946 15.1385 9.12908 15.4653L8.20392 16.3671L8.42144 17.6432C8.52599 18.2691 8.03281 18.5907 7.48384 18.3244L6.34018 17.7232L5.19387 18.3244C4.77227 18.5461 4.16158 18.1948 4.25627 17.6432L4.47473 16.3698L3.54863 15.4652C3.11189 15.0443 3.31786 14.4219 3.90676 14.3631L5.18538 14.1773L5.75939 13.017C6.03866 12.4367 6.66049 12.4367 6.91836 13.017L7.49015 14.1757ZM7.75487 15.9065L8.68008 15.0047C8.68145 15.0031 8.6805 15.0001 8.67956 14.9991L7.39987 14.8139C7.18931 14.7833 7.00739 14.6512 6.91326 14.4604L6.34147 13.3018C6.34061 13.2999 6.34001 13.2993 6.34001 13.2992C6.34025 13.2997 6.33916 13.2999 6.33798 13.3001C6.33724 13.3002 6.33645 13.3003 6.33594 13.3005L5.76441 14.4604C5.67024 14.6511 5.48836 14.7832 5.27784 14.8139L3.99922 14.9996C3.99725 15.0001 3.99626 15.0031 3.99639 15.0045L4.92288 15.9065C5.07521 16.055 5.14468 16.2688 5.10874 16.4785L4.89024 17.7519C4.89007 17.754 4.89264 17.7558 4.89402 17.7562L6.03819 17.1538C6.22645 17.0548 6.45121 17.0547 6.63961 17.1538L7.78322 17.755C7.78494 17.7558 7.78764 17.7539 7.78837 17.7528L7.56905 16.4785C7.53307 16.2688 7.60255 16.055 7.75487 15.9065Z" fill="black"/>
<path fill-rule="evenodd" clip-rule="evenodd" d="M7.9925 8.51331V9.53604C10.6814 10.265 12.6653 12.7263 12.6653 15.6428C12.6653 19.1309 9.82734 21.9687 6.33894 21.9687C4.8031 21.9687 3.32121 21.4095 2.16615 20.3941C1.0218 19.3882 0.278007 18.0086 0.0717306 16.5096C0.0474577 16.3336 0.170495 16.1713 0.346495 16.1471C0.52228 16.1228 0.684772 16.2459 0.708959 16.4219C1.09364 19.2174 3.51402 21.3255 6.3389 21.3255C9.47259 21.3255 12.022 18.7762 12.022 15.6428C12.022 12.5091 9.47255 9.95965 6.3389 9.95965C3.46183 9.95965 0.959107 12.2116 0.682198 15.0945C0.665173 15.2714 0.507399 15.4006 0.331271 15.384C0.154456 15.3669 0.0248573 15.2098 0.0418398 15.033C0.287313 12.4772 2.20873 10.2076 4.68526 9.53642V8.51331L2.19857 7.26978C2.08956 7.21531 2.02077 7.10394 2.02077 6.98211V0.321637C2.02077 0.143965 2.16473 0 2.34241 0H10.3354C10.513 0 10.657 0.143965 10.657 0.321637V2.94534C10.657 3.12301 10.513 3.26698 10.3354 3.26698C10.1577 3.26698 10.0137 3.12301 10.0137 2.94534V0.643275H7.99263V7.79405L10.0137 6.78333V4.34725C10.0137 4.16958 10.1577 4.02561 10.3354 4.02561C10.513 4.02561 10.657 4.16958 10.657 4.34725V6.98211C10.657 7.10394 10.5882 7.21527 10.4792 7.26978L7.9925 8.51331ZM5.3284 0.643361V7.99273H7.34936V0.643361H5.3284ZM2.66404 0.643275H4.68513V7.794L2.66404 6.78329V0.643275ZM5.32853 8.63618V9.39743C6.00208 9.28932 6.67563 9.28932 7.34923 9.39739V8.63618H5.32853Z" fill="black"/>
<path d="M5.57595 10.7169C3.17572 11.0856 1.35474 13.2157 1.35474 15.6428C1.35474 18.391 3.59059 20.6269 6.33883 20.6269C9.08707 20.6269 11.3229 18.391 11.3229 15.6428C11.3229 13.2053 9.48637 11.0694 7.07375 10.7128C6.89814 10.6865 6.73453 10.8082 6.70854 10.9839C6.68255 11.1597 6.80396 11.3231 6.97966 11.3491C9.089 11.6609 10.6796 13.5068 10.6796 15.6428C10.6796 18.0363 8.73233 19.9837 6.33879 19.9837C3.94525 19.9837 1.99797 18.0364 1.99797 15.6428C1.99797 13.519 3.57815 11.6747 5.67355 11.3527C5.84917 11.3257 5.96959 11.1615 5.94262 10.986C5.91568 10.8104 5.75139 10.6899 5.57595 10.7169Z" fill="black"/>
</svg>
