<svg width="23" height="22" viewBox="0 0 23 22" fill="none" xmlns="http://www.w3.org/2000/svg">
<path d="M11.0295 21.0296C16.5686 21.0296 21.0589 16.5393 21.0589 11.0002C21.0589 5.46105 16.5686 0.970703 11.0295 0.970703C5.49035 0.970703 1 5.46105 1 11.0002C1 16.5393 5.49035 21.0296 11.0295 21.0296Z" fill="#FCF055"/>
<path d="M11.9999 0.970718C11.4706 0.973879 10.9423 1.01866 10.4199 1.10465C12.7754 1.47765 14.9206 2.6789 16.4695 4.49235C18.0183 6.30579 18.8693 8.6124 18.8693 10.9973C18.8693 13.3821 18.0183 15.6888 16.4695 17.5022C14.9206 19.3156 12.7754 20.5169 10.4199 20.8899C11.7868 21.1105 13.1846 21.0456 14.5251 20.6992C15.8657 20.3528 17.1199 19.7324 18.2088 18.8772C19.2976 18.0219 20.1975 16.9504 20.8517 15.7301C21.5058 14.5098 21.9001 13.1672 22.0095 11.787C22.119 10.4067 21.9414 9.01875 21.4878 7.71058C21.0342 6.40241 20.3145 5.2024 19.3741 4.1862C18.4337 3.16999 17.2929 2.35964 16.0237 1.80622C14.7546 1.2528 13.3845 0.968324 11.9999 0.970718Z" fill="#FBA800"/>
<path fill-rule="evenodd" clip-rule="evenodd" d="M11 20.5C16.2467 20.5 20.5 16.2467 20.5 11C20.5 5.75329 16.2467 1.5 11 1.5C5.75329 1.5 1.5 5.75329 1.5 11C1.5 16.2467 5.75329 20.5 11 20.5ZM11 22C17.0751 22 22 17.0751 22 11C22 4.92487 17.0751 0 11 0C4.92487 0 0 4.92487 0 11C0 17.0751 4.92487 22 11 22Z" fill="black"/>
<path fill-rule="evenodd" clip-rule="evenodd" d="M12.6281 6.31382C13.3179 6.64719 13.8782 7.29002 14.0071 8.26271C14.0774 8.79408 13.7037 9.2819 13.1724 9.35228C12.641 9.42266 12.1532 9.04896 12.0828 8.51759C12.0613 8.35541 12.0133 8.26427 11.9731 8.21048C11.9311 8.15437 11.8713 8.10394 11.7835 8.06151C11.5889 7.96749 11.3085 7.94033 11.0656 7.98142C10.8793 8.01334 10.5331 8.27994 10.4561 8.69028C10.4062 8.95615 10.4418 9.53582 11.523 10.1649C11.9863 10.4345 12.1434 11.0286 11.8738 11.4919C11.6043 11.9552 11.0102 12.1122 10.5469 11.8427C8.95917 10.9189 8.3076 9.61479 8.54837 8.33217C8.76198 7.19422 9.68401 6.24771 10.74 6.06786L10.7407 6.06774C11.282 5.97597 11.9893 6.00513 12.6281 6.31382Z" fill="black"/>
<path fill-rule="evenodd" clip-rule="evenodd" d="M10.1945 10.5481C10.4442 10.0737 11.031 9.89154 11.5054 10.1411C13.2925 11.0816 14.102 12.4418 13.7868 13.8239C13.5095 15.0395 12.3745 15.9449 11.1912 15.9449C9.95972 15.9449 9.13128 15.486 8.61523 14.9436C8.36837 14.6841 8.20938 14.4232 8.1103 14.2216C8.06054 14.1203 8.02495 14.0321 8.00032 13.9637C7.98798 13.9294 7.97829 13.8999 7.97089 13.8758C7.96718 13.8637 7.96404 13.853 7.96141 13.8437C7.9601 13.8391 7.95891 13.8348 7.95785 13.8309L7.95634 13.8254L7.95566 13.8228L7.95533 13.8215C7.95517 13.8209 7.95501 13.8203 8.89399 13.5748L7.95501 13.8203C7.81944 13.3018 8.12992 12.7715 8.6485 12.6359C9.1592 12.5024 9.68127 12.8014 9.82651 13.3059C9.82655 13.306 9.82659 13.3061 9.82664 13.3062C9.82956 13.3144 9.83765 13.3355 9.85236 13.3655C9.88225 13.4263 9.93543 13.5152 10.0215 13.6056C10.1712 13.763 10.4914 14.0038 11.1912 14.0038C11.4434 14.0038 11.8127 13.7499 11.8943 13.3922C11.9379 13.2011 11.9608 12.5742 10.6015 11.8589C10.1271 11.6093 9.94493 11.0224 10.1945 10.5481Z" fill="black"/>
<path fill-rule="evenodd" clip-rule="evenodd" d="M11.1407 4.76318C11.6767 4.76318 12.1112 5.19771 12.1112 5.73371V6.7586C12.1112 7.29461 11.6767 7.72913 11.1407 7.72913C10.6047 7.72913 10.1702 7.29461 10.1702 6.7586V5.73371C10.1702 5.19771 10.6047 4.76318 11.1407 4.76318Z" fill="black"/>
<path fill-rule="evenodd" clip-rule="evenodd" d="M11.1407 14.0039C11.6767 14.0039 12.1112 14.4384 12.1112 14.9744V16.2662C12.1112 16.8022 11.6767 17.2367 11.1407 17.2367C10.6047 17.2367 10.1702 16.8022 10.1702 16.2662V14.9744C10.1702 14.4384 10.6047 14.0039 11.1407 14.0039Z" fill="black"/>
</svg>
