<svg width="22" height="22" viewBox="0 0 22 22" fill="none" xmlns="http://www.w3.org/2000/svg">
<circle cx="11" cy="11" r="11" fill="url(#paint0_linear_1560_11837)"/>
<path fill-rule="evenodd" clip-rule="evenodd" d="M11 4.51172C7.42229 4.51172 4.51172 7.42229 4.51172 11C4.51172 14.5777 7.42229 17.4883 11 17.4883C14.5777 17.4883 17.4883 14.5777 17.4883 11C17.4883 7.42229 14.5777 4.51172 11 4.51172ZM11.7794 9.62504L11 8.04581L10.2203 9.62504C10.1648 9.73762 10.0574 9.81587 9.93291 9.83378L8.19045 10.0872L9.45175 11.3164C9.54155 11.404 9.58259 11.5304 9.56132 11.6541L9.2635 13.3899L10.8226 12.5706C10.8781 12.5412 10.9389 12.5266 11 12.5266C11.0611 12.5266 11.1219 12.5412 11.1774 12.5706L12.7365 13.3899L12.4387 11.6541C12.4174 11.5304 12.4584 11.404 12.5482 11.3164L13.8096 10.0872L12.0667 9.83378C11.9422 9.81587 11.8349 9.73762 11.7794 9.62504ZM13.2247 11.7231L14.8964 10.0939C15.0004 9.99255 15.0376 9.84083 14.9928 9.70294C14.9478 9.56467 14.8285 9.46404 14.6846 9.44316L12.3749 9.10735L11.3421 7.01456C11.278 6.88411 11.1453 6.80174 10.9999 6.80174C10.8546 6.80174 10.7219 6.88411 10.6578 7.01456L9.62457 9.10735L7.31521 9.44316C7.17136 9.46404 7.05212 9.56467 7.007 9.70294C6.96231 9.84083 6.99957 9.99255 7.10355 10.0939L8.77521 11.7231L8.3805 14.0231C8.35592 14.1662 8.41483 14.3109 8.53222 14.3962C8.65038 14.4823 8.80692 14.4939 8.93402 14.4253L11 13.3396L13.0659 14.4253C13.1926 14.4925 13.3494 14.4826 13.4677 14.3962C13.5852 14.3108 13.6441 14.1662 13.6195 14.0231L13.2247 11.7231Z" fill="url(#paint1_linear_1560_11837)"/>
<defs>
<linearGradient id="paint0_linear_1560_11837" x1="22" y1="22" x2="22" y2="0" gradientUnits="userSpaceOnUse">
<stop stop-color="#FFE59A"/>
<stop offset="1" stop-color="#FFFFD5"/>
</linearGradient>
<linearGradient id="paint1_linear_1560_11837" x1="4.51172" y1="4.51172" x2="4.51172" y2="17.4883" gradientUnits="userSpaceOnUse">
<stop stop-color="#FD5900"/>
<stop offset="1" stop-color="#FFDE00"/>
</linearGradient>
</defs>
</svg>
