<svg width="16" height="16" viewBox="0 0 16 16" fill="none" xmlns="http://www.w3.org/2000/svg">
<path d="M3.46801 5.36279L4.13352 5.44731C4.30472 5.47203 4.47407 5.39184 4.56343 5.24373C4.80925 4.8202 5.28503 4.58532 5.77075 4.64771L6.06174 4.6849C6.21091 4.70349 6.35883 4.64205 6.45093 4.52324L6.70736 4.1906C6.89508 3.94839 6.90355 3.61228 6.72828 3.36092L6.1754 2.56352C5.97666 2.2778 5.71831 2.03859 5.41818 1.86238C5.32833 1.80979 5.24157 1.75209 5.15832 1.68957L4.18508 0.957764C3.50619 1.32651 2.88417 1.79147 2.33833 2.33822C1.06605 3.60345 0.260909 5.26307 0.0546875 7.04548C0.661432 6.93113 1.27441 7.21141 1.58483 7.74512C1.6403 7.84015 1.70917 7.92669 1.78931 8.00209L2.36867 8.54742C2.45245 8.62612 2.55423 8.68312 2.66512 8.71344L2.73274 8.73193C3.18802 8.85732 3.5443 9.2121 3.67159 9.66685L3.98221 10.7875C4.01375 10.9017 4.06694 11.0088 4.13888 11.103L5.08005 12.3371C5.21382 12.5128 5.30279 12.7184 5.33928 12.9362L5.59508 14.471C5.59669 14.4853 5.60327 14.4986 5.61367 14.5085C5.62844 14.5211 5.64908 14.5242 5.6669 14.5165C5.75809 14.4784 5.8207 14.393 5.82952 14.2946C5.86324 13.9472 6.002 13.6184 6.22733 13.3519L6.50009 13.024C6.53433 12.9829 6.56005 12.9354 6.57577 12.8842L6.85579 11.975C6.9482 11.6734 7.13258 11.4083 7.38312 11.2166L8.21665 10.5766C8.24355 10.5573 8.26223 10.5286 8.26897 10.4962C8.27506 10.4617 8.26528 10.4263 8.24236 10.3999L7.68739 9.74699C7.65146 9.70474 7.61683 9.6605 7.58427 9.61523L7.16008 9.02396C6.94533 8.72458 6.61891 8.55144 6.2869 8.55973C6.21486 8.56165 6.14377 8.54295 6.082 8.50584L5.21494 7.98559C5.01154 7.86431 4.75953 7.85819 4.55049 7.96946L4.09367 8.21418C3.60189 8.47544 2.99189 8.315 2.69229 7.84558L2.24872 7.14511C2.00787 6.76489 2.01539 6.27805 2.26788 5.90546C2.53272 5.51171 2.99744 5.30157 3.46801 5.36279Z" fill="black"/>
<path d="M15.3459 10.4053C14.8853 10.4237 14.4758 10.7038 14.2918 11.1264L14.2413 11.2374C14.0415 11.6887 13.593 11.9784 13.0995 11.9751H12.2591C11.9746 11.9795 11.7344 11.7649 11.7069 11.4817L11.6751 11.1537C11.641 10.7891 11.4413 10.4602 11.1335 10.2618C10.95 10.1419 10.8408 9.93635 10.8441 9.71721V9.38054C10.8414 9.14489 10.9404 8.91951 11.1157 8.76203L12.544 7.49384C12.9084 7.17096 13.0519 6.66568 12.9114 6.1995C12.7649 5.71688 12.3478 5.36591 11.8472 5.30407L11.7023 5.2862C11.4886 5.26 11.2922 5.15592 11.1505 4.99388C10.9915 4.81331 10.9642 4.55182 11.0826 4.34234L11.3842 3.82674C11.76 3.18461 12.203 2.58426 12.7058 2.03584L12.933 1.7188C10.5344 -0.173122 7.26777 -0.533825 4.51423 0.789205L5.358 1.42378C5.43108 1.47865 5.50724 1.52929 5.5861 1.57547C5.92799 1.7762 6.22227 2.0487 6.44867 2.37417L7.00158 3.17151C7.25977 3.54182 7.24727 4.03697 6.97074 4.3938L6.71431 4.72644C6.55 4.93862 6.28588 5.04832 6.01959 5.01497L5.7286 4.97775C5.37547 4.93231 5.02954 5.1031 4.85089 5.41108C4.69457 5.67491 4.39527 5.81928 4.09148 5.77738L3.42586 5.69286C3.0797 5.64775 2.73782 5.80234 2.54304 6.09202C2.36478 6.35504 2.35946 6.69873 2.5295 6.96713L2.97327 7.66781C3.17921 7.99044 3.59846 8.10072 3.9365 7.92118L4.39331 7.67642C4.70562 7.51019 5.08211 7.51934 5.38598 7.70054L6.25304 8.22076C6.26054 8.22547 6.2693 8.22779 6.27815 8.22741C6.72023 8.21577 7.1512 8.4412 7.43032 8.83029L7.85447 9.42155C7.88161 9.45934 7.91059 9.49643 7.94062 9.53176L8.49563 10.1845C8.58117 10.2852 8.61832 10.4183 8.59729 10.5487C8.57749 10.6652 8.5137 10.7696 8.41909 10.8404L7.5856 11.4805C7.38983 11.6303 7.24578 11.8375 7.17359 12.0732L6.89341 12.9822C6.86482 13.0753 6.81799 13.1617 6.75566 13.2366L6.48289 13.5646C6.30071 13.7793 6.18828 14.0445 6.1606 14.3247C6.14075 14.5458 6.00017 14.7377 5.79539 14.8232C5.7485 14.843 5.69814 14.8531 5.64727 14.8532C5.45675 14.8536 5.29476 14.7142 5.26683 14.5257L5.01103 12.991C4.98347 12.8267 4.91635 12.6715 4.81543 12.5389L3.87426 11.3048C3.77654 11.177 3.70426 11.0316 3.66137 10.8765L3.35075 9.75579C3.25507 9.4139 2.98721 9.14717 2.64492 9.05292L2.5773 9.03446C2.41389 8.98974 2.2639 8.90573 2.14041 8.78974L1.56125 8.24444C1.45789 8.14715 1.36906 8.03551 1.2975 7.91293C1.05692 7.4987 0.580456 7.28221 0.110204 7.37345L0.0215551 7.39095C0.00718503 7.58714 0 7.78464 0 7.98345C-1.00237e-05 11.2124 1.94508 14.1235 4.92826 15.3591C7.91145 16.5948 11.3452 15.9118 13.6285 13.6286C14.5359 12.7247 15.2114 11.615 15.5975 10.3939C15.5794 10.3955 15.5614 10.3965 15.5436 10.3972L15.3459 10.4053Z" fill="black"/>
<path d="M13.1893 1.93091L12.9695 2.2377C12.9656 2.24317 12.9613 2.24839 12.9568 2.25334C12.4673 2.78629 12.0361 3.37001 11.6706 3.99458L11.37 4.50867C11.3235 4.595 11.3356 4.7011 11.4003 4.77478C11.4882 4.87526 11.6101 4.9398 11.7426 4.95604L11.8879 4.9739C12.5193 5.05184 13.0456 5.49433 13.2308 6.10298C13.4094 6.69335 13.2284 7.33368 12.7671 7.74313L11.3351 9.01119C11.2313 9.10552 11.1732 9.24013 11.1759 9.38042V9.71702C11.1729 9.82257 11.2248 9.92214 11.3131 9.98007C11.7051 10.2329 11.9591 10.652 12.0016 11.1165L12.0352 11.4485C12.0471 11.5616 12.1444 11.6462 12.2581 11.6423H13.0985C13.46 11.6455 13.789 11.4338 13.9357 11.1034L13.9862 10.9964C14.2205 10.4571 14.7424 10.0992 15.3298 10.0747L15.5273 10.0657C15.5431 10.065 15.5592 10.0638 15.5753 10.0622L15.6965 10.0501C15.8757 9.37579 15.9663 8.68102 15.9659 7.98333C15.9717 5.86486 15.1297 3.83213 13.6277 2.33823C13.4858 2.19643 13.3397 2.06066 13.1893 1.93091Z" fill="black"/>
</svg>
