<svg width="22" height="22" viewBox="0 0 22 22" fill="none" xmlns="http://www.w3.org/2000/svg">
<path fill-rule="evenodd" clip-rule="evenodd" d="M3.21611 3.21682C7.50611 -1.07227 14.4829 -1.07227 18.7729 3.21682C23.062 7.50592 23.062 14.4845 18.7729 18.7736C16.6279 20.9176 13.8119 21.9892 10.995 21.9892C8.17802 21.9892 5.36111 20.9177 3.21611 18.7736C-1.07204 14.4845 -1.07204 7.50592 3.21611 3.21682ZM15.5315 15.5322C15.8899 15.1738 15.8899 14.5945 15.5315 14.2361L12.291 10.9947L15.5314 7.75432C15.8898 7.39592 15.8898 6.81567 15.5314 6.45817C15.173 6.09977 14.5937 6.09977 14.2353 6.45817L10.9949 9.69857L7.75447 6.45817C7.39607 6.09977 6.81582 6.09977 6.45832 6.45817C6.09992 6.81567 6.09992 7.39592 6.45832 7.75432L9.69872 10.9947L6.45922 14.2351C6.10082 14.5926 6.10082 15.1729 6.45922 15.5313C6.63797 15.71 6.87267 15.7999 7.10732 15.7999C7.34107 15.7999 7.57577 15.71 7.75542 15.5313L10.9949 12.2909L14.2353 15.5322C14.4141 15.711 14.6488 15.8008 14.8834 15.8008C15.1181 15.8008 15.3528 15.711 15.5315 15.5322Z" fill="white"/>
</svg>
