<svg width="16" height="16" viewBox="0 0 16 16" fill="none" xmlns="http://www.w3.org/2000/svg">
<path d="M13.1382 15.7261C9.71619 16.0913 6.28381 16.0913 2.86182 15.7261C1.49731 15.5804 0.419556 14.5027 0.273926 13.1381C-0.0913086 9.71606 -0.0913086 6.28381 0.273926 2.86182C0.419556 1.49731 1.49731 0.419556 2.86182 0.273926C6.28381 -0.0913086 9.71606 -0.0913086 13.1381 0.273926C14.5027 0.419556 15.5804 1.49731 15.7261 2.86182C16.0913 6.28381 16.0913 9.71606 15.7261 13.1381C15.5804 14.5027 14.5028 15.5804 13.1382 15.7261Z" fill="url(#paint0_linear_0_6738)"/>
<path d="M14.8557 3.44061C14.7265 2.2298 13.7702 1.27338 12.5593 1.1441C9.52264 0.820129 6.47699 0.820129 3.44037 1.1441C2.22955 1.27338 1.27313 2.2298 1.14386 3.44061C0.819885 6.47723 0.819885 9.52289 1.14386 12.5594C1.27313 13.7703 2.22955 14.7267 3.44037 14.8559C6.47699 15.18 9.52264 15.18 12.5591 14.8559C13.7701 14.7267 14.7265 13.7703 14.8557 12.5594C15.1797 9.52289 15.1797 6.47723 14.8557 3.44061Z" fill="url(#paint1_linear_0_6738)"/>
<path d="M0.239746 12.8064C0.250732 12.917 0.262085 13.0276 0.273926 13.1382C0.419556 14.5027 1.49731 15.5804 2.86194 15.7261C6.28394 16.0913 9.71619 16.0913 13.1382 15.7261C14.5028 15.5804 15.5804 14.5027 15.7261 13.1382C15.7379 13.0276 15.7493 12.917 15.7604 12.8064H0.239746Z" fill="url(#paint2_linear_0_6738)"/>
<path d="M10.7565 2.66467C9.36243 2.66467 8.23242 3.7948 8.23242 5.18884V7.07422H6.87402V9.40857L8.23242 10.6252V15.9993C9.86841 15.9913 11.5043 15.9004 13.1379 15.7261C14.5026 15.5804 15.5802 14.5027 15.7258 13.1381C15.9976 10.5919 16.067 8.04016 15.9343 5.49109L13.1079 2.66467L10.7565 2.66467Z" fill="url(#paint3_linear_0_6738)"/>
<path d="M8.23242 15.9993C9.16467 15.9948 10.0968 15.9631 11.0286 15.9045V9.40857H12.8838L13.1079 7.07422H11.0286V5.59192C11.0286 5.26453 11.2939 4.99915 11.6213 4.99915H13.1079V2.66467H10.7565C9.36243 2.66467 8.23242 3.7948 8.23242 5.18884V7.07422H6.87402V9.40857H8.23242V15.9993Z" fill="white"/>
<defs>
<linearGradient id="paint0_linear_0_6738" x1="0.983115" y1="4.273" x2="5.02997" y2="12.9314" gradientUnits="userSpaceOnUse">
<stop stop-color="#3457A0"/>
<stop offset="1" stop-color="#3B5998"/>
</linearGradient>
<linearGradient id="paint1_linear_0_6738" x1="15.84" y1="3.09217" x2="1.8534" y2="-6.51798" gradientUnits="userSpaceOnUse">
<stop stop-color="#3457A0" stop-opacity="0.01"/>
<stop offset="1" stop-color="#1F3F77"/>
</linearGradient>
<linearGradient id="paint2_linear_0_6738" x1="2.73889" y1="13.371" x2="2.73889" y2="15.5361" gradientUnits="userSpaceOnUse">
<stop stop-color="#3457A0" stop-opacity="0.01"/>
<stop offset="1" stop-color="#1F3F77"/>
</linearGradient>
<linearGradient id="paint3_linear_0_6738" x1="20.2839" y1="5.09972" x2="8.51266" y2="2.31986" gradientUnits="userSpaceOnUse">
<stop stop-color="#3457A0" stop-opacity="0.01"/>
<stop offset="0.3251" stop-color="#2A4C8D" stop-opacity="0.32549"/>
<stop offset="0.7045" stop-color="#22427D" stop-opacity="0.705882"/>
<stop offset="1" stop-color="#1F3F77"/>
</linearGradient>
</defs>
</svg>
