<svg width="32" height="32" viewBox="0 0 32 32" fill="none" xmlns="http://www.w3.org/2000/svg">
<path fill-rule="evenodd" clip-rule="evenodd" d="M32 16C32 7.16344 24.8366 0 16 0C7.16344 0 0 7.16344 0 16C0 24.8366 7.16344 32 16 32C24.8366 32 32 24.8366 32 16ZM1.5 16C1.5 7.99187 7.99187 1.5 16 1.5C24.0081 1.5 30.5 7.99187 30.5 16C30.5 24.0081 24.0081 30.5 16 30.5C7.99187 30.5 1.5 24.0081 1.5 16Z" fill="white"/>
<circle cx="16" cy="16" r="14.5" fill="white" fill-opacity="0.7"/>
<path d="M8.70605 9.88247C10.8538 8.28397 13.7959 8.28397 15.9437 9.88247V9.88247C18.0915 11.481 21.0336 11.481 23.1813 9.88247V19.6707C21.0336 21.2692 18.0915 21.2692 15.9437 19.6707V19.6707C13.7959 18.0722 10.8538 18.0722 8.70605 19.6707" fill="#4CBF56"/>
<path d="M8.70605 9.88247C10.8538 8.28397 13.7959 8.28397 15.9437 9.88247V9.88247C18.0915 11.481 21.0336 11.481 23.1813 9.88247V19.6707C21.0336 21.2692 18.0915 21.2692 15.9437 19.6707V19.6707C13.7959 18.0722 10.8538 18.0722 8.70605 19.6707" stroke="#45993D" stroke-linecap="round" stroke-linejoin="round"/>
<path d="M8.70594 23.7649V8.70605Z" fill="#4CBF56"/>
<path d="M8.70594 23.7649V8.70605" stroke="#45993D" stroke-width="1.5" stroke-linecap="round" stroke-linejoin="round"/>
</svg>
