<svg width="12" height="12" viewBox="0 0 12 12" fill="none" xmlns="http://www.w3.org/2000/svg">
<path d="M11.2573 4.60565L11.2574 4.60591C11.3075 4.77306 11.2586 4.95077 11.1452 5.05822L11.145 5.05841L8.63021 7.44722L8.5291 7.54327L8.5577 7.67976L9.29923 11.2184C9.29924 11.2184 9.29925 11.2185 9.29925 11.2185C9.33526 11.391 9.27121 11.5617 9.15131 11.6558L9.15129 11.6559C9.03565 11.7467 8.88794 11.7525 8.7688 11.6748L8.76821 11.6745L5.89942 9.81633L5.76354 9.72831L5.62764 9.81631L2.7578 11.6744L2.75769 11.6745C2.70011 11.7118 2.63907 11.729 2.57962 11.729C2.51058 11.729 2.43922 11.7059 2.37494 11.6556C2.25546 11.5621 2.19115 11.3916 2.22729 11.2183L2.9688 7.67976L2.9974 7.54328L2.89631 7.44724L0.381506 5.05795L0.381045 5.05751C0.268297 4.95094 0.219463 4.7731 0.26961 4.60603C0.319253 4.44065 0.447668 4.34007 0.581806 4.32657C0.581857 4.32656 0.581908 4.32656 0.581959 4.32655L3.90903 3.99933L4.06106 3.98438L4.11712 3.84226L5.43258 0.507277C5.4326 0.507242 5.43261 0.507207 5.43262 0.507171C5.49559 0.348222 5.63031 0.261963 5.76351 0.261963C5.89678 0.261963 6.03149 0.348297 6.09442 0.506649C6.09445 0.50673 6.09448 0.506811 6.09452 0.506891L7.4099 3.84225L7.46595 3.98437L7.618 3.99933L10.945 4.3266L10.9452 4.32661C11.0793 4.33971 11.208 4.44051 11.2573 4.60565Z" fill="white" stroke="#BE5A0E" stroke-width="0.5"/>
<path d="M5.76351 0.0119629C5.51806 0.0119629 5.29714 0.170214 5.20013 0.415259L3.88456 3.75053L0.557046 4.0778C0.312557 4.10228 0.106061 4.2813 0.0301639 4.53416C-0.0457332 4.78702 0.0243595 5.06436 0.209309 5.23919L2.72411 7.62848L1.98256 11.1673C1.92829 11.4275 2.02152 11.6964 2.2208 11.8525C2.32792 11.9363 2.45324 11.979 2.57962 11.979C2.68858 11.979 2.79667 11.9472 2.89367 11.8843L5.76351 10.0262C5.76351 10.0262 6.00897 0.0119629 5.76351 0.0119629Z" fill="#BE5A0E"/>
</svg>
