<svg width="16" height="16" viewBox="0 0 16 16" fill="none" xmlns="http://www.w3.org/2000/svg">
<path fill-rule="evenodd" clip-rule="evenodd" d="M11.6738 10.6066L15.4796 14.5648C15.8015 14.8996 15.7909 15.4335 15.4563 15.7555C15.2988 15.9071 15.0913 15.9905 14.8727 15.9905C14.6417 15.9905 14.4261 15.8987 14.2658 15.7322L10.4311 11.744C9.34229 12.5092 8.06875 12.9123 6.73232 12.9123C3.17246 12.9123 0.276184 10.016 0.276184 6.45614C0.276184 2.89628 3.17246 0 6.73232 0C10.2922 0 13.1885 2.89628 13.1885 6.45614C13.1885 7.97979 12.6523 9.44337 11.6738 10.6066ZM11.5043 6.45614C11.5043 3.82484 9.36362 1.68421 6.73232 1.68421C4.10103 1.68421 1.96039 3.82484 1.96039 6.45614C1.96039 9.08744 4.10103 11.2281 6.73232 11.2281C9.36362 11.2281 11.5043 9.08744 11.5043 6.45614Z" fill="white"/>
</svg>
