<svg width="16" height="16" viewBox="0 0 16 16" fill="none" xmlns="http://www.w3.org/2000/svg">
<path fill-rule="evenodd" clip-rule="evenodd" d="M15.2 14.4H15.6C15.84 14.4 16 14.56 16 14.8V15.6C16 15.84 15.84 16 15.6 16H0.4C0.16 16 0 15.84 0 15.6V14.8C0 14.56 0.16 14.4 0.4 14.4H0.8V5.6C0.8 5.12 1.12 4.8 1.6 4.8V4C1.6 3.52 1.92 3.2 2.4 3.2H4L8 0L11.6 3.2H13.6C14.08 3.2 14.4 3.52 14.4 4V4.8C14.88 4.8 15.2 5.12 15.2 5.6V14.4ZM8.56 2.4C8.56 1.92 8.24 1.6 7.76 1.6C7.28 1.6 6.96 1.92 6.96 2.4C6.96 2.88 7.36 3.2 7.76 3.2C8.24 3.2 8.56 2.88 8.56 2.4ZM4.8 12.8H2.4V10.4H4.8V12.8ZM2.4 8.8H4.8V6.4H2.4V8.8ZM6.4 14.4V12C6.4 11.12 7.12 10.4 8 10.4C8.88 10.4 9.6 11.12 9.6 12V14.4H6.4ZM6.4 6.4V8.8H9.6V6.4H6.4ZM13.6 12.8H11.2V10.4H13.6V12.8ZM11.2 8.8H13.6V6.4H11.2V8.8Z" fill="black"/>
</svg>
