<svg width="16" height="22" viewBox="0 0 16 22" fill="none" xmlns="http://www.w3.org/2000/svg">
<path d="M15.4978 6.43677C14.7759 3.53638 12.3524 1.12593 9.34893 0.300795C8.84623 0.159133 8.34353 0.0688313 7.84066 0.0300587C6.22933 -0.111604 4.64385 0.249267 3.26449 1.0744C2.90362 1.29344 2.83916 1.78339 3.13558 2.0798L5.00472 3.94894L11.3211 13.9521C11.4371 14.1325 11.6434 14.2485 11.8626 14.2485H14.5696C14.8531 14.2485 15.0982 14.0681 15.1754 13.7973C15.5492 12.6113 15.9102 11.2578 15.9102 9.59497C15.9102 8.65402 15.7942 7.60985 15.4978 6.43677Z" fill="#979FEF"/>
<path d="M15.9102 9.59494C15.9102 11.2578 15.5493 12.6113 15.1756 13.7973C15.0982 14.0681 14.8533 14.2485 14.5696 14.2485H11.8626C11.6436 14.2485 11.4371 14.1325 11.3213 13.9521L7.84082 8.43478V0.0300293C8.34352 0.0688018 8.84622 0.159103 9.34892 0.300766C12.3525 1.1259 14.7759 3.53635 15.4978 6.43674C15.7942 7.60982 15.9102 8.65399 15.9102 9.59494Z" fill="#6B77E8"/>
<path d="M13.5384 18.3732L13.1001 17.7159C11.9915 16.0531 12.0946 14.996 12.3524 14.1838L12.5716 13.4748C13.1517 11.6444 13.7059 9.90419 12.984 7.0424C12.4942 5.05728 10.754 3.32997 8.65287 2.74989C8.38214 2.67251 8.1114 2.62098 7.84066 2.58221C6.24226 2.38885 4.69538 2.9174 3.5223 4.10341L0.570385 7.05533C-0.190128 7.80308 -0.190128 9.04045 0.570385 9.78821L1.31814 10.536C2.05297 11.2706 3.29034 11.3737 4.19268 10.4069C4.70831 9.85266 5.35284 9.33703 6.25518 9.6593C5.88139 10.2265 5.41729 10.7164 4.87599 11.1288C3.09698 12.4566 2.04005 14.5707 2.04005 16.8007V18.7343C2.04005 19.0953 2.32354 19.3788 2.68458 19.3788H12.9971C13.5127 19.3788 13.822 18.7987 13.5384 18.3732Z" fill="#FDBF00"/>
<path d="M6.87417 5.28589C6.56584 5.10797 6.17173 5.21354 5.99365 5.52188C5.81573 5.83004 5.92131 6.22432 6.22964 6.40223C6.53781 6.58015 6.93208 6.47458 7.11 6.16641C7.28792 5.85808 7.18234 5.46397 6.87417 5.28589Z" fill="#00607F"/>
<path d="M12.9971 19.3789H7.84082V2.58228C8.11172 2.62105 8.38229 2.67258 8.65303 2.74995C10.7541 3.33003 12.4944 5.05734 12.9843 7.04263C13.7061 9.90425 13.1518 11.6445 12.5717 13.475L12.3527 14.184C12.0949 14.996 11.9917 16.0531 13.1003 17.716L13.5385 18.3735C13.8222 18.7988 13.5129 19.3789 12.9971 19.3789Z" fill="#FF9F00"/>
<path d="M12.9971 18.0898H2.68457C1.61472 18.0898 0.750977 18.9534 0.750977 20.0234V21.3555C0.750977 21.7165 1.03464 22 1.39551 22H14.2861C14.6472 22 14.9307 21.7165 14.9307 21.3555V20.0234C14.9307 18.9534 14.0671 18.0898 12.9971 18.0898Z" fill="#979FEF"/>
<path d="M14.9307 20.0234V21.3555C14.9307 21.7165 14.6472 22 14.2861 22H7.84082V18.0898H12.9971C14.0671 18.0898 14.9307 18.9534 14.9307 20.0234Z" fill="#6B77E8"/>
</svg>
