<svg width="16" height="16" viewBox="0 0 16 16" fill="none" xmlns="http://www.w3.org/2000/svg">
<path fill-rule="evenodd" clip-rule="evenodd" d="M0.644167 4.92734C1.87958 1.94479 4.79005 -3.3898e-06 8.01831 -3.3898e-06C10.1363 -0.00572421 12.1686 0.836095 13.6623 2.33781C16.7793 5.4548 16.7793 10.5086 13.6623 13.6257C10.5452 16.7427 5.49142 16.7427 2.37443 13.6257C0.0916789 11.343 -0.591244 7.90989 0.644167 4.92734ZM0.768881 7.98169C0.768881 11.9791 4.02088 15.2311 8.01831 15.2311C12.0156 15.2311 15.2677 11.9791 15.2677 7.98169C15.2677 3.98441 12.0156 0.732262 8.01831 0.732262C4.02088 0.732262 0.768881 3.98441 0.768881 7.98169Z" fill="black"/>
<path d="M8.3215 7.83009V4.63086C8.3215 4.42863 8.1576 4.26472 7.95537 4.26472C7.75313 4.26472 7.58923 4.42863 7.58923 4.63086V7.98169C7.58923 8.0788 7.62785 8.1719 7.6965 8.2407L9.33265 9.877C9.47568 10.02 9.70751 10.02 9.85053 9.877C9.99341 9.73398 9.99341 9.50214 9.85053 9.35926L8.3215 7.83009Z" fill="black"/>
</svg>
