<svg width="16" height="16" viewBox="0 0 16 16" fill="none" xmlns="http://www.w3.org/2000/svg">
<path d="M16 8C16 12.42 12.415 16 8 16C3.58 16 0 12.42 0 8C0 3.585 3.58 0 8 0C12.415 0 16 3.585 16 8Z" fill="#E24B4B"/>
<path d="M15.9995 8.00002C15.9995 12.42 12.4145 16 7.99953 16C5.47953 16 3.22953 14.835 1.76953 13.015C3.13953 14.115 4.87453 14.77 6.76953 14.77C11.1845 14.77 14.7695 11.19 14.7695 6.77002C14.7695 4.87502 14.1145 3.14002 13.0095 1.77002C14.8345 3.23502 15.9995 5.48002 15.9995 8.00002Z" fill="#D03F3F"/>
<path d="M6.35802 6.42338C6.25702 6.42338 6.16152 6.37438 6.10302 6.29138C5.54952 5.51038 4.79402 5.01238 3.72452 4.72538C3.55802 4.68038 3.45902 4.50888 3.50402 4.34238C3.54902 4.17538 3.71952 4.07788 3.88702 4.12188C4.92052 4.39988 5.72552 4.87638 6.33352 5.57438L6.77202 4.89638C6.86502 4.75138 7.05952 4.70988 7.20352 4.80338C7.34852 4.89738 7.39002 5.09038 7.29652 5.23538L6.62052 6.28038C6.56452 6.36738 6.46852 6.42088 6.36502 6.42338C6.36202 6.42338 6.35952 6.42338 6.35802 6.42338Z" fill="#3E4347"/>
<ellipse cx="5.06866" cy="7.82931" rx="1.263" ry="1.436" fill="#3E4347"/>
<path d="M9.64081 6.4234C9.63831 6.4234 9.63631 6.4234 9.63381 6.4234C9.53031 6.4214 9.43481 6.3674 9.37781 6.2804L8.70231 5.2354C8.60881 5.0904 8.65031 4.8969 8.79531 4.8034C8.93981 4.7094 9.13381 4.7514 9.22731 4.8964L9.66481 5.5739C10.2733 4.8764 11.0778 4.3994 12.1118 4.1219C12.2793 4.0764 12.4498 4.1754 12.4948 4.3424C12.5398 4.5089 12.4408 4.6804 12.2743 4.7254C11.2048 5.0129 10.4493 5.5104 9.89531 6.2919C9.83731 6.3744 9.74181 6.4234 9.64081 6.4234Z" fill="#3E4347"/>
<ellipse cx="10.931" cy="7.82931" rx="1.263" ry="1.436" fill="#3E4347"/>
<path d="M10.2999 12.5445C9.71036 11.928 8.86736 11.575 7.98586 11.575C7.10436 11.575 6.26136 11.9285 5.67186 12.5445C5.48036 12.7445 5.16336 12.7505 4.96486 12.56C4.76536 12.369 4.75836 12.0525 4.94936 11.853C5.72686 11.0405 6.83336 10.575 7.98586 10.575C9.13886 10.575 10.2454 11.041 11.0224 11.853C11.2134 12.0525 11.2064 12.369 11.0069 12.56C10.8084 12.7505 10.4914 12.7445 10.2999 12.5445Z" fill="#3E4347"/>
<path d="M11.6335 8.31285C11.5255 8.40565 11.388 8.21258 11.323 7.87978C11.262 7.54592 11.2965 7.20245 11.4045 7.10965C11.5165 7.01578 11.6545 7.20885 11.715 7.54272C11.78 7.87445 11.7415 8.22005 11.6335 8.31285Z" fill="#5A5F63"/>
<path d="M5.71915 8.31285C5.61115 8.40565 5.47365 8.21258 5.40865 7.87978C5.34815 7.54592 5.38215 7.20245 5.49065 7.10965C5.60265 7.01578 5.74065 7.20885 5.80115 7.54272C5.86565 7.87445 5.82715 8.22005 5.71915 8.31285Z" fill="#5A5F63"/>
</svg>
