<svg width="32" height="32" viewBox="0 0 32 32" fill="none" xmlns="http://www.w3.org/2000/svg">
<circle cx="16" cy="16" r="16" fill="url(#paint0_linear_0_23402)"/>
<path fill-rule="evenodd" clip-rule="evenodd" d="M13.2244 6.5625H10.4487C10.1418 6.5625 9.89355 6.81081 9.89355 7.11762V10.4485C9.89355 10.4496 9.89387 10.4506 9.89418 10.4516C9.89449 10.4525 9.8948 10.4535 9.8948 10.4546C9.8958 10.552 9.95743 10.7431 10.0621 10.8453C10.0629 10.8461 10.0635 10.847 10.064 10.848C10.0646 10.849 10.0651 10.85 10.066 10.8508C10.9977 11.7378 12.0797 12.3647 13.2245 12.7533V6.5625H13.2244ZM17.6656 12.8965C17.2589 12.4247 16.6707 12.1139 16.0002 12.1139C15.3296 12.1139 14.7415 12.4248 14.3347 12.8966V6.5625H17.6656V12.8965ZM17.099 14.3964C17.0945 14.4121 17.09 14.4278 17.0882 14.4446C19.6296 14.9521 21.5517 17.1977 21.5517 19.8861C21.5517 22.9469 19.0611 25.4375 16.0002 25.4375C12.9393 25.4375 10.4487 22.9469 10.4487 19.8861C10.4487 17.1978 12.3708 14.9521 14.9121 14.4446C14.9104 14.4278 14.9059 14.4121 14.9013 14.3964C14.8956 14.3764 14.8899 14.3564 14.8899 14.3346C14.8899 13.7213 15.3869 13.2242 16.0002 13.2242C16.6134 13.2242 17.1105 13.7213 17.1105 14.3346C17.1105 14.3564 17.1048 14.3764 17.099 14.3963L17.099 14.3964ZM16.0002 18.972L16.184 19.3634C16.2626 19.5309 16.4198 19.6486 16.6024 19.6763L17.0686 19.7478L16.713 20.1121C16.5899 20.2379 16.5341 20.4152 16.5623 20.5892L16.6404 21.0679L16.2684 20.8624C16.1015 20.7702 15.8987 20.7702 15.7317 20.8624L15.3593 21.0679L15.4379 20.5892C15.4661 20.4152 15.4103 20.2384 15.2872 20.1121L14.9316 19.7478L15.3979 19.6763C15.5806 19.6486 15.7377 19.5309 15.8164 19.3634L16.0002 18.972ZM18.6182 19.7494L17.7036 20.6868L17.9205 22.0171C17.9546 22.2269 17.8657 22.4378 17.6922 22.5603C17.5187 22.6828 17.2894 22.6959 17.1041 22.5923L16.0002 21.9824L14.8959 22.5923C14.7141 22.6938 14.4841 22.6846 14.3077 22.5603C14.1342 22.4378 14.0453 22.2269 14.0794 22.0171L14.2968 20.6868L13.3822 19.7494C13.2369 19.6003 13.1871 19.3829 13.2532 19.1856C13.3194 18.9883 13.4902 18.8446 13.6956 18.8131L14.9371 18.6234L15.4977 17.4296C15.6809 17.0393 16.3196 17.0393 16.5028 17.4296L17.0634 18.6234L18.3049 18.8131C18.5104 18.8446 18.6811 18.9883 18.7472 19.1856C18.8133 19.3829 18.7634 19.6003 18.6182 19.7494ZM18.7759 6.5625H21.5517C21.8585 6.5625 22.1068 6.81081 22.1069 7.11756V10.4484C22.1069 10.4495 22.1066 10.4505 22.1062 10.4515C22.1059 10.4525 22.1056 10.4535 22.1056 10.4546C22.1041 10.6039 22.0044 10.7807 21.9384 10.8451C21.9375 10.8459 21.937 10.8469 21.9364 10.8479C21.9358 10.8489 21.9353 10.8499 21.9344 10.8507C21.0027 11.7378 19.9207 12.3646 18.7759 12.7533V6.5625Z" fill="url(#paint1_linear_0_23402)"/>
<defs>
<linearGradient id="paint0_linear_0_23402" x1="32" y1="32" x2="32" y2="0" gradientUnits="userSpaceOnUse">
<stop stop-color="#ADDCFF"/>
<stop offset="0.5028" stop-color="#EAF6FF"/>
<stop offset="1" stop-color="#EAF6FF"/>
</linearGradient>
<linearGradient id="paint1_linear_0_23402" x1="9.89352" y1="6.5625" x2="9.89352" y2="25.4375" gradientUnits="userSpaceOnUse">
<stop stop-color="#5558FF"/>
<stop offset="1" stop-color="#00C0FF"/>
</linearGradient>
</defs>
</svg>
