<svg width="17" height="22" viewBox="0 0 17 22" fill="none" xmlns="http://www.w3.org/2000/svg">
<path fill-rule="evenodd" clip-rule="evenodd" d="M8.44012 0.201438C8.44974 0.224125 9.52843 2.64138 15.8995 2.64138C16.0748 2.64138 16.2164 2.78644 16.2171 2.95969V13.7961C16.2171 18.2311 8.59756 21.6219 8.27168 21.7642C8.23112 21.7827 8.18712 21.791 8.14518 21.791C8.0998 21.791 8.05855 21.7827 8.01593 21.7642C7.69418 21.6219 0.0732422 18.2311 0.0732422 13.7961V2.95969C0.0732422 2.78644 0.214867 2.64138 0.39018 2.64138C6.73855 2.64138 7.83993 0.221375 7.84955 0.195937C7.89905 0.0790625 8.01524 0 8.14174 0H8.14793C8.27924 0.004125 8.39268 0.0831875 8.44012 0.201438ZM8.24418 19.4026C8.49855 19.2926 14.464 16.6382 14.464 13.1656V4.68256C14.464 4.54575 14.354 4.433 14.2165 4.433C9.22799 4.433 8.38374 2.541 8.37618 2.52381C8.33974 2.42963 8.24968 2.36775 8.14724 2.36637H8.14312C8.04343 2.36637 7.95337 2.42687 7.91349 2.51969C7.90662 2.53962 7.04518 4.433 2.07455 4.433C1.93705 4.433 1.82568 4.54575 1.82568 4.68256V13.1656C1.82568 16.6382 7.79249 19.2926 8.04343 19.4026C8.07643 19.4184 8.10943 19.4239 8.14518 19.4239C8.17749 19.4239 8.21393 19.4184 8.24418 19.4026Z" fill="black"/>
<path d="M12.3438 10.0372C12.2888 9.8678 12.1385 9.74787 11.9615 9.73185L9.54652 9.5126L8.59212 7.27817C8.52166 7.11401 8.36133 7.00806 8.18287 7.00806C8.00441 7.00806 7.84401 7.11401 7.774 7.27817L6.8196 9.5126L4.40428 9.73185C4.22723 9.74819 4.0773 9.86812 4.0219 10.0372C3.96682 10.2066 4.01768 10.3924 4.15159 10.5098L5.97709 12.1105L5.43884 14.4812C5.39946 14.6555 5.46712 14.8357 5.61175 14.9403C5.68949 14.9968 5.78083 15.025 5.87248 15.025C5.95124 15.025 6.03007 15.004 6.10047 14.9619L8.18287 13.7168L10.2649 14.9619C10.4176 15.0532 10.6097 15.0448 10.754 14.9403C10.8986 14.8357 10.9663 14.6555 10.9269 14.4812L10.3886 12.1105L12.2141 10.5098C12.348 10.3924 12.3989 10.207 12.3438 10.0372Z" fill="#D9534F"/>
</svg>
