<svg width="22" height="22" viewBox="0 0 22 22" fill="none" xmlns="http://www.w3.org/2000/svg">
<path d="M2.83594 0.6875H7.47656C8.6631 0.6875 9.625 1.6494 9.625 2.83594V7.47656C9.625 8.6631 8.6631 9.625 7.47656 9.625H2.83594C1.6494 9.625 0.6875 8.6631 0.6875 7.47656V2.83594C0.6875 1.6494 1.6494 0.6875 2.83594 0.6875Z" fill="#FCF055"/>
<path d="M14.5234 0.6875H19.1641C20.3506 0.6875 21.3125 1.6494 21.3125 2.83594V7.47656C21.3125 8.6631 20.3506 9.625 19.1641 9.625H14.5234C13.3369 9.625 12.375 8.6631 12.375 7.47656V2.83594C12.375 1.6494 13.3369 0.6875 14.5234 0.6875Z" fill="#FCF055"/>
<path d="M16.8438 12.375C19.3118 12.375 21.3125 14.3757 21.3125 16.8438C21.3125 19.3118 19.3118 21.3125 16.8438 21.3125C14.3757 21.3125 12.375 19.3118 12.375 16.8438C12.375 14.3757 14.3757 12.375 16.8438 12.375Z" fill="#FBA800"/>
<path d="M2.83594 12.375H7.47656C8.6631 12.375 9.625 13.3369 9.625 14.5234V19.1641C9.625 20.3506 8.6631 21.3125 7.47656 21.3125H2.83594C1.6494 21.3125 0.6875 20.3506 0.6875 19.1641V14.5234C0.6875 13.3369 1.6494 12.375 2.83594 12.375Z" fill="#FCF055"/>
<path d="M9.625 2.83594V7.47656C9.625 8.66293 8.66293 9.625 7.47656 9.625H5.75781C6.94418 9.625 7.90625 8.66293 7.90625 7.47656V2.83594C7.90625 1.64957 6.94418 0.6875 5.75781 0.6875H7.47656C8.66293 0.6875 9.625 1.64957 9.625 2.83594Z" fill="#FBA800"/>
<path d="M21.3125 2.83594V7.47656C21.3125 8.66293 20.3504 9.625 19.1641 9.625H17.4453C18.6317 9.625 19.5938 8.66293 19.5938 7.47656V2.83594C19.5938 1.64957 18.6317 0.6875 17.4453 0.6875H19.1641C20.3504 0.6875 21.3125 1.64957 21.3125 2.83594Z" fill="#FBA800"/>
<path d="M9.625 14.5234V19.1641C9.625 20.3504 8.66293 21.3125 7.47656 21.3125H5.75781C6.94418 21.3125 7.90625 20.3504 7.90625 19.1641V14.5234C7.90625 13.3371 6.94418 12.375 5.75781 12.375H7.47656C8.66293 12.375 9.625 13.3371 9.625 14.5234Z" fill="#FBA800"/>
<path fill-rule="evenodd" clip-rule="evenodd" d="M2.83594 10.3125H7.47656C9.04032 10.3125 10.3125 9.04032 10.3125 7.47656V2.83594C10.3125 1.27218 9.04032 0 7.47656 0H2.83594C1.27218 0 0 1.27218 0 2.83594V7.47656C0 9.04032 1.27218 10.3125 2.83594 10.3125ZM1.375 2.83594C1.375 2.03036 2.03036 1.375 2.83594 1.375H7.47656C8.28214 1.375 8.9375 2.03036 8.9375 2.83594V7.47656C8.9375 8.28214 8.28214 8.9375 7.47656 8.9375H2.83594C2.03036 8.9375 1.375 8.28214 1.375 7.47656V2.83594Z" fill="black"/>
<path fill-rule="evenodd" clip-rule="evenodd" d="M14.5234 10.3125H19.1641C20.7278 10.3125 22 9.04032 22 7.47656V2.83594C22 1.27218 20.7278 0 19.1641 0H14.5234C12.9597 0 11.6875 1.27218 11.6875 2.83594V7.47656C11.6875 9.04032 12.9597 10.3125 14.5234 10.3125ZM13.0625 2.83594C13.0625 2.03036 13.7179 1.375 14.5234 1.375H19.1641C19.9696 1.375 20.625 2.03036 20.625 2.83594V7.47656C20.625 8.28214 19.9696 8.9375 19.1641 8.9375H14.5234C13.7179 8.9375 13.0625 8.28214 13.0625 7.47656V2.83594Z" fill="black"/>
<path fill-rule="evenodd" clip-rule="evenodd" d="M11.6875 16.8438C11.6875 19.6869 14.0006 22 16.8438 22C19.6869 22 22 19.6869 22 16.8438C22 14.0006 19.6869 11.6875 16.8438 11.6875C14.0006 11.6875 11.6875 14.0006 11.6875 16.8438ZM13.0625 16.8438C13.0625 14.7588 14.7588 13.0625 16.8438 13.0625C18.9287 13.0625 20.625 14.7588 20.625 16.8438C20.625 18.9287 18.9287 20.625 16.8438 20.625C14.7588 20.625 13.0625 18.9287 13.0625 16.8438Z" fill="black"/>
<path fill-rule="evenodd" clip-rule="evenodd" d="M2.83594 22H7.47656C9.04032 22 10.3125 20.7278 10.3125 19.1641V14.5234C10.3125 12.9597 9.04032 11.6875 7.47656 11.6875H2.83594C1.27218 11.6875 0 12.9597 0 14.5234V19.1641C0 20.7278 1.27218 22 2.83594 22ZM1.375 14.5234C1.375 13.7179 2.03036 13.0625 2.83594 13.0625H7.47656C8.28214 13.0625 8.9375 13.7179 8.9375 14.5234V19.1641C8.9375 19.9696 8.28214 20.625 7.47656 20.625H2.83594C2.03036 20.625 1.375 19.9696 1.375 19.1641V14.5234Z" fill="black"/>
</svg>
