<svg width="28" height="28" viewBox="0 0 28 28" fill="none" xmlns="http://www.w3.org/2000/svg">
<g filter="url(#filter0_d)">
<circle cx="14" cy="14" r="12" fill="url(#paint0_linear)"/>
</g>
<path d="M12.2415 14.6088C12.2415 14.4587 12.1198 14.3372 11.9696 14.3372H11.0208C10.8708 14.3372 10.749 14.4587 10.749 14.6088V15.5575C10.749 15.7078 10.8708 15.8294 11.0208 15.8294H11.9696C12.1198 15.8294 12.2415 15.7078 12.2415 15.5575V14.6088Z" fill="white"/>
<path d="M14.6125 14.6088C14.6125 14.4587 14.4907 14.3372 14.3408 14.3372H13.3919C13.2419 14.3372 13.1201 14.4587 13.1201 14.6088V15.5575C13.1201 15.7078 13.2419 15.8294 13.3919 15.8294H14.3408C14.4907 15.8294 14.6125 15.7078 14.6125 15.5575V14.6088Z" fill="white"/>
<path d="M16.9837 14.6088C16.9837 14.4587 16.862 14.3372 16.7119 14.3372H15.7631C15.6129 14.3372 15.4912 14.4587 15.4912 14.6088V15.5575C15.4912 15.7078 15.6129 15.8294 15.7631 15.8294H16.7119C16.862 15.8294 16.9837 15.7078 16.9837 15.5575V14.6088Z" fill="white"/>
<path d="M12.2415 16.9803C12.2415 16.83 12.1198 16.7085 11.9696 16.7085H11.0208C10.8708 16.7085 10.749 16.83 10.749 16.9803V17.9288C10.749 18.079 10.8708 18.2006 11.0208 18.2006H11.9696C12.1198 18.2006 12.2415 18.079 12.2415 17.9288V16.9803Z" fill="white"/>
<path d="M14.6125 16.9803C14.6125 16.83 14.4907 16.7085 14.3408 16.7085H13.3919C13.2419 16.7085 13.1201 16.83 13.1201 16.9803V17.9288C13.1201 18.079 13.2419 18.2006 13.3919 18.2006H14.3408C14.4907 18.2006 14.6125 18.079 14.6125 17.9288V16.9803Z" fill="white"/>
<path d="M16.9837 16.9803C16.9837 16.83 16.862 16.7085 16.7121 16.7085H15.7631C15.6129 16.7085 15.4912 16.83 15.4912 16.9803V17.9288C15.4912 18.079 15.6129 18.2006 15.7631 18.2006H16.7121C16.862 18.2006 16.9837 18.079 16.9837 17.9288V16.9803Z" fill="white"/>
<path fill-rule="evenodd" clip-rule="evenodd" d="M18.6808 10.7829V9.33382C19.2531 9.35107 19.7234 9.82466 19.7234 10.4068V18.8991C19.7234 19.4911 19.2418 19.9792 18.6496 19.9792H9.08351C8.49045 19.9792 8.00977 19.4921 8.00977 18.8991V10.4068C8.00977 9.82466 8.48007 9.35107 9.05242 9.33382V10.7829C9.05242 11.4379 9.58373 11.9657 10.2386 11.9657H10.987C11.6418 11.9657 12.1802 11.4379 12.1802 10.7829V9.32861H15.553V10.7829C15.553 11.4379 16.0913 11.9657 16.7463 11.9657H17.4946C18.1494 11.9657 18.6808 11.4379 18.6808 10.7829ZM17.869 18.8345C18.1254 18.8345 18.3332 18.6265 18.3332 18.3702L18.3332 13.9837C18.3332 13.7273 18.1254 13.5193 17.869 13.5193H9.8437C9.58729 13.5193 9.37951 13.7273 9.37951 13.9837V18.3702C9.37951 18.6265 9.58731 18.8345 9.8437 18.8345H17.869Z" fill="white"/>
<path d="M10.2359 11.1888H10.9761C11.2008 11.1888 11.3829 11.0069 11.3829 10.7823V8.4067C11.3829 8.18201 11.2008 8 10.9761 8H10.2359C10.0112 8 9.8291 8.18201 9.8291 8.4067V10.7823C9.8291 11.0069 10.0112 11.1888 10.2359 11.1888Z" fill="white"/>
<path d="M16.7369 11.1888H17.477C17.7016 11.1888 17.8837 11.0069 17.8837 10.7823V8.4067C17.8837 8.18201 17.7016 8 17.477 8H16.7369C16.5122 8 16.3301 8.18201 16.3301 8.4067V10.7823C16.3301 11.0069 16.5122 11.1888 16.7369 11.1888Z" fill="white"/>
<defs>
<filter id="filter0_d" x="0" y="0" width="28" height="28" filterUnits="userSpaceOnUse" color-interpolation-filters="sRGB">
<feFlood flood-opacity="0" result="BackgroundImageFix"/>
<feColorMatrix in="SourceAlpha" type="matrix" values="0 0 0 0 0 0 0 0 0 0 0 0 0 0 0 0 0 0 127 0" result="hardAlpha"/>
<feOffset/>
<feGaussianBlur stdDeviation="1"/>
<feColorMatrix type="matrix" values="0 0 0 0 0 0 0 0 0 0 0 0 0 0 0 0 0 0 0.2 0"/>
<feBlend mode="normal" in2="BackgroundImageFix" result="effect1_dropShadow"/>
<feBlend mode="normal" in="SourceGraphic" in2="effect1_dropShadow" result="shape"/>
</filter>
<linearGradient id="paint0_linear" x1="2.08143" y1="2" x2="2.08143" y2="25.8371" gradientUnits="userSpaceOnUse">
<stop stop-color="#7ECEFF"/>
<stop offset="1" stop-color="#50B4F0"/>
</linearGradient>
</defs>
</svg>
