<svg width="23" height="16" viewBox="0 0 23 16" fill="none" xmlns="http://www.w3.org/2000/svg">
<path fill-rule="evenodd" clip-rule="evenodd" d="M22.0797 2.49085L22.0515 2.30705C22.3788 4.08405 22.5495 5.91637 22.5495 7.78902V7.78948C22.5495 7.86528 22.5495 7.94106 22.5485 8.00469C22.5495 8.07395 22.5495 8.1432 22.5495 8.21152V8.21193C22.5495 10.0836 22.3788 11.916 22.0806 13.5082L22.0759 13.5279C21.8087 14.4731 21.0735 15.2177 20.1217 15.4934C18.3484 15.9707 11.307 15.9707 11.307 15.9707C11.307 15.9707 4.245 15.9707 2.49239 15.4934L2.4727 15.4887C1.53965 15.2177 0.805413 14.4731 0.533472 13.5082L0.562541 13.6939C-0.12669 10.0283 -0.122001 5.9145 0.533472 2.49085L0.53816 2.47116C0.805413 1.52593 1.54059 0.781368 2.49145 0.505676C4.26376 0.0199325 11.3061 0.0293098 11.3061 0.0293098C11.3061 0.0293098 18.3663 0.0293098 20.1208 0.505676L20.1404 0.510365C21.0735 0.781368 21.8077 1.52593 22.0797 2.49085ZM9.05368 4.5848V11.4237L14.9295 8.00938L9.05368 4.5848Z" fill="black"/>
</svg>
