<svg width="17" height="16" viewBox="0 0 17 16" fill="none" xmlns="http://www.w3.org/2000/svg">
<circle cx="8.76175" cy="7.98441" r="7.98441" fill="#FFD54F"/>
<path d="M15.119 0.641357C14.7337 0.641357 14.3704 0.771104 14.0843 0.994667C13.7982 0.771104 13.4349 0.641357 13.0497 0.641357C12.1528 0.641357 11.4229 1.33866 11.4229 2.19565C11.4229 3.53105 13.4023 4.98022 13.7982 5.25701C13.8847 5.31689 13.9845 5.34683 14.0843 5.34683C14.1841 5.34683 14.2839 5.31689 14.3704 5.25701C14.7663 4.97955 16.7458 3.53105 16.7458 2.19565C16.7458 1.33866 16.0159 0.641357 15.119 0.641357Z" fill="#E53935"/>
<path d="M4.47346 11.2874C4.08821 11.2874 3.72492 11.4171 3.43881 11.6407C3.1527 11.4171 2.78941 11.2874 2.40417 11.2874C1.50725 11.2874 0.777344 11.9847 0.777344 12.8417C0.777344 14.177 2.75681 15.6262 3.1527 15.903C3.2392 15.9629 3.33901 15.9928 3.43881 15.9928C3.53862 15.9928 3.63842 15.9629 3.72492 15.903C4.12081 15.6255 6.10028 14.177 6.10028 12.8417C6.10028 11.9847 5.37037 11.2874 4.47346 11.2874Z" fill="#E53935"/>
<path d="M6.9323 7.48544C6.65684 7.48544 6.43328 7.26188 6.43328 6.98642C6.43328 6.6198 6.13519 6.32105 5.76791 6.32105C5.40063 6.32105 5.10254 6.6198 5.10254 6.98642C5.10254 7.26188 4.87898 7.48544 4.60352 7.48544C4.32806 7.48544 4.10449 7.26188 4.10449 6.98642C4.10449 6.06954 4.85037 5.323 5.76791 5.323C6.68545 5.323 7.43133 6.06954 7.43133 6.98642C7.43133 7.26188 7.20776 7.48544 6.9323 7.48544Z" fill="#6D4C41"/>
<path d="M12.9206 7.48544C12.6451 7.48544 12.4216 7.26188 12.4216 6.98642C12.4216 6.6198 12.1235 6.32105 11.7562 6.32105C11.3889 6.32105 11.0908 6.6198 11.0908 6.98642C11.0908 7.26188 10.8673 7.48544 10.5918 7.48544C10.3163 7.48544 10.0928 7.26188 10.0928 6.98642C10.0928 6.06954 10.8386 5.323 11.7562 5.323C12.6737 5.323 13.4196 6.06954 13.4196 6.98642C13.4196 7.26188 13.196 7.48544 12.9206 7.48544Z" fill="#6D4C41"/>
<path d="M8.76254 11.9767C7.30938 11.9767 5.94405 11.4112 4.91672 10.3832C4.72177 10.1882 4.72177 9.87217 4.91672 9.67722C5.11167 9.48227 5.42772 9.48227 5.62268 9.67722C6.46104 10.5169 7.57619 10.9787 8.76254 10.9787C9.94889 10.9787 11.064 10.5169 11.9031 9.67789C12.098 9.48293 12.4141 9.48293 12.609 9.67789C12.804 9.87284 12.804 10.1889 12.609 10.3838C11.581 11.4112 10.2157 11.9767 8.76254 11.9767Z" fill="#6D4C41"/>
</svg>
