<svg width="17" height="16" viewBox="0 0 17 16" fill="none" xmlns="http://www.w3.org/2000/svg">
<path d="M6.65663 9.37484C5.12946 7.84766 4.78463 6.32049 4.70683 5.70863C4.6851 5.53945 4.74332 5.36978 4.86435 5.24959L6.10021 4.01428C6.28201 3.8326 6.31427 3.54945 6.17801 3.33153L4.21028 0.276077C4.05953 0.034766 3.74999 -0.0523254 3.49552 0.0749733L0.336627 1.5627C0.130851 1.66402 0.00981548 1.88266 0.0331792 2.11084C0.198696 3.68325 0.884213 7.54863 4.68283 11.3475C8.48145 15.1464 12.3463 15.8317 13.9195 15.9972C14.1477 16.0205 14.3663 15.8995 14.4677 15.6937L15.9554 12.5348C16.0822 12.2809 15.9957 11.9722 15.7554 11.8212L12.6999 9.85401C12.4821 9.7176 12.199 9.74963 12.0172 9.93125L10.7819 11.1671C10.6617 11.2881 10.492 11.3464 10.3228 11.3246C9.71097 11.2468 8.1838 10.902 6.65663 9.37484Z" fill="white"/>
<path d="M12.7209 8.55189C12.4162 8.55189 12.1692 8.30488 12.1692 8.00017C12.1666 5.71592 10.3155 3.86482 8.03125 3.86224C7.72654 3.86224 7.47952 3.61522 7.47952 3.31051C7.47952 3.0058 7.72654 2.75879 8.03125 2.75879C10.9247 2.76198 13.2694 5.10676 13.2726 8.00017C13.2726 8.30488 13.0256 8.55189 12.7209 8.55189Z" fill="white"/>
<path d="M15.4795 8.55172C15.1748 8.55172 14.9278 8.30471 14.9278 8C14.9235 4.1929 11.8383 1.10771 8.03125 1.10345C7.72654 1.10345 7.47952 0.856433 7.47952 0.551724C7.47952 0.247015 7.72654 0 8.03125 0C12.4475 0.00486507 16.0264 3.58374 16.0312 8C16.0312 8.14633 15.9731 8.28666 15.8697 8.39013C15.7662 8.4936 15.6258 8.55172 15.4795 8.55172Z" fill="white"/>
</svg>
