<svg width="27" height="48" viewBox="0 0 27 48" fill="none" xmlns="http://www.w3.org/2000/svg">
<path fill-rule="evenodd" clip-rule="evenodd" d="M22.4516 0H3.87097C1.73409 0.00239994 0.00239994 1.73409 0 3.87097V44.129C0.00239994 46.2659 1.73409 47.9976 3.87097 48H22.4516C24.5885 47.9976 26.3202 46.2659 26.3226 44.129V3.87097C26.3202 1.73409 24.5885 0.00239994 22.4516 0ZM18.4105 1.54839L17.946 3.87097H8.37668L7.91216 1.54839H18.4105ZM22.4516 46.4516C23.7337 46.4502 24.7728 45.4112 24.7742 44.129V3.87097C24.7728 2.58884 23.7337 1.54983 22.4516 1.54839H19.9896L19.3398 4.797C19.2675 5.15889 18.9497 5.41937 18.5806 5.41935H7.74194C7.37288 5.41937 7.05512 5.15889 6.98274 4.797L6.333 1.54839H3.87097C2.58884 1.54983 1.54983 2.58884 1.54839 3.87097V44.129C1.54983 45.4112 2.58884 46.4502 3.87097 46.4516H22.4516Z" fill="black"/>
<path d="M8.51603 43.3549H3.87087C3.4433 43.3549 3.09668 43.7015 3.09668 44.1291C3.09668 44.5566 3.4433 44.9032 3.87087 44.9032H8.51603C8.94361 44.9032 9.29023 44.5566 9.29023 44.1291C9.29023 43.7015 8.94361 43.3549 8.51603 43.3549Z" fill="black"/>
<path d="M11.6128 43.3549H10.8386C10.4111 43.3549 10.0645 43.7015 10.0645 44.1291C10.0645 44.5566 10.4111 44.9032 10.8386 44.9032H11.6128C12.0404 44.9032 12.387 44.5566 12.387 44.1291C12.387 43.7015 12.0404 43.3549 11.6128 43.3549Z" fill="black"/>
</svg>
