<svg width="16" height="13" viewBox="0 0 16 13" fill="none" xmlns="http://www.w3.org/2000/svg">
<path fill-rule="evenodd" clip-rule="evenodd" d="M14.8005 1.67003H10.5748L9.72145 0.236524C9.63797 0.0963682 9.48696 0.010498 9.32384 0.010498H6.6401C6.47699 0.010498 6.32592 0.0963682 6.24249 0.236524L5.38919 1.67003H4.00255V1.35408C4.00255 1.09855 3.79538 0.891381 3.53984 0.891381H1.82779C1.57221 0.891381 1.36509 1.09855 1.36509 1.35408V1.67003H1.16353C0.520883 1.67003 0 2.19097 0 2.83351V11.2577C0 11.9003 0.520883 12.4213 1.16348 12.4213H14.8005C15.4431 12.4213 15.964 11.9003 15.964 11.2577V2.83351C15.9641 2.19097 15.4431 1.67003 14.8005 1.67003ZM7.98197 10.3575C6.15288 10.3575 4.67013 8.87471 4.67013 7.04556C4.67013 5.21652 6.15288 3.73372 7.98197 3.73372C9.81106 3.73372 11.2938 5.21652 11.2938 7.04556C11.2938 8.87471 9.81106 10.3575 7.98197 10.3575ZM12.6247 4.06878H14.0745C14.3301 4.06878 14.5373 3.86161 14.5373 3.60603C14.5373 3.35045 14.3302 3.14328 14.0745 3.14328H12.6247C12.3691 3.14328 12.162 3.35045 12.162 3.60603C12.162 3.86161 12.3691 4.06878 12.6247 4.06878Z" fill="black"/>
<circle cx="7.98163" cy="7.0456" r="2.31366" fill="black"/>
</svg>
