<svg width="16" height="22" viewBox="0 0 16 22" fill="none" xmlns="http://www.w3.org/2000/svg">
<path d="M12.2421 5.71299C12.0923 5.46542 11.7959 5.34776 11.5173 5.42547C11.2387 5.50318 11.0458 5.75714 11.0458 6.04634C11.0458 6.83303 10.4058 7.47287 9.61929 7.47287C8.83276 7.47287 8.19276 6.83303 8.19276 6.04634V0.644527C8.19276 0.383861 8.03566 0.148876 7.7948 0.0491746C7.55394 -0.0506942 7.27682 0.0043595 7.09253 0.188823C7.02002 0.261165 5.30144 1.98999 3.5602 4.60185C2.53331 6.14201 1.71388 7.66975 1.12474 9.1426C0.378494 11.0086 0 12.7948 0 14.4519C0 18.6139 3.38614 22 7.54823 22C11.7102 22 15.0963 18.6139 15.0963 14.4519C15.0965 11.7877 14.136 8.84753 12.2421 5.71299Z" fill="#FF9F00"/>
<path d="M12.2417 5.71315C12.092 5.46558 11.7955 5.34792 11.5169 5.42563C11.2383 5.50334 11.0454 5.75729 11.0454 6.04649C11.0454 6.83319 10.4054 7.47302 9.61891 7.47302C8.83238 7.47302 8.19238 6.83319 8.19238 6.04649V0.644684C8.19238 0.384018 8.03528 0.149033 7.79442 0.0493317C7.71469 0.016098 7.63094 0.000488281 7.54785 0.000488281V22.0002C11.7099 22.0002 15.0961 18.614 15.0961 14.4519C15.0961 11.7879 14.1357 8.84769 12.2417 5.71315Z" fill="#FF641A"/>
<path d="M11.2045 10.8784H8.44295C8.08694 10.8784 7.79842 11.1669 7.79842 11.5229C7.79825 11.879 8.08694 12.1675 8.44278 12.1675H9.64842L6.89473 14.9212L5.39787 13.4243C5.14627 13.1725 4.73824 13.1725 4.48647 13.4243L3.02184 14.8886C2.77007 15.1404 2.77007 15.5484 3.02184 15.8002C3.27344 16.052 3.68147 16.052 3.93324 15.8002L4.94217 14.7916L6.43903 16.2885C6.55988 16.4093 6.72386 16.4771 6.89473 16.4771C7.0656 16.4771 7.22958 16.4093 7.35043 16.2885L10.5598 13.0791V14.2844C10.5598 14.6404 10.8484 14.9289 11.2044 14.9289C11.5604 14.9289 11.8489 14.6404 11.8489 14.2844V11.5229C11.8489 11.1671 11.5604 10.8784 11.2045 10.8784V10.8784Z" fill="white"/>
<path d="M11.2042 10.8784H8.44264C8.08664 10.8784 7.79811 11.1669 7.79811 11.5229C7.79794 11.879 8.08664 12.1675 8.44247 12.1675H9.64812L7.54785 14.2677V16.0907L10.5597 13.0791V14.2844C10.5597 14.6404 10.8482 14.9289 11.2042 14.9289C11.5601 14.9289 11.8488 14.6404 11.8488 14.2844V11.5229C11.8486 11.1671 11.5601 10.8784 11.2042 10.8784V10.8784Z" fill="white"/>
</svg>
