<svg width="22" height="22" viewBox="0 0 22 22" fill="none" xmlns="http://www.w3.org/2000/svg">
<path d="M14.3945 13.9362L19.4362 8.89453C19.6176 8.71311 19.7083 8.49826 19.7083 8.25C19.7083 8.00174 19.6176 7.78689 19.4362 7.60547L14.3945 2.5638C14.1081 2.2678 13.7786 2.20095 13.4062 2.36328C13.0243 2.52561 12.8333 2.80729 12.8333 3.20833V5.5C11.697 5.5 10.6658 5.5931 9.73958 5.7793C8.81337 5.9655 8.03754 6.20898 7.41211 6.50977C6.78668 6.81055 6.2424 7.18772 5.7793 7.64128C5.31619 8.09484 4.95095 8.55078 4.68359 9.00912C4.41623 9.46745 4.20378 9.98785 4.04622 10.5703C3.88867 11.1528 3.78602 11.6851 3.73828 12.1673C3.69054 12.6495 3.66667 13.1771 3.66667 13.75C3.66667 15.4783 4.46398 17.4071 6.05859 19.5365C6.16363 19.651 6.28299 19.7083 6.41667 19.7083C6.48351 19.7083 6.54557 19.694 6.60286 19.6654C6.81293 19.5794 6.90365 19.4219 6.875 19.1927C6.45486 15.8125 6.75087 13.5543 7.76302 12.418C8.20226 11.9214 8.82292 11.561 9.625 11.3366C10.4271 11.1122 11.4965 11 12.8333 11V13.2917C12.8333 13.6927 13.0243 13.9744 13.4062 14.1367C13.5208 14.1845 13.6354 14.2083 13.75 14.2083C13.9983 14.2083 14.2131 14.1176 14.3945 13.9362ZM22 4.125V17.875C22 19.0113 21.5966 19.9829 20.7897 20.7897C19.9829 21.5966 19.0113 22 17.875 22H4.125C2.98872 22 2.01714 21.5966 1.21029 20.7897C0.403429 19.9829 0 19.0113 0 17.875V4.125C0 2.98872 0.403429 2.01714 1.21029 1.21029C2.01714 0.403429 2.98872 0 4.125 0H17.875C19.0113 0 19.9829 0.403429 20.7897 1.21029C21.5966 2.01714 22 2.98872 22 4.125Z" fill="white"/>
</svg>
