<svg width="16" height="16" viewBox="0 0 16 16" fill="none" xmlns="http://www.w3.org/2000/svg">
<circle cx="8" cy="8" r="8" fill="url(#paint0_linear_1116_22877)"/>
<path fill-rule="evenodd" clip-rule="evenodd" d="M8 3.28125C5.39803 3.28125 3.28125 5.39803 3.28125 8C3.28125 10.602 5.39803 12.7188 8 12.7188C10.602 12.7188 12.7188 10.602 12.7188 8C12.7188 5.39803 10.602 3.28125 8 3.28125ZM8.56681 7.00003L8 5.8515L7.43294 7.00003C7.39256 7.08191 7.31447 7.13881 7.22394 7.15184L5.95669 7.33616L6.874 8.23012C6.93931 8.29381 6.96916 8.38572 6.95369 8.47572L6.73709 9.73809L7.87097 9.14228C7.91134 9.12087 7.95553 9.11028 8 9.11028C8.04447 9.11028 8.08862 9.12084 8.12903 9.14228L9.26291 9.73809L9.04631 8.47572C9.03084 8.38572 9.06069 8.29384 9.126 8.23012L10.0433 7.33616L8.77578 7.15184C8.68525 7.13881 8.60719 7.08191 8.56681 7.00003ZM9.618 8.52587L10.8337 7.34103C10.9094 7.26731 10.9365 7.15697 10.9039 7.05669C10.8711 6.95612 10.7843 6.88294 10.6797 6.86775L8.99991 6.62353L8.24878 5.1015C8.20216 5.00662 8.10566 4.94672 7.99994 4.94672C7.89422 4.94672 7.79772 5.00662 7.75109 5.1015L6.99969 6.62353L5.32016 6.86775C5.21553 6.88294 5.12881 6.95612 5.096 7.05669C5.0635 7.15697 5.09059 7.26731 5.16622 7.34103L6.38197 8.52587L6.09491 10.1986C6.07703 10.3027 6.11987 10.4079 6.20525 10.47C6.29119 10.5326 6.40503 10.541 6.49747 10.4911L8 9.7015L9.5025 10.4911C9.59462 10.54 9.70869 10.5328 9.79472 10.47C9.88012 10.4079 9.92297 10.3027 9.90506 10.1986L9.618 8.52587Z" fill="url(#paint1_linear_1116_22877)"/>
<defs>
<linearGradient id="paint0_linear_1116_22877" x1="16" y1="16" x2="16" y2="0" gradientUnits="userSpaceOnUse">
<stop stop-color="#FFE59A"/>
<stop offset="1" stop-color="#FFFFD5"/>
</linearGradient>
<linearGradient id="paint1_linear_1116_22877" x1="3.28125" y1="3.28125" x2="3.28125" y2="12.7188" gradientUnits="userSpaceOnUse">
<stop stop-color="#FD5900"/>
<stop offset="1" stop-color="#FFDE00"/>
</linearGradient>
</defs>
</svg>
