<svg width="16" height="16" viewBox="0 0 16 16" fill="none" xmlns="http://www.w3.org/2000/svg">
<path d="M0 7.98654C0 3.57537 3.57566 0 7.98632 0C12.3972 0 15.9729 3.5754 15.9729 7.98654C15.9729 12.3971 12.3972 15.9727 7.98632 15.9727C3.57566 15.9727 0 12.3971 0 7.98654Z" fill="#E04F5F"/>
<path d="M12.0444 4.99454C10.9241 3.87422 9.1076 3.87422 7.98731 4.99454H7.98638C6.86602 3.87422 5.04959 3.87422 3.9293 4.99454C2.80894 6.11486 2.97049 7.79026 3.9293 9.05158C4.9447 10.3873 6.79864 12.591 7.98638 12.591H7.98731C9.17508 12.591 11.029 10.3873 12.0444 9.05158C13.0032 7.79029 13.1647 6.11489 12.0444 4.99454Z" fill="white"/>
</svg>
