<svg width="13" height="16" viewBox="0 0 13 16" fill="none" xmlns="http://www.w3.org/2000/svg">
<path fill-rule="evenodd" clip-rule="evenodd" d="M10.6784 5.33332H9.9165V3.8095C9.9165 1.70668 8.20983 0 6.10697 0C4.00411 0 2.29743 1.70668 2.29743 3.80954V5.33336H1.53554C0.693647 5.33336 0.0117188 6.01525 0.0117188 6.85718V14.4762C0.0117188 15.3181 0.693647 16 1.53554 16H10.6784C11.5203 16 12.2022 15.3181 12.2022 14.4762V6.85714C12.2022 6.01525 11.5203 5.33332 10.6784 5.33332ZM6.10697 12.1905C5.26508 12.1905 4.58315 11.5086 4.58315 10.6666C4.58315 9.82475 5.26508 9.14286 6.10697 9.14286C6.94886 9.14286 7.63079 9.82475 7.63079 10.6667C7.63079 11.5086 6.94886 12.1905 6.10697 12.1905ZM3.74508 5.33332H8.46886V3.8095C8.46886 2.50664 7.40983 1.44761 6.10697 1.44761C4.80411 1.44761 3.74508 2.50664 3.74508 3.8095V5.33332Z" fill="#9EA9C9"/>
</svg>
