<svg width="22" height="22" viewBox="0 0 22 22" fill="none" xmlns="http://www.w3.org/2000/svg">
<path fill-rule="evenodd" clip-rule="evenodd" d="M3.6639 0H18.3361C20.3564 0 22 1.6436 22 3.6639V18.3361C22 20.3564 20.3564 22 18.3361 22H3.6639C1.6436 22 0 20.3564 0 18.3361V3.6639C0 1.6436 1.6436 0 3.6639 0ZM7.96215 14.4173C8.33065 14.0699 8.34715 13.4897 8.00065 13.1212L6.00046 10.9972L8.00061 8.8788C8.34711 8.51121 8.33061 7.93096 7.96211 7.58355C7.59361 7.23521 7.0143 7.25261 6.66596 7.62021L4.06996 10.3702C3.81971 10.637 3.75371 11.0266 3.89855 11.363C3.9499 11.4803 4.02321 11.583 4.11305 11.6673L6.66596 14.3788C6.84655 14.5704 7.08946 14.6667 7.3333 14.6667C7.5588 14.6667 7.7843 14.5842 7.96215 14.4173ZM12.7857 8.53965L10.9523 14.0397C10.8249 14.4237 10.4674 14.6667 10.0833 14.6667C9.98705 14.6667 9.8899 14.652 9.79365 14.6199C9.3133 14.4595 9.0539 13.9397 9.2143 13.4603L11.0477 7.9603C11.2081 7.47996 11.7223 7.2178 12.2063 7.38005C12.6867 7.5405 12.9461 8.05935 12.7857 8.53965ZM15.3147 14.3981L18.0648 11.6481C18.4232 11.2897 18.4232 10.7103 18.0648 10.3519L15.3147 7.60195C14.9563 7.24354 14.377 7.24354 14.0186 7.60195C13.6602 7.96035 13.6602 8.5397 14.0186 8.8981L16.1205 11L14.0186 13.1019C13.6602 13.4603 13.6602 14.0397 14.0186 14.3981C14.1973 14.5768 14.432 14.6667 14.6667 14.6667C14.9013 14.6667 15.136 14.5768 15.3147 14.3981Z" fill="black"/>
</svg>
