<svg width="32" height="27" viewBox="0 0 32 27" fill="none" xmlns="http://www.w3.org/2000/svg">
<path fill-rule="evenodd" clip-rule="evenodd" d="M8.75662 20.8203H18.8623C19.2193 20.8203 19.5425 21.0323 19.6844 21.3601L21.6216 25.8308C21.7637 26.1585 22.0867 26.3706 22.4439 26.3706H26.2864C26.9349 26.3706 27.3685 25.7034 27.1053 25.1106L16.3938 1.00122C16.25 0.677491 15.929 0.468994 15.575 0.468994H12.0774C11.7232 0.468994 11.4024 0.677491 11.2586 1.00122L0.546894 25.1106C0.28371 25.7034 0.717548 26.3706 1.36599 26.3706H5.20462C5.56375 26.3706 5.88797 26.1565 6.02883 25.8262L7.9324 21.3648C8.07352 21.0345 8.39774 20.8203 8.75662 20.8203ZM17.6738 16.3799H9.94035L13.8256 6.98121L17.6738 16.3799Z" fill="#FF6914"/>
<path d="M6.32935 21.3649L4.42578 25.8263C4.28491 26.1566 3.96069 26.3707 3.60156 26.3707H5.20386C5.56299 26.3707 5.88721 26.1566 6.02808 25.8263L7.93165 21.3649C8.07252 21.0345 8.39698 20.8204 8.75587 20.8204H7.15357C6.79468 20.8204 6.47022 21.0345 6.32935 21.3649Z" fill="#ED500A"/>
<path d="M13.8254 6.98133L13.0281 5.0343L8.33789 16.38H9.94019L13.8254 6.98133Z" fill="#ED500A"/>
<path d="M27.1043 25.1108L16.3928 1.00134C16.249 0.677613 15.928 0.469116 15.5737 0.469116H13.9717C14.3257 0.469116 14.6467 0.677613 14.7905 1.00134L25.502 25.1108C25.7654 25.7035 25.3316 26.3708 24.6831 26.3708H26.2854C26.9339 26.3708 27.3675 25.7035 27.1043 25.1108Z" fill="#ED500A"/>
<path fill-rule="evenodd" clip-rule="evenodd" d="M3.80576 16.8505H3.36802C3.10923 16.8505 2.89927 16.6405 2.89927 16.3815C2.89927 16.1227 3.10923 15.9127 3.36802 15.9127H3.80576C4.06455 15.9127 4.27452 16.1227 4.27452 16.3815C4.27452 16.6405 4.06455 16.8505 3.80576 16.8505ZM5.36946 16.8505H5.80696C6.06599 16.8505 6.27595 16.6405 6.27595 16.3815C6.27595 16.1227 6.06599 15.9127 5.80696 15.9127H5.36946C5.11042 15.9127 4.90046 16.1227 4.90046 16.3815C4.90046 16.6405 5.11042 16.8505 5.36946 16.8505ZM7.80733 16.8505H7.36959C7.1108 16.8505 6.90083 16.6405 6.90083 16.3815C6.90083 16.1227 7.1108 15.9127 7.36959 15.9127H7.80733C8.06612 15.9127 8.27608 16.1227 8.27608 16.3815C8.27608 16.6405 8.06612 16.8505 7.80733 16.8505ZM9.8077 16.8505H9.3702C9.11117 16.8505 8.90121 16.6405 8.90121 16.3815C8.90121 16.1227 9.11117 15.9127 9.3702 15.9127H9.8077C10.0667 15.9127 10.2767 16.1227 10.2767 16.3815C10.2767 16.6405 10.0667 16.8505 9.8077 16.8505ZM1.36743 16.8505H1.80493C2.06397 16.8505 2.27393 16.6406 2.27393 16.3815C2.27393 16.1227 2.06397 15.9128 1.80493 15.9128H1.36743C1.1084 15.9128 0.898438 16.1227 0.898438 16.3815C0.898438 16.6406 1.1084 16.8505 1.36743 16.8505Z" fill="#1DC2FF"/>
<path fill-rule="evenodd" clip-rule="evenodd" d="M9.92499 26.8433H9.48724C9.22821 26.8433 9.01849 26.6333 9.01849 26.3743C9.01849 26.1155 9.22821 25.9055 9.48724 25.9055H9.92499C10.1838 25.9055 10.3937 26.1155 10.3937 26.3743C10.3937 26.6333 10.1838 26.8433 9.92499 26.8433ZM11.4887 26.8433H11.9262C12.1852 26.8433 12.3952 26.6333 12.3952 26.3743C12.3952 26.1155 12.1852 25.9055 11.9262 25.9055H11.4887C11.2296 25.9055 11.0197 26.1155 11.0197 26.3743C11.0197 26.6333 11.2296 26.8433 11.4887 26.8433ZM13.9266 26.8433H13.4888C13.23 26.8433 13.0201 26.6333 13.0201 26.3743C13.0201 26.1155 13.23 25.9055 13.4888 25.9055H13.9266C14.1853 25.9055 14.3953 26.1155 14.3953 26.3743C14.3953 26.6333 14.1856 26.8433 13.9266 26.8433ZM15.4894 26.8433H15.9269C16.186 26.8433 16.3959 26.6333 16.3959 26.3743C16.3959 26.1155 16.186 25.9055 15.9269 25.9055H15.4894C15.2304 25.9055 15.0204 26.1155 15.0204 26.3743C15.0204 26.6333 15.2304 26.8433 15.4894 26.8433ZM17.9281 26.8433H17.4904C17.2313 26.8433 17.0216 26.6333 17.0216 26.3743C17.0216 26.1155 17.2313 25.9055 17.4904 25.9055H17.9281C18.1872 25.9055 18.3969 26.1155 18.3969 26.3743C18.3969 26.6333 18.1872 26.8433 17.9281 26.8433ZM19.9285 26.8433H19.4907C19.2317 26.8433 19.022 26.6333 19.022 26.3743C19.022 26.1155 19.2317 25.9055 19.4907 25.9055H19.9285C20.1873 25.9055 20.3972 26.1155 20.3972 26.3743C20.3972 26.6333 20.1873 26.8433 19.9285 26.8433ZM7.48731 26.8433H7.92505C8.18408 26.8433 8.39404 26.6333 8.39404 26.3743C8.39404 26.1155 8.18408 25.9055 7.92505 25.9055H7.48731C7.22852 25.9055 7.01855 26.1155 7.01855 26.3743C7.01855 26.6333 7.22852 26.8433 7.48731 26.8433Z" fill="#6B95CC"/>
<path fill-rule="evenodd" clip-rule="evenodd" d="M15.0149 0.940187H14.5772C14.3184 0.940187 14.1084 0.730226 14.1084 0.471192C14.1084 0.212158 14.3184 0.00219727 14.5772 0.00219727H15.0149C15.2737 0.00219727 15.4837 0.212158 15.4837 0.471192C15.4837 0.730226 15.2737 0.940187 15.0149 0.940187ZM16.5786 0.940187H17.0161C17.2751 0.940187 17.4851 0.730226 17.4851 0.471192C17.4851 0.212158 17.2751 0.00219727 17.0161 0.00219727H16.5786C16.3196 0.00219727 16.1096 0.212158 16.1096 0.471192C16.1096 0.730226 16.3196 0.940187 16.5786 0.940187ZM19.0165 0.940187H18.5787C18.3199 0.940187 18.11 0.730226 18.11 0.471192C18.11 0.212158 18.3199 0.00219727 18.5787 0.00219727H19.0165C19.2755 0.00219727 19.4852 0.212158 19.4852 0.471192C19.4852 0.730226 19.2755 0.940187 19.0165 0.940187ZM20.5793 0.940187H21.0168C21.2759 0.940187 21.4858 0.730226 21.4858 0.471192C21.4858 0.212158 21.2759 0.00219727 21.0168 0.00219727H20.5793C20.3203 0.00219727 20.1103 0.212158 20.1103 0.471192C20.1103 0.730226 20.3203 0.940187 20.5793 0.940187ZM23.018 0.940187H22.5803C22.3215 0.940187 22.1115 0.730226 22.1115 0.471192C22.1115 0.212158 22.3215 0.00219727 22.5803 0.00219727H23.018C23.2771 0.00219727 23.487 0.212158 23.487 0.471192C23.487 0.730226 23.2771 0.940187 23.018 0.940187ZM24.5807 0.940187H25.0184C25.2772 0.940187 25.4872 0.730226 25.4872 0.471192C25.4872 0.212158 25.2772 0.00219727 25.0184 0.00219727H24.5807C24.3216 0.00219727 24.1119 0.212158 24.1119 0.471192C24.1119 0.730226 24.3216 0.940187 24.5807 0.940187ZM26.5813 0.940187H27.0188C27.2778 0.940187 27.4878 0.730226 27.4878 0.471192C27.4878 0.212158 27.2778 0.00219727 27.0188 0.00219727H26.5813C26.3222 0.00219727 26.1123 0.212158 26.1123 0.471192C26.1123 0.730226 26.3222 0.940187 26.5813 0.940187ZM12.5774 0.940231H13.0149C13.2739 0.940231 13.4839 0.73027 13.4839 0.471236C13.4839 0.212203 13.2739 0.00224161 13.0149 0.00224161H12.5774C12.3184 0.00224161 12.1084 0.212203 12.1084 0.471236C12.1084 0.73027 12.3184 0.940231 12.5774 0.940231Z" fill="#1DC2FF"/>
<path fill-rule="evenodd" clip-rule="evenodd" d="M9.92499 26.8433H9.48724C9.22821 26.8433 9.01849 26.6333 9.01849 26.3743C9.01849 26.1155 9.22821 25.9055 9.48724 25.9055H9.92499C10.1838 25.9055 10.3937 26.1155 10.3937 26.3743C10.3937 26.6333 10.1838 26.8433 9.92499 26.8433ZM11.4887 26.8433H11.9262C12.1852 26.8433 12.3952 26.6333 12.3952 26.3743C12.3952 26.1155 12.1852 25.9055 11.9262 25.9055H11.4887C11.2296 25.9055 11.0197 26.1155 11.0197 26.3743C11.0197 26.6333 11.2296 26.8433 11.4887 26.8433ZM13.9266 26.8433H13.4888C13.23 26.8433 13.0201 26.6333 13.0201 26.3743C13.0201 26.1155 13.23 25.9055 13.4888 25.9055H13.9266C14.1853 25.9055 14.3953 26.1155 14.3953 26.3743C14.3953 26.6333 14.1856 26.8433 13.9266 26.8433ZM15.4894 26.8433H15.9269C16.186 26.8433 16.3959 26.6333 16.3959 26.3743C16.3959 26.1155 16.186 25.9055 15.9269 25.9055H15.4894C15.2304 25.9055 15.0204 26.1155 15.0204 26.3743C15.0204 26.6333 15.2304 26.8433 15.4894 26.8433ZM17.9281 26.8433H17.4904C17.2313 26.8433 17.0216 26.6333 17.0216 26.3743C17.0216 26.1155 17.2313 25.9055 17.4904 25.9055H17.9281C18.1872 25.9055 18.3969 26.1155 18.3969 26.3743C18.3969 26.6333 18.1872 26.8433 17.9281 26.8433ZM19.9285 26.8433H19.4907C19.2317 26.8433 19.022 26.6333 19.022 26.3743C19.022 26.1155 19.2317 25.9055 19.4907 25.9055H19.9285C20.1873 25.9055 20.3972 26.1155 20.3972 26.3743C20.3972 26.6333 20.1873 26.8433 19.9285 26.8433ZM7.48731 26.8433H7.92505C8.18408 26.8433 8.39404 26.6333 8.39404 26.3743C8.39404 26.1155 8.18408 25.9055 7.92505 25.9055H7.48731C7.22852 25.9055 7.01855 26.1155 7.01855 26.3743C7.01855 26.6333 7.22852 26.8433 7.48731 26.8433Z" fill="#1DC2FF"/>
<path d="M31.531 0.0339355H28.5676C28.3086 0.0339355 28.0989 0.243897 28.0989 0.502686C28.0989 0.76172 28.3086 0.971681 28.5676 0.971681H31.062V6.53321H29.5862C29.3271 6.53321 29.1174 6.74317 29.1174 7.00196C29.1174 7.261 29.3271 7.47096 29.5862 7.47096H31.062V12.9456H28.5618C28.3027 12.9456 28.0928 13.1555 28.0928 13.4146C28.0928 13.419 28.0935 13.4234 28.0935 13.4278C28.0935 13.4321 28.0928 13.4365 28.0928 13.4409C28.0928 13.6997 28.3027 13.9097 28.5618 13.9097H31.062V19.4834H29.5862C29.3271 19.4834 29.1174 19.6934 29.1174 19.9524C29.1174 20.2112 29.3271 20.4212 29.5862 20.4212H31.062V25.9331H28.5676C28.3086 25.9331 28.0989 26.1431 28.0989 26.4021C28.0989 26.6609 28.3086 26.8709 28.5676 26.8709H31.531C31.7898 26.8709 31.9998 26.6609 31.9998 26.4021V0.50293C31.9998 0.243897 31.7898 0.0339355 31.531 0.0339355V0.0339355Z" fill="#1DC2FF"/>
<path d="M31.531 0.0339355H28.5676C28.3086 0.0339355 28.0989 0.243897 28.0989 0.502686C28.0989 0.76172 28.3086 0.971681 28.5676 0.971681H31.062V6.53321H29.5862C29.3271 6.53321 29.1174 6.74317 29.1174 7.00196C29.1174 7.261 29.3271 7.47096 29.5862 7.47096H31.062V12.9719H28.5618C28.3027 12.9719 28.0928 13.1819 28.0928 13.4409C28.0928 13.6997 28.3027 13.9097 28.5618 13.9097H31.062V19.4834H29.5862C29.3271 19.4834 29.1174 19.6934 29.1174 19.9524C29.1174 20.2112 29.3271 20.4212 29.5862 20.4212H31.062V25.9331H28.5676C28.3086 25.9331 28.0989 26.1431 28.0989 26.4021C28.0989 26.6609 28.3086 26.8709 28.5676 26.8709H31.531C31.7898 26.8709 31.9998 26.6609 31.9998 26.4021V0.50293C31.9998 0.243897 31.7898 0.0339355 31.531 0.0339355V0.0339355Z" fill="black"/>
<path d="M27.5334 24.9204L16.8794 0.940187H16.9966C17.2534 0.940187 17.4773 0.742189 17.4848 0.485596C17.4929 0.219971 17.28 0.00219727 17.0161 0.00219727H16.5786C16.4367 0.00219727 16.3098 0.0656739 16.2239 0.165039C16.0281 0.0590821 15.8061 0 15.5747 0H12.0771C11.5381 0 11.0486 0.31836 10.8298 0.810792L4.49655 15.0662C4.39962 15.2842 4.46993 15.5479 4.67428 15.6712C4.92111 15.8201 5.23385 15.7161 5.34713 15.4612L11.6867 1.19165C11.7551 1.03735 11.9084 0.937745 12.0771 0.937745H15.5744C15.7431 0.937745 15.8965 1.03735 15.9651 1.19165L26.6765 25.3011C26.7305 25.4229 26.7261 25.5557 26.6653 25.6714C26.5886 25.8177 26.4294 25.9019 26.2642 25.9019H22.4436C22.2732 25.9019 22.1194 25.8008 22.0515 25.6446L20.1145 21.1736C19.8979 20.6741 19.4065 20.3513 18.862 20.3513H8.75632C8.20871 20.3513 7.71579 20.6768 7.50094 21.1807L5.59738 25.6421C5.52999 25.7998 5.3757 25.9019 5.20431 25.9019H1.38741C1.22213 25.9019 1.06319 25.8177 0.986286 25.6714C0.925495 25.5559 0.921101 25.4229 0.975056 25.3011L4.36276 17.6763C4.45944 17.4585 4.38912 17.1948 4.18527 17.0713C3.93844 16.9221 3.62545 17.0261 3.51217 17.2813L0.118121 24.9204C-0.0823184 25.3716 -0.0256777 25.8926 0.272907 26.2928C0.535358 26.6446 0.958699 26.8396 1.39791 26.8396H5.20431C5.75192 26.8396 6.24484 26.514 6.45993 26.0103L8.36349 21.5486C8.43063 21.3911 8.58493 21.2891 8.75632 21.2891H18.8618C19.0322 21.2891 19.186 21.3902 19.2539 21.5464L21.1911 26.0171C21.4077 26.5166 21.8992 26.8394 22.4436 26.8394H26.2537C26.6929 26.8394 27.1162 26.6446 27.3787 26.2925C27.6775 25.8926 27.7339 25.3716 27.5334 24.9204Z" fill="black"/>
<path d="M16.3889 14.3701C16.4883 14.6094 16.7627 14.7227 17.002 14.6233C17.241 14.5239 17.3543 14.2495 17.2549 14.0103L14.2595 6.80127C14.187 6.62646 14.0161 6.51245 13.8267 6.51245C13.8264 6.51245 13.8264 6.51245 13.8262 6.51245C13.6365 6.51245 13.4658 6.62695 13.3933 6.80225L9.6272 15.9124H9.37109C9.11206 15.9124 8.90234 16.1223 8.90234 16.3814C8.90234 16.6401 9.11206 16.8501 9.37109 16.8501L17.6004 16.8486C17.8594 16.8486 18.0693 16.6389 18.0693 16.3799C18.0693 16.1209 17.8594 15.9109 17.6004 15.9109H10.6426L13.8276 8.20606L16.3889 14.3701Z" fill="black"/>
<path d="M13.927 25.9055H13.4893C13.2305 25.9055 13.0205 26.1155 13.0205 26.3743C13.0205 26.6333 13.2305 26.8433 13.4893 26.8433H13.927C14.1858 26.8433 14.3958 26.6333 14.3958 26.3743C14.3958 26.1155 14.186 25.9055 13.927 25.9055Z" fill="black"/>
<path d="M15.927 25.9055H15.4895C15.2305 25.9055 15.0205 26.1155 15.0205 26.3743C15.0205 26.6333 15.2305 26.8433 15.4895 26.8433H15.927C16.186 26.8433 16.396 26.6333 16.396 26.3743C16.396 26.1155 16.186 25.9055 15.927 25.9055V25.9055Z" fill="black"/>
<path d="M7.92505 25.9055H7.48731C7.22852 25.9055 7.01855 26.1155 7.01855 26.3743C7.01855 26.6333 7.22852 26.8433 7.48731 26.8433H7.92505C8.18408 26.8433 8.39404 26.6333 8.39404 26.3743C8.39404 26.1155 8.18408 25.9055 7.92505 25.9055Z" fill="black"/>
<path d="M9.92505 25.9055H9.48731C9.22827 25.9055 9.01855 26.1155 9.01855 26.3743C9.01855 26.6333 9.22827 26.8433 9.48731 26.8433H9.92505C10.1838 26.8433 10.3938 26.6333 10.3938 26.3743C10.3938 26.1155 10.1838 25.9055 9.92505 25.9055Z" fill="black"/>
<path d="M11.9251 25.9055H11.4875C11.2285 25.9055 11.0186 26.1155 11.0186 26.3743C11.0186 26.6333 11.2285 26.8433 11.4875 26.8433H11.9251C12.1841 26.8433 12.394 26.6333 12.394 26.3743C12.394 26.1155 12.1841 25.9055 11.9251 25.9055Z" fill="black"/>
<path d="M19.929 25.9055H19.4912C19.2322 25.9055 19.0225 26.1155 19.0225 26.3743C19.0225 26.6333 19.2322 26.8433 19.4912 26.8433H19.929C20.1877 26.8433 20.3977 26.6333 20.3977 26.3743C20.3977 26.1155 20.1877 25.9055 19.929 25.9055Z" fill="black"/>
<path d="M17.927 25.9055H17.4893C17.2302 25.9055 17.0205 26.1155 17.0205 26.3743C17.0205 26.6333 17.2302 26.8433 17.4893 26.8433H17.927C18.186 26.8433 18.3958 26.6333 18.3958 26.3743C18.3958 26.1155 18.186 25.9055 17.927 25.9055Z" fill="black"/>
<path d="M22.5801 0.940187H23.0178C23.2769 0.940187 23.4868 0.730226 23.4868 0.471192C23.4868 0.212158 23.2769 0.00219727 23.0178 0.00219727H22.5801C22.3213 0.00219727 22.1113 0.212158 22.1113 0.471192C22.1113 0.730226 22.3213 0.940187 22.5801 0.940187Z" fill="black"/>
<path d="M18.5791 0.940187H19.0168C19.2759 0.940187 19.4856 0.730226 19.4856 0.471192C19.4856 0.212158 19.2759 0.00219727 19.0168 0.00219727H18.5791C18.3203 0.00219727 18.1104 0.212158 18.1104 0.471192C18.1104 0.730226 18.3203 0.940187 18.5791 0.940187Z" fill="black"/>
<path d="M24.5811 0.940187H25.0188C25.2776 0.940187 25.4876 0.730226 25.4876 0.471192C25.4876 0.212158 25.2776 0.00219727 25.0188 0.00219727H24.5811C24.322 0.00219727 24.1123 0.212158 24.1123 0.471192C24.1123 0.730226 24.322 0.940187 24.5811 0.940187Z" fill="black"/>
<path d="M26.5823 0.940187H27.0198C27.2788 0.940187 27.4888 0.730226 27.4888 0.471192C27.4888 0.212158 27.2788 0.00219727 27.0198 0.00219727H26.5823C26.3232 0.00219727 26.1133 0.212158 26.1133 0.471192C26.1133 0.730226 26.3232 0.940187 26.5823 0.940187Z" fill="black"/>
<path d="M20.5803 0.940187H21.0178C21.2769 0.940187 21.4868 0.730226 21.4868 0.471192C21.4868 0.212158 21.2769 0.00219727 21.0178 0.00219727H20.5803C20.3213 0.00219727 20.1113 0.212158 20.1113 0.471192C20.1113 0.730226 20.3213 0.940187 20.5803 0.940187Z" fill="black"/>
<path d="M1.36743 16.8505H1.80493C2.06397 16.8505 2.27393 16.6405 2.27393 16.3815C2.27393 16.1227 2.06397 15.9127 1.80493 15.9127H1.36743C1.1084 15.9127 0.898438 16.1227 0.898438 16.3815C0.898438 16.6405 1.1084 16.8505 1.36743 16.8505Z" fill="black"/>
<path d="M3.36816 16.8505H3.80591C4.0647 16.8505 4.27466 16.6405 4.27466 16.3815C4.27466 16.1227 4.0647 15.9127 3.80591 15.9127H3.36816C3.10938 15.9127 2.89941 16.1227 2.89941 16.3815C2.89941 16.6405 3.10913 16.8505 3.36816 16.8505Z" fill="black"/>
<path d="M5.80689 16.8505C6.06592 16.8505 6.27588 16.6405 6.27588 16.3815C6.27588 16.1227 6.06592 15.9127 5.80689 15.9127H5.36939C5.11035 15.9127 4.90039 16.1227 4.90039 16.3815C4.90039 16.6405 5.11035 16.8505 5.36939 16.8505H5.80689Z" fill="black"/>
<path d="M7.80689 16.8505C8.06568 16.8505 8.27564 16.6405 8.27564 16.3815C8.27564 16.1227 8.06568 15.9127 7.80689 15.9127H7.36914C7.11035 15.9127 6.90039 16.1227 6.90039 16.3815C6.90039 16.6405 7.11035 16.8505 7.36914 16.8505H7.80689Z" fill="black"/>
</svg>
