<svg width="14" height="16" viewBox="0 0 14 16" fill="none" xmlns="http://www.w3.org/2000/svg">
<path d="M9.84342 0C8.99042 0.059 7.99342 0.605 7.41242 1.316C6.88242 1.961 6.44642 2.919 6.61642 3.85C7.54842 3.879 8.51142 3.32 9.06942 2.597C9.59142 1.924 9.98642 0.972 9.84342 0Z" fill="white"/>
<path d="M13.2144 5.36812C12.3954 4.34112 11.2444 3.74512 10.1574 3.74512C8.72237 3.74512 8.11537 4.43212 7.11837 4.43212C6.09037 4.43212 5.30937 3.74712 4.06837 3.74712C2.84937 3.74712 1.55137 4.49212 0.728367 5.76612C-0.428633 7.56012 -0.230633 10.9331 1.64437 13.8061C2.31537 14.8341 3.21137 15.9901 4.38337 16.0001C5.42637 16.0101 5.72037 15.3311 7.13337 15.3241C8.54637 15.3161 8.81437 16.0091 9.85537 15.9981C11.0284 15.9891 11.9734 14.7081 12.6444 13.6801C13.1254 12.9431 13.3044 12.5721 13.6774 11.7401C10.9644 10.7071 10.5294 6.84912 13.2144 5.36812Z" fill="white"/>
</svg>
