<svg width="16" height="16" viewBox="0 0 16 16" fill="none" xmlns="http://www.w3.org/2000/svg">
<circle cx="8" cy="8" r="8" fill="url(#paint0_linear_0_24009)"/>
<path fill-rule="evenodd" clip-rule="evenodd" d="M6.61173 3.28125H5.22385C5.07041 3.28125 4.94629 3.40541 4.94629 3.55881V5.22425C4.94629 5.2248 4.94645 5.22529 4.9466 5.22578L4.9466 5.22578L4.9466 5.22578C4.94676 5.22627 4.94691 5.22677 4.94691 5.22731C4.94741 5.276 4.97823 5.37153 5.03054 5.42262C5.03096 5.42303 5.03124 5.42352 5.03152 5.42402C5.0318 5.42451 5.03209 5.425 5.03251 5.42541C5.49838 5.86891 6.03935 6.18234 6.61176 6.37666V3.28125H6.61173ZM8.83221 6.44825C8.62884 6.21234 8.33477 6.05697 7.99949 6.05697C7.66421 6.05697 7.37015 6.21238 7.16677 6.44828V3.28125H8.83221V6.44825ZM8.54903 7.19818C8.54677 7.20605 8.54451 7.21392 8.54364 7.22228C9.81429 7.47603 10.7754 8.59884 10.7754 9.94303C10.7754 11.4735 9.53004 12.7188 7.99961 12.7188C6.46917 12.7188 5.22386 11.4735 5.22389 9.94303C5.22389 8.59888 6.18492 7.47603 7.45558 7.22228C7.45471 7.21392 7.45245 7.20605 7.45019 7.19818C7.44732 7.18818 7.44445 7.17821 7.44445 7.16728C7.44445 6.86066 7.69298 6.61212 7.99961 6.61212C8.30623 6.61212 8.55476 6.86066 8.55476 7.16728C8.55476 7.17821 8.5519 7.18819 8.54903 7.19818ZM7.99959 9.486L8.0915 9.68172C8.13078 9.76547 8.2094 9.82428 8.30068 9.83813L8.53381 9.87391L8.356 10.0561C8.29446 10.1189 8.26656 10.2076 8.28065 10.2946L8.31968 10.5339L8.13371 10.4312C8.05025 10.3851 7.94887 10.3851 7.86537 10.4312L7.67915 10.5339L7.71846 10.2946C7.73256 10.2076 7.70465 10.1192 7.64312 10.0561L7.46531 9.87391L7.69843 9.83813C7.78978 9.82431 7.86837 9.76547 7.90768 9.68172L7.99959 9.486ZM9.30851 9.87469L8.85123 10.3434L8.95967 11.0086C8.97673 11.1135 8.9323 11.2189 8.84555 11.2802C8.7588 11.3414 8.64414 11.3479 8.55145 11.2962L7.99951 10.9912L7.44736 11.2962C7.35648 11.3469 7.24145 11.3423 7.15326 11.2802C7.06651 11.2189 7.02208 11.1135 7.03914 11.0086L7.14783 10.3434L6.69055 9.87469C6.61789 9.80016 6.59295 9.69144 6.62605 9.59278C6.65911 9.49412 6.74451 9.42228 6.84723 9.40656L7.46798 9.31169L7.74826 8.71478C7.83989 8.51962 8.1592 8.51962 8.25083 8.71478L8.53111 9.31169L9.15186 9.40656C9.25461 9.42228 9.33998 9.49412 9.37305 9.59278C9.40608 9.69147 9.38114 9.80016 9.30851 9.87469ZM9.3875 3.28125H10.7754C10.9288 3.28125 11.0529 3.40541 11.053 3.55878V5.22422C11.053 5.22477 11.0528 5.22526 11.0527 5.22575C11.0525 5.22624 11.0523 5.22673 11.0523 5.22728C11.0516 5.30194 11.0017 5.39034 10.9687 5.42256C10.9683 5.42297 10.968 5.42347 10.9677 5.42397C10.9675 5.42447 10.9672 5.42497 10.9668 5.42537C10.5009 5.86888 9.95991 6.18231 9.3875 6.37663V3.28125Z" fill="url(#paint1_linear_0_24009)"/>
<defs>
<linearGradient id="paint0_linear_0_24009" x1="16" y1="16" x2="16" y2="0" gradientUnits="userSpaceOnUse">
<stop stop-color="#ADDCFF"/>
<stop offset="0.5028" stop-color="#EAF6FF"/>
<stop offset="1" stop-color="#EAF6FF"/>
</linearGradient>
<linearGradient id="paint1_linear_0_24009" x1="4.94627" y1="3.28125" x2="4.94627" y2="12.7188" gradientUnits="userSpaceOnUse">
<stop stop-color="#5558FF"/>
<stop offset="1" stop-color="#00C0FF"/>
</linearGradient>
</defs>
</svg>
