<svg width="60" height="60" viewBox="0 0 60 60" fill="none" xmlns="http://www.w3.org/2000/svg">
<path d="M30 60C13.431 60 0 46.569 0 30C0 13.431 13.431 0 30 0C46.569 0 60 13.431 60 30C59.982 46.56 46.56 59.982 30 60ZM6 30.516C6.06819 36.8585 8.64434 42.9161 13.1654 47.3648C17.6865 51.8136 23.7849 54.2917 30.1276 54.2577C36.4704 54.2236 42.5417 51.68 47.0147 47.1829C51.4877 42.6858 53.9986 36.6008 53.9986 30.258C53.9986 23.9152 51.4877 17.8302 47.0147 13.3331C42.5417 8.836 36.4704 6.29244 30.1276 6.25835C23.7849 6.22425 17.6865 8.7024 13.1654 13.1512C8.64434 17.5999 6.06819 23.6575 6 30V30.516ZM24 43.5V16.5L42 30L24 43.5Z" fill="white"/>
</svg>
