<svg width="43" height="32" viewBox="0 0 43 32" fill="none" xmlns="http://www.w3.org/2000/svg">
<path d="M0 26.6667V5.33333C0 3.91885 0.561903 2.56229 1.5621 1.5621C2.56229 0.561903 3.91885 0 5.33333 0H37.3333C38.7478 0 40.1044 0.561903 41.1046 1.5621C42.1048 2.56229 42.6667 3.91885 42.6667 5.33333V26.6667C42.6667 28.0812 42.1048 29.4377 41.1046 30.4379C40.1044 31.4381 38.7478 32 37.3333 32H5.33333C3.91885 32 2.56229 31.4381 1.5621 30.4379C0.561903 29.4377 0 28.0812 0 26.6667ZM18.1067 8.248C17.9073 8.10605 17.6727 8.02171 17.4286 8.00423C17.1845 7.98674 16.9403 8.03679 16.7227 8.14887C16.5051 8.26096 16.3226 8.43077 16.1951 8.63969C16.0677 8.84861 16.0002 9.08859 16 9.33333V22.6667C16.0002 22.9114 16.0677 23.1514 16.1951 23.3603C16.3226 23.5692 16.5051 23.739 16.7227 23.8511C16.9403 23.9632 17.1845 24.0133 17.4286 23.9958C17.6727 23.9783 17.9073 23.8939 18.1067 23.752L27.44 17.0853C27.6128 16.962 27.7537 16.7992 27.8509 16.6104C27.9481 16.4216 27.9988 16.2123 27.9988 16C27.9988 15.7877 27.9481 15.5784 27.8509 15.3896C27.7537 15.2008 27.6128 15.038 27.44 14.9147L18.1067 8.248Z" fill="black" fill-opacity="0.8"/>
</svg>
