<svg width="22" height="22" viewBox="0 0 22 22" fill="none" xmlns="http://www.w3.org/2000/svg">
<path d="M16.7793 7.73438L16.5473 9.02344L14.2012 22H11.623V14.8672C11.623 14.5062 11.3395 14.2227 10.9785 14.2227C10.6175 14.2227 10.334 14.5062 10.334 14.8672V22H6.4668L5.40977 9.02344L5.17773 7.73438C5.17773 6.31636 6.33793 5.15625 7.75586 5.15625H14.2012C15.6191 5.15625 16.7793 6.31636 16.7793 7.73438Z" fill="#FD4E26"/>
<path d="M16.7793 7.73438L16.5473 9.02344L14.2012 22H11.623V14.8672C11.623 14.5062 11.3395 14.2227 10.9785 14.2227V5.15625H14.2012C15.6191 5.15625 16.7793 6.31636 16.7793 7.73438Z" fill="#FD3018"/>
<path d="M12.9121 1.93359C12.9121 3.00347 12.0485 3.86719 10.9785 3.86719C9.90855 3.86719 9.04492 3.00347 9.04492 1.93359C9.04492 0.863629 9.90855 0 10.9785 0C12.0485 0 12.9121 0.863629 12.9121 1.93359Z" fill="#FD4E26"/>
<path d="M12.9121 1.93359C12.9121 3.00347 12.0485 3.86719 10.9785 3.86719V0C12.0485 0 12.9121 0.863629 12.9121 1.93359Z" fill="#FD3018"/>
<path d="M4.5332 6.44531C3.46698 6.44531 2.59961 5.57795 2.59961 4.51172C2.59961 3.44549 3.46698 2.57812 4.5332 2.57812C5.59943 2.57812 6.4668 3.44549 6.4668 4.51172C6.4668 5.57795 5.59943 6.44531 4.5332 6.44531Z" fill="#4DBBEB"/>
<path d="M5.82227 8.37891H2.59961C1.17575 8.37891 0.0214844 9.53313 0.0214844 10.957C0.0214844 11.7273 0.0214844 13.7909 0.0214844 14.5449C0.0214844 15.0789 0.454352 15.5117 0.988281 15.5117C1.52221 15.5117 1.95508 15.0789 1.95508 14.5449V21.3555C1.95508 21.7114 2.24366 22 2.59961 22H3.88867V17.4453C3.88867 17.0891 4.17695 16.8008 4.5332 16.8008C4.88946 16.8008 5.17773 17.0891 5.17773 17.4453V22H7.11133V9.66797C7.11133 8.95602 6.53421 8.37891 5.82227 8.37891Z" fill="#4DBBEB"/>
<path d="M16.7793 6.44531C17.8455 6.44531 18.7129 5.57795 18.7129 4.51172C18.7129 3.44549 17.8455 2.57812 16.7793 2.57812C15.7131 2.57812 14.8457 3.44549 14.8457 4.51172C14.8457 5.57795 15.7131 6.44531 16.7793 6.44531Z" fill="#159CE4"/>
<path d="M15.4902 8.37891H18.7129C20.1367 8.37891 21.291 9.53313 21.291 10.957C21.291 11.7273 21.291 13.7909 21.291 14.5449C21.291 15.0789 20.8581 15.5117 20.3242 15.5117C19.7903 15.5117 19.3574 15.0789 19.3574 14.5449V21.3555C19.3574 21.7114 19.0688 22 18.7129 22H17.4238V17.4453C17.4238 17.0891 17.1356 16.8008 16.7793 16.8008C16.423 16.8008 16.1348 17.0891 16.1348 17.4453V22H14.2012V9.66797C14.2012 8.95602 14.7783 8.37891 15.4902 8.37891Z" fill="#159CE4"/>
</svg>
