<svg width="22" height="14" viewBox="0 0 22 14" fill="none" xmlns="http://www.w3.org/2000/svg">
<path fill-rule="evenodd" clip-rule="evenodd" d="M0.170193 5.99901C2.95113 2.30592 6.71986 0.0322266 10.8757 0.0322266C15.0315 0.0322266 18.8003 2.30592 21.5812 6.00346C21.8081 6.30602 21.8081 6.72872 21.5812 7.03129C18.8003 10.7244 15.0315 12.9981 10.8757 12.9981C6.71986 12.9981 2.95113 10.7244 0.170193 7.02684C-0.0567311 6.72428 -0.0567311 6.30157 0.170193 5.99901ZM6.3105 6.21703C6.13697 8.98017 8.41512 11.2539 11.1738 11.0803C13.4475 10.9335 15.294 9.08696 15.4409 6.81327C15.6144 4.05013 13.3363 1.77643 10.5776 1.94996C8.29943 2.09235 6.45289 3.93889 6.3105 6.21703Z" fill="#9EA9C9"/>
<circle cx="10.7961" cy="6.72237" r="2.64815" fill="#FBA800"/>
</svg>
