<svg width="14" height="8" viewBox="0 0 14 8" fill="none" xmlns="http://www.w3.org/2000/svg">
<path d="M13.3555 6.27517L7.31001 0.229814C7.17032 0.0901174 6.98406 0.0134277 6.78113 0.0134277C6.58229 0.0134277 6.39592 0.0901174 6.25644 0.229814L0.216607 6.26943C0.0769103 6.40923 0 6.59561 0 6.79445C0 6.99329 0.0768 7.17977 0.216607 7.31947L0.661407 7.76427C0.801103 7.90397 0.987586 7.9811 1.18643 7.9811C1.38527 7.9811 1.57164 7.90397 1.71145 7.76427L6.78323 2.69249L11.8606 7.77012C12.0003 7.9097 12.1867 7.98672 12.3857 7.98672C12.5845 7.98672 12.7708 7.9097 12.9106 7.77012L13.3555 7.3251C13.6448 7.03566 13.6448 6.5646 13.3555 6.27517Z" fill="black"/>
</svg>
