<svg width="42" height="42" viewBox="0 0 42 42" fill="none" xmlns="http://www.w3.org/2000/svg">
<mask id="path-1-inside-1_0_10675" fill="white">
<path fill-rule="evenodd" clip-rule="evenodd" d="M21 0C9.41989 0 0 9.4208 0 21C0 32.5792 9.41989 42 21 42C32.5801 42 42 32.5792 42 21C42 9.4208 32.5801 0 21 0ZM29.3484 21.7357L17.0984 29.6107C16.9549 29.7038 16.7891 29.75 16.625 29.75C16.4815 29.75 16.3362 29.7141 16.2063 29.6432C15.9243 29.4894 15.75 29.1954 15.75 28.875V13.125C15.75 12.8046 15.9243 12.5106 16.2063 12.3568C16.4832 12.2047 16.8301 12.214 17.0984 12.3893L29.3484 20.2643C29.5979 20.4249 29.75 20.7026 29.75 21C29.75 21.2974 29.5979 21.575 29.3484 21.7357Z"/>
</mask>
<path fill-rule="evenodd" clip-rule="evenodd" d="M21 0C9.41989 0 0 9.4208 0 21C0 32.5792 9.41989 42 21 42C32.5801 42 42 32.5792 42 21C42 9.4208 32.5801 0 21 0ZM29.3484 21.7357L17.0984 29.6107C16.9549 29.7038 16.7891 29.75 16.625 29.75C16.4815 29.75 16.3362 29.7141 16.2063 29.6432C15.9243 29.4894 15.75 29.1954 15.75 28.875V13.125C15.75 12.8046 15.9243 12.5106 16.2063 12.3568C16.4832 12.2047 16.8301 12.214 17.0984 12.3893L29.3484 20.2643C29.5979 20.4249 29.75 20.7026 29.75 21C29.75 21.2974 29.5979 21.575 29.3484 21.7357Z" fill="white" fill-opacity="0.5"/>
<path d="M29.3484 21.7357L29.8892 22.5769L29.8898 22.5765L29.3484 21.7357ZM17.0984 29.6107L16.5577 28.7696L16.5543 28.7717L17.0984 29.6107ZM16.2063 29.6432L16.6854 28.7655L16.6851 28.7653L16.2063 29.6432ZM16.2063 12.3568L16.6851 13.2347L16.6878 13.2332L16.2063 12.3568ZM17.0984 12.3893L16.5517 13.2266L16.5577 13.2304L17.0984 12.3893ZM29.3484 20.2643L29.8896 19.4234L29.8892 19.4231L29.3484 20.2643ZM21 -1C8.86758 -1 -1 8.86854 -1 21H1C1 9.97305 9.97221 1 21 1V-1ZM-1 21C-1 33.1315 8.86758 43 21 43V41C9.97221 41 1 32.0269 1 21H-1ZM21 43C33.1324 43 43 33.1315 43 21H41C41 32.0269 32.0278 41 21 41V43ZM43 21C43 8.86854 33.1324 -1 21 -1V1C32.0278 1 41 9.97305 41 21H43ZM28.8076 20.8946L16.5577 28.7696L17.6392 30.4519L29.8892 22.5769L28.8076 20.8946ZM16.5543 28.7717C16.5789 28.7558 16.6034 28.75 16.625 28.75V30.75C16.9748 30.75 17.3309 30.6519 17.6426 30.4497L16.5543 28.7717ZM16.625 28.75C16.6462 28.75 16.666 28.7549 16.6854 28.7655L15.7273 30.521C16.0064 30.6733 16.3167 30.75 16.625 30.75V28.75ZM16.6851 28.7653C16.7244 28.7867 16.75 28.8294 16.75 28.875H14.75C14.75 29.5614 15.1243 30.1921 15.7275 30.5211L16.6851 28.7653ZM16.75 28.875V13.125H14.75V28.875H16.75ZM16.75 13.125C16.75 13.1706 16.7244 13.2133 16.6851 13.2347L15.7275 11.4789C15.1243 11.8079 14.75 12.4386 14.75 13.125H16.75ZM16.6878 13.2332C16.6644 13.2461 16.6417 13.2504 16.6218 13.2497C16.6015 13.249 16.5765 13.2428 16.5517 13.2266L17.6452 11.552C17.062 11.1712 16.3195 11.1537 15.7249 11.4803L16.6878 13.2332ZM16.5577 13.2304L28.8076 21.1054L29.8892 19.4231L17.6392 11.5481L16.5577 13.2304ZM28.8072 21.1051C28.7715 21.0822 28.75 21.0436 28.75 21H30.75C30.75 20.3617 30.4244 19.7676 29.8896 19.4234L28.8072 21.1051ZM28.75 21C28.75 20.9563 28.7716 20.9178 28.807 20.895L29.8898 22.5765C30.4243 22.2323 30.75 21.6385 30.75 21H28.75Z" fill="black" fill-opacity="0.5" mask="url(#path-1-inside-1_0_10675)"/>
</svg>
