<svg width="64" height="64" viewBox="0 0 64 64" fill="none" xmlns="http://www.w3.org/2000/svg">
<path d="M42.5559 30.7486L29.2665 21.0882C28.7788 20.7347 28.1314 20.6815 27.5968 20.9562C27.058 21.2288 26.7215 21.7825 26.7215 22.381V41.6953C26.7215 42.3002 27.058 42.8518 27.5968 43.1244C27.8247 43.2394 28.0739 43.2969 28.3252 43.2969C28.6531 43.2969 28.9854 43.1925 29.2665 42.9859L42.5559 33.3341C42.9755 33.0253 43.2204 32.5482 43.2204 32.0413C43.2225 31.5259 42.9712 31.051 42.5559 30.7486Z" fill="#5DC2A7"/>
<path d="M32.0011 0.00195312C14.3244 0.00195312 0 14.3264 0 32.003C0 49.6732 14.3244 63.9934 32.0011 63.9934C49.6734 63.9934 64 49.6711 64 32.003C64.0021 14.3264 49.6734 0.00195312 32.0011 0.00195312ZM32.0011 58.6542C17.2805 58.6542 5.34558 46.7257 5.34558 32.003C5.34558 17.2867 17.2805 5.34327 32.0011 5.34327C46.7195 5.34327 58.6523 17.2846 58.6523 32.003C58.6544 46.7257 46.7195 58.6542 32.0011 58.6542Z" fill="white" fill-opacity="0.3"/>
</svg>
