<svg width="16" height="16" viewBox="0 0 16 16" fill="none" xmlns="http://www.w3.org/2000/svg">
<path d="M4.19515 0H0.490244C0.234465 0 0.0271301 0.207335 0.0271301 0.463114V4.16802C0.0271301 4.4238 0.234465 4.63114 0.490244 4.63114H4.19515C4.45093 4.63114 4.65827 4.4238 4.65827 4.16802V0.463114C4.65827 0.207335 4.45093 0 4.19515 0Z" fill="white"/>
<path d="M9.75251 0H6.0476C5.79182 0 5.58449 0.207335 5.58449 0.463114V4.16802C5.58449 4.4238 5.79182 4.63114 6.0476 4.63114H9.75251C10.0083 4.63114 10.2156 4.4238 10.2156 4.16802V0.463114C10.2156 0.207335 10.0083 0 9.75251 0Z" fill="white"/>
<path d="M4.19515 5.55713H0.490244C0.234465 5.55713 0.0271301 5.76446 0.0271301 6.02024V9.72515C0.0271301 9.98093 0.234465 10.1883 0.490244 10.1883H4.19515C4.45093 10.1883 4.65827 9.98093 4.65827 9.72515V6.02024C4.65827 5.76446 4.45093 5.55713 4.19515 5.55713Z" fill="white"/>
<path d="M9.75251 5.55713H6.0476C5.79182 5.55713 5.58449 5.76446 5.58449 6.02024V9.72515C5.58449 9.98093 5.79182 10.1883 6.0476 10.1883H9.75251C10.0083 10.1883 10.2156 9.98093 10.2156 9.72515V6.02024C10.2156 5.76446 10.0083 5.55713 9.75251 5.55713Z" fill="white"/>
<path d="M15.3099 0H11.605C11.3492 0 11.1419 0.207335 11.1419 0.463114V4.16802C11.1419 4.4238 11.3492 4.63114 11.605 4.63114H15.3099C15.5657 4.63114 15.773 4.4238 15.773 4.16802V0.463114C15.773 0.207335 15.5656 0 15.3099 0Z" fill="white"/>
<path d="M15.3099 5.55713H11.605C11.3492 5.55713 11.1419 5.76446 11.1419 6.02024V9.72515C11.1419 9.98093 11.3492 10.1883 11.605 10.1883H15.3099C15.5657 10.1883 15.773 9.98093 15.773 9.72515V6.02024C15.773 5.76446 15.5656 5.55713 15.3099 5.55713Z" fill="white"/>
<path d="M4.19515 11.3462H0.490244C0.234465 11.3462 0.0271301 11.5535 0.0271301 11.8093V15.5142C0.0271301 15.77 0.234465 15.9773 0.490244 15.9773H4.19515C4.45093 15.9773 4.65827 15.77 4.65827 15.5142V11.8093C4.65827 11.5535 4.45093 11.3462 4.19515 11.3462Z" fill="white"/>
<path d="M9.75251 11.3462H6.0476C5.79182 11.3462 5.58449 11.5535 5.58449 11.8093V15.5142C5.58449 15.77 5.79182 15.9773 6.0476 15.9773H9.75251C10.0083 15.9773 10.2156 15.77 10.2156 15.5142V11.8093C10.2156 11.5535 10.0083 11.3462 9.75251 11.3462Z" fill="white"/>
</svg>
