<?xml version="1.0" encoding="utf-8"?>
<!-- Generator: Adobe Illustrator 16.0.0, SVG Export Plug-In . SVG Version: 6.00 Build 0)  -->
<!DOCTYPE svg PUBLIC "-//W3C//DTD SVG 1.1//EN" "http://www.w3.org/Graphics/SVG/1.1/DTD/svg11.dtd">
<svg version="1.1" id="Layer_1" xmlns="http://www.w3.org/2000/svg" xmlns:xlink="http://www.w3.org/1999/xlink" x="0px" y="0px"
	 width="29.063px" height="16px" viewBox="0 0 29.063 16" enable-background="new 0 0 29.063 16" xml:space="preserve">
<path fill="#0062DA" d="M1,7.2h25.619L20.51,1.379c-0.318-0.305-0.331-0.811-0.026-1.131c0.305-0.319,0.811-0.333,1.132-0.027
	l6.977,6.65C28.896,7.174,29.063,7.575,29.063,8s-0.167,0.825-0.484,1.144l-6.963,6.636C21.459,15.927,21.261,16,21.063,16
	c-0.211,0-0.422-0.083-0.579-0.248c-0.305-0.32-0.292-0.826,0.026-1.131L26.646,8.8H1C0.558,8.8,0.199,8.441,0.199,8
	S0.558,7.2,1,7.2z"/>
</svg>
