<svg width="16" height="16" viewBox="0 0 16 16" fill="none" xmlns="http://www.w3.org/2000/svg">
<path fill-rule="evenodd" clip-rule="evenodd" d="M0 8C0 3.58853 3.58853 0 8 0C12.4115 0 16 3.58916 16 8C16 12.4108 12.4115 16 8 16C3.58853 16 0 12.4115 0 8ZM1.23934 8C1.23934 11.728 4.27266 14.7607 8 14.7607C11.728 14.7607 14.7607 11.728 14.7607 8C14.7607 4.27203 11.7273 1.23934 8 1.23934C4.27266 1.23934 1.23934 4.27203 1.23934 8Z" fill="#9EA9C9"/>
<path d="M11.0987 7.32446L4.90191 7.32446C4.55923 7.32446 4.28223 7.60209 4.28223 7.94415C4.28223 8.28621 4.55923 8.56384 4.90191 8.56384H11.0987C11.4414 8.56384 11.7184 8.28621 11.7184 7.94415C11.7184 7.60209 11.4414 7.32446 11.0987 7.32446Z" fill="#9EA9C9"/>
</svg>
