<svg width="32" height="32" viewBox="0 0 32 32" fill="none" xmlns="http://www.w3.org/2000/svg">
<mask id="path-1-inside-1_0_10868" fill="white">
<path fill-rule="evenodd" clip-rule="evenodd" d="M16 0C7.17706 0 0 7.17775 0 16C0 24.8223 7.17706 32 16 32C24.8229 32 32 24.8223 32 16C32 7.17775 24.8229 0 16 0ZM22.3607 16.5606L13.0274 22.5606C12.918 22.6315 12.7917 22.6667 12.6667 22.6667C12.5573 22.6667 12.4466 22.6393 12.3477 22.5853C12.1328 22.4681 12 22.2441 12 22V10C12 9.75588 12.1328 9.53188 12.3477 9.41469C12.5586 9.29881 12.8229 9.30594 13.0274 9.43944L22.3607 15.4394C22.5508 15.5618 22.6667 15.7734 22.6667 16C22.6667 16.2266 22.5508 16.4381 22.3607 16.5606Z"/>
</mask>
<path fill-rule="evenodd" clip-rule="evenodd" d="M16 0C7.17706 0 0 7.17775 0 16C0 24.8223 7.17706 32 16 32C24.8229 32 32 24.8223 32 16C32 7.17775 24.8229 0 16 0ZM22.3607 16.5606L13.0274 22.5606C12.918 22.6315 12.7917 22.6667 12.6667 22.6667C12.5573 22.6667 12.4466 22.6393 12.3477 22.5853C12.1328 22.4681 12 22.2441 12 22V10C12 9.75588 12.1328 9.53188 12.3477 9.41469C12.5586 9.29881 12.8229 9.30594 13.0274 9.43944L22.3607 15.4394C22.5508 15.5618 22.6667 15.7734 22.6667 16C22.6667 16.2266 22.5508 16.4381 22.3607 16.5606Z" fill="black" fill-opacity="0.5"/>
<path d="M22.3607 16.5606L22.9014 17.4017L22.9021 17.4013L22.3607 16.5606ZM13.0274 22.5606L12.4866 21.7194L12.4832 21.7216L13.0274 22.5606ZM12.3477 22.5853L12.8268 21.7075L12.8265 21.7074L12.3477 22.5853ZM12.3477 9.41469L12.8265 10.2926L12.8292 10.2912L12.3477 9.41469ZM13.0274 9.43944L12.4806 10.2767L12.4866 10.2806L13.0274 9.43944ZM22.3607 15.4394L22.9019 14.5986L22.9014 14.5983L22.3607 15.4394ZM16 -1C6.62475 -1 -1 6.62549 -1 16H1C1 7.73001 7.72937 1 16 1V-1ZM-1 16C-1 25.3745 6.62475 33 16 33V31C7.72937 31 1 24.27 1 16H-1ZM16 33C25.3752 33 33 25.3745 33 16H31C31 24.27 24.2706 31 16 31V33ZM33 16C33 6.62549 25.3752 -1 16 -1V1C24.2706 1 31 7.73001 31 16H33ZM21.8199 15.7194L12.4866 21.7194L13.5681 23.4017L22.9014 17.4017L21.8199 15.7194ZM12.4832 21.7216C12.542 21.6835 12.606 21.6667 12.6667 21.6667V23.6667C12.9774 23.6667 13.294 23.5795 13.5715 23.3996L12.4832 21.7216ZM12.6667 21.6667C12.7221 21.6667 12.7765 21.6801 12.8268 21.7075L11.8686 23.4631C12.1168 23.5985 12.3926 23.6667 12.6667 23.6667V21.6667ZM12.8265 21.7074C12.9329 21.7654 13 21.8781 13 22H11C11 22.6101 11.3328 23.1708 11.8689 23.4632L12.8265 21.7074ZM13 22V10H11V22H13ZM13 10C13 10.1219 12.9329 10.2346 12.8265 10.2926L11.8689 8.53676C11.3328 8.82915 11 9.38986 11 10H13ZM12.8292 10.2912C12.7223 10.3498 12.591 10.3488 12.4806 10.2767L13.5741 8.60215C13.0549 8.26306 12.3949 8.24779 11.8662 8.53823L12.8292 10.2912ZM12.4866 10.2806L21.8199 16.2806L22.9014 14.5983L13.5681 8.59826L12.4866 10.2806ZM21.8195 16.2803C21.7244 16.2191 21.6667 16.1144 21.6667 16H23.6667C23.6667 15.4325 23.3773 14.9045 22.9019 14.5986L21.8195 16.2803ZM21.6667 16C21.6667 15.8855 21.7245 15.7809 21.8193 15.7198L22.9021 17.4013C23.3771 17.0954 23.6667 16.5677 23.6667 16H21.6667Z" fill="white" fill-opacity="0.5" mask="url(#path-1-inside-1_0_10868)"/>
</svg>
