<svg width="72" height="28" viewBox="0 0 72 28" fill="none" xmlns="http://www.w3.org/2000/svg">
<g clip-path="url(#clip0_432_20080)">
<path d="M8.60614 11.858C8.7334 11.858 8.84288 11.9049 8.93456 11.9973C9.02624 12.0912 9.07277 12.2016 9.07277 12.3285V14.1777C9.07277 14.3061 9.02624 14.4165 8.93456 14.5089C8.84151 14.6028 8.73204 14.6483 8.60614 14.6483H0.595531C0.468269 14.6483 0.358797 14.6014 0.267115 14.5089C0.174063 14.4165 0.128906 14.3061 0.128906 14.1777V2.90734C0.128906 2.77901 0.175432 2.66861 0.267115 2.57615C0.358797 2.48369 0.468269 2.43677 0.595531 2.43677H2.8616C2.98886 2.43677 3.09833 2.48369 3.19002 2.57615C3.2817 2.66999 3.32822 2.78039 3.32822 2.90734V11.858H8.60614Z" fill="#ED1C24"/>
<path d="M11.0291 14.6524C10.9019 14.6524 10.7924 14.6054 10.7007 14.513C10.6077 14.4205 10.5625 14.3101 10.5625 14.1818V2.91003C10.5625 2.78169 10.609 2.67129 10.7007 2.57883C10.7924 2.48637 10.9019 2.43945 11.0291 2.43945H13.2952C13.4225 2.43945 13.5319 2.48637 13.6236 2.57883C13.7153 2.67267 13.7618 2.78307 13.7618 2.91003V14.1818C13.7618 14.3101 13.7153 14.4205 13.6236 14.513C13.5306 14.6068 13.4211 14.6524 13.2952 14.6524H11.0291Z" fill="#ED1C24"/>
<path d="M19.8534 14.6517C19.4032 14.6517 19.098 14.4185 18.9366 13.9534L15.4075 3.04875C15.3842 2.96733 15.3705 2.91489 15.3637 2.89143C15.3582 2.86797 15.3555 2.84451 15.3555 2.82105C15.3555 2.71617 15.3924 2.62647 15.4677 2.55057C15.5429 2.47467 15.6319 2.43742 15.7359 2.43742H17.9157C18.147 2.43742 18.3112 2.48709 18.4084 2.58645C18.5055 2.68581 18.5671 2.78103 18.5904 2.87487L20.9946 10.5518L23.4003 2.87349C23.4235 2.78103 23.4838 2.68443 23.5823 2.58507C23.6794 2.48571 23.845 2.43604 24.0749 2.43604H26.2548C26.3588 2.43604 26.4477 2.47329 26.523 2.54919C26.5982 2.62509 26.6352 2.71479 26.6352 2.81967C26.6352 2.84313 26.6324 2.86659 26.627 2.89005C26.6215 2.91351 26.6064 2.96595 26.5832 3.04737L23.0541 13.952C22.8926 14.4171 22.5875 14.6503 22.1373 14.6503H19.8534V14.6517Z" fill="#ED1C24"/>
<path d="M36.896 11.8607C37.0232 11.8607 37.1327 11.9076 37.2244 12C37.3161 12.0939 37.3626 12.2043 37.3626 12.3312V14.1804C37.3626 14.3088 37.3161 14.4192 37.2244 14.5116C37.1313 14.6055 37.0218 14.651 36.896 14.651H28.6951C28.5679 14.651 28.4584 14.6041 28.3667 14.5116C28.2737 14.4192 28.2285 14.3088 28.2285 14.1804V2.91003C28.2285 2.78169 28.275 2.67129 28.3667 2.57883C28.4584 2.48637 28.5679 2.43945 28.6951 2.43945H36.7577C36.885 2.43945 36.9945 2.48637 37.0862 2.57883C37.1778 2.67267 37.2244 2.78307 37.2244 2.91003V4.75922C37.2244 4.88756 37.1778 4.99796 37.0862 5.09042C36.9931 5.18426 36.8836 5.2298 36.7577 5.2298H31.4292V7.11487H36.3773C36.5046 7.11487 36.6141 7.16179 36.7057 7.25424C36.7974 7.34808 36.844 7.45848 36.844 7.58544V9.43463C36.844 9.56297 36.7974 9.67337 36.7057 9.76583C36.6127 9.85967 36.5032 9.90521 36.3773 9.90521H31.4292V11.8593H36.896V11.8607Z" fill="#ED1C24"/>
<path d="M55.8034 5.16455C54.1627 5.16455 52.834 6.5059 52.834 8.15913C52.834 9.81374 54.1641 11.1537 55.8034 11.1537C57.4441 11.1537 58.7728 9.81236 58.7728 8.15913C58.7728 6.5059 57.4441 5.16455 55.8034 5.16455ZM57.6767 8.41581L56.2591 9.24104L54.8414 10.0663C54.6457 10.1794 54.4022 10.0373 54.4022 9.81098V8.16051V6.50866C54.4022 6.28096 54.6457 6.1402 54.8414 6.25336L56.2591 7.0786L57.6767 7.90383C57.8724 8.01837 57.8724 8.30127 57.6767 8.41581Z" fill="#ED1C24"/>
<path d="M64.68 14.2014C64.472 14.2014 64.2626 14.1435 64.0738 14.022C63.5483 13.684 63.395 12.9802 63.7303 12.4502C64.5404 11.1696 64.9687 9.68612 64.9687 8.15985C64.9687 6.6322 64.5404 5.14871 63.7303 3.86807C63.395 3.33816 63.5483 2.63436 64.0738 2.29626C64.5992 1.95817 65.2971 2.11273 65.6324 2.64264C66.6751 4.28897 67.2252 6.1975 67.2252 8.15847C67.2252 10.1194 66.6751 12.028 65.6324 13.6743C65.4162 14.0165 65.0522 14.2014 64.68 14.2014Z" fill="#ED1C24"/>
<path d="M68.3185 16.3191C68.116 16.3191 67.9108 16.2639 67.726 16.148C67.1965 15.8168 67.0322 15.1157 67.3607 14.5817C68.5416 12.6566 69.1669 10.4362 69.1669 8.1592C69.1669 5.88222 68.543 3.66182 67.3607 1.73673C67.0322 1.20268 67.1965 0.500262 67.726 0.170444C68.2556 -0.160753 68.9521 0.00484559 69.2792 0.538902C70.6818 2.82416 71.4234 5.45856 71.4234 8.1592C71.4234 10.8598 70.6818 13.4942 69.2792 15.7795C69.0657 16.1273 68.6962 16.3191 68.3185 16.3191Z" fill="#ED1C24"/>
<path d="M61.0701 12.0351C60.8525 12.0351 60.6336 11.9716 60.4393 11.8405C59.9234 11.4886 59.7866 10.7807 60.1355 10.2604C60.5515 9.63944 60.7704 8.91357 60.7704 8.16148C60.7704 7.39282 60.5419 6.65453 60.1109 6.02663C59.7565 5.51051 59.8837 4.8012 60.3955 4.4424C60.9073 4.08498 61.6106 4.21332 61.965 4.72944C62.6588 5.74097 63.0255 6.92638 63.0255 8.1601C63.0255 9.36897 62.6725 10.5351 62.0034 11.5328C61.7885 11.8598 61.4327 12.0351 61.0701 12.0351Z" fill="#ED1C24"/>
<path d="M46.8167 14.2001C46.4445 14.2001 46.0791 14.0138 45.8643 13.6743C44.8216 12.028 44.2715 10.1208 44.2715 8.15846C44.2715 6.19612 44.823 4.28897 45.8643 2.64264C46.1996 2.11273 46.8974 1.95817 47.4229 2.29626C47.9484 2.63436 48.103 3.33816 47.7664 3.86807C46.9563 5.1487 46.528 6.63219 46.528 8.15984C46.528 9.68611 46.9563 11.171 47.7664 12.4502C48.1016 12.9801 47.947 13.6839 47.4229 14.022C47.2354 14.1421 47.0247 14.2001 46.8167 14.2001Z" fill="#ED1C24"/>
<path d="M43.1791 16.3191C42.8014 16.3191 42.432 16.1273 42.2185 15.7795C40.8159 13.4942 40.0742 10.8598 40.0742 8.1592C40.0742 5.45994 40.8159 2.82416 42.2185 0.538902C42.5469 0.00484559 43.2421 -0.160753 43.7716 0.170444C44.3012 0.501642 44.4654 1.20268 44.137 1.73673C42.9561 3.66182 42.3307 5.88222 42.3307 8.1592C42.3307 10.4362 42.9547 12.6566 44.137 14.5817C44.4654 15.1157 44.3012 15.8181 43.7716 16.148C43.5869 16.2639 43.3817 16.3191 43.1791 16.3191Z" fill="#ED1C24"/>
<path d="M50.4269 12.0351C50.0643 12.0351 49.7085 11.8598 49.4909 11.5341C48.8218 10.5364 48.4688 9.36892 48.4688 8.16143C48.4688 6.92772 48.8355 5.74231 49.5292 4.73078C49.8837 4.21466 50.587 4.08494 51.0988 4.44374C51.6106 4.80116 51.7392 5.51047 51.3834 6.02797C50.9524 6.65586 50.7238 7.39416 50.7238 8.16281C50.7238 8.9149 50.9442 9.64078 51.3588 10.2618C51.7077 10.782 51.5722 11.49 51.055 11.8419C50.8634 11.9716 50.6431 12.0351 50.4269 12.0351Z" fill="#ED1C24"/>
<path d="M71.4483 18.2444H0V28.0009H71.4483V18.2444Z" fill="white"/>
<path d="M4.4322 19.7019C4.85367 19.7019 5.22587 19.7585 5.54745 19.873C5.86902 19.9876 6.13586 20.1297 6.3507 20.3022C6.56417 20.4733 6.72701 20.6624 6.83785 20.8694C6.94869 21.0764 7.0089 21.271 7.02258 21.4559C7.02942 21.5318 7.00479 21.5939 6.95143 21.6422C6.89806 21.6891 6.83648 21.7139 6.76669 21.7139H6.10439C5.99765 21.7139 5.91692 21.6932 5.86355 21.6518C5.81018 21.6104 5.76092 21.5552 5.71713 21.4849C5.62271 21.3262 5.47903 21.1882 5.28745 21.0709C5.09588 20.9536 4.80988 20.8942 4.4322 20.8942C4.26799 20.8942 4.112 20.9122 3.96421 20.9467C3.81642 20.9812 3.68642 21.0322 3.57695 21.0985C3.46611 21.1647 3.3799 21.2461 3.31695 21.3413C3.25401 21.4366 3.22254 21.5442 3.22254 21.6656C3.22254 21.8119 3.25264 21.9306 3.31285 22.023C3.37306 22.1155 3.47295 22.1942 3.61527 22.2618C3.75758 22.328 3.94368 22.3901 4.17768 22.4481C4.41031 22.5047 4.70041 22.5723 5.04661 22.6482C5.42429 22.731 5.74997 22.8276 6.02502 22.9394C6.2987 23.0511 6.52312 23.1836 6.69553 23.3396C6.86932 23.4955 6.99795 23.6749 7.08279 23.8778C7.16763 24.0806 7.21005 24.3125 7.21005 24.5733C7.21005 24.8589 7.14711 25.1239 7.02121 25.3695C6.89532 25.6138 6.71606 25.8235 6.48206 25.9988C6.24944 26.1741 5.96207 26.3121 5.62271 26.4128C5.28198 26.5149 4.90156 26.5646 4.47873 26.5646C4.12568 26.5646 3.78905 26.5218 3.46748 26.4363C3.1459 26.3507 2.86128 26.2265 2.61223 26.065C2.36318 25.9036 2.16339 25.7076 2.0115 25.4785C1.86098 25.2495 1.77477 24.9955 1.75698 24.7168C1.75014 24.6409 1.77477 24.5788 1.82814 24.5305C1.8815 24.4822 1.94308 24.4587 2.01287 24.4587H2.67381C2.78054 24.4587 2.86265 24.478 2.92012 24.5153C2.97622 24.5539 3.02412 24.6105 3.06243 24.6864C3.10622 24.7692 3.15959 24.852 3.22254 24.9348C3.28548 25.0176 3.37032 25.0908 3.47706 25.1542C3.58379 25.2177 3.7179 25.2702 3.87937 25.3116C4.03947 25.353 4.23926 25.3737 4.47873 25.3737C4.66757 25.3737 4.85093 25.3599 5.02609 25.3309C5.20261 25.3019 5.35724 25.255 5.48861 25.1874C5.62134 25.1211 5.72808 25.0383 5.81018 24.939C5.89228 24.841 5.93334 24.7182 5.93334 24.5719C5.93334 24.4325 5.88955 24.318 5.8006 24.2283C5.71166 24.14 5.57892 24.0627 5.39829 23.9992C5.21903 23.9357 4.99735 23.875 4.73188 23.8184C4.46778 23.7618 4.16126 23.6887 3.81505 23.599C3.50032 23.5231 3.2239 23.432 2.98854 23.3271C2.75181 23.2223 2.55749 23.0939 2.40286 22.9407C2.24823 22.7889 2.13329 22.6095 2.05803 22.4025C1.98276 22.1955 1.94445 21.9499 1.94445 21.6643C1.94445 21.3786 2.0074 21.115 2.13329 20.8735C2.25918 20.632 2.43297 20.425 2.65328 20.2539C2.87359 20.0828 3.13633 19.9475 3.44285 19.8496C3.74937 19.7516 4.07915 19.7019 4.4322 19.7019Z" fill="black"/>
<path d="M14.3243 19.7961C14.3941 19.7961 14.4529 19.821 14.5036 19.872C14.5542 19.9231 14.5788 19.9838 14.5788 20.0528V20.729C14.5788 20.7994 14.5542 20.8587 14.5036 20.9098C14.4529 20.9609 14.3927 20.9857 14.3243 20.9857H12.6234V26.2076C12.6234 26.278 12.5987 26.3373 12.5481 26.3884C12.4975 26.4394 12.4373 26.4643 12.3688 26.4643H11.6039C11.5341 26.4643 11.4753 26.4394 11.4247 26.3884C11.374 26.3373 11.3494 26.278 11.3494 26.2076V20.9857H9.6471C9.57731 20.9857 9.51847 20.9609 9.46784 20.9098C9.41721 20.8587 9.39258 20.798 9.39258 20.729V20.0528C9.39258 19.9824 9.41721 19.9231 9.46784 19.872C9.51847 19.821 9.57868 19.7961 9.6471 19.7961H14.3243Z" fill="black"/>
<path d="M19.9168 19.7961C20.7037 19.7961 21.303 19.9811 21.7122 20.3481C22.1213 20.7166 22.3266 21.2286 22.3266 21.8827C22.3266 22.3464 22.2212 22.7424 22.0105 23.0695C21.7998 23.3965 21.4891 23.6394 21.08 23.7981L22.3841 26.1524C22.4032 26.191 22.4128 26.2255 22.4128 26.2573C22.4128 26.3138 22.3923 26.3635 22.3512 26.4049C22.3102 26.4463 22.2609 26.467 22.2048 26.467H21.4015C21.2757 26.467 21.1826 26.4367 21.1224 26.3759C21.0622 26.3152 21.0198 26.26 20.9951 26.209L19.7567 23.9885H18.5005V26.209C18.5005 26.2793 18.4745 26.3387 18.4253 26.3897C18.3746 26.4408 18.3144 26.4656 18.246 26.4656H17.4811C17.4113 26.4656 17.3525 26.4408 17.3018 26.3897C17.2512 26.3387 17.2266 26.2793 17.2266 26.209V20.0528C17.2266 19.9824 17.2512 19.9231 17.3018 19.872C17.3525 19.821 17.4127 19.7961 17.4811 19.7961H19.9168ZM18.4992 22.7976H19.8689C20.2275 22.7976 20.5148 22.7341 20.7283 22.6072C20.9418 22.4802 21.0499 22.2387 21.0499 21.8827C21.0499 21.5266 20.9431 21.2893 20.7283 21.1679C20.5135 21.0478 20.2275 20.9871 19.8689 20.9871H18.4992V22.7976Z" fill="black"/>
<path d="M29.66 25.2761C29.7297 25.2761 29.7886 25.3009 29.8392 25.352C29.8898 25.403 29.9145 25.4638 29.9145 25.5328V26.209C29.9145 26.2793 29.8898 26.3387 29.8392 26.3897C29.7886 26.4408 29.7284 26.4656 29.66 26.4656H25.5123C25.4425 26.4656 25.3837 26.4408 25.3331 26.3897C25.2824 26.3387 25.2578 26.2793 25.2578 26.209V20.0528C25.2578 19.9824 25.2824 19.9231 25.3331 19.872C25.3837 19.821 25.4439 19.7961 25.5123 19.7961H29.5847C29.6545 19.7961 29.7133 19.821 29.764 19.872C29.8146 19.9231 29.8392 19.9838 29.8392 20.0528V20.729C29.8392 20.7994 29.8132 20.8587 29.764 20.9098C29.7133 20.9609 29.6531 20.9857 29.5847 20.9857H26.5332V22.5009H29.3781C29.4479 22.5009 29.5067 22.5258 29.5573 22.5768C29.608 22.6279 29.6326 22.6886 29.6326 22.7576V23.4338C29.6326 23.5042 29.608 23.5635 29.5573 23.6146C29.5067 23.6656 29.4465 23.6905 29.3781 23.6905H26.5332V25.2719H29.66V25.2761Z" fill="black"/>
<path d="M35.8971 19.7961C35.9983 19.7961 36.0736 19.8237 36.1242 19.8776C36.1748 19.9314 36.2186 20.0128 36.2569 20.1204L38.5723 26.1427C38.5778 26.162 38.5819 26.1841 38.5819 26.209C38.5819 26.2793 38.5572 26.3387 38.5066 26.3897C38.456 26.4408 38.3971 26.4656 38.3273 26.4656H37.6472C37.5213 26.4656 37.4324 26.438 37.3831 26.3842C37.3325 26.3304 37.2983 26.278 37.2791 26.2269L36.8727 25.1684H33.8869L33.4805 26.2269C33.4613 26.278 33.4271 26.3304 33.3765 26.3842C33.3258 26.438 33.2382 26.4656 33.1124 26.4656H32.4323C32.3625 26.4656 32.3036 26.4408 32.253 26.3897C32.2024 26.3387 32.1777 26.2793 32.1777 26.209C32.1777 26.1841 32.1805 26.1607 32.1873 26.1427L34.5027 20.1204C34.541 20.0128 34.5848 19.9314 34.6354 19.8776C34.686 19.8237 34.7613 19.7961 34.8625 19.7961H35.8971ZM36.4157 23.9803L35.3757 21.2645L34.3357 23.9803H36.4157Z" fill="black"/>
<path d="M44.2406 23.1978L46.036 20.0528C46.0606 20.0211 46.103 19.97 46.1632 19.901C46.2234 19.8306 46.3165 19.7961 46.4424 19.7961H47.0855C47.1553 19.7961 47.2142 19.821 47.2648 19.872C47.3154 19.9231 47.3401 19.9838 47.3401 20.0528V26.209C47.3401 26.2793 47.3154 26.3387 47.2648 26.3897C47.2142 26.4408 47.154 26.4656 47.0855 26.4656H46.3206C46.2508 26.4656 46.192 26.4408 46.1413 26.3897C46.0907 26.3387 46.0661 26.2793 46.0661 26.209V22.483L44.8373 24.6275C44.8058 24.6785 44.762 24.731 44.7045 24.7848C44.6484 24.8386 44.5759 24.8662 44.4869 24.8662H43.9957C43.9081 24.8662 43.8356 24.84 43.7781 24.7848C43.722 24.731 43.6769 24.6785 43.6454 24.6275L42.4166 22.483V26.209C42.4166 26.2793 42.3906 26.3387 42.3413 26.3897C42.2907 26.4408 42.2305 26.4656 42.162 26.4656H41.3971C41.3273 26.4656 41.2685 26.4408 41.2178 26.3897C41.1672 26.3387 41.1426 26.2793 41.1426 26.209V20.0528C41.1426 19.9824 41.1672 19.9231 41.2178 19.872C41.2685 19.821 41.3287 19.7961 41.3971 19.7961H42.0402C42.1661 19.7961 42.2592 19.8306 42.3194 19.901C42.3796 19.9714 42.422 20.0211 42.4467 20.0528L44.2406 23.1978Z" fill="black"/>
<path d="M50.7701 26.4683C50.7004 26.4683 50.6415 26.4435 50.5909 26.3924C50.5403 26.3414 50.5156 26.282 50.5156 26.2116V20.0555C50.5156 19.9851 50.5403 19.9258 50.5909 19.8747C50.6415 19.8237 50.7017 19.7988 50.7701 19.7988H51.5351C51.6035 19.7988 51.6637 19.8237 51.7143 19.8747C51.765 19.9258 51.7896 19.9865 51.7896 20.0555V26.2116C51.7896 26.282 51.765 26.3414 51.7143 26.3924C51.6637 26.4435 51.6035 26.4683 51.5351 26.4683H50.7701Z" fill="black"/>
<path d="M59.2554 26.467C59.1486 26.467 59.0665 26.438 59.0091 26.3815C58.9529 26.3249 58.9119 26.2793 58.8859 26.2476L56.2408 22.2829V26.209C56.2408 26.2793 56.2148 26.3387 56.1655 26.3897C56.1149 26.4408 56.0547 26.4656 55.9863 26.4656H55.2213C55.1515 26.4656 55.0927 26.4408 55.0421 26.3897C54.9914 26.3387 54.9668 26.2793 54.9668 26.209V20.0528C54.9668 19.9824 54.9914 19.9231 55.0421 19.872C55.0927 19.821 55.1529 19.7961 55.2213 19.7961H55.8823C55.989 19.7961 56.0711 19.8251 56.1272 19.8817C56.1833 19.9383 56.2244 19.9838 56.2504 20.0156L58.8955 23.9803V20.0542C58.8955 19.9838 58.9201 19.9245 58.9707 19.8734C59.0214 19.8224 59.0816 19.7975 59.15 19.7975H59.9149C59.9834 19.7975 60.0436 19.8224 60.0942 19.8734C60.1448 19.9245 60.1695 19.9852 60.1695 20.0542V26.2103C60.1695 26.2807 60.1435 26.3401 60.0942 26.3911C60.0436 26.4422 59.9834 26.467 59.9149 26.467H59.2554Z" fill="black"/>
<path d="M63.1096 22.2659C63.1219 21.885 63.1917 21.5373 63.3176 21.2227C63.4435 20.908 63.6255 20.6389 63.8649 20.4126C64.1044 20.1877 64.3986 20.0124 64.7489 19.8882C65.0979 19.764 65.507 19.7019 65.9723 19.7019C66.5196 19.7019 66.9726 19.7737 67.3284 19.9158C67.6841 20.0593 67.9674 20.2304 68.1781 20.4305C68.3889 20.6306 68.5367 20.8376 68.6229 21.0502C68.7077 21.2627 68.757 21.4421 68.7693 21.5883C68.7761 21.6642 68.7515 21.7263 68.6981 21.7746C68.6448 21.8229 68.5832 21.8464 68.5134 21.8464H67.7485C67.6787 21.8464 67.6239 21.8285 67.5829 21.794C67.5418 21.7595 67.5117 21.7222 67.4926 21.6849C67.4803 21.6601 67.4474 21.6035 67.394 21.518C67.3407 21.4324 67.2558 21.3427 67.1382 21.2516C67.0218 21.1592 66.8686 21.0764 66.6797 21.0032C66.4909 20.9301 66.2542 20.8942 65.9709 20.8942C65.4988 20.8942 65.1211 21.0226 64.8365 21.2806C64.5532 21.5373 64.4014 21.8823 64.3822 22.3142C64.3699 22.5557 64.363 22.8138 64.363 23.0912C64.363 23.3672 64.3685 23.6266 64.3822 23.8681C64.4014 24.3952 64.5519 24.7775 64.8365 25.0162C65.1198 25.255 65.4974 25.3737 65.9709 25.3737C66.2035 25.3737 66.4184 25.3488 66.6141 25.2978C66.8097 25.2467 66.9781 25.1639 67.1204 25.0507C67.2613 24.9362 67.3722 24.7858 67.4515 24.5981C67.5309 24.4104 67.5692 24.18 67.5692 23.9067V23.8308H66.417C66.3472 23.8308 66.2884 23.806 66.2378 23.7549C66.1871 23.7039 66.1625 23.6445 66.1625 23.5742V22.898C66.1625 22.8276 66.1871 22.7682 66.2378 22.7172C66.2884 22.6661 66.3472 22.6413 66.417 22.6413H68.59C68.6598 22.6413 68.7187 22.6661 68.7693 22.7172C68.8199 22.7682 68.8446 22.829 68.8446 22.898V23.9468C68.8446 24.3276 68.7843 24.6795 68.6653 24.9997C68.5449 25.3198 68.3656 25.5972 68.1261 25.8291C67.8867 26.0609 67.587 26.2417 67.2285 26.3728C66.87 26.5025 66.4499 26.5687 65.9723 26.5687C65.4933 26.5687 65.0773 26.5053 64.7257 26.3783C64.3726 26.2513 64.0798 26.0733 63.8472 25.8442C63.6145 25.6152 63.4366 25.3405 63.3135 25.0204C63.1903 24.7002 63.1233 24.3483 63.111 23.9675C63.1041 23.8474 63.1 23.7135 63.0973 23.5673C63.0945 23.421 63.0918 23.2719 63.0918 23.1188C63.0918 22.967 63.0932 22.8165 63.0973 22.6703C63.0986 22.5198 63.1041 22.386 63.1096 22.2659Z" fill="black"/>
</g>
<defs>
<clipPath id="clip0_432_20080">
<rect width="71.4483" height="28" fill="white"/>
</clipPath>
</defs>
</svg>
