<svg width="17" height="17" viewBox="0 0 17 17" fill="none" xmlns="http://www.w3.org/2000/svg">
<path d="M16.125 8.125H9.375V1.375C9.375 1.02981 9.09519 0.75 8.75 0.75C8.40481 0.75 8.125 1.02981 8.125 1.375V8.125H1.375C1.02981 8.125 0.75 8.40481 0.75 8.75C0.75 9.09519 1.02981 9.375 1.375 9.375H8.125V16.125C8.125 16.4702 8.40481 16.75 8.75 16.75C9.09519 16.75 9.375 16.4702 9.375 16.125V9.375H16.125C16.4702 9.375 16.75 9.09519 16.75 8.75C16.75 8.40481 16.4702 8.125 16.125 8.125Z" fill="white"/>
</svg>
