<svg width="14" height="16" viewBox="0 0 14 16" fill="none" xmlns="http://www.w3.org/2000/svg">
<path d="M9.84312 0C8.99012 0.059 7.99312 0.605 7.41212 1.316C6.88212 1.961 6.44612 2.919 6.61612 3.85C7.54812 3.879 8.51112 3.32 9.06912 2.597C9.59112 1.924 9.98612 0.972 9.84312 0Z" fill="black"/>
<path d="M13.2141 5.36812C12.3951 4.34112 11.2441 3.74512 10.1571 3.74512C8.72212 3.74512 8.11512 4.43212 7.11812 4.43212C6.09012 4.43212 5.30912 3.74712 4.06812 3.74712C2.84912 3.74712 1.55112 4.49212 0.728123 5.76612C-0.428877 7.56012 -0.230877 10.9331 1.64412 13.8061C2.31512 14.8341 3.21112 15.9901 4.38312 16.0001C5.42612 16.0101 5.72012 15.3311 7.13312 15.3241C8.54612 15.3161 8.81412 16.0091 9.85512 15.9981C11.0281 15.9891 11.9731 14.7081 12.6441 13.6801C13.1251 12.9431 13.3041 12.5721 13.6771 11.7401C10.9641 10.7071 10.5291 6.84912 13.2141 5.36812Z" fill="black"/>
</svg>
